<svg xmlns="http://www.w3.org/2000/svg" viewBox="0 0 85.04 56.69"><defs><style>.cls-1{isolation:isolate;}.cls-12,.cls-2,.cls-9{opacity:0.4;}.cls-3{opacity:0.51;}.cls-4,.cls-6,.cls-7{fill:#fdb73b;}.cls-13,.cls-5{fill:#e96620;}.cls-13,.cls-6,.cls-7{mix-blend-mode:multiply;}.cls-6{opacity:0.8;}.cls-7{opacity:0.58;}.cls-8{opacity:0.65;}.cls-10{opacity:0.23;}.cls-11{fill:#c64d1f;}.cls-12,.cls-16{fill:#ffec68;}.cls-13{opacity:0.42;}.cls-14{fill:none;}.cls-15{fill:#ffe950;opacity:0.31;}.cls-16{opacity:0.5;}</style></defs><g class="cls-1"><g id="Layer_1" data-name="Layer 1"><path class="cls-2" d="M34.31,44.64c1.74.38,3.22.84,4.51,1.22,4.83,1.44,7.83,2.09,5.48,3s-4.83-.65-4.83-.65c-13.3-6.26-21.65.65-25.3.52s-1.7-1.56-1.7-1.56a52.85,52.85,0,0,1,7.65-2.33c-7.86.5-13.33,1.63-13.33,2.94C6.79,49.56,16.87,51,29.31,51s22.52-1.44,22.52-3.22C51.83,46.25,44.34,45,34.31,44.64Z"/><path class="cls-3" d="M14.17,48.73c3.65.13,12-6.78,25.3-.52,0,0,2.48,1.57,4.83.65s-.65-1.56-5.48-3c-1.29-.38-2.77-.84-4.51-1.22-1.61,0-3.28-.08-5-.08-3.27,0-6.38.1-9.19.28a52.85,52.85,0,0,0-7.65,2.33S10.52,48.6,14.17,48.73Z"/><path class="cls-4" d="M44.93,41.47c-.11-1.72-.35-3.44-.48-5.17-.34-4.62-.68-9.26-.9-13.89-.16-3.31,0-6.67-.36-10A10.27,10.27,0,0,0,41.4,7.17,3.43,3.43,0,0,0,39.91,6,5.13,5.13,0,0,0,36,6.56a15.56,15.56,0,0,0-3.56,2.58c-5,4.54-25.68,35.53-19.14,38.62,3.3,1.57,4.82-1.86,6-4.28,1.93-4,3.73-9.75,9.08-10.11a8.46,8.46,0,0,1,6.49,2.42,11.93,11.93,0,0,1,2.84,6.3c.42,2.1.69,4.39,2.39,5.91a2.6,2.6,0,0,0,2.21.66C45.39,48.18,45.08,43.86,44.93,41.47ZM35.15,26.79c-1.3,2-5.41,1.32-7.13.24-2-1.27-.92-4.07,0-5.75a25.68,25.68,0,0,1,4-6.09,5,5,0,0,1,.55-.46,2.26,2.26,0,0,1,3.59.88C37.37,18.29,36.88,24.15,35.15,26.79Z"/><path class="cls-5" d="M40,48.1c-1.75-1.56-2-3.89-2.43-6h0a11.87,11.87,0,0,0-2.81-6.23h0a8.32,8.32,0,0,0-5.84-2.4h0a4.87,4.87,0,0,0-.54,0h0c-5.24.33-7,6-9,10h0c-.95,2-2.14,4.74-4.52,4.76h0a3.8,3.8,0,0,1-1.63-.41h0a2.76,2.76,0,0,1-1.35-2.76h0C11.89,36.69,27.93,13,32.32,9h0a16,16,0,0,1,3.59-2.6h0a6.68,6.68,0,0,1,2.79-.74h0A3.59,3.59,0,0,1,40,5.91h0a3.58,3.58,0,0,1,1.55,1.18h0a10.39,10.39,0,0,1,1.82,5.34h0c.36,3.31.2,6.67.36,10h0c.21,4.64.56,9.26.9,13.89h0c.13,1.72.37,3.44.47,5.18h-.27c-.11-1.72-.34-3.43-.47-5.16h0c-.35-4.64-.69-9.27-.91-13.91h0c-.16-3.31,0-6.67-.35-9.95h0a10.24,10.24,0,0,0-1.76-5.2h0a3.29,3.29,0,0,0-1.43-1.09h0A3.35,3.35,0,0,0,38.7,6h0A6.31,6.31,0,0,0,36,6.68h0A15.44,15.44,0,0,0,32.5,9.24h0c-4.31,3.88-20.39,27.68-20.36,35.89h0a2.48,2.48,0,0,0,1.19,2.51h0a3.46,3.46,0,0,0,1.51.38h0c2.12,0,3.33-2.59,4.28-4.6h0c1.92-4,3.72-9.81,9.19-10.19h0l.56,0h0a8.58,8.58,0,0,1,6,2.48h0a12.09,12.09,0,0,1,2.89,6.37h0c.42,2.12.69,4.37,2.34,5.83h0a2.5,2.5,0,0,0,1.68.67h0a2,2,0,0,0,.42,0h0a2.65,2.65,0,0,0,2.15-1.76h0a8.5,8.5,0,0,0,.49-3.2h0c0-.75,0-1.48-.08-2.08h.27c0,.6.09,1.33.09,2.09h0a8.81,8.81,0,0,1-.51,3.31h0a3,3,0,0,1-2.36,1.93h0l-.47,0h0A2.73,2.73,0,0,1,40,48.1Zm-12-21a2.55,2.55,0,0,1-1.2-2.3h0a8.12,8.12,0,0,1,1.14-3.62h0a25,25,0,0,1,4-6.12h0a3.23,3.23,0,0,1,.56-.48h0a2.79,2.79,0,0,1,1.64-.57h0a2.34,2.34,0,0,1,2.15,1.5h0A10.25,10.25,0,0,1,37,19.69h0a14.31,14.31,0,0,1-1.7,7.18h0A3.69,3.69,0,0,1,32,28.2h0A8.32,8.32,0,0,1,28,27.14Zm4.67-12.3a4.65,4.65,0,0,0-.53.45h0a25.44,25.44,0,0,0-4,6.06h0A8,8,0,0,0,27,24.84h0a2.26,2.26,0,0,0,1.08,2.07h0a8.14,8.14,0,0,0,3.94,1h0a3.44,3.44,0,0,0,3-1.21h0a14.06,14.06,0,0,0,1.65-7h0a10.09,10.09,0,0,0-.68-4h0a2.08,2.08,0,0,0-1.9-1.35h0a2.59,2.59,0,0,0-1.48.52Z"/><path class="cls-6" d="M26.9,22.15s3.93-10,8.26-9.64,2.41,11.84,2.41,11.84-.89,3.24-2.89,3.72A5.57,5.57,0,0,0,37,24.22c.28-2.55,1.38-10.95-3-10.4S28.07,21.05,26.9,22.15Z"/><path class="cls-7" d="M37.71,6.73s2.75-1.31,4.2,2.48,1.17,15.28,1.58,20.45,1,12,1,13.22.14,5.09-2.14,4.95-2.47-1.3-1.92-1,3,.69,2.75-3S41.22,14,41.22,14,41.5,6.38,37.71,6.73Z"/><g class="cls-8"><path class="cls-5" d="M15,45.47a3.38,3.38,0,0,1-2.52-1.67,4.16,4.16,0,0,1-.29-.61A10.12,10.12,0,0,0,12,45a4.45,4.45,0,0,0,2.88,1.6,8.23,8.23,0,0,0,1.18.09h0a7.78,7.78,0,0,0,1.49-.14,10.21,10.21,0,0,0,.84-1.35,7.35,7.35,0,0,1-2.33.39A6.31,6.31,0,0,1,15,45.47Z"/><path class="cls-5" d="M19.69,41.81a5.15,5.15,0,0,1-3,1,4.67,4.67,0,0,1-.89-.08A2.66,2.66,0,0,1,14,41.16a4.55,4.55,0,0,1-.34-.94q0-.19-.06-.3a.23.23,0,0,1,0-.07v0a.8.8,0,0,0-.17-.4c-.34.9-.63,1.75-.85,2.55a4.25,4.25,0,0,0,3,2.34,6.2,6.2,0,0,0,1.19.11h0A6.72,6.72,0,0,0,19,44c.09-.19.17-.38.26-.56.28-.59.56-1.21.84-1.85a.83.83,0,0,0-.38.18Z"/></g><path class="cls-7" d="M13.13,45.49s-.14,1.93,1.65,1.93,3-2.85,5.1-6.92,4.54-8.34,9.84-7.77,7.51,5.71,7.65,5.21S37,34.8,37,32.16s.37-2.66-1.44-.78c-2.07,2.14-7.78.85-9.5-.86-1.89-1.88-1.17-1.57-2.83,1.86S16,49.7,13.13,45.49Z"/><g class="cls-9"><path d="M72.41,48.34c0,.73-4,1.43-9.09,1.57s-9.14-.34-9.16-1.07,4.05-1.44,9.09-1.58S72.39,47.61,72.41,48.34Z"/><path d="M78.25,46.54c0,.39-1.29.73-2.91.78s-2.93-.23-2.94-.62,1.29-.73,2.9-.77S78.24,46.16,78.25,46.54Z"/></g><g class="cls-10"><path d="M69.75,48.25c0,.39-3,.79-6.69.89s-6.72-.13-6.73-.52,3-.79,6.69-.89S69.74,47.86,69.75,48.25Z"/></g><path class="cls-5" d="M75.56,43.7a6.17,6.17,0,0,1-.84-1.84,10,10,0,0,1,.13-5,18,18,0,0,0,.47-6.85,8.74,8.74,0,0,0-5.85-6.66,14.28,14.28,0,0,0-1.65-.47,11,11,0,0,0-10.71,3.28,11.49,11.49,0,0,0-1.7,2.28,2.09,2.09,0,1,0,3.69,2h0a8.53,8.53,0,0,1,2-2.25A6.71,6.71,0,0,1,63.52,27a7.16,7.16,0,0,1,3.4,0,10.5,10.5,0,0,1,1.17.33,4.51,4.51,0,0,1,3.11,3.47A14.28,14.28,0,0,1,70.77,36l-.06-.18a6,6,0,0,0-2.84-3.4,5.79,5.79,0,0,0-1.47-.54,6.75,6.75,0,0,0-4.79.84A9.48,9.48,0,0,0,58,36.45,10.17,10.17,0,0,0,57.09,39a8.29,8.29,0,0,0,.21,4.51,6.06,6.06,0,0,0,2.85,3.4,5.52,5.52,0,0,0,1.45.54h0a6.75,6.75,0,0,0,4.79-.84A9.48,9.48,0,0,0,70,42.82h0a10.07,10.07,0,0,0,.44-1,9.06,9.06,0,0,0,.31,1.3,9.68,9.68,0,0,0,1.61,3.23,2.12,2.12,0,0,0,1.15.7,2.1,2.1,0,0,0,2.06-3.4Zm-8.78-2.59h0a5.75,5.75,0,0,1-2.18,2.33,3.16,3.16,0,0,1-2.21.44,2,2,0,0,1-.54-.19,2.41,2.41,0,0,1-1.12-1.4,4.65,4.65,0,0,1-.09-2.54,6.17,6.17,0,0,1,.59-1.59,5.75,5.75,0,0,1,2.18-2.33,3.2,3.2,0,0,1,2.2-.45h0a2.49,2.49,0,0,1,.54.2A2.41,2.41,0,0,1,67.28,37a4.7,4.7,0,0,1,.1,2.53A6.14,6.14,0,0,1,66.78,41.11Z"/><path class="cls-11" d="M60.08,47a6.19,6.19,0,0,1-2.91-3.49h0A8.44,8.44,0,0,1,57,39h0a10.05,10.05,0,0,1,.95-2.56h0a9.49,9.49,0,0,1,3.64-3.83h0a6.9,6.9,0,0,1,4.89-.86h0a6,6,0,0,1,1.5.55h0a6.14,6.14,0,0,1,2.8,3.18h0a12.49,12.49,0,0,0,.33-4.57h0a4.39,4.39,0,0,0-3-3.37h0a10.36,10.36,0,0,0-1.16-.33h0a7.12,7.12,0,0,0-3.33,0h0a6.52,6.52,0,0,0-2.33,1.15h0a8.17,8.17,0,0,0-2,2.2h0a2.25,2.25,0,0,1-2.45,1.13h0a2.13,2.13,0,0,1-.58-.21h0A2.24,2.24,0,0,1,55.07,29h0a2.13,2.13,0,0,1,.21-.58h0A11.69,11.69,0,0,1,57,26.12h0a11.52,11.52,0,0,1,5.27-3.23h0a11.44,11.44,0,0,1,5.55-.1h0a12.66,12.66,0,0,1,1.66.47h0A8.86,8.86,0,0,1,75.45,30h0a18.18,18.18,0,0,1-.46,6.9h0a9.87,9.87,0,0,0-.13,4.89h0a5.94,5.94,0,0,0,.8,1.78h0l-.1.1.1-.09a2.23,2.23,0,0,1,.48,1.92h0a2.31,2.31,0,0,1-.75,1.23h0a2.25,2.25,0,0,1-1.92.47h0a2.24,2.24,0,0,1-1.23-.74h0a9.84,9.84,0,0,1-1.63-3.28h0c-.09-.29-.17-.58-.23-.87h0c-.09.18-.17.36-.27.54h0a9.49,9.49,0,0,1-3.64,3.83h0a6.9,6.9,0,0,1-4.89.86h0a6.29,6.29,0,0,1-1.5-.55Zm1.6-14.22a9.2,9.2,0,0,0-3.53,3.72h0A9.28,9.28,0,0,0,57.23,39h0a8.09,8.09,0,0,0,.2,4.43h0a6,6,0,0,0,2.78,3.33h0a5.93,5.93,0,0,0,1.42.52h0a6.59,6.59,0,0,0,4.69-.82h0a9.36,9.36,0,0,0,3.54-3.72h0c.16-.31.3-.62.43-.93h0a.13.13,0,0,1,.14-.09h0a.14.14,0,0,1,.12.12h0a10.27,10.27,0,0,0,.32,1.27h0a9.32,9.32,0,0,0,1.58,3.19h0a2,2,0,0,0,1.07.65h0a2,2,0,0,0,1.68-.42h0a1.92,1.92,0,0,0,.65-1.07h0a1.91,1.91,0,0,0-.41-1.67h0a6.65,6.65,0,0,1-.86-1.89h0a10.06,10.06,0,0,1,.12-5h0a18,18,0,0,0,.47-6.8h0a8.61,8.61,0,0,0-5.76-6.55h0a15.61,15.61,0,0,0-1.64-.46h0a11.12,11.12,0,0,0-5.41.1h0a11.21,11.21,0,0,0-5.14,3.15h0a11.19,11.19,0,0,0-1.69,2.25h0a1.91,1.91,0,0,0-.19.5h0a2,2,0,0,0,1,2.14h0a2.11,2.11,0,0,0,.51.19h0a2,2,0,0,0,2.14-1h0a8.15,8.15,0,0,1,2.08-2.3h0a6.83,6.83,0,0,1,2.43-1.2h0a7.41,7.41,0,0,1,3.46,0h0a9.07,9.07,0,0,1,1.19.34h0a4.68,4.68,0,0,1,3.2,3.58h0A14.3,14.3,0,0,1,70.9,36h0a.13.13,0,0,1-.13.11h0a.13.13,0,0,1-.14-.09h0c0-.07,0-.13,0-.18h0A6,6,0,0,0,67.8,32.5h0A5.88,5.88,0,0,0,66.37,32h0a6.64,6.64,0,0,0-4.69.83Zm.11,11a2.54,2.54,0,0,1-1.19-1.48h0a4.76,4.76,0,0,1-.1-2.6h0a6.79,6.79,0,0,1,.6-1.64h0a6,6,0,0,1,2.24-2.38h0a3.25,3.25,0,0,1,2.3-.46h0a2.13,2.13,0,0,1,.58.21h0a2.55,2.55,0,0,1,1.19,1.48h0a4.74,4.74,0,0,1,.09,2.59h0a6.39,6.39,0,0,1-.6,1.64h0a6,6,0,0,1-2.24,2.38h0a3.35,3.35,0,0,1-2.3.46h0a2,2,0,0,1-.57-.21Zm-1-4a4.61,4.61,0,0,0,.09,2.45h0a2.26,2.26,0,0,0,1.06,1.32h0a1.37,1.37,0,0,0,.49.18h0a3.06,3.06,0,0,0,2.1-.44h0a5.57,5.57,0,0,0,2.13-2.26h0a6.1,6.1,0,0,0,.58-1.54h0v0h0A4.58,4.58,0,0,0,67.15,37h0a2.32,2.32,0,0,0-1.06-1.33h0a2.13,2.13,0,0,0-.5-.18h0a3,3,0,0,0-2.1.43h0a5.67,5.67,0,0,0-2.13,2.27h0a6.66,6.66,0,0,0-.58,1.57Zm6,1.32,0-.13,0,.13Z"/><path class="cls-12" d="M60.94,45.89c-2.49-1.17-3.51-4.15-2.86-7.06h0a8.12,8.12,0,0,1,.6-1.78h0c1.42-3.07,4.41-4.9,7.21-4.31h0a5.13,5.13,0,0,1,1,.34h0c2.49,1.17,3.51,4.15,2.87,7.06h0a8.68,8.68,0,0,1-.6,1.78h0l-.63-.3.63.3c-1.43,3.07-4.41,4.9-7.22,4.31h0a5.36,5.36,0,0,1-1-.34Zm-1-8.25a7.68,7.68,0,0,0-.5,1.49h0c-.53,2.46.36,4.7,2.09,5.49h0a3.13,3.13,0,0,0,.71.24h0c2,.45,4.44-.92,5.65-3.53h0a6.53,6.53,0,0,0,.5-1.49h0c.54-2.45-.35-4.7-2.09-5.49h0a3,3,0,0,0-.71-.24h0c-2-.43-4.42.94-5.62,3.54Z"/><path class="cls-13" d="M70.27,36s.3.28.42,1.57.28-.94.53-2C71.22,35.54,70.75,37,70.27,36Z"/><path class="cls-13" d="M70.56,39.64A11.86,11.86,0,0,1,70,42s.34-.69.49-.7.25.48.29.73S70.57,40.35,70.56,39.64Z"/><path class="cls-14" d="M75.16,43a4,4,0,0,0,.22.42,1.8,1.8,0,0,0-.09-.65Z"/><path class="cls-14" d="M66.16,35.58a2.49,2.49,0,0,0-.54-.2h0a3.2,3.2,0,0,0-2.2.45,5.75,5.75,0,0,0-2.18,2.33,6.17,6.17,0,0,0-.59,1.59,4.65,4.65,0,0,0,.09,2.54,2.41,2.41,0,0,0,1.12,1.4,2,2,0,0,0,.54.19,3.16,3.16,0,0,0,2.21-.44,5.75,5.75,0,0,0,2.18-2.33h0a6.14,6.14,0,0,0,.6-1.6,4.7,4.7,0,0,0-.1-2.53A2.41,2.41,0,0,0,66.16,35.58Z"/><path class="cls-14" d="M70.43,41.87c-.11.27-.24.54-.37.81a.24.24,0,0,1,.08.09,2.27,2.27,0,0,0,.77.88c-.06-.17-.11-.33-.17-.48A9.06,9.06,0,0,1,70.43,41.87Z"/><path class="cls-11" d="M76,44.48a2.17,2.17,0,0,0-.41-.78,1.17,1.17,0,0,1-.18-.26,1.54,1.54,0,0,1,0,.31A2.32,2.32,0,0,1,74,45.33a2.4,2.4,0,0,1-1.58.2,1.87,1.87,0,0,1-1-.55,6.73,6.73,0,0,0,.87,1.38A3.31,3.31,0,0,0,76,44.48Z"/><path class="cls-11" d="M73.76,44.3A3.29,3.29,0,0,0,75.16,43c-.1-.21-.19-.45-.28-.7a2.75,2.75,0,0,1-1.36,1.48,2.68,2.68,0,0,1-1.77.21,2.33,2.33,0,0,1-.84-.36c.09.25.18.51.29.78a3.52,3.52,0,0,0,.43.13A3.25,3.25,0,0,0,73.76,44.3Z"/><path class="cls-15" d="M73.49,45.17a5.35,5.35,0,0,1-1.37-2.64h0a13.51,13.51,0,0,1,.06-5.23h0c.44-2.46.95-4.86.42-7.1h0a7.28,7.28,0,0,0-3.06-4.28h0a6.06,6.06,0,0,0-2-1h0l-.18,0h0a8.44,8.44,0,0,0-7.16,1.57h0a11.13,11.13,0,0,0-2.8,3.14h0s0,.05,0,.05h0a.7.7,0,0,1-.95.29h0A.68.68,0,0,1,56.1,29h0A12.13,12.13,0,0,1,59,25.66h0a9.86,9.86,0,0,1,8.66-2.11h0l.22.05h0a7.41,7.41,0,0,1,2.51,1.17h0A8.74,8.74,0,0,1,74,29.89h0c.6,2.65,0,5.24-.41,7.65h0a11.78,11.78,0,0,0-.07,4.69h0a3.93,3.93,0,0,0,1,2h0a.69.69,0,0,1,0,1h0a.69.69,0,0,1-.65.2h0a.73.73,0,0,1-.34-.19Z"/><path class="cls-16" d="M41.18,36.81c0-1-.11-2.06-.12-3.09-.07-4.33.07-8.67-.2-13-.22-3.7-.55-7.81-2.26-11.17C38,8.35,36.81,6.73,35.25,7.41,34,8,33,9.45,32.13,10.5c-2.09,2.57-4.05,5.25-6,7.94-.71,1-1.47,1.91-2.08,2.95s-1.33,2.29-2,3.42l-1,1.65c-.64,1.08-1.28,2.16-1.9,3.25C18.05,31.66,17,33.63,16,35.66a33.4,33.4,0,0,0-1.81,4.59c-.16.54-.67,1.82-.34,2.39.54.92,2.74-3.18,2.91-3.51,1.95-3.62,3.63-7.38,5.5-11,2-4,4.24-7.8,6.58-11.58a21,21,0,0,1,3.45-4.25c1.17-1.12,4-4,5.68-2.17,1.12,1.23,1.18,3.32,1.21,4.88,0,1.82-.05,3.65-.11,5.47a19.08,19.08,0,0,1-.56,4.82,4,4,0,0,1-1.19,2.09,4.71,4.71,0,0,1,1.46,3.48c.08,2.53-.3,5.06-.19,7.59a17.85,17.85,0,0,0,.53,3.79,4.45,4.45,0,0,0,1,2.14c1.13,1,1.21-1.69,1.22-2.21C41.4,40.36,41.29,38.59,41.18,36.81Z"/></g></g></svg>