<?xml version="1.0" encoding="utf-8"?>
<!-- Generator: Adobe Illustrator 26.0.3, SVG Export Plug-In . SVG Version: 6.00 Build 0)  -->
<svg version="1.1" id="Layer_1" xmlns="http://www.w3.org/2000/svg" xmlns:xlink="http://www.w3.org/1999/xlink" x="0px" y="0px"
	 viewBox="0 0 85.04 56.69" style="enable-background:new 0 0 85.04 56.69;" xml:space="preserve">
<style type="text/css">
	.st0{fill:#C2188D;stroke:#822A88;stroke-width:0.25;stroke-linecap:round;stroke-linejoin:round;}
	.st1{opacity:0.6;fill:#8D55A2;}
	.st2{opacity:0.6;fill:#F6A8CA;}
	.st3{opacity:0.85;fill:#FFFFFF;}
	.st4{fill:#80391D;}
	.st5{fill:#FDB73B;}
	.st6{fill:#E96620;}
	.st7{opacity:0.8;fill:#FDB73B;}
	.st8{opacity:0.58;fill:#FDB73B;}
	.st9{fill:#F09D1F;}
	.st10{opacity:0.65;}
	.st11{opacity:0.5;fill:#FFEC68;}
	.st12{fill:#58595B;}
	.st13{fill:#231F20;}
	.st14{fill:#999999;}
</style>
<g>
	<g>
		<path class="st0" d="M56.08,40.2c-0.46,0-0.9-0.12-1.33-0.36c-0.43-0.24-0.77-0.55-1.03-0.92c-0.26-0.37-0.41-0.79-0.45-1.24
			c-0.04-0.46,0.09-0.89,0.41-1.29c0.09-0.31,0.26-0.68,0.52-1.09c0.26-0.41,0.53-0.83,0.82-1.24c0.29-0.41,0.57-0.8,0.86-1.16
			c0.29-0.36,0.49-0.64,0.6-0.84c1.63-2.29,3.35-4.47,5.17-6.54c1.82-2.07,3.68-4.14,5.6-6.2c-0.83,0.03-1.65,0.05-2.45,0.06
			c-0.8,0.01-1.62,0.02-2.45,0.02c-1.14,0-2.35,0.04-3.6,0.13c-1.26,0.09-2.45-0.04-3.56-0.39c-0.63-0.2-1.08-0.53-1.35-0.99
			c-0.27-0.46-0.39-0.94-0.34-1.46c0.04-0.52,0.23-1,0.56-1.46c0.33-0.46,0.78-0.79,1.35-0.99c0.26-0.09,0.67-0.13,1.24-0.15
			c0.57-0.01,1.16-0.01,1.78,0c0.62,0.01,1.19,0.04,1.72,0.06c0.53,0.03,0.89,0.04,1.09,0.04c1.29,0,2.58-0.01,3.88-0.04
			c1.3-0.03,2.61-0.06,3.93-0.09c0.43,0,0.86-0.01,1.29-0.02c0.43-0.01,0.87-0.02,1.33-0.02c0.43,0,0.91,0,1.44,0
			c0.53,0,1.03,0.06,1.5,0.19c0.47,0.13,0.89,0.35,1.25,0.67c0.36,0.31,0.56,0.77,0.62,1.37c0.06,0.43,0.03,0.8-0.09,1.12
			c-0.11,0.32-0.28,0.6-0.49,0.86c-0.21,0.26-0.47,0.5-0.75,0.73c-0.29,0.23-0.57,0.47-0.86,0.73c-0.66,0.57-1.3,1.15-1.93,1.74
			c-0.63,0.59-1.23,1.19-1.8,1.82c-1.66,1.8-3.29,3.65-4.89,5.56c-1.6,1.9-3.13,3.85-4.59,5.86c1,0.03,2.01,0.06,3.03,0.11
			c1.02,0.04,2.02,0.08,3.03,0.11c0.92,0.03,1.85,0.04,2.79,0.02c0.94-0.01,1.87-0.11,2.79-0.28c0.57-0.09,1.15-0.2,1.74-0.34
			c0.59-0.14,1.17-0.07,1.74,0.21c0.4,0.2,0.72,0.47,0.97,0.81c0.24,0.34,0.39,0.72,0.45,1.12c0.06,0.4,0.03,0.79-0.09,1.18
			c-0.11,0.39-0.34,0.74-0.69,1.05c-0.49,0.43-1.04,0.71-1.65,0.84c-0.62,0.13-1.21,0.25-1.78,0.36c-1.43,0.26-2.87,0.37-4.31,0.34
			c-1.45-0.03-2.89-0.09-4.33-0.17c-1.45-0.09-2.89-0.14-4.33-0.17C58.94,39.82,57.51,39.94,56.08,40.2z"/>
	</g>
	<path class="st1" d="M54.06,16.84c0,0,0.29,1.88,3.19,1.88l11.05,0.04l-1.76,2.09l2.66-2.09c0,0,0.9-1.06-1.27-1.06H57.13
		C57.13,17.7,55.29,17.9,54.06,16.84z"/>
	<path class="st1" d="M75.22,15.28c0,0,0.98,1.68-0.7,2.95c-1.68,1.27-12.24,12.44-14.2,16.17c0,0-0.61,1.06,0.86,1.06
		c0,0-1.72,0.57-1.8-0.04c-0.08-0.61-0.16-0.82,0.74-2.37c0.9-1.55,10.81-12.93,14.12-15.55C74.24,17.49,75.35,16.75,75.22,15.28z"
		/>
	<path class="st1" d="M53.98,37.83c0,0,0.45,1.64,2.21,1.56c1.76-0.08,3.93-0.65,10.4-0.08c6.47,0.57,9.17-0.57,9.82-1.35
		c0.65-0.78,0.65-1.35,0.29-2.21c0,0,0.53,1.72-1.64,2.25c-2.17,0.53-4.58,0.82-7.78,0.45c-3.19-0.37-7.74-0.29-10.15,0.04
		C54.72,38.81,54.27,38.08,53.98,37.83z"/>
	<path class="st2" d="M68.23,16.71H55.58c0,0-1.15-0.12-1.15-0.57c0-0.45,0.29-1.19,1.68-1.19c1.39,0,16.25,0.12,16.25,0.12
		s1.51-0.04,1.76,0.45c0.25,0.49-0.04,0.9-1.47,2.21c-1.43,1.31-15.06,15.14-14.82,17.64c0,0-0.94,1.19,3.89,1.15
		c4.83-0.04,10.97,0.53,12.97-0.74c0,0,0.45-0.41,1.02-0.16c0.57,0.25,0.37,1.11,0,1.31c-0.37,0.2-3.89,1.47-8.88,0.82
		c0,0-6.1-0.57-9.37,0.08c-3.27,0.65-3.56-0.29-2.82-1.43c0.74-1.15,10.11-13.63,16.21-18.58c0,0,1.92-1.23-0.08-1.11H68.23z"/>
	<path class="st3" d="M54.28,17.08c-0.23-0.02-0.39-0.21-0.38-0.44l0,0c0-0.04,0.04-0.45,0.32-0.93l0,0c0.28-0.48,0.86-1,1.81-1.16
		l0,0c0.22-0.04,0.44,0.11,0.47,0.33l0,0c0.04,0.22-0.11,0.44-0.33,0.47l0,0c-0.69,0.13-1.02,0.43-1.22,0.72l0,0
		c-0.2,0.29-0.24,0.59-0.25,0.62l0,0v0c-0.02,0.21-0.2,0.38-0.41,0.38l0,0C54.3,17.08,54.29,17.08,54.28,17.08L54.28,17.08z"/>
	<path class="st3" d="M57.36,15.28L57.36,15.28c-0.22-0.03-0.38-0.24-0.34-0.47l0,0c0.03-0.22,0.24-0.38,0.47-0.34l0,0
		c0,0,0.03,0,0.09,0.01l0,0c0.07,0.01,0.17,0.02,0.31,0.04l0,0c0.29,0.03,0.73,0.07,1.36,0.11l0,0c1.26,0.08,3.26,0.16,6.2,0.16l0,0
		c1.89,0,4.17-0.03,6.89-0.12l0,0c0.23-0.01,0.41,0.17,0.42,0.4l0,0c0.01,0.23-0.17,0.41-0.4,0.42l0,0
		c-2.73,0.09-5.02,0.12-6.92,0.12l0,0C59.55,15.61,57.39,15.28,57.36,15.28L57.36,15.28z"/>
	<path class="st3" d="M66.35,21.76c-0.17-0.15-0.18-0.41-0.02-0.58l0,0l1.07-1.16c0.15-0.17,0.41-0.18,0.58-0.02l0,0
		c0.17,0.15,0.18,0.41,0.02,0.58l0,0l-1.07,1.16c-0.08,0.09-0.19,0.13-0.3,0.13l0,0C66.52,21.86,66.42,21.83,66.35,21.76
		L66.35,21.76z"/>
	<path class="st3" d="M54.07,37.46c-0.01-0.05-0.01-0.1-0.01-0.14l0,0c0-0.22,0.07-0.41,0.16-0.63l0,0
		c0.09-0.22,0.22-0.47,0.38-0.75l0,0c0.32-0.55,0.76-1.22,1.3-1.97l0,0c1.06-1.49,2.47-3.3,3.88-5.05l0,0
		c2.82-3.49,5.64-6.75,5.64-6.75l0,0l0,0c0.15-0.17,0.41-0.19,0.58-0.04l0,0c0.17,0.15,0.19,0.41,0.04,0.58l0,0
		c0,0-0.35,0.4-0.92,1.07l0,0c-0.57,0.67-1.37,1.61-2.27,2.7l0,0c-1.8,2.16-4.02,4.89-5.66,7.11l0,0c-1.09,1.48-1.94,2.75-2.21,3.42
		l0,0c-0.07,0.16-0.1,0.29-0.1,0.31l0,0c0.04,0.22-0.11,0.43-0.33,0.47l0,0c-0.03,0.01-0.05,0.01-0.08,0.01l0,0
		C54.27,37.79,54.1,37.65,54.07,37.46L54.07,37.46z"/>
	<path class="st3" d="M60.88,36.13c-0.23-0.02-0.39-0.22-0.37-0.44l0,0c0.02-0.23,0.22-0.39,0.44-0.37l0,0c0,0,0.24,0.02,0.65,0.05
		l0,0c0.41,0.03,1,0.07,1.69,0.11l0,0c1.39,0.08,3.2,0.16,4.89,0.16l0,0c0.91,0,1.77-0.02,2.52-0.08l0,0
		c0.75-0.06,1.37-0.15,1.76-0.28l0,0c0.22-0.07,0.45,0.05,0.51,0.27l0,0c0.07,0.22-0.05,0.45-0.27,0.51l0,0
		c-0.5,0.16-1.17,0.25-1.95,0.31l0,0c-0.78,0.06-1.67,0.08-2.58,0.08l0,0C64.75,36.45,60.88,36.13,60.88,36.13L60.88,36.13z"/>
	<path class="st3" d="M75.91,36.17c-0.16-0.23-0.36-0.36-0.59-0.45l0,0c-0.22-0.09-0.47-0.12-0.7-0.12l0,0
		c-0.31,0-0.57,0.06-0.61,0.07l0,0c-0.01,0-0.01,0-0.01,0l0,0l0,0c-0.22,0.06-0.44-0.07-0.5-0.29l0,0c-0.06-0.22,0.07-0.44,0.29-0.5
		l0,0c0.02-0.01,0.36-0.1,0.84-0.1l0,0c0.29,0,0.64,0.04,0.99,0.17l0,0c0.35,0.13,0.7,0.37,0.96,0.75l0,0
		c0.13,0.18,0.08,0.44-0.1,0.57l0,0c-0.07,0.05-0.15,0.07-0.23,0.07l0,0C76.12,36.35,75.99,36.29,75.91,36.17L75.91,36.17z"/>
</g>
<g>
	<g>
		<g>
			<path class="st4" d="M50.18,27.08c-0.02,0.02-0.04,0.04-0.06,0.06l0,0C50.14,27.13,50.16,27.11,50.18,27.08L50.18,27.08z"/>
		</g>
	</g>
</g>
<g>
	<g>
		<g>
			<path class="st5" d="M28.03,37.11c-0.08-1.22-0.24-2.42-0.33-3.64c-0.24-3.26-0.48-6.52-0.64-9.78c-0.11-2.33,0-4.69-0.25-7.01
				c-0.14-1.29-0.44-2.67-1.26-3.71c-0.31-0.4-0.67-0.65-1.05-0.79c-0.85-0.32-1.84-0.09-2.78,0.36c-0.91,0.44-1.76,1.14-2.5,1.81
				c-3.54,3.2-18.07,25-13.47,27.18c2.32,1.1,3.39-1.32,4.2-3.01c1.36-2.85,2.62-6.86,6.39-7.12c1.68-0.11,3.39,0.52,4.57,1.7
				c1.19,1.2,1.68,2.82,2,4.43c0.3,1.48,0.49,3.09,1.68,4.16c0.44,0.39,0.97,0.56,1.56,0.47C28.35,41.83,28.13,38.79,28.03,37.11z
				 M21.15,26.78c-0.92,1.4-3.8,0.92-5.01,0.16c-1.42-0.89-0.65-2.86-0.01-4.04c0.81-1.5,1.59-3.06,2.8-4.28
				c0.12-0.12,0.24-0.23,0.38-0.33c0.92-0.66,2.02-0.48,2.53,0.62C22.71,20.8,22.37,24.92,21.15,26.78z"/>
			<path class="st6" d="M24.52,41.77c-1.23-1.1-1.41-2.74-1.71-4.21l0,0c-0.32-1.61-0.81-3.21-1.98-4.38l0,0
				c-1.07-1.08-2.59-1.69-4.11-1.69l0,0c-0.13,0-0.25,0-0.38,0.01l0,0c-3.68,0.24-4.94,4.19-6.31,7.06l0,0
				c-0.67,1.39-1.51,3.33-3.18,3.35l0,0c-0.35,0-0.73-0.09-1.15-0.29l0,0c-0.66-0.32-0.95-1.01-0.95-1.94l0,0
				c0.02-5.94,11.31-22.6,14.39-25.4l0,0c0.75-0.68,1.6-1.38,2.53-1.83l0,0c0.64-0.31,1.31-0.52,1.96-0.52l0,0
				c0.31,0,0.61,0.05,0.89,0.16l0,0c0.4,0.15,0.77,0.42,1.09,0.83l0,0c0.84,1.07,1.14,2.46,1.28,3.76l0,0
				c0.25,2.33,0.14,4.69,0.25,7.01l0,0c0.15,3.26,0.39,6.52,0.64,9.78l0,0c0.09,1.21,0.26,2.42,0.33,3.64l0,0l-0.1,0.01l-0.1,0.01
				c-0.08-1.21-0.24-2.42-0.33-3.64l0,0c-0.24-3.26-0.48-6.52-0.64-9.78l0,0c-0.11-2.33,0-4.7-0.25-7l0,0
				c-0.14-1.28-0.44-2.64-1.24-3.66l0,0c-0.3-0.38-0.64-0.63-1.01-0.76l0,0c-0.26-0.1-0.54-0.14-0.82-0.14l0,0
				c-0.6,0-1.25,0.2-1.88,0.5l0,0c-0.9,0.43-1.74,1.13-2.48,1.8l0,0C16.25,17.16,4.94,33.91,4.95,39.69l0,0
				c0,0.89,0.26,1.49,0.84,1.76l0,0c0.4,0.19,0.75,0.27,1.07,0.27l0,0c1.49,0.01,2.34-1.83,3.01-3.24l0,0
				c1.35-2.83,2.62-6.9,6.47-7.17l0,0c0.13-0.01,0.26-0.01,0.39-0.01l0,0c1.58,0,3.14,0.63,4.25,1.75l0,0
				c1.21,1.22,1.71,2.86,2.03,4.48l0,0c0.29,1.49,0.49,3.07,1.65,4.1l0,0c0.35,0.31,0.74,0.46,1.18,0.47l0,0
				c0.1,0,0.2-0.01,0.3-0.02l0,0c0.79-0.12,1.24-0.59,1.51-1.24l0,0c0.27-0.65,0.35-1.47,0.34-2.25l0,0c0-0.53-0.03-1.04-0.06-1.46
				l0,0l0.1-0.01l0.1-0.01c0.03,0.42,0.06,0.94,0.06,1.47l0,0c0,0.79-0.07,1.64-0.36,2.33l0,0c-0.28,0.69-0.8,1.23-1.66,1.36l0,0
				c-0.11,0.02-0.22,0.03-0.33,0.03l0,0C25.35,42.29,24.9,42.11,24.52,41.77L24.52,41.77z M16.08,27.02
				c-0.62-0.39-0.85-0.99-0.85-1.62l0,0c0-0.89,0.43-1.85,0.8-2.55l0,0c0.81-1.5,1.59-3.07,2.82-4.31l0,0
				c0.12-0.12,0.25-0.23,0.39-0.34l0,0c0.37-0.26,0.77-0.4,1.16-0.4l0,0c0.62,0,1.19,0.36,1.51,1.06l0,0
				c0.34,0.74,0.5,1.79,0.5,2.91l0,0c0,1.84-0.42,3.87-1.19,5.06l0,0c-0.46,0.69-1.34,0.94-2.27,0.94l0,0
				C17.89,27.77,16.75,27.44,16.08,27.02L16.08,27.02z M19.37,18.37c-0.13,0.1-0.25,0.2-0.37,0.31l0,0
				c-1.21,1.2-1.97,2.76-2.79,4.26l0,0c-0.37,0.68-0.78,1.63-0.78,2.46l0,0c0,0.59,0.2,1.1,0.76,1.46l0,0
				c0.63,0.39,1.74,0.72,2.77,0.72l0,0c0.9,0,1.71-0.24,2.11-0.85l0,0c0.74-1.13,1.16-3.14,1.16-4.95l0,0c0-1.1-0.16-2.13-0.48-2.83
				l0,0c-0.3-0.64-0.8-0.94-1.34-0.94l0,0C20.07,18.01,19.71,18.13,19.37,18.37L19.37,18.37z"/>
		</g>
	</g>
	<path class="st7" d="M15.34,23.51c0,0,2.76-7.03,5.81-6.78c3.05,0.24,1.7,8.33,1.7,8.33s-0.63,2.28-2.03,2.62
		c0,0,1.45-0.92,1.65-2.71c0.19-1.79,0.97-7.7-2.08-7.32C17.33,18.04,16.17,22.74,15.34,23.51z"/>
	<path class="st8" d="M22.95,12.66c0,0,1.94-0.92,2.96,1.74c1.02,2.66,0.82,10.76,1.11,14.39c0.29,3.63,0.68,8.43,0.68,9.3
		c0,0.87,0.1,3.59-1.5,3.49c-1.6-0.1-1.74-0.92-1.36-0.73c0.39,0.19,2.08,0.48,1.94-2.13c-0.15-2.62-1.36-20.93-1.36-20.93
		S25.62,12.42,22.95,12.66z"/>
	<path class="st9" d="M14.62,26.96L14.62,26.96L14.62,26.96L14.62,26.96L14.62,26.96z"/>
	<g class="st10">
		<path class="st6" d="M7,39.93c-0.95-0.15-1.46-0.67-1.77-1.18c-0.09-0.15-0.16-0.3-0.21-0.43c-0.09,0.45-0.15,0.87-0.16,1.25
			c0.42,0.51,1.08,0.99,2.03,1.13c0.29,0.04,0.57,0.06,0.83,0.06c0,0,0.01,0,0.01,0c0.38,0,0.73-0.04,1.05-0.1
			c0.22-0.29,0.42-0.62,0.6-0.95c-0.44,0.15-1.01,0.28-1.65,0.28C7.49,39.98,7.25,39.96,7,39.93z"/>
		<path class="st6" d="M10.27,37.35c-0.06,0.05-0.93,0.69-2.08,0.69c-0.2,0-0.41-0.02-0.63-0.06c-0.7-0.14-1.07-0.59-1.33-1.08
			c-0.12-0.24-0.2-0.49-0.24-0.66c-0.02-0.09-0.04-0.16-0.04-0.21c0-0.02-0.01-0.04-0.01-0.05c0-0.01,0-0.01,0-0.01
			c-0.01-0.11-0.06-0.21-0.12-0.29c-0.24,0.64-0.44,1.24-0.6,1.8c0.34,0.66,1,1.43,2.12,1.65c0.29,0.06,0.57,0.08,0.84,0.08
			c0,0,0,0,0.01,0c0.61,0,1.15-0.12,1.58-0.28c0.06-0.13,0.13-0.26,0.19-0.39c0.2-0.41,0.39-0.85,0.59-1.3
			C10.45,37.24,10.36,37.28,10.27,37.35L10.27,37.35z"/>
	</g>
	<path class="st8" d="M5.65,39.94c0,0-0.1,1.35,1.16,1.35c1.26,0,2.13-2.01,3.59-4.87c1.45-2.86,3.2-5.87,6.93-5.47
		c3.73,0.4,5.28,4.01,5.38,3.66c0.1-0.35-0.29-2.21-0.29-4.06c0-1.86,0.26-1.87-1.02-0.55c-1.45,1.51-5.48,0.6-6.69-0.6
		c-1.33-1.32-0.82-1.1-1.99,1.31C11.56,33.12,7.64,42.9,5.65,39.94z"/>
	<path class="st11" d="M25.4,33.83c-0.04-0.72-0.08-1.45-0.09-2.17c-0.05-3.05,0.05-6.1-0.14-9.15c-0.16-2.6-0.39-5.49-1.59-7.85
		c-0.43-0.85-1.26-2-2.36-1.52c-0.91,0.4-1.59,1.43-2.2,2.17c-1.47,1.81-2.85,3.7-4.22,5.59c-0.5,0.69-1.03,1.34-1.46,2.08
		c-0.47,0.8-0.93,1.61-1.41,2.4c-0.23,0.39-0.47,0.77-0.7,1.16c-0.45,0.76-0.9,1.52-1.33,2.28c-0.78,1.37-1.53,2.76-2.2,4.19
		c-0.49,1.05-0.95,2.12-1.28,3.23c-0.11,0.38-0.47,1.28-0.24,1.68c0.38,0.65,1.92-2.24,2.05-2.47c1.37-2.55,2.55-5.19,3.87-7.77
		c1.42-2.79,2.99-5.49,4.64-8.15c0.68-1.1,1.48-2.1,2.42-2.99c0.83-0.78,2.8-2.85,4-1.53c0.79,0.87,0.83,2.34,0.85,3.44
		c0.02,1.28-0.03,2.57-0.07,3.85c-0.03,1.13-0.08,2.3-0.4,3.39c-0.16,0.55-0.38,1.1-0.84,1.47c0.71,0.7,0.99,1.44,1.03,2.45
		c0.06,1.78-0.21,3.56-0.13,5.35c0.04,0.89,0.14,1.8,0.37,2.66c0.13,0.5,0.32,1.14,0.71,1.51c0.8,0.73,0.86-1.19,0.86-1.56
		C25.55,36.33,25.47,35.08,25.4,33.83z"/>
</g>
<g>
	<path class="st12" d="M49.35,26.79c0-1.92-1.39-1.75-1.39-1.75l-10.42,0.07l-0.97,0.01l-0.58,0l-0.57,0
		c-0.13,0-0.28,0.02-0.45,0.06c-0.53,0.15-1.14,0.63-1.11,1.99c0.02,1.15,0.57,1.56,0.96,1.7c0.22,0.08,0.39,0.08,0.39,0.08
		s0.23,0.01,0.63,0.04c0.18,0.01,0.39,0.02,0.63,0.04c0.29,0.02,0.62,0.04,0.99,0.06c3.44,0.21,9.71,0.59,10.57,0.64
		C49.23,29.8,49.35,28.72,49.35,26.79z"/>
	<path class="st13" d="M34.37,25.33c0.37-0.31,0.79-0.37,1.06-0.37l12.52-0.09c0.02,0,0.05,0,0.09,0c0.17,0,0.53,0.03,0.86,0.3
		c0.33,0.27,0.6,0.78,0.6,1.63c0,0.94-0.02,1.68-0.2,2.23c-0.17,0.55-0.57,0.9-1.16,0.88c-0.03,0-0.07,0-0.11,0
		c-1.2-0.06-12.82-0.78-12.82-0.78l0,0c-0.08,0-0.41-0.02-0.75-0.25c-0.37-0.25-0.72-0.76-0.74-1.69c0-0.03,0-0.07,0-0.1
		c0,0,0-0.01,0-0.01C33.71,26.19,34,25.63,34.37,25.33L34.37,25.33z M35.43,25.3c-0.48,0.02-1.4,0.18-1.41,1.79
		c0,0.03,0,0.06,0,0.09c0.04,1.63,1.15,1.59,1.19,1.6c0,0,0.01,0,0.01,0c0.01,0,11.62,0.71,12.82,0.78c0.03,0,0.07,0,0.09,0
		c0.51-0.01,0.71-0.21,0.87-0.66c0.15-0.46,0.18-1.18,0.18-2.11c-0.01-1.53-0.87-1.56-1.15-1.58c-0.05,0-0.07,0-0.07,0l-0.02-0.17
		l0,0.17L35.43,25.3L35.43,25.3z"/>
	<path class="st14" d="M48.93,27.45c0-0.03,0-0.07,0-0.1c0,0,0-0.07,0-0.18c0-0.43-0.07-1.53-0.81-1.6
		c-0.28-0.03-9.08,0.1-10.72,0.13c-0.35,0.01-0.67,0.01-0.95,0.02c-0.26,0.01-0.48,0.01-0.66,0.01c-0.33,0.01-0.51,0.01-0.51,0.01
		s-0.27,0.04-0.49,0.17c-0.15,0.09-0.27,0.22-0.27,0.4c0,0.05,0.01,0.1,0.03,0.16c0.02,0.07,0.07,0.13,0.12,0.19
		c0.19,0.18,0.56,0.26,0.9,0.3c0.29,0.03,0.57,0.03,0.72,0.03c0.07,0,0.11,0,0.11,0l0.82,0.03l10.48,0.36c0,0,0.69,0.04,0.77,1.17
		C48.52,29.44,48.93,28.2,48.93,27.45z"/>
</g>
</svg>
