<?xml version="1.0" encoding="utf-8"?>
<!-- Generator: Adobe Illustrator 26.0.3, SVG Export Plug-In . SVG Version: 6.00 Build 0)  -->
<svg version="1.1" id="Layer_1" xmlns="http://www.w3.org/2000/svg" xmlns:xlink="http://www.w3.org/1999/xlink" x="0px" y="0px"
	 viewBox="0 0 1133.86 1133.86" style="enable-background:new 0 0 1133.86 1133.86;" xml:space="preserve">
<style type="text/css">
	.st0{fill:#E6E6E6;}
	.st1{fill:#E20813;}
	.st2{fill:#AB1314;}
	.st3{fill:#E83942;}
	.st4{fill:#D5040A;}
	.st5{fill:#753600;}
	.st6{fill:#68AF14;}
	.st7{fill:#569F10;}
</style>
<g>
	<ellipse class="st0" cx="528.16" cy="1030.22" rx="399.55" ry="61.12"/>
	<g>
		<g>
			<g>
				<path class="st1" d="M912.48,708.62c-31.5,91.39-87.87,172.26-150.55,245.84c-24.45,28.7-52.51,58.01-89.43,65.68
					c-22.79,4.74-46.08,0.67-69.34-5.72c-49.09-13.48-100.98-13.48-150.07,0c-23.25,6.39-46.54,10.46-69.34,5.72
					c-36.91-7.67-64.98-36.98-89.43-65.68c-62.69-73.58-119.06-154.45-150.55-245.84c-31.49-91.38-36.24-194.69,2.29-283.35
					c38.53-88.65,124.74-158.87,221.28-163.79c39.73-2.03,78.82,6.49,117.19,17.85c28.47,8.42,58.74,8.42,87.2,0
					c38.37-11.35,77.46-19.87,117.19-17.85c96.54,4.92,182.75,75.14,221.27,163.79C948.72,513.93,943.97,617.24,912.48,708.62z"/>
			</g>
			<path class="st2" d="M582.16,312.02c0,8.31-25.96,35.29-57.99,35.29c-32.03,0-57.99-26.98-57.99-35.29s25.96,5.2,57.99,5.2
				C556.2,317.21,582.16,303.71,582.16,312.02z"/>
			<path class="st3" d="M217.75,628.13c-41.96-25.4-60.7-129.8-9.85-213.82s152.04-115.82,194.01-90.42
				c41.96,25.4-36.28,71.1-87.14,155.11C263.92,563.01,259.71,653.53,217.75,628.13z"/>
			<g>
				<path class="st4" d="M912.48,708.62c-31.5,91.39-87.87,172.26-150.55,245.84c-24.45,28.7-52.51,58.01-89.43,65.68
					c-22.8,4.74-46.09,0.66-69.34-5.72c-49.08-13.48-100.98-13.48-150.07,0c-23.26,6.39-46.54,10.46-69.34,5.72
					c-33.09-6.87-59.08-31.15-81.72-56.78c47.49,16.38,100.64,16.8,147.61-1.22c25.81-9.9,51.01-25.07,78.64-24.01
					c29.41,1.13,55.15,20.57,84.2,25.23c26.38,4.23,53.62-4.26,76.16-18.62c22.53-14.36,40.96-34.24,58.18-54.68
					c69.67-82.71,124.6-180.7,141.37-287.53c16.31-103.88-6.92-216.57-74.9-296.44c42.12,29.7,76.32,71.81,96.9,119.17
					C948.72,513.93,943.97,617.24,912.48,708.62z"/>
			</g>
		</g>
		<g>
			<g>
				<path class="st5" d="M524.65,332.33L524.65,332.33c-3.15,0-5.81-2.33-6.21-5.45c-1.31-10.2-2.29-20.47-3.97-30.6
					c-8.29-49.83-34.5-96.49-72.76-129.49c-6.3-5.43-13.48-11.58-13.78-19.9c-0.35-9.4,8.19-16.42,15.89-21.83
					c10.15-7.14,22.44-14.62,34.17-10.55c9.1,3.16,14.52,12.3,18.79,20.93c29.15,58.81,40.99,126.03,34.1,191.29
					C530.55,329.9,527.86,332.33,524.65,332.33z"/>
			</g>
			<g>
				<g>
					<path class="st6" d="M527.78,239.13c20.54-40.31,41.86-80.77,72.13-115.69s70.59-64.29,118.07-75.41
						c48.63-11.39,99.93-2.92,149.27,5.59c49.32,8.5,98.64,17.01,147.95,25.51c-58.2,31.64-82.9,96-130,140.26
						c-44.55,41.87-109.01,64.22-173.2,65.85c-64.2,1.63-127.91-16.37-183.36-45.69L527.78,239.13z"/>
				</g>
				<g>
					<path class="st7" d="M1015.2,79.13c-58.2,31.64-82.91,96-130,140.26C840.65,261.26,776.2,283.61,712,285.24
						c-64.2,1.64-127.91-16.37-183.37-45.69l-0.39-0.19l0.02-0.01c67.25-32.86,145.53-66.25,234.29-95.96
						c89.85-30.06,173.59-50.71,248.23-65.03C1012.26,78.62,1013.73,78.87,1015.2,79.13z"/>
				</g>
			</g>
		</g>
	</g>
</g>
</svg>
