<?xml version="1.0" encoding="utf-8"?>
<!-- Generator: Adobe Illustrator 26.0.3, SVG Export Plug-In . SVG Version: 6.00 Build 0)  -->
<svg version="1.1" xmlns="http://www.w3.org/2000/svg" xmlns:xlink="http://www.w3.org/1999/xlink" x="0px" y="0px"
	 viewBox="0 0 581.1 340.16" style="enable-background:new 0 0 581.1 340.16;" xml:space="preserve">
<style type="text/css">
	.st0{fill:url(#SVGID_1_);}
	.st1{fill:url(#SVGID_00000006674805955967605630000013222624243652593311_);}
	.st2{fill:url(#SVGID_00000093136994718246503400000016131348756874061201_);}
	.st3{fill:url(#SVGID_00000163757362280455426010000005065230415931949962_);}
	.st4{fill:url(#SVGID_00000066507431227699788590000002171812034872849845_);}
	.st5{fill:url(#SVGID_00000097476677224679438510000004374021887320078251_);}
	.st6{fill:url(#SVGID_00000062174699526915558900000017438112111800413597_);}
	.st7{fill:url(#SVGID_00000144313637368876755360000008002549086982279306_);}
	.st8{fill:url(#SVGID_00000149353949349630376730000007649682367110651525_);}
	.st9{fill:url(#SVGID_00000034782073705542853680000011669910664588338599_);}
	.st10{fill:url(#SVGID_00000121267410698931084030000003954301860044124571_);}
	.st11{fill:url(#SVGID_00000110447521749440079250000007905194302254749103_);}
</style>
<g id="Layer_1">
</g>
<g id="Layer_2">
	<g>
		<path d="M23.82,188.36c-1.22,0-2.7,0.13-4.19,0.4l-1.89,0.68c-3.38,1.21-10.13,6.48-11.21,18.91c-0.67,9.86-1.35,39.16,0.41,61.44
			c0.68,7.16,1.76,13.37,2.97,18.5c1.22,5.13,3.11,8.24,5.4,9.18c2.57,1.08,4.86,1.62,6.89,1.62c5,0,8.78-3.11,11.48-7.97
			c5.67-9.99,6.75-27.28,7.16-38.62c0.14-2.03,0.27-3.38,0.41-4.86c1.08-12.96,1.89-28.63-0.27-40.38
			C39.21,197.67,34.75,188.36,23.82,188.36z M37.72,247.37c-0.13,1.21-0.13,2.97-0.27,5c-0.13,2.57-0.27,5.4-0.4,8.37
			c-0.81,9.05-1.89,18.91-5.13,26.2c-2.3,5-5.4,8.51-10.13,8.51c-1.76,0-3.38-0.41-5.13-1.08c-3.11-1.35-5.13-11.75-6.21-24.85
			c-1.76-22.01-1.08-51.32-0.41-60.9c0.68-7.97,4.59-16.75,13.37-16.75c9.32,0,12.69,8.37,14.18,16.07
			C39.75,219.15,38.81,234.68,37.72,247.37z"/>
		<path d="M26.79,194.43c-0.41,0-0.41-0.13-0.81-0.13c-0.67,0-1.08,0.27-1.49,0.95c-0.4,1.08-0.13,1.89,0.81,2.43
			c3.24,1.62,5.27,6.21,6.35,12.83c1.22,7.02,1.22,16.07,0.68,26.74c-0.14,0.95,0.41,1.62,1.35,1.76h0.27
			c0.95,0.13,1.76-0.67,1.76-1.62c0.68-10.8,0.68-19.99-0.54-27.55C34.08,204.43,32.32,197,26.79,194.43z"/>
		<path d="M34.62,241.56c-0.13-0.13-0.54-0.27-0.94-0.27c-0.68,0-1.22,0.27-1.62,0.81c-0.68,1.08-0.41,1.89,0.68,2.57
			c0.4,0.13,0.67,0.27,0.95,0.27c0.67,0,1.22-0.27,1.49-0.95C35.83,243.05,35.56,242.24,34.62,241.56z"/>
		<path d="M51.36,259.39c0.4,0.13,0.68,0.27,0.95,0.27c0.67,0,1.22-0.27,1.62-0.95c0.54-0.95,0.41-2.03-0.54-2.43
			c-0.27-0.13-0.68-0.27-1.08-0.27c-0.68,0-1.22,0.27-1.49,0.81C50.28,257.77,50.42,258.85,51.36,259.39z"/>
		<path d="M58.79,279.51c-3.38-4.73-5-10.26-4.86-16.34c0.14-0.95-0.67-1.75-1.62-1.75c-0.95-0.14-1.76,0.67-1.76,1.62
			c-0.13,4.32,0.41,8.24,1.76,11.75c3.38,9.05,10.53,14.99,19.58,17.69c0.95,0,1.76-0.13,2.16-1.21c0.41-1.08,0-1.76-1.22-2.16
			c-2.84-0.81-5.54-2.03-7.83-3.65C62.57,283.83,60.54,281.8,58.79,279.51z"/>
		<path d="M86.88,214.82c-7.02,0-13.64,0.81-19.45,2.97c-5.94,2.3-10.94,6.08-15.12,12.42c-4.73,7.56-7.56,17.01-8.1,26.74
			c-0.54,10.94,1.62,21.61,7.43,29.57c6.35,8.64,16.61,12.56,26.87,12.56c13.37,0,28.09-3.38,32.14-17.96
			c1.49-5.27,0.54-9.05-1.49-11.75c-2.84-3.92-7.83-5.13-12.56-5.13c-5.94,0-13.23,1.89-17.42,6.08c-1.49-2.57-3.78-7.43-0.41-11.48
			c1.22,0.41,2.57,0.81,3.78,1.08c5.27,1.62,10.67,2.57,16.2,2.57c8.1,0,14.85-1.49,19.31-9.05c3.11-5.27,4.19-11.88,4.05-16.88
			C121.99,219.69,100.65,214.82,86.88,214.82z M115.1,251.69c-3.78,6.35-9.45,7.29-16.34,7.29c-4.73,0-9.59-0.81-14.04-2.03
			c-3.65-0.94-5.67-1.89-5.67-2.03c-4.46-2.03-8.51-5-11.34-9.18c1.49,4.73,4.05,8.78,7.97,11.34c-2.7,3.78-2.3,8.1-1.08,11.48
			c0.68,2.03,1.62,3.92,2.97,5.81l1.49,2.03l1.35-2.16c2.84-4.32,10.8-6.48,16.2-6.48c3.38,0,7.56,0.54,9.86,3.65
			c1.49,2.03,1.89,4.86,0.81,8.78c-3.24,12.69-17.42,15.39-28.76,15.39c-10.8,0-20.93-4.73-26.2-14.45
			c-3.65-6.89-5.13-15.26-4.59-23.9c0.67-11.48,4.86-25.66,14.58-32.81l0.27-0.27c6.21-4.46,16.61-5.94,24.31-5.94
			c11.48,0,31.6,3.78,31.87,18.37C118.75,241.02,117.8,246.96,115.1,251.69z"/>
		<path d="M97.41,236.16c-1.49-1.75-3.92-3.65-8.1-4.19c-0.95,0-1.62-0.13-2.57-0.13c-3.11,0-5.81,0.81-7.29,3.65
			c-0.54,1.21-0.81,2.43-0.68,3.65c0.13,6.89,4.73,10.13,11.21,10.13c2.7,0,5.67-0.67,7.7-2.7c1.89-1.76,2.43-4.19,1.76-7.02
			C99.03,238.32,98.35,237.24,97.41,236.16z M95.38,244.13c-1.62,1.49-3.92,1.62-5.94,1.62h-0.13c-4.73-0.27-7.02-2.57-7.16-6.75
			c0-3.11,1.76-3.65,4.59-3.65c3.65,0,7.97,1.49,9.45,5.27C96.6,242.1,96.33,243.18,95.38,244.13z"/>
		<path d="M132.52,259.39c0.4,0.13,0.68,0.27,0.95,0.27c0.67,0,1.22-0.27,1.62-0.81c0.68-1.08,0.41-1.89-0.54-2.57
			c-0.54-0.13-0.95-0.27-1.08-0.27c-0.68,0-1.22,0.27-1.49,0.81C131.3,257.9,131.57,258.71,132.52,259.39z"/>
		<path d="M164.52,246.56c-6.35,0-10.67,4.32-12.83,9.86l-0.14,0.27c-0.41,1.21-0.68,2.57-0.68,4.05c0.41,5.81,5.81,7.02,10.67,7.02
			c5.27-0.41,9.45-7.16,9.86-12.02c0.13-1.76,0-3.38-0.54-4.73C169.92,248.72,167.9,246.96,164.52,246.56z M167.9,255.34
			c-0.41,3.38-2.97,8.51-6.62,8.91h-0.13c-2.57,0-6.62-0.41-6.75-3.65c-0.14-0.41,0-0.95,0.13-1.35l0.41-1.35
			c1.62-4.46,4.19-6.35,6.21-7.29c0.81-0.27,1.49-0.41,2.03-0.54h1.08c2.03,0.13,2.84,1.08,3.38,2.3
			C167.9,253.31,168.03,254.26,167.9,255.34z"/>
		<path d="M201.66,261.41c1.08-6.21,3.65-37.14-21.47-42.54c-2.84-0.67-5.67-0.95-8.37-0.95c-5.54,0-10.94,1.08-15.93,3.38
			c-15.12,6.62-26.87,21.07-30.38,37.14c-2.03,8.51-1.49,16.88,1.76,24.98c4.32,10.4,13.23,15.66,24.44,15.66
			c9.86-0.13,20.39-4.46,27.01-11.88c2.7,6.48,9.18,10.4,16.07,10.4c7.29,0,16.34-6.08,17.69-13.5c0.27-0.67,0.27-1.49,0.13-2.3
			C211.51,276.27,206.52,265.06,201.66,261.41z M209.08,283.43c-1.08,5.81-8.51,10.67-14.31,10.67c-6.48,0-12.56-4.32-13.64-10.94
			c2.57-4.86,4.05-10.67,4.59-14.31c-1.76,3.65-3.24,7.16-5.27,10.26l-2.43,3.51c-5.67,7.83-16.61,12.96-26.33,12.96
			c-9.72,0-17.42-4.32-21.2-13.5c-3.11-7.43-3.38-15.26-1.62-22.96c1.08-4.86,2.97-9.59,5.67-14.04
			c7.7-13.23,21.61-23.63,37.27-23.63c2.57,0,5,0.27,7.56,0.81c20.53,4.46,19.99,29.3,19.18,37.27l-0.68,3.78l1.22,0.54
			c3.92,2.16,9.45,14.18,10.13,18.5C209.22,282.75,209.22,283.15,209.08,283.43z"/>
		<path d="M151.69,290.58c-0.14,0-0.27-0.14-0.68-0.14c-6.08-0.95-11.34-3.92-14.45-9.45c-2.57-4.73-3.24-10.26-2.57-16.07
			c0.13-0.54,0.13-1.08,0.27-1.62c0.14-0.95-0.14-1.49-0.81-1.76c-0.14-0.13-0.54-0.27-0.95-0.27c-1.62,0-1.89,1.89-1.89,3.11
			c-0.95,6.48-0.27,12.96,2.84,18.37c1.76,3.24,4.19,5.81,7.16,7.56c2.97,1.89,6.35,3.11,9.99,3.51c0.41,0.14,0.68,0,1.08-0.13
			c0.54-0.27,0.81-0.67,0.81-1.35C152.64,291.66,152.37,290.99,151.69,290.58z"/>
		<path d="M231.9,226.71c-1.22,0-3.38,1.76-4.32,2.7c-2.16,2.3-3.65,5.94-4.32,10.67c-0.4,2.3-0.81,5-0.95,8.1
			c-0.13,3.11-0.4,6.48-0.54,10.4l-0.14,4.32c-0.13,0.95,0.68,1.76,1.62,1.76c1.22,0,1.76-0.54,1.76-1.62
			c0.13-1.49,0.13-2.84,0.27-4.32c0.4-10.26,0.81-17.42,2.3-22.28c1.08-3.11,2.57-5.13,5.13-6.35c0.95-0.41,1.22-1.35,0.81-2.3
			C233.11,227.11,232.57,226.71,231.9,226.71z"/>
		<path d="M263.23,221.17c-7.43,0-13.23,3.24-17.69,8.64c-1.62-5.81-7.16-9.99-13.1-9.99c-2.7,0-5,0.68-6.75,2.03
			c-5.67,4.05-7.56,12.15-8.64,18.77c-2.03,12.83-2.57,26.74-1.49,37.54c0.95,9.72,3.24,17.01,7.7,18.77
			c3.65,1.21,7.16,2.16,10.8,2.16c5.4,0,9.59-2.3,11.07-7.56c0.95-2.57,0.95-6.48,1.08-10.94c0.41-10.13,0.95-23.23,8.51-24.98
			c2.16-0.54,3.92-0.68,5.54-0.68c3.11,0,5.27,0.81,7.02,1.35c1.49,0.67,2.97,1.22,4.59,1.22c8.1,0,12.69-12.29,13.1-19.31
			c0.13-3.38-0.41-6.08-1.89-8.1C279.03,224.55,269.71,221.17,263.23,221.17z M281.46,238.05c-0.41,5-3.51,15.93-9.86,15.93
			c-0.95,0-1.89-0.41-3.11-0.95c-2.03-0.67-4.46-1.62-8.1-1.62c-1.89,0-4.05,0.27-6.48,0.81c-9.99,2.57-10.8,17.01-11.21,28.22
			c-0.13,4.19-0.27,7.97-0.95,10.13c-0.95,3.65-4.05,5-7.7,5c-2.03,0-4.19-0.41-6.48-0.95l-0.4-0.13c-0.95-0.41-1.76-0.54-2.7-0.95
			c-3.92-1.49-5.13-12.15-5.54-15.8c-0.95-10.4-0.4-24.17,1.62-36.6c1.08-6.89,3.11-17.83,11.88-17.83c2.97,0,5.54,1.22,7.56,3.51
			c1.62,2.03,2.84,4.59,2.43,7.7l-0.13,1.21c-2.3,5.27-1.89,9.32-1.49,14.31c1.35-9.18,2.97-12.15,7.43-18.1
			c3.78-4.46,8.91-7.29,14.99-7.29c5.27,0,13.77,2.84,17.01,7.43C281.19,233.46,281.59,235.49,281.46,238.05z"/>
		<path d="M224.2,266.41c-0.54-0.13-0.81-0.27-0.95-0.27c-0.68,0-1.22,0.27-1.62,0.95c-0.67,0.95-0.4,1.75,0.54,2.43
			c0.27,0.13,0.68,0.27,1.08,0.27c0.68,0,1.08-0.27,1.49-0.81C225.42,267.89,225.15,267.09,224.2,266.41z"/>
		<path d="M338.17,220.63c-7.02,0-13.5,3.24-18.77,7.7c-0.67-3.92-2.3-6.62-4.73-7.97c-2.43-1.21-5.4-1.89-9.05-1.89
			c-11.75,0-16.2,6.21-17.69,17.56c-0.95,7.97-0.81,20.53,0.27,32.41c0.95,10.67,2.43,19.99,4.73,24.17
			c2.57,4.32,7.56,6.08,12.42,6.08c5,0,12.29-2.3,12.96-8.24c0.13-2.16-0.13-5.27-0.54-9.05c-1.08-10.4-2.57-25.25,7.16-26.74
			c0.41,0,0.54-0.14,0.95-0.14c4.73,0,6.75,5.67,7.7,12.29c1.08,6.89,0.95,14.85,0.54,19.58v1.21c0,7.43,5.94,11.07,12.83,11.07
			c14.04,0,17.15-12.83,17.55-24.31c0.68-10.67-0.95-23.5-2.3-31.19C360.05,230.89,351.14,220.63,338.17,220.63z M360.99,274.11
			c-0.41,9.45-2.03,21.2-13.91,21.2c-3.11,0-6.08-0.81-8.1-3.38c-0.95-0.95-1.35-2.43-1.35-4.32v-1.08
			c0.13-4.86,0.41-13.1-0.54-20.26c-1.21-8.24-4.19-15.12-11.07-15.12h-1.62c-13.1,2.16-11.07,18.77-9.99,30.52
			c0.41,3.65,0.81,6.62,0.41,8.37c-0.14,1.76-1.89,3.24-3.65,3.92c-2.03,0.95-4.19,1.21-5.81,1.21c-3.65,0-7.43-1.08-9.45-4.32
			c-2.03-3.65-3.38-12.56-4.32-22.82c-1.08-11.48-1.21-24.04-0.13-31.6c1.22-9.72,4.32-14.45,14.18-14.45h1.49
			c0.4,0,0.95,0,1.35,0.13c4.19,0.41,6.08,2.57,7.02,5.13c0.54,1.49,0.81,3.11,0.81,4.86v0.54c-2.57,3.78-3.65,7.29-4.59,12.56
			c2.3-4.73,4.05-7.97,6.62-10.67l1.08-1.22c5-5.27,11.21-9.18,18.77-9.18c11.21,0,18.91,9.05,20.66,19.58
			C360.32,251.42,361.53,263.44,360.99,274.11z"/>
		<path d="M354.65,241.56c-1.76-5.4-4.59-9.72-9.99-11.75c-0.95,0-1.89,0-2.3,1.08c-0.27,1.08,0.13,1.89,1.08,2.3
			c4.32,1.49,6.35,5.27,7.83,9.45c1.75,5.4,2.7,13.23,3.11,23.63c0.13,1.21,0.81,1.76,1.89,1.76c1.08-0.14,1.62-0.81,1.62-1.89
			c-0.27-5.4-0.67-10.13-1.08-14.18C356.4,247.91,355.59,244.4,354.65,241.56z"/>
		<path d="M340.06,227.92c-0.54-0.13-0.95-0.27-1.08-0.27c-0.67,0-1.08,0.27-1.49,0.95c-0.54,0.95-0.27,2.03,0.67,2.57
			c0.14,0.13,0.54,0.13,0.95,0.13c0.68,0,1.22-0.27,1.62-0.95C341.28,229.41,341.01,228.6,340.06,227.92z"/>
		<path d="M386.11,185.79c-8.64,0-14.72,6.08-17.83,14.04c-0.81,2.03-1.08,3.92-0.95,5.67c0.41,7.29,7.97,9.32,13.91,9.32
			c7.83-0.68,13.37-9.18,14.04-16.61c0.14-2.3,0.14-4.32-0.81-6.35C393,188.22,390.02,186.33,386.11,185.79z M391.78,197.81
			c-0.41,5-4.73,13.1-10.26,13.5h-0.27c-2.97,0-7.16-0.4-9.32-2.83c-0.68-0.81-1.08-1.89-1.22-3.11c0-1.21,0.27-2.57,0.81-4.32
			c2.3-6.08,7.43-11.75,14.31-11.75c3.11,0.4,4.46,1.75,5.4,3.78C391.78,194.3,391.91,195.92,391.78,197.81z"/>
		<path d="M393.67,266.41c-0.41-0.13-0.67-0.27-0.95-0.27c-0.67,0-1.22,0.27-1.49,0.81c-0.68,1.08-0.41,1.89,0.54,2.57
			c0.13,0.13,0.54,0.27,0.95,0.27c0.67,0,1.21-0.27,1.62-0.81C395.02,267.89,394.75,267.09,393.67,266.41z"/>
		<path d="M386.51,222.12c-0.67,0-1.22,0.41-1.62,1.08c-0.41,0.95-0.14,1.89,0.81,2.3c6.35,3.24,6.35,14.45,5.67,34.57l-0.13,2.84
			c0,0.95,0.54,1.62,1.49,1.76c1.08,0,2.03-0.54,2.03-1.76v-2.84c0.41-15.12,0.81-25.39-2.03-31.73
			C392.05,226.3,388.81,222.12,386.51,222.12z"/>
		<path d="M383.95,216.44c-6.89,0-12.69,4.19-14.72,10.8c-0.41,1.49-0.81,3.65-1.08,6.62c-1.08,8.78-1.49,22.42-0.95,34.57
			c0.67,12.15,2.3,22.82,5.81,26.06c2.84,2.7,6.62,4.59,10.8,4.59c3.51,0,6.48-1.35,8.91-3.92l0.27-0.27
			c7.29-8.37,7.43-29.03,7.43-39.3c0-12.29-1.22-23.5-2.3-28.22C396.37,220.77,390.83,216.58,383.95,216.44z M394.88,282.34
			c-1.08,5.81-4.19,13.23-11.07,13.23c-3.24,0-6.21-1.62-8.51-3.65c-2.7-2.7-4.05-12.42-4.73-23.63
			c-0.68-15.93,0.54-34.44,2.03-40.11c1.49-5.27,6.08-8.24,11.34-8.24c5.27,0.14,9.32,3.11,10.8,8.37
			c1.22,4.46,2.16,15.39,2.16,27.28C397.05,264.92,396.37,274.78,394.88,282.34z"/>
		<path d="M455.65,227.92c-0.54-0.13-0.95-0.27-1.08-0.27c-0.67,0-1.08,0.27-1.49,0.95c-0.54,0.95-0.27,2.03,0.67,2.57
			c0.14,0.13,0.54,0.13,0.95,0.13c0.68,0,1.22-0.27,1.62-0.95C456.87,229.41,456.6,228.6,455.65,227.92z"/>
		<path d="M453.76,220.63c-7.02,0-13.5,3.24-18.77,7.7c-0.67-3.92-2.3-6.62-4.73-7.97c-2.43-1.21-5.4-1.89-9.05-1.89
			c-11.75,0-16.2,6.21-17.69,17.56c-0.95,7.97-0.81,20.53,0.27,32.41c0.95,10.67,2.43,19.99,4.73,24.17
			c2.57,4.32,7.56,6.08,12.42,6.08c5,0,12.29-2.3,12.96-8.24c0.13-2.16-0.13-5.27-0.54-9.05c-1.08-10.4-2.57-25.25,7.16-26.74
			c0.41,0,0.54-0.14,0.95-0.14c4.73,0,6.75,5.67,7.7,12.29c1.08,6.89,0.95,14.85,0.54,19.58v1.21c0,7.43,5.94,11.07,12.83,11.07
			c14.04,0,17.15-12.83,17.55-24.31c0.68-10.67-0.95-23.5-2.3-31.19C475.64,230.89,466.72,220.63,453.76,220.63z M476.58,274.11
			c-0.41,9.45-2.03,21.2-13.91,21.2c-3.11,0-6.08-0.81-8.1-3.38c-0.95-0.95-1.35-2.43-1.35-4.32v-1.08
			c0.13-4.86,0.41-13.1-0.54-20.26c-1.21-8.24-4.19-15.12-11.07-15.12h-1.62c-13.1,2.16-11.07,18.77-9.99,30.52
			c0.41,3.65,0.81,6.62,0.41,8.37c-0.14,1.76-1.89,3.24-3.65,3.92c-2.03,0.95-4.19,1.21-5.81,1.21c-3.65,0-7.43-1.08-9.45-4.32
			c-2.03-3.65-3.38-12.56-4.32-22.82c-1.08-11.48-1.21-24.04-0.13-31.6c1.22-9.72,4.32-14.45,14.18-14.45h1.49
			c0.4,0,0.95,0,1.35,0.13c4.19,0.41,6.08,2.57,7.02,5.13c0.54,1.49,0.81,3.11,0.81,4.86v0.54c-2.57,3.78-3.65,7.29-4.59,12.56
			c2.3-4.73,4.05-7.97,6.62-10.67l1.08-1.22c5-5.27,11.21-9.18,18.77-9.18c11.21,0,18.91,9.05,20.66,19.58
			C475.91,251.42,477.12,263.44,476.58,274.11z"/>
		<path d="M470.24,241.56c-1.76-5.4-4.59-9.72-9.99-11.75c-0.95,0-1.89,0-2.3,1.08c-0.27,1.08,0.13,1.89,1.08,2.3
			c4.32,1.49,6.35,5.27,7.83,9.45c1.75,5.4,2.7,13.23,3.11,23.63c0.13,1.21,0.81,1.76,1.89,1.76c1.08-0.14,1.62-0.81,1.62-1.89
			c-0.27-5.4-0.67-10.13-1.08-14.18C471.99,247.91,471.18,244.4,470.24,241.56z"/>
		<path d="M518.44,241.83c-6.35,0-10.8,4.19-12.96,9.99c-0.54,1.75-0.81,3.11-0.67,4.19c0.4,5.54,5.81,6.89,10.53,6.89
			c5.4-0.41,9.45-6.89,9.86-12.02c0.27-1.76,0.13-3.38-0.54-4.59C523.71,243.72,521.55,242.24,518.44,241.83z M521.82,250.61
			c-0.41,3.24-2.97,8.51-6.62,8.91h-0.13c-2.57,0-6.62-0.41-6.75-3.65c-0.13-0.81,0-1.75,0.41-2.84c1.49-4.19,4.73-7.83,9.45-7.83
			c1.75,0.27,2.83,1.08,3.24,2.3C521.82,248.45,521.95,249.39,521.82,250.61z"/>
		<path d="M506.42,224.95c-0.27-0.68-0.81-1.08-1.62-1.08c-0.14,0-0.27,0.13-0.68,0.27c-6.35,2.7-10.53,8.78-13.1,15.93
			c-1.22,3.78-1.89,7.7-2.03,11.88c-0.14,4.19,0.41,8.24,1.62,12.02c0.27,0.81,0.81,1.22,1.76,1.22c0.13,0,0.41,0,0.54-0.14
			c0.95-0.4,1.35-1.08,1.08-2.16c-2.16-6.89-1.89-14.85,0.41-21.74c2.03-6.35,5.81-11.61,11.07-13.91
			C506.56,226.84,506.83,226.03,506.42,224.95z"/>
		<path d="M547.34,205.78c-6.89,0-15.53,3.24-17.01,10.8c-3.92-1.62-7.97-2.43-12.42-2.43c-19.99,0-31.46,11.34-34.71,30.38
			c-1.22,7.7-0.95,14.85,1.08,21.74c4.32,15.53,15.53,21.2,30.79,21.2c8.1,0,16.88-2.57,23.77-6.75
			c-0.41,6.48-1.49,19.18-10.4,19.18c-3.38,0-6.89-2.43-10.26-4.73c-1.08-0.67-2.16-1.35-3.11-2.03c-3.11-2.03-5.94-3.38-9.05-3.38
			c-6.89,0-13.1,7.56-13.77,14.04c-0.27,3.11,0.4,6.21,2.16,9.45c6.48,12.29,22.55,19.31,36.06,19.31
			c30.79,0,42.27-27.41,44.43-53.48c2.16-26.2-4.73-54.96-15.12-68.2C557.06,207.26,552.2,205.78,547.34,205.78z M571.38,278.83
			c-2.16,24.98-12.69,50.23-40.92,50.23c-12.02,0-27.14-6.21-32.95-17.42c-1.35-2.57-2.03-5.13-1.89-7.56
			c0.4-4.86,5.54-10.53,10.53-10.53c3.11,0,5.81,1.75,8.91,3.78c0.41,0.14,0.81,0.27,1.08,0.68c3.92,2.7,7.83,5.4,12.29,5.4
			c5.81,0,9.05-3.11,11.07-8.1c2.03-4.46,2.57-10.67,3.11-17.83v-0.27c3.92-4.19,6.89-9.45,8.37-13.1
			c-4.86,5.81-8.91,10.8-14.85,14.18c-6.89,3.78-14.45,5.67-22.01,5.67c-13.5,0-22.82-5.27-26.47-18.64
			c-1.76-6.08-2.16-13.37-0.95-20.26c3.11-17.42,12.96-27.41,31.19-27.41c4.73,0,8.91,0.95,13.1,3.11l2.84,1.49l-0.27-3.11
			c-0.14-2.7,1.08-5,3.11-6.48c3.11-2.57,6.89-3.38,10.67-3.38c3.92,0,7.7,1.22,9.72,3.78
			C567.05,225.63,573.54,253.45,571.38,278.83z"/>
		<path d="M508.85,225.22c0.41,0.14,0.68,0.27,0.95,0.27c0.67,0,1.22-0.27,1.62-0.95c0.68-0.95,0.41-1.76-0.67-2.43
			c-0.13-0.13-0.54-0.27-0.95-0.27c-0.67,0-1.21,0.27-1.49,0.81C507.77,223.6,507.91,224.68,508.85,225.22z"/>
		<g>
			<path d="M94.34,62.27c0.55,0.19,0.93,0.37,1.11,0.37c0.93,0,1.67-0.37,2.04-1.3c6.85-10.74,18.88-29.06,29.06-35.91l0.37-0.18
				c0.93-0.74,1.3-2.04,0.56-3.33c-0.56-0.56-1.11-0.93-2.04-0.93c-0.55,0-1.11,0.19-1.3,0.37l-0.37,0.19
				c-10.92,7.4-23.32,26.1-30.17,37.39C92.67,60.24,93.04,61.35,94.34,62.27z"/>
			<path d="M89.71,155.75c3.89,0,7.77-0.37,11.48-1.3c3.7-0.93,6.85-2.96,9.25-6.11c4.81-5.92,8.14-16.29,9.63-20.18l2.59,0.18
				c2.22,0.19,4.44,0.37,6.66,0.37c0.19-0.18,0.37-0.18,0.74-0.18l2.22,0.18c4.44,15.55,14.25,25.36,30.73,25.36
				c13.33,0,33.5-6.66,34.98-22.21c0.18-1.3,0.18-2.78,0.18-4.26v-4.63C197.44,88.74,175.6,8.41,131.36,9.89
				c-0.55,0-0.55-0.18-1.11-0.18c-15.36,0-33.32,23.69-41.09,36.28c-12.4,19.44-21.29,40.91-25.73,59.23
				c-5,19.25-4.44,34.98,2.22,41.46C72.13,153.16,80.83,155.75,89.71,155.75z M68.05,106.33c6.48-26.1,23.32-60.71,42.39-80.33
				c10-10,16.1-11.48,18.88-11.48c0.56-0.18,0.74-0.18,0.93,0h0.93c41.46,0,61.45,75.89,62.19,108.65v4.26c0,1.3,0,2.78-0.19,4.07
				c-1.48,12.59-19.07,17.77-29.99,17.77c-14.62,0-22.03-8.14-26.28-21.66c5.74-1.48,10.92-4.26,15.73-8.33
				c-8.33,2.78-16.66,4.26-25.36,4.26c-4.63,0-9.25-0.56-13.88-1.48c-4.63-0.93-9.25-2.41-13.51-4.07c5,3.7,10,6.48,15.73,8.51
				c-1.48,5.55-7.03,20.36-12.59,22.4c-4.44,1.3-8.88,2.04-13.33,2.04c-7.59,0-15.18-2.41-20.92-7.77
				C63.61,138.17,63.8,124.1,68.05,106.33z"/>
			<path d="M117.85,85.78c-0.18,1.85,0.19,3.52,0.74,5c1.3,3.52,4.44,5.18,8.14,5.37c0.93,0,1.67-0.18,2.59-0.18
				c7.22-0.93,10.74-5.74,11.48-12.96c0.19-1.85,0-3.89-0.37-5.92c-1.3-4.63-4.07-8.33-9.07-8.33c-0.93,0-1.48,0-2.04,0.19
				l-0.56,0.18c-2.04,0.56-3.7,1.67-5.37,2.96C120.62,74.49,118.03,78.56,117.85,85.78z M131.17,73.57c2.78,0,4.07,2.22,4.63,4.63
				c0.37,1.11,0.37,2.59,0.18,4.44c-0.55,5.74-3.52,8.7-9.07,8.7c-0.93,0-1.67-0.19-2.41-0.56c-0.74-0.19-1.3-0.93-1.48-1.85
				c-0.37-0.74-0.56-1.85-0.56-3.15c0-1.11,0.19-2.41,0.56-3.89C124.14,78.01,126.92,73.57,131.17,73.57z"/>
			<path d="M91.93,68.01c1.67,0,2.59-0.93,2.59-2.59c0-1.67-0.92-2.41-2.59-2.41c-1.67,0-2.41,0.74-2.41,2.41
				C89.53,67.09,90.27,68.01,91.93,68.01z"/>
			<path d="M292.23,75.23c0.56,0,1.11-0.18,1.67-0.74c0.92-1.3,0.74-2.41-0.19-3.15c-0.56-0.37-0.92-0.55-1.48-0.55
				c-0.74,0-1.3,0.18-1.67,0.74c-0.74,0.93-0.74,2.41,0.18,3.15C291.3,75.05,291.86,75.23,292.23,75.23z"/>
			<path d="M235.96,99.3c3.89,2.41,36.28,2.78,44.24,2.78c2.04,0,5.18,0,9.44-0.19c12.03,0,30.17-0.93,32.02-2.78
				c0.56-0.74,0.92-1.3,1.11-1.85c1.3-2.96,1.67-9.44,1.48-15.55c0-3.89-1.11-14.07-5.18-15.92c-4.26-1.85-29.25-2.41-43.5-2.41
				h-7.03c-6.48,0-33.87,0.19-35.35,3.89l-0.18,0.56c-0.56,5.18-0.74,10-0.74,14.25C232.44,89.49,233.18,97.26,235.96,99.3z
				 M237.25,68.75c1.29-0.93,12.03-1.3,25.36-1.3h7.59c15.36,0,43.87,0.37,47.39,2.22c1.48,1.48,2.22,6.66,2.41,12.03
				c0.56,5.74-0.18,11.66-1.11,14.07l-0.37,0.37c-0.74,0.74-8.51,1.3-17.21,1.3c-8.7,0.18-17.58,0.37-21.1,0.37
				c-6.85-0.19-39.24-0.19-41.83-2.04C235.03,93.93,236.7,72.09,237.25,68.75z"/>
			<path d="M239.66,75.42c0.37,0,0.56,0,0.74-0.19c0.74-0.18,5.92-0.93,17.77-1.11c9.07,0,18.14,0.18,27.21,0.74
				c1.3,0,2.22-0.74,2.22-2.04c0-1.3-0.74-2.22-2.04-2.22c-9.07-0.56-18.33-0.74-27.4-0.74c-12.4,0.18-18.14,1.11-19.07,1.3
				c-1.3,0.37-1.67,1.3-1.3,2.59C237.99,74.86,238.73,75.42,239.66,75.42z"/>
			<path d="M427.77,21.65c0.56,0.19,0.92,0.37,1.3,0.37c0.92,0,1.67-0.37,2.22-1.11c0.93-1.48,0.56-2.59-0.92-3.52
				c-0.18-0.18-0.74-0.37-1.3-0.37c-0.92,0-1.67,0.37-2.04,1.11C426.1,19.61,426.47,20.72,427.77,21.65z"/>
			<path d="M371.31,50.71c0.37,0,0.74-0.19,0.93-0.37c1.3-0.55,1.85-1.85,1.3-3.15c-0.93-2.22-1.48-4.81-1.48-7.96
				c0.56-11.48,12.77-15.92,22.58-17.4h0.92c4.63-0.74,9.25-0.93,13.7-0.93c4.26,0,8.33,0.19,12.03,0.37
				c1.48,0.19,2.41-0.37,2.59-2.04c0-1.3-0.92-2.59-2.22-2.59c-3.7-0.37-7.77-0.56-12.4-0.56c-4.44,0-9.07,0.19-13.7,0.93
				l-1.67,0.19c-12.03,1.85-26.47,7.96-26.47,21.84c-0.18,3.52,0.37,7.4,1.67,10.18C369.46,50.15,370.2,50.71,371.31,50.71z"/>
			<path d="M392.97,81.43c0.74,0,1.3,0,1.67-0.19l0.92-0.18c5-0.56,9.63-1.67,13.88-2.59c-11.29,11.29-34.98,38.32-30.54,53.86
				c5.92,21.29,46.65,25.54,66.82,25.54c17.58,0,66.64-3.7,72.01-24.99c6.11-23.69,3.33-35.17-5.55-39.8
				c-3.89-2.04-8.51-2.78-14.25-2.78c-5.74,0-12.4,0.93-19.62,1.85c6.85-10.74,17.21-29.62,22.21-45.35
				c3.89-12.03,5.18-22.58-0.56-28.32c-6.29-6.29-46.28-9.44-68.67-10.74c-4.63-0.18-8.33-0.18-11.11-0.18
				c-20.92,0-58.68,0.74-61.64,28.51c-0.93,8.33,2.04,16.47,4.81,21.66C368.35,67.55,380.94,81.43,392.97,81.43z M363.17,36.64
				c2.41-23.88,38.13-24.43,56.64-24.43c15.36,0,70.34,3.15,76.82,9.63c3.89,4.26,2.96,12.96-0.56,23.51
				c-5,14.81-14.81,32.39-21.1,43.13c-0.19,0.56-0.19,0.37-0.37,0.93c-1.3,1.67-2.04,3.33-2.96,4.63l-2.22,3.7
				c-3.52,4.63-7.59,9.81-12.59,14.25c5.37-2.78,12.77-8.33,17.77-14.44c8.89-1.3,16.84-2.41,23.51-2.41c4.63,0,8.7,0.55,11.66,2.22
				c6.85,3.52,8.7,13.33,3.33,34.43c-4.63,17.4-51.46,21.47-67.19,21.47c-15.36,0-57.2-2.96-62.38-22.21
				c-2.04-7.4,4.07-19.07,12.03-29.43c7.77-10.37,16.84-19.81,21.47-24.06l2.22-2.22c6.29-3.52,14.81-10.37,18.51-16.66
				c-3.15,2.78-6.48,5.18-10.18,7.4c-3.89,2.22-7.59,4.07-11.29,5.55c-5.92,1.48-17.4,5-23.51,5c-9.81,0-21.29-13.14-25.17-20.92
				C365.2,50.71,362.43,43.86,363.17,36.64z"/>
			<linearGradient id="SVGID_1_" gradientUnits="userSpaceOnUse" x1="-143.2361" y1="192.9459" x2="390.9621" y2="-9.8683">
				<stop  offset="0" style="stop-color:#71CAEE"/>
				<stop  offset="0.2" style="stop-color:#8881B8"/>
				<stop  offset="0.4" style="stop-color:#EC98BA"/>
				<stop  offset="0.6" style="stop-color:#EE9579"/>
				<stop  offset="0.8" style="stop-color:#FCF099"/>
				<stop  offset="1" style="stop-color:#83C59B"/>
			</linearGradient>
			<path class="st0" d="M89.71,150.94c4.44,0,8.88-0.74,13.33-2.04c5.55-2.04,11.11-16.84,12.59-22.4
				c-5.74-2.04-10.74-4.81-15.73-8.51c4.26,1.67,8.88,3.15,13.51,4.07c4.63,0.93,9.25,1.48,13.88,1.48c8.7,0,17.03-1.48,25.36-4.26
				c-4.81,4.07-10,6.85-15.73,8.33c4.26,13.51,11.66,21.66,26.28,21.66c10.92,0,28.51-5.18,29.99-17.77
				c0.19-1.3,0.19-2.78,0.19-4.07v-4.26c-0.74-32.76-20.73-108.65-62.19-108.65h-0.93c-0.19-0.18-0.37-0.18-0.93,0
				c-2.78,0-8.88,1.48-18.88,11.48c-19.07,19.62-35.91,54.23-42.39,80.33c-4.26,17.77-4.44,31.84,0.74,36.84
				C74.53,148.53,82.12,150.94,89.71,150.94z M129.32,68.94c0.56-0.19,1.11-0.19,2.04-0.19c5,0,7.77,3.7,9.07,8.33
				c0.37,2.04,0.56,4.07,0.37,5.92c-0.74,7.22-4.26,12.03-11.48,12.96c-0.93,0-1.67,0.18-2.59,0.18c-3.7-0.18-6.85-1.85-8.14-5.37
				c-0.55-1.48-0.92-3.15-0.74-5c0.19-7.22,2.78-11.29,5.55-13.7c1.67-1.3,3.33-2.41,5.37-2.96L129.32,68.94z M93.6,58.94
				c6.85-11.29,19.25-29.99,30.17-37.39l0.37-0.19c0.19-0.18,0.74-0.37,1.3-0.37c0.93,0,1.48,0.37,2.04,0.93
				c0.74,1.3,0.37,2.59-0.56,3.33l-0.37,0.18c-10.18,6.85-22.21,25.17-29.06,35.91c-0.37,0.92-1.11,1.3-2.04,1.3
				c-0.18,0-0.56-0.19-1.11-0.37C93.04,61.35,92.67,60.24,93.6,58.94z M91.93,63.02c1.67,0,2.59,0.74,2.59,2.41
				c0,1.67-0.92,2.59-2.59,2.59c-1.67,0-2.41-0.93-2.41-2.59C89.53,63.76,90.27,63.02,91.93,63.02z"/>
			
				<linearGradient id="SVGID_00000114779708853896525770000017021325410091610771_" gradientUnits="userSpaceOnUse" x1="-126.8443" y1="236.1209" x2="407.3539" y2="33.3067">
				<stop  offset="0" style="stop-color:#71CAEE"/>
				<stop  offset="0.2" style="stop-color:#8881B8"/>
				<stop  offset="0.4" style="stop-color:#EC98BA"/>
				<stop  offset="0.6" style="stop-color:#EE9579"/>
				<stop  offset="0.8" style="stop-color:#FCF099"/>
				<stop  offset="1" style="stop-color:#83C59B"/>
			</linearGradient>
			<path style="fill:url(#SVGID_00000114779708853896525770000017021325410091610771_);" d="M238.36,95.78
				c2.59,1.85,34.98,1.85,41.83,2.04c3.52,0,12.4-0.19,21.1-0.37c8.7,0,16.47-0.56,17.21-1.3l0.37-0.37
				c0.92-2.41,1.67-8.33,1.11-14.07c-0.18-5.37-0.92-10.55-2.41-12.03c-3.52-1.85-32.02-2.22-47.39-2.22h-7.59
				c-13.33,0-24.06,0.37-25.36,1.3C236.7,72.09,235.03,93.93,238.36,95.78z M290.56,71.53c0.37-0.56,0.92-0.74,1.67-0.74
				c0.56,0,0.92,0.18,1.48,0.55c0.93,0.74,1.11,1.85,0.19,3.15c-0.56,0.56-1.11,0.74-1.67,0.74c-0.37,0-0.92-0.18-1.48-0.55
				C289.82,73.94,289.82,72.46,290.56,71.53z M239.1,71.16c0.93-0.19,6.66-1.11,19.07-1.3c9.07,0,18.33,0.18,27.4,0.74
				c1.3,0,2.04,0.93,2.04,2.22c0,1.3-0.92,2.04-2.22,2.04c-9.07-0.56-18.14-0.74-27.21-0.74c-11.85,0.18-17.03,0.93-17.77,1.11
				c-0.18,0.19-0.37,0.19-0.74,0.19c-0.92,0-1.67-0.56-1.85-1.67C237.44,72.46,237.81,71.53,239.1,71.16z"/>
			
				<linearGradient id="SVGID_00000036209002082314549610000008366576108276786324_" gradientUnits="userSpaceOnUse" x1="-107.0333" y1="288.3015" x2="427.1648" y2="85.4872">
				<stop  offset="0" style="stop-color:#71CAEE"/>
				<stop  offset="0.2" style="stop-color:#8881B8"/>
				<stop  offset="0.4" style="stop-color:#EC98BA"/>
				<stop  offset="0.6" style="stop-color:#EE9579"/>
				<stop  offset="0.8" style="stop-color:#FCF099"/>
				<stop  offset="1" style="stop-color:#83C59B"/>
			</linearGradient>
			<path style="fill:url(#SVGID_00000036209002082314549610000008366576108276786324_);" d="M392.78,76.62
				c6.11,0,17.58-3.52,23.51-5c3.7-1.48,7.4-3.33,11.29-5.55c3.7-2.22,7.03-4.63,10.18-7.4c-3.7,6.29-12.22,13.14-18.51,16.66
				l-2.22,2.22c-4.63,4.26-13.7,13.7-21.47,24.06c-7.96,10.37-14.07,22.03-12.03,29.43c5.18,19.25,47.02,22.21,62.38,22.21
				c15.73,0,62.56-4.07,67.19-21.47c5.37-21.1,3.52-30.91-3.33-34.43c-2.96-1.67-7.03-2.22-11.66-2.22
				c-6.66,0-14.62,1.11-23.51,2.41c-5,6.11-12.4,11.66-17.77,14.44c5-4.44,9.07-9.63,12.59-14.25l2.22-3.7
				c0.92-1.3,1.67-2.96,2.96-4.63c0.18-0.56,0.18-0.37,0.37-0.93c6.29-10.74,16.1-28.32,21.1-43.13
				c3.52-10.55,4.44-19.25,0.56-23.51c-6.48-6.48-61.45-9.63-76.82-9.63c-18.51,0-54.24,0.55-56.64,24.43
				c-0.74,7.22,2.04,14.07,4.44,19.07C371.5,63.48,382.97,76.62,392.78,76.62z M427.03,18.13c0.37-0.74,1.11-1.11,2.04-1.11
				c0.56,0,1.11,0.19,1.3,0.37c1.48,0.93,1.85,2.04,0.92,3.52c-0.55,0.74-1.3,1.11-2.22,1.11c-0.37,0-0.74-0.18-1.3-0.37
				C426.47,20.72,426.1,19.61,427.03,18.13z M367.42,39.04c0-13.88,14.44-19.99,26.47-21.84l1.67-0.19
				c4.63-0.74,9.25-0.93,13.7-0.93c4.63,0,8.7,0.19,12.4,0.56c1.3,0,2.22,1.3,2.22,2.59c-0.18,1.67-1.11,2.22-2.59,2.04
				c-3.7-0.18-7.77-0.37-12.03-0.37c-4.44,0-9.07,0.19-13.7,0.93h-0.92c-9.81,1.48-22.03,5.92-22.58,17.4
				c0,3.15,0.56,5.74,1.48,7.96c0.55,1.3,0,2.59-1.3,3.15c-0.19,0.19-0.56,0.37-0.93,0.37c-1.11,0-1.85-0.56-2.22-1.48
				C367.8,46.45,367.24,42.56,367.42,39.04z"/>
		</g>
		
			<linearGradient id="SVGID_00000145052985401276320280000006476730932264065469_" gradientUnits="userSpaceOnUse" x1="-3.8293" y1="253.5813" x2="385.8947" y2="105.6183">
			<stop  offset="0" style="stop-color:#71CAEE"/>
			<stop  offset="0.2" style="stop-color:#8881B8"/>
			<stop  offset="0.4" style="stop-color:#EC98BA"/>
			<stop  offset="0.6" style="stop-color:#EE9579"/>
			<stop  offset="0.8" style="stop-color:#FCF099"/>
			<stop  offset="1" style="stop-color:#83C59B"/>
		</linearGradient>
		<path style="fill:url(#SVGID_00000145052985401276320280000006476730932264065469_);" d="M23.41,191.87
			c-8.78,0-12.69,8.78-13.37,16.75c-0.68,9.59-1.35,38.89,0.41,60.9c1.08,13.1,3.11,23.5,6.21,24.85c1.76,0.68,3.38,1.08,5.13,1.08
			c4.73,0,7.83-3.51,10.13-8.51c3.24-7.29,4.32-17.15,5.13-26.2c0.13-2.97,0.27-5.81,0.4-8.37c0.14-2.03,0.14-3.78,0.27-5
			c1.08-12.69,2.03-28.22-0.13-39.43C36.1,200.24,32.73,191.87,23.41,191.87z M35.16,243.99c-0.27,0.68-0.81,0.95-1.49,0.95
			c-0.27,0-0.54-0.13-0.95-0.27c-1.08-0.68-1.35-1.49-0.68-2.57c0.4-0.54,0.95-0.81,1.62-0.81c0.4,0,0.81,0.13,0.94,0.27
			C35.56,242.24,35.83,243.05,35.16,243.99z M35.7,237.38c0,0.95-0.81,1.75-1.76,1.62h-0.27c-0.95-0.13-1.49-0.81-1.35-1.76
			c0.54-10.67,0.54-19.72-0.68-26.74c-1.08-6.62-3.11-11.21-6.35-12.83c-0.95-0.54-1.22-1.35-0.81-2.43
			c0.41-0.67,0.81-0.95,1.49-0.95c0.41,0,0.41,0.13,0.81,0.13c5.54,2.57,7.29,9.99,8.37,15.39
			C36.37,217.39,36.37,226.57,35.7,237.38z"/>
		
			<linearGradient id="SVGID_00000114056351751736398810000017846930343421386637_" gradientUnits="userSpaceOnUse" x1="20.8596" y1="318.6103" x2="410.5836" y2="170.6473">
			<stop  offset="0" style="stop-color:#71CAEE"/>
			<stop  offset="0.2" style="stop-color:#8881B8"/>
			<stop  offset="0.4" style="stop-color:#EC98BA"/>
			<stop  offset="0.6" style="stop-color:#EE9579"/>
			<stop  offset="0.8" style="stop-color:#FCF099"/>
			<stop  offset="1" style="stop-color:#83C59B"/>
		</linearGradient>
		<path style="fill:url(#SVGID_00000114056351751736398810000017846930343421386637_);" d="M199.09,263.84l-1.22-0.54l0.68-3.78
			c0.81-7.97,1.35-32.82-19.18-37.27c-2.57-0.54-5-0.81-7.56-0.81c-15.66,0-29.57,10.4-37.27,23.63c-2.7,4.46-4.59,9.18-5.67,14.04
			c-1.76,7.7-1.49,15.53,1.62,22.96c3.78,9.18,11.48,13.5,21.2,13.5c9.72,0,20.66-5.13,26.33-12.96l2.43-3.51
			c2.03-3.11,3.51-6.62,5.27-10.26c-0.54,3.65-2.03,9.45-4.59,14.31c1.08,6.62,7.16,10.94,13.64,10.94
			c5.81,0,13.23-4.86,14.31-10.67c0.13-0.27,0.13-0.68,0.13-1.08C208.54,278.02,203.01,266,199.09,263.84z M131.97,256.82
			c0.27-0.54,0.81-0.81,1.49-0.81c0.13,0,0.54,0.13,1.08,0.27c0.95,0.67,1.22,1.49,0.54,2.57c-0.4,0.54-0.95,0.81-1.62,0.81
			c-0.27,0-0.54-0.13-0.95-0.27C131.57,258.71,131.3,257.9,131.97,256.82z M152.5,292.34c0,0.68-0.27,1.08-0.81,1.35
			c-0.41,0.13-0.68,0.27-1.08,0.13c-3.65-0.41-7.02-1.62-9.99-3.51c-2.97-1.76-5.4-4.32-7.16-7.56c-3.11-5.4-3.78-11.88-2.84-18.37
			c0-1.22,0.27-3.11,1.89-3.11c0.4,0,0.81,0.14,0.95,0.27c0.67,0.27,0.95,0.81,0.81,1.76c-0.14,0.54-0.14,1.08-0.27,1.62
			c-0.68,5.81,0,11.34,2.57,16.07c3.11,5.54,8.37,8.51,14.45,9.45c0.4,0,0.54,0.14,0.68,0.14
			C152.37,290.99,152.64,291.66,152.5,292.34z M171.41,255.74c-0.41,4.86-4.59,11.61-9.86,12.02c-4.86,0-10.26-1.22-10.67-7.02
			c0-1.49,0.27-2.84,0.68-4.05l0.14-0.27c2.16-5.54,6.48-9.86,12.83-9.86c3.38,0.41,5.4,2.16,6.35,4.46
			C171.41,252.37,171.54,253.99,171.41,255.74z"/>
		
			<linearGradient id="SVGID_00000082346209765233903250000017025227267442097050_" gradientUnits="userSpaceOnUse" x1="28.015" y1="337.4569" x2="417.739" y2="189.4939">
			<stop  offset="0" style="stop-color:#71CAEE"/>
			<stop  offset="0.2" style="stop-color:#8881B8"/>
			<stop  offset="0.4" style="stop-color:#EC98BA"/>
			<stop  offset="0.6" style="stop-color:#EE9579"/>
			<stop  offset="0.8" style="stop-color:#FCF099"/>
			<stop  offset="1" style="stop-color:#83C59B"/>
		</linearGradient>
		<path style="fill:url(#SVGID_00000082346209765233903250000017025227267442097050_);" d="M263.23,224.68
			c-6.08,0-11.21,2.84-14.99,7.29c-4.46,5.94-6.08,8.91-7.43,18.1c-0.4-5-0.81-9.05,1.49-14.31l0.13-1.21
			c0.4-3.11-0.81-5.67-2.43-7.7c-2.03-2.3-4.59-3.51-7.56-3.51c-8.78,0-10.8,10.94-11.88,17.83c-2.03,12.42-2.57,26.2-1.62,36.6
			c0.41,3.65,1.62,14.31,5.54,15.8c0.95,0.41,1.76,0.54,2.7,0.95l0.4,0.13c2.3,0.54,4.46,0.95,6.48,0.95c3.65,0,6.75-1.35,7.7-5
			c0.68-2.16,0.81-5.94,0.95-10.13c0.41-11.21,1.22-25.66,11.21-28.22c2.43-0.54,4.59-0.81,6.48-0.81c3.65,0,6.08,0.95,8.1,1.62
			c1.21,0.54,2.16,0.95,3.11,0.95c6.35,0,9.45-10.94,9.86-15.93c0.13-2.57-0.27-4.59-1.22-5.94
			C277,227.52,268.5,224.68,263.23,224.68z M224.74,268.98c-0.4,0.54-0.81,0.81-1.49,0.81c-0.4,0-0.81-0.13-1.08-0.27
			c-0.95-0.68-1.22-1.49-0.54-2.43c0.41-0.68,0.95-0.95,1.62-0.95c0.14,0,0.41,0.13,0.95,0.27
			C225.15,267.09,225.42,267.89,224.74,268.98z M232.71,230.08c-2.57,1.21-4.05,3.24-5.13,6.35c-1.49,4.86-1.89,12.02-2.3,22.28
			c-0.14,1.49-0.14,2.84-0.27,4.32c0,1.08-0.54,1.62-1.76,1.62c-0.95,0-1.76-0.81-1.62-1.76l0.14-4.32
			c0.14-3.92,0.41-7.29,0.54-10.4c0.14-3.11,0.54-5.81,0.95-8.1c0.68-4.73,2.16-8.37,4.32-10.67c0.95-0.95,3.11-2.7,4.32-2.7
			c0.68,0,1.22,0.41,1.62,1.08C233.92,228.73,233.65,229.68,232.71,230.08z"/>
		
			<linearGradient id="SVGID_00000060023739669538972160000009620756880141701763_" gradientUnits="userSpaceOnUse" x1="46.3533" y1="385.7587" x2="436.0772" y2="237.7957">
			<stop  offset="0" style="stop-color:#71CAEE"/>
			<stop  offset="0.2" style="stop-color:#8881B8"/>
			<stop  offset="0.4" style="stop-color:#EC98BA"/>
			<stop  offset="0.6" style="stop-color:#EE9579"/>
			<stop  offset="0.8" style="stop-color:#FCF099"/>
			<stop  offset="1" style="stop-color:#83C59B"/>
		</linearGradient>
		<path style="fill:url(#SVGID_00000060023739669538972160000009620756880141701763_);" d="M394.75,228.33
			c-1.49-5.27-5.54-8.24-10.8-8.37c-5.27,0-9.86,2.97-11.34,8.24c-1.49,5.67-2.7,24.17-2.03,40.11c0.67,11.21,2.03,20.93,4.73,23.63
			c2.29,2.03,5.27,3.65,8.51,3.65c6.89,0,9.99-7.43,11.07-13.23c1.49-7.56,2.16-17.42,2.03-26.74
			C396.91,243.72,395.97,232.78,394.75,228.33z M394.34,268.98c-0.41,0.54-0.95,0.81-1.62,0.81c-0.41,0-0.81-0.13-0.95-0.27
			c-0.95-0.68-1.22-1.49-0.54-2.57c0.27-0.54,0.81-0.81,1.49-0.81c0.27,0,0.54,0.13,0.95,0.27
			C394.75,267.09,395.02,267.89,394.34,268.98z M394.75,260.06v2.84c0,1.21-0.95,1.76-2.03,1.76c-0.95-0.14-1.49-0.81-1.49-1.76
			l0.13-2.84c0.68-20.12,0.68-31.33-5.67-34.57c-0.95-0.41-1.21-1.35-0.81-2.3c0.4-0.67,0.95-1.08,1.62-1.08
			c2.3,0,5.54,4.19,6.21,6.21C395.56,234.68,395.16,244.94,394.75,260.06z"/>
		
			<linearGradient id="SVGID_00000113354177620084725760000012536700030229054867_" gradientUnits="userSpaceOnUse" x1="39.3768" y1="367.3831" x2="429.1008" y2="219.4201">
			<stop  offset="0" style="stop-color:#71CAEE"/>
			<stop  offset="0.2" style="stop-color:#8881B8"/>
			<stop  offset="0.4" style="stop-color:#EC98BA"/>
			<stop  offset="0.6" style="stop-color:#EE9579"/>
			<stop  offset="0.8" style="stop-color:#FCF099"/>
			<stop  offset="1" style="stop-color:#83C59B"/>
		</linearGradient>
		<path style="fill:url(#SVGID_00000113354177620084725760000012536700030229054867_);" d="M338.17,224.14
			c-7.56,0-13.77,3.92-18.77,9.18l-1.08,1.22c-2.57,2.7-4.32,5.94-6.62,10.67c0.95-5.27,2.03-8.78,4.59-12.56v-0.54
			c0-1.76-0.27-3.38-0.81-4.86c-0.95-2.57-2.84-4.73-7.02-5.13c-0.4-0.13-0.95-0.13-1.35-0.13h-1.49c-9.86,0-12.96,4.73-14.18,14.45
			c-1.08,7.56-0.95,20.12,0.13,31.6c0.95,10.26,2.3,19.17,4.32,22.82c2.03,3.24,5.81,4.32,9.45,4.32c1.62,0,3.78-0.27,5.81-1.21
			c1.76-0.68,3.51-2.16,3.65-3.92c0.4-1.75,0-4.73-0.41-8.37c-1.08-11.75-3.11-28.36,9.99-30.52h1.62c6.89,0,9.86,6.89,11.07,15.12
			c0.95,7.16,0.67,15.39,0.54,20.26v1.08c0,1.89,0.41,3.38,1.35,4.32c2.03,2.57,5,3.38,8.1,3.38c11.88,0,13.5-11.75,13.91-21.2
			c0.54-10.67-0.68-22.69-2.16-30.38C357.08,233.19,349.38,224.14,338.17,224.14z M340.74,230.35c-0.41,0.67-0.95,0.95-1.62,0.95
			c-0.41,0-0.81,0-0.95-0.13c-0.95-0.54-1.21-1.62-0.67-2.57c0.41-0.67,0.81-0.95,1.49-0.95c0.13,0,0.54,0.14,1.08,0.27
			C341.01,228.6,341.28,229.41,340.74,230.35z M356.27,268.03c-1.08,0-1.76-0.54-1.89-1.76c-0.41-10.4-1.35-18.23-3.11-23.63
			c-1.49-4.19-3.51-7.97-7.83-9.45c-0.95-0.41-1.35-1.22-1.08-2.3c0.41-1.08,1.35-1.08,2.3-1.08c5.4,2.03,8.24,6.35,9.99,11.75
			c0.95,2.84,1.75,6.35,2.16,10.4c0.41,4.05,0.81,8.78,1.08,14.18C357.89,267.22,357.35,267.89,356.27,268.03z"/>
		
			<linearGradient id="SVGID_00000176740075382291289620000009456141828930481581_" gradientUnits="userSpaceOnUse" x1="8.1061" y1="285.0185" x2="397.8301" y2="137.0555">
			<stop  offset="0" style="stop-color:#71CAEE"/>
			<stop  offset="0.2" style="stop-color:#8881B8"/>
			<stop  offset="0.4" style="stop-color:#EC98BA"/>
			<stop  offset="0.6" style="stop-color:#EE9579"/>
			<stop  offset="0.8" style="stop-color:#FCF099"/>
			<stop  offset="1" style="stop-color:#83C59B"/>
		</linearGradient>
		<path style="fill:url(#SVGID_00000176740075382291289620000009456141828930481581_);" d="M86.88,218.2
			c-7.7,0-18.1,1.49-24.31,5.94l-0.27,0.27c-9.72,7.16-13.91,21.34-14.58,32.81c-0.54,8.64,0.94,17.01,4.59,23.9
			c5.27,9.72,15.39,14.45,26.2,14.45c11.34,0,25.52-2.7,28.76-15.39c1.08-3.92,0.67-6.75-0.81-8.78c-2.3-3.11-6.48-3.65-9.86-3.65
			c-5.4,0-13.37,2.16-16.2,6.48l-1.35,2.16l-1.49-2.03c-1.35-1.89-2.3-3.78-2.97-5.81c-1.22-3.38-1.62-7.7,1.08-11.48
			c-3.92-2.57-6.48-6.62-7.97-11.34c2.84,4.19,6.89,7.16,11.34,9.18c0,0.14,2.03,1.08,5.67,2.03c4.46,1.22,9.32,2.03,14.04,2.03
			c6.89,0,12.56-0.95,16.34-7.29c2.7-4.73,3.65-10.67,3.65-15.12C118.48,221.98,98.35,218.2,86.88,218.2z M50.82,256.82
			c0.27-0.54,0.81-0.81,1.49-0.81c0.4,0,0.81,0.13,1.08,0.27c0.95,0.41,1.08,1.49,0.54,2.43c-0.4,0.68-0.95,0.95-1.62,0.95
			c-0.27,0-0.54-0.13-0.95-0.27C50.42,258.85,50.28,257.77,50.82,256.82z M72.83,289.1c1.22,0.41,1.62,1.08,1.22,2.16
			c-0.4,1.08-1.22,1.21-2.16,1.21c-9.05-2.7-16.2-8.64-19.58-17.69c-1.35-3.51-1.89-7.43-1.76-11.75c0-0.95,0.81-1.76,1.76-1.62
			c0.95,0,1.76,0.81,1.62,1.75c-0.13,6.08,1.49,11.61,4.86,16.34c1.76,2.3,3.78,4.32,6.21,5.94C67.29,287.07,70,288.29,72.83,289.1z
			 M97.68,246.56c-2.03,2.03-5,2.7-7.7,2.7c-6.48,0-11.07-3.24-11.21-10.13c-0.14-1.21,0.13-2.43,0.68-3.65
			c1.49-2.84,4.19-3.65,7.29-3.65c0.95,0,1.62,0.13,2.57,0.13c4.19,0.54,6.62,2.43,8.1,4.19c0.95,1.08,1.62,2.16,2.03,3.38
			C100.11,242.37,99.57,244.8,97.68,246.56z"/>
		
			<linearGradient id="SVGID_00000183938815091709767760000010874636266128056747_" gradientUnits="userSpaceOnUse" x1="27.2157" y1="335.3516" x2="416.9396" y2="187.3886">
			<stop  offset="0" style="stop-color:#71CAEE"/>
			<stop  offset="0.2" style="stop-color:#8881B8"/>
			<stop  offset="0.4" style="stop-color:#EC98BA"/>
			<stop  offset="0.6" style="stop-color:#EE9579"/>
			<stop  offset="0.8" style="stop-color:#FCF099"/>
			<stop  offset="1" style="stop-color:#83C59B"/>
		</linearGradient>
		<path style="fill:url(#SVGID_00000183938815091709767760000010874636266128056747_);" d="M385.84,189.3
			c-6.89,0-12.02,5.67-14.31,11.75c-0.54,1.76-0.81,3.11-0.81,4.32c0.13,1.22,0.54,2.3,1.22,3.11c2.16,2.43,6.35,2.83,9.32,2.83
			h0.27c5.54-0.4,9.86-8.51,10.26-13.5c0.13-1.89,0-3.51-0.54-4.73C390.29,191.06,388.94,189.71,385.84,189.3z"/>
		
			<linearGradient id="SVGID_00000170999296765465649140000007231504498394834611_" gradientUnits="userSpaceOnUse" x1="69.2653" y1="446.1072" x2="458.9893" y2="298.1442">
			<stop  offset="0" style="stop-color:#71CAEE"/>
			<stop  offset="0.2" style="stop-color:#8881B8"/>
			<stop  offset="0.4" style="stop-color:#EC98BA"/>
			<stop  offset="0.6" style="stop-color:#EE9579"/>
			<stop  offset="0.8" style="stop-color:#FCF099"/>
			<stop  offset="1" style="stop-color:#83C59B"/>
		</linearGradient>
		<path style="fill:url(#SVGID_00000170999296765465649140000007231504498394834611_);" d="M547.34,209.29
			c-3.78,0-7.56,0.81-10.67,3.38c-2.03,1.49-3.24,3.78-3.11,6.48l0.27,3.11l-2.84-1.49c-4.19-2.16-8.37-3.11-13.1-3.11
			c-18.23,0-28.09,9.99-31.19,27.41c-1.22,6.89-0.81,14.18,0.95,20.26c3.65,13.37,12.96,18.64,26.47,18.64
			c7.56,0,15.12-1.89,22.01-5.67c5.94-3.38,9.99-8.37,14.85-14.18c-1.49,3.65-4.46,8.91-8.37,13.1v0.27
			c-0.54,7.16-1.08,13.37-3.11,17.83c-2.03,5-5.27,8.1-11.07,8.1c-4.46,0-8.37-2.7-12.29-5.4c-0.27-0.41-0.67-0.54-1.08-0.68
			c-3.11-2.03-5.81-3.78-8.91-3.78c-5,0-10.13,5.67-10.53,10.53c-0.14,2.43,0.54,5,1.89,7.56c5.81,11.21,20.93,17.42,32.95,17.42
			c28.22,0,38.76-25.25,40.92-50.23c2.16-25.39-4.32-53.21-14.31-65.76C555.04,210.5,551.25,209.29,547.34,209.29z M508.31,222.66
			c0.27-0.54,0.81-0.81,1.49-0.81c0.41,0,0.81,0.14,0.95,0.27c1.08,0.67,1.35,1.49,0.67,2.43c-0.4,0.67-0.95,0.95-1.62,0.95
			c-0.27,0-0.54-0.13-0.95-0.27C507.91,224.68,507.77,223.6,508.31,222.66z M494.4,241.16c-2.3,6.89-2.57,14.85-0.41,21.74
			c0.27,1.08-0.13,1.76-1.08,2.16c-0.13,0.14-0.41,0.14-0.54,0.14c-0.95,0-1.49-0.41-1.76-1.22c-1.21-3.78-1.76-7.83-1.62-12.02
			c0.13-4.19,0.81-8.1,2.03-11.88c2.57-7.16,6.75-13.23,13.1-15.93c0.41-0.13,0.54-0.27,0.68-0.27c0.81,0,1.35,0.4,1.62,1.08
			c0.41,1.08,0.13,1.89-0.95,2.3C500.21,229.54,496.43,234.81,494.4,241.16z M525.19,250.88c-0.41,5.13-4.46,11.61-9.86,12.02
			c-4.73,0-10.13-1.35-10.53-6.89c-0.14-1.08,0.13-2.43,0.67-4.19c2.16-5.81,6.62-9.99,12.96-9.99c3.11,0.41,5.27,1.89,6.21,4.46
			C525.33,247.5,525.46,249.12,525.19,250.88z"/>
		
			<linearGradient id="SVGID_00000047752400910856945170000010499825212777597612_" gradientUnits="userSpaceOnUse" x1="53.9389" y1="405.7386" x2="443.6629" y2="257.7756">
			<stop  offset="0" style="stop-color:#71CAEE"/>
			<stop  offset="0.2" style="stop-color:#8881B8"/>
			<stop  offset="0.4" style="stop-color:#EC98BA"/>
			<stop  offset="0.6" style="stop-color:#EE9579"/>
			<stop  offset="0.8" style="stop-color:#FCF099"/>
			<stop  offset="1" style="stop-color:#83C59B"/>
		</linearGradient>
		<path style="fill:url(#SVGID_00000047752400910856945170000010499825212777597612_);" d="M453.76,224.14
			c-7.56,0-13.77,3.92-18.77,9.18l-1.08,1.22c-2.57,2.7-4.32,5.94-6.62,10.67c0.95-5.27,2.03-8.78,4.59-12.56v-0.54
			c0-1.76-0.27-3.38-0.81-4.86c-0.95-2.57-2.84-4.73-7.02-5.13c-0.4-0.13-0.95-0.13-1.35-0.13h-1.49c-9.86,0-12.96,4.73-14.18,14.45
			c-1.08,7.56-0.95,20.12,0.13,31.6c0.95,10.26,2.3,19.17,4.32,22.82c2.03,3.24,5.81,4.32,9.45,4.32c1.62,0,3.78-0.27,5.81-1.21
			c1.76-0.68,3.51-2.16,3.65-3.92c0.4-1.75,0-4.73-0.41-8.37c-1.08-11.75-3.11-28.36,9.99-30.52h1.62c6.89,0,9.86,6.89,11.07,15.12
			c0.95,7.16,0.67,15.39,0.54,20.26v1.08c0,1.89,0.41,3.38,1.35,4.32c2.03,2.57,5,3.38,8.1,3.38c11.88,0,13.5-11.75,13.91-21.2
			c0.54-10.67-0.68-22.69-2.16-30.38C472.67,233.19,464.97,224.14,453.76,224.14z M456.33,230.35c-0.41,0.67-0.95,0.95-1.62,0.95
			c-0.41,0-0.81,0-0.95-0.13c-0.95-0.54-1.21-1.62-0.67-2.57c0.41-0.67,0.81-0.95,1.49-0.95c0.13,0,0.54,0.14,1.08,0.27
			C456.6,228.6,456.87,229.41,456.33,230.35z M471.86,268.03c-1.08,0-1.76-0.54-1.89-1.76c-0.41-10.4-1.35-18.23-3.11-23.63
			c-1.49-4.19-3.51-7.97-7.83-9.45c-0.95-0.41-1.35-1.22-1.08-2.3c0.41-1.08,1.35-1.08,2.3-1.08c5.4,2.03,8.24,6.35,9.99,11.75
			c0.95,2.84,1.75,6.35,2.16,10.4c0.41,4.05,0.81,8.78,1.08,14.18C473.48,267.22,472.94,267.89,471.86,268.03z"/>
	</g>
</g>
</svg>
