<?xml version="1.0" encoding="utf-8"?>
<!-- Generator: Adobe Illustrator 26.0.3, SVG Export Plug-In . SVG Version: 6.00 Build 0)  -->
<svg version="1.1" id="Layer_1" xmlns="http://www.w3.org/2000/svg" xmlns:xlink="http://www.w3.org/1999/xlink" x="0px" y="0px"
	 viewBox="0 0 1133.86 1133.86" style="enable-background:new 0 0 1133.86 1133.86;" xml:space="preserve">
<style type="text/css">
	.st0{fill:url(#SVGID_1_);}
	.st1{fill:url(#SVGID_00000111890613042789563270000013061121477513614980_);}
	.st2{fill:url(#SVGID_00000100354556958657811530000002697153087311708577_);}
	.st3{fill:url(#SVGID_00000173141015140063892080000015633482580568826754_);}
	.st4{fill:url(#SVGID_00000064330344779710380510000002412613813137256586_);}
	.st5{fill:url(#SVGID_00000032624673283859194220000006427783496874132147_);}
	.st6{fill:url(#SVGID_00000093868135131452433160000013299820150748328838_);}
	.st7{fill:url(#SVGID_00000160187638300916873700000001611556061894035876_);}
	.st8{fill:url(#SVGID_00000100351399572609619530000015807375665838887847_);}
	.st9{fill:url(#SVGID_00000009561891257317629200000012903808746971792022_);}
	.st10{fill:url(#SVGID_00000021841764447469236980000017643530014960664238_);}
	.st11{fill:url(#SVGID_00000066488805700666593510000006664591874456346011_);}
</style>
<g id="Layer_2_00000139284847417810729370000014879412263954090116_">
	<g>
		<path d="M111.93,598.15c-2.08,0-4.61,0.22-7.15,0.68l-3.22,1.16c-5.77,2.06-17.28,11.05-19.12,32.26
			c-1.14,16.82-2.3,66.8,0.7,104.8c1.16,12.21,3,22.81,5.07,31.56c2.08,8.75,5.31,14.06,9.21,15.66c4.38,1.84,8.29,2.76,11.75,2.76
			c8.53,0,14.98-5.3,19.58-13.6c9.67-17.04,11.51-46.53,12.21-65.88c0.24-3.46,0.46-5.77,0.7-8.29c1.84-22.11,3.22-48.84-0.46-68.88
			C138.18,614.03,130.57,598.15,111.93,598.15z M135.64,698.8c-0.22,2.06-0.22,5.07-0.46,8.53c-0.22,4.38-0.46,9.21-0.68,14.28
			c-1.38,15.44-3.22,32.26-8.75,44.69c-3.92,8.53-9.21,14.52-17.28,14.52c-3,0-5.77-0.7-8.75-1.84c-5.31-2.3-8.75-20.04-10.59-42.39
			c-3-37.54-1.84-87.54-0.7-103.88c1.16-13.6,7.83-28.57,22.81-28.57c15.9,0,21.65,14.28,24.19,27.41
			C139.1,650.67,137.5,677.16,135.64,698.8z"/>
		<path d="M116.99,608.5c-0.7,0-0.7-0.22-1.38-0.22c-1.14,0-1.84,0.46-2.54,1.62c-0.68,1.84-0.22,3.22,1.38,4.15
			c5.53,2.76,8.99,10.59,10.83,21.89c2.08,11.97,2.08,27.41,1.16,45.61c-0.24,1.62,0.7,2.76,2.3,3h0.46c1.62,0.22,3-1.14,3-2.76
			c1.16-18.42,1.16-34.1-0.92-46.99C129.43,625.56,126.43,612.88,116.99,608.5z"/>
		<path d="M130.35,688.89c-0.22-0.22-0.92-0.46-1.6-0.46c-1.16,0-2.08,0.46-2.76,1.38c-1.16,1.84-0.7,3.22,1.16,4.38
			c0.68,0.22,1.14,0.46,1.62,0.46c1.14,0,2.08-0.46,2.54-1.62C132.42,691.44,131.95,690.05,130.35,688.89z"/>
		<path d="M158.91,719.31c0.68,0.22,1.16,0.46,1.62,0.46c1.14,0,2.08-0.46,2.76-1.62c0.92-1.62,0.7-3.46-0.92-4.15
			c-0.46-0.22-1.16-0.46-1.84-0.46c-1.16,0-2.08,0.46-2.54,1.38C157.06,716.55,157.3,718.39,158.91,719.31z"/>
		<path d="M171.58,753.63c-5.77-8.07-8.53-17.5-8.29-27.87c0.24-1.62-1.14-2.99-2.76-2.99c-1.62-0.24-3,1.14-3,2.76
			c-0.22,7.37,0.7,14.06,3,20.04c5.77,15.44,17.96,25.57,33.4,30.18c1.62,0,3-0.22,3.68-2.06c0.7-1.84,0-3-2.08-3.68
			c-4.84-1.38-9.45-3.46-13.36-6.23C178.03,761,174.57,757.54,171.58,753.63z"/>
		<path d="M219.5,643.28c-11.97,0-23.27,1.38-33.18,5.07c-10.13,3.92-18.66,10.37-25.79,21.19c-8.07,12.9-12.9,29.02-13.82,45.61
			c-0.92,18.66,2.76,36.86,12.67,50.44c10.83,14.74,28.33,21.42,45.83,21.42c22.81,0,47.92-5.77,54.82-30.64
			c2.54-8.99,0.92-15.44-2.54-20.04c-4.84-6.69-13.36-8.75-21.42-8.75c-10.13,0-22.57,3.22-29.71,10.37
			c-2.54-4.38-6.45-12.67-0.7-19.58c2.08,0.7,4.38,1.38,6.45,1.84c8.99,2.76,18.2,4.38,27.63,4.38c13.82,0,25.33-2.54,32.94-15.44
			c5.31-8.99,7.15-20.26,6.91-28.79C279.39,651.59,242.98,643.28,219.5,643.28z M267.63,706.17c-6.45,10.83-16.12,12.44-27.87,12.44
			c-8.07,0-16.36-1.38-23.95-3.46c-6.23-1.6-9.67-3.22-9.67-3.46c-7.61-3.46-14.52-8.53-19.34-15.66
			c2.54,8.07,6.91,14.98,13.6,19.34c-4.61,6.45-3.92,13.82-1.84,19.58c1.16,3.46,2.76,6.69,5.07,9.91l2.54,3.46l2.3-3.68
			c4.84-7.37,18.42-11.05,27.63-11.05c5.77,0,12.9,0.92,16.82,6.23c2.54,3.46,3.22,8.29,1.38,14.98
			c-5.53,21.65-29.71,26.25-49.06,26.25c-18.42,0-35.7-8.07-44.69-24.65c-6.23-11.75-8.75-26.03-7.83-40.77
			c1.14-19.58,8.29-43.77,24.87-55.97l0.46-0.46c10.59-7.61,28.33-10.13,41.47-10.13c19.58,0,53.9,6.45,54.36,31.34
			C273.86,687.97,272.24,698.11,267.63,706.17z"/>
		<path d="M237.46,679.68c-2.54-2.99-6.69-6.23-13.82-7.15c-1.62,0-2.76-0.22-4.38-0.22c-5.31,0-9.91,1.38-12.44,6.23
			c-0.92,2.06-1.38,4.15-1.16,6.23c0.22,11.75,8.07,17.28,19.12,17.28c4.61,0,9.67-1.14,13.13-4.61c3.22-3,4.15-7.15,3-11.97
			C240.22,683.37,239.06,681.53,237.46,679.68z M234,693.28c-2.76,2.54-6.69,2.76-10.13,2.76h-0.22
			c-8.07-0.46-11.97-4.38-12.21-11.51c0-5.3,3-6.23,7.83-6.23c6.23,0,13.6,2.54,16.12,8.99C236.08,689.82,235.62,691.66,234,693.28z
			"/>
		<path d="M297.35,719.31c0.68,0.22,1.16,0.46,1.62,0.46c1.14,0,2.08-0.46,2.76-1.38c1.16-1.84,0.7-3.22-0.92-4.38
			c-0.92-0.22-1.62-0.46-1.84-0.46c-1.16,0-2.08,0.46-2.54,1.38C295.27,716.77,295.73,718.15,297.35,719.31z"/>
		<path d="M351.93,697.42c-10.83,0-18.2,7.37-21.89,16.82l-0.24,0.46c-0.7,2.06-1.16,4.38-1.16,6.91c0.7,9.91,9.91,11.97,18.2,11.97
			c8.99-0.7,16.12-12.21,16.82-20.5c0.22-3,0-5.77-0.92-8.07C361.15,701.11,357.7,698.11,351.93,697.42z M357.7,712.4
			c-0.7,5.77-5.07,14.52-11.29,15.2h-0.22c-4.38,0-11.29-0.7-11.51-6.23c-0.24-0.7,0-1.62,0.22-2.3l0.7-2.3
			c2.76-7.61,7.15-10.83,10.59-12.44c1.38-0.46,2.54-0.7,3.46-0.92h1.84c3.46,0.22,4.84,1.84,5.77,3.92
			C357.7,708.94,357.92,710.56,357.7,712.4z"/>
		<path d="M415.29,722.75c1.84-10.59,6.23-63.35-36.62-72.56c-4.84-1.14-9.67-1.62-14.28-1.62c-9.45,0-18.66,1.84-27.17,5.77
			c-25.79,11.29-45.83,35.94-51.82,63.35c-3.46,14.52-2.54,28.79,3,42.61c7.37,17.74,22.57,26.71,41.69,26.71
			c16.82-0.22,34.78-7.61,46.07-20.26c4.61,11.05,15.66,17.74,27.41,17.74c12.44,0,27.87-10.37,30.18-23.03
			c0.46-1.14,0.46-2.54,0.22-3.92C432.09,748.1,423.58,728.98,415.29,722.75z M427.94,760.32c-1.84,9.91-14.52,18.2-24.41,18.2
			c-11.05,0-21.42-7.37-23.27-18.66c4.38-8.29,6.91-18.2,7.83-24.41c-3,6.23-5.53,12.21-8.99,17.5l-4.15,5.99
			c-9.67,13.36-28.33,22.11-44.91,22.11c-16.58,0-29.71-7.37-36.16-23.03c-5.31-12.67-5.77-26.03-2.76-39.17
			c1.84-8.29,5.07-16.36,9.67-23.95c13.13-22.57,36.86-40.31,63.57-40.31c4.38,0,8.53,0.46,12.9,1.38
			c35.02,7.61,34.1,49.98,32.72,63.57l-1.16,6.45l2.08,0.92c6.69,3.68,16.12,24.19,17.28,31.56
			C428.18,759.16,428.18,759.84,427.94,760.32z"/>
		<path d="M330.05,772.51c-0.24,0-0.46-0.24-1.16-0.24c-10.37-1.62-19.34-6.69-24.65-16.12c-4.38-8.07-5.53-17.5-4.38-27.41
			c0.22-0.92,0.22-1.84,0.46-2.76c0.24-1.62-0.24-2.54-1.38-3c-0.24-0.22-0.92-0.46-1.62-0.46c-2.76,0-3.22,3.22-3.22,5.3
			c-1.62,11.05-0.46,22.11,4.84,31.34c3,5.53,7.15,9.91,12.21,12.9c5.07,3.22,10.83,5.3,17.04,5.99c0.7,0.24,1.16,0,1.84-0.22
			c0.92-0.46,1.38-1.14,1.38-2.3C331.67,774.35,331.21,773.21,330.05,772.51z"/>
		<path d="M466.87,663.56c-2.08,0-5.77,3-7.37,4.61c-3.68,3.92-6.23,10.13-7.37,18.2c-0.68,3.92-1.38,8.53-1.62,13.82
			c-0.22,5.3-0.68,11.05-0.92,17.74l-0.24,7.37c-0.22,1.62,1.16,3,2.76,3c2.08,0,3-0.92,3-2.76c0.22-2.54,0.22-4.84,0.46-7.37
			c0.68-17.5,1.38-29.71,3.92-38.01c1.84-5.3,4.38-8.75,8.75-10.83c1.62-0.7,2.08-2.3,1.38-3.92
			C468.93,664.25,468.01,663.56,466.87,663.56z"/>
		<path d="M520.31,654.11c-12.67,0-22.57,5.53-30.18,14.74c-2.76-9.91-12.21-17.04-22.35-17.04c-4.61,0-8.53,1.16-11.51,3.46
			c-9.67,6.91-12.9,20.73-14.74,32.02c-3.46,21.89-4.38,45.61-2.54,64.04c1.62,16.58,5.53,29.02,13.13,32.02
			c6.23,2.06,12.21,3.68,18.42,3.68c9.21,0,16.36-3.92,18.88-12.9c1.62-4.38,1.62-11.05,1.84-18.66
			c0.7-17.28,1.62-39.63,14.52-42.61c3.68-0.92,6.69-1.16,9.45-1.16c5.3,0,8.99,1.38,11.97,2.3c2.54,1.14,5.07,2.08,7.83,2.08
			c13.82,0,21.65-20.96,22.35-32.94c0.22-5.77-0.7-10.37-3.22-13.82C547.26,659.88,531.37,654.11,520.31,654.11z M551.41,682.91
			c-0.7,8.53-5.99,27.17-16.82,27.17c-1.62,0-3.22-0.7-5.3-1.62c-3.46-1.14-7.61-2.76-13.82-2.76c-3.22,0-6.91,0.46-11.05,1.38
			c-17.04,4.38-18.42,29.02-19.12,48.14c-0.22,7.15-0.46,13.6-1.62,17.28c-1.62,6.23-6.91,8.53-13.13,8.53
			c-3.46,0-7.15-0.7-11.05-1.62l-0.68-0.22c-1.62-0.7-3-0.92-4.61-1.62c-6.69-2.54-8.75-20.73-9.45-26.95
			c-1.62-17.74-0.68-41.23,2.76-62.43c1.84-11.75,5.31-30.41,20.26-30.41c5.07,0,9.45,2.08,12.9,5.99
			c2.76,3.46,4.84,7.83,4.15,13.13l-0.22,2.06c-3.92,8.99-3.22,15.9-2.54,24.41c2.3-15.66,5.07-20.73,12.67-30.87
			c6.45-7.61,15.2-12.44,25.57-12.44c8.99,0,23.49,4.84,29.02,12.67C550.95,675.08,551.63,678.54,551.41,682.91z"/>
		<path d="M453.74,731.28c-0.92-0.22-1.38-0.46-1.62-0.46c-1.16,0-2.08,0.46-2.76,1.62c-1.14,1.62-0.68,2.99,0.92,4.15
			c0.46,0.22,1.16,0.46,1.84,0.46c1.16,0,1.84-0.46,2.54-1.38C455.82,733.81,455.36,732.44,453.74,731.28z"/>
		<path d="M648.14,653.19c-11.97,0-23.03,5.53-32.02,13.13c-1.14-6.69-3.92-11.29-8.07-13.6c-4.15-2.06-9.21-3.22-15.44-3.22
			c-20.04,0-27.63,10.59-30.18,29.95c-1.62,13.6-1.38,35.02,0.46,55.28c1.62,18.2,4.15,34.1,8.07,41.23
			c4.38,7.37,12.9,10.37,21.19,10.37c8.53,0,20.96-3.92,22.11-14.06c0.22-3.68-0.22-8.99-0.92-15.44
			c-1.84-17.74-4.38-43.07,12.21-45.61c0.7,0,0.92-0.24,1.62-0.24c8.07,0,11.51,9.67,13.13,20.96c1.84,11.75,1.62,25.33,0.92,33.4
			v2.06c0,12.67,10.13,18.88,21.89,18.88c23.95,0,29.25-21.89,29.94-41.47c1.16-18.2-1.62-40.09-3.92-53.2
			C685.47,670.69,670.27,653.19,648.14,653.19z M687.07,744.42c-0.7,16.12-3.46,36.16-23.73,36.16c-5.3,0-10.37-1.38-13.82-5.77
			c-1.62-1.62-2.3-4.15-2.3-7.37v-1.84c0.22-8.29,0.7-22.35-0.92-34.56c-2.06-14.06-7.15-25.79-18.88-25.79h-2.76
			c-22.35,3.68-18.88,32.02-17.04,52.06c0.7,6.23,1.38,11.29,0.7,14.28c-0.24,3-3.22,5.53-6.23,6.69c-3.46,1.62-7.15,2.06-9.91,2.06
			c-6.23,0-12.67-1.84-16.12-7.37c-3.46-6.23-5.77-21.42-7.37-38.93c-1.84-19.58-2.06-41.01-0.22-53.9
			c2.08-16.58,7.37-24.65,24.19-24.65h2.54c0.68,0,1.62,0,2.3,0.22c7.15,0.7,10.37,4.38,11.97,8.75c0.92,2.54,1.38,5.3,1.38,8.29
			v0.92c-4.38,6.45-6.23,12.44-7.83,21.42c3.92-8.07,6.91-13.6,11.29-18.2l1.84-2.08c8.53-8.99,19.12-15.66,32.02-15.66
			c19.12,0,32.26,15.44,35.24,33.4C685.93,705.71,687.99,726.22,687.07,744.42z"/>
		<path d="M676.26,688.89c-3-9.21-7.83-16.58-17.04-20.04c-1.62,0-3.22,0-3.92,1.84c-0.46,1.84,0.22,3.22,1.84,3.92
			c7.37,2.54,10.83,8.99,13.36,16.12c2.99,9.21,4.61,22.57,5.3,40.31c0.22,2.06,1.38,3,3.22,3c1.84-0.24,2.76-1.38,2.76-3.22
			c-0.46-9.21-1.14-17.28-1.84-24.19C679.24,699.73,677.86,693.74,676.26,688.89z"/>
		<path d="M651.37,665.63c-0.92-0.22-1.62-0.46-1.84-0.46c-1.14,0-1.84,0.46-2.54,1.62c-0.92,1.62-0.46,3.46,1.14,4.38
			c0.24,0.22,0.92,0.22,1.62,0.22c1.16,0,2.08-0.46,2.76-1.62C653.45,668.17,652.99,666.79,651.37,665.63z"/>
		<path d="M729.92,593.76c-14.74,0-25.11,10.37-30.41,23.95c-1.38,3.46-1.84,6.69-1.62,9.67c0.7,12.44,13.6,15.9,23.73,15.9
			c13.36-1.16,22.81-15.66,23.95-28.33c0.24-3.92,0.24-7.37-1.38-10.83C741.67,597.91,736.59,594.68,729.92,593.76z M739.59,614.27
			c-0.7,8.53-8.07,22.35-17.5,23.03h-0.46c-5.07,0-12.21-0.68-15.9-4.83c-1.16-1.38-1.84-3.22-2.08-5.3c0-2.06,0.46-4.38,1.38-7.37
			c3.92-10.37,12.67-20.04,24.41-20.04c5.3,0.68,7.61,2.99,9.21,6.45C739.59,608.28,739.81,611.04,739.59,614.27z"/>
		<path d="M742.82,731.28c-0.7-0.22-1.14-0.46-1.62-0.46c-1.14,0-2.08,0.46-2.54,1.38c-1.16,1.84-0.7,3.22,0.92,4.38
			c0.22,0.22,0.92,0.46,1.62,0.46c1.14,0,2.06-0.46,2.76-1.38C745.12,733.81,744.66,732.44,742.82,731.28z"/>
		<path d="M730.6,655.73c-1.14,0-2.08,0.7-2.76,1.84c-0.7,1.62-0.24,3.22,1.38,3.92c10.83,5.53,10.83,24.65,9.67,58.97l-0.22,4.84
			c0,1.62,0.92,2.76,2.54,3c1.84,0,3.46-0.92,3.46-3v-4.84c0.7-25.79,1.38-43.31-3.46-54.12
			C740.05,662.86,734.53,655.73,730.6,655.73z"/>
		<path d="M726.24,646.04c-11.75,0-21.65,7.15-25.11,18.42c-0.7,2.54-1.38,6.23-1.84,11.29c-1.84,14.98-2.54,38.24-1.62,58.97
			c1.14,20.73,3.92,38.93,9.91,44.45c4.84,4.61,11.29,7.83,18.42,7.83c5.99,0,11.05-2.3,15.2-6.69l0.46-0.46
			c12.44-14.28,12.67-49.52,12.67-67.04c0-20.96-2.08-40.09-3.92-48.14C747.42,653.43,737.97,646.28,726.24,646.04z M744.88,758.46
			c-1.84,9.91-7.15,22.57-18.88,22.57c-5.53,0-10.59-2.76-14.52-6.23c-4.61-4.61-6.91-21.19-8.07-40.31
			c-1.16-27.17,0.92-58.75,3.46-68.42c2.54-8.99,10.37-14.06,19.34-14.06c8.99,0.24,15.9,5.3,18.42,14.28
			c2.08,7.61,3.68,26.25,3.68,46.53C748.58,728.74,747.42,745.56,744.88,758.46z"/>
		<path d="M848.54,665.63c-0.92-0.22-1.62-0.46-1.84-0.46c-1.14,0-1.84,0.46-2.54,1.62c-0.92,1.62-0.46,3.46,1.14,4.38
			c0.24,0.22,0.92,0.22,1.62,0.22c1.16,0,2.08-0.46,2.76-1.62C850.62,668.17,850.16,666.79,848.54,665.63z"/>
		<path d="M845.32,653.19c-11.97,0-23.03,5.53-32.02,13.13c-1.14-6.69-3.92-11.29-8.07-13.6c-4.15-2.06-9.21-3.22-15.44-3.22
			c-20.04,0-27.63,10.59-30.18,29.95c-1.62,13.6-1.38,35.02,0.46,55.28c1.62,18.2,4.15,34.1,8.07,41.23
			c4.38,7.37,12.9,10.37,21.19,10.37c8.53,0,20.96-3.92,22.11-14.06c0.22-3.68-0.22-8.99-0.92-15.44
			c-1.84-17.74-4.38-43.07,12.21-45.61c0.7,0,0.92-0.24,1.62-0.24c8.07,0,11.51,9.67,13.13,20.96c1.84,11.75,1.62,25.33,0.92,33.4
			v2.06c0,12.67,10.13,18.88,21.89,18.88c23.95,0,29.25-21.89,29.94-41.47c1.16-18.2-1.62-40.09-3.92-53.2
			C882.64,670.69,867.42,653.19,845.32,653.19z M884.24,744.42c-0.7,16.12-3.46,36.16-23.73,36.16c-5.3,0-10.37-1.38-13.82-5.77
			c-1.62-1.62-2.3-4.15-2.3-7.37v-1.84c0.22-8.29,0.7-22.35-0.92-34.56c-2.06-14.06-7.15-25.79-18.88-25.79h-2.76
			c-22.35,3.68-18.88,32.02-17.04,52.06c0.7,6.23,1.38,11.29,0.7,14.28c-0.24,3-3.22,5.53-6.23,6.69c-3.46,1.62-7.15,2.06-9.91,2.06
			c-6.23,0-12.67-1.84-16.12-7.37c-3.46-6.23-5.77-21.42-7.37-38.93c-1.84-19.58-2.06-41.01-0.22-53.9
			c2.08-16.58,7.37-24.65,24.19-24.65h2.54c0.68,0,1.62,0,2.3,0.22c7.15,0.7,10.37,4.38,11.97,8.75c0.92,2.54,1.38,5.3,1.38,8.29
			v0.92c-4.38,6.45-6.23,12.44-7.83,21.42c3.92-8.07,6.91-13.6,11.29-18.2l1.84-2.08c8.53-8.99,19.12-15.66,32.02-15.66
			c19.12,0,32.26,15.44,35.24,33.4C883.1,705.71,885.16,726.22,884.24,744.42z"/>
		<path d="M873.43,688.89c-3-9.21-7.83-16.58-17.04-20.04c-1.62,0-3.22,0-3.92,1.84c-0.46,1.84,0.22,3.22,1.84,3.92
			c7.37,2.54,10.83,8.99,13.36,16.12c2.99,9.21,4.61,22.57,5.3,40.31c0.22,2.06,1.38,3,3.22,3c1.84-0.24,2.76-1.38,2.76-3.22
			c-0.46-9.21-1.14-17.28-1.84-24.19C876.41,699.73,875.03,693.74,873.43,688.89z"/>
		<path d="M955.65,689.35c-10.83,0-18.42,7.15-22.11,17.04c-0.92,2.99-1.38,5.31-1.14,7.15c0.68,9.45,9.91,11.75,17.96,11.75
			c9.21-0.7,16.12-11.75,16.82-20.5c0.46-3,0.22-5.77-0.92-7.83C964.64,692.58,960.95,690.05,955.65,689.35z M961.41,704.33
			c-0.7,5.53-5.07,14.52-11.29,15.2h-0.22c-4.38,0-11.29-0.7-11.51-6.23c-0.22-1.38,0-2.99,0.7-4.84
			c2.54-7.15,8.07-13.36,16.12-13.36c2.99,0.46,4.83,1.84,5.53,3.92C961.41,700.65,961.64,702.25,961.41,704.33z"/>
		<path d="M935.14,660.56c-0.46-1.16-1.38-1.84-2.76-1.84c-0.24,0-0.46,0.22-1.16,0.46c-10.83,4.61-17.96,14.98-22.35,27.17
			c-2.08,6.45-3.22,13.13-3.46,20.26c-0.24,7.15,0.7,14.06,2.76,20.5c0.46,1.38,1.38,2.08,3,2.08c0.22,0,0.7,0,0.92-0.24
			c1.62-0.68,2.3-1.84,1.84-3.68c-3.68-11.75-3.22-25.33,0.7-37.08c3.46-10.83,9.91-19.8,18.88-23.73
			C935.38,663.78,935.84,662.4,935.14,660.56z"/>
		<path d="M1004.95,627.86c-11.75,0-26.49,5.53-29.02,18.42c-6.69-2.76-13.6-4.15-21.19-4.15c-34.1,0-53.66,19.34-59.21,51.82
			c-2.08,13.13-1.62,25.33,1.84,37.08c7.37,26.49,26.49,36.16,52.52,36.16c13.82,0,28.79-4.38,40.55-11.51
			c-0.7,11.05-2.54,32.72-17.74,32.72c-5.77,0-11.75-4.15-17.5-8.07c-1.84-1.14-3.68-2.3-5.3-3.46c-5.3-3.46-10.13-5.77-15.44-5.77
			c-11.75,0-22.35,12.9-23.49,23.95c-0.46,5.3,0.68,10.59,3.68,16.12c11.05,20.96,38.47,32.94,61.51,32.94
			c52.52,0,72.1-46.76,75.79-91.23c3.68-44.69-8.07-93.75-25.79-116.34C1021.53,630.39,1013.24,627.86,1004.95,627.86z
			 M1045.95,752.47c-3.68,42.61-21.65,85.68-69.8,85.68c-20.5,0-46.3-10.59-56.21-29.71c-2.3-4.38-3.46-8.75-3.22-12.9
			c0.68-8.29,9.45-17.96,17.96-17.96c5.3,0,9.91,2.99,15.2,6.45c0.7,0.24,1.38,0.46,1.84,1.16c6.69,4.61,13.36,9.21,20.96,9.21
			c9.91,0,15.44-5.3,18.88-13.82c3.46-7.61,4.38-18.2,5.3-30.41v-0.46c6.69-7.15,11.75-16.12,14.28-22.35
			c-8.29,9.91-15.2,18.42-25.33,24.19c-11.75,6.45-24.65,9.67-37.54,9.67c-23.03,0-38.93-8.99-45.15-31.8
			c-3-10.37-3.68-22.81-1.62-34.56c5.3-29.71,22.11-46.76,53.2-46.76c8.07,0,15.2,1.62,22.35,5.3l4.84,2.54l-0.46-5.31
			c-0.24-4.61,1.84-8.53,5.3-11.05c5.3-4.38,11.75-5.77,18.2-5.77c6.69,0,13.13,2.08,16.58,6.45
			C1038.57,661.72,1049.64,709.18,1045.95,752.47z"/>
		<path d="M939.29,661.02c0.7,0.24,1.16,0.46,1.62,0.46c1.14,0,2.08-0.46,2.76-1.62c1.16-1.62,0.7-3-1.14-4.15
			c-0.22-0.22-0.92-0.46-1.62-0.46c-1.14,0-2.06,0.46-2.54,1.38C937.45,658.26,937.69,660.1,939.29,661.02z"/>
		<g>
			<path d="M232.22,383.06c0.94,0.32,1.59,0.63,1.89,0.63c1.59,0,2.85-0.63,3.48-2.22c11.68-18.32,32.21-49.57,49.57-61.26
				l0.63-0.31c1.59-1.26,2.22-3.48,0.96-5.68c-0.96-0.96-1.89-1.59-3.48-1.59c-0.94,0-1.89,0.32-2.22,0.63l-0.63,0.32
				c-18.63,12.62-39.78,44.52-51.46,63.78C229.37,379.6,230,381.49,232.22,383.06z"/>
			<path d="M224.32,542.52c6.64,0,13.25-0.63,19.58-2.22c6.31-1.59,11.68-5.05,15.78-10.42c8.2-10.1,13.89-27.79,16.43-34.42
				l4.42,0.31c3.79,0.32,7.57,0.63,11.36,0.63c0.32-0.31,0.63-0.31,1.26-0.31l3.79,0.31c7.57,26.53,24.31,43.26,52.42,43.26
				c22.74,0,57.14-11.36,59.67-37.89c0.31-2.22,0.31-4.74,0.31-7.27v-7.9c-1.25-58.39-38.5-195.42-113.96-192.89
				c-0.94,0-0.94-0.31-1.89-0.31c-26.2,0-56.84,40.41-70.09,61.89c-21.15,33.16-36.32,69.78-43.89,101.03
				c-8.53,32.84-7.57,59.67,3.79,70.72C194.34,538.1,209.18,542.52,224.32,542.52z M187.38,458.22
				c11.05-44.52,39.78-103.56,72.31-137.03c17.06-17.06,27.46-19.58,32.21-19.58c0.96-0.31,1.26-0.31,1.59,0h1.59
				c70.72,0,104.82,129.45,106.08,185.33v7.27c0,2.22,0,4.74-0.32,6.94c-2.52,21.48-32.53,30.31-51.16,30.31
				c-24.94,0-37.58-13.89-44.83-36.95c9.79-2.52,18.63-7.27,26.83-14.21c-14.21,4.74-28.42,7.27-43.26,7.27
				c-7.9,0-15.78-0.96-23.68-2.52c-7.9-1.59-15.78-4.11-23.05-6.94c8.53,6.31,17.06,11.05,26.83,14.52
				c-2.52,9.47-11.99,34.73-21.48,38.21c-7.57,2.22-15.15,3.48-22.74,3.48c-12.95,0-25.89-4.11-35.69-13.25
				C179.8,512.53,180.13,488.53,187.38,458.22z"/>
			<path d="M272.32,423.17c-0.31,3.16,0.32,6,1.26,8.53c2.22,6,7.57,8.84,13.89,9.16c1.59,0,2.85-0.31,4.42-0.31
				c12.32-1.59,18.32-9.79,19.58-22.11c0.32-3.16,0-6.64-0.63-10.1c-2.22-7.9-6.94-14.21-15.47-14.21c-1.59,0-2.52,0-3.48,0.32
				l-0.96,0.31c-3.48,0.96-6.31,2.85-9.16,5.05C277.05,403.91,272.63,410.85,272.32,423.17z M295.05,402.34
				c4.74,0,6.94,3.79,7.9,7.9c0.63,1.89,0.63,4.42,0.31,7.57c-0.94,9.79-6,14.84-15.47,14.84c-1.59,0-2.85-0.32-4.11-0.96
				c-1.26-0.32-2.22-1.59-2.52-3.16c-0.63-1.26-0.96-3.16-0.96-5.37c0-1.89,0.32-4.11,0.96-6.64
				C283.05,409.91,287.8,402.34,295.05,402.34z"/>
			<path d="M228.11,392.85c2.85,0,4.42-1.59,4.42-4.42c0-2.85-1.57-4.11-4.42-4.11c-2.85,0-4.11,1.26-4.11,4.11
				C224.02,391.28,225.28,392.85,228.11,392.85z"/>
			<path d="M569.78,405.17c0.96,0,1.89-0.31,2.85-1.26c1.57-2.22,1.26-4.11-0.32-5.37c-0.96-0.63-1.57-0.94-2.52-0.94
				c-1.26,0-2.22,0.31-2.85,1.26c-1.26,1.59-1.26,4.11,0.31,5.37C568.19,404.86,569.15,405.17,569.78,405.17z"/>
			<path d="M473.8,446.23c6.64,4.11,61.89,4.74,75.46,4.74c3.48,0,8.84,0,16.1-0.32c20.52,0,51.46-1.59,54.62-4.74
				c0.96-1.26,1.57-2.22,1.89-3.16c2.22-5.05,2.85-16.1,2.52-26.53c0-6.64-1.89-24-8.84-27.16c-7.27-3.16-49.89-4.11-74.2-4.11
				h-11.99c-11.05,0-57.78,0.32-60.3,6.64l-0.31,0.96c-0.96,8.84-1.26,17.06-1.26,24.31C467.79,429.49,469.05,442.75,473.8,446.23z
				 M476,394.12c2.2-1.59,20.52-2.22,43.26-2.22h12.95c26.2,0,74.83,0.63,80.84,3.79c2.52,2.52,3.79,11.36,4.11,20.52
				c0.96,9.79-0.31,19.89-1.89,24l-0.63,0.63c-1.26,1.26-14.52,2.22-29.36,2.22c-14.84,0.31-29.99,0.63-35.99,0.63
				c-11.68-0.32-66.94-0.32-71.35-3.48C472.21,437.07,475.06,399.81,476,394.12z"/>
			<path d="M480.11,405.49c0.63,0,0.96,0,1.26-0.32c1.26-0.31,10.1-1.59,30.31-1.89c15.47,0,30.94,0.31,46.41,1.26
				c2.22,0,3.79-1.26,3.79-3.48s-1.26-3.79-3.48-3.79c-15.47-0.96-31.27-1.26-46.74-1.26c-21.15,0.31-30.94,1.89-32.53,2.22
				c-2.22,0.63-2.85,2.22-2.22,4.42C477.26,404.54,478.52,405.49,480.11,405.49z"/>
			<path d="M800.98,313.77c0.96,0.32,1.57,0.63,2.22,0.63c1.57,0,2.85-0.63,3.79-1.89c1.59-2.52,0.96-4.42-1.57-6
				c-0.31-0.31-1.26-0.63-2.22-0.63c-1.57,0-2.85,0.63-3.48,1.89C798.14,310.29,798.77,312.19,800.98,313.77z"/>
			<path d="M704.67,363.34c0.63,0,1.26-0.32,1.59-0.63c2.22-0.94,3.16-3.16,2.22-5.37c-1.59-3.79-2.52-8.2-2.52-13.58
				c0.96-19.58,21.78-27.16,38.52-29.68h1.57c7.9-1.26,15.78-1.59,23.37-1.59c7.27,0,14.21,0.32,20.52,0.63
				c2.52,0.32,4.11-0.63,4.42-3.48c0-2.22-1.57-4.42-3.79-4.42c-6.31-0.63-13.25-0.96-21.15-0.96c-7.57,0-15.47,0.32-23.37,1.59
				l-2.85,0.32c-20.52,3.16-45.15,13.58-45.15,37.25c-0.31,6,0.63,12.62,2.85,17.36C701.52,362.39,702.78,363.34,704.67,363.34z"/>
			<path d="M741.62,415.75c1.26,0,2.22,0,2.85-0.32l1.57-0.31c8.53-0.96,16.43-2.85,23.68-4.42
				c-19.26,19.26-59.67,65.37-52.09,91.87c10.1,36.32,79.58,43.57,113.98,43.57c29.99,0,113.67-6.31,122.83-42.63
				c10.42-40.41,5.68-59.99-9.47-67.89c-6.64-3.48-14.52-4.74-24.31-4.74c-9.79,0-21.15,1.59-33.47,3.16
				c11.68-18.32,29.36-50.53,37.89-77.36c6.64-20.52,8.84-38.52-0.96-48.31c-10.73-10.73-78.94-16.1-117.14-18.32
				c-7.9-0.31-14.21-0.31-18.95-0.31c-35.69,0-100.1,1.26-105.15,48.63c-1.59,14.21,3.48,28.09,8.2,36.95
				C699.63,392.07,721.1,415.75,741.62,415.75z M690.79,339.34c4.11-40.73,65.04-41.67,96.62-41.67c26.2,0,119.99,5.37,131.04,16.43
				c6.64,7.27,5.05,22.11-0.96,40.1c-8.53,25.26-25.26,55.25-35.99,73.57c-0.32,0.96-0.32,0.63-0.63,1.59
				c-2.22,2.85-3.48,5.68-5.05,7.9l-3.79,6.31c-6,7.9-12.95,16.73-21.48,24.31c9.16-4.74,21.78-14.21,30.31-24.63
				c15.16-2.22,28.73-4.11,40.1-4.11c7.9,0,14.84,0.94,19.89,3.79c11.68,6,14.84,22.74,5.68,58.73
				c-7.9,29.68-87.78,36.62-114.61,36.62c-26.2,0-97.57-5.05-106.41-37.89c-3.48-12.62,6.94-32.53,20.52-50.2
				c13.25-17.69,28.73-33.79,36.62-41.04l3.79-3.79c10.73-6,25.26-17.69,31.57-28.42c-5.37,4.74-11.05,8.84-17.36,12.62
				c-6.64,3.79-12.95,6.94-19.26,9.47c-10.1,2.52-29.68,8.53-40.1,8.53c-16.73,0-36.32-22.41-42.93-35.69
				C694.25,363.34,689.53,351.66,690.79,339.34z"/>
			
				<linearGradient id="SVGID_1_" gradientUnits="userSpaceOnUse" x1="-173.0336" y1="527.3047" x2="738.198" y2="873.2639" gradientTransform="matrix(1 0 0 -1 0 1133.2756)">
				<stop  offset="0" style="stop-color:#71CAEE"/>
				<stop  offset="0.2" style="stop-color:#8881B8"/>
				<stop  offset="0.4" style="stop-color:#EC98BA"/>
				<stop  offset="0.6" style="stop-color:#EE9579"/>
				<stop  offset="0.8" style="stop-color:#FCF099"/>
				<stop  offset="1" style="stop-color:#83C59B"/>
			</linearGradient>
			<path class="st0" d="M224.32,534.32c7.57,0,15.15-1.26,22.74-3.48c9.47-3.48,18.95-28.73,21.48-38.21
				c-9.79-3.48-18.32-8.2-26.83-14.52c7.27,2.85,15.15,5.37,23.05,6.94c7.9,1.59,15.78,2.52,23.68,2.52
				c14.84,0,29.05-2.52,43.26-7.27c-8.2,6.94-17.06,11.68-26.83,14.21c7.27,23.05,19.89,36.95,44.83,36.95
				c18.63,0,48.63-8.84,51.16-30.31c0.32-2.22,0.32-4.74,0.32-6.94v-7.27c-1.26-55.88-35.36-185.33-106.08-185.33h-1.59
				c-0.32-0.31-0.63-0.31-1.59,0c-4.74,0-15.15,2.52-32.21,19.58c-32.53,33.47-61.26,92.51-72.31,137.03
				c-7.27,30.31-7.57,54.31,1.26,62.84C198.43,530.2,211.38,534.32,224.32,534.32z M291.89,394.44c0.96-0.32,1.89-0.32,3.48-0.32
				c8.53,0,13.25,6.31,15.47,14.21c0.63,3.48,0.96,6.94,0.63,10.1c-1.26,12.32-7.27,20.52-19.58,22.11c-1.59,0-2.85,0.31-4.42,0.31
				c-6.31-0.31-11.68-3.16-13.89-9.16c-0.94-2.52-1.57-5.37-1.26-8.53c0.32-12.32,4.74-19.26,9.47-23.37
				c2.85-2.22,5.68-4.11,9.16-5.05L291.89,394.44z M230.96,377.38c11.68-19.26,32.84-51.16,51.46-63.78l0.63-0.32
				c0.32-0.31,1.26-0.63,2.22-0.63c1.59,0,2.52,0.63,3.48,1.59c1.26,2.22,0.63,4.42-0.96,5.68l-0.63,0.31
				c-17.36,11.68-37.89,42.93-49.57,61.26c-0.63,1.57-1.89,2.22-3.48,2.22c-0.31,0-0.96-0.32-1.89-0.63
				C230,381.49,229.37,379.6,230.96,377.38z M228.11,384.34c2.85,0,4.42,1.26,4.42,4.11s-1.57,4.42-4.42,4.42
				c-2.85,0-4.11-1.59-4.11-4.42C224.02,385.6,225.28,384.34,228.11,384.34z"/>
			
				<linearGradient id="SVGID_00000087413293572927779740000002566817187501279918_" gradientUnits="userSpaceOnUse" x1="-145.075" y1="453.6636" x2="766.1567" y2="799.6226" gradientTransform="matrix(1 0 0 -1 0 1133.2756)">
				<stop  offset="0" style="stop-color:#71CAEE"/>
				<stop  offset="0.2" style="stop-color:#8881B8"/>
				<stop  offset="0.4" style="stop-color:#EC98BA"/>
				<stop  offset="0.6" style="stop-color:#EE9579"/>
				<stop  offset="0.8" style="stop-color:#FCF099"/>
				<stop  offset="1" style="stop-color:#83C59B"/>
			</linearGradient>
			<path style="fill:url(#SVGID_00000087413293572927779740000002566817187501279918_);" d="M477.89,440.22
				c4.42,3.16,59.67,3.16,71.35,3.48c6,0,21.15-0.32,35.99-0.63c14.84,0,28.09-0.96,29.36-2.22l0.63-0.63
				c1.57-4.11,2.85-14.21,1.89-24c-0.31-9.16-1.57-18-4.11-20.52c-6-3.16-54.62-3.79-80.84-3.79h-12.95
				c-22.74,0-41.04,0.63-43.26,2.22C475.06,399.81,472.21,437.07,477.89,440.22z M566.93,398.86c0.63-0.96,1.57-1.26,2.85-1.26
				c0.96,0,1.57,0.31,2.52,0.94c1.59,1.26,1.89,3.16,0.32,5.37c-0.96,0.96-1.89,1.26-2.85,1.26c-0.63,0-1.57-0.31-2.52-0.94
				C565.67,402.97,565.67,400.44,566.93,398.86z M479.15,398.23c1.59-0.32,11.36-1.89,32.53-2.22c15.47,0,31.27,0.31,46.74,1.26
				c2.22,0,3.48,1.59,3.48,3.79c0,2.22-1.57,3.48-3.79,3.48c-15.47-0.96-30.94-1.26-46.41-1.26c-20.21,0.31-29.05,1.59-30.31,1.89
				c-0.31,0.32-0.63,0.32-1.26,0.32c-1.57,0-2.85-0.96-3.16-2.85C476.32,400.44,476.95,398.86,479.15,398.23z"/>
			
				<linearGradient id="SVGID_00000170258020328357679420000012535757163918716838_" gradientUnits="userSpaceOnUse" x1="-111.2826" y1="364.657" x2="799.9489" y2="710.6163" gradientTransform="matrix(1 0 0 -1 0 1133.2756)">
				<stop  offset="0" style="stop-color:#71CAEE"/>
				<stop  offset="0.2" style="stop-color:#8881B8"/>
				<stop  offset="0.4" style="stop-color:#EC98BA"/>
				<stop  offset="0.6" style="stop-color:#EE9579"/>
				<stop  offset="0.8" style="stop-color:#FCF099"/>
				<stop  offset="1" style="stop-color:#83C59B"/>
			</linearGradient>
			<path style="fill:url(#SVGID_00000170258020328357679420000012535757163918716838_);" d="M741.3,407.54
				c10.42,0,29.99-6,40.1-8.53c6.31-2.52,12.62-5.68,19.26-9.47c6.31-3.79,11.99-7.9,17.36-12.62
				c-6.31,10.73-20.84,22.41-31.57,28.42l-3.79,3.79c-7.9,7.27-23.37,23.37-36.62,41.04c-13.58,17.69-24,37.58-20.52,50.2
				c8.84,32.84,80.21,37.89,106.41,37.89c26.83,0,106.71-6.94,114.61-36.62c9.16-35.99,6-52.73-5.68-58.73
				c-5.05-2.85-11.99-3.79-19.89-3.79c-11.36,0-24.94,1.89-40.1,4.11c-8.53,10.42-21.15,19.89-30.31,24.63
				c8.53-7.57,15.47-16.43,21.48-24.31l3.79-6.31c1.57-2.22,2.85-5.05,5.05-7.9c0.31-0.96,0.31-0.63,0.63-1.59
				c10.73-18.32,27.46-48.31,35.99-73.57c6-18,7.57-32.84,0.96-40.1c-11.05-11.05-104.82-16.43-131.04-16.43
				c-31.57,0-92.52,0.94-96.62,41.67c-1.26,12.32,3.48,24,7.57,32.53C705,385.13,724.56,407.54,741.3,407.54z M799.72,307.77
				c0.63-1.26,1.89-1.89,3.48-1.89c0.96,0,1.89,0.32,2.22,0.63c2.52,1.59,3.16,3.48,1.57,6c-0.94,1.26-2.22,1.89-3.79,1.89
				c-0.63,0-1.26-0.31-2.22-0.63C798.77,312.19,798.14,310.29,799.72,307.77z M698.04,343.44c0-23.68,24.63-34.1,45.15-37.25
				l2.85-0.32c7.9-1.26,15.78-1.59,23.37-1.59c7.9,0,14.84,0.32,21.15,0.96c2.22,0,3.79,2.22,3.79,4.42
				c-0.31,2.85-1.89,3.79-4.42,3.48c-6.31-0.31-13.25-0.63-20.52-0.63c-7.57,0-15.47,0.32-23.37,1.59h-1.57
				c-16.73,2.52-37.58,10.1-38.52,29.68c0,5.37,0.96,9.79,2.52,13.58c0.94,2.22,0,4.42-2.22,5.37c-0.32,0.32-0.96,0.63-1.59,0.63
				c-1.89,0-3.16-0.96-3.79-2.52C698.69,356.08,697.73,349.44,698.04,343.44z"/>
		</g>
		
			<linearGradient id="SVGID_00000013873735404814607240000006984641097952298137_" gradientUnits="userSpaceOnUse" x1="64.7673" y1="423.8686" x2="729.556" y2="676.2629" gradientTransform="matrix(1 0 0 -1 0 1133.2756)">
			<stop  offset="0" style="stop-color:#71CAEE"/>
			<stop  offset="0.2" style="stop-color:#8881B8"/>
			<stop  offset="0.4" style="stop-color:#EC98BA"/>
			<stop  offset="0.6" style="stop-color:#EE9579"/>
			<stop  offset="0.8" style="stop-color:#FCF099"/>
			<stop  offset="1" style="stop-color:#83C59B"/>
		</linearGradient>
		<path style="fill:url(#SVGID_00000013873735404814607240000006984641097952298137_);" d="M111.23,604.13
			c-14.98,0-21.65,14.98-22.81,28.57c-1.16,16.36-2.3,66.34,0.7,103.88c1.84,22.35,5.31,40.09,10.59,42.39
			c3,1.16,5.77,1.84,8.75,1.84c8.07,0,13.36-5.99,17.28-14.52c5.53-12.44,7.37-29.25,8.75-44.69c0.22-5.07,0.46-9.91,0.68-14.28
			c0.24-3.46,0.24-6.45,0.46-8.53c1.84-21.65,3.46-48.14-0.22-67.26C132.88,618.41,127.13,604.13,111.23,604.13z M131.27,693.04
			c-0.46,1.16-1.38,1.62-2.54,1.62c-0.46,0-0.92-0.22-1.62-0.46c-1.84-1.16-2.3-2.54-1.16-4.38c0.68-0.92,1.62-1.38,2.76-1.38
			c0.68,0,1.38,0.22,1.6,0.46C131.95,690.05,132.42,691.44,131.27,693.04z M132.19,681.76c0,1.62-1.38,2.99-3,2.76h-0.46
			c-1.62-0.22-2.54-1.38-2.3-3c0.92-18.2,0.92-33.64-1.16-45.61c-1.84-11.29-5.31-19.12-10.83-21.89c-1.62-0.92-2.08-2.3-1.38-4.15
			c0.7-1.14,1.38-1.62,2.54-1.62c0.7,0,0.7,0.22,1.38,0.22c9.45,4.38,12.44,17.04,14.28,26.25
			C133.34,647.67,133.34,663.32,132.19,681.76z"/>
		
			<linearGradient id="SVGID_00000155827289418025029240000017650600249697795730_" gradientUnits="userSpaceOnUse" x1="106.878" y1="312.9517" x2="771.6666" y2="565.3459" gradientTransform="matrix(1 0 0 -1 0 1133.2756)">
			<stop  offset="0" style="stop-color:#71CAEE"/>
			<stop  offset="0.2" style="stop-color:#8881B8"/>
			<stop  offset="0.4" style="stop-color:#EC98BA"/>
			<stop  offset="0.6" style="stop-color:#EE9579"/>
			<stop  offset="0.8" style="stop-color:#FCF099"/>
			<stop  offset="1" style="stop-color:#83C59B"/>
		</linearGradient>
		<path style="fill:url(#SVGID_00000155827289418025029240000017650600249697795730_);" d="M410.9,726.9l-2.08-0.92l1.16-6.45
			c1.38-13.6,2.3-55.98-32.72-63.57c-4.38-0.92-8.53-1.38-12.9-1.38c-26.71,0-50.44,17.74-63.57,40.31
			c-4.61,7.61-7.83,15.66-9.67,23.95c-3,13.13-2.54,26.49,2.76,39.16c6.45,15.66,19.58,23.03,36.16,23.03s35.24-8.75,44.91-22.11
			l4.15-5.99c3.46-5.3,5.99-11.29,8.99-17.5c-0.92,6.23-3.46,16.12-7.83,24.41c1.84,11.29,12.21,18.66,23.27,18.66
			c9.91,0,22.57-8.29,24.41-18.2c0.22-0.46,0.22-1.16,0.22-1.84C427.02,751.09,417.59,730.58,410.9,726.9z M296.41,714.92
			c0.46-0.92,1.38-1.38,2.54-1.38c0.22,0,0.92,0.22,1.84,0.46c1.62,1.14,2.08,2.54,0.92,4.38c-0.68,0.92-1.62,1.38-2.76,1.38
			c-0.46,0-0.92-0.22-1.62-0.46C295.73,718.15,295.27,716.77,296.41,714.92z M331.43,775.51c0,1.16-0.46,1.84-1.38,2.3
			c-0.7,0.22-1.16,0.46-1.84,0.22c-6.23-0.7-11.97-2.76-17.04-5.99c-5.07-3-9.21-7.37-12.21-12.9c-5.3-9.21-6.45-20.26-4.84-31.34
			c0-2.08,0.46-5.3,3.22-5.3c0.68,0,1.38,0.24,1.62,0.46c1.14,0.46,1.62,1.38,1.38,3c-0.24,0.92-0.24,1.84-0.46,2.76
			c-1.16,9.91,0,19.34,4.38,27.41c5.31,9.45,14.28,14.52,24.65,16.12c0.68,0,0.92,0.24,1.16,0.24
			C331.21,773.21,331.67,774.35,331.43,775.51z M363.69,713.08c-0.7,8.29-7.83,19.8-16.82,20.5c-8.29,0-17.5-2.08-18.2-11.97
			c0-2.54,0.46-4.84,1.16-6.91l0.24-0.46c3.68-9.45,11.05-16.82,21.89-16.82c5.77,0.7,9.21,3.68,10.83,7.61
			C363.69,707.33,363.91,710.1,363.69,713.08z"/>
		
			<linearGradient id="SVGID_00000176040753962024069030000003846828363868459948_" gradientUnits="userSpaceOnUse" x1="119.0933" y1="280.778" x2="783.8818" y2="533.1723" gradientTransform="matrix(1 0 0 -1 0 1133.2756)">
			<stop  offset="0" style="stop-color:#71CAEE"/>
			<stop  offset="0.2" style="stop-color:#8881B8"/>
			<stop  offset="0.4" style="stop-color:#EC98BA"/>
			<stop  offset="0.6" style="stop-color:#EE9579"/>
			<stop  offset="0.8" style="stop-color:#FCF099"/>
			<stop  offset="1" style="stop-color:#83C59B"/>
		</linearGradient>
		<path style="fill:url(#SVGID_00000176040753962024069030000003846828363868459948_);" d="M520.31,660.1
			c-10.37,0-19.12,4.84-25.57,12.44c-7.61,10.13-10.37,15.2-12.67,30.87c-0.68-8.53-1.38-15.44,2.54-24.41l0.22-2.06
			c0.68-5.31-1.38-9.67-4.15-13.13c-3.46-3.92-7.83-5.99-12.9-5.99c-14.98,0-18.42,18.66-20.26,30.41
			c-3.46,21.19-4.38,44.69-2.76,62.43c0.7,6.23,2.76,24.41,9.45,26.95c1.62,0.7,3,0.92,4.61,1.62l0.68,0.22
			c3.92,0.92,7.61,1.62,11.05,1.62c6.23,0,11.51-2.3,13.13-8.53c1.16-3.68,1.38-10.13,1.62-17.28c0.7-19.12,2.08-43.77,19.12-48.14
			c4.15-0.92,7.83-1.38,11.05-1.38c6.23,0,10.37,1.62,13.82,2.76c2.06,0.92,3.68,1.62,5.3,1.62c10.83,0,16.12-18.66,16.82-27.17
			c0.22-4.38-0.46-7.83-2.08-10.13C543.8,664.94,529.3,660.1,520.31,660.1z M454.66,735.67c-0.68,0.92-1.38,1.38-2.54,1.38
			c-0.68,0-1.38-0.22-1.84-0.46c-1.62-1.16-2.08-2.54-0.92-4.15c0.7-1.16,1.62-1.62,2.76-1.62c0.24,0,0.7,0.22,1.62,0.46
			C455.36,732.44,455.82,733.81,454.66,735.67z M468.25,669.31c-4.38,2.06-6.91,5.53-8.75,10.83c-2.54,8.29-3.22,20.5-3.92,38.01
			c-0.24,2.54-0.24,4.84-0.46,7.37c0,1.84-0.92,2.76-3,2.76c-1.62,0-3-1.38-2.76-3l0.24-7.37c0.24-6.69,0.7-12.44,0.92-17.74
			c0.24-5.3,0.92-9.91,1.62-13.82c1.16-8.07,3.68-14.28,7.37-18.2c1.62-1.62,5.31-4.61,7.37-4.61c1.16,0,2.08,0.7,2.76,1.84
			C470.32,667.01,469.86,668.63,468.25,669.31z"/>
		
			<linearGradient id="SVGID_00000055688428656112130470000011656771901461654912_" gradientUnits="userSpaceOnUse" x1="150.3714" y1="198.3936" x2="815.1599" y2="450.7879" gradientTransform="matrix(1 0 0 -1 0 1133.2756)">
			<stop  offset="0" style="stop-color:#71CAEE"/>
			<stop  offset="0.2" style="stop-color:#8881B8"/>
			<stop  offset="0.4" style="stop-color:#EC98BA"/>
			<stop  offset="0.6" style="stop-color:#EE9579"/>
			<stop  offset="0.8" style="stop-color:#FCF099"/>
			<stop  offset="1" style="stop-color:#83C59B"/>
		</linearGradient>
		<path style="fill:url(#SVGID_00000055688428656112130470000011656771901461654912_);" d="M744.66,666.33
			c-2.54-8.99-9.45-14.06-18.42-14.28c-8.99,0-16.82,5.07-19.34,14.06c-2.54,9.67-4.61,41.23-3.46,68.42
			c1.14,19.12,3.46,35.7,8.07,40.31c3.91,3.46,8.99,6.23,14.52,6.23c11.75,0,17.04-12.67,18.88-22.57
			c2.54-12.9,3.68-29.71,3.46-45.61C748.34,692.58,746.74,673.92,744.66,666.33z M743.96,735.67c-0.7,0.92-1.62,1.38-2.76,1.38
			c-0.7,0-1.38-0.22-1.62-0.46c-1.62-1.16-2.08-2.54-0.92-4.38c0.46-0.92,1.38-1.38,2.54-1.38c0.46,0,0.92,0.22,1.62,0.46
			C744.66,732.44,745.12,733.81,743.96,735.67z M744.66,720.45v4.84c0,2.06-1.62,3-3.46,3c-1.62-0.24-2.54-1.38-2.54-3l0.22-4.84
			c1.16-34.32,1.16-53.44-9.67-58.97c-1.62-0.7-2.06-2.3-1.38-3.92c0.68-1.14,1.62-1.84,2.76-1.84c3.92,0,9.45,7.15,10.59,10.59
			C746.04,677.16,745.36,694.66,744.66,720.45z"/>
		
			<linearGradient id="SVGID_00000098936289974057427810000017728823347918890169_" gradientUnits="userSpaceOnUse" x1="138.4677" y1="229.7472" x2="803.2562" y2="482.1415" gradientTransform="matrix(1 0 0 -1 0 1133.2756)">
			<stop  offset="0" style="stop-color:#71CAEE"/>
			<stop  offset="0.2" style="stop-color:#8881B8"/>
			<stop  offset="0.4" style="stop-color:#EC98BA"/>
			<stop  offset="0.6" style="stop-color:#EE9579"/>
			<stop  offset="0.8" style="stop-color:#FCF099"/>
			<stop  offset="1" style="stop-color:#83C59B"/>
		</linearGradient>
		<path style="fill:url(#SVGID_00000098936289974057427810000017728823347918890169_);" d="M648.14,659.18
			c-12.9,0-23.49,6.69-32.02,15.66l-1.84,2.08c-4.38,4.61-7.37,10.13-11.29,18.2c1.62-8.99,3.46-14.98,7.83-21.42v-0.92
			c0-3-0.46-5.77-1.38-8.29c-1.62-4.38-4.84-8.07-11.97-8.75c-0.68-0.22-1.62-0.22-2.3-0.22h-2.54c-16.82,0-22.11,8.07-24.19,24.65
			c-1.84,12.9-1.62,34.32,0.22,53.9c1.62,17.5,3.92,32.7,7.37,38.93c3.46,5.53,9.91,7.37,16.12,7.37c2.76,0,6.45-0.46,9.91-2.06
			c3-1.16,5.99-3.68,6.23-6.69c0.68-2.99,0-8.07-0.7-14.28c-1.84-20.04-5.3-48.38,17.04-52.06h2.76c11.75,0,16.82,11.75,18.88,25.79
			c1.62,12.21,1.14,26.25,0.92,34.56v1.84c0,3.22,0.7,5.77,2.3,7.37c3.46,4.38,8.53,5.77,13.82,5.77
			c20.26,0,23.03-20.04,23.73-36.16c0.92-18.2-1.16-38.7-3.68-51.82C680.4,674.62,667.27,659.18,648.14,659.18z M652.53,669.77
			c-0.7,1.14-1.62,1.62-2.76,1.62c-0.7,0-1.38,0-1.62-0.22c-1.62-0.92-2.06-2.76-1.14-4.38c0.7-1.14,1.38-1.62,2.54-1.62
			c0.22,0,0.92,0.24,1.84,0.46C652.99,666.79,653.45,668.17,652.53,669.77z M679.02,734.05c-1.84,0-3-0.92-3.22-3
			c-0.7-17.74-2.3-31.1-5.3-40.31c-2.54-7.15-5.99-13.6-13.36-16.12c-1.62-0.7-2.3-2.08-1.84-3.92c0.7-1.84,2.3-1.84,3.92-1.84
			c9.21,3.46,14.06,10.83,17.04,20.04c1.62,4.84,2.99,10.83,3.68,17.74c0.7,6.91,1.38,14.98,1.84,24.19
			C681.78,732.66,680.86,733.81,679.02,734.05z"/>
		
			<linearGradient id="SVGID_00000002370424245322521490000001726504786994628542_" gradientUnits="userSpaceOnUse" x1="85.1227" y1="370.2537" x2="749.9113" y2="622.6479" gradientTransform="matrix(1 0 0 -1 0 1133.2756)">
			<stop  offset="0" style="stop-color:#71CAEE"/>
			<stop  offset="0.2" style="stop-color:#8881B8"/>
			<stop  offset="0.4" style="stop-color:#EC98BA"/>
			<stop  offset="0.6" style="stop-color:#EE9579"/>
			<stop  offset="0.8" style="stop-color:#FCF099"/>
			<stop  offset="1" style="stop-color:#83C59B"/>
		</linearGradient>
		<path style="fill:url(#SVGID_00000002370424245322521490000001726504786994628542_);" d="M219.5,649.05
			c-13.13,0-30.87,2.54-41.47,10.13l-0.46,0.46c-16.58,12.21-23.73,36.4-24.87,55.97c-0.92,14.74,1.6,29.02,7.83,40.77
			c8.99,16.58,26.25,24.65,44.69,24.65c19.34,0,43.53-4.61,49.06-26.25c1.84-6.69,1.14-11.51-1.38-14.98
			c-3.92-5.3-11.05-6.23-16.82-6.23c-9.21,0-22.81,3.68-27.63,11.05l-2.3,3.68l-2.54-3.46c-2.3-3.22-3.92-6.45-5.07-9.91
			c-2.08-5.77-2.76-13.13,1.84-19.58c-6.69-4.38-11.05-11.29-13.6-19.34c4.84,7.15,11.75,12.21,19.34,15.66
			c0,0.24,3.46,1.84,9.67,3.46c7.61,2.08,15.9,3.46,23.95,3.46c11.75,0,21.42-1.62,27.87-12.44c4.61-8.07,6.23-18.2,6.23-25.79
			C273.4,655.49,239.06,649.05,219.5,649.05z M157.99,714.92c0.46-0.92,1.38-1.38,2.54-1.38c0.68,0,1.38,0.22,1.84,0.46
			c1.62,0.7,1.84,2.54,0.92,4.15c-0.68,1.16-1.62,1.62-2.76,1.62c-0.46,0-0.92-0.22-1.62-0.46
			C157.3,718.39,157.06,716.55,157.99,714.92z M195.53,769.99c2.08,0.7,2.76,1.84,2.08,3.68c-0.68,1.84-2.08,2.06-3.68,2.06
			c-15.44-4.61-27.63-14.74-33.4-30.18c-2.3-5.99-3.22-12.67-3-20.04c0-1.62,1.38-3,3-2.76c1.62,0,3,1.38,2.76,2.99
			c-0.22,10.37,2.54,19.8,8.29,27.87c3,3.92,6.45,7.37,10.59,10.13C186.08,766.52,190.7,768.61,195.53,769.99z M237.92,697.42
			c-3.46,3.46-8.53,4.61-13.13,4.61c-11.05,0-18.88-5.53-19.12-17.28c-0.24-2.06,0.22-4.15,1.16-6.23
			c2.54-4.84,7.15-6.23,12.44-6.23c1.62,0,2.76,0.22,4.38,0.22c7.15,0.92,11.29,4.15,13.82,7.15c1.62,1.84,2.76,3.68,3.46,5.77
			C242.06,690.28,241.14,694.42,237.92,697.42z"/>
		
			<linearGradient id="SVGID_00000140735667130416938660000004392300687078241201_" gradientUnits="userSpaceOnUse" x1="117.7216" y1="284.3908" x2="782.5101" y2="536.7851" gradientTransform="matrix(1 0 0 -1 0 1133.2756)">
			<stop  offset="0" style="stop-color:#71CAEE"/>
			<stop  offset="0.2" style="stop-color:#8881B8"/>
			<stop  offset="0.4" style="stop-color:#EC98BA"/>
			<stop  offset="0.6" style="stop-color:#EE9579"/>
			<stop  offset="0.8" style="stop-color:#FCF099"/>
			<stop  offset="1" style="stop-color:#83C59B"/>
		</linearGradient>
		<path style="fill:url(#SVGID_00000140735667130416938660000004392300687078241201_);" d="M729.46,599.75
			c-11.75,0-20.5,9.67-24.41,20.04c-0.92,3-1.38,5.3-1.38,7.37c0.22,2.08,0.92,3.92,2.08,5.3c3.68,4.15,10.83,4.83,15.9,4.83h0.46
			c9.45-0.68,16.82-14.52,17.5-23.03c0.22-3.22,0-5.99-0.92-8.07C737.05,602.75,734.75,600.45,729.46,599.75z"/>
		
			<linearGradient id="SVGID_00000078738261363089456050000001314144032344837271_" gradientUnits="userSpaceOnUse" x1="189.4486" y1="95.4672" x2="854.2371" y2="347.8616" gradientTransform="matrix(1 0 0 -1 0 1133.2756)">
			<stop  offset="0" style="stop-color:#71CAEE"/>
			<stop  offset="0.2" style="stop-color:#8881B8"/>
			<stop  offset="0.4" style="stop-color:#EC98BA"/>
			<stop  offset="0.6" style="stop-color:#EE9579"/>
			<stop  offset="0.8" style="stop-color:#FCF099"/>
			<stop  offset="1" style="stop-color:#83C59B"/>
		</linearGradient>
		<path style="fill:url(#SVGID_00000078738261363089456050000001314144032344837271_);" d="M1004.95,633.85
			c-6.45,0-12.9,1.38-18.2,5.77c-3.46,2.54-5.53,6.45-5.3,11.05l0.46,5.3l-4.84-2.54c-7.15-3.68-14.28-5.3-22.35-5.3
			c-31.1,0-47.92,17.04-53.2,46.76c-2.08,11.75-1.38,24.19,1.62,34.56c6.23,22.81,22.11,31.8,45.15,31.8
			c12.9,0,25.79-3.22,37.54-9.67c10.13-5.77,17.04-14.28,25.33-24.19c-2.54,6.23-7.61,15.2-14.28,22.35v0.46
			c-0.92,12.21-1.84,22.81-5.3,30.41c-3.46,8.53-8.99,13.82-18.88,13.82c-7.61,0-14.28-4.61-20.96-9.21
			c-0.46-0.7-1.14-0.92-1.84-1.16c-5.3-3.46-9.91-6.45-15.2-6.45c-8.53,0-17.28,9.67-17.96,17.96c-0.24,4.15,0.92,8.53,3.22,12.9
			c9.91,19.12,35.7,29.71,56.21,29.71c48.14,0,66.12-43.07,69.8-85.68c3.68-43.31-7.37-90.77-24.41-112.17
			C1018.08,635.91,1011.62,633.85,1004.95,633.85z M938.37,656.65c0.46-0.92,1.38-1.38,2.54-1.38c0.7,0,1.38,0.24,1.62,0.46
			c1.84,1.14,2.3,2.54,1.14,4.15c-0.68,1.14-1.62,1.62-2.76,1.62c-0.46,0-0.92-0.22-1.62-0.46
			C937.69,660.1,937.45,658.26,938.37,656.65z M914.64,688.21c-3.92,11.75-4.38,25.33-0.7,37.08c0.46,1.84-0.22,3-1.84,3.68
			c-0.22,0.24-0.7,0.24-0.92,0.24c-1.62,0-2.54-0.7-3-2.08c-2.06-6.45-3-13.36-2.76-20.5c0.22-7.15,1.38-13.82,3.46-20.26
			c4.38-12.21,11.51-22.57,22.35-27.17c0.7-0.22,0.92-0.46,1.16-0.46c1.38,0,2.3,0.68,2.76,1.84c0.7,1.84,0.22,3.22-1.62,3.92
			C924.55,668.39,918.1,677.38,914.64,688.21z M967.16,704.79c-0.7,8.75-7.61,19.8-16.82,20.5c-8.07,0-17.28-2.3-17.96-11.75
			c-0.24-1.84,0.22-4.15,1.14-7.15c3.68-9.91,11.29-17.04,22.11-17.04c5.3,0.7,8.99,3.22,10.59,7.61
			C967.4,699.03,967.62,701.79,967.16,704.79z"/>
		
			<linearGradient id="SVGID_00000178179399551235439800000000935416186387793553_" gradientUnits="userSpaceOnUse" x1="163.3081" y1="164.3194" x2="828.0967" y2="416.7137" gradientTransform="matrix(1 0 0 -1 0 1133.2756)">
			<stop  offset="0" style="stop-color:#71CAEE"/>
			<stop  offset="0.2" style="stop-color:#8881B8"/>
			<stop  offset="0.4" style="stop-color:#EC98BA"/>
			<stop  offset="0.6" style="stop-color:#EE9579"/>
			<stop  offset="0.8" style="stop-color:#FCF099"/>
			<stop  offset="1" style="stop-color:#83C59B"/>
		</linearGradient>
		<path style="fill:url(#SVGID_00000178179399551235439800000000935416186387793553_);" d="M845.32,659.18
			c-12.9,0-23.49,6.69-32.02,15.66l-1.84,2.08c-4.38,4.61-7.37,10.13-11.29,18.2c1.62-8.99,3.46-14.98,7.83-21.42v-0.92
			c0-3-0.46-5.77-1.38-8.29c-1.62-4.38-4.84-8.07-11.97-8.75c-0.68-0.22-1.62-0.22-2.3-0.22h-2.54c-16.82,0-22.11,8.07-24.19,24.65
			c-1.84,12.9-1.62,34.32,0.22,53.9c1.62,17.5,3.92,32.7,7.37,38.93c3.46,5.53,9.91,7.37,16.12,7.37c2.76,0,6.45-0.46,9.91-2.06
			c3-1.16,5.99-3.68,6.23-6.69c0.68-2.99,0-8.07-0.7-14.28c-1.84-20.04-5.3-48.38,17.04-52.06h2.76c11.75,0,16.82,11.75,18.88,25.79
			c1.62,12.21,1.14,26.25,0.92,34.56v1.84c0,3.22,0.7,5.77,2.3,7.37c3.46,4.38,8.53,5.77,13.82,5.77
			c20.26,0,23.03-20.04,23.73-36.16c0.92-18.2-1.16-38.7-3.68-51.82C877.57,674.62,864.44,659.18,845.32,659.18z M849.7,669.77
			c-0.7,1.14-1.62,1.62-2.76,1.62c-0.7,0-1.38,0-1.62-0.22c-1.62-0.92-2.06-2.76-1.14-4.38c0.7-1.14,1.38-1.62,2.54-1.62
			c0.22,0,0.92,0.24,1.84,0.46C850.16,666.79,850.62,668.17,849.7,669.77z M876.19,734.05c-1.84,0-3-0.92-3.22-3
			c-0.7-17.74-2.3-31.1-5.3-40.31c-2.54-7.15-5.99-13.6-13.36-16.12c-1.62-0.7-2.3-2.08-1.84-3.92c0.7-1.84,2.3-1.84,3.92-1.84
			c9.21,3.46,14.06,10.83,17.04,20.04c1.62,4.84,2.99,10.83,3.68,17.74c0.7,6.91,1.38,14.98,1.84,24.19
			C878.96,732.66,878.03,733.81,876.19,734.05z"/>
	</g>
</g>
</svg>
