<svg xmlns="http://www.w3.org/2000/svg" viewBox="0 0 85.04 56.69"><defs><style>.cls-1{isolation:isolate;}.cls-2{opacity:0.4;}.cls-3{opacity:0.2;}.cls-4{fill:none;}.cls-5{fill:#f5a3bf;}.cls-6{fill:#ee92b6;}.cls-10,.cls-7{fill:#f284ac;}.cls-7{opacity:0.57;}.cls-8{fill:#e06494;}.cls-9{fill:#ef528a;}.cls-10{opacity:0.86;}.cls-11{fill:#ee2560;}.cls-12,.cls-13{fill:#facac6;}.cls-12{opacity:0.85;}.cls-13{opacity:0.54;}.cls-14{fill:#e482a2;}.cls-15{opacity:0.22;}.cls-16{fill:#b785bb;}.cls-17{fill:#ce9cc7;}.cls-18{fill:#8d55a2;}.cls-19{fill:#fdb73b;}.cls-20{fill:#d09aab;opacity:0.67;}.cls-20,.cls-21{mix-blend-mode:overlay;}.cls-21{fill:#fffcd5;opacity:0.48;}</style></defs><g class="cls-1"><g id="Layer_1" data-name="Layer 1"><path class="cls-2" d="M12.72,47.15s-7.42,3,4.65,3.66,6.08.36,8.31,1.17,10.11-.18,9.57-1.43-.27-.72,4.29-2.33,5.81-3-.71-3.22S31.85,46.61,12.72,47.15Z"/><path class="cls-3" d="M14.62,47.8s-3.06.67,0,1.47A34.52,34.52,0,0,0,28.27,50a43.4,43.4,0,0,0,10.51-2.43c.27-.11,1.61-.78,1.62-1.18S38.11,46,37.79,46C30,46.05,14.62,47.8,14.62,47.8Z"/><path class="cls-4" d="M20.54,30.09l.23,11.19s-.38,1.62,2.14,1.62,12.14-.24,12.67-6.74S27.56,28.09,20.54,30.09Z"/><path class="cls-4" d="M27.7,22.37c2.08-.67,4.52-1.64,5.72-3.58a5.54,5.54,0,0,0-1-6.71,10.42,10.42,0,0,0-5.85-2.29,11.83,11.83,0,0,0-3,.11,10.87,10.87,0,0,0-3.66.72c-.49.05-1.37.45-1.27,2.67.14,3.06-1.35,9.39,2.63,9.82A16.13,16.13,0,0,0,27.7,22.37Z"/><path class="cls-5" d="M32.37,26.24c-5.76-.42-14.09.57-2.77-1.49,4.9-.9,7.37-3.34,8.6-5.83a9.05,9.05,0,0,0,.44-3.85C37.92,7.53,33,2.61,15.84,5.32c0,0-4-.05-3.75,2.18a1.42,1.42,0,0,0,1.47,1,.77.77,0,0,1,.47.71c.05.57.55,16.25.55,16.25a1.73,1.73,0,0,0-1.21,1.64,2.24,2.24,0,0,0,1.14,2.42l.54,12.54a3.81,3.81,0,0,1,1.27,2.78,4.53,4.53,0,0,1-.48,1.92,24,24,0,0,0,4.15.48c5.69.28,21.49-.5,21.71-11.74a11.68,11.68,0,0,0-.93-5.63C38.93,27.13,36.2,26.53,32.37,26.24ZM18.71,13.29c-.1-2.22.78-2.62,1.27-2.67a10.87,10.87,0,0,1,3.66-.72,11.83,11.83,0,0,1,3-.11,10.42,10.42,0,0,1,5.85,2.29,5.54,5.54,0,0,1,1,6.71c-1.2,1.94-3.64,2.91-5.72,3.58a16.13,16.13,0,0,1-6.36.74C17.36,22.68,18.85,16.35,18.71,13.29ZM35.58,36.16c-.53,6.5-10.16,6.74-12.67,6.74s-2.14-1.62-2.14-1.62l-.23-11.19C27.56,28.09,36.1,29.66,35.58,36.16Z"/><path class="cls-6" d="M29.6,24.75c-11.32,2.06-3,1.07,2.77,1.49,3.83.29,6.56.89,8.4,3.63C39.59,27.35,37,25,31.52,25.18c0,0,5.08-1.67,6.68-6.26C37,21.41,34.5,23.85,29.6,24.75Z"/><path class="cls-4" d="M20.54,30.09l.23,11.19s-.38,1.62,2.14,1.62,12.14-.24,12.67-6.74S27.56,28.09,20.54,30.09Z"/><path class="cls-4" d="M20.29,10.63,23.41,10l.23,0a10.87,10.87,0,0,0-3.66.72A1,1,0,0,1,20.29,10.63Z"/><path class="cls-5" d="M27.7,22.37c2.08-.67,4.52-1.64,5.72-3.58a5.54,5.54,0,0,0-1-6.71,10.42,10.42,0,0,0-5.85-2.29,11.83,11.83,0,0,0-3,.11l.64,0c5.79.15,9.07,2.57,8.54,6.74s-6.64,5-10,5.27-3.23-2.52-3.23-2.52l-.23-8.11c0-.26.25-.46.58-.63-.49.05-1.37.45-1.27,2.67.14,3.06-1.35,9.39,2.63,9.82A16.13,16.13,0,0,0,27.7,22.37Z"/><path class="cls-7" d="M27.7,22.37c2.08-.67,4.52-1.64,5.72-3.58a5.54,5.54,0,0,0-1-6.71,10.42,10.42,0,0,0-5.85-2.29,11.83,11.83,0,0,0-3,.11l.64,0c5.79.15,9.07,2.57,8.54,6.74s-6.64,5-10,5.27-3.23-2.52-3.23-2.52l-.23-8.11c0-.26.25-.46.58-.63-.49.05-1.37.45-1.27,2.67.14,3.06-1.35,9.39,2.63,9.82A16.13,16.13,0,0,0,27.7,22.37Z"/><path class="cls-4" d="M22.86,21.88c3.32-.24,9.44-1.09,10-5.27S30.07,10,24.28,9.87c0,0-4.69.1-4.88,1.38l.23,8.11S19.54,22.12,22.86,21.88Z"/><path class="cls-4" d="M13.86,47.3l.54.11,0,0a4.53,4.53,0,0,0,.43-.6l.14-.24-.43-.18A4,4,0,0,1,13.86,47.3Z"/><path class="cls-4" d="M20.54,30.09l.23,11.19s-.38,1.62,2.14,1.62,12.14-.24,12.67-6.74S27.56,28.09,20.54,30.09Z"/><path class="cls-5" d="M13.63,43.75a2.3,2.3,0,0,0-.19.71,1.66,1.66,0,0,0,.42,1.41,2.07,2.07,0,0,0,.19-.81A2.51,2.51,0,0,0,13.63,43.75Z"/><path class="cls-5" d="M14.57,46.35l.43.18a3.73,3.73,0,0,0,.47-1.69,2.85,2.85,0,0,0-.83-2,2.35,2.35,0,0,0-.42.21,3.61,3.61,0,0,1,.68,2A2.72,2.72,0,0,1,14.57,46.35Z"/><path class="cls-8" d="M14.9,45.06a3.61,3.61,0,0,0-.68-2,1.77,1.77,0,0,0-.59.67,2.51,2.51,0,0,1,.42,1.31,2.07,2.07,0,0,1-.19.81,2.32,2.32,0,0,0,.71.48A2.72,2.72,0,0,0,14.9,45.06Z"/><path class="cls-4" d="M27.7,22.37c2.08-.67,4.52-1.64,5.72-3.58a5.54,5.54,0,0,0-1-6.71,10.42,10.42,0,0,0-5.85-2.29,11.83,11.83,0,0,0-3,.11,10.87,10.87,0,0,0-3.66.72c-.49.05-1.37.45-1.27,2.67.14,3.06-1.35,9.39,2.63,9.82A16.13,16.13,0,0,0,27.7,22.37Z"/><path class="cls-7" d="M27.27,29.31c4.76.25,8.66,2.39,8.31,6.85-.53,6.5-10.16,6.74-12.67,6.74s-2.14-1.62-2.14-1.62l-.23-11.19.35-.1c-.43,0-1.11.1-1.21,1.47l.1,9.82s-.43,3.66,6.83,2.23c2.72-.53,5.85-1.11,7.94-3.07a5.2,5.2,0,0,0,1.27-1.84,7.28,7.28,0,0,0,.52-2.2C36.5,33.4,35,29.16,27.27,29.31Z"/><path class="cls-9" d="M20,47.38a16.66,16.66,0,0,1-5.34-.84h0a1.87,1.87,0,0,1-1.35-1.81h0a2.62,2.62,0,0,1,0-.28h0a2,2,0,0,1,1.63-1.81h0l-.56-13a2.27,2.27,0,0,1-1.15-2.22h0c0-.09,0-.19,0-.29h0a1.85,1.85,0,0,1,1.21-1.73h0c0-.66-.14-4.2-.26-7.81h0c-.13-4-.26-8.06-.29-8.33h0a.67.67,0,0,0-.33-.57h0A1.56,1.56,0,0,1,12,7.52h0a1.48,1.48,0,0,1,0-.21h0c0-1.08,1-1.61,1.86-1.86h0a8.16,8.16,0,0,1,2-.27h0a53.87,53.87,0,0,1,8.48-.75h0c10.42,0,13.9,4.46,14.47,10.63h0c0,.33,0,.65,0,1h0c0,5.57-4.69,8.19-6.53,9h0c4.34,0,6.76,1.76,8.07,3.81h0a10.84,10.84,0,0,1,1.52,5.72h0a9.28,9.28,0,0,1,0,1h0c-.1,5.16-3.45,8.16-7.58,9.84h0a34.51,34.51,0,0,1-12.41,2.08h0c-.7,0-1.33,0-1.87,0ZM13.88,5.72c-.89.25-1.66.72-1.66,1.59h0a.76.76,0,0,0,0,.16h0a.58.58,0,0,0,0,.13h0a1.23,1.23,0,0,0,.19.31h0a1.38,1.38,0,0,0,1.09.45h0a1,1,0,0,1,.57.84h0c0,.58.54,16.25.54,16.26h0v.11l-.12,0a.69.69,0,0,0-.15.06h0a1.54,1.54,0,0,0-.37.22h0a1.62,1.62,0,0,0-.58,1.22h0c0,.1,0,.19,0,.28h0a2,2,0,0,0,1.08,2h0l.07,0,.58,13.45-.14,0a.79.79,0,0,0-.21,0h0a2,2,0,0,0-.49.2h0a1.63,1.63,0,0,0-.81,1.34h0c0,.08,0,.17,0,.25h0c0,.66.25,1.13,1.18,1.55h0A17,17,0,0,0,20,47.1h0c.53,0,1.15,0,1.85,0h0a34.45,34.45,0,0,0,12.3-2.06h0c4.08-1.67,7.31-4.56,7.41-9.6h0s0-.35,0-.93h0c0-2.53-.78-9.24-9.43-9.24h-.65l0-.28a9.28,9.28,0,0,0,1.1-.47h0A12.82,12.82,0,0,0,35,23h0a8.81,8.81,0,0,0,3.53-7h0c0-.3,0-.61,0-.94h0C37.9,9,34.65,4.73,24.31,4.71h0a55,55,0,0,0-8.45.75h0a7.79,7.79,0,0,0-1.94.26ZM21,42.47a1.35,1.35,0,0,1-.39-1h0a1.06,1.06,0,0,1,0-.23h0L20.39,30l.11,0a21.17,21.17,0,0,1,5.77-.82h0a13,13,0,0,1,6.61,1.55h0a5.53,5.53,0,0,1,2.86,4.92h0c0,.19,0,.38,0,.57h0c-.27,3.33-2.88,5.06-5.69,5.93h0a25,25,0,0,1-7.12.94h0A2.63,2.63,0,0,1,21,42.47Zm-.08-1.17v0a.72.72,0,0,0,0,.18h0c0,.39.14,1.23,2,1.26h0a25.1,25.1,0,0,0,7-.93h0c2.76-.87,5.23-2.51,5.48-5.68h0a5.21,5.21,0,0,0,0-.55h0a5.25,5.25,0,0,0-2.73-4.68h0a12.68,12.68,0,0,0-6.46-1.5h0a21.46,21.46,0,0,0-5.59.77h0l.24,11.11Zm-1-20.49a2.9,2.9,0,0,1-.4-1.42h0v0h0l-.24-8.12h0c.06-.41.45-.67.93-.87h0a8,8,0,0,1,1.7-.42h0a22.23,22.23,0,0,1,2.4-.21h0C29.7,9.85,33,12,33,15.76h0a6.47,6.47,0,0,1-.06.87h0C32.39,21,26.19,21.77,22.87,22h0l-.4,0h0a2.81,2.81,0,0,1-2.56-1.23Zm-.11-1.44h0a2.38,2.38,0,0,0,2.7,2.36h.38c3.32-.23,9.37-1.13,9.83-5.15h0a5.87,5.87,0,0,0,0-.83h0c0-3.54-3.09-5.6-8.44-5.74h0s-.66,0-1.49.09h0a10.15,10.15,0,0,0-2.51.52h0c-.44.17-.72.4-.75.63h0l.24,8.1h0Z"/><path class="cls-4" d="M17.78,20.76c-.28,3.35,1.85,3.56,3.63,3.7s14.88-.57,14.38-8.82-11.1-8-15.16-7.83-3.35,2.78-3.35,2.78Z"/><path class="cls-8" d="M15.77,45.3l.51,0a3.89,3.89,0,0,0,0-.49,1.7,1.7,0,0,0,0-.22,5.72,5.72,0,0,1-.88-.23c0,.15,0,.3,0,.45a3.13,3.13,0,0,1,0,.44C15.61,45.28,15.75,45.3,15.77,45.3Z"/><path class="cls-8" d="M16,43.29a4.43,4.43,0,0,0-.9-1.23l0,.7a1.53,1.53,0,0,0-.44.11,3.27,3.27,0,0,1,.47.64,1.36,1.36,0,0,1,.4-.11A3.13,3.13,0,0,0,16,43.29Z"/><path class="cls-8" d="M15,46.53a8.19,8.19,0,0,0,.84.23,5.92,5.92,0,0,0,.23-.56,5.12,5.12,0,0,1-.8-.28A4.88,4.88,0,0,1,15,46.53Z"/><path class="cls-10" d="M15,45.64s-.16.1.26.28a3.33,3.33,0,0,0,.16-.64C15.05,45.28,14.83,45.36,15,45.64Z"/><path class="cls-10" d="M40.49,35.57A10.94,10.94,0,0,1,38.41,40c-2.82,3.67-7.53,5-11.93,5.44-1.24.13-2.5.19-3.76.22-2,0-4.37-.15-6.44-.31a4,4,0,0,1-.21.87,25.55,25.55,0,0,0,8.07.49C32,46.27,40.82,43.4,41,35.5,41,35.5,40.91,33.36,40.49,35.57Z"/><path class="cls-11" d="M15.77,45.3s-.16,0-.34,0a3.33,3.33,0,0,1-.16.64,5.12,5.12,0,0,0,.8.28,4,4,0,0,0,.21-.87Z"/><path class="cls-5" d="M15.77,45.3s-.16,0-.34,0a3.33,3.33,0,0,1-.16.64,5.12,5.12,0,0,0,.8.28,4,4,0,0,0,.21-.87Z"/><path class="cls-12" d="M20,44.89c5.76,0,5.05-.57,2-.71s-3.27-.86-3.27-4.06-.36-10-.36-10-.07-1.5,2.85-1.78,14.52-2,16.08,4.62-2.63,8.62-1.06,8,3.56-3.84,3.06-8.39-5.55-7-16.09-5.77c0,0-8.25-.35-1.06-1.28S37.18,22.9,37,15.28c-.21-9-9.18-11.38-21.56-9.46,0,0-2.5,0-2.57,1.21s2.78-1.5,2.64,4.05L16,24.89s.15,1.21-.56,1.21-1.71.41-1.29,1.85-.07-1.14,1.64-.85c0,0,.5,0,.5,1.14s.35,14.3.35,14.3.17.49-.69.75a3.4,3.4,0,0,1,.36,1.33A19.92,19.92,0,0,0,20,44.89Zm.64-37.08c4.06-.21,14.66-.43,15.16,7.83s-12.6,9-14.38,8.82-3.91-.35-3.63-3.7l-.5-10.17S16.57,8,20.63,7.81Z"/><path class="cls-13" d="M15.43,44.39a2.69,2.69,0,0,0-.32-.88C14.65,43.71,14.62,44.08,15.43,44.39Z"/><path class="cls-5" d="M16,43.29a3.13,3.13,0,0,1-.44.11,1.36,1.36,0,0,0-.4.11,2.69,2.69,0,0,1,.32.88,5.72,5.72,0,0,0,.88.23A3.4,3.4,0,0,0,16,43.29Z"/><path class="cls-14" d="M15.77,45.3s-.16,0-.34,0a3.33,3.33,0,0,1-.16.64,5.12,5.12,0,0,0,.8.28,4,4,0,0,0,.21-.87Z"/><path class="cls-14" d="M16,43.29a3.13,3.13,0,0,1-.44.11,1.36,1.36,0,0,0-.4.11,2.69,2.69,0,0,1,.32.88,5.72,5.72,0,0,0,.88.23A3.4,3.4,0,0,0,16,43.29Z"/><path class="cls-2" d="M68.26,45.78c-3,0-6,.21-8.94.5-2.09.2-5,.13-6.92,1.12-2.13,1.11.85,1.37-.51,1.62s3.75.68,5.37.09.85-.26,3.58-.34a58.32,58.32,0,0,0,12.33-1.71c.28-.08,1.38-.28,1.4-.69s-1.45-.49-1.8-.51C71.27,45.75,69.77,45.77,68.26,45.78Z"/><path class="cls-15" d="M56.31,46.89s-5,1.28.13,1.38,20.8-1.75,10.33-2S56.31,46.89,56.31,46.89Z"/><path class="cls-4" d="M59.34,44.12s4.6.16,5.31-3.9-1.64-6-3.15-6.37c0,0-4.64-1.73-6.44,2.24S55.54,44,59.34,44.12Z"/><path class="cls-16" d="M56.2,30.74a8.56,8.56,0,0,1,4.06-1.41,10.69,10.69,0,0,0-3.53.57c-2.11,1.28-2.47,1.34-.08-5.77a26.69,26.69,0,0,0,.9-3.29l-.06-.05a4.47,4.47,0,0,0-.6-.4c-.48,3.84-2.26,8.78-2.38,9.76C54.31,31.74,54.88,31.9,56.2,30.74Z"/><path class="cls-16" d="M67.91,33.86a10.52,10.52,0,0,0-1.27-1.75,9.21,9.21,0,0,1,1.76,7.07c-.73,5.57-4.67,8.17-9.13,7.66s-6.38-2.94-6.68-4.55-.44-.73-.6-.13-.65,2.33-.94,3.25-1.44.51-2.28.2-.31-2.25-.31-2.25h0c-.61,2.32-.75,2.68.38,2.93,2.33.51,2.47.44,3.28-2.16s-1.61,1.15,6.08,3.13S71.88,40.62,67.91,33.86Z"/><path class="cls-17" d="M48.77,45.61c.84.31,2,.71,2.28-.2s.77-2.65.94-3.25.3-1.48.6.13,2.21,4,6.68,4.55,8.4-2.09,9.13-7.66a9.21,9.21,0,0,0-1.76-7.07,8.39,8.39,0,0,0-6.38-2.78,8.56,8.56,0,0,0-4.06,1.41c-1.32,1.16-1.89,1-1.69-.59.12-1,1.9-5.92,2.38-9.76a4.25,4.25,0,0,0-2-.62A4.33,4.33,0,0,0,52,20.82c-.34,2-.78,4.07-.94,6.11a88.12,88.12,0,0,1-2.63,16.43h0S47.92,45.3,48.77,45.61Zm6.29-9.52c1.8-4,6.44-2.24,6.44-2.24,1.51.33,3.86,2.32,3.15,6.37s-5.31,3.9-5.31,3.9C55.54,44,53.26,40.06,55.06,36.09Z"/><path class="cls-17" d="M57,18.52a4.5,4.5,0,0,0-2.07-.62,4.76,4.76,0,0,0-2.54.69c-.06.24-.1.48-.14.71a5.19,5.19,0,0,1,2.68-.67,5.43,5.43,0,0,1,2.06.53C57,18.94,57,18.72,57,18.52Z"/><path class="cls-16" d="M57.79,19.05a5.74,5.74,0,0,0-.79-.53c0,.2,0,.42,0,.64a6,6,0,0,1,.76.42C57.77,19.4,57.78,19.22,57.79,19.05Z"/><path class="cls-17" d="M55.49,15.68,55,15.57a2.7,2.7,0,0,0-2,1.51,5.71,5.71,0,0,1,2-.32,5.34,5.34,0,0,1,1.87.42A1.79,1.79,0,0,0,55.49,15.68Z"/><path class="cls-16" d="M55.24,15.54l-.27,0,.52.11a1.79,1.79,0,0,1,1.35,1.5,6.66,6.66,0,0,1,.89.44A2.23,2.23,0,0,0,55.24,15.54Z"/><path class="cls-18" d="M59.33,44.19a5.16,5.16,0,0,1-5-5.54h0A6.87,6.87,0,0,1,55,36.06h0a4.41,4.41,0,0,1,4.47-2.66h0a7,7,0,0,1,2.05.38h0c1.39.31,3.44,2,3.33,5.27h0a10.78,10.78,0,0,1-.13,1.19h0c-.73,4.11-5.36,3.95-5.38,3.95h0Zm-4.2-8.07a6.57,6.57,0,0,0-.62,2.54h0a5,5,0,0,0,4.83,5.39h0s4.55.15,5.24-3.84h0A10.2,10.2,0,0,0,64.71,39h0c.11-3.23-1.9-4.83-3.23-5.13h0a7.27,7.27,0,0,0-2-.36h0a4.25,4.25,0,0,0-4.34,2.57Z"/><path class="cls-4" d="M62,32.83S57.33,31,54.56,34.92s0,10.29,4.63,10.13,6-2.81,6.38-4.37S66.61,34.56,62,32.83Z"/><path class="cls-19" d="M52.25,19.3v.08c-.07.48-.15,1-.23,1.44A5.2,5.2,0,0,1,53.47,20c.09-.46.19-.88.28-1.26A5.42,5.42,0,0,0,52.25,19.3Z"/><path class="cls-19" d="M57.49,20.79l.06.05c.09-.46.16-.88.2-1.26a6.07,6.07,0,0,0-1.35-.67c0,.36-.1.75-.17,1.16A5.26,5.26,0,0,1,57.49,20.79Z"/><path class="cls-19" d="M54.58,16.77a5.76,5.76,0,0,0-1.63.31,5.84,5.84,0,0,0-.56,1.51A5.25,5.25,0,0,1,54,18a4.28,4.28,0,0,1,.37-.91A2,2,0,0,1,54.58,16.77Z"/><path class="cls-19" d="M56.45,18.25a5.7,5.7,0,0,1,1.34.8,6.44,6.44,0,0,0-.06-1.43A6.46,6.46,0,0,0,56.34,17,3.87,3.87,0,0,1,56.45,18.25Z"/><path class="cls-20" d="M56.34,17c0-.08-.05-.15-.07-.22a1.26,1.26,0,0,0-1.69,0H55A5.27,5.27,0,0,1,56.34,17Z"/><path class="cls-20" d="M56.4,18.91c0-.23,0-.45.05-.66A4.12,4.12,0,0,0,54,18c-.07.23-.14.48-.21.76a4.85,4.85,0,0,1,1.18-.11A5.25,5.25,0,0,1,56.4,18.91Z"/><path class="cls-20" d="M65.55,33.32a8.27,8.27,0,0,0-9.45-1.66c-.93.4-2.48,2.05-2.37.42.21-3.18,1.9-8.44,2.5-12A3.71,3.71,0,0,0,53.47,20c-.57,2.78-1.12,6.85-1.5,9.66-.58,4.26-2.42,14.09-2.8,14.58s0,1.06.6,1.16.74-.69,1.13-1.74a38.08,38.08,0,0,0,.94-4.32c.08-.42.73-2.53.85,0a6.83,6.83,0,0,0,6.39,6.78s7.09.68,8.48-6.18A7.75,7.75,0,0,0,65.55,33.32Zm0,7.36c-.37,1.56-1.75,4.22-6.38,4.37s-7.41-6.17-4.63-10.13S62,32.83,62,32.83C66.61,34.56,66,39.13,65.57,40.68Z"/><path class="cls-19" d="M56.23,20.07c.07-.41.13-.8.17-1.16a5.25,5.25,0,0,0-1.47-.28,4.85,4.85,0,0,0-1.18.11c-.09.38-.19.8-.28,1.26a3.71,3.71,0,0,1,2.76.07Z"/><path class="cls-21" d="M56.23,20.07c.07-.41.13-.8.17-1.16a5.25,5.25,0,0,0-1.47-.28,4.85,4.85,0,0,0-1.18.11c-.09.38-.19.8-.28,1.26a3.71,3.71,0,0,1,2.76.07Z"/><path class="cls-19" d="M56.45,18.25A3.87,3.87,0,0,0,56.34,17,5.27,5.27,0,0,0,55,16.76h-.39a2,2,0,0,0-.25.3A4.28,4.28,0,0,0,54,18a4.12,4.12,0,0,1,2.49.27Z"/><path class="cls-21" d="M56.45,18.25A3.87,3.87,0,0,0,56.34,17,5.27,5.27,0,0,0,55,16.76h-.39a2,2,0,0,0-.25.3A4.28,4.28,0,0,0,54,18a4.12,4.12,0,0,1,2.49.27Z"/><path class="cls-18" d="M58.15,47.4c-4.19-1.06-5.44-2.71-5.82-3.57h0l-.1.34h0a7.49,7.49,0,0,1-.77,2h0a1.21,1.21,0,0,1-1.17.55h0a8.8,8.8,0,0,1-1.51-.25h0a1.5,1.5,0,0,1-.72-.31h0a.8.8,0,0,1-.23-.67h0c.06-1.5,2-5.48,3.09-18.54h0c.21-2.53.83-5.05,1.18-7.55h0c.23-1.66,1-3.88,3.14-4h.26a2.34,2.34,0,0,1,1.78.8h0a3.92,3.92,0,0,1,.66,2.7h0a19.29,19.29,0,0,1-1.16,5.29h0A31.05,31.05,0,0,0,55.14,30h0a.7.7,0,0,0,0,.36h0s.05.06.12.07h0a3.59,3.59,0,0,0,1.34-.64h0a10.77,10.77,0,0,1,3.89-.58h0A8.69,8.69,0,0,1,68,33.79h0a9.17,9.17,0,0,1,1.27,5h0a9.14,9.14,0,0,1-9.2,8.93h0a9,9,0,0,1-2-.28Zm-5.72-4.23a0,0,0,0,1,0,0h0v0h0v0h0s0,0,0,.08h0c0,.07,0,.16.08.28h0a3.24,3.24,0,0,0,.63,1h0c.71.79,2.15,1.79,5,2.53h0a8.48,8.48,0,0,0,1.9.28h0a8.31,8.31,0,0,0,6.23-2.51h0A9.28,9.28,0,0,0,69,38.74h0a8.82,8.82,0,0,0-1.23-4.81h0a8.4,8.4,0,0,0-7.23-4.46h0a11.25,11.25,0,0,0-2.7.26h0a8.91,8.91,0,0,0-1.07.3h0a3.6,3.6,0,0,1-1.49.68h0a.41.41,0,0,1-.36-.22h0a1,1,0,0,1-.08-.51h0a29.9,29.9,0,0,1,1.65-5.89h0a19.69,19.69,0,0,0,1.15-5.21h0c.06-2.49-.94-3.14-2.17-3.2h-.24c-1.88.05-2.64,2.08-2.87,3.72h0c-.35,2.52-1,5-1.17,7.54h0C50.12,40,48.16,44.1,48.12,45.46h0a.51.51,0,0,0,.13.45h0a1.28,1.28,0,0,0,.6.24h0a8.54,8.54,0,0,0,1.45.24h0a.92.92,0,0,0,.93-.42h0A8,8,0,0,0,52,44.08h0a4.39,4.39,0,0,0,.19-.8h0a.58.58,0,0,1,0-.1h0s0-.07.14-.09h0a.17.17,0,0,1,.12.08Z"/></g></g></svg>