<svg xmlns="http://www.w3.org/2000/svg" viewBox="0 0 85.04 56.69"><defs><style>.cls-1{isolation:isolate;}.cls-2{opacity:0.43;}.cls-3{opacity:0.38;}.cls-4{opacity:0.73;}.cls-13,.cls-5{fill:#b5ce2f;}.cls-6{fill:#00a774;}.cls-10,.cls-7{fill:#b0c12e;mix-blend-mode:multiply;}.cls-7{opacity:0.46;}.cls-8{fill:#649d35;}.cls-9{fill:#fff329;opacity:0.39;}.cls-10{opacity:0.51;}.cls-11{fill:#81a831;}.cls-12{fill:#93af2a;}.cls-13,.cls-17{opacity:0.5;}.cls-14{fill:#cdcc1e;}.cls-15{fill:#e0dc0d;}.cls-16{fill:#f1e778;}.cls-17{fill:#d0da5a;}</style></defs><g class="cls-1"><g id="Layer_1" data-name="Layer 1"><path class="cls-2" d="M22,46.59s-9.47-.1-9.47,1S10,49.39,48,49.2c0,0,1.94,0,2.52-.58,0,0-1.65-.48,2.12-.48s12.76-.49,11.89.09,2.61.2,7.15,0,3.57-2-6.57-2.12-14.5-.2-13.24.67-3.48.49-3.48.49-1-.38-1-.68C47.54,45.62,22.8,43.79,22,46.59Z"/><g class="cls-3"><path class="cls-4" d="M23.19,46.78s-6.28,0-7,.58,10.15,1.36,17.2,1,19-1.45,1.69-2.37S23.19,46.78,23.19,46.78Z"/><path class="cls-4" d="M58.27,46.4s-6,.58-2.32,1.06,20.68-.1,9-1Z"/></g><path class="cls-5" d="M18.27,15.31a4.22,4.22,0,0,0,1.52,2,6.43,6.43,0,0,0,3.61,1c.35-.31.71-.62,1.08-.92a13,13,0,0,1,10.36-3,13.15,13.15,0,0,1,7.95,5.48,3.3,3.3,0,1,0,5.65-3.42,18.47,18.47,0,0,0-5.18-5.39A18.64,18.64,0,0,0,36,7.91a19.62,19.62,0,0,0-15.7,4.34c-.8.65-1.57,1.34-2.3,2.06a1.76,1.76,0,0,0,0,.19A5.69,5.69,0,0,0,18.27,15.31Z"/><path class="cls-6" d="M17.91,20a8.37,8.37,0,0,0,2.78,1.25,21.51,21.51,0,0,1,2.71-3,6.43,6.43,0,0,1-3.61-1,4.22,4.22,0,0,1-1.52-2,5.69,5.69,0,0,1-.22-.81,1.76,1.76,0,0,1,0-.19,27.82,27.82,0,0,0-2.54,2.88A7.46,7.46,0,0,0,17.89,20Z"/><path class="cls-5" d="M36.64,42.88a3.31,3.31,0,0,0-4.13-2.19,13.4,13.4,0,0,1-1.84.31,19.09,19.09,0,0,1-2.07,0,10.51,10.51,0,0,1-6.05-2.24,12.72,12.72,0,0,1-2.64-2.45,9.86,9.86,0,0,1-1.93-5,11.52,11.52,0,0,1,.2-5.31,16.43,16.43,0,0,1,2.18-4.25l.33-.45A8.37,8.37,0,0,1,17.91,20h0a7.46,7.46,0,0,1-2.4-2.83l-.54.73a23.59,23.59,0,0,0-3,5.94,19.91,19.91,0,0,0-.87,8.6,16.54,16.54,0,0,0,3.33,8.31,19.81,19.81,0,0,0,4,3.74,16.85,16.85,0,0,0,10.15,3.28c.83,0,1.86-.1,2.89-.22a18.72,18.72,0,0,0,3-.56A3.31,3.31,0,0,0,36.64,42.88Z"/><path class="cls-7" d="M47.93,18.54a2.5,2.5,0,0,1-2.33,2c-2.33.08-2.31-1.93-4.15-3.29s-7.81-7.46-17.55.1-7.62,19-1.25,22.11c0,0,1.81,1,2.59,1.23s.27.45-1.17-.1-8.6-3.13-7.84-11.89S27.75,9.38,37.91,14a19.28,19.28,0,0,1,6.15,4.39C46.82,21.41,47.93,18.54,47.93,18.54Z"/><path class="cls-8" d="M14.25,40.87l.13-.1.13-.11a19.25,19.25,0,0,0,4,3.71h0a16.69,16.69,0,0,0,10.05,3.26h0c.82,0,1.85-.11,2.87-.23h0a17,17,0,0,0,3-.55h0A3.07,3.07,0,0,0,36,45.66h0a3.16,3.16,0,0,0,.44-2.73h0a3.1,3.1,0,0,0-1.19-1.65h0a3.14,3.14,0,0,0-2.72-.44h0a11.52,11.52,0,0,1-1.88.33h0a17.4,17.4,0,0,1-2,0h0c-1.86.09-4.23-1-6.19-2.32h0a.1.1,0,0,0-.05,0h0a12.88,12.88,0,0,1-2.65-2.47h0a10,10,0,0,1-2-5.06h0A11.76,11.76,0,0,1,18,25.92h0a17,17,0,0,1,2.19-4.28h0a21.33,21.33,0,0,1,4.15-4.36h0a13.19,13.19,0,0,1,10.49-3h0a12.3,12.3,0,0,1,4.64,2.07h0l0,0h0l0,0h0a12.15,12.15,0,0,1,3.34,3.44h0a3,3,0,0,0,.88.94h0a3.15,3.15,0,0,0,3.43.12h0a3,3,0,0,0,.94-.88h0a3.14,3.14,0,0,0,.12-3.43h0a18.31,18.31,0,0,0-5.14-5.35h0A18.64,18.64,0,0,0,36,8.07h0a19.49,19.49,0,0,0-15.57,4.31h0A28.05,28.05,0,0,0,15.09,18h0a23.28,23.28,0,0,0-3,5.9h0a19.58,19.58,0,0,0-.86,8.53h0a16.24,16.24,0,0,0,3.29,8.21h0l-.13.11-.13.1a16.71,16.71,0,0,1-3.36-8.38h0a20,20,0,0,1,.88-8.68h0a23.1,23.1,0,0,1,3.05-6h0a28.13,28.13,0,0,1,5.4-5.7h0A19.77,19.77,0,0,1,36.06,7.75h0a18.72,18.72,0,0,1,7.29,3.19h0a18.6,18.6,0,0,1,5.23,5.45h0a3.45,3.45,0,0,1-.13,3.79h0a3.58,3.58,0,0,1-1,1h0A3.45,3.45,0,0,1,43.62,21h0a3.48,3.48,0,0,1-1-1h0a11.72,11.72,0,0,0-3.25-3.34h0l0,0h0l0,0h0a12.24,12.24,0,0,0-4.51-2h0a12.9,12.9,0,0,0-10.23,2.95h0a21.46,21.46,0,0,0-4.08,4.3h0A16.74,16.74,0,0,0,18.34,26h0a11.34,11.34,0,0,0-.2,5.24h0A9.73,9.73,0,0,0,20,36.16h0a12.8,12.8,0,0,0,2.59,2.41h0l0,0h0C24.6,40,26.88,41,28.63,40.87h0a19.69,19.69,0,0,0,2,0h0a13.7,13.7,0,0,0,1.81-.31h0a3.48,3.48,0,0,1,3,.48h0a3.49,3.49,0,0,1,1.31,1.82h0a3.45,3.45,0,0,1-.48,3h0a3.41,3.41,0,0,1-1.82,1.31h0a18.24,18.24,0,0,1-3.05.57h0c-1,.12-2.07.19-2.9.23h0a17,17,0,0,1-10.25-3.32h0a19.36,19.36,0,0,1-4-3.77Z"/><path class="cls-9" d="M46.71,15.86s-9.83-13.69-25.84-2.6c0,0-10.87,8.27-8.81,19.69,0,0,1.34,7.27,6.82,10.59,0,0,2.57,1.14.14-.58-3.61-2.54-6.18-8.58-5.92-12.88a19.94,19.94,0,0,1,2.56-7.8,31.06,31.06,0,0,1,3.84-4.93,20.86,20.86,0,0,1,11.27-6.9,15.75,15.75,0,0,1,7.85.55,16.37,16.37,0,0,1,7.49,5.28S47.36,17.09,46.71,15.86Z"/><path class="cls-10" d="M35.92,42.74s1.1,1.53-.8,3.22c-1.46,1.3-7.39,1.82-11.47.16a9.23,9.23,0,0,0,2.16.38c.75.09,1.5.17,2.25.21a19.1,19.1,0,0,0,4.33-.3c1.68-.32,4.08-1.72,3-3.93C34.89,41.6,35.67,42.39,35.92,42.74Z"/><path class="cls-9" d="M34.5,41.89c0-.37-.82-.56-1.71-.43s-1.58.52-1.53.88.82.56,1.71.43S34.55,42.25,34.5,41.89Z"/><path class="cls-11" d="M59.21,40.85a3.61,3.61,0,0,0,2.8.94,3.92,3.92,0,0,0,2.53-.91,3.45,3.45,0,0,1-4.06-1.1A5.74,5.74,0,0,1,59.21,40.85Z"/><path class="cls-11" d="M70.89,25.54a3.31,3.31,0,0,1-.39,2.72c-1.07,1.42-2,.91-3.2,0s-5-3-8.68,1.92A8.45,8.45,0,0,0,58,39.29a3.29,3.29,0,0,0,1.44-1.4,5.25,5.25,0,0,1-.26-2.34A9.78,9.78,0,0,1,61,30.71c1.1-1.25,2.87-2.31,4.54-1.59,1,.42,2.19,2.08,3.4,1.67C70.37,30.3,72.14,27.23,70.89,25.54Z"/><path class="cls-12" d="M59.21,40.85a8,8,0,0,1-1.63.8,5.6,5.6,0,0,1-.92.27,7.56,7.56,0,0,0,3.57,2.88c2.29.75,5.14-.45,3.16.38a7.31,7.31,0,0,1-4.5,0A7.55,7.55,0,0,1,54.38,42a6.55,6.55,0,0,1-1.14-.28,9.38,9.38,0,0,0,6,4.16,7.37,7.37,0,0,0,7.64-2.28,2.48,2.48,0,0,0,.69-2.55l0-.06a3,3,0,0,0-.48-.44c-.78-.57-1.46-.23-2.22.16l-.33.16a3.92,3.92,0,0,1-2.53.91A3.61,3.61,0,0,1,59.21,40.85Z"/><path class="cls-12" d="M53.23,39.58a13.35,13.35,0,0,1,.87-9.49,10.13,10.13,0,0,1,10.15-6.25,2.54,2.54,0,0,0,.37,1.62c.31.61-.47.45-.47.45-3.58-.31-7.47,2.22-8.8,8.39a10,10,0,0,0,.33,5.78,4.81,4.81,0,0,0,1.2-.28A8.53,8.53,0,0,0,58,39.29a8.45,8.45,0,0,1,.66-9.08c3.69-4.88,7.45-2.81,8.68-1.92s2.13,1.39,3.2,0a3.31,3.31,0,0,0,.39-2.72,2.37,2.37,0,0,0-.56-.53s-11.87-7-17.42,5.86a15.76,15.76,0,0,0-1.14,3.92,13.39,13.39,0,0,0,.26,4,3.37,3.37,0,0,0,.34.27A4.7,4.7,0,0,0,53.23,39.58Z"/><path class="cls-12" d="M55.68,40.08a10,10,0,0,1-.33-5.78c1.33-6.17,5.22-8.7,8.8-8.39,0,0,.78.16.47-.45a2.54,2.54,0,0,1-.37-1.62A10.13,10.13,0,0,0,54.1,30.09a13.35,13.35,0,0,0-.87,9.49,4.3,4.3,0,0,0,1.48.48A4.46,4.46,0,0,0,55.68,40.08Z"/><path class="cls-12" d="M54.44,42h-.06a7.55,7.55,0,0,0,4.51,3.22,7.31,7.31,0,0,0,4.5,0c2-.83-.87.37-3.16-.38a7.56,7.56,0,0,1-3.57-2.88,6.22,6.22,0,0,1-2.21.11Z"/><path class="cls-13" d="M54.44,42h-.06a7.55,7.55,0,0,0,4.51,3.22,7.31,7.31,0,0,0,4.5,0c2-.83-.87.37-3.16-.38a7.56,7.56,0,0,1-3.57-2.88,6.22,6.22,0,0,1-2.21.11Z"/><path class="cls-14" d="M58,39.29a5.76,5.76,0,0,0,1.25,1.56,5.74,5.74,0,0,0,1.27-1.07,5.71,5.71,0,0,1-1.08-1.89A3.29,3.29,0,0,1,58,39.29Z"/><path class="cls-15" d="M53.23,39.58a4.7,4.7,0,0,1-.86-.54,3.37,3.37,0,0,1-.34-.27,9.69,9.69,0,0,0,1.21,3,6.55,6.55,0,0,0,1.14.28A9.55,9.55,0,0,1,53.23,39.58Z"/><path class="cls-15" d="M55.68,40.08a8.92,8.92,0,0,0,1,1.84,5.6,5.6,0,0,0,.92-.27,8,8,0,0,0,1.63-.8A5.76,5.76,0,0,1,58,39.29a8.53,8.53,0,0,1-1.08.51A4.81,4.81,0,0,1,55.68,40.08Z"/><path class="cls-16" d="M54.71,40.06a4.3,4.3,0,0,1-1.48-.48A9.55,9.55,0,0,0,54.38,42h.07a6.22,6.22,0,0,0,2.21-.11,8.92,8.92,0,0,1-1-1.84A4.46,4.46,0,0,1,54.71,40.06Z"/><path class="cls-11" d="M66.84,43.61a7.37,7.37,0,0,1-7.64,2.28c-4.38-1-7.94-4.74-7.43-11.1-1.53,10.54,10.3,16.51,16,9.11a2.44,2.44,0,0,0-.21-2.9l0,.06A2.48,2.48,0,0,1,66.84,43.61Z"/><path class="cls-5" d="M60.41,47.31c-4.94-.55-9.59-5.35-8.86-12.06h0a15.24,15.24,0,0,1,1.21-4.44h0c3-7,8-8.22,11.85-7.79h0a16.16,16.16,0,0,1,5.8,1.85h0l-.08.14.09-.13a2.42,2.42,0,0,1,1,2.42h0A4.72,4.72,0,0,1,69,30.94h0a1.42,1.42,0,0,1-.61.07h0c-1.13-.14-2.15-1.43-2.91-1.74h0a2.76,2.76,0,0,0-.77-.21h0a4.49,4.49,0,0,0-3.57,1.76h0a9.5,9.5,0,0,0-1.81,4.75h0a.34.34,0,0,0,0,.1h0a5.37,5.37,0,0,0,.87,3.43h0A3.87,3.87,0,0,0,62.9,41h0a3.33,3.33,0,0,0,1.9-.4h0a2.89,2.89,0,0,1,1.59-.47h0a1.69,1.69,0,0,1,.8.32h0a2.5,2.5,0,0,1,1.14,2.36h0A3,3,0,0,1,67.91,44h0a8.15,8.15,0,0,1-7.49,3.31h0ZM53.06,30.94a15.27,15.27,0,0,0-1.18,4.34h0c-.71,6.55,3.81,11.18,8.57,11.7h0a7.81,7.81,0,0,0,7.19-3.17h0A2.93,2.93,0,0,0,68,42.75h0a2.16,2.16,0,0,0-1-2.06h0a1.29,1.29,0,0,0-.63-.26h0a2.59,2.59,0,0,0-1.41.44h0a3.6,3.6,0,0,1-2.09.42h0C60.4,41,58.71,38.11,59,35.63h0s0-.07,0-.1h0a9.84,9.84,0,0,1,1.89-4.93h0a4.78,4.78,0,0,1,3.85-1.86h0a2.74,2.74,0,0,1,.87.23h0c.88.39,1.9,1.63,2.82,1.71h0a1,1,0,0,0,.46-.05h0a4.45,4.45,0,0,0,2.26-3.37h0a2.07,2.07,0,0,0-.88-2.1h0a14.61,14.61,0,0,0-1.65-.78h0a16,16,0,0,0-4-1h0c-3.77-.4-8.52.69-11.51,7.59Z"/><path class="cls-17" d="M68.13,24.62a12.8,12.8,0,0,0-4-.79,10.13,10.13,0,0,0-10,6.26,13.35,13.35,0,0,0-.87,9.49,4.3,4.3,0,0,0,1.48.48,4.46,4.46,0,0,0,1,0,10,10,0,0,1-.33-5.78c1.29-6,5-8.54,8.48-8.4,1-.1,3.06.71,4.53,1.28.91.36,1.77.35,1.93-.79S68.77,24.93,68.13,24.62Z"/></g></g></svg>