<?xml version="1.0" encoding="utf-8"?>
<!-- Generator: Adobe Illustrator 26.0.3, SVG Export Plug-In . SVG Version: 6.00 Build 0)  -->
<svg version="1.1" id="Layer_1" xmlns="http://www.w3.org/2000/svg" xmlns:xlink="http://www.w3.org/1999/xlink" x="0px" y="0px"
	 viewBox="0 0 1133.86 1133.86" style="enable-background:new 0 0 1133.86 1133.86;" xml:space="preserve">
<style type="text/css">
	.st0{fill:url(#SVGID_1_);}
	.st1{fill:url(#SVGID_00000130645530903976580550000002805682068339926940_);}
	.st2{fill:url(#SVGID_00000060005747694739988140000007847699512682326941_);}
	.st3{fill:url(#SVGID_00000010996370574250993860000004392235416131418044_);}
	.st4{fill:url(#SVGID_00000175296199575560674270000011219352163090231207_);}
	.st5{fill:url(#SVGID_00000085961123834487352100000003713870172886553007_);}
	.st6{opacity:0.2;}
	.st7{fill:url(#SVGID_00000039119265600390004010000015765492550773215618_);}
	.st8{fill:url(#SVGID_00000140010385097779720420000018008371934780654489_);}
	.st9{fill:url(#SVGID_00000134927946415595338620000011170770386514542500_);}
	.st10{fill:url(#SVGID_00000016043899993735386180000011075314841370732166_);}
	.st11{fill:url(#SVGID_00000135688008333573151160000007826743439275743411_);}
	.st12{fill:url(#SVGID_00000145743980503166284880000011544281731043348096_);}
	.st13{fill:url(#SVGID_00000024723055678322210800000000708892407922496937_);}
	.st14{fill:url(#SVGID_00000069358207084388136800000014951401005614318509_);}
	.st15{fill:url(#SVGID_00000018196308959627115580000002528802541948318095_);}
	.st16{fill:url(#SVGID_00000181072706149983690600000017911627714762877867_);}
	.st17{fill:#B4349D;}
	.st18{fill:#E51A4F;}
	.st19{fill:#D3114D;}
	.st20{fill:#FF3E6A;}
	.st21{fill:#FF80A1;}
	.st22{fill:#DD76CF;}
	.st23{fill:#E2ACE1;}
	.st24{fill:#FCDEFA;}
	.st25{fill:#FFF5FE;}
	.st26{fill:#FFFAFE;}
	.st27{fill:#2C8CFF;}
	.st28{fill:#92C8FC;}
	.st29{fill:#FF7935;}
	.st30{opacity:0.5;fill:#FFA98D;}
	.st31{fill:#FFA98D;}
	.st32{fill:#FF4D36;}
	.st33{fill:#FF357A;}
	.st34{opacity:0.5;fill:#FF8DCD;}
	.st35{fill:#FF8DCD;}
	.st36{fill:url(#SVGID_00000069373130697975500890000016798412456412492723_);}
	.st37{fill:#BEF3E6;}
	.st38{fill:#355EFF;}
	.st39{opacity:0.5;fill:#8DBAFF;}
	.st40{fill:#8DBAFF;}
	.st41{fill:#234FDB;}
	.st42{fill:#1290DD;}
	.st43{fill:#0A87C6;}
	.st44{fill:#30C0FD;}
	.st45{fill:#5FD6FF;}
	.st46{fill:#DD4B12;}
	.st47{fill:#C63C0A;}
	.st48{fill:#FD6330;}
	.st49{fill:#FF845F;}
	.st50{fill:#DD1292;}
	.st51{fill:#C60A87;}
	.st52{fill:#FD30C1;}
	.st53{fill:#FF5FD7;}
	.st54{fill:#12DD7D;}
	.st55{fill:#0AC666;}
	.st56{fill:#30FD8B;}
	.st57{fill:#5FFF9F;}
	.st58{fill:#1297DD;}
	.st59{fill:#0A8CC6;}
	.st60{fill:#30C8FD;}
	.st61{fill:#5FDCFF;}
	.st62{fill:#C054DD;}
	.st63{fill:#A645C6;}
	.st64{fill:#D77BFD;}
	.st65{fill:#E3ABFF;}
	.st66{fill:#DDB41F;}
	.st67{fill:#C69E15;}
	.st68{fill:#FDD03F;}
	.st69{fill:#FFDB6E;}
	.st70{fill:#FFC635;}
	.st71{opacity:0.5;fill:#FFD78D;}
	.st72{fill:#FFD78D;}
	.st73{fill:#FFA536;}
</style>
<g>
	
		<radialGradient id="SVGID_1_" cx="545.7102" cy="1401.1383" r="236.7301" gradientTransform="matrix(1.7738 0 0 0.4812 -413.705 303.2005)" gradientUnits="userSpaceOnUse">
		<stop  offset="0.3556" style="stop-color:#000000"/>
		<stop  offset="0.4257" style="stop-color:#050505"/>
		<stop  offset="0.5055" style="stop-color:#121212"/>
		<stop  offset="0.59" style="stop-color:#292929"/>
		<stop  offset="0.678" style="stop-color:#494949"/>
		<stop  offset="0.7685" style="stop-color:#727272"/>
		<stop  offset="0.8612" style="stop-color:#A5A5A5"/>
		<stop  offset="0.954" style="stop-color:#DFDFDF"/>
		<stop  offset="1" style="stop-color:#FFFFFF"/>
	</radialGradient>
	<ellipse class="st0" cx="554.28" cy="977.43" rx="419.92" ry="113.91"/>
	<g>
		<g>
			
				<radialGradient id="SVGID_00000023999626358109323480000015844681807659535283_" cx="216.8965" cy="795.2313" r="877.1724" gradientUnits="userSpaceOnUse">
				<stop  offset="0" style="stop-color:#D4B18E"/>
				<stop  offset="0.996" style="stop-color:#D7A763"/>
			</radialGradient>
			<path style="fill:url(#SVGID_00000023999626358109323480000015844681807659535283_);" d="M926.73,972.36
				c-7.91,43.36-181.18,92.49-375.33,92.49S197.87,1015.72,190,972.36c-2.04-11.25-80.03-339.22-76.99-396.81
				c14.04-74.19,258.19-35.73,437.04-35.73c185.58,0,437.82-57.58,453.55,39.39C1010.14,619.54,928.56,962.36,926.73,972.36z"/>
			
				<linearGradient id="SVGID_00000031916822695806277930000001089313415194428808_" gradientUnits="userSpaceOnUse" x1="351.464" y1="795.8741" x2="799.345" y2="839.0908">
				<stop  offset="0" style="stop-color:#8E5D3F"/>
				<stop  offset="1" style="stop-color:#552F1C"/>
			</linearGradient>
			<path style="fill:url(#SVGID_00000031916822695806277930000001089313415194428808_);" d="M550.54,893.12
				c21.88-0.96,43.78-2.06,65.84-1.98c25.67,0.09,51.82,0.56,77.47-4.71c18.09-3.72,36.68-11.18,54.95-13.4
				c12.79-1.55,26.11,0.05,38.87-3.05c8.01-1.95,14.57-5.37,22.81-6.31c23.71-2.69,46.96-8.88,70.7-14.64
				c22.93-5.56,53.39-14.93,73.82-32c7.26-6.06,8.92-9.69,11.64-18.51c0.8-2.61,5.3-30.71,5.67-30.86
				c-74.75,30.98-221.11,56.73-421.97,56.73c-199.29,0-362.63-12.5-408.17-61.89c3.48,3.77,7.06,32.03,9.95,37.81
				c4.5,8.98,14.59,14.03,22.66,19.43c24.3,16.23,50.38,26.03,76.44,32.32c18.68,4.51,36.23,12.38,54.36,18.69
				c19.18,6.68,37.61,7.41,56.92,8.98c18.73,1.53,36.71,6.72,55.16,10.05c19.11,3.45,38.35,3.2,57.48,4.12
				C500.48,895.14,525.5,894.22,550.54,893.12z"/>
			
				<linearGradient id="SVGID_00000054225791135782758060000004814501352559801476_" gradientUnits="userSpaceOnUse" x1="137.4041" y1="770.9574" x2="1082.8412" y2="770.9574">
				<stop  offset="0" style="stop-color:#FFF5FE"/>
				<stop  offset="1" style="stop-color:#FDCCFC"/>
			</linearGradient>
			<path style="fill:url(#SVGID_00000054225791135782758060000004814501352559801476_);" d="M550.35,857.11
				c40.19,0.29,80.26,4.99,120.51,1.76c35.02-2.81,70.84-12.05,105.82-21.55c18.54-5.03,37.53-3.23,56.05-7.87
				c25.91-6.49,52.21-12.33,78.1-22.32c13.09-5.05,56.02-22.25,61.48-39.48c10.1-31.87,12.87-53.4,16.36-80.74
				c-15.39,16.78-31.1,20.89-48.12,30.8c-18.21,10.6-32.19,25.19-51.83,31.48c-46.12,14.77-95.95,23.7-141.59,29.25
				c-28.81,3.5-57.2,6.75-85.53,9.39c-19.26,1.79-37.33,7.13-56.48,9.39c-10.26,1.21-20.31-2.04-30.49-2.44
				c-33.1-1.3-65.98-0.55-99.15-2.36c-27.68-1.51-54.61-9.37-82.41-12.09c-22.53-2.2-44.49-14.37-66.59-14.89
				c-15.09-0.36-30.58,1.85-45.86-2.34c-16.34-4.48-30.51-14.8-46.1-23.14c-16.48-8.81-33.24-11.37-50.15-15.81
				c-7.13-1.87-56.33-31.72-56.74-42.25c0.94,24.26,3.99,71.76,22.01,91.72c16.82,18.63,42.62,24.58,62.56,32.97
				c25.3,10.64,49.4,19.34,74.82,26.76c31.61,9.23,60.29,10.65,91.78,12.7c38.82,2.53,76.79,10.66,115.5,10.7
				C513.09,856.77,531.76,856.98,550.35,857.11z"/>
			
				<linearGradient id="SVGID_00000019636239935062719990000018205995981355126453_" gradientUnits="userSpaceOnUse" x1="372.4258" y1="935.1586" x2="759.4101" y2="974.4464">
				<stop  offset="0" style="stop-color:#8E5D3F"/>
				<stop  offset="1" style="stop-color:#552F1C"/>
			</linearGradient>
			<path style="fill:url(#SVGID_00000019636239935062719990000018205995981355126453_);" d="M551.59,1024.81
				c20.39-0.84,40.8-1.8,61.36-1.73c23.93,0.08,48.3,0.49,72.18-4.12c16.84-3.25,34.13-9.78,51.13-11.72
				c11.91-1.36,24.32,0.05,36.18-2.66c7.44-1.7,13.54-4.69,21.2-5.51c22.06-2.35,43.65-7.75,65.7-12.78
				c21.28-4.85,49.53-13.03,68.34-27.9c0.58-0.46,9.74-24.57,7.83-18.51c-0.71,2.27,6.16-28.25,6.5-28.39
				c-69.21,27.02-203.78,53.31-390.59,53.31c-185.34,0-332.54-3.19-374-45.8c3.16,3.25,1.33,19.81,3.95,24.83
				c4.07,7.82,13.39,12.21,20.83,16.91c22.42,14.15,46.58,22.69,70.78,28.18c17.35,3.94,33.62,10.81,50.46,16.33
				c17.82,5.84,34.98,6.48,52.96,7.85c17.44,1.33,34.16,5.87,51.35,8.79c17.8,3.02,35.73,2.8,53.55,3.61
				C504.93,1026.57,528.25,1025.77,551.59,1024.81z"/>
			
				<linearGradient id="SVGID_00000031900801485455730930000000202460121568517279_" gradientUnits="userSpaceOnUse" x1="162.1433" y1="920.2005" x2="955.6572" y2="920.2005">
				<stop  offset="0" style="stop-color:#FFF5FE"/>
				<stop  offset="1" style="stop-color:#FDCCFC"/>
			</linearGradient>
			<path style="fill:url(#SVGID_00000031900801485455730930000000202460121568517279_);" d="M551.43,993.34
				c37.41,0.25,74.73,4.35,112.2,1.54c32.59-2.45,65.89-10.52,98.39-18.8c17.22-4.39,34.89-2.82,52.09-6.86
				c24.05-5.65,48.44-10.74,72.42-19.43c12.11-4.39,50.64-23.26,55.51-38.29c8.99-27.74,10.75-43.29,13.63-66.95
				c-14.05,14.51-26.83,19.06-42.49,27.63c-16.77,9.18-29.58,21.82-47.74,27.27c-42.68,12.82-88.86,20.56-131.22,25.39
				c-26.74,3.04-53.1,5.87-79.41,8.16c-17.89,1.56-34.67,6.2-52.45,8.17c-9.54,1.05-18.88-1.77-28.33-2.12
				c-30.75-1.13-61.3-0.48-92.11-2.05c-25.71-1.32-50.7-8.15-76.5-10.51c-20.91-1.91-41.23-12.48-61.74-12.93
				c-14-0.31-28.4,1.6-42.55-2.03c-15.13-3.89-28.19-12.84-42.57-20.07c-15.19-7.64-30.71-9.85-46.34-13.69
				c-6.59-1.62-49.83-21.48-50.07-30.53c0.54,20.85,0.79,56.1,17.26,73.42c15.4,16.19,39.31,21.37,57.74,28.66
				c23.41,9.26,45.74,16.84,69.33,23.31c29.34,8.05,56.02,9.29,85.31,11.08c36.12,2.21,71.43,9.3,107.47,9.33
				C516.75,993.04,534.12,993.22,551.43,993.34z"/>
		</g>
	</g>
	<g>
		<g>
			<g>
				<g>
					<g>
						<g class="st6">
							
								<linearGradient id="SVGID_00000042004578294924445460000009895193720457710521_" gradientUnits="userSpaceOnUse" x1="134.2867" y1="553.6782" x2="947.8613" y2="837.0585">
								<stop  offset="0" style="stop-color:#3D150B"/>
								<stop  offset="1" style="stop-color:#340D07"/>
							</linearGradient>
							<path style="fill:url(#SVGID_00000042004578294924445460000009895193720457710521_);" d="M964.78,766.91
								c2.86,0.5,8.95-3.01,9.83-6.69c5.79-24.25,11.83-80.84,16.09-100.4c2.86-13.14,5.91-26.39,8.42-39.8
								c1.14-6.1,9.21-35.67,5.57-39.63c-3.09-3.35-8.18-3.81-11.65-6.93c-11.99-10.79-36.84-12.89-53.4-17.99
								c-69.09-21.27-141.06-26.59-216.2-33.64c-13.77-1.29-27.54-2.34-41.31-3.19c-43.77,2.63-87.6,4.87-128.57,4.87
								c-42.7,0-88.83-1.76-134.66-3.61c-43.41,2.79-86.56,6.79-129.46,11.83c-31.91,3.75-61.43,10.74-90.77,19.94
								c-17.55,5.5-62.51,13.28-71.71,26.49c-3.27,4.7-5,10.19-5.82,16.14c3.5,28.36,27.84,189.52,34.1,214.23
								c2.63,10.38,3.06,23.04,7.51,32.82c4.81,10.56,13.56,8.24,16.32-0.37c3.36-10.49,0.58-29.19-1.3-40.85
								c-0.94-5.87-26.74-168.2-17.41-169.93c6.68-1.23,15.4,24.28,22.82,28.15c12.03,6.28,17.79,4.84,29.72,12.24
								c22.62,14.02,27.12,169.05,76.74,147.48c13.38-5.82,16.96-25.33,19.64-39.2c2.05-10.58,1.36-101.62,15.67-97.23
								c8.5,2.61,8.43,10.84,15.5,15.53c24.13,16.02,46.66-6.84,58.92-25.31c5.09-7.66,8.88-17.99,19.17-18.06
								c20.59-0.15,30.05,22.2,39.13,37.97c11.08,19.22,15.25,76.47,16.42,97.11c1.15,20.31,3.52,45.36,20.45,58.6
								c14.71,11.51,43.81,15.35,56.42-0.74c15.91-20.31,7.39-56.02,7.57-80.91c0.07-10.08-2.12-22.38,9.07-27.42
								c9.79-4.42,18.94,3.04,23.2,11.97c3.24,6.79,3.64,15.39,11.84,17.52c27.16,7.07,29.85-84.23,63.46-58.44
								c11.66,8.95,17.39,13.84,31.76,4.56c11.84-7.64,24.27-58.3,38.7-61.13c40.16-7.88,15.95,141.61,49.74,143.71
								c15.78,0.98,31.35-25.75,42-8.27c8.1,13.29,13.37,29.81,23.02,42.17c9.28,11.89,22.66,16.29,36.28,11.56
								c26.46-9.2,30.28-45.21,28.25-66.6c-1.08-11.41,1.43-37.1,4.13-49.2c4.73-21.26,13.93-67.31,23.04-62.28
								c13.21,7.29,20-6.8,26.49-17.77c8.09-13.64,12.03-2.62,9.03,8.78c-3.81,14.48-16.07,70.08-19.01,84.69
								C958.02,747.03,954.12,765.04,964.78,766.91z"/>
						</g>
						
							<linearGradient id="SVGID_00000007414837503753519670000005527444024281007508_" gradientUnits="userSpaceOnUse" x1="551.8206" y1="619.9473" x2="633.7581" y2="619.9473">
							<stop  offset="0.1044" style="stop-color:#DD76CF"/>
							<stop  offset="0.996" style="stop-color:#CA51BA"/>
						</linearGradient>
						<path style="fill:url(#SVGID_00000007414837503753519670000005527444024281007508_);" d="M1037.96,486.05
							c15.51,27.1,5.98,66.8-11.49,108.09c-6.18,24.14-38.49,95.5-35.34,117.79c1.16,8.18,7.42,21.15,0.69,29.73
							c-5.76,7.35-15.43,6.53-20.08,0.58c-10.69-13.71,28.63-133.41,6.76-133.82c-11.21-0.21-10.29,13.95-12.2,21.23
							c-1.9,7.23-4.93,20.76-14.68,21.06c-10.04,0.31-7.32-12.03-9.22-19.56c-8.23-32.65-25.95,79.51-28.22,94.55
							c-3.59,23.84,1.95,52.41-9.56,74.15c-10.81,20.42-29.74,29.03-47.44,17.26c-8.25-5.49-13.34-13.4-16.23-23.1
							c-2.31-7.76-2.27-23.83-9.74-28.67c-9.67-6.26-20.27,3.79-29.85,7.6c-41.01,16.31-27.84-27.97-29.5-52.23
							c-1.65-24.03-19.61-105.66-40.07-95.49c-21.66,10.77-36.14,80.63-63.06,73.92c-9.01-2.25-17.65-13.55-28.13-10.45
							c-20.53,6.07-8.52,45.93-34.09,46.29c-19.36,0.27-27.8-60.62-47.71-24.05c-8,14.7-2.73,33.93-1.65,49.3
							c1.35,19.27,2.35,42.78-5.22,60.25c-14.51,33.48-51.9,21.76-68.61-3.53c-21.34-32.28,3.39-116.93-24.58-151.91
							c-13.33-16.67-29.28-38.47-51.97-32.66c-16.16,4.14-24.4,21.2-38.61,28.49c-18.7,9.6-31.86-3.84-50.21-2.56
							c-12.36,0.86-17.07,95.64-18.29,105.95c-2.22,18.61-4.96,57.51-35.89,38.14c-23.54-14.74-14.26-137.99-40.93-151.94
							c-11.98-6.27-25.24,4.81-37.19-5.04c-11.18-9.23-8.99-29.35-21.64-38c-25.68-17.57,0.64,169.87,1.95,180.87
							c1.33,11.17,11.38,68.97-15.15,44.86c-9.83-8.94-5.89-21.44-4.17-31.32c7.92-45.46-92.04-272.79-46.72-323.79
							c24.55-26.81,66.42-18.81,84.37-26.72c30.08-13.25,60.5-23.35,93.6-28.77c91.58-15,184.41-23.75,278.49-23.75
							c58.55,0,116.2,1.84,174.01,9.4c78.18,10.22,152.99,17.91,223.87,48.58c16.93,7.32,42.61,10.34,54.42,25.8
							C1012.96,488.16,1035.97,476.79,1037.96,486.05z"/>
						
							<linearGradient id="SVGID_00000039840486769576359820000006352136592409183165_" gradientUnits="userSpaceOnUse" x1="181.4521" y1="713.0204" x2="962.1033" y2="713.0204">
							<stop  offset="0.2129" style="stop-color:#C657B8"/>
							<stop  offset="0.3012" style="stop-color:#B4349D"/>
						</linearGradient>
						<path style="fill:url(#SVGID_00000039840486769576359820000006352136592409183165_);" d="M983.26,729.9
							c-3.42-2.35-6.52-5.01-7.05-8.7c-1.21-8.45,5.06-61.6,7.61-70.23c4.34-14.67,15.36-42.49,4.3-53.84
							c-20.31-20.83-22.81,38.12-33.97,31.21c-9.63-5.95-12.41-45.3-30.77-16.98c-12.51,19.29-18.34,117.81-18.89,137.23
							c-0.42,14.75-3.66,40.05-20.5,46.53c-8.95,3.45-22.1,1.19-28.71-4.49c-12.96-11.15-8.78-30.72-13.23-46.29
							c-6.9-24.12-21.35,14.4-35.24,17.8c-20.55,5.02-22.14-17.31-25.07-31.14c-4.05-19.16-16.33-140.72-43.95-131.73
							c-27,8.79-43.15,106.82-74.7,82.95c-15.34-11.6-28.42-10.92-37.7,8.76c-4.78,10.14-15.45,41.57-30.24,25.17
							c-9.93-11.02-1.95-35.43-13.68-44.71c-34.17-27.07-29.26,83.86-29.55,92.28c-0.52,14.72-1.81,36.84-17.04,43.26
							c-22.14,9.34-40.64-12-46.01-31.56c-8.1-29.55-15.49-97.59-20.8-129.86c-2.33-14.17-7.86-25.11-18.95-34.14
							c-18.88-15.37-40.87-1.63-53.08,14.3c-11.68,15.23-22.38,29.63-42.6,30.07c-14.85,0.32-25.98-13.08-32.98-25.83
							c-4.11-7.49-6.72-15.76-14.62-10.55c-5.85,3.86-3.09,15.67-4.69,22.36c-3.7,15.48-5.62,115.84-12.37,128.71
							c-9.51,18.1-29.24,15.07-37.08-5.62c-4.16-10.98-6.89-103.99-11.46-115.54c-10.92-27.56-34.89,2.12-49.71-12.58
							c-8.18-8.12-9.74-21.64-14.6-31.86c-4.77-10.04-14.09-22.64-25.37-19.45c-22.48,6.35,16.54,206.2,14.22,221.68
							c-0.77,5.15-1.36,15.55-4.13,19.65c-1.48,2.19-10.09,7.01-13.06,2.59c0.91,1.36,2,2.67,3.22,3.79
							c26.52,24.11,16.48-33.69,15.14-44.86c-1.31-11-27.63-198.44-1.95-180.87c12.64,8.65,10.46,28.78,21.64,38
							c11.94,9.85,25.2-1.23,37.19,5.04c26.67,13.95,17.39,137.2,40.93,151.94c30.93,19.36,33.67-19.53,35.89-38.14
							c1.23-10.31,5.93-105.09,18.29-105.95c18.35-1.28,31.51,12.16,50.21,2.56c14.21-7.29,22.45-24.35,38.61-28.49
							c22.69-5.81,38.64,15.99,51.97,32.66c27.97,34.99,3.24,119.63,24.58,151.91c16.72,25.29,54.11,37.01,68.61,3.53
							c7.57-17.47,6.57-40.99,5.22-60.25c-1.08-15.37-6.35-34.6,1.65-49.3c19.9-36.57,28.35,24.32,47.71,24.05
							c25.57-0.36,13.57-40.23,34.09-46.29c10.49-3.1,19.12,8.2,28.13,10.45c26.92,6.71,41.4-63.15,63.06-73.92
							c20.46-10.17,38.42,71.45,40.07,95.49c1.74,25.4-11.31,68.46,29.5,52.23c9.58-3.81,20.18-13.86,29.85-7.6
							c7.47,4.84,7.43,20.92,9.74,28.67c2.89,9.71,7.98,17.61,16.23,23.1c17.7,11.76,36.63,3.16,47.44-17.26
							c11.52-21.75,5.97-50.31,9.56-74.15c2.27-15.04,19.99-127.21,28.22-94.55c1.9,7.53-0.82,19.86,9.22,19.56
							c9.75-0.3,12.78-13.83,14.68-21.06c1.91-7.28,0.99-21.44,12.2-21.23c21.87,0.41-16.67,115.09-8.16,133.21
							c3.03,6.45,18.77,9.25,22.76-0.97C994.12,736.2,988.34,733.39,983.26,729.9z"/>
						
							<radialGradient id="SVGID_00000003795759388767770910000008002860671029496961_" cx="-104.6539" cy="-196.4883" r="1109.4921" gradientTransform="matrix(1.9168 0 0 1.9168 -632.4563 -515.5901)" gradientUnits="userSpaceOnUse">
							<stop  offset="0.7455" style="stop-color:#F6D4F8"/>
							<stop  offset="0.8347" style="stop-color:#F5D2F7"/>
							<stop  offset="0.8826" style="stop-color:#F4CAF4"/>
							<stop  offset="0.9208" style="stop-color:#F1BCEE"/>
							<stop  offset="0.9537" style="stop-color:#ECA9E5"/>
							<stop  offset="0.9831" style="stop-color:#E790DB"/>
							<stop  offset="1" style="stop-color:#E37ED3"/>
						</radialGradient>
						<path style="fill:url(#SVGID_00000003795759388767770910000008002860671029496961_);" d="M1038.73,491.14
							c0,49.57-220.99,81.47-482.12,81.47S93.1,540.72,93.1,491.14c0-49.57,202.39-98.04,463.52-98.04
							S1038.73,441.57,1038.73,491.14z"/>
						
							<radialGradient id="SVGID_00000008128744293155191600000004253338464215498914_" cx="580.2613" cy="-407.0625" r="996.9415" gradientTransform="matrix(1.8875 0 0 1.7998 -574.0546 -464.9056)" gradientUnits="userSpaceOnUse">
							<stop  offset="0.87" style="stop-color:#F8ABEF"/>
							<stop  offset="0.9073" style="stop-color:#F6A6EC"/>
							<stop  offset="0.9486" style="stop-color:#F099E4"/>
							<stop  offset="0.9918" style="stop-color:#E583D6"/>
							<stop  offset="1" style="stop-color:#E37ED3"/>
						</radialGradient>
						<path style="fill:url(#SVGID_00000008128744293155191600000004253338464215498914_);" d="M629.65,562.8
							c-257.14-0.67-482.54-38.89-482.41-85.53c0.06-21.44,69.43-41.54,139.99-58.03c-115.65,17.27-189.51,45.04-189.6,73.4
							c-0.13,46.64,199.07,77.18,456.21,77.85c166.11,0.43,315.66-11.71,400.83-32.93C869.03,549.77,753.51,563.13,629.65,562.8z"/>
						
							<radialGradient id="SVGID_00000147188132039871110690000000197858262971349927_" cx="904.4327" cy="657.7242" r="131.9802" gradientUnits="userSpaceOnUse">
							<stop  offset="0.5358" style="stop-color:#CA51BA"/>
							<stop  offset="0.6833" style="stop-color:#CD57BE"/>
							<stop  offset="0.8854" style="stop-color:#D669C8"/>
							<stop  offset="1" style="stop-color:#DD76CF"/>
						</radialGradient>
						<path style="fill:url(#SVGID_00000147188132039871110690000000197858262971349927_);" d="M879.4,792.45
							c20.55-5.04,23.51-36.95,24.44-48.92c4.62-59.18-7.56-25.95-25.07-28.1c-16.68-2.05-30.7-26.87-38.02-39.02
							C847.48,704.14,830.6,804.42,879.4,792.45z"/>
						
							<radialGradient id="SVGID_00000045617559792594642060000011110743761596819094_" cx="796.3914" cy="661.6529" r="104.1316" gradientUnits="userSpaceOnUse">
							<stop  offset="0.6471" style="stop-color:#CA51BA"/>
							<stop  offset="0.7592" style="stop-color:#CD57BE"/>
							<stop  offset="0.9129" style="stop-color:#D669C8"/>
							<stop  offset="1" style="stop-color:#DD76CF"/>
						</radialGradient>
						<path style="fill:url(#SVGID_00000045617559792594642060000011110743761596819094_);" d="M805.74,762.37
							c13.69-2.79,26.84-31.31,38.51-39.66c32.41-23.18-26.07-11.92-37.52-14.14c-10.9-2.11-28.72-39.68-33.26-48.17
							C781.65,699.56,775.82,768.46,805.74,762.37z"/>
						
							<radialGradient id="SVGID_00000106864716328052604710000016080032653072058291_" cx="279.7571" cy="649.8663" r="129.7835" gradientUnits="userSpaceOnUse">
							<stop  offset="0.5358" style="stop-color:#DD76CF"/>
							<stop  offset="0.6527" style="stop-color:#E07CD3"/>
							<stop  offset="0.8133" style="stop-color:#E98EDD"/>
							<stop  offset="0.9985" style="stop-color:#F8ABEF"/>
							<stop  offset="1" style="stop-color:#F8ABEF"/>
						</radialGradient>
						<path style="fill:url(#SVGID_00000106864716328052604710000016080032653072058291_);" d="M266.9,780.43
							c-14.6-3.6-16.49-26.33-17.07-34.81c-2.85-41.65,5.52-18.32,17.9-19.84c11.79-1.44,21.76-18.86,26.94-27.35
							C289.87,717.85,301.63,789.01,266.9,780.43z"/>
						
							<radialGradient id="SVGID_00000164511109050486868620000001310879795604783021_" cx="501.7331" cy="643.9736" r="173.7677" gradientUnits="userSpaceOnUse">
							<stop  offset="0.5358" style="stop-color:#DD76CF"/>
							<stop  offset="0.6527" style="stop-color:#E07CD3"/>
							<stop  offset="0.8133" style="stop-color:#E98EDD"/>
							<stop  offset="0.9985" style="stop-color:#F8ABEF"/>
							<stop  offset="1" style="stop-color:#F8ABEF"/>
						</radialGradient>
						<path style="fill:url(#SVGID_00000164511109050486868620000001310879795604783021_);" d="M530.12,808.04
							c22.54-3.98,21.33-39.07,20.69-52.26c-3.22-65.43-12.28-29.41-32.47-33.21c-19.25-3.61-39.93-70.13-50.19-84.67
							C480.03,670.23,476.54,817.51,530.12,808.04z"/>
						
							<radialGradient id="SVGID_00000141425621838473622920000016199614407381628593_" cx="338.6886" cy="518.2527" r="149.9252" gradientUnits="userSpaceOnUse">
							<stop  offset="0.7169" style="stop-color:#DD76CF"/>
							<stop  offset="0.7882" style="stop-color:#E07CD3"/>
							<stop  offset="0.8861" style="stop-color:#E98EDD"/>
							<stop  offset="0.9991" style="stop-color:#F8ABEF"/>
							<stop  offset="1" style="stop-color:#F8ABEF"/>
						</radialGradient>
						<path style="fill:url(#SVGID_00000141425621838473622920000016199614407381628593_);" d="M411.12,607.04
							c-23.68,14.38-27.37,42.44-47.64,46.26c-26.82,5.06-41.16-19.61-50.5-50.88L411.12,607.04z"/>
					</g>
				</g>
			</g>
		</g>
		<g>
			<g>
				<path class="st17" d="M713.86,394.73c3.01,3.68,6.52,8.71,6.36,10.4c-0.12,1.3-7.85,1.92-10.33,3.07
					c8.66-1.66,25.61-8.3,28.68-3.39c2.34,3.74,9.01,5.65,8.74,7.38c-0.27,1.74-1.99,5.94-9.19,8.13
					c-21.14,6.42-57.25,3.51-67.66-0.89c-5.29-3.09-7.15-7.83-6.55-12.78c0.36-2.98,7.15-9.04,11.35-11.06
					C688.93,388.35,709.4,389.28,713.86,394.73z"/>
				<path class="st18" d="M714.07,391.69c2.83,3.66,6.13,8.66,5.97,10.35c-0.12,1.3-7.43,1.98-9.79,3.14
					c8.2-1.73,28.15-8.89,31.03-4.01c2.2,3.72,4.45,8.43,4.19,10.17c-0.26,1.74-4.19,4.62-8.4,5.98
					c-17.82,5.76-61.84,2.94-65.46,0.38c-2.61-2.49-5.44-8.76-4.85-13.71c0.35-2.98,3.01-5.06,3.22-7.46
					C682.96,389.19,709.88,386.28,714.07,391.69z"/>
				<path class="st19" d="M670.38,395.58c1.72-0.97,7.06,0.21,9.28-0.58l-8.05,22.7c0,0,0,0,0,0c-3.51-2.62-5.44-8.76-4.85-13.71
					C667.11,401.02,668.49,398.09,670.38,395.58z"/>
				<path class="st19" d="M727.44,402.79c6.13-1.3,12.44-3.98,13.84-1.62c2.2,3.72,4.45,8.44,4.19,10.17
					c-0.26,1.74-4.19,4.62-8.4,5.98C732.57,404.94,727.44,402.79,727.44,402.79z"/>
				<path class="st20" d="M709.36,388.92c6.58,2.22,6.99,5.72,1.58,8.39c8.2-1.73,18.78-1.52,25.37,0.7
					c7.63,2.58,6.99,6.87-1.44,9.6c-17.82,5.76-52.17,1.36-60.25,1.43c0.4-2.67-14.47-13.36,5.66-19.86
					C688.71,386.46,701.73,386.34,709.36,388.92z"/>
			</g>
			<g>
				<path class="st21" d="M682.51,392.3c8.43-2.72,21.45-2.84,29.08-0.27c1.25,0.42,2.21,0.9,3.02,1.41
					c0.09-1.66-1.59-3.29-5.25-4.52c-7.63-2.58-20.65-2.46-29.08,0.26c-20.13,6.5-5.26,17.2-5.66,19.86c0.17,0,0.41,0.01,0.59,0.01
					C672.15,404.64,667.16,397.26,682.51,392.3z"/>
			</g>
		</g>
		<g>
			<path class="st22" d="M873,421.76c-2.05,0.9-4.35,1.46-6.92,1.53c-16.25,0.45-31.21,1.97-47.53-0.77
				c-7.46-1.25-14.85-2.79-22.22-4.46h-21.38c-2.96,3.28-9.33,0.04-8.83,4.75c-0.81,13.77,43.06,23.41,57.07,21.43
				c15.03-2.13,32.58,4.06,40.61,5.32c-1.38-4.23-5.13-12.47-5.48-12.86c7.41-0.24,20.98-4.85,21.48-5.63
				C882.55,424.53,878.42,422.79,873,421.76z"/>
			<g>
				<g>
					<path class="st23" d="M777.52,402.61c9.64-5.83,3.93-14.64,8.7-16.47c14.27,3.68,62.42-19.21,69.91-10.82
						c0,0,18.66,21.82-19.12,41.09C822.51,400.65,767.13,410.89,777.52,402.61z"/>
					<path class="st24" d="M860.15,426.22c-44.75,23.32-45.37-17.77-35.41-26.31c16.94-1.74,25.34-8.36,46.55-7.65
						c3.39,0.11,7.19-0.43,8.24-2.45C866.98,405.25,871.91,418.97,860.15,426.22z"/>
					<path class="st23" d="M798.66,357.06c9.64-5.83,8.79-8.96,19.26-6.26c14.27,3.68,25.1,0.6,32.59,8.99
						c0,0-9.56,17.31-19.44,20.45C816.57,364.48,788.28,365.34,798.66,357.06z"/>
					<path class="st25" d="M797.83,357.42c-3.89,2.13-12.45,5.03-13.11,8.79c3.72-2.18,8.51-6.24,27.29,8.14
						c19.52,14.94,49.75,1.32,41.67-10.44c-10.84-15.78-11.23-1.24-13.41-0.34C807.39,377.15,805.77,353.08,797.83,357.42z"/>
					<g>
						<path class="st25" d="M826.82,323.83c-13.45,21.8,12.62,20.16,13.4,38.75C854.56,333.61,815.65,346.73,826.82,323.83z"/>
						<path class="st24" d="M826.82,323.83c-11.28,18.71,14.27,21.98,13.4,38.75C818.47,352.74,811.49,341.58,826.82,323.83z"/>
						<path class="st25" d="M826.82,323.83c-23.67,16.11-30.75,30.65-6.82,36.82c14.27,3.68,16.32-0.81,20.21,1.93
							c0,0,1.93-5.36-6.88-9.48C823.23,348.38,813.63,340.51,826.82,323.83z"/>
						<path class="st26" d="M825.65,324.78c-4.78,5.28-29.84,19.37,5.03,32.61C814.32,346.35,814.36,339.12,825.65,324.78z"/>
						<path class="st24" d="M805.26,348.04c-0.17,5.24,4.39,9.45,14.86,12.15c14.27,3.68,15.58-0.71,20.09,2.39
							c0,0-3.14,0.61-13.03,3.76C816.68,369.68,801.79,361.3,805.26,348.04z"/>
						<path class="st26" d="M826.82,323.83c-5.65,15.12,12.31,10.62,16.03,24.29C839.05,337.79,817.77,342.07,826.82,323.83z"/>
					</g>
					<path class="st24" d="M786.31,385.48c2.6-6.21-2.65-18.65-1.59-19.27c3.72-2.18,8.49-7.39,27.28,6.99
						c19.52,14.94,49.77,2.47,41.69-9.29c6.97,8.12-5.47,19.24-7.3,20.79C816.54,409.98,784.4,390.02,786.31,385.48z"/>
					<path class="st25" d="M785.89,386.13c-13.05-0.43-20.11,5.9-23.74,13.67c-3.63,7.76,21.53,23.39,50.51,22.38
						c28.97-1.01,41.94,20.86,48.08,24.02c-4.45-13.62-18.86-39.48-31.45-43.51C816.71,398.65,785.08,399.9,785.89,386.13z"/>
					<path class="st26" d="M784.72,366.21c3.72-2.18,8.49-5.94,27.27,8.44c19.52,14.94,51.06,0.89,41.69-10.74
						c4.74,9.96-17.32,11.61-31.94,7.32C806.08,366.62,790.89,358.46,784.72,366.21z"/>
					<path class="st26" d="M852.11,433.84c-2.46-3.08-22.01-18.47-49.05-19.9c-25.59-1.35-54.19-20.34-21.39-26.8
						c-9.05,7.95,2.14,17.11,17.58,18.49C816.74,407.2,831.31,399.8,852.11,433.84z"/>
					<path class="st24" d="M767.94,419.54c-0.66-6.26-5.44-4.78-5.96-16.9c2.18,8.19,25.51,18.48,51.27,17.59
						c28.97-1.01,41.36,22.82,47.5,25.98c-8.03-1.25-22.79-7.49-37.81-5.37C808.92,442.82,767.13,433.31,767.94,419.54z"/>
					<path class="st25" d="M856.13,375.32c-1.65,10.13-22.89,22.24-31.39,24.58c21.07,4.32,25.34-8.36,46.55-7.65
						C882.62,392.63,883.54,376.23,856.13,375.32z"/>
					<path class="st26" d="M856.13,375.32c16.27,3.14,20.44,8.28,15.48,12.01c-3.81,2.87-15.6,4.32-15.67,7.04
						c0,0,10.99-1.61,17.23-1.4C884.5,393.35,883.54,376.23,856.13,375.32z"/>
				</g>
				<path class="st24" d="M846.94,419.17c2.46,3.73,8.33,13.65,8.42,14.33c7.41-0.24,21.27-4.36,21.77-5.14
					c3.65-8.64,9.76-10.83,10.91-21.16C889.05,398.07,865.94,421.21,846.94,419.17z"/>
				<path class="st25" d="M847.13,419.47c15.59-4.14,21.61-9.31,23.84-14.22c1.02-4.75,3.04-7.03,3.54-7.81
					c5.91,0.4,14.91,0.64,13.52,9.76C886.65,416.32,858.96,418.67,847.13,419.47z"/>
				<path class="st23" d="M847.13,419.47c15.59-4.14,21.61-9.31,23.84-14.22c1.02-4.75,3.04-7.03,3.54-7.81l1.06-1.93
					c-10.08,2.11-4.49,16.54-31.54,19.69L847.13,419.47z"/>
				<path class="st23" d="M767.94,419.54c-0.33-3.13-1.69-4.33-3.03-6.25c29.15,12.71,3.81,18.52,56.51,23.48
					c28.51,2.68,33.19,6.28,39.33,9.44c-8.03-1.25-22.79-7.49-37.81-5.37C808.92,442.82,767.13,433.31,767.94,419.54z"/>
			</g>
		</g>
		<g>
			<path class="st17" d="M893.85,443.19c-6.61,2.99,0.08,7.28,15.01,10.31c-17.72-1.77-34.91-4.69-41.52-1.7
				c-7.66,3.47-7.41,11.33,26.14,16.99c42.62,7.2,96.73,4.79,99.38-2.37c2.94-4.91-9.34-18.33-48.55-24.14
				C924.11,439.3,901.51,439.73,893.85,443.19z"/>
			<path class="st19" d="M896.52,434.23c-6.25,2.83,3.75,8.89,17.88,11.76c-16.77-1.67-32.5-15.05-36.27-9.31
				c-1.17,1.77-6.64,17.52-6.95,18.12c-1.65,3.12,7.71,6.96,23.74,9.32c40.46,5.94,77.97,3.88,94.76-0.44
				c3.9-7.43,0.45-18.63-0.68-19.63c-13.43-11.97-88.02-17.88-88.02-17.88C898.17,429.5,897.03,434,896.52,434.23z"/>
			<path class="st20" d="M902.98,424.59c-5.56,2.52,0.07,6.13,12.64,8.68c-14.92-1.49-29.85-0.89-35.41,1.62
				c-6.45,2.92,2.12,7.31,19.15,9.81c36.01,5.29,77.83-0.45,89.64-0.66c-1.9-2.61-10.5-15.33-43.51-20.22
				C928.47,421.31,909.43,421.67,902.98,424.59z"/>
			<g>
				<g>
					<path class="st21" d="M946.32,426.07c-15.7-2.32-33.26-1.99-39.21,0.7c-2.74,1.24-2.46,2.76,0.07,4.27
						c-6.29-2.17-8.28-4.61-4.2-6.46c6.45-2.92,25.48-3.28,42.5-0.76c33.01,4.89,41.61,17.61,43.51,20.22
						c-0.83,0.01-1.83,0.06-2.94,0.13C983.63,440.89,974.89,430.3,946.32,426.07z"/>
				</g>
				<g>
					<path class="st21" d="M880.21,434.9c5.06-2.29,17.86-2.97,31.36-1.96c2,0.65,4.4,1.28,7.2,1.85
						c-13.77-1.37-27.53-0.82-32.67,1.5c-5.75,2.6,1.51,6.46,16.15,8.8c-0.97-0.13-1.94-0.23-2.9-0.37
						C882.33,442.21,873.76,437.82,880.21,434.9z"/>
				</g>
			</g>
		</g>
		<g>
			<path class="st22" d="M1022.44,484.77c-2.17,0.96-4.62,1.55-7.35,1.62c-17.26,0.48-33.15,2.09-50.48-0.82
				c-7.92-1.33-15.78-2.96-23.6-4.74h-22.71c-3.14,3.48-9.91,0.04-9.38,5.05c-0.86,14.63,45.74,24.87,60.61,22.76
				c15.96-2.26,34.6,4.32,43.13,5.65c-1.47-4.49-5.45-13.25-5.82-13.66c7.87-0.26,22.28-5.16,22.81-5.99
				C1032.59,487.71,1028.21,485.86,1022.44,484.77z"/>
			<g>
				<g>
					<path class="st23" d="M921.03,464.42c10.24-6.2,4.17-15.55,9.24-17.49c15.16,3.91,66.3-20.4,74.26-11.49
						c0,0,19.82,23.17-20.31,43.65C968.82,462.35,909.99,473.22,921.03,464.42z"/>
					<path class="st24" d="M1008.8,489.5c-47.53,24.77-48.19-18.88-37.61-27.95c17.99-1.84,26.92-8.88,49.45-8.13
						c3.6,0.12,7.64-0.45,8.75-2.6C1016.05,467.23,1021.29,481.8,1008.8,489.5z"/>
					<path class="st23" d="M943.49,416.04c10.24-6.2,9.34-9.52,20.46-6.65c15.16,3.91,26.66,0.64,34.61,9.55
						c0,0-10.15,18.38-20.65,21.72C962.51,423.92,932.45,424.84,943.49,416.04z"/>
					<path class="st25" d="M942.6,416.43c-4.14,2.26-13.23,5.35-13.92,9.34c3.96-2.31,9.03-6.63,28.99,8.64
						c20.73,15.87,52.85,1.41,44.27-11.09c-11.51-16.77-11.93-1.31-14.25-0.36C952.75,437.38,951.03,411.82,942.6,416.43z"/>
					<g>
						<path class="st25" d="M973.39,380.74c-14.29,23.15,13.41,21.42,14.23,41.16C1002.86,391.13,961.53,405.07,973.39,380.74z"/>
						<path class="st24" d="M973.39,380.74c-11.98,19.87,15.16,23.35,14.23,41.16C964.53,411.45,957.11,399.6,973.39,380.74z"/>
						<path class="st25" d="M973.39,380.74c-25.14,17.11-32.66,32.56-7.24,39.11c15.16,3.91,17.34-0.86,21.47,2.05
							c0,0,2.05-5.69-7.3-10.06C969.58,406.82,959.39,398.46,973.39,380.74z"/>
						<path class="st26" d="M972.15,381.76c-5.08,5.61-31.7,20.57,5.34,34.63C960.12,404.67,960.15,396.98,972.15,381.76z"/>
						<path class="st24" d="M950.5,406.46c-0.18,5.56,4.66,10.04,15.79,12.9c15.16,3.91,16.55-0.76,21.34,2.54
							c0,0-3.34,0.65-13.84,3.99C962.62,429.45,946.81,420.55,950.5,406.46z"/>
						<path class="st26" d="M973.39,380.74c-6,16.06,13.08,11.28,17.03,25.8C986.38,395.57,963.78,400.12,973.39,380.74z"/>
					</g>
					<path class="st24" d="M930.36,446.23c2.77-6.59-2.81-19.81-1.68-20.47c3.96-2.31,9.02-7.85,28.97,7.42
						c20.73,15.87,52.86,2.63,44.28-9.87c7.41,8.62-5.81,20.43-7.75,22.08C962.48,472.26,928.34,451.05,930.36,446.23z"/>
					<path class="st25" d="M929.92,446.92c-13.87-0.46-21.36,6.27-25.22,14.52c-3.86,8.25,22.87,24.84,53.65,23.77
						c30.78-1.07,44.55,22.16,51.07,25.52c-4.73-14.47-20.04-41.94-33.4-46.22C962.65,460.22,929.06,461.55,929.92,446.92z"/>
					<path class="st26" d="M928.68,425.76c3.96-2.31,9.02-6.31,28.97,8.96c20.73,15.87,54.24,0.94,44.29-11.41
						c5.03,10.58-18.4,12.33-33.93,7.77C951.36,426.2,935.22,417.53,928.68,425.76z"/>
					<path class="st26" d="M1000.26,497.59c-2.61-3.27-23.38-19.62-52.1-21.13c-27.18-1.43-57.56-21.6-22.72-28.47
						c-9.61,8.44,2.28,18.17,18.68,19.64C962.69,469.3,978.16,461.44,1000.26,497.59z"/>
					<path class="st24" d="M910.85,482.4c-0.7-6.65-5.78-5.08-6.34-17.95c2.31,8.69,27.1,19.63,54.46,18.68
						c30.78-1.07,43.93,24.23,50.45,27.59c-8.53-1.33-24.2-7.96-40.16-5.7C954.38,507.13,909.99,497.03,910.85,482.4z"/>
					<path class="st25" d="M1004.53,435.44c-1.75,10.76-24.31,23.62-33.34,26.11c22.38,4.58,26.92-8.88,49.45-8.13
						C1032.67,453.83,1033.64,436.41,1004.53,435.44z"/>
					<path class="st26" d="M1004.53,435.44c17.28,3.34,21.71,8.79,16.44,12.76c-4.05,3.05-16.57,4.59-16.64,7.47
						c0,0,11.68-1.71,18.3-1.48C1034.66,454.59,1033.64,436.41,1004.53,435.44z"/>
				</g>
				<path class="st24" d="M994.76,482.02c2.61,3.97,8.85,14.5,8.95,15.22c7.87-0.26,22.59-4.63,23.12-5.46
					c3.88-9.18,10.37-11.51,11.58-22.47C1039.49,459.6,1014.94,484.19,994.76,482.02z"/>
				<path class="st25" d="M994.97,482.34c16.56-4.4,22.96-9.89,25.33-15.1c1.08-5.04,3.23-7.47,3.76-8.3
					c6.28,0.42,15.83,0.68,14.36,10.37C1036.94,478.99,1007.54,481.48,994.97,482.34z"/>
				<path class="st23" d="M994.97,482.34c16.56-4.4,22.96-9.89,25.33-15.1c1.08-5.04,3.23-7.47,3.76-8.3l1.13-2.05
					c-10.71,2.25-4.77,17.56-33.5,20.91L994.97,482.34z"/>
				<path class="st23" d="M910.85,482.4c-0.35-3.33-1.79-4.6-3.22-6.64c30.96,13.5,4.05,19.67,60.02,24.94
					c30.28,2.85,35.25,6.67,41.77,10.03c-8.53-1.33-24.2-7.96-40.16-5.7C954.38,507.13,909.99,497.03,910.85,482.4z"/>
			</g>
		</g>
		<g>
			<path class="st17" d="M859.53,493.67c-5.17,5.9-11.28,14-11.26,16.8c0.01,2.16,11.89,3.65,15.58,5.68
				c-13.18-3.27-38.53-15.23-43.96-7.3c-4.14,6.05-14.72,8.79-14.54,11.67c0.18,2.88,2.27,9.94,13.13,13.98
				c31.86,11.86,88.18,9.22,104.9,2.56c8.61-4.78,12.13-12.51,11.89-20.72c-0.15-4.94-9.84-15.36-16.08-18.94
				C898.99,484.63,867.18,484.94,859.53,493.67z"/>
			<path class="st18" d="M859.61,488.64c-4.88,5.87-10.66,13.93-10.65,16.74c0.01,2.16,11.24,3.72,14.73,5.78
				c-12.46-3.35-42.38-16.36-47.51-8.47c-3.91,6.02-8.03,13.67-7.87,16.55c0.17,2.88,5.85,7.87,12.19,10.37
				c26.82,10.57,95.37,8.53,101.31,4.52c4.38-3.96,9.61-14.14,9.38-22.35c-0.14-4.94-3.98-8.55-3.98-12.51
				C908.13,486.37,866.85,479.95,859.61,488.64z"/>
			<path class="st19" d="M926.74,497.67c-2.53-1.71-10.96-0.07-14.29-1.51l9.38,37.98c0.01,0-0.01,0,0,0
				c5.78-4.12,9.61-14.14,9.38-22.35C931.06,506.85,929.33,501.94,926.74,497.67z"/>
			<path class="st19" d="M837.4,506.19c-9.32-2.51-18.73-7.32-21.21-3.5c-3.91,6.02-8.03,13.67-7.87,16.55
				c0.17,2.88,5.85,7.87,12.19,10.37C829.16,509.44,837.4,506.19,837.4,506.19z"/>
			<path class="st20" d="M867.28,484.35c-10.5,3.28-11.61,9.04-3.58,13.77c-12.46-3.35-28.88-3.63-39.38-0.35
				c-12.17,3.8-11.76,10.94,0.92,15.93c26.82,10.57,80.61,5.36,93.1,5.96c-0.26-4.43,24.22-21.2-6.07-33.14
				C899.6,481.52,879.45,480.54,867.28,484.35z"/>
			<g>
				<path class="st21" d="M836.03,513.22c-12.68-5-13.09-12.13-0.92-15.94c2.63-0.82,5.63-1.42,8.84-1.8
					c-7.21-0.14-14.21,0.59-19.63,2.28c-12.17,3.8-11.76,10.94,0.92,15.94c26.82,10.57,80.61,5.36,93.1,5.96
					c-0.01-0.1,0.06-0.24,0.08-0.36C897.71,519.96,857.91,521.84,836.03,513.22z"/>
			</g>
		</g>
		<g>
			<path class="st17" d="M450.85,391.13c-3.01,3.68-6.52,8.71-6.36,10.4c0.12,1.3,7.85,1.92,10.33,3.07
				c-8.66-1.66-25.61-8.3-28.68-3.39c-2.34,3.74-9.01,5.65-8.74,7.38c0.27,1.74,1.99,5.94,9.19,8.13
				c21.14,6.42,57.25,3.52,67.66-0.89c5.29-3.09,7.15-7.83,6.55-12.78c-0.36-2.98-7.15-9.04-11.35-11.06
				C475.77,384.76,455.31,385.68,450.85,391.13z"/>
			<path class="st18" d="M450.64,388.09c-2.83,3.66-6.13,8.66-5.97,10.35c0.12,1.3,7.43,1.98,9.79,3.14
				c-8.2-1.73-28.15-8.89-31.03-4.01c-2.2,3.72-4.45,8.44-4.19,10.17c0.26,1.74,4.19,4.62,8.4,5.98
				c17.83,5.76,61.84,2.94,65.46,0.38c2.61-2.49,5.44-8.76,4.85-13.71c-0.35-2.98-3.01-5.06-3.22-7.46
				C481.75,385.59,454.83,382.68,450.64,388.09z"/>
			<path class="st19" d="M494.33,391.98c-1.72-0.97-7.06,0.21-9.28-0.58l8.05,22.7c0,0,0,0,0,0c3.51-2.62,5.44-8.76,4.86-13.71
				C497.6,397.42,496.22,394.5,494.33,391.98z"/>
			<path class="st19" d="M437.27,399.2c-6.13-1.3-12.44-3.98-13.84-1.62c-2.2,3.72-4.45,8.44-4.19,10.17
				c0.26,1.74,4.19,4.62,8.4,5.98C432.14,401.35,437.27,399.2,437.27,399.2z"/>
			<path class="st20" d="M455.34,385.32c-6.58,2.22-6.99,5.72-1.58,8.39c-8.2-1.73-18.78-1.52-25.37,0.7
				c-7.63,2.58-6.99,6.87,1.44,9.6c17.82,5.76,52.17,1.36,60.25,1.43c-0.4-2.67,14.47-13.36-5.66-19.86
				C476,382.86,462.98,382.75,455.34,385.32z"/>
			<g>
				<path class="st21" d="M436.76,403.47c-8.43-2.72-9.07-7.02-1.44-9.6c1.65-0.56,3.55-0.99,5.6-1.29
					c-4.65,0.09-9.12,0.69-12.51,1.83c-7.63,2.58-6.99,6.87,1.44,9.6c17.83,5.76,52.17,1.36,60.25,1.43
					c-0.01-0.06,0.03-0.15,0.03-0.22C476.82,406.11,451.3,408.17,436.76,403.47z"/>
			</g>
		</g>
		<path class="st22" d="M613.42,416.13c6.87-0.22,19.45-4.5,19.91-5.22c2.55-6.05-1.27-7.66-6.3-8.61c-1.9,0.84-4.04,1.35-6.42,1.42
			c-15.07,0.42-28.94,1.82-44.06-0.72c-6.92-1.16-13.77-2.58-20.6-4.14c0,0-19.75,0-19.82,0c-6.3,0.22-5.27,10.07-2.53,13.56
			c3.01,3.83,7.8,5.26,12.08,7.06c15.95,6.71,29.23,2.95,45.62,3.61c9.26,0.37,18.02,3.33,27.09,4.88
			C617.48,424.58,615.83,418.82,613.42,416.13z"/>
		<g>
			<g>
				<path class="st23" d="M541.98,388.29c8.36-5.06,3.41-12.7,7.55-14.28c12.37,3.19,54.13-16.66,60.63-9.38
					c0,0,16.18,18.92-16.58,35.63C581,386.6,532.97,395.48,541.98,388.29z"/>
				<path class="st24" d="M613.64,408.77c-38.8,20.22-39.35-15.41-30.71-22.82c14.69-1.51,21.98-7.25,40.37-6.63
					c2.94,0.1,6.24-0.37,7.15-2.12C619.56,390.59,623.84,402.48,613.64,408.77z"/>
				<path class="st23" d="M560.32,348.79c8.36-5.06,7.62-7.77,16.7-5.43c12.37,3.19,21.77,0.52,28.26,7.8
					c0,0-8.29,15.01-16.86,17.74C575.85,355.23,551.31,355.98,560.32,348.79z"/>
				<path class="st25" d="M559.59,349.11c-3.38,1.84-10.8,4.36-11.36,7.62c3.23-1.89,7.38-5.41,23.67,7.06
					c16.93,12.96,43.14,1.15,36.14-9.06c-9.4-13.69-9.74-1.07-11.63-0.29C567.88,366.22,566.48,345.35,559.59,349.11z"/>
				<g>
					<path class="st25" d="M584.73,319.98c-11.67,18.9,10.95,17.49,11.62,33.61C608.79,328.46,575.05,339.84,584.73,319.98z"/>
					<path class="st24" d="M584.73,319.98c-9.78,16.23,12.38,19.06,11.62,33.61C577.5,345.05,571.44,335.37,584.73,319.98z"/>
					<path class="st25" d="M584.73,319.98c-20.53,13.97-26.67,26.58-5.91,31.93c12.37,3.19,14.15-0.7,17.53,1.68
						c0,0,1.67-4.65-5.96-8.22C581.62,341.27,573.3,334.44,584.73,319.98z"/>
					<path class="st26" d="M583.72,320.81c-4.14,4.58-25.88,16.8,4.36,28.28C573.9,339.51,573.92,333.23,583.72,320.81z"/>
					<path class="st24" d="M566.04,340.97c-0.14,4.54,3.81,8.19,12.89,10.53c12.37,3.19,13.51-0.62,17.42,2.08
						c0,0-2.72,0.53-11.3,3.26C575.94,359.74,563.03,352.47,566.04,340.97z"/>
					<path class="st26" d="M584.73,319.98c-4.9,13.11,10.68,9.21,13.9,21.07C595.34,332.08,576.88,335.8,584.73,319.98z"/>
				</g>
				<path class="st24" d="M549.6,373.44c2.26-5.38-2.3-16.17-1.37-16.71c3.23-1.89,7.36-6.41,23.65,6.06
					c16.93,12.96,43.16,2.15,36.15-8.06c6.05,7.04-4.74,16.68-6.33,18.03C575.82,394.69,547.95,377.38,549.6,373.44z"/>
				<path class="st25" d="M549.24,374c-11.32-0.38-17.44,5.12-20.59,11.85c-3.15,6.73,18.67,20.28,43.8,19.41
					s36.37,18.09,41.7,20.83c-3.86-11.81-16.36-34.24-27.27-37.74C575.97,384.86,548.54,385.95,549.24,374z"/>
				<path class="st26" d="M548.23,356.73c3.23-1.89,7.36-5.15,23.65,7.32c16.93,12.96,44.28,0.77,36.16-9.32
					c4.11,8.63-15.02,10.06-27.7,6.34C566.75,357.09,553.57,350.01,548.23,356.73z"/>
				<path class="st26" d="M606.67,415.38c-2.13-2.67-19.09-16.02-42.54-17.25c-22.19-1.17-46.99-17.64-18.55-23.24
					c-7.85,6.89,1.86,14.84,15.25,16.04C576,392.27,588.63,385.86,606.67,415.38z"/>
				<path class="st24" d="M533.67,402.98c-0.57-5.43-4.72-4.15-5.17-14.66c1.89,7.1,22.12,16.03,44.46,15.25
					c25.13-0.87,35.86,19.79,41.19,22.53c-6.96-1.09-19.76-6.5-32.79-4.65C569.21,423.16,532.97,414.92,533.67,402.98z"/>
				<path class="st25" d="M610.15,364.63c-1.43,8.79-19.85,19.28-27.22,21.32c18.27,3.74,21.98-7.25,40.37-6.63
					C633.13,379.64,633.92,365.42,610.15,364.63z"/>
				<path class="st26" d="M610.15,364.63c14.11,2.72,17.72,7.18,13.42,10.42c-3.31,2.49-13.53,3.75-13.59,6.1
					c0,0,9.53-1.39,14.94-1.21C634.75,380.27,633.92,365.42,610.15,364.63z"/>
			</g>
			<path class="st24" d="M602.18,402.66c2.13,3.24,7.22,11.83,7.31,12.43c6.43-0.21,18.44-3.78,18.88-4.46
				c3.16-7.49,8.46-9.4,9.46-18.35C638.7,384.36,618.66,404.43,602.18,402.66z"/>
			<path class="st25" d="M602.35,402.92c13.52-3.59,18.74-8.07,20.68-12.33c0.88-4.12,2.64-6.1,3.07-6.78
				c5.13,0.34,12.93,0.56,11.72,8.47C636.62,400.19,612.61,402.22,602.35,402.92z"/>
			<path class="st23" d="M602.35,402.92c13.52-3.59,18.74-8.07,20.68-12.33c0.88-4.12,2.64-6.1,3.07-6.78l0.92-1.68
				c-8.74,1.83-3.89,14.34-27.35,17.07L602.35,402.92z"/>
			<path class="st23" d="M533.67,402.98c-0.29-2.72-1.46-3.75-2.63-5.42c25.28,11.02,3.3,16.06,49,20.36
				c24.72,2.33,28.78,5.45,34.11,8.19c-6.96-1.09-19.76-6.5-32.79-4.65C569.21,423.16,532.97,414.92,533.67,402.98z"/>
		</g>
		<g>
			<path class="st22" d="M387.24,415.83c-2.05,0.9-4.35,1.46-6.92,1.53c-16.25,0.45-31.21,1.97-47.53-0.77
				c-7.46-1.25-14.85-2.79-22.22-4.46H289.2c-2.96,3.28-9.33,0.04-8.83,4.75c-0.81,13.77,43.06,23.41,57.07,21.43
				c15.03-2.13,32.58,4.06,40.61,5.32c-1.38-4.23-5.13-12.47-5.48-12.86c7.41-0.24,20.98-4.85,21.48-5.63
				C396.79,418.59,392.67,416.86,387.24,415.83z"/>
			<g>
				<g>
					<path class="st23" d="M291.76,396.67c9.64-5.83,3.93-14.64,8.7-16.47c14.27,3.68,62.42-19.21,69.91-10.82
						c0,0,18.66,21.82-19.12,41.09C336.75,394.72,281.37,404.95,291.76,396.67z"/>
					<path class="st24" d="M374.39,420.28c-44.74,23.32-45.37-17.77-35.41-26.31c16.94-1.74,25.34-8.36,46.55-7.65
						c3.39,0.11,7.19-0.43,8.24-2.45C381.22,399.32,386.15,413.04,374.39,420.28z"/>
					<path class="st23" d="M312.9,351.12c9.64-5.83,8.79-8.96,19.26-6.26c14.27,3.68,25.1,0.6,32.59,8.99
						c0,0-9.56,17.31-19.44,20.45C330.82,358.54,302.52,359.41,312.9,351.12z"/>
					<path class="st25" d="M312.07,351.48c-3.9,2.13-12.45,5.03-13.11,8.79c3.72-2.18,8.51-6.24,27.29,8.14
						c19.52,14.94,49.75,1.32,41.67-10.44c-10.84-15.78-11.23-1.24-13.41-0.34C321.63,371.21,320.01,347.15,312.07,351.48z"/>
					<g>
						<path class="st25" d="M341.06,317.89c-13.45,21.8,12.62,20.16,13.4,38.75C368.8,327.67,329.89,340.79,341.06,317.89z"/>
						<path class="st24" d="M341.06,317.89c-11.28,18.71,14.27,21.98,13.4,38.75C332.71,346.8,325.73,335.65,341.06,317.89z"/>
						<path class="st25" d="M341.06,317.89c-23.67,16.11-30.75,30.65-6.82,36.82c14.27,3.68,16.32-0.81,20.21,1.93
							c0,0,1.93-5.36-6.88-9.48C337.47,342.44,327.87,334.57,341.06,317.89z"/>
						<path class="st26" d="M339.89,318.85c-4.78,5.28-29.84,19.37,5.02,32.61C328.56,340.41,328.6,333.18,339.89,318.85z"/>
						<path class="st24" d="M319.5,342.1c-0.17,5.24,4.39,9.45,14.86,12.15c14.27,3.68,15.58-0.71,20.09,2.39
							c0,0-3.14,0.61-13.03,3.76C330.92,363.75,316.03,355.36,319.5,342.1z"/>
						<path class="st26" d="M341.06,317.89c-5.65,15.12,12.31,10.62,16.03,24.29C353.29,331.85,332.01,336.14,341.06,317.89z"/>
					</g>
					<path class="st24" d="M300.55,379.55c2.6-6.21-2.65-18.65-1.59-19.27c3.72-2.18,8.49-7.39,27.28,6.99
						c19.52,14.94,49.77,2.47,41.69-9.29c6.97,8.12-5.47,19.24-7.3,20.79C330.79,404.05,298.64,384.08,300.55,379.55z"/>
					<path class="st25" d="M300.14,380.19c-13.05-0.43-20.11,5.9-23.74,13.67c-3.63,7.76,21.53,23.39,50.51,22.38
						c28.97-1.01,41.94,20.86,48.08,24.02c-4.45-13.62-18.86-39.48-31.45-43.51C330.95,392.72,299.32,393.96,300.14,380.19z"/>
					<path class="st26" d="M298.96,360.27c3.72-2.18,8.49-5.94,27.27,8.44c19.52,14.94,51.06,0.89,41.69-10.74
						c4.74,9.96-17.32,11.61-31.94,7.32C320.32,360.69,305.13,352.52,298.96,360.27z"/>
					<path class="st26" d="M366.35,427.9c-2.46-3.08-22.01-18.48-49.05-19.9c-25.59-1.35-54.19-20.34-21.39-26.8
						c-9.05,7.95,2.14,17.11,17.58,18.49C330.98,401.26,345.55,393.86,366.35,427.9z"/>
					<path class="st24" d="M282.18,413.6c-0.66-6.26-5.44-4.78-5.97-16.9c2.18,8.19,25.51,18.48,51.27,17.59
						c28.97-1.01,41.36,22.81,47.5,25.98c-8.03-1.25-22.79-7.49-37.81-5.36C323.16,436.88,281.37,427.37,282.18,413.6z"/>
					<path class="st25" d="M370.37,369.39c-1.65,10.13-22.89,22.24-31.39,24.58c21.07,4.32,25.34-8.36,46.55-7.65
						C396.86,386.7,397.78,370.3,370.37,369.39z"/>
					<path class="st26" d="M370.37,369.39c16.27,3.14,20.44,8.28,15.48,12.01c-3.81,2.87-15.6,4.32-15.67,7.04
						c0,0,10.99-1.61,17.23-1.4C398.74,387.42,397.78,370.3,370.37,369.39z"/>
				</g>
				<path class="st24" d="M361.18,413.24c2.46,3.74,8.33,13.65,8.42,14.33c7.41-0.24,21.27-4.36,21.77-5.14
					c3.65-8.64,9.76-10.83,10.91-21.16C403.29,392.13,380.18,415.28,361.18,413.24z"/>
				<path class="st25" d="M361.37,413.54c15.59-4.14,21.61-9.31,23.84-14.22c1.02-4.75,3.04-7.03,3.54-7.81
					c5.91,0.4,14.91,0.64,13.52,9.76C400.89,410.39,373.21,412.73,361.37,413.54z"/>
				<path class="st23" d="M361.37,413.54c15.59-4.14,21.61-9.31,23.84-14.22c1.02-4.75,3.04-7.03,3.54-7.81l1.06-1.93
					c-10.08,2.11-4.49,16.54-31.54,19.69L361.37,413.54z"/>
				<path class="st23" d="M282.18,413.6c-0.33-3.13-1.69-4.33-3.03-6.25c29.15,12.71,3.81,18.52,56.51,23.48
					c28.51,2.68,33.19,6.28,39.33,9.44c-8.03-1.25-22.79-7.49-37.81-5.36C323.16,436.88,281.37,427.37,282.18,413.6z"/>
			</g>
		</g>
		<g>
			<path class="st17" d="M272.44,441.86c6.61,2.99-0.08,7.28-15.01,10.31c17.72-1.77,34.91-4.69,41.52-1.7
				c7.66,3.47,7.41,11.33-26.14,16.99c-42.62,7.19-96.73,4.79-99.38-2.37c-2.94-4.91,9.34-18.33,48.55-24.14
				C242.17,437.96,264.78,438.39,272.44,441.86z"/>
			<path class="st19" d="M269.76,432.89c6.25,2.83-3.75,8.89-17.88,11.76c16.77-1.67,32.5-15.05,36.27-9.31
				c1.17,1.77,6.64,17.52,6.95,18.12c1.65,3.12-7.71,6.96-23.74,9.32c-40.46,5.94-77.97,3.88-94.76-0.44
				c-3.9-7.43-0.45-18.63,0.68-19.63c13.43-11.97,88.02-17.88,88.02-17.88C268.11,428.17,269.26,432.66,269.76,432.89z"/>
			<path class="st20" d="M263.3,423.25c5.56,2.52-0.07,6.13-12.64,8.68c14.92-1.49,29.85-0.89,35.41,1.62
				c6.45,2.92-2.12,7.31-19.15,9.81c-36.01,5.29-77.83-0.45-89.64-0.66c1.9-2.61,10.5-15.33,43.51-20.22
				C237.82,419.97,256.85,420.33,263.3,423.25z"/>
			<g>
				<g>
					<path class="st21" d="M219.96,424.74c15.7-2.32,33.26-1.99,39.21,0.7c2.74,1.24,2.46,2.76-0.07,4.27
						c6.29-2.17,8.28-4.61,4.2-6.46c-6.45-2.92-25.48-3.28-42.5-0.76c-33.01,4.89-41.61,17.61-43.51,20.22
						c0.83,0.01,1.83,0.06,2.94,0.13C182.65,439.55,191.4,428.96,219.96,424.74z"/>
				</g>
				<g>
					<path class="st21" d="M286.07,433.56c-5.06-2.29-17.86-2.97-31.36-1.96c-2,0.65-4.4,1.28-7.2,1.85
						c13.77-1.37,27.53-0.82,32.67,1.5c5.75,2.6-1.51,6.46-16.15,8.8c0.97-0.13,1.94-0.23,2.9-0.37
						C283.95,440.87,292.52,436.48,286.07,433.56z"/>
				</g>
			</g>
		</g>
		<g>
			<path class="st22" d="M237.06,497.34c-2.17,0.96-4.62,1.55-7.35,1.62c-17.26,0.48-33.15,2.09-50.48-0.82
				c-7.92-1.33-15.78-2.96-23.6-4.74h-22.71c-3.14,3.48-9.91,0.04-9.38,5.05c-0.86,14.63,45.74,24.87,60.61,22.76
				c15.96-2.26,34.6,4.32,43.13,5.65c-1.47-4.49-5.45-13.25-5.82-13.66c7.87-0.26,22.28-5.16,22.81-5.99
				C247.21,500.28,242.82,498.43,237.06,497.34z"/>
			<g>
				<g>
					<path class="st23" d="M135.64,476.99c10.24-6.2,4.17-15.55,9.24-17.49c15.16,3.91,66.3-20.4,74.26-11.49
						c0,0,19.82,23.17-20.31,43.65C183.43,474.92,124.61,485.79,135.64,476.99z"/>
					<path class="st24" d="M223.41,502.07c-47.53,24.77-48.19-18.88-37.61-27.95c18-1.84,26.92-8.88,49.45-8.13
						c3.6,0.12,7.64-0.45,8.75-2.6C230.67,479.8,235.9,494.37,223.41,502.07z"/>
					<path class="st23" d="M158.1,428.61c10.24-6.2,9.34-9.52,20.46-6.65c15.16,3.91,26.66,0.64,34.61,9.55
						c0,0-10.15,18.38-20.65,21.72C177.13,436.49,147.07,437.41,158.1,428.61z"/>
					<path class="st25" d="M157.21,429c-4.14,2.26-13.23,5.35-13.92,9.34c3.96-2.31,9.03-6.63,28.99,8.64
						c20.73,15.87,52.85,1.41,44.27-11.09c-11.51-16.77-11.93-1.31-14.25-0.36C167.37,449.95,165.65,424.39,157.21,429z"/>
					<g>
						<path class="st25" d="M188.01,393.31c-14.29,23.15,13.41,21.42,14.23,41.16C217.48,403.7,176.15,417.64,188.01,393.31z"/>
						<path class="st24" d="M188.01,393.31c-11.98,19.87,15.16,23.35,14.23,41.16C179.14,424.02,171.72,412.17,188.01,393.31z"/>
						<path class="st25" d="M188.01,393.31c-25.14,17.11-32.66,32.56-7.24,39.11c15.16,3.91,17.34-0.86,21.47,2.05
							c0,0,2.05-5.69-7.3-10.06C184.2,419.39,174,411.03,188.01,393.31z"/>
						<path class="st26" d="M186.77,394.33c-5.08,5.61-31.7,20.57,5.34,34.64C174.73,417.24,174.77,409.55,186.77,394.33z"/>
						<path class="st24" d="M165.11,419.03c-0.18,5.56,4.67,10.04,15.79,12.9c15.16,3.91,16.55-0.76,21.34,2.54
							c0,0-3.34,0.65-13.84,3.99C177.23,442.02,161.42,433.12,165.11,419.03z"/>
						<path class="st26" d="M188.01,393.31c-6,16.06,13.08,11.28,17.03,25.8C201,408.14,178.39,412.69,188.01,393.31z"/>
					</g>
					<path class="st24" d="M144.98,458.8c2.76-6.59-2.81-19.81-1.68-20.47c3.96-2.31,9.02-7.85,28.97,7.42
						c20.73,15.87,52.86,2.63,44.28-9.87c7.41,8.62-5.81,20.43-7.75,22.08C177.1,484.83,142.96,463.62,144.98,458.8z"/>
					<path class="st25" d="M144.54,459.49c-13.87-0.46-21.36,6.27-25.22,14.52c-3.86,8.25,22.87,24.84,53.65,23.77
						c30.78-1.07,44.55,22.16,51.07,25.52c-4.73-14.47-20.04-41.94-33.4-46.22C177.27,472.79,143.68,474.12,144.54,459.49z"/>
					<path class="st26" d="M143.29,438.33c3.96-2.31,9.02-6.31,28.97,8.96c20.73,15.87,54.24,0.94,44.29-11.41
						c5.03,10.57-18.4,12.33-33.93,7.77C165.98,438.77,149.84,430.1,143.29,438.33z"/>
					<path class="st26" d="M214.87,510.16c-2.61-3.27-23.38-19.62-52.1-21.13c-27.18-1.43-57.56-21.6-22.72-28.47
						c-9.61,8.44,2.28,18.17,18.68,19.64C177.31,481.87,192.78,474.01,214.87,510.16z"/>
					<path class="st24" d="M125.47,494.97c-0.7-6.65-5.78-5.08-6.34-17.95c2.31,8.69,27.1,19.63,54.46,18.68
						c30.78-1.07,43.93,24.23,50.45,27.59c-8.53-1.33-24.2-7.96-40.16-5.7C169,519.7,124.61,509.6,125.47,494.97z"/>
					<path class="st25" d="M219.14,448.01c-1.75,10.76-24.31,23.62-33.34,26.11c22.38,4.58,26.92-8.88,49.45-8.13
						C247.28,466.4,248.26,448.98,219.14,448.01z"/>
					<path class="st26" d="M219.14,448.01c17.28,3.34,21.71,8.79,16.44,12.76c-4.05,3.05-16.57,4.59-16.64,7.47
						c0,0,11.68-1.71,18.3-1.49C249.27,467.16,248.26,448.98,219.14,448.01z"/>
				</g>
				<path class="st24" d="M209.38,494.59c2.61,3.97,8.85,14.5,8.95,15.22c7.87-0.26,22.59-4.63,23.12-5.46
					c3.88-9.18,10.37-11.51,11.58-22.47C254.11,472.17,229.56,496.76,209.38,494.59z"/>
				<path class="st25" d="M209.59,494.91c16.56-4.4,22.96-9.89,25.33-15.1c1.08-5.04,3.23-7.47,3.76-8.3
					c6.28,0.42,15.83,0.68,14.36,10.37C251.56,491.56,222.15,494.05,209.59,494.91z"/>
				<path class="st23" d="M209.59,494.91c16.56-4.4,22.96-9.89,25.33-15.1c1.08-5.04,3.23-7.47,3.76-8.3l1.13-2.05
					c-10.71,2.25-4.77,17.56-33.5,20.91L209.59,494.91z"/>
				<path class="st23" d="M125.47,494.97c-0.35-3.33-1.79-4.6-3.22-6.64c30.96,13.5,4.05,19.67,60.02,24.94
					c30.28,2.85,35.25,6.67,41.77,10.03c-8.53-1.33-24.2-7.96-40.16-5.7C169,519.7,124.61,509.6,125.47,494.97z"/>
			</g>
		</g>
		<g>
			<path class="st22" d="M504.76,530.11c-2.17,0.96-4.62,1.55-7.35,1.62c-17.26,0.48-33.15,2.09-50.48-0.82
				c-7.92-1.33-15.78-2.96-23.6-4.74h-22.71c-3.14,3.48-9.91,0.04-9.38,5.05c-0.86,14.63,45.74,24.87,60.61,22.76
				c15.96-2.26,34.6,4.32,43.13,5.65c-1.47-4.49-5.45-13.25-5.82-13.66c7.87-0.26,22.28-5.16,22.81-5.98
				C514.9,533.05,510.52,531.21,504.76,530.11z"/>
			<g>
				<g>
					<path class="st23" d="M403.34,509.76c10.24-6.2,4.17-15.55,9.24-17.49c15.16,3.91,66.3-20.4,74.26-11.49
						c0,0,19.82,23.17-20.31,43.65C451.13,507.69,392.31,518.56,403.34,509.76z"/>
					<path class="st24" d="M491.11,534.85c-47.53,24.77-48.19-18.88-37.61-27.95c17.99-1.84,26.92-8.88,49.45-8.13
						c3.6,0.12,7.64-0.45,8.75-2.6C498.36,512.58,503.6,527.15,491.11,534.85z"/>
					<path class="st23" d="M425.8,461.38c10.24-6.2,9.34-9.52,20.46-6.65c15.16,3.91,26.66,0.64,34.61,9.55
						c0,0-10.15,18.38-20.65,21.72C444.83,469.26,414.77,470.18,425.8,461.38z"/>
					<path class="st25" d="M424.91,461.77c-4.14,2.26-13.23,5.35-13.92,9.34c3.96-2.31,9.03-6.63,28.99,8.64
						c20.73,15.87,52.85,1.41,44.27-11.09c-11.51-16.77-11.93-1.31-14.25-0.36C435.06,482.73,433.34,457.16,424.91,461.77z"/>
					<g>
						<path class="st25" d="M455.71,426.09c-14.29,23.15,13.41,21.42,14.23,41.16C485.17,436.48,443.85,450.41,455.71,426.09z"/>
						<path class="st24" d="M455.71,426.09c-11.98,19.87,15.16,23.35,14.23,41.16C446.84,456.8,439.42,444.95,455.71,426.09z"/>
						<path class="st25" d="M455.71,426.09c-25.14,17.11-32.66,32.56-7.24,39.11c15.16,3.91,17.33-0.86,21.47,2.05
							c0,0,2.05-5.69-7.3-10.06C451.9,452.16,441.7,443.81,455.71,426.09z"/>
						<path class="st26" d="M454.46,427.1c-5.08,5.61-31.7,20.57,5.34,34.63C442.43,450.01,442.47,442.33,454.46,427.1z"/>
						<path class="st24" d="M432.81,451.8c-0.18,5.56,4.67,10.04,15.79,12.9c15.16,3.91,16.55-0.76,21.34,2.54
							c0,0-3.34,0.65-13.84,3.99C444.93,474.79,429.12,465.89,432.81,451.8z"/>
						<path class="st26" d="M455.71,426.09c-6,16.06,13.08,11.28,17.03,25.8C468.7,440.91,446.09,445.47,455.71,426.09z"/>
					</g>
					<path class="st24" d="M412.67,491.58c2.77-6.59-2.81-19.81-1.68-20.47c3.96-2.31,9.02-7.85,28.97,7.42
						c20.73,15.87,52.86,2.63,44.28-9.87c7.41,8.62-5.81,20.43-7.75,22.08C444.79,517.6,410.65,496.4,412.67,491.58z"/>
					<path class="st25" d="M412.24,492.26c-13.87-0.46-21.36,6.27-25.22,14.52c-3.86,8.25,22.87,24.84,53.65,23.77
						s44.55,22.16,51.07,25.52c-4.73-14.47-20.04-41.94-33.4-46.22C444.97,505.57,411.38,506.89,412.24,492.26z"/>
					<path class="st26" d="M410.99,471.11c3.96-2.31,9.02-6.31,28.97,8.96c20.73,15.87,54.24,0.94,44.29-11.41
						c5.03,10.58-18.4,12.33-33.93,7.77C433.68,471.54,417.54,462.87,410.99,471.11z"/>
					<path class="st26" d="M482.57,542.94c-2.61-3.27-23.38-19.62-52.1-21.13c-27.18-1.43-57.56-21.6-22.72-28.47
						c-9.61,8.44,2.28,18.17,18.68,19.64C445.01,514.64,460.48,506.78,482.57,542.94z"/>
					<path class="st24" d="M393.17,527.75c-0.7-6.65-5.78-5.08-6.34-17.95c2.31,8.69,27.1,19.63,54.46,18.68
						c30.77-1.07,43.93,24.23,50.45,27.59c-8.53-1.33-24.2-7.96-40.16-5.7C436.7,552.48,392.3,542.38,393.17,527.75z"/>
					<path class="st25" d="M486.84,480.78c-1.75,10.76-24.31,23.62-33.34,26.11c22.38,4.58,26.92-8.88,49.45-8.13
						C514.98,499.17,515.96,481.75,486.84,480.78z"/>
					<path class="st26" d="M486.84,480.78c17.28,3.34,21.71,8.79,16.44,12.76c-4.05,3.05-16.57,4.59-16.64,7.47
						c0,0,11.68-1.71,18.3-1.48C516.97,499.93,515.96,481.75,486.84,480.78z"/>
				</g>
				<path class="st24" d="M477.08,527.36c2.61,3.97,8.85,14.5,8.95,15.22c7.87-0.26,22.59-4.63,23.12-5.46
					c3.88-9.18,10.37-11.51,11.58-22.47C521.81,504.95,497.26,529.53,477.08,527.36z"/>
				<path class="st25" d="M477.28,527.68c16.56-4.4,22.96-9.89,25.33-15.1c1.08-5.04,3.23-7.47,3.76-8.3
					c6.28,0.42,15.83,0.68,14.36,10.37C519.26,524.33,489.85,526.83,477.28,527.68z"/>
				<path class="st23" d="M477.28,527.68c16.56-4.4,22.96-9.89,25.33-15.1c1.08-5.04,3.23-7.47,3.76-8.3l1.13-2.05
					c-10.71,2.25-4.77,17.56-33.5,20.91L477.28,527.68z"/>
				<path class="st23" d="M393.17,527.75c-0.35-3.33-1.79-4.6-3.22-6.64c30.96,13.5,4.05,19.67,60.02,24.94
					c30.28,2.85,35.25,6.67,41.77,10.03c-8.53-1.33-24.2-7.96-40.16-5.7C436.7,552.48,392.3,542.38,393.17,527.75z"/>
			</g>
		</g>
		<g>
			<path class="st22" d="M793.84,529.72c-2.17,0.96-4.62,1.55-7.35,1.62c-17.26,0.48-33.15,2.09-50.48-0.82
				c-7.92-1.33-15.78-2.96-23.6-4.74H689.7c-3.14,3.48-9.91,0.04-9.38,5.05c-0.86,14.63,45.74,24.87,60.61,22.76
				c15.96-2.26,34.6,4.32,43.13,5.65c-1.47-4.49-5.45-13.25-5.82-13.66c7.87-0.26,22.28-5.16,22.81-5.99
				C803.99,532.66,799.61,530.81,793.84,529.72z"/>
			<g>
				<g>
					<path class="st23" d="M692.43,509.37c10.24-6.2,4.17-15.55,9.24-17.49c15.16,3.91,66.3-20.4,74.26-11.49
						c0,0,19.82,23.17-20.31,43.65C740.22,507.3,681.39,518.17,692.43,509.37z"/>
					<path class="st24" d="M780.2,534.45c-47.53,24.77-48.19-18.88-37.61-27.95c18-1.84,26.92-8.88,49.45-8.13
						c3.6,0.12,7.64-0.45,8.75-2.6C787.45,512.18,792.69,526.75,780.2,534.45z"/>
					<path class="st23" d="M714.89,460.99c10.24-6.2,9.34-9.52,20.46-6.65c15.16,3.91,26.66,0.64,34.61,9.55
						c0,0-10.15,18.38-20.65,21.72C733.91,468.87,703.85,469.79,714.89,460.99z"/>
					<path class="st25" d="M714,461.37c-4.14,2.26-13.23,5.35-13.92,9.34c3.96-2.31,9.03-6.63,28.99,8.64
						c20.73,15.87,52.85,1.41,44.27-11.09c-11.51-16.77-11.93-1.31-14.25-0.36C724.15,482.33,722.43,456.77,714,461.37z"/>
					<g>
						<path class="st25" d="M744.79,425.69c-14.29,23.15,13.41,21.42,14.23,41.16C774.26,436.08,732.93,450.02,744.79,425.69z"/>
						<path class="st24" d="M744.79,425.69c-11.98,19.87,15.16,23.35,14.23,41.16C735.93,456.4,728.51,444.55,744.79,425.69z"/>
						<path class="st25" d="M744.79,425.69c-25.14,17.11-32.66,32.56-7.24,39.11c15.16,3.91,17.33-0.86,21.47,2.05
							c0,0,2.05-5.69-7.3-10.06C740.98,451.77,730.79,443.41,744.79,425.69z"/>
						<path class="st26" d="M743.55,426.71c-5.08,5.61-31.7,20.57,5.34,34.64C731.52,449.61,731.55,441.93,743.55,426.71z"/>
						<path class="st24" d="M721.89,451.41c-0.18,5.56,4.67,10.04,15.79,12.9c15.16,3.91,16.55-0.76,21.34,2.54
							c0,0-3.34,0.65-13.84,3.99C734.02,474.4,718.21,465.5,721.89,451.41z"/>
						<path class="st26" d="M744.79,425.69c-6,16.06,13.08,11.28,17.03,25.8C757.78,440.52,735.18,445.07,744.79,425.69z"/>
					</g>
					<path class="st24" d="M701.76,491.18c2.76-6.59-2.81-19.81-1.68-20.47c3.96-2.31,9.02-7.85,28.97,7.42
						c20.73,15.87,52.86,2.63,44.28-9.87c7.41,8.62-5.81,20.43-7.75,22.08C733.88,517.21,699.74,496,701.76,491.18z"/>
					<path class="st25" d="M701.32,491.87c-13.87-0.46-21.36,6.27-25.22,14.52c-3.86,8.25,22.87,24.84,53.65,23.77
						c30.78-1.07,44.55,22.16,51.07,25.52c-4.73-14.47-20.04-41.94-33.4-46.22C734.05,505.17,700.46,506.5,701.32,491.87z"/>
					<path class="st26" d="M700.08,470.71c3.96-2.31,9.02-6.31,28.97,8.96c20.73,15.87,54.24,0.94,44.29-11.41
						c5.03,10.57-18.4,12.33-33.93,7.77C722.76,471.15,706.62,462.48,700.08,470.71z"/>
					<path class="st26" d="M771.66,542.54c-2.61-3.27-23.38-19.62-52.1-21.13c-27.18-1.43-57.56-21.6-22.72-28.47
						c-9.61,8.44,2.28,18.17,18.68,19.64C734.09,514.25,749.56,506.39,771.66,542.54z"/>
					<path class="st24" d="M682.25,527.35c-0.7-6.65-5.78-5.08-6.34-17.95c2.31,8.69,27.1,19.63,54.46,18.68
						c30.78-1.07,43.93,24.23,50.45,27.59c-8.53-1.33-24.2-7.96-40.16-5.7C725.78,552.08,681.39,541.98,682.25,527.35z"/>
					<path class="st25" d="M775.93,480.39c-1.75,10.76-24.31,23.62-33.34,26.11c22.38,4.58,26.92-8.88,49.45-8.13
						C804.07,498.78,805.04,481.36,775.93,480.39z"/>
					<path class="st26" d="M775.93,480.39c17.28,3.34,21.71,8.79,16.44,12.76c-4.05,3.05-16.57,4.59-16.64,7.47
						c0,0,11.68-1.71,18.3-1.49C806.05,499.54,805.04,481.36,775.93,480.39z"/>
				</g>
				<path class="st24" d="M766.16,526.97c2.61,3.97,8.85,14.5,8.95,15.22c7.87-0.26,22.59-4.63,23.12-5.46
					c3.88-9.18,10.37-11.51,11.58-22.47C810.89,504.55,786.34,529.14,766.16,526.97z"/>
				<path class="st25" d="M766.37,527.28c16.56-4.4,22.96-9.89,25.33-15.1c1.08-5.04,3.23-7.47,3.76-8.3
					c6.28,0.42,15.83,0.68,14.36,10.37C808.34,523.94,778.94,526.43,766.37,527.28z"/>
				<path class="st23" d="M766.37,527.28c16.56-4.4,22.96-9.89,25.33-15.1c1.08-5.04,3.23-7.47,3.76-8.3l1.13-2.05
					c-10.71,2.25-4.77,17.56-33.5,20.91L766.37,527.28z"/>
				<path class="st23" d="M682.25,527.35c-0.35-3.33-1.79-4.6-3.22-6.64c30.96,13.5,4.05,19.67,60.02,24.94
					c30.28,2.85,35.25,6.67,41.77,10.03c-8.53-1.33-24.2-7.96-40.16-5.7C725.78,552.08,681.39,541.98,682.25,527.35z"/>
			</g>
		</g>
		<g>
			<g>
				<path class="st17" d="M332.43,491.46c3.58,7.36,7.56,17.43,6.91,20.83c-0.51,2.62-12.18,3.95-16.16,6.27
					c13.32-3.43,40.25-16.93,43.61-7.1c2.56,7.5,12.03,11.25,11.2,14.74c-0.83,3.49-4.44,11.96-15.73,16.43
					c-33.11,13.11-86.24,7.65-100.67-1.09c-7.12-6.14-8.72-15.65-6.61-25.6c1.27-5.98,12.9-18.24,19.67-22.33
					C296.84,478.91,327.13,480.56,332.43,491.46z"/>
				<path class="st19" d="M333.5,485.36c3.32,7.31,5.01,11.45,4.36,14.85c-0.5,2.62-9.6,9.94-13.4,12.29
					c12.65-3.56,44.18-18.15,47.27-8.37c2.35,7.46,4.54,16.9,3.72,20.39c-0.82,3.49-7.39,9.32-14.01,12.09
					c-28.01,11.75-92.94,6.54-97.69,1.43c-3.27-4.98-5.94-17.53-3.84-27.48c1.26-5.98,5.75-10.2,6.66-15.02
					C287.73,480.66,328.58,474.53,333.5,485.36z"/>
				<path class="st18" d="M267.39,493.62c2.8-1.97,10.48,0.35,13.98-1.26l-17.63,45.69c0,0,0.01,0,0,0
					c-4.58-5.22-5.94-17.53-3.84-27.48C261.16,504.58,263.94,498.7,267.39,493.62z"/>
				<path class="st18" d="M363.55,514.17c1.86,6.22,3.54,12.28,5.04,18.3c3.6-2.69,6.34-5.77,6.85-7.94
					c0.82-3.49-1.37-12.93-3.72-20.39c-0.98-3.11-5.68-1.82-11.45,0.19C361.39,507.59,362.51,510.87,363.55,514.17z"/>
				<path class="st20" d="M327.16,479.84c9.27,4.4,9.01,11.42,0.27,16.84c12.65-3.56,28.38-3.24,37.65,1.15
					c10.74,5.1,8.72,13.73-4.53,19.29c-28.01,11.75-78.13,3.27-90.19,3.5c1.26-5.36-18.26-26.68,13.37-39.95
					C296.98,475.12,316.42,474.74,327.16,479.84z"/>
			</g>
			<g>
				<path class="st21" d="M285.52,488.71c13.24-5.56,32.68-5.93,43.43-0.83c1.85,0.88,3.21,1.88,4.31,2.93
					c1.92-3.99,0.05-8.05-6.09-10.97c-10.74-5.1-30.19-4.72-43.43,0.83c-21.21,8.9-19.41,21.4-16.31,30.3
					C266.9,503.49,270.17,495.15,285.52,488.71z"/>
			</g>
		</g>
		<g>
			<g>
				<path class="st17" d="M613.9,500.79c3.63,7.47,7.67,17.68,7,21.13c-0.51,2.65-12.35,4-16.4,6.36
					c13.51-3.48,33.69-6.94,44.23-7.2c8.96-0.22,12.2,11.41,11.36,14.95c-0.84,3.54-4.5,12.13-15.95,16.66
					c-33.59,13.3-87.47,7.76-102.1-1.11c-7.22-6.23-8.84-15.88-6.7-25.97c1.29-6.07,13.08-18.5,19.95-22.65
					C577.81,488.06,608.52,489.73,613.9,500.79z"/>
				<path class="st19" d="M613.88,495.34c3.32,7.32,5.02,11.46,4.36,14.86c-0.51,2.62-9.61,9.95-13.41,12.31
					c12.66-3.56,44.23-18.17,47.32-8.38c2.36,7.47,4.54,16.92,3.72,20.41c-0.82,3.49-7.39,9.33-14.02,12.11
					c-28.04,11.76-93.04,6.54-97.8,1.43c-3.28-4.98-5.94-17.55-3.84-27.51c1.26-5.99,5.76-10.22,6.66-15.03
					C568.07,490.63,608.97,484.5,613.88,495.34z"/>
				<path class="st18" d="M547.71,503.61c2.81-1.98,10.49,0.35,14-1.26l-17.65,45.74c-0.01,0,0.01,0,0.01,0
					c-4.59-5.23-5.95-17.55-3.85-27.51C541.47,514.58,544.26,508.69,547.71,503.61z"/>
				<path class="st18" d="M643.97,524.18c1.87,6.23,3.54,12.29,5.05,18.32c3.6-2.69,6.35-5.77,6.86-7.95
					c0.82-3.49-1.37-12.94-3.73-20.41c-0.98-3.11-5.68-1.82-11.46,0.19C641.81,517.6,642.93,520.88,643.97,524.18z"/>
				<path class="st20" d="M607.55,489.82c9.28,4.4,9.02,11.43,0.27,16.86c12.66-3.56,28.41-3.25,37.69,1.16
					c10.75,5.1,8.73,13.75-4.53,19.31c-28.04,11.76-78.22,3.28-90.29,3.51c1.26-5.36-18.28-26.71,13.38-40
					C577.33,485.09,596.79,484.71,607.55,489.82z"/>
			</g>
			<g>
				<path class="st21" d="M565.86,498.69c13.26-5.56,32.72-5.94,43.48-0.83c1.85,0.88,3.21,1.88,4.31,2.93
					c1.92-3.99,0.05-8.06-6.1-10.98c-10.75-5.1-30.22-4.73-43.48,0.83c-21.24,8.91-19.43,21.43-16.33,30.33
					C547.22,513.49,550.49,505.14,565.86,498.69z"/>
			</g>
		</g>
	</g>
	<g>
		<path class="st17" d="M316.82,465.11c0.1,0.91-2.11,1.89-4.92,2.18c-2.81,0.3-5.17-0.2-5.27-1.11c-0.1-0.91,2.11-1.89,4.92-2.18
			C314.37,463.71,316.73,464.2,316.82,465.11z"/>
		<g>
			<g>
				<path class="st27" d="M313.99,463.99c0.35,0.52-0.26,1.55-1.36,2.29l0,0c-1.1,0.74-2.28,0.92-2.63,0.4L200.06,303.24
					c-0.35-0.52,0.26-1.55,1.36-2.29l0,0c1.1-0.74,2.28-0.92,2.63-0.4L313.99,463.99z"/>
				<path class="st28" d="M311.75,464.5c0.24,0.36,0.15,0.85-0.21,1.09l0,0c-0.36,0.24-0.85,0.15-1.09-0.21L207.76,312.74
					c-0.24-0.36-0.15-0.85,0.21-1.09l0,0c0.36-0.24,0.85-0.15,1.09,0.21L311.75,464.5z"/>
			</g>
			<g>
				<path class="st29" d="M171.64,243.06l20.26,11.6l21.05-10.11c8.5-4.09,13.83,0.09,11.9,9.32l-4.78,22.85l16.12,16.89
					c6.51,6.83,4.19,13.18-5.19,14.2l-23.21,2.52l-11.08,20.55c-4.48,8.3-11.24,8.06-15.11-0.55l-9.57-21.3l-22.97-4.19
					c-9.28-1.69-11.14-8.2-4.15-14.54l17.3-15.68l-3.11-23.14C157.84,242.15,163.45,238.37,171.64,243.06z"/>
				<path class="st30" d="M195.72,300.8c-1.89,5.17-3.44,10.67-4.32,16.08c-0.44,2.67,0.38,6.26-1.91,8.31
					c-2.75,2.47-5.2-2.51-6.23-4.55c-2.11-4.16-3.02-9.07-5.95-12.79c-3.41-4.34-7.53-3.58-12.4-4.03
					c-2.83-0.27-5.38-0.86-8.13-1.36c-2.34-0.42-6.93,0.48-8.54-1.82c-1.75-2.48,3.82-6.54,5.39-7.82c3.34-2.74,6.43-5.85,9.72-8.65
					c2.14-1.82,6.3-4.09,6.97-6.87c0.72-2.98,0.12-7.83-0.22-10.89c-0.46-4.13-2.07-8.26-3.16-12.27c-1.1-4.07-1.07-6.54,3.68-4.42
					c4.49,2,8.6,4.94,12.56,7.83c4.46,3.26,8.94,5.25,13.97,2.36c2.85-1.64,5.9-2.69,8.9-3.99c2.23-0.97,5.75-3.31,8.28-2.99
					c3.66,0.47,0.49,4.97-0.71,6.65c-2.59,3.64-4.95,7.45-7.17,11.32c-1.27,2.22-2.86,4.3-3.77,6.7c-0.81,2.12-0.5,4.23-1,6.43
					c-1.17,5.1-3.3,9.91-5.2,14.76C196.22,299.47,195.96,300.13,195.72,300.8z"/>
				<path class="st31" d="M168.47,276.15c-0.78,1.86-2.28,3.43-4.44,4.82c-7.49,4.81-12.79,11.58-19.67,17.12
					c-1.1-1.89,1.33-4.17,2.69-5.4c4.98-4.51,9.81-9.28,14.93-13.62c4.23-3.58,2.99-6.88,2.42-11.73
					c-0.52-4.41-1.12-8.82-1.75-13.22c-0.14-1.01-0.27-2.03-0.41-3.04c-0.26-1.9-0.51-5.05,1.34-6.29c0.47,1.63,0.28,3.84,0.55,5.63
					c0.3,2.01,0.71,4,1,6.01c0.69,4.73,2.22,8.87,3.48,13.44C169.29,272.3,169.22,274.36,168.47,276.15z"/>
				<path class="st32" d="M205.39,306.18c1.74-1.02,3.89-1.36,6.45-1.16c8.87,0.68,17.18-1.51,26.02-1.78
					c-0.26,2.18-3.58,2.52-5.41,2.68c-6.7,0.59-13.43,1.48-20.13,1.84c-5.54,0.3-6.54,3.68-9.02,7.89
					c-2.25,3.83-4.43,7.71-6.59,11.6c-0.5,0.89-1.01,1.78-1.51,2.67c-0.94,1.67-2.64,4.33-4.86,4.21c0.61-1.59,2.09-3.23,2.96-4.82
					c0.98-1.78,1.85-3.61,2.83-5.39c2.31-4.19,3.59-8.41,5.34-12.82C202.41,308.76,203.72,307.16,205.39,306.18z"/>
				<path class="st31" d="M205.29,252.89c1.25-0.56,2.51-1.11,3.79-1.65c3.38-1.45,6.06-3.1,9.73-3.64c1.51-0.22,6.18-1.02,3.1-2.98
					c-4.02-2.57-10.57,1.93-13.82,3.83c-2.49,1.46-5.18,2.66-7.77,3.99c-0.71,0.37-8,3.44-6.96,4.2c1.82,1.34,5.16-0.51,6.86-1.36
					C201.91,254.43,203.59,253.65,205.29,252.89z"/>
				<path class="st31" d="M179.6,317.05c0.6,1.23,1.22,2.46,1.85,3.7c1.67,3.27,2.67,6.26,5.14,9.03c1.02,1.14,4.09,4.74,0.47,4.28
					c-4.73-0.61-6.89-8.25-8.16-11.79c-0.98-2.72-2.28-5.36-3.41-8.04c-0.31-0.74-3.94-7.77-2.65-7.69c2.26,0.14,3.64,3.69,4.4,5.44
					C178,313.7,178.79,315.38,179.6,317.05z"/>
				<path class="st32" d="M221.49,261.35c-0.35,1.33-0.69,2.66-1.02,4.01c-0.88,3.57-2.07,6.48-2.01,10.2
					c0.02,1.53,0,6.26-2.44,3.54c-3.19-3.55,0.18-10.75,1.53-14.26c1.03-2.7,1.78-5.55,2.68-8.31c0.25-0.76,2.09-8.46,3.02-7.55
					c1.62,1.58,0.34,5.17-0.22,6.99C222.46,257.76,221.96,259.55,221.49,261.35z"/>
			</g>
		</g>
	</g>
	<g>
		<path class="st17" d="M658.41,411.56c0.01,0.91-2.28,1.68-5.11,1.71c-2.83,0.03-5.13-0.69-5.14-1.6
			c-0.01-0.91,2.28-1.68,5.11-1.71C656.1,409.92,658.4,410.64,658.41,411.56z"/>
		<g>
			<g>
				<path class="st27" d="M656.05,412.1c-0.14,0.61-1.3,0.88-2.59,0.59l0,0c-1.3-0.29-2.24-1.02-2.1-1.63l42.72-192.28
					c0.14-0.61,1.3-0.88,2.59-0.59l0,0c1.3,0.29,2.23,1.02,2.1,1.63L656.05,412.1z"/>
				<path class="st28" d="M654.13,410.83c-0.09,0.42-0.51,0.69-0.94,0.6l0,0c-0.42-0.09-0.69-0.51-0.6-0.94l39.9-179.58
					c0.09-0.42,0.51-0.69,0.94-0.6l0,0c0.42,0.09,0.69,0.51,0.6,0.94L654.13,410.83z"/>
			</g>
			<g>
				<path class="st33" d="M718.11,156.72l5.55,22.68l21.83,8.29c8.82,3.35,9.47,10.09,1.44,15.05l-19.85,12.28l-1.14,23.32
					c-0.46,9.42-6.67,12.12-13.87,6.02l-17.82-15.09l-22.53,6.12c-9.1,2.47-13.59-2.6-10.01-11.33l8.84-21.61l-12.79-19.53
					c-5.17-7.89-1.73-13.73,7.68-13.02l23.28,1.73l14.63-18.2C709.26,146.08,715.87,147.55,718.11,156.72z"/>
				<path class="st34" d="M692.85,213.95c-5.05,2.19-10.1,4.86-14.63,7.94c-2.24,1.52-4.28,4.58-7.34,4.34
					c-3.69-0.29-1.76-5.5-1-7.65c1.56-4.39,4.49-8.44,5.17-13.12c0.79-5.46-2.6-7.92-5.62-11.77c-1.76-2.24-3.08-4.49-4.62-6.83
					c-1.3-1.99-5.12-4.69-4.57-7.44c0.59-2.98,7.37-1.73,9.38-1.48c4.29,0.53,8.67,0.63,12.96,1.09c2.79,0.3,7.3,1.75,9.78,0.32
					c2.65-1.53,5.76-5.3,7.74-7.66c2.67-3.18,4.56-7.19,6.72-10.74c2.19-3.6,4.01-5.28,5.74-0.38c1.64,4.63,2.35,9.64,2.98,14.49
					c0.71,5.47,2.35,10.1,7.91,11.75c3.15,0.93,6.01,2.42,9.03,3.7c2.24,0.95,6.36,1.88,7.87,3.94c2.18,2.97-3.26,3.78-5.31,4.07
					c-4.42,0.63-8.81,1.54-13.15,2.6c-2.48,0.61-5.09,0.89-7.46,1.88c-2.09,0.88-3.41,2.56-5.36,3.71
					c-4.51,2.66-9.46,4.43-14.28,6.4C694.16,213.39,693.5,213.67,692.85,213.95z"/>
				<path class="st35" d="M691.95,177.22c-1.89,0.72-4.06,0.71-6.55,0.1c-8.64-2.11-17.2-1.29-25.96-2.46
					c0.61-2.1,3.94-1.9,5.77-1.77c6.7,0.5,13.49,0.72,20.16,1.44c5.51,0.6,7.05-2.57,10.17-6.33c2.84-3.42,5.62-6.89,8.38-10.38
					c0.63-0.8,1.28-1.59,1.92-2.39c1.2-1.49,3.31-3.85,5.48-3.36c-0.86,1.47-2.59,2.85-3.7,4.27c-1.25,1.6-2.41,3.27-3.67,4.86
					c-2.96,3.76-4.9,7.72-7.35,11.78C695.31,175.16,693.76,176.53,691.95,177.22z"/>
				<path class="st18" d="M695.61,224.67c1.94,0.56,3.66,1.89,5.28,3.88c5.62,6.9,12.93,11.41,19.21,17.63
					c-1.76,1.31-4.29-0.86-5.67-2.07c-5.04-4.44-10.32-8.72-15.2-13.32c-4.03-3.8-7.17-2.21-11.93-1.1
					c-4.33,1.01-8.64,2.1-12.95,3.21c-0.99,0.25-1.98,0.49-2.97,0.74c-1.86,0.47-4.96,1.07-6.4-0.63c1.57-0.65,3.79-0.71,5.53-1.17
					c1.96-0.52,3.89-1.15,5.86-1.66c4.63-1.21,8.57-3.2,12.97-4.96C691.69,224.29,693.75,224.13,695.61,224.67z"/>
				<path class="st35" d="M734.17,187.87c1.27,0.52,2.53,1.06,3.81,1.61c3.37,1.45,6.42,2.26,9.35,4.54c1.2,0.94,5,3.77,4.3,0.19
					c-0.91-4.68-8.68-6.34-12.3-7.38c-2.77-0.8-5.49-1.93-8.25-2.88c-0.76-0.26-8.01-3.43-7.84-2.15c0.29,2.24,3.92,3.39,5.71,4.04
					C730.72,186.49,732.45,187.17,734.17,187.87z"/>
				<path class="st35" d="M669.97,213.47c-0.48,1.29-0.94,2.58-1.41,3.89c-1.22,3.46-2.7,6.25-3.01,9.95
					c-0.13,1.52-0.62,6.23-2.78,3.29c-2.82-3.85,1.24-10.68,2.92-14.04c1.29-2.58,2.31-5.34,3.48-8.01
					c0.32-0.74,2.91-8.21,3.74-7.22c1.45,1.73-0.17,5.18-0.91,6.94C671.29,209.99,670.62,211.72,669.97,213.47z"/>
				<path class="st18" d="M739.2,205.45c-1.2,0.66-2.4,1.34-3.61,2.02c-3.19,1.82-6.13,2.96-8.78,5.57
					c-1.09,1.07-4.54,4.31-4.25,0.67c0.38-4.76,7.91-7.27,11.39-8.72c2.67-1.11,5.24-2.53,7.87-3.79c0.73-0.35,7.57-4.31,7.55-3.02
					c-0.03,2.26-3.52,3.81-5.22,4.66C742.47,203.68,740.83,204.55,739.2,205.45z"/>
			</g>
		</g>
	</g>
	<g>
		<path class="st17" d="M842.27,479.25c-0.07,1.47-4.25,2.46-9.33,2.22c-5.08-0.24-9.14-1.63-9.07-3.1
			c0.07-1.47,4.25-2.46,9.33-2.22S842.34,477.78,842.27,479.25z"/>
		<g>
			<g>
				
					<linearGradient id="SVGID_00000049209057196978148000000001061063102155464363_" gradientUnits="userSpaceOnUse" x1="817.5118" y1="317.8461" x2="868.0139" y2="317.8461" gradientTransform="matrix(0.9899 0.1416 -0.1416 0.9899 82.0686 -85.8734)">
					<stop  offset="0.2129" style="stop-color:#57C6B5"/>
					<stop  offset="0.3012" style="stop-color:#34B4A7"/>
				</linearGradient>
				<path style="fill:url(#SVGID_00000049209057196978148000000001061063102155464363_);" d="M833.71,479.07
					c-0.26,0.83-1.89,1.06-3.64,0.51l0,0c-1.75-0.55-2.96-1.67-2.7-2.5l81.55-259.95c0.26-0.83,1.89-1.06,3.64-0.51l0,0
					c1.75,0.55,2.96,1.67,2.7,2.5L833.71,479.07z"/>
				<path class="st37" d="M831.21,477.09c-0.18,0.57-0.79,0.89-1.36,0.71l0,0c-0.57-0.18-0.89-0.79-0.71-1.36l76.17-242.78
					c0.18-0.57,0.79-0.89,1.36-0.71l0,0c0.57,0.18,0.89,0.79,0.71,1.36L831.21,477.09z"/>
			</g>
			<g>
				<path class="st38" d="M949.36,134.43l4.97,31.91l29.1,14c11.76,5.66,11.86,15.02,0.21,20.91l-28.81,14.59l-4.32,32
					c-1.75,12.93-10.62,15.92-19.82,6.66l-22.78-22.9l-31.77,5.78c-12.84,2.34-18.42-5.18-12.46-16.79l14.74-28.74l-15.32-28.43
					c-6.19-11.49-0.76-19.12,12.12-17.04l31.88,5.14l22.31-23.35C938.42,118.73,947.36,121.54,949.36,134.43z"/>
				<path class="st39" d="M907.79,210.33c-7.22,2.42-14.49,5.51-21.1,9.22c-3.26,1.84-6.44,5.81-10.63,5.12
					c-5.04-0.84-1.78-7.78-0.47-10.66c2.67-5.87,7.18-11.1,8.67-17.47c1.74-7.43-2.64-11.23-6.35-16.88
					c-2.16-3.29-3.72-6.55-5.56-9.96c-1.56-2.9-6.5-7.07-5.42-10.8c1.17-4.04,10.36-1.51,13.1-0.94c5.84,1.23,11.88,1.9,17.74,3.03
					c3.81,0.74,9.86,3.28,13.44,1.6c3.84-1.8,8.56-6.63,11.57-9.64c4.06-4.07,7.13-9.38,10.52-14.02c3.44-4.71,6.14-6.8,7.96,0.15
					c1.71,6.58,2.1,13.56,2.39,20.33c0.33,7.63,2.05,14.2,9.52,17.13c4.23,1.66,8,4.05,12,6.16c2.97,1.57,8.54,3.35,10.38,6.37
					c2.65,4.36-4.94,4.82-7.8,4.98c-6.17,0.34-12.32,1.09-18.43,2.04c-3.49,0.54-7.11,0.62-10.5,1.71c-2.99,0.96-5,3.12-7.82,4.47
					c-6.52,3.14-13.55,4.99-20.44,7.14C909.66,209.71,908.73,210.01,907.79,210.33z"/>
				<path class="st40" d="M910.89,159.6c-2.68,0.77-5.68,0.5-9.04-0.63c-11.66-3.93-23.55-3.81-35.49-6.45
					c1.09-2.83,5.65-2.16,8.16-1.76c9.18,1.48,18.5,2.58,27.62,4.36c7.53,1.47,10.02-2.71,14.77-7.52
					c4.32-4.38,8.56-8.84,12.78-13.31c0.97-1.03,1.95-2.04,2.93-3.06c1.83-1.92,5.02-4.91,7.95-3.99c-1.36,1.92-3.9,3.62-5.6,5.45
					c-1.91,2.06-3.71,4.22-5.63,6.27c-4.52,4.83-7.67,10.06-11.52,15.37C915.75,157.16,913.46,158.86,910.89,159.6z"/>
				<path class="st41" d="M910.34,225.43c2.61,1.01,4.83,3.03,6.82,5.96c6.92,10.17,16.48,17.26,24.4,26.57
					c-2.58,1.6-5.81-1.69-7.57-3.53c-6.42-6.72-13.19-13.23-19.38-20.15c-5.11-5.72-9.62-3.89-16.31-2.92
					c-6.09,0.88-12.16,1.88-18.22,2.9c-1.39,0.23-2.79,0.45-4.18,0.67c-2.62,0.42-6.97,0.89-8.75-1.62c2.24-0.71,5.3-0.53,7.76-0.96
					c2.77-0.48,5.5-1.12,8.27-1.6c6.52-1.12,12.19-3.39,18.46-5.3C904.98,224.44,907.84,224.46,910.34,225.43z"/>
				<path class="st40" d="M967.82,179.27c1.69,0.87,3.37,1.76,5.06,2.66c4.48,2.4,8.58,3.87,12.35,7.36
					c1.55,1.44,6.44,5.79,5.9,0.77c-0.7-6.56-11.22-9.76-16.08-11.62c-3.73-1.43-7.35-3.3-11.03-4.94
					c-1.02-0.45-10.63-5.67-10.56-3.89c0.13,3.12,5,5.13,7.4,6.24C963.22,176.95,965.53,178.09,967.82,179.27z"/>
				<path class="st40" d="M876.32,206.96c-0.81,1.72-1.6,3.44-2.4,5.19c-2.09,4.63-4.46,8.29-5.32,13.36
					c-0.35,2.08-1.59,8.51-4.22,4.2c-3.43-5.64,2.96-14.57,5.69-19.01c2.09-3.4,3.82-7.09,5.74-10.63
					c0.53-0.98,4.99-10.97,6.01-9.51c1.8,2.56-0.85,7.12-2.07,9.45C878.55,202.33,877.42,204.63,876.32,206.96z"/>
				<path class="st41" d="M972.67,204.07c-1.73,0.77-3.46,1.56-5.21,2.36c-4.61,2.13-8.79,3.36-12.75,6.63
					c-1.63,1.35-6.77,5.4-5.94,0.43c1.08-6.51,11.77-9.09,16.73-10.67c3.81-1.21,7.53-2.87,11.29-4.29
					c1.04-0.39,10.94-5.04,10.77-3.27c-0.31,3.11-5.29,4.83-7.75,5.8C977.39,202.03,975.03,203.03,972.67,204.07z"/>
			</g>
		</g>
	</g>
	<path class="st17" d="M562.54,444.21c-8.13-0.15-16.15,1.67-23.67,4.75c-3.43,1.41-12.54,5.25-11.11,10.28
		c0.7,2.48,3.05,2.94,5.04,4.03c3.52,1.93,6.98,3.44,10.58,5.07c5.82,2.64,12.55,6.66,19.25,4.68c2.7-0.8,5.08-2.58,7.7-3.43
		c2.36-0.76,5.31-0.62,7.8-0.64c8.32-0.08,16.99-0.23,24.29-4.66c6.2-3.77,0.61-8.38-3.66-10.81
		C588.05,447.38,574.74,444.44,562.54,444.21z"/>
	<g>
		<path class="st17" d="M521.82,437.18c-3.31,4.5-17.29,6.97-31.21,5.53c-13.93-1.44-22.53-6.25-19.22-10.75s17.29-6.97,31.21-5.53
			C516.53,427.87,525.13,432.68,521.82,437.18z"/>
		<path class="st42" d="M519.32,435.62c-3.29,3.75-12.03,6.85-28.85,5.39c-12.56-1.09-18.99-4.81-17.96-9.69
			c0.44-2.05,1.77-4.81,3.61-6.91c5.1-5.84,29.32,0.15,40.49,1.31c0,0,3.23,4.82,3.47,7.93
			C520.13,434.31,519.89,434.97,519.32,435.62z"/>
		<path class="st43" d="M507.98,424.48c-5.89-0.95-12.69-2.08-18.58-2.45c-2.32,5.94-4.9,11.78-7.58,17.58
			c2.44,0.63,5.31,1.12,8.64,1.41c11.19,0.97,18.74-0.1,23.55-2.01C511.87,434.21,509.85,429.36,507.98,424.48z"/>
		<path class="st44" d="M516.34,428.57c-2.91,3.32-14.28,5.08-25.38,3.93c-11.1-1.15-17.75-4.77-14.83-8.09
			c2.91-3.32,14.28-5.08,25.38-3.93S519.25,425.25,516.34,428.57z"/>
		<path class="st45" d="M479.6,425.8c2.66-3.03,13.04-4.64,23.19-3.59c7.97,0.82,13.35,3.05,14.03,5.43
			c1.07-3.04-5.24-6.12-15.32-7.16c-11.11-1.15-22.47,0.61-25.38,3.93c-2.27,2.59,1.31,5.34,8.23,6.98
			C479.91,429.88,477.86,427.79,479.6,425.8z"/>
	</g>
	<g>
		<path class="st17" d="M715.05,457.3c-2.27,2.86-11.45,4.14-20.5,2.86c-9.05-1.28-14.55-4.62-12.28-7.48
			c2.27-2.85,11.45-4.14,20.5-2.86C711.82,451.09,717.32,454.44,715.05,457.3z"/>
		<path class="st46" d="M713.46,456.22c-2.24,2.37-8.01,4.18-18.96,2.82c-8.17-1.01-12.28-3.6-11.49-6.76
			c0.33-1.33,1.27-3.09,2.52-4.43c3.47-3.69,19.13,0.81,26.4,1.83c0,0,1.99,3.22,2.07,5.26
			C714.02,455.38,713.84,455.81,713.46,456.22z"/>
		<path class="st47" d="M706.33,448.68c-3.82-0.76-8.23-1.66-12.07-2.05c-1.66,3.82-3.48,7.57-5.37,11.29
			c1.58,0.47,3.44,0.86,5.61,1.13c7.28,0.9,12.23,0.39,15.42-0.74C708.63,455.12,707.43,451.9,706.33,448.68z"/>
		<path class="st48" d="M711.68,451.55c-1.98,2.1-9.44,2.97-16.66,1.95c-7.22-1.02-11.47-3.54-9.48-5.64
			c1.98-2.1,9.44-2.97,16.66-1.95C709.42,446.92,713.66,449.45,711.68,451.55z"/>
		<path class="st49" d="M687.77,448.85c1.81-1.92,8.63-2.72,15.22-1.79c5.18,0.73,8.64,2.31,9.03,3.88
			c0.77-1.96-3.27-4.12-9.82-5.04c-7.22-1.02-14.68-0.14-16.66,1.96c-1.54,1.63,0.72,3.52,5.2,4.76
			C687.88,451.52,686.59,450.11,687.77,448.85z"/>
	</g>
	<g>
		<path class="st17" d="M548.4,489.34c-1.7,2.13-8.55,3.09-15.32,2.14c-6.77-0.95-10.87-3.46-9.18-5.59
			c1.7-2.13,8.55-3.09,15.32-2.14C545.99,484.7,550.1,487.2,548.4,489.34z"/>
		<path class="st50" d="M547.21,488.53c-1.67,1.77-5.99,3.12-14.16,2.11c-6.1-0.76-9.17-2.69-8.58-5.05
			c0.25-0.99,0.95-2.31,1.88-3.31c2.59-2.76,14.29,0.6,19.72,1.37c0,0,1.49,2.41,1.55,3.93
			C547.63,487.91,547.5,488.22,547.21,488.53z"/>
		<path class="st51" d="M541.88,482.9c-2.86-0.57-6.15-1.24-9.02-1.53c-1.24,2.86-2.6,5.65-4.01,8.43c1.18,0.35,2.57,0.64,4.19,0.84
			c5.44,0.67,9.14,0.29,11.52-0.56C543.6,487.71,542.7,485.31,541.88,482.9z"/>
		<path class="st52" d="M545.88,485.04c-1.48,1.57-7.05,2.22-12.45,1.46s-8.57-2.65-7.09-4.21c1.48-1.57,7.05-2.22,12.45-1.46
			C544.19,481.59,547.36,483.47,545.88,485.04z"/>
		<path class="st53" d="M528.02,483.03c1.35-1.43,6.44-2.03,11.37-1.33c3.87,0.55,6.46,1.73,6.74,2.9c0.58-1.46-2.45-3.08-7.34-3.77
			c-5.39-0.76-10.97-0.11-12.45,1.46c-1.15,1.22,0.54,2.63,3.89,3.55C528.1,485.02,527.13,483.97,528.02,483.03z"/>
	</g>
	<g>
		<path class="st17" d="M362.28,461.85c-2.07,3-11.14,4.91-20.26,4.25c-9.12-0.65-14.84-3.62-12.77-6.62
			c2.07-3,11.14-4.91,20.26-4.25C358.63,455.89,364.35,458.85,362.28,461.85z"/>
		<path class="st54" d="M360.61,460.89c-2.07,2.51-7.71,4.72-18.72,4.11c-8.22-0.45-12.5-2.75-11.92-5.95
			c0.24-1.35,1.06-3.17,2.21-4.59c3.21-3.92,19.14-0.5,26.46,0.02c0,0,2.21,3.08,2.43,5.11
			C361.11,460.02,360.97,460.45,360.61,460.89z"/>
		<path class="st55" d="M352.98,453.85c-3.87-0.5-8.33-1.1-12.18-1.22c-1.39,3.93-2.96,7.79-4.58,11.63
			c1.61,0.36,3.49,0.62,5.67,0.74c7.32,0.4,12.23-0.45,15.33-1.8C355.72,460.12,354.3,457,352.98,453.85z"/>
		<path class="st56" d="M358.52,456.35c-1.83,2.23-9.22,3.61-16.49,3.09c-7.27-0.52-11.68-2.75-9.85-4.98
			c1.83-2.23,9.22-3.61,16.49-3.09C355.94,451.89,360.35,454.12,358.52,456.35z"/>
		<path class="st57" d="M334.48,455.3c1.68-2.04,8.42-3.3,15.06-2.82c5.22,0.37,8.78,1.71,9.27,3.26c0.64-2.01-3.55-3.89-10.15-4.36
			c-7.27-0.52-14.65,0.86-16.49,3.09c-1.43,1.74,0.96,3.46,5.51,4.39C334.77,457.95,333.39,456.63,334.48,455.3z"/>
	</g>
	<g>
		<path class="st17" d="M666.98,435.7c-2.07,3-11.14,4.91-20.26,4.25c-9.12-0.65-14.84-3.62-12.77-6.62
			c2.07-3,11.14-4.91,20.26-4.25C663.33,429.74,669.05,432.7,666.98,435.7z"/>
		<path class="st58" d="M665.31,434.74c-2.07,2.51-7.71,4.72-18.72,4.11c-8.22-0.45-12.5-2.75-11.92-5.96
			c0.24-1.35,1.06-3.17,2.21-4.59c3.21-3.92,19.14-0.5,26.46,0.02c0,0,2.21,3.08,2.43,5.11
			C665.82,433.87,665.67,434.3,665.31,434.74z"/>
		<path class="st59" d="M657.68,427.7c-3.87-0.5-8.33-1.1-12.18-1.22c-1.39,3.93-2.96,7.79-4.58,11.63
			c1.61,0.36,3.49,0.62,5.67,0.74c7.32,0.4,12.23-0.45,15.33-1.8C660.42,433.97,659,430.85,657.68,427.7z"/>
		<path class="st60" d="M663.22,430.2c-1.83,2.23-9.22,3.61-16.49,3.09c-7.27-0.52-11.68-2.75-9.85-4.98s9.22-3.61,16.49-3.09
			C660.64,425.74,665.05,427.97,663.22,430.2z"/>
		<path class="st61" d="M639.18,429.15c1.67-2.04,8.42-3.3,15.06-2.82c5.22,0.37,8.78,1.71,9.27,3.26
			c0.64-2.01-3.55-3.89-10.15-4.36c-7.27-0.52-14.65,0.86-16.49,3.09c-1.43,1.74,0.96,3.46,5.51,4.39
			C639.47,431.8,638.09,430.48,639.18,429.15z"/>
	</g>
	<g>
		<path class="st17" d="M824.51,463.63c-1.89,2.07-8.99,2.55-15.86,1.09c-6.87-1.46-10.9-4.32-9.01-6.38
			c1.89-2.07,8.99-2.55,15.86-1.09C822.37,458.71,826.4,461.57,824.51,463.63z"/>
		<path class="st62" d="M823.35,462.72c-1.84,1.69-6.36,2.77-14.67,1.15c-6.2-1.21-9.21-3.41-8.43-5.79c0.33-1,1.14-2.3,2.17-3.25
			c2.85-2.64,14.61,1.64,20.12,2.81c0,0,1.35,2.57,1.31,4.14C823.82,462.11,823.67,462.43,823.35,462.72z"/>
		<path class="st63" d="M818.29,456.57c-2.89-0.79-6.22-1.71-9.13-2.21c-1.47,2.84-3.07,5.61-4.72,8.36
			c1.18,0.45,2.59,0.84,4.23,1.16c5.53,1.08,9.34,0.95,11.85,0.25C819.71,461.62,818.96,459.1,818.29,456.57z"/>
		<path class="st64" d="M822.24,459.05c-1.63,1.5-7.39,1.77-12.86,0.61c-5.47-1.17-8.59-3.33-6.96-4.83
			c1.63-1.5,7.39-1.77,12.86-0.61C820.75,455.39,823.87,457.55,822.24,459.05z"/>
		<path class="st65" d="M804.07,455.71c1.49-1.37,6.75-1.62,11.75-0.55c3.93,0.84,6.49,2.23,6.7,3.46c0.7-1.46-2.29-3.33-7.25-4.39
			c-5.48-1.16-11.23-0.89-12.86,0.61c-1.27,1.17,0.37,2.73,3.73,3.92C804.01,457.76,803.1,456.61,804.07,455.71z"/>
	</g>
	<g>
		<path class="st17" d="M679.61,492.16c-1.65,2.26-8.66,3.52-15.64,2.82c-6.98-0.7-11.31-3.1-9.65-5.36
			c1.65-2.26,8.66-3.52,15.64-2.82C676.94,487.5,681.26,489.9,679.61,492.16z"/>
		<path class="st62" d="M678.35,491.38c-1.64,1.88-6.02,3.45-14.45,2.75c-6.3-0.53-9.53-2.38-9.02-4.83
			c0.22-1.03,0.88-2.41,1.8-3.47c2.55-2.94,14.7,0.03,20.3,0.6c0,0,1.63,2.41,1.75,3.97C678.76,490.72,678.63,491.05,678.35,491.38z
			"/>
		<path class="st63" d="M672.65,485.81c-2.96-0.47-6.37-1.02-9.32-1.2c-1.15,2.98-2.44,5.91-3.77,8.82
			c1.23,0.31,2.67,0.55,4.34,0.69c5.61,0.47,9.39-0.08,11.8-1.04C674.61,490.68,673.59,488.25,672.65,485.81z"/>
		<path class="st64" d="M676.84,487.85c-1.46,1.67-7.15,2.57-12.72,2.01c-5.57-0.56-8.9-2.37-7.45-4.04
			c1.46-1.67,7.15-2.57,12.72-2.01C674.96,484.37,678.3,486.18,676.84,487.85z"/>
		<path class="st65" d="M658.42,486.51c1.33-1.52,6.53-2.35,11.62-1.84c4,0.4,6.7,1.51,7.04,2.7c0.53-1.53-2.64-3.06-7.69-3.57
			c-5.57-0.56-11.26,0.34-12.72,2.01c-1.13,1.3,0.66,2.68,4.14,3.49C658.58,488.56,657.55,487.51,658.42,486.51z"/>
	</g>
	<g>
		<path class="st17" d="M424.76,432.8c-2.09,3.17-11.49,5.36-20.99,4.88c-9.51-0.48-15.52-3.44-13.43-6.61
			c2.09-3.17,11.49-5.36,20.99-4.88C420.83,426.67,426.84,429.62,424.76,432.8z"/>
		<path class="st66" d="M423,431.83c-2.1,2.66-7.92,5.08-19.39,4.7c-8.56-0.29-13.07-2.58-12.54-5.93c0.22-1.41,1.03-3.33,2.2-4.82
			c3.25-4.15,19.91-0.95,27.54-0.57c0,0,2.37,3.15,2.64,5.26C423.51,430.91,423.36,431.37,423,431.83z"/>
		<path class="st67" d="M414.9,424.67c-4.03-0.43-8.69-0.95-12.7-1c-1.36,4.12-2.9,8.17-4.51,12.2c1.68,0.34,3.65,0.57,5.92,0.64
			c7.63,0.26,12.72-0.74,15.91-2.21C417.9,431.13,416.35,427.92,414.9,424.67z"/>
		<path class="st68" d="M420.73,427.05c-1.84,2.37-9.48,4.03-17.06,3.71c-7.58-0.32-12.24-2.51-10.4-4.88
			c1.84-2.37,9.48-4.03,17.06-3.71C417.91,422.49,422.57,424.67,420.73,427.05z"/>
		<path class="st69" d="M395.68,426.59c1.7-2.16,8.69-3.62,15.61-3.27c5.44,0.27,9.17,1.59,9.72,3.18c0.62-2.1-3.78-3.97-10.66-4.31
			c-7.58-0.38-15.23,1.22-17.09,3.58c-1.45,1.84,1.08,3.58,5.84,4.44C396.04,429.35,394.57,428,395.68,426.59z"/>
	</g>
	<g>
		<path class="st17" d="M395.88,492.55c-1.86,2.51-9.67,3.87-17.45,3.04s-12.58-3.53-10.72-6.04c1.86-2.51,9.67-3.87,17.45-3.04
			C392.94,487.34,397.74,490.05,395.88,492.55z"/>
		<path class="st66" d="M394.48,491.68c-1.84,2.09-6.73,3.81-16.12,2.97c-7.01-0.63-10.6-2.72-10.02-5.44
			c0.25-1.15,1-2.68,2.03-3.86c2.86-3.26,16.38,0.13,22.62,0.79c0,0,1.8,2.7,1.92,4.44C394.94,490.95,394.8,491.32,394.48,491.68z"
			/>
		<path class="st67" d="M388.16,485.44c-3.29-0.54-7.09-1.18-10.38-1.4c-1.3,3.32-2.76,6.57-4.26,9.81c1.37,0.36,2.97,0.63,4.83,0.8
			c6.25,0.56,10.47-0.03,13.16-1.09C390.32,490.88,389.2,488.17,388.16,485.44z"/>
		<path class="st68" d="M392.83,487.65c-1.62,1.86-7.96,2.88-14.17,2.26c-6.21-0.61-9.93-2.62-8.31-4.48
			c1.62-1.86,7.96-2.88,14.17-2.26C390.73,483.78,394.45,485.79,392.83,487.65z"/>
		<path class="st69" d="M372.31,486.13c1.49-1.69,7.3-2.57,12.96-1.97c4.45,0.47,7.45,1.72,7.83,3.06c0.61-1.7-2.92-3.43-8.55-4.02
			c-6.2-0.66-12.56,0.31-14.19,2.16c-1.27,1.44,0.72,2.99,4.59,3.91C372.47,488.41,371.33,487.24,372.31,486.13z"/>
	</g>
	<g>
		<path class="st17" d="M423.71,452.73c0.09,0.91-2.12,1.88-4.93,2.16c-2.81,0.28-5.17-0.22-5.26-1.13
			c-0.09-0.91,2.12-1.88,4.93-2.16C421.27,451.31,423.62,451.82,423.71,452.73z"/>
		<g>
			<g>
				<path class="st27" d="M421.92,452.61c0.06,0.72-1.13,1.4-2.64,1.52l0,0c-1.52,0.12-2.79-0.37-2.85-1.09l-27.37-327.89
					c-0.06-0.72,1.13-1.4,2.64-1.52l0,0c1.52-0.12,2.79,0.37,2.85,1.09L421.92,452.61z"/>
				<path class="st28" d="M419.39,451.86c0.04,0.5-0.33,0.93-0.83,0.97l0,0c-0.5,0.04-0.93-0.33-0.97-0.83l-26.21-313.03
					c-0.04-0.5,0.33-0.93,0.83-0.97l0,0c0.5-0.04,0.93,0.33,0.97,0.83L419.39,451.86z"/>
			</g>
			<g>
				<path class="st70" d="M394.61,49.11l13.67,22.99l26.69,1.77c10.78,0.72,13.75,7.88,6.62,16.01l-17.64,20.11l6.56,25.93
					c2.65,10.48-3.25,15.51-13.18,11.24l-24.57-10.56l-22.63,14.25c-9.15,5.76-15.76,1.7-14.76-9.06l2.45-26.63l-20.55-17.12
					c-8.3-6.92-6.49-14.46,4.05-16.84l26.09-5.9l9.93-24.83C381.35,40.43,389.09,39.82,394.61,49.11z"/>
				<path class="st71" d="M386.1,120.28c-4.8,4.09-9.44,8.71-13.37,13.6c-1.94,2.42-3.15,6.46-6.59,7.22
					c-4.14,0.91-3.77-5.43-3.65-8.05c0.24-5.34,2.09-10.75,1.27-16.11c-0.96-6.25-5.5-7.81-10.09-11.01
					c-2.68-1.86-4.88-3.89-7.35-5.94c-2.1-1.74-7.18-3.43-7.5-6.63c-0.35-3.46,7.5-4.36,9.78-4.77c4.87-0.86,9.71-2.21,14.57-3.15
					c3.16-0.61,8.59-0.52,10.83-2.92c2.39-2.57,4.53-7.74,5.91-10.98c1.86-4.38,2.59-9.41,3.76-14.02c1.19-4.68,2.62-7.13,6.16-2.34
					c3.35,4.53,5.8,9.78,8.11,14.88c2.61,5.76,5.96,10.28,12.61,10.22c3.76-0.03,7.4,0.64,11.13,1.03c2.77,0.29,7.6-0.07,9.94,1.69
					c3.38,2.53-2.31,5.23-4.45,6.24c-4.64,2.17-9.13,4.64-13.53,7.26c-2.52,1.49-5.27,2.67-7.54,4.56c-2,1.66-2.88,3.94-4.63,5.85
					c-4.05,4.43-8.88,8.02-13.5,11.8C387.35,119.23,386.72,119.75,386.1,120.28z"/>
				<path class="st72" d="M372.81,80.33c-1.83,1.42-4.21,2.14-7.14,2.3c-10.18,0.58-19.28,4.34-29.27,6
					c-0.03-2.51,3.68-3.41,5.73-3.87c7.51-1.7,15.02-3.73,22.57-5.17c6.24-1.19,6.86-5.18,9.03-10.34c1.97-4.7,3.85-9.43,5.71-14.18
					c0.43-1.09,0.87-2.17,1.31-3.26c0.82-2.04,2.34-5.33,4.88-5.52c-0.45,1.9-1.88,3.99-2.62,5.92c-0.84,2.17-1.55,4.39-2.39,6.56
					c-1.98,5.11-2.78,10.1-4.1,15.37C375.8,76.95,374.56,78.97,372.81,80.33z"/>
				<path class="st73" d="M392.72,131.1c2.31-0.03,4.65,0.84,7.09,2.48c8.46,5.68,17.99,8.17,26.95,12.89
					c-1.49,2.02-4.99,0.5-6.91-0.37c-7.01-3.18-14.22-6.09-21.12-9.5c-5.69-2.82-8.6-0.02-13.44,2.79c-4.4,2.56-8.76,5.2-13.11,7.86
					c-1,0.61-2.01,1.21-3.01,1.81c-1.88,1.13-5.08,2.83-7.22,1.46c1.5-1.24,3.91-2.05,5.67-3.14c1.98-1.23,3.88-2.56,5.86-3.79
					c4.66-2.88,8.32-6.37,12.55-9.78C388.3,131.99,390.5,131.13,392.72,131.1z"/>
				<path class="st72" d="M422.64,77.87c1.56,0.15,3.13,0.31,4.71,0.48c4.18,0.46,7.79,0.32,11.76,1.85
					c1.63,0.63,6.74,2.46,4.77-1.23c-2.57-4.83-11.63-4.04-15.94-3.97c-3.31,0.05-6.67-0.27-10-0.39c-0.92-0.03-9.92-1.08-9.31,0.27
					c1.06,2.36,5.43,2.4,7.61,2.51C418.39,77.51,420.51,77.67,422.64,77.87z"/>
				<path class="st72" d="M360.87,127.41c-0.09,1.57-0.17,3.14-0.24,4.73c-0.18,4.2-0.87,7.75,0.04,11.91
					c0.37,1.71,1.41,7.03-1.94,4.53c-4.38-3.27-2.22-12.11-1.5-16.36c0.55-3.26,0.75-6.63,1.13-9.94c0.11-0.91,0.44-9.97,1.68-9.16
					c2.17,1.41,1.55,5.73,1.33,7.91C361.16,123.16,361,125.28,360.87,127.41z"/>
				<path class="st73" d="M434.03,95.44c-1.1,1.13-2.18,2.27-3.27,3.43c-2.88,3.06-5.72,5.3-7.75,9.04
					c-0.84,1.54-3.53,6.24-4.43,2.16c-1.18-5.34,6.24-10.62,9.56-13.36c2.55-2.11,4.9-4.53,7.36-6.78c0.68-0.62,6.85-7.26,7.26-5.84
					c0.72,2.49-2.58,5.35-4.16,6.85C437.03,92.41,435.52,93.91,434.03,95.44z"/>
			</g>
		</g>
	</g>
</g>
</svg>
