<svg xmlns="http://www.w3.org/2000/svg" viewBox="0 0 85.04 56.69"><defs><style>.cls-1{isolation:isolate;}.cls-2{opacity:0.43;}.cls-3{opacity:0.38;}.cls-4{opacity:0.73;}.cls-5{fill:none;}.cls-6{fill:#007db4;}.cls-7{fill:#0099d8;}.cls-8{fill:#006ba2;}.cls-9{fill:#fdb73b;}.cls-10,.cls-13{fill:#7dcdf1;}.cls-10{opacity:0.53;}.cls-11{fill:#fffcd5;mix-blend-mode:overlay;opacity:0.48;}.cls-12{fill:#49c7ed;}.cls-14{fill:#bfe7f7;}.cls-15{fill:#00b5ef;}.cls-16{opacity:0.66;}.cls-17{fill:#cae9ef;}</style></defs><g class="cls-1"><g id="Layer_1" data-name="Layer 1"><path class="cls-2" d="M18,51.77s-9.95.06-9.94-1.47-2.72-2.65,37.31-2c0,0,2,0,2.63.85,0,0-1.73.68,2.23.71s13.41.8,12.5,0,2.75-.25,7.52.06,3.73,2.94-6.93,3S48.07,53,49.4,51.74,45.75,51,45.75,51s-1,.53-1,1C44.82,53.37,18.78,55.79,18,51.77Z"/><g class="cls-3"><path class="cls-4" d="M20.07,50.82s-6.6,0-7.31-.89,10.66-1.26,18.1-1.23c9.18,0,21.68.89,2.59,3.24C15.3,54.18,20.07,50.82,20.07,50.82Z"/><path class="cls-4" d="M54.74,51.77s-4.93-.64-1.06-1.3,21.74.31,9.44,1.46Z"/></g><path class="cls-5" d="M55.46,43.14s-5-2.29-3.63-7,5-5.62,6.81-5.18c0,0,5.92.63,5.73,5.87S59.61,45,55.46,43.14Z"/><path class="cls-6" d="M66,30.43c-.72-1.77-3.13-3.39-3.61-3.7a12.69,12.69,0,0,1,3.49,2.51c1.59,2.51,1.94,2.77,3.19-6.16a32,32,0,0,1,.79-4L70,19a5.74,5.74,0,0,1,.87-.11c-1.56,4.39-2.29,10.65-2.68,11.77C67.51,32.52,66.81,32.39,66,30.43Z"/><path class="cls-6" d="M51.73,27.5A12.71,12.71,0,0,1,54,26.31,11,11,0,0,0,48.35,33c-2.2,6.38.64,11.29,5.73,13.13s8.44.27,9.62-1.3.86-.55.72.18-.55,2.86-.74,4S65,50.3,66,50.42s1.55-2.26,1.55-2.26h0c-.58,2.82-.63,3.29-2,2.95-2.78-.7-2.9-.85-2.37-4.09s1.11,2.11-8.23.11S43.84,32.65,51.73,27.5Z"/><path class="cls-7" d="M67.58,48.16h0a105.84,105.84,0,0,1,6-19.09c.91-2.29,1.53-4.71,2.25-7.08a5.27,5.27,0,0,0-2.53-2.68,5.09,5.09,0,0,0-2.48-.4c-1.56,4.39-2.29,10.65-2.68,11.77-.64,1.83-1.34,1.7-2.14-.26-.72-1.77-3.13-3.39-3.61-3.7A10.06,10.06,0,0,0,54,26.31,11,11,0,0,0,48.35,33c-2.2,6.38.64,11.29,5.73,13.13s8.44.27,9.62-1.3.86-.55.72.18-.55,2.86-.74,4S65,50.3,66,50.42,67.58,48.16,67.58,48.16Zm-12.12-5s-5-2.29-3.63-7,5-5.62,6.81-5.18c0,0,5.92.63,5.73,5.87S59.61,45,55.46,43.14Z"/><path class="cls-7" d="M71.71,16.84a5.37,5.37,0,0,1,2.56.45,5.63,5.63,0,0,1,2.36,2.11c-.07.29-.15.57-.23.83a6.32,6.32,0,0,0-2.52-2.16,6.55,6.55,0,0,0-2.51-.53C71.48,17.29,71.59,17.06,71.71,16.84Z"/><path class="cls-6" d="M70.57,17a6.93,6.93,0,0,1,1.14-.16c-.12.22-.23.45-.34.7a6.88,6.88,0,0,0-1,0C70.41,17.38,70.49,17.18,70.57,17Z"/><path class="cls-7" d="M74.86,14.6l.62.16a3.28,3.28,0,0,1,1.36,2.7,7.06,7.06,0,0,0-2-1.42,6.64,6.64,0,0,0-2.24-.55A2.15,2.15,0,0,1,74.86,14.6Z"/><path class="cls-6" d="M75.2,14.58a1.67,1.67,0,0,1,.28.18l-.62-.16a2.15,2.15,0,0,0-2.26.89,7.88,7.88,0,0,0-1.19,0A2.67,2.67,0,0,1,75.2,14.58Z"/><path class="cls-8" d="M57.05,43.9a6.39,6.39,0,0,1-1.7-.52h0l.07-.16.08-.16a6.1,6.1,0,0,0,1.6.48h0a6.09,6.09,0,0,0,6.48-3.69h0a7.84,7.84,0,0,0,.6-2h0c0-.34.08-.69.1-1h0A5.13,5.13,0,0,0,61,31.7h0a7.4,7.4,0,0,0-1.92-.58h0a6.08,6.08,0,0,0-6.66,3.68h0a10.85,10.85,0,0,0-.49,1.33h0a5.82,5.82,0,0,0-.18.78h0c-.67,4.11,3.74,6.15,3.76,6.15h0l-.08.16-.07.16s-4.64-2.09-4-6.53h0a5.09,5.09,0,0,1,.19-.82h0a9.53,9.53,0,0,1,.51-1.37h0a6.46,6.46,0,0,1,7-3.9h0a7.75,7.75,0,0,1,2,.62h0a5.46,5.46,0,0,1,3.49,5.42h0a7.89,7.89,0,0,1-.1,1.09h0A8.15,8.15,0,0,1,63.9,40h0a6.45,6.45,0,0,1-6.85,3.9Z"/><path class="cls-5" d="M58.69,29.58s6,.47,6.85,6.23S60,46.88,55.12,44.23s-5-6.25-4.53-8.13S52.76,29,58.69,29.58Z"/><path class="cls-9" d="M76.4,20.23l0,.1c-.19.55-.36,1.11-.53,1.67a6.15,6.15,0,0,0-1.13-1.67c.15-.54.28-1,.38-1.51A7.15,7.15,0,0,1,76.4,20.23Z"/><path class="cls-9" d="M70,19l-.09,0c.15-.54.3-1,.47-1.47a7.84,7.84,0,0,1,1.81,0c-.16.41-.3.85-.45,1.33A6.15,6.15,0,0,0,70,19Z"/><path class="cls-9" d="M75.25,16.26a7,7,0,0,1,1.59,1.2,7.45,7.45,0,0,1-.21,1.94,6.13,6.13,0,0,0-1.36-1.5,5,5,0,0,0,.09-1.18A3.48,3.48,0,0,0,75.25,16.26Z"/><path class="cls-9" d="M72.45,16.85a6.66,6.66,0,0,0-1.88.15,7,7,0,0,1,.84-1.51,7.73,7.73,0,0,1,1.82.07A5.15,5.15,0,0,0,72.45,16.85Z"/><path class="cls-10" d="M73.23,15.56a1.75,1.75,0,0,1,.2-.19,1.51,1.51,0,0,1,1.82.89L74.84,16A6.45,6.45,0,0,0,73.23,15.56Z"/><path class="cls-10" d="M72.15,17.59a7.13,7.13,0,0,1,.3-.74,5.18,5.18,0,0,1,1.82.44,5.23,5.23,0,0,1,1,.61c0,.28-.11.59-.18.92a6,6,0,0,0-1.21-.75A6.92,6.92,0,0,0,72.15,17.59Z"/><path class="cls-10" d="M48.84,34.27c-2.19,8.12,5.81,11.2,5.81,11.2,5.36,2.07,9-1.17,10.51-3.87s1.07-.08.93.43a46.54,46.54,0,0,0-1.3,5.14c-.15,1.35-.46,2.24.28,2.48s1.41-.21,1.27-.93,3.15-12.29,4.81-17.18c1.1-3.24,2.68-7.91,3.56-11.21a4.59,4.59,0,0,0-1.4-1,4.7,4.7,0,0,0-1.61-.4C70.44,23.09,69.42,29.66,68,33.19c-.76,1.81-1.54-.78-2.32-1.72-2.68-3.19-7.09-4.84-11.07-3.28A9.3,9.3,0,0,0,48.84,34.27Zm9.85-4.69s6,.47,6.85,6.23S60,46.88,55.12,44.23s-5-6.25-4.53-8.13S52.76,29,58.69,29.58Z"/><path class="cls-9" d="M71.7,18.92c.15-.48.29-.92.45-1.33a6.92,6.92,0,0,1,1.73.48,6,6,0,0,1,1.21.75c-.1.46-.23,1-.38,1.51a4.59,4.59,0,0,0-1.4-1A4.7,4.7,0,0,0,71.7,18.92Z"/><path class="cls-11" d="M71.7,18.92c.15-.48.29-.92.45-1.33a6.92,6.92,0,0,1,1.73.48,6,6,0,0,1,1.21.75c-.1.46-.23,1-.38,1.51a4.59,4.59,0,0,0-1.4-1A4.7,4.7,0,0,0,71.7,18.92Z"/><path class="cls-9" d="M72.45,16.85a5.15,5.15,0,0,1,.78-1.29,6.45,6.45,0,0,1,1.61.48l.41.22a3.48,3.48,0,0,1,.11.46,5,5,0,0,1-.09,1.18,5.23,5.23,0,0,0-1-.61A5.18,5.18,0,0,0,72.45,16.85Z"/><path class="cls-11" d="M72.45,16.85a5.15,5.15,0,0,1,.78-1.29,6.45,6.45,0,0,1,1.61.48l.41.22a3.48,3.48,0,0,1,.11.46,5,5,0,0,1-.09,1.18,5.23,5.23,0,0,0-1-.61A5.18,5.18,0,0,0,72.45,16.85Z"/><path class="cls-8" d="M55,47.31a10.69,10.69,0,0,1-2.26-.74h0C47.15,44,45.22,37.28,47.61,32h0a10.93,10.93,0,0,1,4-4.66h0a10.42,10.42,0,0,1,10.5-.95h0A13,13,0,0,1,66,29.13h0a4.47,4.47,0,0,0,1.1,1.41h0a.15.15,0,0,0,.17,0h0a1,1,0,0,0,.25-.37h0c.38-.83.78-3,1.35-7.13h0a23.57,23.57,0,0,1,1.59-6.32h0a4.7,4.7,0,0,1,2.16-2.54h0a2.77,2.77,0,0,1,2.34.1h0l.28.14h0c2.25,1.23,1.89,4,1.25,6h0c-1,2.87-1.65,5.91-2.79,8.75h0c-5.83,14.64-5.87,20-6.61,21.61h0a1,1,0,0,1-.6.6h0a1.87,1.87,0,0,1-1-.06h0a11.5,11.5,0,0,1-1.76-.54h0a1.49,1.49,0,0,1-1-1.21h0A10.2,10.2,0,0,1,63.08,47h0c0-.16.05-.3.08-.42h0c-.87.72-3.1,1.82-8.18.72Zm8.42-1.48a.16.16,0,0,1,.17,0h0a.18.18,0,0,1,.11.17h0a.43.43,0,0,1,0,.11h0a6.05,6.05,0,0,0-.22,1h0a9.32,9.32,0,0,0-.23,2.43h0a1.12,1.12,0,0,0,.77.95h0a11.57,11.57,0,0,0,1.7.52h0a1.56,1.56,0,0,0,.77.06h0c.15-.05.26-.15.39-.41h0c.68-1.49.77-7,6.61-21.6h0c1.12-2.8,1.81-5.84,2.78-8.73h0c.63-1.9.9-4.49-1.09-5.55h0l-.26-.13h0c-1.36-.6-2.79-.43-4,2.28h0a22.91,22.91,0,0,0-1.56,6.22h0c-.58,4.13-1,6.29-1.38,7.23h0a1.19,1.19,0,0,1-.37.5h0a.48.48,0,0,1-.5,0h0a4.3,4.3,0,0,1-1.24-1.52h0a9.61,9.61,0,0,0-1-.9h0A13.23,13.23,0,0,0,62,26.72h0a10.08,10.08,0,0,0-10.17.92h0a10.67,10.67,0,0,0-3.91,4.52h0a11.16,11.16,0,0,0-.42,8.05h0a10,10,0,0,0,5.36,6h0a11.47,11.47,0,0,0,2.19.72h0c3.52.75,5.6.45,6.79,0h0a3.74,3.74,0,0,0,1.21-.73h0a2.41,2.41,0,0,0,.24-.26h0l.05-.07h0l0,0h0v0h0l0,0Z"/><path class="cls-12" d="M30.45,41l.2-.1c.43-.22,0-.86-.42-.63l-.48.23a.33.33,0,0,0-.17,0,24.24,24.24,0,0,1-2.51.77c-.43.12-.91.21-1.36.35l-.27,0a.35.35,0,0,0-.27.19l-.12.05a.1.1,0,0,0,0,.16l.07,0a.29.29,0,0,0,.19.26.39.39,0,0,0-.08.55.3.3,0,0,0,0,.21c.53,1.21,1.46,3.94.47,5.14-.2.24,0,.68.3.63a14.8,14.8,0,0,0,3.74-1,.48.48,0,0,0,.18-.08A5.56,5.56,0,0,0,31,47.21a.31.31,0,0,0,.1-.3C32.11,45.46,30.9,42.45,30.45,41Z"/><path class="cls-13" d="M28.26,48.18c-.07.19,0,0,.12.08h.05L29.1,48a7.58,7.58,0,0,0,.26-3.84,5.7,5.7,0,0,0-1.11-2.35,2.85,2.85,0,0,1-.64.22,12.63,12.63,0,0,1,.79,1.5A7.51,7.51,0,0,1,28.26,48.18Z"/><path class="cls-13" d="M34,7.08V7c-9.07-5.39-21-4-22-3.8-1.67.36-1.08,2.62-1.08,2.62s1,39.56,1.08,41.82,2,1.91,2,1.91a41.89,41.89,0,0,0,12.13-.71,8.39,8.39,0,0,0,.7-3.19,5.29,5.29,0,0,0-1-3.18,36.05,36.05,0,0,1-6.57.62l-1.51-1.7-1-28.24,1.52-1.07S39,8.06,39.61,27.73c0,0,.67,9.5-9.67,13.56a6.81,6.81,0,0,1,1,3.65,9,9,0,0,1-.41,2.63l.32-.12-.2-.15c5.19-2.15,11.44-6.71,12.42-20.47S34,7.08,34,7.08Z"/><path class="cls-12" d="M25.16,41.73a28.74,28.74,0,0,1-5.48.44c-1.43,0-1.19-1.67-1.19-1.67s-.83-25.38-.72-26.69,1.55-1.19,1.55-1.19c6.2-.95,19.55,1,19,15.49-.3,7.2-4.51,10.72-8.86,12.43a6.57,6.57,0,0,1,.53.75c10.34-4.06,9.67-13.56,9.67-13.56C39,8.06,18.25,12.09,18.25,12.09l-1.52,1.07,1,28.24,1.51,1.7a36.05,36.05,0,0,0,6.57-.62A5.23,5.23,0,0,0,25.16,41.73Z"/><path class="cls-5" d="M39.61,27.73C39,8.06,18.25,12.09,18.25,12.09l-1.52,1.07,1,28.24,1.51,1.7C40.68,42.92,39.61,27.73,39.61,27.73Z"/><path class="cls-12" d="M44.23,26.33C44,16.14,39.53,10.31,34,7v.07s10.1,6,9.11,19.75S35.86,45.15,30.67,47.3l.2.15C38,44.72,44.51,38.82,44.23,26.33Z"/><path class="cls-14" d="M19.68,42.35a1.22,1.22,0,0,1-1.16-.62h0a2,2,0,0,1-.22-1h0a1.72,1.72,0,0,1,0-.27h0c0-.56-.73-22.15-.73-26.12h0c0-.29,0-.48,0-.58h0a1.51,1.51,0,0,1,1.63-1.36h.09a19,19,0,0,1,2.86-.2h0a19,19,0,0,1,10.6,3h0c3.26,2.24,5.69,6,5.69,12h0c0,.31,0,.62,0,.94h0c-.28,6.89-4.14,10.48-8.28,12.3h0a25.93,25.93,0,0,1-10.06,1.93h-.43ZM18,13.83c0,.07,0,.27,0,.55h0c0,2,.18,8.53.36,14.56h0c.19,6,.37,11.55.37,11.56h0v0a1.22,1.22,0,0,0,0,.24h0c0,.45.11,1.22,1,1.23h.43A25.56,25.56,0,0,0,30,40.09h0c4.06-1.79,7.79-5.23,8.07-12h0c0-.32,0-.63,0-.93h0c0-11.67-9.44-14.57-15.93-14.58h0a18.54,18.54,0,0,0-2.83.2h-.12a1.16,1.16,0,0,0-1.28,1Z"/><path class="cls-15" d="M14,49.74l-.29,0h0c-.57,0-1.84-.28-1.92-2.1h0c-.12-2.24-1-40.77-1.07-41.8h0A4.08,4.08,0,0,1,10.58,5h0A1.76,1.76,0,0,1,11.9,3h0a32.77,32.77,0,0,1,4.89-.32h0c9,0,27.15,2.75,27.62,23.61h-.36C43.59,5.76,25.72,3.09,16.79,3.07h0A31.81,31.81,0,0,0,12,3.38h0c-.85.19-1,.92-1,1.57h0a3.79,3.79,0,0,0,.1.84h0v0s.06,2.47.15,6.21h0c.09,3.75.22,8.76.34,13.85h0c.26,10.17.53,20.63.58,21.75h0c.11,1.63,1.07,1.74,1.57,1.76h0a1.27,1.27,0,0,0,.25,0H14a33.37,33.37,0,0,0,3.5.16h0c4,0,10.64-.54,16.29-3.62h0c5.64-3.09,10.28-8.66,10.29-18.83h0c0-.25,0-.51,0-.76h.36v.77h0c0,10.28-4.74,16-10.47,19.14h0C28.2,49.35,21.49,49.9,17.48,49.9h0A34.45,34.45,0,0,1,14,49.74Zm5.71-7.39a1.22,1.22,0,0,1-1.16-.62h0a2,2,0,0,1-.22-1h0a1.8,1.8,0,0,1,0-.28h0c0-.68-.73-22.15-.73-26.11h0c0-.29,0-.48,0-.58h0a1.51,1.51,0,0,1,1.63-1.36h.08a19.19,19.19,0,0,1,2.87-.2h0a19,19,0,0,1,10.6,3h0c3.26,2.24,5.69,6,5.69,12h0c0,.31,0,.62,0,.94h0c-.28,6.89-4.14,10.48-8.28,12.3h0a25.93,25.93,0,0,1-10.06,1.93h-.43ZM18,13.83c0,.07,0,.27,0,.55h0c0,2,.18,8.53.36,14.56h0c.19,6,.37,11.55.37,11.56h0v0h0a1.22,1.22,0,0,0,0,.24h0c0,.46.11,1.22,1,1.23h.43A25.56,25.56,0,0,0,30,40.09h0c4.06-1.79,7.79-5.23,8.07-12h0c0-.32,0-.63,0-.93h0c0-11.67-9.44-14.57-15.93-14.58h0a18.54,18.54,0,0,0-2.83.2h-.12a1.16,1.16,0,0,0-1.28,1Z"/><g class="cls-16"><path class="cls-17" d="M41.13,19.18a23.28,23.28,0,0,0-3.81-7.51S31.59,3.45,13.6,4.4a1.55,1.55,0,0,0-1.54,1.67C12.06,7.74,13.13,46,13.13,46s-.12,2.5,2.26,2.38C22.5,48,30.23,46.81,36,42.31,42.45,37.28,42.87,26.36,41.13,19.18Zm-1,12.25a18.45,18.45,0,0,1-5.56,9.32,22.26,22.26,0,0,1-11.28,4.94c-1.93.33-3.91.57-5.87.71a1.84,1.84,0,1,0-2.9-2.26c-.06-2.15-.74-27.28-.91-34.39a1.82,1.82,0,0,0,1.1.37,1.85,1.85,0,0,0,.08-3.69H15c6.82-.37,14.48.64,19.83,5.28C40,16.21,41.9,24.93,40.16,31.43Z"/></g></g></g></svg>