<?xml version="1.0" encoding="utf-8"?>
<!-- Generator: Adobe Illustrator 26.0.3, SVG Export Plug-In . SVG Version: 6.00 Build 0)  -->
<svg version="1.1" id="Layer_1" xmlns="http://www.w3.org/2000/svg" xmlns:xlink="http://www.w3.org/1999/xlink" x="0px" y="0px"
	 viewBox="0 0 200 200" style="enable-background:new 0 0 200 200;" xml:space="preserve">
<style type="text/css">
	.st0{fill:#31A734;}
	.st1{fill:#FCB900;}
	.st2{fill:#E64117;}
	.st3{fill:#4A1D81;}
</style>
<g>
	<path class="st2" d="M159.62,60.57C126.87,61.96,39.97,74.69,35,76.83c-23.02,9.81-22.93,61.69,5.49,57.75
		c39.8-5.51,77.22-7.28,118.6-16.39C186.33,112.2,191.59,59.19,159.62,60.57z"/>
	<path class="st2" d="M126.01,20.43c-0.31-2.4-1.15-4.69-2.55-6.76C119.32,7.65,110.89,5,103.91,5
		c-18.58,0.02-40.3,25.34-21.15,40.39C99.4,58.47,128.82,41.35,126.01,20.43z"/>
	<path class="st2" d="M133.08,157.21c-0.42-3.06-1.46-6-3.28-8.66c-5.29-7.71-16.07-11.1-25.02-11.1
		c-23.77,0.04-51.58,32.45-27.08,51.7C99.02,205.9,136.67,184,133.08,157.21z"/>
</g>
</svg>
