<?xml version="1.0" encoding="utf-8"?>
<!-- Generator: Adobe Illustrator 26.0.3, SVG Export Plug-In . SVG Version: 6.00 Build 0)  -->
<svg version="1.1" id="Layer_1" xmlns="http://www.w3.org/2000/svg" xmlns:xlink="http://www.w3.org/1999/xlink" x="0px" y="0px"
	 viewBox="0 0 1133.86 1133.86" style="enable-background:new 0 0 1133.86 1133.86;" xml:space="preserve">
<style type="text/css">
	.st0{opacity:0.07;}
	.st1{fill:#FF9800;}
	.st2{opacity:0.1;}
	.st3{fill:#FFD740;}
	.st4{fill:#FFFFFF;}
	.st5{fill:#262626;}
	.st6{opacity:0.33;}
</style>
<g>
	<ellipse class="st0" cx="569.08" cy="1049.72" rx="275.57" ry="41.62"/>
	<g>
		<g>
			<path class="st1" d="M662.48,922.43c4.87,26.72,23.52,73.61,14.61,80.16c-8.9,6.55-37.41-8.85-54.26-4.43
				c-16.85,4.42-45.25,31.39-41.51,47.84c3.74,16.45,46.29,33.56,60.97,33.49c14.68-0.07,72.43-30.43,75.49-41.77
				c2.44-9.05-17.07-77.47-23.15-121.54"/>
			<path class="st2" d="M717.78,1037.72c-3.06,11.34-60.81,41.7-75.48,41.77c-14.68,0.07-57.24-17.04-60.97-33.49
				c-0.66-2.89-0.32-6.1,0.77-9.47c10.97,14.24,44.97,27.25,57.78,27.19c14.68-0.07,72.42-30.43,75.48-41.77
				c0.21-0.77,0.25-1.98,0.17-3.57C717.45,1028.18,718.45,1035.22,717.78,1037.72z"/>
		</g>
		<g>
			<path class="st1" d="M522.67,921.84c-5.38,26.62-5.45,77.08-16.15,79.86c-10.69,2.78-31.46-22.09-48.75-24.24
				c-17.29-2.15-53.66,12.38-56.29,29.04c-2.63,16.66,30.55,48.33,44.21,53.71c13.66,5.38,78.55-1.41,85.59-10.81
				c5.62-7.5,12.87-78.27,23.56-121.46"/>
			<path class="st2" d="M535.37,1035.67c-1.46,7.12-2.81,12.05-4.09,13.75c-7.05,9.4-71.94,16.18-85.59,10.81
				s-46.84-37.04-44.2-53.71c0.52-3.26,2.32-6.44,5.03-9.43c3.33,17.33,31.67,43.72,44.03,48.58
				C463.8,1050.88,525.34,1044.64,535.37,1035.67z"/>
		</g>
		<path class="st3" d="M604.89,844.26c10.12,34.41,51.34,115.11,80.04,110.97c28.7-4.14,21.51-102.11,24.25-137.23"/>
		<path class="st3" d="M975.7,605.62c-15.83,15.19-34.9,26.91-55.48,34.46c-5.92,76.16-49.07,148.79-111.1,194.38
			c-72.14,53.01-166.54,71.19-255.21,58.95c-46.43-6.4-92.12-20.88-131.83-45.76c-54.92-34.42-97.07-88.75-116.75-150.5
			c-19.68-61.76-16.74-130.46,8.14-190.31c12.15-29.22,29.41-56.67,36.04-87.62c1.24-5.77,1.99-11.75,2.22-17.78
			c0.85-22.18-10.5-42.95-29.12-55.03c-39.57-25.67-68.48-68.16-75.47-114.95c-9.49-63.57,22.02-131.39,76.73-165.12
			c54.71-33.73,129.46-31.43,181.99,5.6c52.53,37.03,79.82,106.66,66.43,169.52c-8.86,41.61-33.74,80.07-33.11,122.6
			c0.83,55.78,45.47,101.43,93.36,130.04c35.6,21.27,75.9,36.99,117.35,36.01c41.46-0.97,84-21.08,104.07-57.36
			c10.82-19.55,17.14-45.12,37.98-53.18c17.89-6.92,39.3,4.46,47.62,21.74c4.56,9.47,5.79,20.06,4.6,30.54
			c12.3-3.29,26.2-1.38,34.61,7.89c11.01,12.13,8.64,31.34,2.32,46.46c-1.96,4.7-4.25,9.25-6.83,13.62
			c10.84,3.4,19.53,13.32,21.06,24.64C997.42,580.11,987.09,594.69,975.7,605.62z"/>
		<path class="st0" d="M920.2,640.29c-5.98,76.09-49.11,148.62-111.08,194.17c-72.14,53.01-166.54,71.19-255.21,58.95
			c-46.43-6.4-92.12-20.88-131.83-45.76c-54.92-34.42-97.07-88.75-116.75-150.5c-10.37-32.54-14.46-67.01-12.36-101.1
			c1.38,22.57,5.5,44.97,12.36,66.52c19.68,61.76,61.83,116.08,116.75,150.5c39.71,24.88,85.4,39.36,131.83,45.76
			c88.67,12.24,183.08-5.95,255.21-58.95C859.76,762.66,920.2,640.22,920.2,640.29z"/>
		<path class="st3" d="M498.17,827.89c-3.36,35.71,5,125.94,33.19,132.74c28.19,6.79,57.83-86.86,73.41-118.46"/>
		<g>
			<g>
				<g>
					<g>
						<g>
							
								<ellipse transform="matrix(0.9995 -0.0315 0.0315 0.9995 -5.3034 11.4768)" class="st4" cx="361.86" cy="174.18" rx="61.48" ry="60.05"/>
						</g>
						<g>
							
								<ellipse transform="matrix(0.9995 -0.0315 0.0315 0.9995 -5.3159 11.4978)" class="st5" cx="362.34" cy="174.5" rx="41.67" ry="40.7"/>
						</g>
						<g>
							<path class="st4" d="M315.91,159.69c1.96,10.31,12.1,17.1,22.65,15.17c10.55-1.93,17.52-11.84,15.56-22.15
								c-1.96-10.3-12.1-17.1-22.65-15.17C320.92,139.47,313.95,149.38,315.91,159.69z"/>
						</g>
					</g>
				</g>
			</g>
		</g>
		<g>
			<path class="st1" d="M820.59,605.1c-3.35,15.09-19.6,23.74-34.71,28.54c-4.5,1.43-9.05,2.69-13.65,3.79
				c1,0.98,1.94,2.02,2.82,3.11c11.73,14.6,11.15,37.26-1.3,51.28c-8.85,9.96-22.13,15.12-35.27,18.34
				c-9.5,2.33-19.21,3.8-28.98,4.42c1.07,2.11,1.89,4.33,2.42,6.61c3.53,15.26-3.96,31.47-15.71,42.15
				c-11.76,10.69-27.2,16.68-42.65,21.08c-33.46,9.52-70.29,12.4-102.64-0.22c-32.35-12.63-58.64-43.43-57.6-77.29
				c0,0-15.36-130.78,150.87-153.58c41.62-5.71,84.11-2.89,125.22,5.62c12.72,2.64,25.71,5.89,36.14,13.43
				C815.98,579.9,823.34,592.75,820.59,605.1z"/>
			<path class="st0" d="M696.2,763.33c-11.76,10.69-27.2,16.68-42.65,21.08c-33.46,9.52-70.29,12.4-102.64-0.22
				c-32.35-12.63-58.64-43.43-57.6-77.29c0,0-1.76-14.98,2.36-35.68c0.11,2.7,0.29,4.19,0.29,4.19
				c-1.04,33.86,25.25,64.66,57.6,77.29c32.34,12.63,69.18,9.75,102.64,0.22c15.45-4.4,30.89-10.39,42.65-21.08
				c4.71-4.28,8.74-9.45,11.64-15.09c0.6,1.44,1.07,2.92,1.42,4.43C715.45,736.44,707.96,752.65,696.2,763.33z"/>
			<g class="st6">
				<path class="st4" d="M632.41,572.25c6.96-1,13.84-1.42,20.47-1.34c6.63,0.06,13.02,0.76,19.02,1.78
					c1.5,0.28,2.97,0.56,4.42,0.86c1.45,0.32,2.87,0.68,4.27,1.04c2.79,0.68,5.46,1.59,8.02,2.43c1.28,0.45,2.52,0.94,3.73,1.42
					c1.21,0.49,2.4,0.95,3.54,1.5c2.29,1.07,4.46,2.09,6.46,3.28c2.01,1.16,3.89,2.29,5.61,3.54c1.72,1.23,3.3,2.41,4.71,3.7
					c1.41,1.27,2.69,2.5,3.8,3.76c1.1,1.28,2.06,2.54,2.86,3.77c0.81,1.22,1.45,2.46,1.94,3.67c0.49,1.21,0.83,2.38,1.02,3.52
					c0.38,2.28,0.15,4.41-0.65,6.38c-0.81,1.97-2.16,3.69-3.92,5.18c-0.88,0.75-1.87,1.43-2.95,2.07c-1.07,0.63-2.24,1.21-3.51,1.78
					c-5.01,2.17-11.34,3.77-18.47,5.08c-1.77,0.29-3.63,0.68-5.51,0.95c-0.94,0.13-1.9,0.32-2.87,0.46
					c-0.96,0.14-1.94,0.28-2.93,0.43c-1.99,0.35-3.99,0.55-6.06,0.89c-2.05,0.28-4.15,0.57-6.3,0.86c-4.28,0.61-8.7,1.13-13.25,1.79
					c-4.53,0.64-9.21,1.29-14,1.97c-4.78,0.73-9.45,1.45-13.97,2.14c-4.55,0.67-8.93,1.45-13.2,2.09c-2.14,0.34-4.24,0.67-6.28,0.99
					c-2.08,0.28-4.06,0.65-6.06,0.89c-0.99,0.15-1.97,0.29-2.93,0.43c-0.97,0.14-1.95,0.23-2.88,0.38
					c-1.88,0.28-3.77,0.44-5.55,0.67c-7.21,0.79-13.74,1.08-19.19,0.45c-1.38-0.18-2.67-0.4-3.89-0.69
					c-1.22-0.3-2.37-0.67-3.44-1.13c-2.14-0.92-3.95-2.17-5.32-3.82c-1.37-1.65-2.23-3.62-2.56-5.91c-0.17-1.14-0.2-2.36-0.1-3.66
					c0.1-1.3,0.33-2.67,0.73-4.06c0.39-1.41,0.92-2.89,1.59-4.42c0.68-1.52,1.52-3.07,2.48-4.68c0.95-1.63,2.11-3.22,3.38-4.89
					c1.26-1.68,2.71-3.31,4.28-4.99c1.56-1.71,3.32-3.3,5.18-4.99c0.93-0.85,1.92-1.63,2.93-2.45c1.01-0.81,2.05-1.63,3.14-2.43
					c2.19-1.54,4.46-3.17,6.92-4.63c1.23-0.74,2.47-1.5,3.76-2.21c1.29-0.7,2.62-1.4,3.96-2.09c5.42-2.7,11.31-5.2,17.62-7.16
					C618.76,574.86,625.46,573.29,632.41,572.25z"/>
			</g>
		</g>
		<g>
			<path class="st1" d="M257.63,217.65c-4.29-8.41-17.66-6.6-27.04-5.48c-9.38,1.12-18.57,3.85-28.02,4.04
				c-14,0.27-28.01-5.39-37.9-15.29c-5.12-5.13-10.85-11.97-17.94-10.43c-4.93,1.07-8.14,6.24-8.43,11.27
				c-0.28,5.03,1.76,9.9,4.13,14.34c15.64,29.31,48.7,48.43,81.91,47.37c-3.26,5.21-28.94,23.97-35.2,30.21
				c-9.14,9.12-12.65,17.81-10.11,22.24c6.03,10.52,42.55-17.6,96.14-13.01c10.54,0.9,25.5,3.4,31.25-4.52
				c3.76-5.18,4.14-15.11-0.67-20.22C294.95,266.71,273.38,248.51,257.63,217.65z"/>
			<path class="st0" d="M306.41,298.38c-5.75,7.92-20.71,5.42-31.25,4.52c-53.59-4.59-90.11,23.53-96.14,13.01
				c-1.54-2.68-0.87-6.91,1.92-11.85c0.87-1.54,47.66-23.66,97.85-19.36c9.54,0.82,22.71,2.94,29.38-2.54
				C310.21,287.43,309.33,294.35,306.41,298.38z"/>
			<g class="st6">
				<path class="st4" d="M181.79,219.88c4.3,1.45,8.52,2.4,12.49,3.02c3.96,0.61,7.67,0.91,10.89,1.09c3.22,0.19,5.96,0.32,8,0.67
					c2.04,0.35,3.42,0.92,3.83,1.96c0.41,1.03-0.21,2.44-1.88,4.01c-1.67,1.56-4.38,3.24-8.05,4.61c-3.66,1.38-8.29,2.37-13.55,2.51
					c-5.25,0.15-11.14-0.62-16.93-2.59c-5.8-1.96-10.92-4.96-15-8.28c-4.08-3.32-7.14-6.94-9.2-10.26
					c-2.07-3.32-3.19-6.32-3.56-8.57c-0.37-2.26,0.01-3.76,0.96-4.32c0.96-0.57,2.4-0.19,4.23,0.78c1.83,0.97,4.08,2.54,6.75,4.36
					C166.1,212.52,173.19,216.97,181.79,219.88z"/>
			</g>
		</g>
		<g class="st6">
			<path class="st4" d="M520.71,122.31c4.85,6.4,8.97,13.08,12.39,19.77c0.83,1.69,1.65,3.36,2.43,5.03
				c0.73,1.69,1.44,3.37,2.12,5.04c0.71,1.65,1.28,3.35,1.87,5c0.57,1.66,1.17,3.29,1.63,4.95c0.48,1.65,0.94,3.28,1.38,4.88
				c0.41,1.62,0.76,3.23,1.1,4.81c0.17,0.79,0.33,1.58,0.5,2.36c0.15,0.78,0.27,1.57,0.4,2.34c0.25,1.55,0.47,3.08,0.68,4.57
				c0.18,1.51,0.3,3,0.43,4.45c0.11,1.46,0.24,2.88,0.25,4.29c0.03,1.41,0.05,2.79,0.05,4.13c-0.01,0.67,0,1.33-0.03,2
				c-0.04,0.66-0.07,1.31-0.11,1.96c-0.17,2.58-0.36,5.01-0.76,7.33c-0.38,2.31-0.75,4.46-1.33,6.49c-0.55,2.02-1.12,3.88-1.79,5.58
				c-0.7,1.71-1.43,3.25-2.21,4.62c-0.39,0.69-0.77,1.33-1.19,1.94c-0.42,0.6-0.86,1.17-1.3,1.69c-0.88,1.04-1.78,1.91-2.7,2.61
				c-1.85,1.4-3.79,2.1-5.8,2.13c-2.01,0.03-4-0.62-5.93-1.82c-0.97-0.6-1.93-1.33-2.87-2.18c-0.47-0.43-0.94-0.88-1.4-1.37
				c-0.47-0.48-0.96-0.99-1.44-1.53c-0.95-1.08-1.9-2.26-2.82-3.54c-0.95-1.28-1.94-2.64-2.88-4.09c-0.91-1.46-1.96-2.98-2.93-4.58
				c-0.94-1.61-2.01-3.27-3.02-5c-8.13-13.9-18.03-31.42-31.06-48.54c-13.06-17.1-27.33-31.29-38.58-42.8
				c-1.41-1.43-2.72-2.9-4.03-4.24c-1.29-1.35-2.48-2.77-3.64-4.03c-1.15-1.29-2.21-2.61-3.19-3.86c-0.99-1.23-1.88-2.45-2.67-3.65
				c-0.39-0.6-0.76-1.21-1.1-1.79c-0.34-0.57-0.66-1.14-0.95-1.71c-0.57-1.13-1.02-2.25-1.34-3.34c-0.64-2.18-0.74-4.27-0.18-6.2
				c0.56-1.93,1.75-3.61,3.59-5.03c0.92-0.71,1.99-1.35,3.23-1.92c0.62-0.29,1.27-0.55,1.97-0.8c0.69-0.24,1.42-0.44,2.18-0.64
				c1.53-0.38,3.21-0.68,5.04-0.9c1.82-0.2,3.76-0.25,5.85-0.25c2.1-0.02,4.28,0.19,6.61,0.44c2.34,0.23,4.74,0.69,7.27,1.21
				c0.63,0.14,1.27,0.27,1.92,0.41c0.64,0.15,1.28,0.33,1.93,0.5c1.3,0.35,2.62,0.73,3.97,1.14c1.36,0.39,2.69,0.89,4.07,1.38
				c1.37,0.5,2.78,1.01,4.18,1.59c1.39,0.6,2.8,1.22,4.23,1.87c0.71,0.33,1.44,0.65,2.15,1c0.71,0.36,1.42,0.73,2.14,1.1
				c1.43,0.75,2.9,1.51,4.35,2.34c1.43,0.85,2.88,1.72,4.34,2.62c1.48,0.88,2.89,1.89,4.34,2.88c1.44,1.01,2.92,2.01,4.33,3.13
				c1.43,1.1,2.86,2.23,4.3,3.38c1.4,1.2,2.8,2.43,4.2,3.68C510.47,110.19,515.82,115.94,520.71,122.31z"/>
		</g>
	</g>
</g>
</svg>
