<svg id="Layer_1" data-name="Layer 1" xmlns="http://www.w3.org/2000/svg" viewBox="0 0 85.04 56.69"><defs><style>.cls-1{fill:#919191;}.cls-2{fill:#656565;}.cls-3{fill:#e6b413;}.cls-4{fill:#ffe635;}.cls-5{fill:#f5d214;}.cls-6{fill:#fff7be;}.cls-7{fill:#f68f1e;}.cls-8{fill:#e77c20;}.cls-9{fill:#fcb919;}.cls-10{fill:#e3066f;}.cls-11{fill:#ffd600;}.cls-12{fill:#fbad1d;}.cls-13{fill:#f05662;}.cls-14{fill:#fb8a09;}.cls-15{fill:#f38792;}.cls-16{fill:#ef4857;}.cls-17{fill:#ffe579;}.cls-18{fill:#ffda79;}.cls-19{fill:#fa0;}</style></defs><path class="cls-1" d="M63.89,46.2a4.83,4.83,0,0,1,.41.49l.55-.37c-.31,0-.64-.09-1-.12Zm-18.7-.06a3.31,3.31,0,0,1-.91,1.12c3.13,1.43-4.93,1.44-6.46,1.6s.92,1.25-3.74,1.75a33.51,33.51,0,0,1-3.37.21c-2.24,0-3.19-.42-3.13-1.13,0-.5-1.48-.54-3.52-.54H22.8a35.24,35.24,0,0,1-5.31-.29c-2.12-.36-1.3-.8-.07-1.13a4.07,4.07,0,0,1-.53-.65c-1.73.51-3.21,1.29-3.06,2.44s2.26,1.26,4.72,1.26l2,0,2,0c2.24,0,3.94.17,3.62,1.14s2.15,1.39,5.1,1.39c4.63,0,10.43-1,8.4-2.56-1.27-.95-.75-1.2.49-1.2.68,0,1.57.07,2.51.15s1.89.15,2.72.15a4.15,4.15,0,0,0,1.78-.27,1.33,1.33,0,0,1,.52-.2c.58,0-1.09,2.2,3.48,2.2,1.88,0,4.82.13,7.84.13,5.55,0,11.38-.42,11.49-2.79.05-1.16-2-1.93-4.79-2.41.16.22.32.45.47.7l-.62.59c-.12.12-.26.23-.39.34,4.13.65-.28,2.53-6.17,2.53-6.08,0-9.5-.67-9.17-1.75.19-.62,1.45-.83,2.51-.9a14,14,0,0,1-2.16-1.77,4.68,4.68,0,0,0-1.85.5,4.91,4.91,0,0,1-.6.48c-.11,0,.15-.72-2.53-1Z"/><path class="cls-2" d="M44.28,47.26a3.43,3.43,0,0,1-2.1.79L20,48.72h-.11a3.5,3.5,0,0,1-2.44-1c-1.23.33-2.05.77.07,1.13a35.24,35.24,0,0,0,5.31.29h1.26c2,0,3.56,0,3.52.54-.06.71.89,1.13,3.13,1.13a33.51,33.51,0,0,0,3.37-.21c4.66-.5,2.16-1.59,3.74-1.75s9.59-.17,6.46-1.6Z"/><path class="cls-2" d="M52.33,48c-1.06.07-2.32.28-2.51.9-.33,1.08,3.09,1.75,9.17,1.75,5.89,0,10.3-1.88,6.17-2.53l0,0,0,0,0,.12-.1.08a9.22,9.22,0,0,1-5.7,1.85A13,13,0,0,1,52.33,48Z"/><path class="cls-3" d="M16.36,45.35,15,8.26V8.11a3.5,3.5,0,0,1,3.32-3.49L40.83,3.45H41a3.5,3.5,0,0,1,3.49,3.32,1.09,1.09,0,0,1,0,.18,3.5,3.5,0,0,1-3.32,3.49l-19.11,1,.3,8L39.88,19h.23a4.29,4.29,0,0,1,1.94.41,3,3,0,0,1,1.24,1.23,7.34,7.34,0,0,1,.63,3.17l0,.89v.08a15.15,15.15,0,0,1-.19,2.41,3.2,3.2,0,0,1-1.41,2.18,3.92,3.92,0,0,1-2,.52l-17.55.52.42,11.27L42,41.05h.11a3.5,3.5,0,0,1,3.49,3.41v.09a3.49,3.49,0,0,1-3.39,3.5L20,48.72h-.11a3.5,3.5,0,0,1-3.5-3.37ZM41,5.45h0L18.39,6.62A1.49,1.49,0,0,0,17,8.11v.06l1.39,37.1a1.5,1.5,0,0,0,1.5,1.45h0l22.22-.67a1.49,1.49,0,0,0,1.45-1.5v0a1.49,1.49,0,0,0-1.49-1.46h0l-19.74.59a1,1,0,0,1-1-1l-.49-13.26A1,1,0,0,1,21,28.7a1,1,0,0,1,.7-.32l18.57-.55a2,2,0,0,0,1-.22.92.92,0,0,0,.37-.46A7.92,7.92,0,0,0,42,24.7l0-.86a8.23,8.23,0,0,0-.23-1.92,1.16,1.16,0,0,0-.56-.79,2.21,2.21,0,0,0-1-.19H40l-18.5.55a1,1,0,0,1-1-1l-.37-10a1,1,0,0,1,1-1l20.09-1A1.49,1.49,0,0,0,42.52,7V6.87A1.5,1.5,0,0,0,41,5.45Z"/><path class="cls-4" d="M20.19,36.45l0,1A7,7,0,0,0,21.55,37l0-.86A8.48,8.48,0,0,1,20.19,36.45Z"/><path class="cls-4" d="M17.8,8.14a.67.67,0,0,1,.63-.69L41,6.28a.67.67,0,1,1,.07,1.33L19.16,8.74l1,25.7a6.7,6.7,0,0,0,1.32-.33l-.18-4.71A.54.54,0,0,1,21.4,29a.52.52,0,0,1,.35-.16l18.56-.55c1.21,0,1.55-.39,1.83-1a8.41,8.41,0,0,0,.32-2.67l0-.86A6.23,6.23,0,0,0,42,21.3c-.31-.52-.72-.84-1.87-.86h-.17L21.45,21a.5.5,0,0,1-.52-.48l-.37-10A.51.51,0,0,1,21,10l20.09-1A2,2,0,0,0,43,7V6.84A2,2,0,0,0,41,5h-.1L18.36,6.12a2,2,0,0,0-1.89,2v.08l1,26.05a5.39,5.39,0,0,0,1.35.26l-1-26.36Z"/><path class="cls-4" d="M20.5,44.53l21.11-.64a.66.66,0,0,1,.69.64.67.67,0,0,1-.65.69l-21.77.66h0a.66.66,0,0,1-.66-.64L19,39.51a7.87,7.87,0,0,1-1.34-.14l.22,5.92a2,2,0,0,0,2,1.93h.06l22.21-.67a2,2,0,0,0,1.94-2v-.06a2,2,0,0,0-2-1.94H42l-19.73.59a.5.5,0,0,1-.52-.48l-.13-3.53a12.3,12.3,0,0,1-1.32.3l.19,5.1Z"/><path class="cls-4" d="M18.86,36.5a7.78,7.78,0,0,1-1.34-.17l0,1a5.45,5.45,0,0,0,1.34.21Z"/><path class="cls-5" d="M22,36.83c.16-.07.33-.15.49-.24l0-.75L22,36Z"/><path class="cls-5" d="M45.07,44.47a3,3,0,0,0-3-2.92H42l-19.24.58-.12-3.37-.5.2.14,3.69L42,42.05a2.5,2.5,0,0,1,.15,5l-22.22.67h-.07a2.5,2.5,0,0,1-2.5-2.41l-.23-6.05-.51-.15.24,6.22a3,3,0,0,0,3,2.89H20l22.21-.67a3,3,0,0,0,2.91-3v-.08Z"/><path class="cls-5" d="M17,36.2,16.51,36l0,.88.51.22Z"/><path class="cls-5" d="M16.94,34.06,16,8.21a2.49,2.49,0,0,1,2.37-2.59L40.89,4.45a2.5,2.5,0,0,1,.26,5l-20.09,1,.37,10L39.93,20c2.67-.08,2.9,1.64,3,3.85l0,.88c-.07,2.15,0,4.1-2.64,4.15l-18.56.55.17,4.54.5-.23-.15-3.83,18.06-.53a2.71,2.71,0,0,0,2.72-1.59,8.82,8.82,0,0,0,.4-3v0l0-.89a6.82,6.82,0,0,0-.57-2.95,2.84,2.84,0,0,0-2.74-1.38H39.9l-18,.53-.34-9,19.6-1A3,3,0,0,0,44,7a.86.86,0,0,0,0-.16A3,3,0,0,0,41,4h-.17L18.31,5.12a3,3,0,0,0-2.84,3v.12l1,25.58.05,0a4,4,0,0,0,.46.22Z"/><path class="cls-5" d="M16.47,8.19V8.11a2,2,0,0,1,1.89-2L40.92,5H41a2,2,0,0,1,2,1.89V7a2,2,0,0,1-1.9,2L21,10a.51.51,0,0,0-.47.52l.37,10a.5.5,0,0,0,.52.48l18.49-.55h.17c1.15,0,1.56.34,1.87.86a6.23,6.23,0,0,1,.44,2.52l0,.86a8.41,8.41,0,0,1-.32,2.67c-.28.59-.62.93-1.83,1l-18.56.55a.52.52,0,0,0-.35.16.54.54,0,0,0-.14.36l.18,4.71.49-.19-.17-4.54,18.56-.55c2.63,0,2.57-2,2.64-4.15l0-.88c-.09-2.21-.32-3.93-3-3.85l-18.5.55-.37-10,20.09-1a2.5,2.5,0,0,0-.26-5L18.34,5.62A2.49,2.49,0,0,0,16,8.21l1,25.85a4.81,4.81,0,0,0,.5.18l-1-26.05Z"/><path class="cls-5" d="M21.55,37a5.16,5.16,0,0,0,.49-.21l0-.8-.49.15Z"/><path class="cls-5" d="M17.52,36.33,17,36.2l0,.94.51.16Z"/><path class="cls-5" d="M21.76,42.66a.5.5,0,0,0,.52.48L42,42.55h.07a2,2,0,0,1,2,1.94v.06a2,2,0,0,1-1.94,2l-22.21.67h-.06a2,2,0,0,1-2-1.93l-.22-5.92-.51-.11.23,6.05a2.5,2.5,0,0,0,2.5,2.41h.07l22.22-.67a2.5,2.5,0,0,0-.15-5l-19.74.6L22.12,39l-.49.17.13,3.53Z"/><path class="cls-6" d="M19.2,36.52l-.34,0,0,1h.22a5.56,5.56,0,0,0,1.11-.11l0-1a6.52,6.52,0,0,1-1,.07Z"/><path class="cls-6" d="M19.12,39.52H19l.21,5.73a.66.66,0,0,0,.66.64h0l21.77-.66a.67.67,0,0,0,.65-.69.66.66,0,0,0-.69-.64l-21.11.64-.19-5.1a8.12,8.12,0,0,1-1.18.09Z"/><path class="cls-7" d="M18.9,37.51a5.45,5.45,0,0,1-1.34-.21l.08,2.07a7.86,7.86,0,0,0,1.33.14Z"/><path class="cls-7" d="M20.31,39.43a12.3,12.3,0,0,0,1.32-.3L21.55,37a7,7,0,0,1-1.32.37Z"/><path class="cls-8" d="M22.12,39l.5-.2-.09-2.17c-.16.09-.33.17-.49.24Z"/><path class="cls-8" d="M17.05,37.14l-.51-.22.09,2.19.5.15Z"/><path class="cls-8" d="M17.56,37.3l-.51-.16.08,2.12.51.11Z"/><path class="cls-8" d="M21.55,37l.08,2.09.49-.17L22,36.83A5.16,5.16,0,0,1,21.55,37Z"/><path class="cls-9" d="M18.9,37.51l.07,2h.16a8.12,8.12,0,0,0,1.18-.09l-.08-2a5.56,5.56,0,0,1-1.11.11Z"/><path class="cls-7" d="M18.79,34.5a5.39,5.39,0,0,1-1.35-.26l.08,2.09a7.78,7.78,0,0,0,1.34.17Z"/><path class="cls-7" d="M20.19,36.45a8.48,8.48,0,0,0,1.33-.27l-.08-2.07a6.7,6.7,0,0,1-1.32.33Z"/><path class="cls-8" d="M16.94,34.06a4,4,0,0,1-.46-.22l-.05,0L16.51,36l.51.16Z"/><path class="cls-8" d="M22,36l.5-.19-.08-2.15-.5.23Z"/><path class="cls-8" d="M21.52,36.18,22,36l-.08-2.11-.49.19Z"/><path class="cls-8" d="M17.44,34.24a4.81,4.81,0,0,1-.5-.18L17,36.2l.5.13Z"/><path class="cls-9" d="M19.2,34.52l-.41,0,.07,2,.34,0h0a6.52,6.52,0,0,0,1-.07l-.07-2A6,6,0,0,1,19.2,34.52Z"/><path class="cls-6" d="M29.39,6.88l-5.74.3a2.43,2.43,0,0,0,.14,1.33l5.42-.29a1.87,1.87,0,0,0,.18-1.34Z"/><path class="cls-6" d="M32.76,6.71l-3.37.17a1.87,1.87,0,0,1-.18,1.34L32.89,8A2.49,2.49,0,0,1,32.76,6.71Z"/><path class="cls-6" d="M23.65,7.18l-5.22.27a.67.67,0,0,0-.63.69l1,26.36.41,0a6,6,0,0,0,.92-.08l-1-25.7,4.63-.23A2.43,2.43,0,0,1,23.65,7.18Z"/><path class="cls-6" d="M38.45,6.41l-5.69.3A2.49,2.49,0,0,0,32.89,8l5.53-.28a2,2,0,0,0,0-1.34Z"/><path class="cls-6" d="M41,6.28l-2.53.13a2,2,0,0,1,0,1.34l2.63-.14A.67.67,0,1,0,41,6.28Z"/><path class="cls-10" d="M33.32,47h0v0Z"/><path class="cls-11" d="M52.67,36.19c.72.66,9.55,4,17.11-.28a3,3,0,0,0,1.27-2.39c0-1.55.39-9.55-9.72-11,0,0-10.33-1.61-14,10.72C43.5,45.77,57.74,53.82,65,48.21a5.55,5.55,0,0,0-5.6-3.58l-.07-.12a4.81,4.81,0,0,1-2.54.29c-3.56-.5-6-3.89-5.11-8.72,0,0,.27-.56,1,.11Zm.22-5.83s1.61-4.67,7.5-4.39a6.78,6.78,0,0,1,4.74,2,6.24,6.24,0,0,1,1.33,3.09c0,1.17-2.54,1.58-3.64,1.61a30.24,30.24,0,0,1-6.24-.2,10.42,10.42,0,0,1-3.47-1.18.77.77,0,0,1-.22-.94Z"/><path class="cls-12" d="M46.48,37.34a14.11,14.11,0,0,1,.64-4.14c3-9.86,10.18-10.92,13-10.91a8.63,8.63,0,0,1,1.2.07c9.5,1.34,9.89,8.49,9.87,10.73v.43a3.23,3.23,0,0,1-1.36,2.54,17.58,17.58,0,0,1-8.67,2.16,22.33,22.33,0,0,1-5.82-.78,9.3,9.3,0,0,1-2.82-1.13l.12-.12.11-.13a9.23,9.23,0,0,0,2.68,1.06,22.12,22.12,0,0,0,5.73.77,17.09,17.09,0,0,0,8.49-2.12,2.71,2.71,0,0,0,.6-.57,2.67,2.67,0,0,0,.61-1.68v-.43c0-2.23-.3-9.07-9.58-10.4a8,8,0,0,0-1.16-.07c-2.78,0-9.78,1-12.71,10.67a13.86,13.86,0,0,0-.62,4.05,12.16,12.16,0,0,0,4,9,12.94,12.94,0,0,0,8.53,3.47,8.93,8.93,0,0,0,5.39-1.7,5.37,5.37,0,0,0-5.11-3.37h-.39l0-.08a4.71,4.71,0,0,1-1.69.3,5.59,5.59,0,0,1-.8-.06c-3.16-.44-5.42-3.12-5.42-7a11.65,11.65,0,0,1,.17-1.9v0a.59.59,0,0,1,.51-.31,1.16,1.16,0,0,1,.75.37l-.11.13-.12.12A.83.83,0,0,0,52,36a.22.22,0,0,0-.16.06s0,0,0,0A10.68,10.68,0,0,0,51.67,38c0,3.76,2.14,6.26,5.13,6.68a4.93,4.93,0,0,0,.75.06,4.29,4.29,0,0,0,1.7-.34l.14-.05.07.12,0,0h.2a5.71,5.71,0,0,1,5.47,3.68l0,.12-.1.08a9.22,9.22,0,0,1-5.7,1.85c-6.14,0-12.91-5.18-12.92-12.85Zm10.07-4.7A10.48,10.48,0,0,1,53,31.44a.85.85,0,0,1-.36-.73,1.31,1.31,0,0,1,.07-.41l.16.06-.16-.06a7.35,7.35,0,0,1,7.16-4.51h.5a6.91,6.91,0,0,1,4.87,2.08,6.26,6.26,0,0,1,1.36,3.18v0c0,.73-.74,1.12-1.52,1.38a9.46,9.46,0,0,1-2.28.38c-.85,0-1.72.06-2.59.06a21.56,21.56,0,0,1-3.68-.27Zm.05-.32a21.93,21.93,0,0,0,3.63.26c.87,0,1.73,0,2.58-.06A8.94,8.94,0,0,0,65,32.15c.77-.24,1.32-.62,1.3-1.06v0a6.06,6.06,0,0,0-1.29-3,6.67,6.67,0,0,0-4.62-2h-.49a7.08,7.08,0,0,0-6.53,3.63,3.43,3.43,0,0,0-.31.66h0a1,1,0,0,0-.06.3.54.54,0,0,0,.19.43l0,0a10.38,10.38,0,0,0,3.4,1.16Z"/><path class="cls-13" d="M65,48.21a6.33,6.33,0,0,0,.56-.47l.62-.59A9.21,9.21,0,0,0,65.31,46a13,13,0,0,1-1.15.81A7,7,0,0,1,65,48.21Z"/><path class="cls-13" d="M62.85,44.08a6.71,6.71,0,0,0-2-.59,4.81,4.81,0,0,1-1.49,1l.07.12a6.11,6.11,0,0,1,2.36.35,6.8,6.8,0,0,0,1.1-.9Z"/><path class="cls-13" d="M62.13,41.65a8.12,8.12,0,0,1-.77,1.22,7.19,7.19,0,0,1,2.29.25,9.93,9.93,0,0,0,.74-1.29A6.75,6.75,0,0,0,62.13,41.65Z"/><path class="cls-13" d="M67.44,45.79a10.12,10.12,0,0,0,.93-1.29,8.83,8.83,0,0,0-.91-1,5.66,5.66,0,0,1-.89,1.29A7.26,7.26,0,0,1,67.44,45.79Z"/><path class="cls-12" d="M65.31,46a9.61,9.61,0,0,0,1.26-1.17,6.55,6.55,0,0,0-2.92-1.68,7.39,7.39,0,0,1-.8,1A7.45,7.45,0,0,1,65.31,46Z"/><path class="cls-14" d="M61.75,45l-.17.11A5.08,5.08,0,0,1,64,46.86l.14-.08A5.22,5.22,0,0,0,61.75,45Z"/><path class="cls-12" d="M67.55,42.19a3,3,0,0,0-2.39-1.11s-.27-.06-.61.44c0,0-.09.16-.16.31a7,7,0,0,1,3.07,1.68A1.37,1.37,0,0,0,67.55,42.19Z"/><path class="cls-15" d="M64.16,46.78A13,13,0,0,0,65.31,46a7.45,7.45,0,0,0-2.46-1.89,6.8,6.8,0,0,1-1.1.9A5.22,5.22,0,0,1,64.16,46.78Z"/><path class="cls-15" d="M67.46,43.51a7,7,0,0,0-3.07-1.68,9.93,9.93,0,0,1-.74,1.29,6.55,6.55,0,0,1,2.92,1.68A5.66,5.66,0,0,0,67.46,43.51Z"/><path class="cls-11" d="M68.37,44.5c2.1-3.54-1.78-4.07-2.54-4.2,0,0-2.83-.67-3.39.67-.08.19-.19.43-.31.68A7,7,0,0,1,68.37,44.5Z"/><path class="cls-12" d="M68.24,44.6a6.88,6.88,0,0,0-5.49-2.81,5.53,5.53,0,0,0-.61,0l-.3,0,.14-.28c.12-.24.23-.47.31-.67.34-.78,1.26-.93,2.06-.93a7.86,7.86,0,0,1,1.51.16,7.38,7.38,0,0,1,1.84.52,2.22,2.22,0,0,1,1.45,2,3.9,3.9,0,0,1-.63,1.93l-.13.21Zm.13-.1.13-.11Zm0-.3a3.26,3.26,0,0,0,.47-1.55A1.89,1.89,0,0,0,67.56,41a6.78,6.78,0,0,0-1.77-.49,7.21,7.21,0,0,0-1.44-.16c-.77,0-1.54.18-1.75.73-.06.13-.12.28-.2.43h.36A7.23,7.23,0,0,1,68.35,44.2Z"/><path class="cls-11" d="M66.17,47.15a18.6,18.6,0,0,0,1.27-1.36,6.9,6.9,0,0,0-6.08-2.92,4.6,4.6,0,0,1-.55.62A7.29,7.29,0,0,1,66.17,47.15Z"/><path class="cls-12" d="M66,47.24a7.09,7.09,0,0,0-5.24-3.58l-.35,0,.25-.24a6.05,6.05,0,0,0,.54-.61l.05-.06h.45a7,7,0,0,1,5.85,3l.07.1-.08.1a17,17,0,0,1-1.28,1.38l-.15.15Zm.14-.09.14-.08Zm0-.26c.4-.4.73-.76,1-1.11A6.7,6.7,0,0,0,61.73,43h-.29l-.28.35A7.43,7.43,0,0,1,66.2,46.89Z"/><path class="cls-16" d="M64.84,48.28a5.38,5.38,0,0,0-5.16-3.49h-.39l-.21-.37.17-.08a4.45,4.45,0,0,0,1.44-1l.06-.06h.08a7.4,7.4,0,0,1,5.48,3.74l.07.11-.09.09-.62.59q-.28.26-.57.48l-.17.13Zm.15-.07.16-.07Zm.07-.26.38-.33.52-.49a7.06,7.06,0,0,0-5.09-3.46,5,5,0,0,1-1.07.79A5.67,5.67,0,0,1,65.06,48Z"/><path class="cls-16" d="M67.31,45.88A6.74,6.74,0,0,0,61.73,43H61l.22-.28a7.33,7.33,0,0,0,.75-1.2l0-.08h.09a5.92,5.92,0,0,1,.64,0,7.27,7.27,0,0,1,5.75,2.94l.08.09-.06.1a9.84,9.84,0,0,1-1,1.31l-.14.16Zm.13-.09.14-.1Zm0-.27a11,11,0,0,0,.72-1,6.88,6.88,0,0,0-5.42-2.72l-.52,0a9.87,9.87,0,0,1-.53.89h0A7,7,0,0,1,67.45,45.52Z"/><path class="cls-17" d="M48.33,32.74a.65.65,0,0,0-.62.44h0A12.86,12.86,0,0,0,49,43.71a.68.68,0,0,0,.57.31.65.65,0,0,0,.5-.23c-3.21-4.64-1.71-10.1-1.43-11l-.07,0a.93.93,0,0,0-.23,0Z"/><path class="cls-18" d="M48.63,32.81c-.28.88-1.78,6.34,1.43,11a.66.66,0,0,0,.06-.79,10.9,10.9,0,0,1-1.66-5.9,11.69,11.69,0,0,1,.25-2.52c.07-.31.13-.55.18-.71l.07-.23a.67.67,0,0,0-.33-.83Z"/><path class="cls-19" d="M60.81,23.39a11.41,11.41,0,0,0-11.2,7.22,12.81,12.81,0,0,0-.94,2.08.64.64,0,0,0,0,.12.67.67,0,0,1,.33.83l-.07.23c0,.16-.11.4-.18.71a11.69,11.69,0,0,0-.25,2.52A10.9,10.9,0,0,0,50.12,43a.66.66,0,0,1-.06.79,12.15,12.15,0,0,0,2.88,2.9,9.26,9.26,0,0,0,5.46,1.8A11.14,11.14,0,0,0,64,46.86a5.08,5.08,0,0,0-2.44-1.77,7.22,7.22,0,0,1-3.86,1A9.87,9.87,0,0,1,56.06,46c-6.5-1-6.73-10.22-5.23-11.61a1,1,0,0,1,.7-.31c1.26,0,2.92,2.59,9.41,2.59,6.88,0,8.21-2.34,8.37-3.55C69.52,32.39,69.49,23.57,60.81,23.39Zm-9,6.86A8.12,8.12,0,0,1,52.52,29c1.62-2.15,3.28-3.86,8.39-3.79A7.06,7.06,0,0,1,65.58,27a6.48,6.48,0,0,1,2,4.12,1.4,1.4,0,0,1,0,.52.06.06,0,0,0,0,0v0a3.13,3.13,0,0,1-1.82,1.72l-.17.07h0a12,12,0,0,1-3.86.68v0q-.49,0-1,0c-.45,0-.89,0-1.33,0l-.34,0c-.33,0-.67-.06-1-.1a17.23,17.23,0,0,1-4.18-1C52.6,32.43,51.29,31.56,51.83,30.25Z"/></svg>