<?xml version="1.0" encoding="utf-8"?>
<!-- Generator: Adobe Illustrator 26.0.3, SVG Export Plug-In . SVG Version: 6.00 Build 0)  -->
<svg version="1.1" id="Layer_1" xmlns="http://www.w3.org/2000/svg" xmlns:xlink="http://www.w3.org/1999/xlink" x="0px" y="0px"
	 viewBox="0 0 1133.86 1133.86" style="enable-background:new 0 0 1133.86 1133.86;" xml:space="preserve">
<style type="text/css">
	.st0{fill:#888643;}
	.st1{fill:#D79241;}
	.st2{fill:#8B8948;}
	.st3{fill:#E8E4CD;}
	.st4{fill:#D3CCA3;}
	.st5{fill:#D5CEA4;}
	.st6{fill:#D3CCA4;}
	.st7{fill:#C3B984;}
	.st8{fill:#A09453;}
	.st9{fill:#F6F5F0;}
	.st10{fill:#F8F8F4;}
	.st11{fill:#8A8745;}
	.st12{fill:#E8C092;}
	.st13{fill:#E3B37B;}
	.st14{fill:#D4CDA5;}
	.st15{fill:#F2DDC5;}
	.st16{fill:#F3DEC6;}
	.st17{fill:#B7AD7B;}
	.st18{fill:#E7E3CC;}
</style>
<g>
	<path class="st0" d="M1053.52,472.76c12.83,12.11,26.13,23.79,38.36,36.47c9.24,9.6,15.5,21.31,18.06,34.68
		c0.09,0.44,0.72,0.78,1.12,1.18c0,6.95,0,13.88,0,20.83c-0.69,1.4-1.54,2.74-2.03,4.2c-2.81,8.38-8.04,14.73-16.22,18.09
		c-11.3,4.63-22.71,9.01-34.2,13.08c-3.84,1.36-5.81,3.41-7.25,7.19c-14.62,38.43-29.73,76.68-44.12,115.19
		c-5.82,15.58-15.37,25.06-32.14,28.75c-18.65,4.11-36.84,10.33-55.16,15.87c-7.12,2.14-13.68,1.14-20.1-2.1
		c-34.01-17.13-68.02-34.26-102.01-51.44c-5.78-2.93-11.45-6.08-17.81-9.47c-3.3,9.78-6.27,19.23-9.68,28.53
		c-9.72,26.57-19.55,53.1-29.51,79.58c-1.02,2.71-3.2,4.99-4.84,7.48c1.85-6.24,3.53-12.54,5.59-18.7
		c12.49-37.44,25.07-74.84,37.62-112.25c1.99-5.58,3.97-11.14,6.24-17.47c-53.21,12.19-105.08,24.07-157.16,36
		c0.55,4.8,1.04,9.02,1.53,13.23c0.22,2.02,0.44,4.04,0.65,6.07c3.24,31.64,6.56,63.28,9.61,94.94c0.42,4.28-0.51,8.69-0.82,13.04
		c-3.64-24.64-7.38-49.28-10.89-73.94c-1.8-12.61-3.22-25.27-4.8-37.9c-0.15-2.84-0.16-5.71-0.49-8.53
		c-0.45-3.87-2.22-5.53-6.58-4.55c-28.5,6.38-56.92,13.26-85.66,18.44c-10.78,1.95-15.98,6.8-18.03,16.67
		c0.25,0.58,0.33,1.37,0.76,1.7c25.04,19.23,49.9,38.66,75.22,57.51c16.47,12.27,33.59,23.65,50.43,35.43
		c1.9,0.18,3.9,0.87,5.67,0.49c30.43-6.68,60.83-13.49,91.23-20.28c-1.42,1.24-2.66,3.19-4.28,3.59
		c-29.8,7.5-59.64,14.89-89.54,22.01c-2.16,0.51-5.29-0.69-7.25-2.1c-23.36-16.75-46.71-33.5-69.79-50.64
		c-15.39-11.43-30.31-23.49-45.45-35.24c-2.88-2.23-5.85-4.33-9.46-7c-1.29,3.06-2.38,5.58-3.41,8.11
		c-14.96,37.01-30.02,73.98-44.73,111.09c-2.06,5.21-5.07,7.93-10.33,8.95c-30,5.77-59.99,11.62-89.97,17.47
		c-0.71,0.13-1.34,0.69-2.01,1.04c-5.31,0-10.62,0-15.93,0c-0.31-0.47-0.5-1.12-0.94-1.36c-32.94-18.14-59.59-44.85-90.18-66.2
		c-7.17-5-12.12-11.97-15-20.38c-5.28-15.42-10.71-30.78-16.09-46.16c-0.66-1.89-1.36-3.76-2.13-5.92
		c-10.42,2.38-20.58,4.44-30.59,7.07c-10.69,2.82-20.62,1.13-28.83-5.81c-13.86-11.69-27.61-23.61-40.38-36.47
		c-10.11-10.18-14.57-23.92-18.48-37.52c-9.06-31.52-17.87-63.1-27.03-94.59c-0.97-3.32-3.1-6.62-5.51-9.13
		c-14.8-15.44-28.45-31.54-33.97-52.93c-0.07-0.29-0.6-0.47-0.91-0.7c0-6.53,0-13.08,0-19.61c9.86-28.31,33.27-38.77,59.65-45.39
		c2.5-0.62,4.88-1.74,7.32-2.63c1.83,3.71,1.02,6.34-3.12,7.59c-9.63,3.14-19.69,5.37-28.81,9.61
		c-13.66,6.35-20.55,20.51-17.11,35.13c1.96,8.35,5.36,16.74,9.91,23.97c5.72,9.07,13.3,16.97,20.06,25.38
		c-0.49,0.51-0.99,1.03-1.48,1.56c-16.37-15.82-32.57-31.74-33.48-56.69c0.56-4.25,1.14-8.49,1.7-12.74
		c-0.48-0.18-0.96-0.37-1.43-0.55c-1.69,2.87-3.68,5.61-5.01,8.63c-4.94,11.15-3.76,22.57,0.96,33.16
		c9.37,21.04,24.1,38.27,41,53.72c3.53,3.63,6.89,7.43,10.6,10.86c35.81,33.12,71.57,66.3,107.57,99.2
		c16.41,14.99,32.87,30,50.16,43.93c20.35,16.4,43.66,25.48,70.39,22.61c13.15-1.41,26.37-2.77,39.3-5.44
		c45.06-9.31,90.06-18.95,134.98-28.9c82.69-18.32,165.42-36.49,247.93-55.61c60.71-14.07,121.12-29.4,181.61-44.39
		c47.45-11.75,95.22-22.49,141.17-39.55c9.67-3.59,19.06-8.25,28-13.39c9.29-5.34,14.25-21.08,8.27-36.09
		c-2.73,14.17-11.47,23.7-23.76,29.48c-10.64,5.01-21.8,9.35-33.17,12.3c-34.28,8.91-68.82,16.84-103.17,25.46
		c-64.59,16.21-129.09,32.79-193.71,48.9c-13.59,3.38-27.52,5.36-41.3,7.98c1.12-0.81,2.22-1.61,3.33-2.41l0.17,0.26
		c2.01-0.33,4.04-0.53,6-1.03c55.78-14.37,111.52-28.97,167.35-43.11c49.73-12.6,99.59-24.66,149.37-37.06
		c16.21-4.04,32.61-7.86,46.69-17.39c5.12-3.47,10.31-7.77,13.55-12.89c5.05-7.99,7.51-17.07,2.24-26.36
		c-11.13-17.41-25.92-31.37-41.74-44.37C1055.12,478.96,1054.32,475.86,1053.52,472.76z M207.88,725.27
		c-1.12-19.37-16.3-28.52-27.74-40.37c-0.54,0.26-1.09,0.51-1.63,0.78c0,5.43,0,10.86,0,16.29c-0.42,11.89-0.65,23.77-1.35,35.64
		c-0.28,4.9-1.57,9.74-2.39,14.62c-0.39-3.16-1.1-6.32-1.14-9.5c-0.21-15.6-0.25-31.2-0.34-46.8c1.94-10.78-0.76-19.19-9.6-26.81
		c-22.68-19.57-44.56-40.06-66.73-60.23c-4.98-4.53-9.82-9.22-14.94-14.03c3.24,10.99,6.38,21.69,9.53,32.4
		c0.37,0.82,0.74,1.64,1.1,2.46l-0.13,0.05c2.22,9.69,4.17,19.45,6.73,29.04c3.19,11.97,6.86,23.81,10.33,35.71
		c6.1,20.99,22.11,34.23,37.83,47.45c8.19,6.89,17.4,12.55,26.15,18.76c15.28,0.99,29.2-4.99,44.43-7.94
		C214.42,743.12,211.15,734.19,207.88,725.27z M217.5,736.43c7.76,22.32,15.72,44.56,23.2,66.97c4.19,12.59,12.23,22.05,22.5,29.75
		c13.04,9.78,26.35,19.21,39.63,28.65c12.44,8.84,25,17.5,37.5,26.24c3.7,0.96,7.43,2.83,11.09,2.71
		c34.46-1.14,67.63-10.06,101.06-17.33c1.56-0.34,3.26-2.43,3.93-4.08c16.32-40.26,32.52-80.55,48.74-120.84
		c1.87-4.58,3.75-9.17,5.8-14.19c-1.63,0-2.23-0.1-2.78,0.01c-32.65,6.91-65.27,13.99-97.95,20.75c-24.7,5.1-49.46,10-74.27,14.55
		c-8.48,1.56-17.22,1.73-26.33,2.57c1.42,4.69,2.7,8.96,3.98,13.22c6.65,22.67,13.49,45.28,19.85,68.02
		c2.4,8.58,3.73,17.46,5.55,26.2c-3.65-8.7-7.9-17.21-10.85-26.14c-7.32-22.22-14.03-44.64-20.99-66.98
		c-0.82-3.12-1.83-6.21-2.43-9.37c-0.87-4.6-3.06-6.52-8.1-6.99c-5.54-0.51-11.14-2.35-16.31-4.56
		c-18.7-7.97-34.8-19.97-49.97-33.31c-6.34-5.58-12.57-11.26-18.85-16.9c-0.43,0.26-0.86,0.53-1.29,0.78
		C212.66,722.91,215.07,729.66,217.5,736.43z M903.79,657.91c-0.5-4.39-1-8.79-1.56-13.66c-1.94,0.34-3.52,0.53-5.04,0.89
		c-30.62,7.44-61.08,15.66-91.93,21.96c-11.72,2.39-16.62,8.01-18.08,18.66c-1.35,3.39-2.65,6.8-4.07,10.17
		c-1.4,3.32-0.22,5.21,2.89,6.79c35.65,18.09,71.2,36.38,106.93,54.29c5.71,2.87,12.25,4.08,18.41,6.05
		c4.61-0.62,9.36-0.72,13.79-1.99c17.23-4.89,34.15-10.99,51.58-14.96c11.15-2.54,18.36-8.01,22.34-18.22
		c14.09-35.99,28.09-72.03,42.12-108.05c1.63-4.26,3.26-8.53,5.11-13.38c-1.7,0.1-2.5,0.01-3.22,0.21
		c-40.27,10.66-80.51,21.37-120.78,32.02c-12.74,3.37-12.77,3.31-12.14,16.72c0.96,25.58,2.05,51.15,2.76,76.74
		c0.16,5.7-1.03,11.43-1.59,17.16c-0.82-3.1-2.18-6.16-2.39-9.31C907.11,712.64,905.48,685.28,903.79,657.91z"/>
	<path class="st1" d="M97.74,467.91c4.14-1.26,4.95-3.88,3.12-7.6c22.27-66.24,79.16-102.97,136.13-104.55
		c43.52-1.21,76.88,19.23,103.5,52.28c1.15,1.42,2.33,2.82,3.49,4.24c1.15,1.05,2.32,2.11,3.47,3.16c0.51,1.54,1.03,3.09,1.54,4.63
		c4.01,7.71,7.97,15.44,12.07,23.09c0.85,1.58,2.29,2.84,3.46,4.24c0.75-0.27,1.48-0.55,2.23-0.82c0-9.67,0-19.35,0-29.02
		c0.13-1.99,0.28-3.98,0.42-5.97c0.33-1.36,0.66-2.72,0.99-4.08c9.71-66.12,51.03-123.65,121.98-138.43
		c52.49-10.94,93.83,8.84,126.72,49.25c3.47,4.26,6.45,8.95,9.4,13.58c2.79,4.39,5.27,8.97,7.73,13.21
		c5.72-12.18,10.49-24.56,17.06-35.91c24.3-41.98,60.73-66.69,108.7-74.31c0.72-0.11,1.36-0.71,2.03-1.08c9.4,0,18.79,0,28.19,0
		c4.71,1,9.45,1.84,14.09,3.05c39.03,10.17,66.71,34.68,86.14,69.15c4.98,8.82,8.5,18.47,12.51,27.82c1.1,2.56,1.83,4.41,5.38,4.42
		c57.12,0.18,96.88,28.91,124.58,76.74c10.37,17.9,17.14,37.33,20.83,57.74c0.8,3.1,1.58,6.2,2.38,9.3
		c0.81,7.57,1.62,15.16,2.43,22.73c-2.67,3.59-1.07,6.61,1.27,9.53c-0.33,11.43-0.67,22.87-1,34.3c-1.75,0.82-3.5,1.64-5.26,2.46
		c0.44-6.69,1.53-13.41,1.2-20.05c-0.78-15.8-1.42-31.67-3.62-47.29c-4.01-28.55-13.72-55.22-30.31-79.03
		c-8.26-11.87-17.41-23.04-29.63-31.21c-17.67-15.69-38.53-24.64-61.49-29.19c-16.47-2.44-32.88-2.38-49.01,2.11
		c-57.62,16.03-95.43,52.87-114.6,109.29c-1.69,4.98-1.07,8.63,3.24,11.59c0.69,1.87,1.25,3.8,2.07,5.6
		c3.46,7.56,7.44,14.93,10.43,22.67c13.04,33.7,17.13,68.78,15.6,104.69c-1.14,6.87-2.29,13.76-3.43,20.64
		c-1.72,0.4-3.44,0.81-5.16,1.2c0.09-1.63-0.02-3.3,0.27-4.88c4.28-22.96,4.37-45.94,1.21-69.08c-4.74-34.68-15.89-66.8-37.58-94.59
		c-5.77-7.4-13.33-13.42-20.07-20.07c-10.34-11.11-23.57-17.81-37-24.21c-0.76-0.1-1.53-0.18-2.29-0.28l0.09,0.06
		c-1.26-0.43-2.51-0.86-3.77-1.29l0.11,0.06c-1.19-0.72-2.29-1.69-3.58-2.12c-27.51-9.09-54.95-8.63-82.02,1.54
		c-55.66,20.91-89.49,61.27-104.1,118.33c-2.03,7.92-5.11,16.18-0.17,24.29c0.85,2.27,1.75,4.52,2.54,6.81
		c9.89,28.66,12.95,58.34,13.23,88.44c-3.33,11.16-6.67,22.34-10,33.53c0.11-1.84,0.01-3.7,0.36-5.49
		c4.73-25.01,4.8-50.03,1.25-75.22c-4.45-31.54-14.52-60.83-33.15-86.88c-8.54-11.96-18.04-23.06-30.75-30.93
		c-1.65-1.14-3.42-2.16-4.96-3.43c-15.42-12.79-33.64-19.17-52.88-23.28c-11.18-0.42-22.55-2.34-33.5-0.98
		c-36.78,4.55-67.91,21.29-93.29,47.98c-31.57,33.21-44.86,74.08-46.84,119.06c-0.5,11.57,0.53,23.21,0.86,34.81
		c-1.97-1.94-3.93-3.87-5.91-5.81c-0.39-5.47-1.4-10.98-1.07-16.4c0.81-13.36,1.57-26.78,3.54-39.99
		c5.43-36.21,20.91-68.02,45.32-95.08c23.09-25.58,52.19-41.15,86.12-47.57c5.27-0.99,10.48-2.35,15.71-3.54
		c-7.62-18.6-18.21-35.22-32.9-49.09c-32.66-31.59-70.84-44.29-115.38-31.95c-51.64,14.31-85.36,48.16-103.23,98.23
		c-8.33,23.34-10.49,47.62-9.95,72.24c-1.94-2.24-3.88-4.47-5.82-6.72c0.82-11.86,1.65-23.71,2.48-35.57
		c2.79-1.67,5.62-3.32,2.14-6.92c0.67-3.91,1.34-7.83,2.01-11.74C96.36,472.21,97.05,470.05,97.74,467.91z M568.17,283.99l0.1,0.06
		c-2.07-0.83-4.13-1.67-6.2-2.5l0.04,0.02c-2.28-1.23-4.45-2.72-6.84-3.64c-24.75-9.55-49.8-9.2-74.87-1.53
		c-76.37,23.38-111.98,95.07-108.43,167c0.06,1.27,2.51,2.44,3.85,3.65c1.95,0.37,3.9,0.75,5.85,1.12c3.33,0.39,6.67,0.8,10,1.19
		c13.03,4.98,26.62,8.86,38.91,15.24c10.29,5.36,19.07,13.61,28.52,20.6c13.32,13.96,24.66,29.36,33.64,47.46
		c2.11-8.33,3.97-15.69,5.82-23.04c4.04-9.06,8.08-18.12,12.12-27.18c1.57-3.16,3.15-6.32,4.72-9.5
		c10.94-15.64,22.32-30.77,37.27-43.09c19.24-15.85,41-26.09,65.03-31.71c8.93-2.08,18.14-2.97,27.58-4.45
		c-0.83-2.99-1.52-5.47-2.22-7.94c-8.23-35.73-26.19-65.6-54.54-88.91c-5.58-4.58-12.28-7.77-18.47-11.6
		C569.44,284.85,568.8,284.42,568.17,283.99z M658.87,395.41c2.45,0.07,4.91,0.15,7.36,0.23c12.6,3.75,25.18,7.49,37.78,11.24
		c22.47,11.23,40.87,27.35,56.55,48.64c2.82-7.77,5.15-14.18,7.48-20.6c4.49-7.84,8.96-15.67,13.44-23.52
		c1.56-2.72,3.11-5.43,4.68-8.15c1.16-1.12,2.51-2.11,3.47-3.37c19.3-25.35,43.76-43.65,74.18-53.42
		c11.29-3.63,22.98-5.94,34.88-8.96c-0.58-1.54-1.35-3.6-2.12-5.65c-11.8-32.12-31.51-57.9-60.82-76c-0.96-0.42-1.91-0.83-2.86-1.26
		l0.06,0.02c-1.23-0.98-2.34-2.19-3.7-2.93c-23.3-12.55-48.26-16.72-73.93-11.19c-60.51,13.01-98.61,50.59-116.2,109.48
		c-0.69,2.29,0.11,5.04,0.22,7.56c3.28,10.24,6.48,20.53,9.94,30.72c0.75,2.23,2.38,4.15,3.6,6.21
		C654.87,394.8,656.87,395.1,658.87,395.41z"/>
	<path class="st2" d="M368.18,407.5c-0.33,1.36-0.66,2.72-0.99,4.08c-6.58,1.29-13.15,2.56-19.73,3.85
		c-1.15-1.05-2.32-2.11-3.47-3.16C352.05,410.68,360.12,409.08,368.18,407.5z"/>
	<path class="st3" d="M1058.33,504.8c-0.81-7.57-1.62-15.15-2.43-22.73c15.82,12.99,30.61,26.96,41.74,44.37
		c2.21,25.13-12.74,36.98-28,42.83c-9.29,3.55-18.9,6.4-28.54,8.86c-35.02,8.96-70.18,17.4-105.17,26.45
		c-64.31,16.63-128.55,33.48-192.79,50.39c-10.34,2.72-20.48,6.2-30.71,9.33l-0.17-0.26c-3.09,1.19-6.19,2.38-9.28,3.57
		c-3.32,0.78-6.64,1.56-9.95,2.34c-0.81,0.07-1.61,0.16-2.41,0.23c-0.21,0.07-0.43,0.06-0.64-0.01c-10.23,2.45-20.5,4.71-30.66,7.4
		c-6.37,1.69-12.57,4.03-18.85,6.08l0.07-0.05c-1.64,0.43-3.27,0.86-4.91,1.29c-13.66,3.26-27.33,6.57-41,9.78
		c-5.48,1.29-11.02,2.3-16.49,3.54c-3.37,0.76-6.69,1.73-10.05,2.6c-2.82,0.22-5.72,0.1-8.46,0.7
		c-71.35,15.87-142.65,31.87-214.01,47.67c-8.73,1.94-17.65,3.15-26.54,4.12c-20.32,2.22-36.75-6.86-52.19-18.6
		c-33.5-25.46-64.62-53.67-95.17-82.55c-3.12-2.95-6.89-5.24-10.34-7.84l0.04,0.05c-0.43-0.42-0.85-0.85-1.27-1.26l0.05,0.05
		c-0.43-0.43-0.86-0.85-1.29-1.27l0.06,0.06c-0.43-0.43-0.86-0.86-1.29-1.29l0.06,0.06c-0.43-0.43-0.87-0.86-1.3-1.29l0.07,0.07
		c-0.43-0.4-0.85-0.81-1.27-1.2c-3.14-3.35-6.21-6.75-9.41-10.02c-13.2-13.46-26.43-26.87-39.66-40.32c-0.39-0.4-0.8-0.81-1.19-1.23
		l0.06,0.06c-0.43-0.43-0.86-0.86-1.29-1.29l0.06,0.06c-0.43-0.43-0.86-0.86-1.29-1.29l0.06,0.06c-0.43-0.43-0.86-0.86-1.27-1.29
		l0.05,0.05c-0.43-0.43-0.86-0.86-1.27-1.27l0.05,0.05c-0.01-0.42-0.01-0.82-0.02-1.24c-1.48-1.61-2.95-3.21-4.44-4.83
		c-1.43-1.42-2.87-2.86-4.29-4.28c-3.08-4.78-6-9.67-9.28-14.3c-7.12-10.07-15-19.64-21.51-30.08
		c-12.84-20.62-0.89-52.24,35.1-52.78c-0.67,3.91-1.34,7.83-2.01,11.74c-1.73,1.07-3.47,2.13-5.18,3.21
		c-17.92,11.34-19.84,24.4-5.91,40.3c4.56,5.2,9.17,10.34,13.75,15.5c-0.86,2.92-0.72,3.06,3.2,3.59c0.42,0,0.61,0.22,0.6,0.64
		c0.6,1.85,0.74,4.08,1.87,5.49c4.85,6,9.69,12.08,15.1,17.57c19.59,19.9,39.24,39.75,59.19,59.29
		c18.05,17.68,36.41,35.07,54.88,52.34c10.85,10.15,21.74,20.29,33.32,29.57c24.94,20,53.72,27.43,84.87,20.83
		c54.62-11.57,109-24.21,163.4-36.78c40.77-9.42,81.42-19.37,122.1-29.19c58.06-14.01,116.14-27.95,174.14-42.19
		c51.11-12.55,102.25-25.05,153.17-38.37c29.67-7.76,59.1-16.53,88.26-26c9.8-3.19,18.98-9.2,27.46-15.29
		c6.14-4.42,5.29-12.99-0.12-18.81l0.16-0.37c-0.34-0.61-0.69-1.24-1.03-1.85C1070.72,518.65,1064.51,511.73,1058.33,504.8z"/>
	<path class="st3" d="M339.01,879.62c-1.81-8.74-3.15-17.62-5.55-26.2c-6.37-22.74-13.21-45.35-19.85-68.02
		c3.05-0.1,6.2,0.25,9.15-0.36C369.86,775.59,416.92,766,464,756.5c13.7-2.77,27.44-5.36,41.16-8.01
		c-16.21,40.29-32.41,80.6-48.74,120.84c-0.67,1.67-2.38,3.75-3.93,4.08c-33.43,7.28-66.6,16.19-101.06,17.33
		c-3.66,0.12-7.39-1.76-11.09-2.71C339.88,885.23,339.44,882.42,339.01,879.62z"/>
	<path class="st4" d="M568.07,700.79c3.35-0.87,6.67-1.84,10.05-2.6c5.49-1.24,11.03-2.25,16.49-3.54c13.68-3.21,27.34-6.51,41-9.78
		c1.64-0.43,3.27-0.86,4.91-1.29l-0.07,0.05c15.21-3.54,30.43-7.05,45.61-10.72c1.43-0.34,2.61-1.81,3.9-2.77
		c0.21,0.07,0.42,0.09,0.64,0.01c0.81-0.07,1.61-0.16,2.41-0.23c3.32-0.78,6.64-1.56,9.95-2.33c1.99-0.38,3.97-0.77,5.96-1.15
		c13.77-2.62,27.72-4.6,41.3-7.98c64.62-16.1,129.13-32.68,193.71-48.9c34.36-8.63,68.89-16.54,103.17-25.46
		c11.37-2.95,22.52-7.29,33.17-12.3c12.28-5.78,21.03-15.32,23.76-29.48c5.98,15.01,1.02,30.75-8.27,36.09
		c-8.95,5.15-18.33,9.8-28,13.39c-45.95,17.07-93.71,27.79-141.17,39.55c-60.49,14.99-120.9,30.33-181.61,44.39
		c-82.51,19.12-165.24,37.29-247.93,55.61c-44.92,9.95-89.92,19.58-134.98,28.9c-12.93,2.67-26.15,4.03-39.3,5.44
		c-26.73,2.87-50.05-6.21-70.39-22.61c-17.29-13.93-33.75-28.93-50.16-43.93c-36-32.9-71.76-66.08-107.57-99.2
		c-3.71-3.43-7.07-7.23-10.6-10.86c-0.78-1.78-1.24-3.81-2.41-5.27c-6.29-7.74-12.99-15.15-19.09-23.03
		c-8.36-10.81-16.78-21.83-19.4-35.61c-1.18-6.2-3.09-13.36,3.7-18.31c0.91,24.95,17.11,40.87,33.48,56.69
		c5.4,4.87,10.81,9.73,16.2,14.6l-0.1-0.05c0.42,0.42,0.83,0.83,1.26,1.26l-0.04-0.04c0.42,0.42,0.83,0.85,1.26,1.26l-0.04-0.04
		c0.42,0.43,0.83,0.87,1.25,1.3l-0.05-0.05c0.43,0.43,0.86,0.86,1.27,1.27l-0.05-0.05c0.43,0.43,0.86,0.86,1.27,1.29l-0.06-0.06
		c0.43,0.43,0.86,0.86,1.29,1.29l-0.06-0.06c0.43,0.43,0.86,0.86,1.29,1.29l-0.06-0.06c0.39,0.4,0.8,0.81,1.19,1.23
		c13.22,13.43,26.46,26.85,39.66,40.32c3.21,3.27,6.29,6.68,9.41,10.02c0.43,0.4,0.85,0.81,1.27,1.2l-0.07-0.07
		c0.43,0.43,0.87,0.86,1.3,1.29l-0.06-0.06c0.43,0.43,0.86,0.86,1.29,1.29l-0.06-0.06c0.43,0.43,0.86,0.85,1.29,1.27l-0.05-0.05
		c0.43,0.42,0.85,0.85,1.27,1.26l-0.04-0.05c1.1,1.64,2,3.48,3.35,4.89c33.36,34.89,69.95,66.06,109.02,94.33
		c13.03,9.42,27.68,15.61,44.05,13.36c17.29-2.38,34.46-5.85,51.51-9.62c58.01-12.85,115.96-26,173.89-39.21
		C551.58,706.12,559.78,703.23,568.07,700.79z"/>
	<path class="st3" d="M736.1,820.74c-30.4,6.79-60.81,13.6-91.23,20.28c-1.76,0.39-3.77-0.29-5.67-0.49
		c0.02-1.61,0.04-3.21,0.06-4.82c0.31-4.35,1.23-8.75,0.82-13.04c-3.05-31.67-6.37-63.29-9.61-94.94c-0.21-2.02-0.43-4.04-0.65-6.07
		c2.03-0.13,4.13-0.01,6.09-0.47c45.71-10.42,91.41-20.92,137.13-31.31c1.96-0.44,4.12-0.02,6.18,0
		c-12.55,37.41-25.13,74.81-37.62,112.25c-2.06,6.16-3.74,12.46-5.59,18.7C736,820.86,736.1,820.74,736.1,820.74z"/>
	<path class="st3" d="M1041.19,619.85c-14.03,36.02-28.03,72.06-42.12,108.05c-3.99,10.2-11.2,15.69-22.34,18.22
		c-17.43,3.97-34.35,10.07-51.58,14.96c-4.42,1.26-9.18,1.35-13.79,1.99c-0.01-4.58-0.02-9.17-0.04-13.75
		c0.56-5.72,1.75-11.46,1.59-17.16c-0.71-25.59-1.8-51.16-2.76-76.74c29.06-7.61,58.15-15.09,87.15-22.88
		C1012.03,628.6,1026.57,624.1,1041.19,619.85z"/>
	<path class="st5" d="M911.33,749.32c0.01,4.58,0.02,9.17,0.04,13.75c-6.15-1.97-12.7-3.2-18.41-6.05
		c-35.73-17.9-71.28-36.21-106.93-54.29c-3.11-1.58-4.29-3.46-2.89-6.79c1.41-3.37,2.72-6.78,4.07-10.17
		c1.2-0.06,2.46,0.05,3.6-0.23c24.63-6.14,49.25-12.39,73.89-18.47c12.99-3.2,26.05-6.11,39.09-9.15
		c1.69,27.36,3.32,54.74,5.15,82.09C909.15,743.14,910.51,746.22,911.33,749.32z"/>
	<path class="st5" d="M639.25,835.71c-0.02,1.61-0.04,3.21-0.06,4.82c-16.83-11.78-33.96-23.16-50.43-35.43
		c-25.32-18.85-50.18-38.28-75.22-57.51c-0.43-0.33-0.51-1.13-0.76-1.7c1.21,0,2.49,0.23,3.65-0.02
		c18.23-3.84,36.43-7.83,54.67-11.59c17.45-3.59,34.95-6.95,52.42-10.42c1.59,12.63,3.01,25.31,4.8,37.9
		C631.87,786.44,635.61,811.07,639.25,835.71z"/>
	<path class="st5" d="M339.01,879.62c0.44,2.81,0.88,5.61,1.32,8.42c-12.5-8.74-25.06-17.39-37.5-26.24
		c-13.28-9.45-26.6-18.87-39.63-28.65c-10.27-7.71-18.31-17.17-22.5-29.75c-7.46-22.41-15.44-44.66-23.2-66.97
		c0.97,0.23,2.18,0.17,2.88,0.74c11.59,9.45,23.5,18.54,34.57,28.58c14.95,13.57,32.13,20.62,52.23,20.77
		c6.96,22.34,13.68,44.75,20.99,66.98C331.11,862.41,335.35,870.92,339.01,879.62z"/>
	<path class="st5" d="M173.54,760.75c-8.75-6.21-17.97-11.87-26.15-18.76c-15.72-13.22-31.73-26.47-37.83-47.45
		c-3.46-11.9-7.14-23.74-10.33-35.71c-2.55-9.6-4.51-19.36-6.73-29.04c0.96,0.27,2.13,0.27,2.82,0.85
		c16.9,14.33,33.7,28.77,50.64,43.05c8.98,7.57,18.2,14.85,27.32,22.27c0.1,15.6,0.13,31.2,0.34,46.8c0.04,3.17,0.75,6.32,1.14,9.5
		C174.36,755.06,173.95,757.91,173.54,760.75z"/>
	<path class="st6" d="M505.15,748.48c-13.73,2.67-27.46,5.26-41.16,8.01c-47.08,9.5-94.14,19.09-141.23,28.54
		c-2.95,0.59-6.1,0.26-9.15,0.36c-1.29-4.26-2.57-8.53-3.98-13.22c9.11-0.85,17.84-1.03,26.33-2.57
		c24.82-4.53,49.57-9.44,74.27-14.55c32.68-6.75,65.3-13.82,97.95-20.75c0.55-0.12,1.15-0.01,2.78-0.01
		C508.9,739.32,507.02,743.9,505.15,748.48z"/>
	<path class="st6" d="M779.21,689.91c-2.06-0.02-4.22-0.44-6.18,0c-45.72,10.39-91.42,20.89-137.13,31.31
		c-1.96,0.45-4.06,0.32-6.09,0.47c-0.49-4.22-0.98-8.44-1.53-13.23c52.07-11.92,103.95-23.81,157.16-36
		C783.18,678.77,781.19,684.34,779.21,689.91z"/>
	<path class="st7" d="M173.29,695.94c-9.12-7.41-18.33-14.69-27.32-22.27c-16.94-14.28-33.74-28.72-50.64-43.05
		c-0.69-0.58-1.86-0.58-2.82-0.85l0.13-0.05c-0.37-0.82-0.74-1.64-1.1-2.46c-3.15-10.7-6.3-21.4-9.53-32.4
		c5.12,4.82,9.96,9.5,14.94,14.03c22.17,20.16,44.04,40.66,66.73,60.23C172.53,676.75,175.22,685.15,173.29,695.94z"/>
	<path class="st6" d="M1041.19,619.85c-14.62,4.25-29.17,8.75-43.87,12.7c-29.01,7.78-58.1,15.27-87.15,22.88
		c-0.62-13.41-0.61-13.35,12.14-16.72c40.27-10.65,80.51-21.36,120.78-32.02c0.72-0.2,1.52-0.11,3.22-0.21
		C1044.45,611.33,1042.82,615.6,1041.19,619.85z"/>
	<path class="st7" d="M903.79,657.91c-13.03,3.04-26.1,5.96-39.09,9.15c-24.66,6.08-49.26,12.33-73.89,18.47
		c-1.15,0.28-2.4,0.17-3.6,0.23c1.46-10.66,6.36-16.27,18.08-18.68c30.86-6.3,61.31-14.52,91.93-21.96
		c1.52-0.37,3.09-0.55,5.04-0.89C902.79,649.12,903.3,653.51,903.79,657.91z"/>
	<path class="st8" d="M173.54,760.75c0.4-2.84,0.82-5.67,1.23-8.52c0.82-4.86,2.11-9.72,2.39-14.62c0.7-11.86,0.92-23.76,1.35-35.64
		c3.44,2.82,6.85,5.7,10.34,8.46c6.31,4.99,12.68,9.9,19.03,14.84c3.27,8.92,6.54,17.84,10.1,27.54
		C202.75,755.75,188.82,761.73,173.54,760.75z"/>
	<path class="st7" d="M623.54,723.86c-17.47,3.47-34.97,6.83-52.42,10.42c-18.25,3.76-36.44,7.76-54.67,11.59
		c-1.16,0.25-2.43,0.02-3.65,0.02c2.05-9.86,7.24-14.72,18.03-16.67c28.72-5.18,57.15-12.06,85.66-18.44
		c4.36-0.98,6.13,0.69,6.58,4.55C623.39,718.15,623.39,721.02,623.54,723.86z"/>
	<path class="st7" d="M307.18,786.5c-20.11-0.15-37.29-7.19-52.23-20.77c-11.05-10.04-22.98-19.14-34.57-28.58
		c-0.7-0.56-1.91-0.5-2.88-0.74c-2.43-6.75-4.84-13.5-7.27-20.27c0.43-0.26,0.86-0.53,1.29-0.78c6.27,5.64,12.51,11.32,18.85,16.9
		c15.17,13.33,31.27,25.34,49.97,33.31c5.17,2.21,10.77,4.04,16.31,4.56c5.04,0.47,7.23,2.39,8.1,6.99
		C305.35,780.3,306.36,783.38,307.18,786.5z"/>
	<path class="st9" d="M712.43,664.28c10.23-3.12,20.38-6.61,30.71-9.33c64.23-16.91,128.48-33.77,192.79-50.39
		c35-9.04,70.16-17.49,105.17-26.45c9.64-2.46,19.25-5.31,28.54-8.86c15.26-5.85,30.21-17.68,28-42.83
		c5.27,9.29,2.79,18.37-2.24,26.36c-3.24,5.13-8.42,9.42-13.55,12.89c-14.08,9.53-30.49,13.36-46.69,17.39
		c-49.78,12.4-99.64,24.46-149.37,37.06c-55.84,14.14-111.56,28.74-167.35,43.11C716.48,663.76,714.43,663.95,712.43,664.28z"/>
	<path class="st10" d="M95.68,474.35c-35.99,0.55-47.93,32.16-35.1,52.78c6.51,10.44,14.39,20.01,21.51,30.08
		c3.27,4.63,6.2,9.52,9.28,14.3c-3.19-3.17-6.38-6.35-9.57-9.51c-6.78-8.41-14.35-16.31-20.06-25.38
		c-4.56-7.23-7.95-15.64-9.91-23.97c-3.44-14.63,3.44-28.79,17.11-35.13c9.12-4.24,19.18-6.48,28.81-9.61
		C97.05,470.05,96.36,472.21,95.68,474.35z"/>
	<path class="st11" d="M207.88,725.27c-6.35-4.94-12.72-9.85-19.03-14.84c-3.49-2.76-6.9-5.64-10.34-8.46c0-5.43,0-10.86,0-16.29
		c0.54-0.26,1.09-0.51,1.63-0.78C191.58,696.76,206.76,705.9,207.88,725.27z"/>
	<path class="st9" d="M46.84,506.87c-6.79,4.95-4.88,12.11-3.7,18.31c2.62,13.8,11.04,24.82,19.4,35.61
		c6.1,7.88,12.81,15.29,19.09,23.03c1.18,1.46,1.63,3.49,2.41,5.27c-16.9-15.44-31.63-32.68-41-53.72
		c-4.72-10.59-5.89-22.01-0.96-33.16c1.34-3.03,3.32-5.76,5.01-8.63c0.48,0.18,0.96,0.37,1.43,0.55
		C47.98,498.38,47.41,502.62,46.84,506.87z"/>
	<path class="st2" d="M81.81,562.01c3.19,3.17,6.38,6.35,9.57,9.51c1.43,1.42,2.87,2.86,4.29,4.28c0.29,0.78,0.58,1.57,0.86,2.35
		c-5.4-4.86-10.81-9.73-16.2-14.6C80.81,563.04,81.3,562.52,81.81,562.01z"/>
	<path class="st9" d="M708.94,666.44c-1.99,0.38-3.97,0.77-5.96,1.15c3.09-1.19,6.19-2.38,9.28-3.57
		C711.16,664.83,710.04,665.64,708.94,666.44z"/>
	<path class="st5" d="M91.55,627.26c0.37,0.82,0.74,1.64,1.1,2.46C92.28,628.89,91.92,628.08,91.55,627.26z"/>
	<path class="st12" d="M385.37,453.4c19.23,4.11,37.46,10.49,52.88,23.28c1.54,1.27,3.31,2.29,4.96,3.43
		c0.89,1.94,1.46,4.14,2.74,5.77c9.63,12.19,17.98,25.11,23.2,39.88c9.57,27.09,9.17,54.65,3.52,82.36
		c-9.57,46.95-36.89,78.33-82.78,92.88c-19.78,6.27-40.21,7.59-60.88,7.16c-22.24-0.47-43.49-5.05-63.93-13.71
		c-5.96-2.52-12.01-4.8-18.03-7.19c-8.57-8.17-17.13-16.35-25.7-24.52c-0.43-0.4-0.87-0.82-1.3-1.23l0.04,0.12
		c-0.38-5.66-1.25-11.34-1.07-16.98c0.58-18.05,0.62-36.2,2.57-54.12c2.25-20.78,9.58-40.27,19.9-58.49
		c3.14-5.54,6.89-10.72,10.88-16.87c3.46,12.93,9.01,16.07,19.56,10.54c17.94-9.4,33.92-21.69,47.54-36.73
		c6.51-7.18,4.31-14.09-4.63-17.81c-1.34-0.55-2.77-0.92-4.78-1.58c2.44-1.25,4.18-2.3,6.03-3.06
		c18.19-7.41,36.75-12.99,56.73-12.25C376.99,454.44,381.19,453.72,385.37,453.4z M259.03,652.83c-2.07,2.84-4.17,4.47-4.19,6.15
		c-0.02,1.21,2.59,3.26,4.2,3.47c1.14,0.15,3.71-2.21,3.66-3.37C262.65,657.35,260.83,655.68,259.03,652.83z M366.59,488.43
		c-1.79,2.38-3.64,3.79-3.64,5.17c0,1.18,2.32,3.42,3.33,3.27c1.53-0.22,3.62-1.92,3.96-3.36
		C370.5,492.45,368.39,490.81,366.59,488.43z M402.76,649.46c1.12-2.89,2.37-4.62,2.17-6.16c-0.12-0.99-2.51-2.55-3.62-2.35
		c-1.24,0.22-3.25,2.46-3.01,3.24C398.79,645.79,400.56,647,402.76,649.46z"/>
	<path class="st12" d="M515.5,645.12c-0.28-30.1-3.36-59.79-13.23-88.45c-0.78-2.29-1.69-4.55-2.54-6.81
		c0.75-1.32,1.97-2.57,2.18-3.98c4.5-30.54,15.61-58.43,33.6-83.48c4.18-5.82,9.23-11.02,14.51-17.24c0.56,1.9,0.88,2.59,0.97,3.31
		c1.23,10.58,5.58,14.26,15.43,10.66c10.43-3.82,20.5-8.91,30.16-14.45c8.58-4.91,16.8-10.7,24.4-17.03
		c5.85-4.88,4.68-12.11-1.48-16.67c-1.21-0.89-2.54-1.64-4.26-2.76c18.86-4.53,37.2-5.43,55.72-2.92
		c6.21,0.85,12.43,1.68,18.64,2.51l-0.11-0.06c1.26,0.43,2.51,0.86,3.77,1.29l-0.09-0.06c0.76,0.1,1.53,0.18,2.29,0.28
		c13.42,6.4,26.65,13.1,37,24.21c3.7,7.89,7.67,15.66,11.04,23.69c12.83,30.54,17.47,62.02,9.61,94.64
		c-4.58,19.02-11.84,36.92-25.55,51.32c-20.37,21.4-46.64,29.56-75.16,31.25c-12.12,0.72-24.37-0.59-36.57-0.97
		c-10.47-8.63-19.96-18.99-31.6-25.51c-24.31-13.63-43.5-10.09-57.64,14.17C522.3,629.39,519.17,637.41,515.5,645.12z
		 M637.75,497.46c-3.16-2.46-4.73-4.56-6.51-4.75c-1.26-0.13-4.11,2.56-3.92,3.57c0.32,1.74,2.21,3.9,3.88,4.44
		C632.46,501.1,634.44,499.2,637.75,497.46z M728.51,523.65c-2.13-1.74-3.77-4.06-4.96-3.84c-1.68,0.29-3.01,2.48-4.5,3.85
		c1.48,1.37,2.83,3.54,4.51,3.84C724.75,527.71,726.39,525.39,728.51,523.65z M648.37,603.08c0.65-1.08,1.31-2.14,1.96-3.22
		c-1.87-0.62-3.81-1.86-5.6-1.67c-1.13,0.12-2.79,2.4-2.78,3.69c0.01,1.34,1.76,2.67,2.74,3.99
		C645.93,604.95,647.15,604.02,648.37,603.08z"/>
	<path class="st12" d="M929.5,344.32c22.95,4.55,43.82,13.49,61.49,29.19c3.35,7.13,6.76,14.22,10,21.4
		c10.82,24.02,16.92,49.04,11.84,75.3c-7,36.11-27.99,61.58-61.69,76.5c-20.17,8.93-41.53,10.72-63.21,10.69
		c-4.96-3.86-9.66-8.15-14.93-11.51c-26.09-16.62-53.33-10.2-63.72,15.76c-4.94,12.34-7.39,25.67-10.96,38.56
		c-0.37,0.01-0.72,0.02-1.09,0.05c1.53-35.89-2.56-70.99-15.6-104.69c-2.99-7.74-6.97-15.11-10.43-22.67
		c-0.82-1.8-1.4-3.73-2.07-5.6c1.67-5.4,2.97-10.97,5.06-16.2c11.46-28.58,27.72-53.74,52.57-72.64l-0.01-0.01
		c-0.25,1.38-0.45,2.78-0.75,4.17c-2.1,9.75,1.4,21.04,15.44,14.85c17.01-7.5,32.95-17.5,48.97-27.07c3.64-2.17,7.35-6.73,8-10.69
		c0.6-3.65-2.87-7.97-4.84-12.72c7.08-0.51,14.94-1.07,22.78-1.64C920.73,344.99,925.12,344.65,929.5,344.32z M936.28,425.08
		c-2.86-2.13-4.93-4.67-6.03-4.3c-1.75,0.59-3.59,2.98-3.93,4.87c-0.21,1.13,2.59,4.07,3.65,3.9
		C931.87,429.23,933.5,427.18,936.28,425.08z M875.01,528.49c2.1-3.1,3.92-4.71,4.11-6.49c0.12-1.13-2.21-2.51-3.43-3.79
		c-1.19,1.32-3.11,2.52-3.36,3.99C872.08,523.65,873.58,525.37,875.01,528.49z M810.12,469.18c1.45-2.29,2.95-3.64,2.93-4.95
		c-0.02-1.24-1.91-3.55-2.56-3.42c-1.59,0.33-2.94,1.81-4.39,2.83C807.18,465.12,808.27,466.63,810.12,469.18z M920.35,514.11
		c-2.71-1.07-4.14-2.21-5.16-1.9c-1.41,0.42-2.49,1.91-3.71,2.95c1.29,0.96,2.56,2.67,3.85,2.67
		C916.58,517.84,917.83,516.09,920.35,514.11z"/>
	<path class="st12" d="M323.44,396.78c14.69,13.87,25.28,30.49,32.9,49.09c-2.27-0.86-4.5-1.84-6.81-2.54
		c-19.78-6-37.8,0.06-54.97,8.98c-23.59,12.24-44.3,28.34-62.3,48.05c-13.58,14.85-24.46,31.43-33.23,49.35
		c-11.05,22.58-17.39,46.68-20.56,71.59c-22.38-22.28-44.83-44.48-67.06-66.91c-4.99-5.04-9.24-10.81-13.82-16.25
		c0.15-39.52,8.3-76.8,30.22-110.99c5.76,9.98,10.64,12,19.75,6.31c12.39-7.71,24.14-16.47,35.84-25.22
		c4.49-3.36,8.46-7.61,11.96-12.01c4.84-6.09,3.46-11.74-3.14-15.89c-0.72-0.45-1.36-1.05-2.4-1.86
		c21.42-9.99,43.49-11.65,65.71-9.5c23.38,2.27,44.17,12.03,62.95,26.07C319.8,396.08,321.76,396.23,323.44,396.78z M129.59,530.43
		c-1.14,0.2-2.28,0.38-3.42,0.58c0.36,2.4,0.7,4.8,1.05,7.21c1.41-0.44,4.07-1.04,4.03-1.31
		C130.98,534.7,130.21,532.57,129.59,530.43z"/>
	<path class="st12" d="M570.06,285.29c6.19,3.84,12.89,7.02,18.47,11.6c28.36,23.31,46.31,53.17,54.54,88.91
		c-51.21,1.3-92.36,24.86-129.17,59.36c-1.41-3.22-2.25-5.71-3.52-7.95c-3.03-5.37-6.26-10.62-9.41-15.93
		c-3.36-9.6-6.56-19.25-10.11-28.79c-3.74-10.01-11.31-15.61-21.63-17.71c-16.21-3.28-31.87,0.83-47.72,3.26
		c-17.32,2.65-27.67,12.1-32.43,28.8c-2.94,10.32-6.99,20.32-10.54,30.45c-0.51-2.03-1.56-4.09-1.47-6.1
		c1.08-25.99,6.54-50.99,17.6-74.62c8.16-17.46,18.7-33.23,33.8-45.59l0.04,0.04c-0.27,1.8-0.45,3.62-0.81,5.39
		c-1.78,8.87,4.9,15.94,13.31,12.9c10.65-3.85,21.1-8.54,30.99-14.04c8.82-4.9,17.22-10.85,24.97-17.32
		c6.37-5.31,5.33-12.18-1.27-16.98c-1.19-0.87-2.45-1.62-4.06-2.67c16.52-3.59,32.51-4.08,48.53-1.54
		c7.39,1.16,14.63,3.16,21.95,4.79l-0.04-0.02c2.07,0.83,4.13,1.67,6.2,2.5l-0.1-0.06C568.8,284.42,569.44,284.85,570.06,285.29z
		 M545.22,352.49c-2.6-1.58-4.11-3.21-5.55-3.15c-1.13,0.05-3.28,2.57-3.03,3.31c0.51,1.47,2.24,3.11,3.73,3.42
		C541.4,356.27,542.86,354.33,545.22,352.49z"/>
	<path class="st12" d="M652.89,394.49c-1.23-2.07-2.86-3.99-3.62-6.21c-3.44-10.2-6.64-20.48-9.94-30.72c1.1-1.5,2.71-2.83,3.25-4.5
		c7.03-21.48,17.46-41.14,31.54-58.82c3.17-3.98,6.76-7.63,10.61-11.94c0.65,1.74,1.03,2.28,1.03,2.82
		c0.1,11.97,9.02,14.5,16.94,11.09c7.29-3.12,14.71-6.1,21.56-10.06c9.83-5.67,19.85-11.36,28.54-18.54
		c10.44-8.61,8.77-16.27-3.77-22.35c1.79-0.58,3.21-1.26,4.71-1.48c16.84-2.43,33.64-2.33,50.17,1.96
		c9.79,2.54,19.37,5.89,29.04,8.9l-0.06-0.02c0.96,0.42,1.91,0.83,2.86,1.26c29.32,18.1,49.02,43.88,60.82,76
		c-7.94,0.13-16.02-0.65-23.79,0.59c-19.77,3.15-37.85,11.21-54.1,22.67c-13.06,9.2-25.18,19.74-37.72,29.69
		c-4.35-12.9-8.44-25.89-13.1-38.68c-5.44-14.93-14.77-22.19-30.46-21.43c-15.53,0.75-31.06,2.97-46.4,5.7
		c-11.78,2.11-19.91,9.53-23.75,21.32C662.61,366.02,657.68,380.24,652.89,394.49z M758.13,303.66c-1.62,1.91-3.53,3.38-3.28,4.02
		c0.51,1.32,2.06,2.83,3.39,3.08c0.94,0.17,3.24-1.74,3.15-2.54C761.24,306.88,759.7,305.69,758.13,303.66z"/>
	<path class="st13" d="M247.06,687.26c6.02,2.39,12.07,4.67,18.03,7.19c20.44,8.66,41.69,13.23,63.93,13.71
		c20.66,0.44,41.1-0.88,60.88-7.16c45.89-14.55,73.2-45.94,82.78-92.88c5.65-27.71,6.05-55.27-3.52-82.36
		c-5.22-14.77-13.57-27.67-23.2-39.88c-1.29-1.63-1.85-3.84-2.74-5.77c12.71,7.87,22.19,18.97,30.75,30.93
		c18.61,26.05,28.69,55.34,33.15,86.88c3.55,25.18,3.48,50.21-1.25,75.22c-0.34,1.79-0.25,3.66-0.34,5.49
		c-0.37,1.13-0.99,2.23-1.05,3.37c-0.38,6.54-3.5,9.72-10.2,11.23c-18.46,4.14-36.73,9.04-55.03,13.81
		c-2.84,0.74-5.45,2.37-8.17,3.58c-3.97,0.87-7.93,1.73-11.9,2.6c-7.61,1.03-15.31,1.7-22.83,3.15
		c-22.13,4.25-43.75,10.76-66.75,10.48C295.63,726.43,270.05,709.83,247.06,687.26z"/>
	<path class="st13" d="M887.93,557.39c21.68,0.04,43.04-1.75,63.21-10.69c33.7-14.93,54.69-40.39,61.69-76.5
		c5.09-26.26-1.02-51.28-11.84-75.3c-3.24-7.18-6.67-14.26-10-21.4c12.23,8.17,21.37,19.35,29.63,31.21
		c16.58,23.81,26.29,50.48,30.31,79.03c2.19,15.62,2.83,31.51,3.61,47.29c0.33,6.65-0.76,13.37-1.2,20.06
		c-22.05,7.07-43.94,14.62-66.16,21.07c-24.73,7.16-49.77,13.3-73.36,19.53C904.73,579.67,896.33,568.53,887.93,557.39z"/>
	<path class="st13" d="M615.84,633.4c12.19,0.38,24.44,1.69,36.57,0.97c28.52-1.7,54.79-9.86,75.16-31.25
		c13.71-14.4,20.97-32.3,25.55-51.32c7.86-32.62,3.22-64.1-9.61-94.64c-3.37-8.03-7.34-15.8-11.04-23.69
		c6.74,6.65,14.29,12.67,20.07,20.07c21.69,27.79,32.84,59.91,37.58,94.59c3.16,23.14,3.08,46.11-1.21,69.08
		c-0.29,1.59-0.2,3.26-0.27,4.89c-52.76,12.22-105.51,24.44-157.4,36.44C625.96,649.93,620.9,641.66,615.84,633.4z"/>
	<path class="st0" d="M615.84,633.4c5.06,8.27,10.12,16.53,15.4,25.15c51.87-12.01,104.64-24.23,157.4-36.44
		c1.72-0.4,3.44-0.81,5.16-1.2c0.76-0.74,2.08-1.38,2.21-2.21c0.91-6.14,1.57-12.32,2.32-18.48c3.58-12.89,6.02-26.22,10.96-38.56
		c10.39-25.95,37.63-32.38,63.72-15.76c5.28,3.36,9.98,7.65,14.93,11.51c8.41,11.14,16.8,22.28,25.89,34.31
		c23.6-6.24,48.63-12.38,73.36-19.53c22.23-6.43,44.13-13.99,66.16-21.07c1.75-0.82,3.5-1.64,5.24-2.46
		c15.47-6.48,17.83-16.54,6.75-28.98c-1.73-1.94-3.81-3.55-5.74-5.32c-2.34-2.92-3.95-5.94-1.27-9.53
		c6.19,6.92,12.39,13.85,18.58,20.77c0.34,0.61,0.69,1.24,1.03,1.85l-0.16,0.37c0.96,13.23-2.21,18.88-14.24,24.75
		c-3.84,1.87-7.87,3.37-11.87,4.87c-45.38,16.86-92.2,28.8-139.12,40.23c-135.06,32.9-270.17,65.52-405.35,97.85
		c-25.15,6.02-50.73,10.13-76.11,15.12c2.72-1.21,5.33-2.83,8.17-3.58c18.31-4.77,36.58-9.67,55.03-13.81
		c6.69-1.5,9.82-4.68,10.2-11.23c0.06-1.14,0.7-2.24,1.05-3.37c3.33-11.18,6.67-22.35,10-33.52c3.66-7.71,6.8-15.72,11.09-23.06
		c14.14-24.25,33.33-27.79,57.64-14.17C595.88,614.41,605.38,624.77,615.84,633.4z M522.82,643.06c-0.43,0.88-0.86,1.75-1.27,2.63
		l0.07,0.44c-0.36,0.99-0.72,2-1.08,2.99c-3.91,12.84-7.83,25.7-12.32,40.42c13.86-3.53,25.89-6.59,37.93-9.66
		c24.63-6.04,49.26-12.08,73.88-18.15c1.27-0.32,2.49-0.92,3.73-1.38c-5.13-14.1-18-31.68-28.59-39.25
		c-8.23-4.64-16.05-10.38-24.78-13.68c-13.68-5.17-26.14-0.72-35.23,10.5c-1.87,2.32-3.1,4.35,0.02,6.52
		c8.27,11.86,20.21,7.05,31.19,6.56c0.1,0.59,0.18,1.19,0.28,1.78c-5.56,1.16-11.13,2.32-16.69,3.48c-6.95,0.2-12.74-2.62-18-6.86
		c-0.61-1.02-1.23-2.03-2.61-4.34c-2.52,6.95-4.56,12.51-6.59,18.08L522.82,643.06z M886.83,565.83l0.2-0.04
		c-8.3-10.77-18.76-18.68-31.79-22.66c-11.14-3.41-21.4-0.99-30.27,6.56c-0.93,0.8-0.76,2.89-1.1,4.37
		c10.33,15.61,25.24,14.6,41.03,10.38c-10.29,6.37-16.15,7.52-26.86,6.13c-5.71-3.6-11.42-7.22-17.13-10.82
		c-0.65-1.04-1.29-2.08-2.61-4.22c-2.72,6.19-4.96,11.29-7.21,16.37c-0.09,0.49-0.17,0.98-0.26,1.47c-0.33,1.12-0.66,2.23-0.99,3.35
		c-4.45,13.57-8.44,27.23-10.39,42.95c12.02-3.04,22.74-5.76,33.48-8.48c14.82-3.53,29.63-7.03,44.43-10.61
		c9.37-2.27,18.72-4.64,30.02-7.46c-6.9-9.47-12.93-17.76-18.97-26.03C887.88,566.66,887.35,566.25,886.83,565.83z"/>
	<path class="st13" d="M178.44,621.32c3.17-24.93,9.51-49.01,20.56-71.6c8.77-17.92,19.66-34.5,33.23-49.35
		c18-19.71,38.71-35.82,62.3-48.05c17.18-8.91,35.19-14.97,54.97-8.98c2.32,0.7,4.55,1.69,6.81,2.54
		c-5.23,1.19-10.44,2.55-15.71,3.54c-33.93,6.42-63.04,22-86.12,47.57c-24.42,27.06-39.89,58.87-45.32,95.08
		c-1.99,13.21-2.73,26.63-3.54,39.99c-0.33,5.43,0.66,10.93,1.07,16.4C197.28,639.41,187.87,630.36,178.44,621.32z"/>
	<path class="st14" d="M768.04,434.92c-2.33,6.41-4.66,12.82-7.48,20.59c-15.69-21.29-34.08-37.41-56.55-48.64
		c0.47-2.1,1.4-4.22,1.31-6.29c-0.66-15.98-1.53-31.94-2.33-47.9c14.67,1.57,29.3,2.35,43.75-1.62c2.48-0.54,4.94-1.07,7.21-1.56
		c0.53,0.51,1.02,0.76,1.08,1.08c3.5,19.69,7.16,39.36,10.37,59.09C766.76,418.01,767.18,426.5,768.04,434.92z"/>
	<path class="st3" d="M459.11,485.22c-9.45-6.97-18.22-15.24-28.52-20.6c-12.29-6.38-25.88-10.28-38.91-15.24
		c0.42-4.02,0.99-8.03,1.21-12.06c0.75-13.76,3.82-26.87,10.91-38.8c3.43-5.76,8.25-10.32,15.12-11.3
		c19.79-2.81,39.62-6.31,59.62-1.5c-4.73,3.66-8.97,9.07-14.3,10.58c-8.03,2.27-16.81,2.02-25.29,2.41
		c-7.33,0.34-14.68,0.07-22.03,0.07c-0.01,0.37-0.02,0.74-0.05,1.1c6.31,1.05,12.61,2.1,18.92,3.15c2.5,4.12,5.13,8.16,7.5,12.36
		C455.47,437.12,457.85,461.06,459.11,485.22z"/>
	<path class="st14" d="M459.11,485.22c-1.26-24.18-3.64-48.1-15.82-69.79c-2.35-4.2-4.99-8.25-7.5-12.36
		c5.44,0.17,10.89,0.58,16.34,0.47c10.47-0.2,19.64-4.09,27.83-10.47c0.26,2.21,0.29,4.46,0.81,6.59
		c8.76,36.2,17.07,72.49,17.79,109.98c-1.86,7.35-3.73,14.71-5.83,23.04C483.75,514.58,472.42,499.19,459.11,485.22z"/>
	<path class="st15" d="M323.44,396.78c-1.67-0.55-3.64-0.7-4.98-1.69c-18.79-14.04-39.57-23.8-62.95-26.07
		c-22.21-2.16-44.29-0.49-65.71,9.5c1.04,0.81,1.68,1.41,2.4,1.86c6.58,4.15,7.98,9.8,3.14,15.89c-3.5,4.4-7.48,8.65-11.96,12.01
		c-11.7,8.75-23.45,17.51-35.84,25.22c-9.12,5.67-13.99,3.66-19.75-6.31c-21.92,34.18-30.07,71.47-30.22,110.98
		c-0.89-0.96-1.79-1.91-2.7-2.86c-0.53-24.61,1.62-48.88,9.95-72.24c17.87-50.07,51.59-83.92,103.23-98.23
		C252.6,352.49,290.78,365.19,323.44,396.78z"/>
	<path class="st16" d="M385.37,453.4c-4.19,0.32-8.38,1.03-12.56,0.88c-19.97-0.74-38.54,4.84-56.73,12.25
		c-1.86,0.76-3.59,1.81-6.03,3.06c2.02,0.66,3.44,1.03,4.78,1.58c8.95,3.71,11.14,10.62,4.63,17.81
		c-13.61,15.02-29.59,27.33-47.53,36.73c-10.55,5.53-16.11,2.39-19.56-10.54c-3.98,6.14-7.74,11.34-10.88,16.87
		c-10.32,18.22-17.65,37.71-19.9,58.49c-1.95,17.93-2,36.06-2.57,54.12c-0.18,5.64,0.69,11.32,1.07,16.97
		c-2.5-2.46-4.99-4.91-7.49-7.36c-0.33-11.6-1.37-23.25-0.86-34.81c1.97-44.97,15.27-85.85,46.84-119.06
		c25.37-26.69,56.52-43.43,93.29-47.98C362.84,451.06,374.2,452.98,385.37,453.4z"/>
	<path class="st15" d="M562.12,281.58c-7.32-1.62-14.56-3.62-21.95-4.79c-16-2.54-32.01-2.05-48.53,1.54
		c1.61,1.05,2.87,1.81,4.06,2.67c6.61,4.8,7.63,11.68,1.27,16.98c-7.76,6.47-16.15,12.41-24.97,17.32
		c-9.89,5.49-20.35,10.18-30.99,14.04c-8.41,3.04-15.09-4.03-13.31-12.9c0.36-1.78,0.55-3.59,0.81-5.39
		c0.17-0.18,0.34-0.36,0.51-0.54c-0.18,0.17-0.37,0.33-0.55,0.5c-15.1,12.35-25.64,28.12-33.8,45.59
		c-11.05,23.63-16.52,48.63-17.6,74.62c-0.09,2.01,0.96,4.07,1.47,6.1c-0.21,0.77-0.4,1.54-0.6,2.3c-0.23,0.55-0.48,1.1-0.71,1.64
		c-0.47,1.94-0.93,3.87-1.4,5.81c-1.34-1.21-3.79-2.38-3.85-3.65c-3.55-71.93,32.06-143.61,108.43-167
		c25.07-7.67,50.11-8.01,74.87,1.53C557.67,278.86,559.84,280.35,562.12,281.58z"/>
	<path class="st16" d="M689.59,407.82c-6.21-0.83-12.43-1.67-18.64-2.51c-18.52-2.51-36.86-1.62-55.72,2.92
		c1.73,1.12,3.05,1.86,4.26,2.76c6.16,4.55,7.33,11.79,1.48,16.67c-7.6,6.34-15.82,12.12-24.4,17.03
		c-9.66,5.54-19.73,10.62-30.16,14.45c-9.85,3.6-14.2-0.09-15.43-10.66c-0.09-0.72-0.4-1.41-0.97-3.31
		c-5.28,6.23-10.32,11.42-14.51,17.24c-17.99,25.06-29.1,52.94-33.6,83.48c-0.21,1.4-1.43,2.66-2.18,3.98
		c-4.94-8.12-1.86-16.37,0.17-24.29c14.61-57.04,48.44-97.41,104.1-118.33c27.06-10.16,54.51-10.64,82.02-1.54
		C687.3,406.13,688.4,407.1,689.59,407.82z"/>
	<path class="st16" d="M832.94,254.62c-9.67-2.99-19.25-6.35-29.04-8.9c-16.53-4.29-33.33-4.39-50.17-1.96
		c-1.49,0.22-2.92,0.91-4.71,1.48c12.55,6.08,14.22,13.74,3.77,22.35c-8.7,7.18-18.72,12.85-28.54,18.54
		c-6.84,3.96-14.26,6.92-21.56,10.06c-7.9,3.39-16.84,0.88-16.94-11.09c0-0.54-0.38-1.08-1.03-2.82c-3.85,4.3-7.44,7.95-10.61,11.94
		c-14.08,17.68-24.51,37.34-31.54,58.82c-0.55,1.68-2.14,3.01-3.25,4.5c-0.11-2.54-0.91-5.27-0.22-7.56
		c17.59-58.89,55.68-96.47,116.2-109.48c25.67-5.53,50.62-1.36,73.93,11.19C830.6,252.44,831.72,253.64,832.94,254.62z"/>
	<path class="st16" d="M929.5,344.32c-4.39,0.33-8.76,0.69-13.15,1c-7.84,0.58-15.7,1.13-22.78,1.64c1.97,4.75,5.44,9.07,4.84,12.72
		c-0.65,3.96-4.36,8.52-8,10.69c-16.02,9.57-31.96,19.57-48.97,27.07c-14.04,6.19-17.52-5.09-15.44-14.85
		c0.29-1.38,0.5-2.78,0.75-4.17c0.17-0.16,0.34-0.32,0.51-0.48c-0.11,0.02-0.25,0.01-0.31,0.09c-0.1,0.11-0.13,0.27-0.2,0.4
		c-24.85,18.91-41.11,44.08-52.57,72.64c-2.1,5.23-3.39,10.78-5.06,16.2c-4.3-2.97-4.93-6.61-3.24-11.58
		c19.19-56.42,56.98-93.26,114.6-109.29C896.62,341.93,913.03,341.87,929.5,344.32z"/>
	<path class="st11" d="M212.61,654.27c2.5,2.45,4.99,4.91,7.49,7.36l-0.04-0.12c0.43,0.4,0.87,0.81,1.3,1.23
		c8.57,8.17,17.13,16.35,25.7,24.52c22.99,22.57,48.58,39.17,82.5,39.58c23,0.28,44.62-6.23,66.75-10.48
		c7.54-1.45,15.22-2.12,22.83-3.15c-17.79,5.09-35.44,10.75-53.4,15.16c-40.56,9.96-77.26,1.94-109.3-25.37
		c-8.08-6.89-16.1-13.86-23.63-21.33c-44.31-44.02-88.46-88.21-132.68-132.34c0.02-0.43-0.17-0.64-0.6-0.64
		c-1.07-1.2-2.13-2.39-3.2-3.58c-4.58-5.17-9.2-10.31-13.75-15.5c-13.93-15.91-12.01-28.97,5.91-40.3c1.72-1.09,3.46-2.14,5.18-3.21
		c3.48,3.6,0.65,5.26-2.14,6.92c-15.77,9.52-16.75,23.59-2.48,35.57c1.94,2.23,3.88,4.47,5.82,6.72c0.89,0.96,1.79,1.9,2.7,2.86
		c4.58,5.44,8.84,11.21,13.82,16.25c22.24,22.41,44.69,44.62,67.06,66.91c9.41,9.04,18.84,18.09,28.25,27.14
		C208.66,650.4,210.64,652.34,212.61,654.27z"/>
	<path class="st3" d="M703,352.67c0.81,15.97,1.67,31.94,2.33,47.9c0.09,2.07-0.85,4.19-1.31,6.29
		c-12.6-3.74-25.18-7.49-37.78-11.24c5.02-14.57,9.63-29.3,15.32-43.6c1.72-4.34,5.7-9.2,9.84-10.88
		c15.05-6.11,31.15-7.6,47.25-6.48c3.8,0.27,7.36,4.11,11.03,6.3c-5.11,5.65-11.86,7.88-19.1,8.14c-9.75,0.34-19.53-0.07-29.3-0.09
		c-2.87,0-5.75,0.23-8.61,0.36c0,0.4,0,0.82,0,1.23C696.11,351.29,699.55,351.98,703,352.67z"/>
	<path class="st13" d="M500.97,421.28c3.15,5.31,6.37,10.55,9.41,15.93c1.26,2.24,2.11,4.73,3.52,7.95
		c36.81-34.5,77.96-58.06,129.17-59.36c0.69,2.48,1.38,4.95,2.22,7.94c-9.45,1.48-18.65,2.37-27.58,4.45
		c-24.03,5.62-45.79,15.87-65.03,31.71c-14.95,12.32-26.32,27.45-37.27,43.07C510.59,455.74,505.77,438.51,500.97,421.28z"/>
	<path class="st0" d="M500.97,421.28c4.82,17.23,9.62,34.46,14.44,51.7c-1.58,3.16-3.15,6.34-4.72,9.5
		c-6.96-25.66-13.81-51.36-20.94-76.97c-1.5-5.36-3.99-10.44-6.38-16.56c-1.68,2.05-2.54,3.09-3.39,4.13
		c-8.2,6.37-17.36,10.26-27.83,10.47c-5.44,0.1-10.89-0.29-16.34-0.47c-6.31-1.05-12.61-2.1-18.92-3.15
		c0.01-0.37,0.02-0.74,0.05-1.1c7.34,0,14.71,0.27,22.03-0.07c8.48-0.39,17.27-0.15,25.29-2.41c5.34-1.51,9.57-6.91,14.3-10.58
		c-4.19-2.03-8.22-5.29-12.62-5.89c-18.49-2.52-36.55,0.8-53.8,7.21c-5.21,1.94-11.04,6.81-13.09,11.79
		c-6.65,16.09-11.69,32.84-17.35,49.34c-1.95-0.37-3.9-0.75-5.85-1.12c0.47-1.94,0.93-3.87,1.38-5.81c0.23-0.55,0.48-1.1,0.71-1.64
		c0.2-0.77,0.4-1.54,0.6-2.3c3.55-10.15,7.61-20.15,10.54-30.45c4.75-16.7,15.11-26.15,32.43-28.8c15.86-2.43,31.51-6.54,47.72-3.26
		c10.32,2.1,17.89,7.7,21.63,17.71C494.41,402.03,497.61,411.68,500.97,421.28z"/>
	<path class="st13" d="M780.96,384.8c12.54-9.95,24.66-20.49,37.72-29.69c16.25-11.45,34.34-19.52,54.1-22.67
		c7.76-1.24,15.85-0.45,23.79-0.59c0.77,2.06,1.54,4.11,2.12,5.65c-11.9,3.01-23.6,5.33-34.88,8.96
		c-30.42,9.77-54.88,28.07-74.18,53.42c-0.97,1.27-2.3,2.25-3.47,3.37C784.43,397.1,782.7,390.95,780.96,384.8z"/>
	<path class="st0" d="M780.96,384.8c1.73,6.15,3.47,12.3,5.2,18.46c-1.56,2.72-3.12,5.43-4.68,8.15
		c-6.74-23.87-12.07-48.2-22.66-72.64c-4.83,4.91-8.44,8.6-12.07,12.29c-14.46,3.98-29.09,3.2-43.75,1.62
		c-3.44-0.69-6.89-1.37-10.32-2.06c0-0.4,0-0.82,0-1.23c2.87-0.12,5.75-0.37,8.61-0.36c9.77,0.01,19.55,0.43,29.3,0.09
		c7.23-0.26,13.98-2.49,19.1-8.14c1.68-1.61,3.36-3.21,6.03-5.76c-4.83-1.85-8.42-3.98-12.23-4.57c-20-3.03-39.28,0.65-57.74,8.09
		c-4.45,1.79-9.19,6.34-10.94,10.75c-5.99,15.04-10.71,30.57-15.92,45.93c-2-0.31-3.99-0.61-5.99-0.92
		c4.8-14.25,9.73-28.47,14.37-42.77c3.82-11.79,11.97-19.21,23.75-21.32c15.33-2.73,30.87-4.96,46.4-5.7
		c15.7-0.75,25.02,6.51,30.46,21.43C772.53,358.91,776.62,371.9,780.96,384.8z"/>
	<path class="st17" d="M479.95,393.07c0.86-1.04,1.72-2.08,3.39-4.13c2.39,6.11,4.89,11.19,6.38,16.56
		c7.13,25.61,13.99,51.31,20.94,76.97c-4.04,9.06-8.08,18.12-12.12,27.18c-0.72-37.5-9.03-73.78-17.79-109.98
		C480.25,397.53,480.21,395.27,479.95,393.07z"/>
	<path class="st17" d="M746.74,351.05c3.63-3.69,7.24-7.38,12.07-12.29c10.59,24.44,15.92,48.77,22.66,72.64
		c-4.49,7.84-8.96,15.67-13.44,23.52c-0.85-8.42-1.29-16.91-2.63-25.26c-3.21-19.74-6.86-39.41-10.37-59.09
		c-0.06-0.32-0.55-0.56-1.08-1.08C751.68,349.98,749.22,350.51,746.74,351.05z"/>
	<path class="st10" d="M658.87,395.41c5.21-15.34,9.93-30.89,15.92-45.93c1.76-4.41,6.49-8.96,10.94-10.75
		c18.46-7.44,37.74-11.13,57.74-8.09c3.82,0.58,7.4,2.71,12.23,4.57c-2.67,2.55-4.35,4.15-6.03,5.76c-3.66-2.19-7.23-6.04-11.03-6.3
		c-16.1-1.13-32.2,0.37-47.25,6.48c-4.14,1.68-8.12,6.56-9.84,10.88c-5.69,14.3-10.29,29.04-15.32,43.6
		C663.78,395.57,661.33,395.48,658.87,395.41z"/>
	<path class="st10" d="M381.68,448.19c5.66-16.49,10.7-33.26,17.35-49.34c2.06-4.98,7.88-9.85,13.09-11.79
		c17.25-6.41,35.31-9.73,53.8-7.21c4.39,0.6,8.42,3.86,12.62,5.89c-20-4.83-39.81-1.31-59.62,1.5c-6.87,0.97-11.7,5.53-15.12,11.3
		c-7.08,11.92-10.16,25.04-10.91,38.8c-0.22,4.03-0.8,8.04-1.21,12.06C388.35,448.99,385.02,448.58,381.68,448.19z"/>
	<path class="st18" d="M1059.6,514.33c1.92,1.76,4.01,3.38,5.73,5.32c11.09,12.44,8.73,22.5-6.75,28.98
		C1058.93,537.19,1059.26,525.76,1059.6,514.33z"/>
	<path class="st18" d="M366.77,417.55c0,9.67,0,19.35,0,29.02c-0.75,0.27-1.48,0.55-2.23,0.82c-1.16-1.41-2.61-2.67-3.46-4.24
		c-4.12-7.65-8.06-15.39-12.07-23.09C354.92,419.22,360.85,418.39,366.77,417.55z"/>
	<path class="st18" d="M89.05,528.59c-14.28-11.98-13.3-26.05,2.48-35.57C90.7,504.88,89.88,516.74,89.05,528.59z"/>
	<path class="st10" d="M366.77,417.55c-5.92,0.83-11.84,1.67-17.76,2.5c-0.51-1.54-1.03-3.09-1.54-4.63
		c6.57-1.27,13.15-2.56,19.73-3.85C367.04,413.57,366.91,415.57,366.77,417.55z"/>
	<path class="st13" d="M798.31,600.2c-0.74,6.16-1.41,12.34-2.32,18.48c-0.12,0.82-1.45,1.47-2.21,2.21
		c1.14-6.89,2.29-13.76,3.43-20.64C797.59,600.23,797.96,600.22,798.31,600.2z"/>
	<path class="st15" d="M568.27,284.05c-2.07-0.83-4.13-1.67-6.2-2.5C564.14,282.39,566.2,283.22,568.27,284.05z"/>
	<path class="st16" d="M693.25,409.04c-1.26-0.43-2.51-0.86-3.77-1.29C690.74,408.19,692,408.62,693.25,409.04z"/>
	<path class="st16" d="M695.47,409.26c-0.76-0.1-1.53-0.18-2.29-0.28C693.94,409.07,694.7,409.17,695.47,409.26z"/>
	<path class="st16" d="M835.75,255.85c-0.96-0.42-1.9-0.85-2.86-1.26C833.84,255.01,834.79,255.44,835.75,255.85z"/>
	<path class="st15" d="M570.06,285.29c-0.62-0.43-1.25-0.86-1.89-1.29C568.8,284.42,569.44,284.85,570.06,285.29z"/>
	<path class="st10" d="M100.14,549.34c44.21,44.13,88.37,88.32,132.68,132.34c7.52,7.48,15.55,14.45,23.63,21.33
		c32.02,27.29,68.72,35.33,109.3,25.37c17.95-4.41,35.61-10.07,53.4-15.16c3.97-0.86,7.94-1.73,11.9-2.6
		c25.39-4.99,50.98-9.11,76.12-15.12c135.19-32.33,270.31-64.95,405.35-97.85c46.92-11.43,93.75-23.37,139.12-40.23
		c4.01-1.5,8.04-2.99,11.87-4.87c12.03-5.87,15.21-11.52,14.24-24.75c5.42,5.82,6.26,14.39,0.12,18.81
		c-8.48,6.1-17.66,12.11-27.46,15.29c-29.17,9.47-58.6,18.25-88.26,26c-50.92,13.32-102.05,25.82-153.17,38.37
		c-58,14.24-116.07,28.2-174.14,42.19c-40.68,9.82-81.33,19.77-122.1,29.19c-54.4,12.57-108.78,25.21-163.4,36.78
		c-31.15,6.59-59.94-0.83-84.87-20.83c-11.57-9.28-22.47-19.42-33.32-29.57c-18.46-17.27-36.81-34.66-54.88-52.34
		c-19.95-19.55-39.59-39.39-59.19-59.29c-5.4-5.49-10.24-11.57-15.1-17.57C100.87,553.42,100.74,551.2,100.14,549.34z"/>
	<path class="st2" d="M568.07,700.79c-8.3,2.44-16.49,5.34-24.91,7.25c-57.94,13.21-115.88,26.35-173.89,39.21
		c-17.05,3.77-34.23,7.24-51.51,9.62c-16.37,2.25-31.03-3.93-44.05-13.36c-39.07-28.27-75.66-59.45-109.02-94.33
		c-1.35-1.41-2.24-3.25-3.35-4.89c3.47,2.6,7.22,4.89,10.34,7.84c30.55,28.87,61.66,57.08,95.17,82.55
		c15.44,11.74,31.87,20.82,52.19,18.6c8.9-0.97,17.82-2.18,26.54-4.12c71.36-15.8,142.67-31.8,214.01-47.67
		C562.35,700.89,565.26,701.01,568.07,700.79z"/>
	<path class="st9" d="M689.98,670.14c-1.3,0.94-2.46,2.41-3.9,2.77c-15.18,3.68-30.4,7.17-45.61,10.72
		c6.27-2.05,12.48-4.39,18.85-6.08C669.48,674.86,679.76,672.59,689.98,670.14z"/>
	<path class="st10" d="M96.52,578.15c-0.28-0.78-0.58-1.57-0.86-2.35c1.48,1.61,2.95,3.21,4.44,4.83c-0.4-0.02-0.82-0.05-1.23-0.06
		l0.04,0.04c-0.42-0.42-0.83-0.85-1.26-1.26l0.04,0.04c-0.42-0.42-0.83-0.83-1.26-1.26L96.52,578.15z"/>
	<path class="st10" d="M96.34,545.12c1.07,1.19,2.13,2.39,3.2,3.58C95.63,548.18,95.48,548.03,96.34,545.12z"/>
	<path class="st9" d="M640.55,683.58c-1.64,0.43-3.27,0.86-4.91,1.29C637.26,684.44,638.91,684.01,640.55,683.58z"/>
	<path class="st9" d="M693.03,669.93c-0.8,0.07-1.61,0.16-2.41,0.23C691.42,670.08,692.22,670.01,693.03,669.93z"/>
	<path class="st2" d="M161.4,644.33c-0.43-0.42-0.85-0.85-1.27-1.26C160.55,643.49,160.97,643.92,161.4,644.33z"/>
	<path class="st2" d="M106.14,587.93c-0.39-0.4-0.8-0.81-1.19-1.23C105.36,587.12,105.75,587.52,106.14,587.93z"/>
	<path class="st2" d="M160.17,643.12c-0.43-0.43-0.86-0.85-1.29-1.27C159.32,642.27,159.74,642.69,160.17,643.12z"/>
	<path class="st2" d="M158.95,641.91c-0.43-0.43-0.86-0.86-1.29-1.29C158.09,641.05,158.52,641.48,158.95,641.91z"/>
	<path class="st2" d="M157.72,640.69c-0.43-0.43-0.87-0.86-1.3-1.29C156.85,639.82,157.28,640.26,157.72,640.69z"/>
	<path class="st2" d="M156.5,639.47c-0.43-0.4-0.85-0.81-1.27-1.2C155.64,638.66,156.07,639.06,156.5,639.47z"/>
	<path class="st10" d="M1077.93,527.43c-0.34-0.61-0.69-1.24-1.03-1.85C1077.25,526.19,1077.59,526.81,1077.93,527.43z"/>
	<path class="st2" d="M98.88,580.55c0.4,0.02,0.82,0.05,1.23,0.06c0.01,0.42,0.01,0.82,0.02,1.24
		C99.71,581.42,99.29,580.99,98.88,580.55z"/>
	<path class="st2" d="M101.35,583.09c-0.43-0.43-0.86-0.86-1.27-1.27C100.49,582.23,100.92,582.66,101.35,583.09z"/>
	<path class="st2" d="M102.58,584.31c-0.43-0.43-0.86-0.86-1.27-1.29C101.72,583.45,102.15,583.88,102.58,584.31z"/>
	<path class="st2" d="M103.8,585.54c-0.43-0.43-0.86-0.86-1.29-1.29C102.95,584.68,103.37,585.11,103.8,585.54z"/>
	<path class="st2" d="M105.02,586.77c-0.43-0.43-0.86-0.86-1.29-1.29C104.16,585.92,104.59,586.35,105.02,586.77z"/>
	<path class="st2" d="M96.43,578.11c0.42,0.42,0.83,0.83,1.26,1.26C97.27,578.94,96.85,578.53,96.43,578.11z"/>
	<path class="st2" d="M97.65,579.34c0.42,0.42,0.83,0.85,1.26,1.26C98.5,580.18,98.08,579.75,97.65,579.34z"/>
	<path class="st13" d="M259.03,652.83c1.8,2.86,3.62,4.52,3.68,6.25c0.05,1.16-2.52,3.52-3.66,3.37c-1.62-0.21-4.23-2.25-4.2-3.47
		C254.88,657.3,256.96,655.66,259.03,652.83z"/>
	<path class="st13" d="M366.59,488.43c1.8,2.37,3.91,4.01,3.65,5.1c-0.34,1.43-2.43,3.14-3.96,3.36c-1.02,0.15-3.33-2.1-3.33-3.27
		C362.94,492.22,364.8,490.81,366.59,488.43z"/>
	<path class="st13" d="M402.76,649.46c-2.21-2.45-3.97-3.66-4.46-5.27c-0.23-0.77,1.78-3.03,3.01-3.24c1.1-0.2,3.49,1.36,3.62,2.35
		C405.13,644.84,403.88,646.56,402.76,649.46z"/>
	<path class="st16" d="M221.36,662.74c-0.43-0.4-0.87-0.81-1.3-1.23C220.49,661.92,220.93,662.33,221.36,662.74z"/>
	<path class="st13" d="M637.75,497.46c-3.31,1.75-5.28,3.65-6.53,3.25c-1.69-0.54-3.57-2.7-3.88-4.44c-0.18-1,2.66-3.7,3.92-3.57
		C633.02,492.89,634.59,495,637.75,497.46z"/>
	<path class="st13" d="M728.51,523.65c-2.12,1.74-3.76,4.06-4.95,3.84c-1.68-0.29-3.01-2.46-4.51-3.84c1.48-1.37,2.82-3.54,4.5-3.85
		C724.74,519.61,726.38,521.91,728.51,523.65z"/>
	<path class="st13" d="M648.37,603.08c-1.23,0.93-2.44,1.86-3.66,2.81c-0.99-1.34-2.73-2.66-2.74-3.99
		c-0.01-1.3,1.67-3.57,2.78-3.69c1.79-0.2,3.73,1.04,5.6,1.67C649.68,600.93,649.03,602.01,648.37,603.08z"/>
	<path class="st13" d="M936.28,425.08c-2.78,2.11-4.41,4.15-6.32,4.47c-1.07,0.17-3.86-2.77-3.65-3.9c0.34-1.9,2.19-4.29,3.93-4.87
		C931.36,420.41,933.43,422.93,936.28,425.08z"/>
	<path class="st13" d="M875.01,528.49c-1.43-3.12-2.93-4.84-2.7-6.27c0.25-1.48,2.17-2.68,3.36-3.99c1.23,1.27,3.55,2.66,3.43,3.79
		C878.93,523.79,877.11,525.39,875.01,528.49z"/>
	<path class="st13" d="M810.12,469.18c-1.85-2.55-2.93-4.04-4.02-5.55c1.45-1.02,2.79-2.5,4.39-2.83c0.65-0.13,2.54,2.19,2.56,3.42
		C813.07,465.53,811.56,466.88,810.12,469.18z"/>
	<path class="st13" d="M920.35,514.11c-2.52,1.99-3.77,3.73-5.02,3.73c-1.29,0-2.56-1.72-3.85-2.67c1.23-1.04,2.3-2.54,3.71-2.95
		C916.21,511.9,917.66,513.04,920.35,514.11z"/>
	<path class="st13" d="M129.59,530.43c0.62,2.14,1.4,4.28,1.67,6.47c0.04,0.27-2.62,0.87-4.03,1.31c-0.36-2.4-0.7-4.8-1.05-7.21
		C127.31,530.81,128.45,530.61,129.59,530.43z"/>
	<path class="st13" d="M545.22,352.49c-2.37,1.84-3.82,3.77-4.85,3.57c-1.48-0.29-3.21-1.95-3.73-3.42
		c-0.26-0.72,1.9-3.26,3.03-3.31C541.12,349.28,542.62,350.91,545.22,352.49z"/>
	<path class="st13" d="M758.13,303.66c1.57,2.03,3.11,3.22,3.26,4.56c0.09,0.78-2.21,2.7-3.15,2.54c-1.34-0.23-2.88-1.74-3.39-3.08
		C754.6,307.04,756.51,305.57,758.13,303.66z"/>
	<path class="st18" d="M595.14,621.09c10.59,7.59,23.45,25.16,28.59,39.25c-1.24,0.47-2.44,1.07-3.73,1.38
		c-24.62,6.07-49.25,12.11-73.88,18.15c1.27-14.55,2.54-29.09,3.81-43.64c5.56-1.16,11.13-2.32,16.69-3.48
		c-0.1-0.59-0.18-1.19-0.28-1.78c-10.99,0.5-22.93,5.31-31.19-6.56c4.28-11.51,21.62-18.85,33.68-13.93
		c7.13,2.92,13.97,6.54,21.02,9.67C591.43,620.87,593.37,620.8,595.14,621.09z"/>
	<path class="st18" d="M838.02,570.57c10.7,1.41,16.57,0.25,26.86-6.13c-15.8,4.22-30.7,5.23-41.03-10.38
		c1.34-0.93,2.79-1.72,3.98-2.81c7.81-7.18,16.92-8.06,26.07-4.06c8.48,3.73,16.37,8.81,24.48,13.36c2.93,1.64,5.76,3.47,8.64,5.21
		l-0.2,0.04c0.53,0.42,1.05,0.85,1.58,1.26c6.03,8.28,12.07,16.57,18.97,26.03c-11.3,2.82-20.65,5.2-30.02,7.46
		c-14.8,3.58-29.62,7.08-44.43,10.61c0.42-8.47,0.47-16.98,1.38-25.4C834.85,580.65,836.73,575.63,838.02,570.57z"/>
	<path class="st14" d="M549.94,636.25c-1.27,14.55-2.54,29.09-3.81,43.64c-12.03,3.06-24.07,6.13-37.93,9.66
		c4.49-14.72,8.41-27.57,12.32-40.42c0.36-0.99,0.72-2,1.08-2.99l-0.07-0.44c0.43-0.88,0.86-1.75,1.27-2.63l-0.06,0.07
		c3.06-4.58,6.13-9.17,9.19-13.75C537.19,633.62,542.99,636.44,549.94,636.25z"/>
	<path class="st6" d="M838.02,570.57c-1.29,5.07-3.16,10.07-3.73,15.22c-0.92,8.42-0.97,16.92-1.38,25.4
		c-10.73,2.72-21.46,5.43-33.48,8.48c1.95-15.71,5.94-29.39,10.39-42.95c0.33-1.12,0.66-2.23,0.99-3.35
		c0.09-0.49,0.17-0.98,0.26-1.47c3.27-4.06,6.54-8.1,9.8-12.16C826.59,563.36,832.31,566.96,838.02,570.57z"/>
	<path class="st9" d="M887.02,565.78c-2.88-1.74-5.71-3.57-8.64-5.21c-8.11-4.55-16-9.63-24.48-13.36
		c-9.14-4.02-18.26-3.12-26.07,4.06c-1.19,1.09-2.65,1.87-3.98,2.81c0.34-1.5,0.17-3.58,1.1-4.37c8.87-7.55,19.13-9.96,30.27-6.56
		C868.26,547.12,878.71,555.01,887.02,565.78z"/>
	<path class="st9" d="M595.14,621.09c-1.78-0.29-3.71-0.22-5.29-0.93c-7.05-3.12-13.88-6.75-21.02-9.67
		c-12.06-4.93-29.4,2.41-33.68,13.93c-3.12-2.17-1.91-4.19-0.02-6.52c9.09-11.23,21.56-15.69,35.23-10.5
		C579.09,610.72,586.91,616.45,595.14,621.09z"/>
	<path class="st9" d="M531.94,629.38c-3.06,4.58-6.13,9.17-9.19,13.75c2.03-5.56,4.06-11.14,6.59-18.08
		C530.72,627.35,531.32,628.37,531.94,629.38z"/>
	<path class="st9" d="M820.88,559.74c-3.27,4.06-6.54,8.1-9.8,12.16c2.24-5.1,4.49-10.18,7.21-16.37
		C819.6,557.66,820.25,558.7,820.88,559.74z"/>
	<path class="st9" d="M810.82,573.37c-0.33,1.12-0.66,2.23-0.99,3.35C810.16,575.6,810.49,574.48,810.82,573.37z"/>
	<path class="st9" d="M522.82,643.06c-0.43,0.88-0.86,1.75-1.27,2.63C521.96,644.81,522.39,643.93,522.82,643.06z"/>
	<path class="st9" d="M521.61,646.12c-0.36,0.99-0.72,2-1.08,2.99C520.88,648.12,521.25,647.13,521.61,646.12z"/>
	<path class="st9" d="M888.41,567.09c-0.53-0.42-1.05-0.85-1.58-1.26C887.35,566.25,887.88,566.66,888.41,567.09z"/>
	<path class="st12" d="M377.93,439.62c-0.23,0.55-0.48,1.09-0.71,1.64C377.47,440.73,377.7,440.17,377.93,439.62z"/>
	<path class="st12" d="M428.47,311.01c0.18-0.17,0.37-0.33,0.55-0.5c-0.17,0.18-0.34,0.36-0.51,0.54L428.47,311.01z"/>
	<path class="st12" d="M826.75,378.45c0.06-0.13,0.11-0.29,0.2-0.4c0.06-0.06,0.21-0.06,0.31-0.09
		C827.1,378.11,826.93,378.28,826.75,378.45C826.74,378.44,826.75,378.45,826.75,378.45z"/>
</g>
</svg>
