<svg id="Layer_1" data-name="Layer 1" xmlns="http://www.w3.org/2000/svg" viewBox="0 0 85.04 56.69"><defs><style>.cls-1{opacity:0.43;}.cls-2{opacity:0.31;}.cls-3{fill:#470d1a;}.cls-4{fill:#d92231;}.cls-5{fill:#9c1f31;}.cls-6{fill:#b82233;}.cls-7{fill:#f26c63;}.cls-8{fill:#f68f1e;}.cls-9{fill:#d85620;}.cls-10{fill:#fcb919;}.cls-11{fill:#ee333f;}.cls-12,.cls-16{fill:#f37a8a;}.cls-12{opacity:0.77;}.cls-13,.cls-17,.cls-18{fill:#f8b3b4;}.cls-14{fill:#fbd6d6;}.cls-15{fill:#a9112c;}.cls-17{opacity:0.72;}.cls-18{opacity:0.36;}</style></defs><path class="cls-1" d="M56.33,48.39s-10.83,1.82-1.5,2.25,20.47-1.71,13.4-2.57A36.39,36.39,0,0,0,56.33,48.39Z"/><path class="cls-2" d="M56.59,50.13c-.81,0-3-.06-2.31-.74s3.17-.91,4.29-1.08c.56-.08,1.11-.17,1.67-.2,1-.06,2-.08,3-.07a8.84,8.84,0,0,1,3.33.5h0c.73.48-1.28.93-1.5,1-.81.15-1.65.22-2.47.29-1.91.15-3.82.32-5.73.33Z"/><path class="cls-1" d="M25.34,45c-.74.07-1.48.15-2.18.16a32,32,0,0,0-5.53.55c-1,.2-4.76,1.17-2.14,2.32a18.26,18.26,0,0,0,5.42,1.18c2.57.25,5.69.58,8.2-.25,3.21-1.07-1.4,1.39,7.39,1.61s4.18-1.08,8.58-1.08,7.28-1.92-.22-2.14-1.71-1.39-5.36-2.46c-2.23-.66-4.56-.34-6.86,0C30.18,45.13,27.78,44.74,25.34,45Z"/><path class="cls-2" d="M24.28,46s-7.29.22-7.5,1,8.57,1.71,12.43.64,1.61.22,3.86.65,6.75.21,4.72-.86,3.64-1.61-2-1.61S26,45.39,24.28,46Z"/><path class="cls-3" d="M20.45,48.26h-.11a3.34,3.34,0,0,1-3.08-3.48h0L18.75,9.22a.61.61,0,0,1,0-.14h0A3.34,3.34,0,0,1,22.19,6h0l21.63.59H44A3.35,3.35,0,0,1,47.09,10h0a1.09,1.09,0,0,1,0,.18h0a3.34,3.34,0,0,1-3.43,3.08h0l-18.34-.51L25,20.5l16.75.83H42a4.14,4.14,0,0,1,1.82.54h0a2.85,2.85,0,0,1,1.1,1.27h0a7.13,7.13,0,0,1,.36,3.08h0l0,.85v.07a13.83,13.83,0,0,1-.37,2.29h0a3.07,3.07,0,0,1-1.51,2h0a3.77,3.77,0,0,1-2,.34h0l-16.81-.83L24.1,41.72S24.8,48.36,20.45,48.26Zm1.69-5.67h0l.54-12.71a1,1,0,0,1,.31-.67h0a1,1,0,0,1,.69-.25h0l17.79.89a1.88,1.88,0,0,0,1-.14h0a.83.83,0,0,0,.38-.4h0A7.52,7.52,0,0,0,43.29,27h0l0-.82a8,8,0,0,0-.08-1.86h0a1,1,0,0,0-.47-.79h0a2.2,2.2,0,0,0-1-.26h-.14L24,22.36a.94.94,0,0,1-.91-1h0l.4-9.6a1,1,0,0,1,1-.92h0l19.28.53a1.43,1.43,0,0,0,1.47-1.32h0a.17.17,0,0,1,0-.07h0a1.45,1.45,0,0,0-1.32-1.48h-.08l-21.64-.6a1.44,1.44,0,0,0-1.47,1.32h0s0,0,0,.06h0L19.17,44.85a1.44,1.44,0,0,0,1.32,1.49h.05C22.64,46.33,22.14,42.59,22.14,42.59Z"/><path class="cls-4" d="M21.6,36.56l0,.92a6.7,6.7,0,0,0,1.29-.26l0-.82A8.45,8.45,0,0,1,21.6,36.56Z"/><path class="cls-4" d="M21.46,9.32a.64.64,0,0,1,.66-.61l21.64.6a.64.64,0,1,1,0,1.28l-21-.59-1,24.64A7.26,7.26,0,0,0,23,34.42l.19-4.52a.45.45,0,0,1,.15-.33.51.51,0,0,1,.35-.13l17.78.88c1.15.05,1.51-.25,1.82-.79A8,8,0,0,0,43.77,27l0-.82a5.74,5.74,0,0,0-.24-2.44c-.25-.53-.62-.86-1.72-1h-.15L24,21.89a.49.49,0,0,1-.46-.5l.41-9.6a.48.48,0,0,1,.49-.46l19.28.53a1.91,1.91,0,0,0,2-1.76V10a1.91,1.91,0,0,0-1.76-2h-.1l-21.64-.6a1.92,1.92,0,0,0-2,1.76v.08l-1.05,25a5.5,5.5,0,0,0,1.26.35Z"/><path class="cls-4" d="M20.32,36.51a7.68,7.68,0,0,1-1.27-.27l0,.93a5.25,5.25,0,0,0,1.27.3Z"/><path class="cls-5" d="M23.34,37.06l.48-.19,0-.72-.48.14Z"/><path class="cls-5" d="M23.1,42.63l.15-3.53.49-.15-.14,3.23s.62,5.6-3.13,5.6h-.09a2.87,2.87,0,0,1-2.64-3l.25-6,.47.18-.25,5.8a2.4,2.4,0,0,0,2.21,2.49h.07Z"/><path class="cls-5" d="M18.58,36.08l-.47-.2,0,.84a5.19,5.19,0,0,0,.47.25Z"/><path class="cls-5" d="M18.67,34l1-24.77A2.4,2.4,0,0,1,22.17,7l21.64.6a2.4,2.4,0,0,1-.14,4.79L24.4,11.81,24,21.41l17.72.88c2.56.12,2.64,1.79,2.57,3.9l0,.85C44,29.09,43.93,31,41.41,30.8l-17.77-.88-.19,4.35.49-.18.15-3.67,17.3.86A2.59,2.59,0,0,0,44.11,30a8.53,8.53,0,0,0,.61-2.87v0l0-.85a6.69,6.69,0,0,0-.32-2.87,2.74,2.74,0,0,0-2.52-1.52h-.2L24.49,21l.37-8.65,18.8.52a2.88,2.88,0,0,0,2.94-2.64.76.76,0,0,0,0-.15A2.88,2.88,0,0,0,44,7.08h-.16l-21.63-.6a2.89,2.89,0,0,0-2.95,2.65v.12l-1,24.51.05,0C18.37,33.87,18.52,33.94,18.67,34Z"/><path class="cls-6" d="M20.19,9.27V9.19a1.92,1.92,0,0,1,2-1.76L43.79,8h.1a1.91,1.91,0,0,1,1.76,2v.1a1.91,1.91,0,0,1-2,1.76l-19.28-.53a.48.48,0,0,0-.49.46l-.41,9.6a.49.49,0,0,0,.46.5l17.72.88h.15c1.1.11,1.47.44,1.72,1a5.74,5.74,0,0,1,.24,2.44l0,.82a8,8,0,0,1-.51,2.53c-.31.54-.67.84-1.82.79l-17.78-.88a.51.51,0,0,0-.35.13.45.45,0,0,0-.15.33L23,34.42l.48-.15.19-4.35,17.77.88C43.93,31,44,29.09,44.25,27l0-.85c.07-2.11,0-3.78-2.57-3.9L24,21.41l.41-9.6,19.27.53a2.4,2.4,0,0,0,.14-4.79L22.17,7a2.4,2.4,0,0,0-2.46,2.3L18.67,34a4.12,4.12,0,0,0,.47.22Z"/><path class="cls-6" d="M22.85,37.22l.49-.16,0-.77-.49.11Z"/><path class="cls-6" d="M19.05,36.24l-.47-.16,0,.89.47.2Z"/><path class="cls-6" d="M20.51,46.82h-.05a1.92,1.92,0,0,1-1.77-2l.24-5.68L18.46,39l-.25,5.8a2.4,2.4,0,0,0,2.21,2.49h.07c2.79-.23,2.61-4.67,2.61-4.67l.15-3.53-.48.12-.15,3.39s-.07,3.71-1.7,4.11Z"/><path class="cls-7" d="M20.64,36.54c-.11,0-.21,0-.32,0l0,1,.21,0a5.5,5.5,0,0,0,1.07,0l0-.92c-.33,0-.64,0-.94,0Z"/><path class="cls-7" d="M20.58,45.55h0a.65.65,0,0,1-.59-.67l.23-5.49h.15a8.52,8.52,0,0,0,1.13,0l-.21,4.89S21.43,45.43,20.58,45.55Z"/><path class="cls-8" d="M20.28,37.47a5.25,5.25,0,0,1-1.27-.3l-.08,2a7.74,7.74,0,0,0,1.27.24Z"/><path class="cls-8" d="M21.48,39.41a8.94,8.94,0,0,0,1.29-.19l.08-2a6.7,6.7,0,0,1-1.29.26Z"/><path class="cls-9" d="M23.25,39.1l.49-.15.08-2.08-.48.19Z"/><path class="cls-9" d="M18.54,37a5.19,5.19,0,0,1-.47-.25L18,38.83l.47.18Z"/><path class="cls-9" d="M19,37.17l-.47-.2-.08,2,.47.14Z"/><path class="cls-9" d="M22.85,37.22l-.08,2,.48-.12.09-2Z"/><path class="cls-10" d="M20.28,37.47l-.08,1.92h.15a8.52,8.52,0,0,0,1.13,0l.08-1.93a5.5,5.5,0,0,1-1.07,0Z"/><path class="cls-8" d="M20.4,34.59a5.5,5.5,0,0,1-1.26-.35l-.09,2a7.68,7.68,0,0,0,1.27.27Z"/><path class="cls-8" d="M21.6,36.56a8.45,8.45,0,0,0,1.28-.16l.09-2a7.26,7.26,0,0,1-1.29.22Z"/><path class="cls-9" d="M18.67,34c-.15-.08-.3-.15-.42-.23l-.05,0-.09,2.13.47.2Z"/><path class="cls-9" d="M23.37,36.29l.48-.14.09-2.06-.49.18Z"/><path class="cls-9" d="M22.88,36.4l.49-.11.08-2-.48.15Z"/><path class="cls-9" d="M19.14,34.24a4.12,4.12,0,0,1-.47-.22l-.09,2.06.47.16Z"/><path class="cls-10" d="M20.8,34.63l-.4,0-.08,1.92c.11,0,.21,0,.32,0h0c.3,0,.61,0,.94,0l.08-1.92A6.38,6.38,0,0,1,20.8,34.63Z"/><path class="cls-4" d="M20.58,45.55h0a.65.65,0,0,1-.59-.67l.23-5.49a7.74,7.74,0,0,1-1.27-.24l-.24,5.68a1.92,1.92,0,0,0,1.77,2h.05c2.6,0,2.11-4.21,2.11-4.21l.15-3.39a8.94,8.94,0,0,1-1.29.19l-.21,4.89S21.31,45.63,20.58,45.55Z"/><path class="cls-7" d="M32.63,9l-5.5-.15a2.33,2.33,0,0,0,0,1.28l5.21.14A1.81,1.81,0,0,0,32.63,9Z"/><path class="cls-7" d="M35.87,9.09,32.63,9a1.81,1.81,0,0,1-.27,1.27l3.52.1A2.42,2.42,0,0,1,35.87,9.09Z"/><path class="cls-7" d="M27.13,8.85l-5-.14a.64.64,0,0,0-.66.61L20.4,34.59l.4,0a6.38,6.38,0,0,0,.88,0l1-24.64,4.44.13A2.33,2.33,0,0,1,27.13,8.85Z"/><path class="cls-7" d="M41.32,9.24l-5.45-.15a2.42,2.42,0,0,0,0,1.28l5.31.15A1.9,1.9,0,0,0,41.32,9.24Z"/><path class="cls-7" d="M43.76,9.31l-2.44-.07a1.9,1.9,0,0,1-.13,1.28l2.53.07a.64.64,0,1,0,0-1.28Z"/><path class="cls-11" d="M63.13,32.73c-.13-2.58-1.72-3.06-4.48-2.6,0,0-1.77-5.91.63-6.63a1.26,1.26,0,0,1,.83,0,6.23,6.23,0,0,0,.8-.27,3,3,0,0,0,1.65-1.59,3.51,3.51,0,0,0,.25-1.6,2.7,2.7,0,0,0-1-.61c-4.4-1.49-6.59,2.73-7.16,6.16-.09.51-.27,5.43,0,5.4,0,0-3.62.33-4.44,1.1s-1.09,4.55,1.47,4.63l2.93-.43s1.26,12.11,3.34,13,4.86-.09,4.41-3.23c0,0-3.08-6.59-3.63-10.43C58.75,35.55,63.26,35.31,63.13,32.73Z"/><path class="cls-11" d="M63.27,23.62a1.06,1.06,0,0,1-.52,1c-.78.39-1.14.11-1.4-.38a1.83,1.83,0,0,1-.79-.14,1.12,1.12,0,0,1,0,.21c.1.78.31,1.43,1.15,1.7a2,2,0,0,0,2-1.06,4.73,4.73,0,0,0,.28-2.18A2.49,2.49,0,0,1,63.27,23.62Z"/><path class="cls-11" d="M61.35,24.28c.26.49.62.77,1.4.38a1.06,1.06,0,0,0,.52-1,3.82,3.82,0,0,1-1,.46A3.41,3.41,0,0,1,61.35,24.28Z"/><path class="cls-12" d="M61.35,24.28c.26.49.62.77,1.4.38a1.06,1.06,0,0,0,.52-1,3.82,3.82,0,0,1-1,.46A3.41,3.41,0,0,1,61.35,24.28Z"/><path class="cls-13" d="M62.56,21.61a2.85,2.85,0,0,1,.23.37,3.92,3.92,0,0,1,.48,1.64,2.49,2.49,0,0,0,.78-.81A4.32,4.32,0,0,0,62.81,20,3.51,3.51,0,0,1,62.56,21.61Z"/><path class="cls-13" d="M61.35,24.28c-.16-.32-.28-.72-.44-1.08a6.23,6.23,0,0,1-.8.27.8.8,0,0,1,.45.67A1.83,1.83,0,0,0,61.35,24.28Z"/><path class="cls-14" d="M62.79,22a2.85,2.85,0,0,0-.23-.37,3,3,0,0,1-1.65,1.59c.16.36.28.76.44,1.08a3.41,3.41,0,0,0,1-.2,3.82,3.82,0,0,0,1-.46A3.92,3.92,0,0,0,62.79,22Z"/><path class="cls-15" d="M59.6,49.62a4.23,4.23,0,0,1-1.68-.3h0c-.61-.26-1.05-1.19-1.47-2.45h0a34.86,34.86,0,0,1-1.05-4.43h0c-.51-2.76-.82-5.43-.88-6h0l-2.8.41h0c-1.56-.05-2.14-1.4-2.18-2.64h0a3.15,3.15,0,0,1,.62-2.2h0a5.78,5.78,0,0,1,2.5-.85h0c.77-.14,1.5-.23,1.83-.26h0l0-.15h0c0-.17,0-.42,0-.7h0a42.75,42.75,0,0,1,.13-4.47h0c.49-2.91,2.13-6.45,5.39-6.57h0a5.39,5.39,0,0,1,1.94.32h0A4,4,0,0,1,64.2,23.1h0A4.71,4.71,0,0,1,63.89,25h0a2,2,0,0,1-1.82,1.14h-.33v-.12l0-.12,0,.12v.12h0a1.83,1.83,0,0,1-1.24-1.79h0c-.09-.63-.25-.84-.69-.84h0a1.85,1.85,0,0,0-.46.09h0c-.94.26-1.21,1.49-1.17,2.85h0A16.24,16.24,0,0,0,58.74,30h0a10.78,10.78,0,0,1,1.3-.13h0c1.93-.09,3.13.71,3.22,2.87h0v0h0c0,1.36-1.13,2.09-2.25,2.47h0a9.65,9.65,0,0,1-2.12.43h0a35,35,0,0,0,2,6.5h0c.84,2.12,1.61,3.76,1.61,3.77h0v0a4.73,4.73,0,0,1,0,.52h0a2.9,2.9,0,0,1-.86,2.33h0a3.18,3.18,0,0,1-2.08.81h0ZM54.71,36.16a.11.11,0,0,1,0,.09h0s.18,1.7.51,3.87h0a45.84,45.84,0,0,0,1.42,6.67h0c.4,1.25.89,2.14,1.33,2.3h0a3.89,3.89,0,0,0,1.57.28h0a2.62,2.62,0,0,0,2.71-2.88h0a4.35,4.35,0,0,0,0-.48h0c-.17-.38-3.09-6.69-3.63-10.45h0a.09.09,0,0,1,0-.09h0a.1.1,0,0,1,.09,0h0A9.93,9.93,0,0,0,60.93,35h0c1.09-.38,2.12-1,2.07-2.23h0v0h0c-.12-2.06-1.09-2.68-3-2.64h0a12.58,12.58,0,0,0-1.38.15h0a.12.12,0,0,1-.14-.08h0a16.39,16.39,0,0,1-.63-3.69h0c0-1.37.19-2.74,1.34-3.1h0a2.26,2.26,0,0,1,.53-.09h0c.59,0,.9.4,1,1.05h0c.1.76.28,1.33,1.05,1.58h0a1,1,0,0,0,.28,0h0a1.69,1.69,0,0,0,1.59-1h0a4.54,4.54,0,0,0,.3-1.84h0a3.76,3.76,0,0,0-2.19-3.59h0a5.08,5.08,0,0,0-1.84-.3h0c-3,.08-4.67,3.48-5.15,6.36h0c-.06.34-.17,3-.12,4.42h0a3.8,3.8,0,0,0,.08.86h0a.11.11,0,0,1,.06.13h0a.11.11,0,0,1-.1.09h0s-.91.09-1.91.26h0a6.06,6.06,0,0,0-2.46.8h0a3,3,0,0,0-.54,2h0c0,1.19.55,2.36,1.91,2.4h0l2.92-.42h0l.08,0Z"/><path class="cls-16" d="M60.82,30.93h0a2.93,2.93,0,0,0-2,.11l-.13,0s-.71.4-.82-.26-1.95-7.32,1-8.44c1.27-.5,1.74.1,2,.83a3,3,0,0,0,1.65-1.59,3.51,3.51,0,0,0-3-1.49,4.25,4.25,0,0,0-3.48,3.35,17.13,17.13,0,0,0-.5,2.83,16.39,16.39,0,0,0,0,4s.32,1.34,0,1.43c-.11,0-.78.06-1.6.15a6.3,6.3,0,0,0-2.69.64,1.16,1.16,0,0,0-.69.74c-.3,1.4.22,2.9,2.12,2.47s2.8-.75,3,.15.72,11.1,2.85,12.3,3.55-.86,2.86-2.27A99.34,99.34,0,0,1,57.8,35.42s-.32-.65.79-.85,3.61-.41,3.48-1.8C62,31.82,61.83,31.11,60.82,30.93Z"/><path class="cls-17" d="M60.31,19.46s-3.48-.13-4.81,4.31.54,3.76.73,1.37,1.75-4.61,3.63-5.05a3,3,0,0,1,1.68.24C62.2,20.71,61.83,19.49,60.31,19.46Z"/><path class="cls-17" d="M55.92,28.85c0,.56-.19,1-.46,1s-.5-.44-.52-1,.18-1,.45-1S55.9,28.28,55.92,28.85Z"/><path class="cls-18" d="M57.76,43.6c-.57,0-1.06-2.27-1.38-5.45s.56-.53.56-.53S58.65,43.53,57.76,43.6Z"/></svg>