<?xml version="1.0" encoding="utf-8"?>
<!-- Generator: Adobe Illustrator 26.0.3, SVG Export Plug-In . SVG Version: 6.00 Build 0)  -->
<svg version="1.1" id="Layer_1" xmlns="http://www.w3.org/2000/svg" xmlns:xlink="http://www.w3.org/1999/xlink" x="0px" y="0px"
	 viewBox="0 0 1133.86 1133.86" style="enable-background:new 0 0 1133.86 1133.86;" xml:space="preserve">
<style type="text/css">
	.st0{fill:#A2C436;}
	.st1{fill:#7EA033;}
	.st2{fill:#93B33B;}
	.st3{fill:#ABCF39;}
	.st4{fill:#E3F49A;}
	.st5{fill:#97B73D;}
	.st6{fill:#FFFFFF;}
	.st7{fill:#25424E;}
	.st8{fill:#ECC0A5;}
</style>
<g>
	<g>
		<path class="st0" d="M616.76,931.3c5.48-5.48,17.97-2.98,34.09,5.55c9.14-2.69,27.64,0.21,50.81,7.64
			c14.35,0.84,30.26,2.51,46.93,5.06c60.65,9.28,108.32,26.61,106.47,38.69c-1.04,6.81-17.59,10.51-42.69,10.78
			c23.31,16.34,36.56,31.02,32.89,38.6c-5.79,11.97-51.57,1.91-103.93-22.4c27.86,33.68,41.97,63.79,32.55,73.2
			c-11.88,11.88-56.68-13.67-100.07-57.06C630.43,987.98,604.88,943.18,616.76,931.3z"/>
		<path class="st0" d="M639.1,972.74c34.45,34.44,128.48-3.74,210.03-85.3c81.55-81.55,119.74-175.59,85.3-210.03
			c-34.45-34.45-128.48,3.74-210.03,85.3S604.65,938.29,639.1,972.74z"/>
		<path class="st1" d="M655.7,956.3c6.28,6.27,52.5-29.78,103.25-80.53c50.75-50.75,123.11-133.29,116.84-139.56
			c-6.28-6.28-88.82,66.09-139.56,116.84C685.48,903.8,649.42,950.03,655.7,956.3z"/>
		<path class="st2" d="M702.3,571.93c0,0,1.48,0.86,4.25,2.47c0.69,0.4,1.47,0.85,2.32,1.35c0.43,0.25,0.87,0.51,1.34,0.78
			c0.26,0.15,0.4,0.25,0.58,0.36c0.18,0.12,0.35,0.23,0.54,0.35c1.46,0.96,3.14,2.05,5.06,3.25c2.05,1.47,4.33,3.1,6.81,4.88
			c1.22,0.93,2.46,1.96,3.77,2.99c1.29,1.06,2.69,2.07,4.03,3.26c1.35,1.19,2.74,2.41,4.17,3.67c0.71,0.64,1.46,1.26,2.18,1.93
			c0.71,0.69,1.42,1.38,2.15,2.09c1.46,1.41,2.95,2.86,4.48,4.35c1.46,1.56,2.95,3.16,4.48,4.79c6,6.62,12.26,14.12,17.98,22.72
			c0.73,1.06,1.5,2.12,2.21,3.21c0.69,1.11,1.38,2.23,2.07,3.36c0.7,1.13,1.4,2.26,2.11,3.4c0.36,0.57,0.71,1.14,1.07,1.72
			c0.32,0.59,0.65,1.18,0.98,1.78c1.31,2.38,2.64,4.79,3.98,7.22c1.21,2.5,2.44,5.02,3.67,7.56c4.72,10.27,8.88,21.26,12,32.79
			c3.02,11.55,5.1,23.57,6.24,35.77c0.29,6.12,0.83,12.24,0.63,18.39c0.15,6.14-0.43,12.27-0.77,18.37
			c-1.27,12.16-2.99,24.19-5.97,35.66c-0.35,1.44-0.69,2.87-1.04,4.3c-0.36,1.43-0.64,2.86-1.1,4.25c-0.85,2.8-1.69,5.57-2.52,8.31
			c-0.41,1.37-0.82,2.74-1.23,4.1c-0.19,0.68-0.42,1.35-0.68,2.02c-0.24,0.66-0.48,1.33-0.73,1.99c-0.96,2.65-1.91,5.27-2.85,7.85
			c-0.47,1.29-0.93,2.58-1.39,3.85c-0.5,1.26-1.06,2.5-1.57,3.73c-1.05,2.47-2.08,4.91-3.1,7.3c-1.92,4.84-4.29,9.32-6.38,13.7
			c-1.06,2.19-2.1,4.33-3.12,6.42c-1.1,2.06-2.22,4.04-3.29,6c-2.16,3.89-4.15,7.62-6.13,11.07c-2.09,3.4-4.05,6.58-5.86,9.52
			c-0.9,1.47-1.77,2.89-2.6,4.24c-0.41,0.68-0.82,1.34-1.21,1.98c-0.42,0.63-0.84,1.24-1.24,1.83
			c-6.48,9.53-10.18,14.98-10.18,14.98l-0.46,0.67c-5.4,7.95-3.34,18.77,4.61,24.17c7.62,5.18,17.92,3.45,23.51-3.7
			c0,0,4.36-5.6,11.99-15.41c0.48-0.62,0.97-1.25,1.47-1.89c0.47-0.67,0.96-1.36,1.46-2.06c1-1.41,2.04-2.88,3.12-4.41
			c2.17-3.07,4.52-6.4,7.03-9.95c2.41-3.63,4.87-7.58,7.52-11.71c1.31-2.07,2.68-4.18,4.04-6.38c1.28-2.24,2.59-4.54,3.93-6.89
			c2.64-4.72,5.58-9.53,8.11-14.82c1.32-2.62,2.66-5.28,4.02-7.99c0.67-1.36,1.38-2.71,2.04-4.1c0.62-1.41,1.25-2.84,1.87-4.27
			c1.26-2.87,2.53-5.78,3.82-8.73c0.32-0.74,0.64-1.48,0.97-2.22c0.33-0.74,0.65-1.49,0.92-2.26c0.57-1.53,1.15-3.07,1.73-4.62
			c1.16-3.1,2.33-6.23,3.51-9.4c0.63-1.57,1.08-3.22,1.6-4.84c0.51-1.64,1.02-3.28,1.54-4.93c4.29-13.14,7.34-27.25,9.76-41.74
			c0.92-7.3,2.04-14.66,2.38-22.15c0.69-7.46,0.58-15.02,0.67-22.57c-0.4-15.12-2.01-30.27-4.87-45
			c-2.96-14.71-7.27-28.92-12.42-42.31c-1.35-3.32-2.67-6.63-4.04-9.88c-1.49-3.19-2.98-6.36-4.44-9.49
			c-0.37-0.78-0.74-1.56-1.11-2.34c-0.4-0.76-0.8-1.52-1.2-2.27c-0.8-1.51-1.6-3.01-2.4-4.5c-0.8-1.49-1.59-2.98-2.38-4.45
			c-0.82-1.45-1.7-2.86-2.54-4.28c-6.61-11.43-13.96-21.59-21.17-30.64c-1.84-2.24-3.64-4.43-5.4-6.57
			c-1.84-2.08-3.67-4.09-5.45-6.05c-0.89-0.98-1.77-1.95-2.64-2.91c-0.89-0.94-1.8-1.83-2.69-2.73c-1.78-1.78-3.51-3.52-5.19-5.2
			c-1.68-1.68-3.44-3.18-5.07-4.7c-1.66-1.49-3.23-2.96-4.79-4.32c-3.21-2.65-6.12-5.07-8.86-7.27c-2.99-2.23-5.68-4.2-8.03-5.91
			c-0.29-0.21-0.58-0.42-0.86-0.63c-0.28-0.2-0.58-0.43-0.78-0.55c-0.45-0.3-0.88-0.59-1.28-0.86c-0.82-0.55-1.56-1.05-2.23-1.49
			c-2.66-1.79-4.08-2.74-4.08-2.74c-14.44-9.69-34.01-5.84-43.7,8.6c-9.69,14.44-5.84,34.01,8.6,43.7c0.54,0.36,1.08,0.7,1.64,1.03
			L702.3,571.93z"/>
		<path class="st0" d="M517.1,931.3c-5.48-5.48-17.97-2.98-34.09,5.55c-9.14-2.69-27.64,0.21-50.81,7.64
			c-14.35,0.84-30.26,2.51-46.93,5.06c-60.66,9.28-108.33,26.61-106.48,38.69c1.04,6.81,17.59,10.51,42.69,10.78
			c-23.31,16.34-36.56,31.02-32.89,38.6c5.79,11.97,51.57,1.91,103.93-22.4c-27.86,33.68-41.97,63.79-32.55,73.2
			c11.88,11.88,56.68-13.67,100.07-57.06C503.43,987.98,528.98,943.18,517.1,931.3z"/>
		<path class="st0" d="M494.76,972.74c-34.45,34.44-128.48-3.74-210.03-85.3c-81.55-81.55-119.74-175.59-85.3-210.03
			c34.45-34.45,128.48,3.74,210.03,85.3C491.02,844.26,529.21,938.29,494.76,972.74z"/>
		<path class="st1" d="M478.16,956.3c-6.28,6.27-52.5-29.78-103.25-80.53c-50.75-50.75-123.11-133.29-116.84-139.56
			c6.28-6.28,88.82,66.09,139.56,116.84C448.38,903.8,484.44,950.03,478.16,956.3z"/>
		<path class="st2" d="M431.56,571.93c0,0-1.48,0.86-4.25,2.47c-0.69,0.4-1.47,0.85-2.32,1.35c-0.43,0.25-0.87,0.51-1.34,0.78
			c-0.26,0.15-0.4,0.25-0.58,0.36c-0.18,0.12-0.35,0.23-0.54,0.35c-1.46,0.96-3.15,2.05-5.06,3.25c-2.05,1.47-4.33,3.1-6.81,4.88
			c-1.22,0.93-2.46,1.96-3.77,2.99c-1.29,1.06-2.69,2.07-4.03,3.26c-1.35,1.19-2.74,2.41-4.17,3.67c-0.71,0.64-1.46,1.26-2.18,1.93
			c-0.71,0.69-1.42,1.38-2.15,2.09c-1.46,1.41-2.95,2.86-4.48,4.35c-1.46,1.56-2.95,3.16-4.48,4.79c-6,6.62-12.26,14.12-17.98,22.72
			c-0.73,1.06-1.49,2.12-2.21,3.21c-0.69,1.11-1.38,2.23-2.07,3.36c-0.7,1.13-1.4,2.26-2.11,3.4c-0.36,0.57-0.71,1.14-1.07,1.72
			c-0.32,0.59-0.65,1.18-0.98,1.78c-1.31,2.38-2.64,4.79-3.98,7.22c-1.21,2.5-2.44,5.02-3.67,7.56c-4.72,10.27-8.88,21.26-12,32.79
			c-3.02,11.55-5.1,23.57-6.24,35.77c-0.29,6.12-0.83,12.24-0.63,18.39c-0.15,6.14,0.43,12.27,0.77,18.37
			c1.27,12.16,2.99,24.19,5.97,35.66c0.35,1.44,0.69,2.87,1.04,4.3c0.36,1.43,0.64,2.86,1.1,4.25c0.85,2.8,1.69,5.57,2.52,8.31
			c0.41,1.37,0.82,2.74,1.23,4.1c0.19,0.68,0.42,1.35,0.68,2.02c0.24,0.66,0.48,1.33,0.73,1.99c0.96,2.65,1.91,5.27,2.85,7.85
			c0.47,1.29,0.93,2.58,1.39,3.85c0.5,1.26,1.06,2.5,1.57,3.73c1.05,2.47,2.08,4.91,3.1,7.3c1.92,4.84,4.29,9.32,6.38,13.7
			c1.06,2.19,2.1,4.33,3.12,6.42c1.1,2.06,2.22,4.04,3.29,6c2.16,3.89,4.15,7.62,6.13,11.07c2.09,3.4,4.05,6.58,5.86,9.52
			c0.9,1.47,1.77,2.89,2.6,4.24c0.41,0.68,0.82,1.34,1.21,1.98c0.43,0.63,0.84,1.24,1.24,1.83c6.48,9.53,10.18,14.98,10.18,14.98
			l0.46,0.67c5.4,7.95,3.34,18.77-4.61,24.17c-7.62,5.18-17.92,3.45-23.51-3.7c0,0-4.36-5.6-11.99-15.41
			c-0.48-0.62-0.97-1.25-1.47-1.89c-0.47-0.67-0.96-1.36-1.46-2.06c-1-1.41-2.04-2.88-3.12-4.41c-2.17-3.07-4.52-6.4-7.03-9.95
			c-2.41-3.63-4.87-7.58-7.52-11.71c-1.31-2.07-2.68-4.18-4.04-6.38c-1.28-2.24-2.59-4.54-3.93-6.89
			c-2.64-4.72-5.58-9.53-8.11-14.82c-1.32-2.62-2.66-5.28-4.02-7.99c-0.67-1.36-1.38-2.71-2.04-4.1c-0.62-1.41-1.25-2.84-1.87-4.27
			c-1.26-2.87-2.53-5.78-3.82-8.73c-0.32-0.74-0.64-1.48-0.97-2.22c-0.33-0.74-0.65-1.49-0.92-2.26c-0.57-1.53-1.15-3.07-1.73-4.62
			c-1.16-3.1-2.33-6.23-3.51-9.4c-0.63-1.57-1.08-3.22-1.61-4.84c-0.51-1.64-1.02-3.28-1.54-4.93c-4.29-13.14-7.34-27.25-9.76-41.74
			c-0.92-7.3-2.05-14.66-2.39-22.15c-0.69-7.46-0.58-15.02-0.66-22.57c0.4-15.12,2.01-30.27,4.87-45
			c2.96-14.71,7.27-28.92,12.42-42.31c1.35-3.32,2.67-6.63,4.04-9.88c1.5-3.19,2.98-6.36,4.44-9.49c0.37-0.78,0.74-1.56,1.11-2.34
			c0.4-0.76,0.8-1.52,1.2-2.27c0.8-1.51,1.6-3.01,2.4-4.5c0.8-1.49,1.59-2.98,2.38-4.45c0.82-1.45,1.7-2.86,2.54-4.28
			c6.61-11.43,13.96-21.59,21.17-30.64c1.84-2.24,3.64-4.43,5.4-6.57c1.84-2.08,3.67-4.09,5.45-6.05c0.89-0.98,1.77-1.95,2.64-2.91
			c0.89-0.94,1.8-1.83,2.69-2.73c1.78-1.78,3.51-3.52,5.19-5.2c1.68-1.68,3.44-3.18,5.07-4.7c1.66-1.49,3.23-2.96,4.79-4.32
			c3.21-2.65,6.12-5.07,8.86-7.27c2.99-2.23,5.68-4.2,8.03-5.91c0.29-0.21,0.58-0.42,0.86-0.63c0.28-0.2,0.58-0.43,0.78-0.55
			c0.45-0.3,0.87-0.59,1.28-0.86c0.82-0.55,1.56-1.05,2.23-1.49c2.66-1.79,4.08-2.74,4.08-2.74c14.44-9.69,34.01-5.84,43.7,8.6
			c9.69,14.44,5.84,34.01-8.6,43.7c-0.54,0.36-1.08,0.7-1.64,1.03L431.56,571.93z"/>
		<ellipse class="st3" cx="567.61" cy="716.11" rx="220.51" ry="269.3"/>
		<ellipse class="st4" cx="566.93" cy="735.83" rx="168.21" ry="205.43"/>
		<ellipse class="st5" cx="567.61" cy="322.73" rx="341.01" ry="255.75"/>
		<ellipse class="st3" cx="566.93" cy="307.58" rx="341.01" ry="240.61"/>
		<g>
			<g>
				<path class="st3" d="M498.16,142.08c0,54.98-44.57,99.56-99.56,99.56c-54.98,0-99.56-44.57-99.56-99.56
					c0-54.98,44.57-99.56,99.56-99.56C453.58,42.52,498.16,87.09,498.16,142.08z"/>
				
					<ellipse transform="matrix(0.1153 -0.9933 0.9933 0.1153 211.5145 521.6391)" class="st6" cx="398.6" cy="142.08" rx="70.4" ry="70.4"/>
				<g>
					<path class="st7" d="M441.87,142.08c0,23.9-19.37,43.27-43.27,43.27c-23.9,0-43.27-19.37-43.27-43.27
						c0-23.9,19.37-43.27,43.27-43.27C422.5,98.81,441.87,118.18,441.87,142.08z"/>
					<path class="st6" d="M438.54,122.75c0,11.95-9.69,21.63-21.63,21.63c-11.95,0-21.64-9.69-21.64-21.63
						c0-11.95,9.69-21.64,21.64-21.64C428.85,101.12,438.54,110.8,438.54,122.75z"/>
				</g>
			</g>
			<g>
				<path class="st3" d="M834.82,142.08c0,54.98-44.57,99.56-99.56,99.56c-54.98,0-99.55-44.57-99.55-99.56
					c0-54.98,44.57-99.56,99.55-99.56C790.24,42.52,834.82,87.09,834.82,142.08z"/>
				<path class="st6" d="M805.66,142.08c0,38.88-31.52,70.4-70.4,70.4c-38.88,0-70.4-31.52-70.4-70.4c0-38.88,31.52-70.4,70.4-70.4
					C774.14,71.68,805.66,103.2,805.66,142.08z"/>
				<path class="st7" d="M778.53,142.08c0,23.9-19.37,43.27-43.27,43.27c-23.89,0-43.27-19.37-43.27-43.27
					c0-23.9,19.37-43.27,43.27-43.27C759.16,98.81,778.53,118.18,778.53,142.08z"/>
				<path class="st6" d="M775.2,122.75c0,11.95-9.68,21.63-21.63,21.63c-11.95,0-21.64-9.69-21.64-21.63
					c0-11.95,9.69-21.64,21.64-21.64C765.51,101.12,775.2,110.8,775.2,122.75z"/>
			</g>
		</g>
		<g>
			<path class="st2" d="M566.93,444.01c-42.84,0-83.2-9.58-113.64-26.98c-31.39-17.94-48.68-42.13-48.68-68.11
				c0-2.98,2.42-5.4,5.4-5.4c2.98,0,5.4,2.42,5.4,5.4c0,21.94,15.36,42.8,43.24,58.74c28.84,16.48,67.29,25.56,108.28,25.56
				c40.99,0,79.45-9.08,108.28-25.56c27.88-15.94,43.24-36.8,43.24-58.74c0-2.98,2.42-5.4,5.4-5.4c2.98,0,5.4,2.42,5.4,5.4
				c0,25.98-17.29,50.16-48.68,68.11C650.13,434.43,609.77,444.01,566.93,444.01z"/>
		</g>
		<g>
			<path class="st2" d="M535.78,332.37c0,6.63-2.13,12.01-4.76,12.01c-2.63,0-4.76-5.38-4.76-12.01c0-6.63,2.13-12.01,4.76-12.01
				C533.65,320.36,535.78,325.74,535.78,332.37z"/>
			<path class="st2" d="M607.6,332.37c0,6.63-2.13,12.01-4.76,12.01c-2.63,0-4.76-5.38-4.76-12.01c0-6.63,2.13-12.01,4.76-12.01
				C605.47,320.36,607.6,325.74,607.6,332.37z"/>
		</g>
		<path class="st2" d="M489.72,931.05c-0.93-9.04-27.86-19.01-60.14-22.26c-26.24-2.65-47.94-0.05-54.64,5.87
			c-0.1,0.09-0.19,0.19-0.29,0.28c-0.03,0.03-0.07,0.05-0.09,0.08c-0.03,0.03-0.05,0.07-0.08,0.1c-0.09,0.1-0.2,0.19-0.28,0.29
			c-5.9,6.72-8.45,28.42-5.74,54.66c3.34,32.27,13.37,59.18,22.41,60.09c9.04,0.91,13.66-24.51,10.33-56.79
			c-0.48-4.6-1.09-9.09-1.82-13.41c3.24,3.61,6.72,7.28,10.41,10.96c25.19,25.13,50.25,40.84,55.98,35.09
			c5.73-5.75-10.04-30.77-35.23-55.9c-3.69-3.68-7.37-7.14-10.99-10.38c4.33,0.72,8.81,1.32,13.42,1.79
			C465.25,944.77,490.66,940.09,489.72,931.05z"/>
		<path class="st2" d="M644.14,931.05c0.93-9.04,27.86-19.01,60.14-22.26c26.24-2.65,47.94-0.05,54.64,5.87
			c0.1,0.09,0.19,0.19,0.29,0.28c0.03,0.03,0.07,0.05,0.09,0.08c0.03,0.03,0.05,0.07,0.08,0.1c0.09,0.1,0.2,0.19,0.28,0.29
			c5.9,6.72,8.45,28.42,5.74,54.66c-3.34,32.27-13.37,59.18-22.41,60.09c-9.04,0.91-13.66-24.51-10.33-56.79
			c0.48-4.6,1.09-9.09,1.82-13.41c-3.25,3.61-6.72,7.28-10.41,10.96c-25.19,25.13-50.25,40.84-55.98,35.09
			c-5.73-5.75,10.04-30.77,35.23-55.9c3.69-3.68,7.37-7.14,10.99-10.38c-4.33,0.72-8.81,1.32-13.42,1.79
			C668.61,944.77,643.2,940.09,644.14,931.05z"/>
	</g>
	<ellipse class="st8" cx="805.66" cy="264.14" rx="79.55" ry="22.5"/>
	<ellipse class="st8" cx="328.2" cy="264.14" rx="79.55" ry="22.5"/>
</g>
</svg>
