<svg xmlns="http://www.w3.org/2000/svg" viewBox="0 0 85.04 56.69"><defs><style>.cls-1{isolation:isolate;}.cls-2{opacity:0.4;}.cls-3,.cls-8{fill:#8d55a2;}.cls-4{fill:#e1c9ac;opacity:0.45;}.cls-5{fill:#5c2c7f;}.cls-6{fill:#9161a9;}.cls-7{fill:#5a266a;}.cls-8{mix-blend-mode:multiply;opacity:0.57;}.cls-9{fill:none;}.cls-10{fill:#cc7fb5;}.cls-11{fill:#c56aa9;}.cls-12{fill:#ac4499;}.cls-13{fill:#e09dc6;}.cls-14{fill:#cb58a1;}.cls-15{fill:#ebbed9;}</style></defs><g class="cls-1"><g id="Layer_1" data-name="Layer 1"><path class="cls-2" d="M22.88,43.44s-9.65.15-10.43,1.65,15.21,2.76,21.18,2.44c1.25-.07,2.49-.13,3.74-.15a9,9,0,0,1,2.18.42,8.77,8.77,0,0,0,3.27,0c.55-.09,1.9-.19,2-1,.15-1.43-3.78-1.26-4.49-1.1a6.33,6.33,0,0,1-2.7.51c-.8-.17-1-.67,0-.84C40.23,44.9,35,43.09,22.88,43.44Z"/><path class="cls-2" d="M21.35,43.93a4.61,4.61,0,0,0-2.35.46c-1.72,1.2,3.54,1.77,4.09,1.85a33.33,33.33,0,0,0,7.26.39c1.08-.06,5.49-.13,5.85-1.58.18-.77-2.93-.54-3.38-.55-3.29-.06-6.57-.32-9.85-.44C22.57,44,22,44,21.35,43.93Z"/><path class="cls-2" d="M58.36,50.24s-2.6.29-2.69,1.24c-.23,2.49,10.56,1.3,12.09,1.11,8.83-1.11,4.83-3.18-2.15-2.72S58.36,50.24,58.36,50.24Z"/><path class="cls-2" d="M59.71,50.59s-1.74.21-1.79.77c-.12,1.47,7.12.61,8.14.47,5.92-.78,3.2-1.94-1.48-1.57S59.71,50.59,59.71,50.59Z"/><path class="cls-3" d="M43.33,4.58a3.11,3.11,0,0,0-4.21.14,4.26,4.26,0,0,1,2.66.51,1,1,0,0,1,.9.24,1,1,0,0,1,.31,1A6.15,6.15,0,0,1,43.62,9l0-.05A3.09,3.09,0,0,0,43.33,4.58Z"/><path class="cls-3" d="M42,7.75l-2.81,3.17,0,0h0v0h0v0h0a1,1,0,0,1-.66.3,1,1,0,0,1-.75-.25l0,0h0l0,0h0a1,1,0,0,1-.23-.32l-.07-.06c-.21-.16-.54-.37-.88-.58-.68-.42-1.44-.85-1.63-.95h0A13.86,13.86,0,0,0,29.2,7.81,11.37,11.37,0,0,0,27.26,8c-3.8.66-6.52,3.18-8.37,6.61a25.34,25.34,0,0,0-2.72,11.6,22.82,22.82,0,0,0,.34,4c.45,2.64,1.71,6.34,3.4,8.2a12.94,12.94,0,0,0,8,3.84h.21a9.15,9.15,0,0,0,5.4-1.86c2.2-1.71,4.33-5,4.34-11.74,0-.68,0-1.39-.06-2.14l-8.22.11a1,1,0,0,1-1.05-1,1,1,0,0,1,1-1l9.19-.12a1,1,0,0,1,1.05.95c.09,1.16.14,2.25.14,3.27C40,35.8,37.57,39.87,34.81,42a11.23,11.23,0,0,1-6.67,2.29h-.35a14.84,14.84,0,0,1-9.42-4.53c-2.14-2.43-3.37-6.3-3.9-9.2a25.38,25.38,0,0,1-.37-4.36,27.32,27.32,0,0,1,3-12.58c2-3.8,5.28-6.88,9.84-7.66a12.58,12.58,0,0,1,2.29-.2,16,16,0,0,1,6.55,1.47l.19.09.28.16.83.47c.44.27.92.55,1.32.84l2.25-2.54a3.41,3.41,0,0,0-2.28-.61L38,6.05l-.22-.13a15.07,15.07,0,0,0-7.51-2,16.31,16.31,0,0,0-9.57,3.29,18.79,18.79,0,0,0-6.17,8.51,31.16,31.16,0,0,0-2.11,11.22A22.39,22.39,0,0,0,15.73,39.3a14.68,14.68,0,0,0,4.78,4.55,15.6,15.6,0,0,0,6.87,2,7.44,7.44,0,0,0,.82,0,13.18,13.18,0,0,0,8.15-2.79,13.66,13.66,0,0,0,4.07-5.5A23.19,23.19,0,0,0,42,28.55c0-1.07-.05-2.19-.15-3.39a3.09,3.09,0,0,0-3.13-2.83l-9.2.11a3.11,3.11,0,0,0,.08,6.21l6.19-.08A16.91,16.91,0,0,1,34.7,35.2,6.85,6.85,0,0,1,31.27,39a7.52,7.52,0,0,1-3.07.69h-.37a9.34,9.34,0,0,1-4.19-1.19A9.13,9.13,0,0,1,19.9,34a18.07,18.07,0,0,1-1.31-7.11A24.61,24.61,0,0,1,20.26,18a12.86,12.86,0,0,1,4-5.74,10.19,10.19,0,0,1,6-2.15,9.29,9.29,0,0,1,5.66,2.09l.3.25.05,0h0a3.07,3.07,0,0,0,2.29.91,3.12,3.12,0,0,0,2.25-1.07l1.69-2A5.78,5.78,0,0,0,42,7.75Z"/><path class="cls-3" d="M41.13,6.58l-.51-.35L38.37,8.77c-.4-.29-.88-.57-1.32-.84l-.83-.47-.28-.16-.19-.09A16,16,0,0,0,29.2,5.74a12.58,12.58,0,0,0-2.29.2c-4.56.78-7.81,3.86-9.84,7.66a27.32,27.32,0,0,0-3,12.58,25.38,25.38,0,0,0,.37,4.36c.53,2.9,1.76,6.77,3.9,9.2a14.84,14.84,0,0,0,9.42,4.53h.35A11.23,11.23,0,0,0,34.81,42C37.57,39.87,40,35.8,40,28.61c0-1-.05-2.11-.14-3.27a1,1,0,0,0-1.05-.95l-9.19.12a1,1,0,0,0-1,1,1,1,0,0,0,1.05,1l8.22-.11c0,.75.06,1.46.06,2.14,0,6.77-2.14,10-4.34,11.74a9.15,9.15,0,0,1-5.4,1.86h-.21a12.94,12.94,0,0,1-8-3.84c-1.69-1.86-2.95-5.56-3.4-8.2a22.82,22.82,0,0,1-.34-4,25.34,25.34,0,0,1,2.72-11.6c1.85-3.43,4.57-5.95,8.37-6.61a11.37,11.37,0,0,1,1.94-.16,13.86,13.86,0,0,1,5.69,1.28h0c.19.1,1,.53,1.63.95.34.21.67.42.88.58l.07.06a1,1,0,0,0,.23.32h0l0,0h0l0,0a1,1,0,0,0,.75.25,1,1,0,0,0,.66-.3h0v0h0v0h0l0,0L42,7.75A3.13,3.13,0,0,0,41.13,6.58Z"/><path class="cls-4" d="M41.13,6.58l-.51-.35L38.37,8.77c-.4-.29-.88-.57-1.32-.84l-.83-.47-.28-.16-.19-.09A16,16,0,0,0,29.2,5.74a12.58,12.58,0,0,0-2.29.2c-4.56.78-7.81,3.86-9.84,7.66a27.32,27.32,0,0,0-3,12.58,25.38,25.38,0,0,0,.37,4.36c.53,2.9,1.76,6.77,3.9,9.2a14.84,14.84,0,0,0,9.42,4.53h.35A11.23,11.23,0,0,0,34.81,42C37.57,39.87,40,35.8,40,28.61c0-1-.05-2.11-.14-3.27a1,1,0,0,0-1.05-.95l-9.19.12a1,1,0,0,0-1,1,1,1,0,0,0,1.05,1l8.22-.11c0,.75.06,1.46.06,2.14,0,6.77-2.14,10-4.34,11.74a9.15,9.15,0,0,1-5.4,1.86h-.21a12.94,12.94,0,0,1-8-3.84c-1.69-1.86-2.95-5.56-3.4-8.2a22.82,22.82,0,0,1-.34-4,25.34,25.34,0,0,1,2.72-11.6c1.85-3.43,4.57-5.95,8.37-6.61a11.37,11.37,0,0,1,1.94-.16,13.86,13.86,0,0,1,5.69,1.28h0c.19.1,1,.53,1.63.95.34.21.67.42.88.58l.07.06a1,1,0,0,0,.23.32h0l0,0h0l0,0a1,1,0,0,0,.75.25,1,1,0,0,0,.66-.3h0v0h0v0h0l0,0L42,7.75A3.13,3.13,0,0,0,41.13,6.58Z"/><path class="cls-3" d="M42.57,5.9a3.3,3.3,0,0,1,.42.61,1,1,0,0,0-.31-1,1,1,0,0,0-.9-.24A3.44,3.44,0,0,1,42.57,5.9Z"/><path class="cls-4" d="M42.57,5.9a3.3,3.3,0,0,1,.42.61,1,1,0,0,0-.31-1,1,1,0,0,0-.9-.24A3.44,3.44,0,0,1,42.57,5.9Z"/><path class="cls-5" d="M40.62,6.23l.6-.68h0a1.06,1.06,0,0,1,.56-.32,4.26,4.26,0,0,0-2.66-.51L39,4.9h0l-.61.72A3.41,3.41,0,0,1,40.62,6.23Z"/><path class="cls-5" d="M42.77,6.92,42,7.75a5.78,5.78,0,0,1,.43,2.58L43.62,9A6.15,6.15,0,0,0,43,6.51,1,1,0,0,1,42.77,6.92Z"/><path class="cls-6" d="M41.22,5.55l-.6.68.51.35A3.13,3.13,0,0,1,42,7.75l.73-.83A1,1,0,0,0,43,6.51a3.3,3.3,0,0,0-.42-.61,3.44,3.44,0,0,0-.79-.67,1.06,1.06,0,0,0-.56.32Z"/><path class="cls-7" d="M27.37,46h0a15.74,15.74,0,0,1-6.94-2h0a14.78,14.78,0,0,1-4.85-4.61h0a22.56,22.56,0,0,1-3.37-12.5h0a31.06,31.06,0,0,1,2.12-11.28h0A19,19,0,0,1,20.56,7h0a16.62,16.62,0,0,1,9.62-3.33h.05a15.26,15.26,0,0,1,7.6,2.09h0l.09,0h0l1.21-1.39v0a3.24,3.24,0,0,1,2.17-.83h0a3.24,3.24,0,0,1,2.14.8h0a3.27,3.27,0,0,1,1.14,2.48h0a3.24,3.24,0,0,1-.8,2.14h0L40.91,12.4a3.27,3.27,0,0,1-2.37,1.13h-.11a3.27,3.27,0,0,1-2.19-.84h0l-.13-.12,0-.05h0l-.28-.24h0a10.06,10.06,0,0,0-1.23-.84h0a8.75,8.75,0,0,0-4.32-1.21h0a10,10,0,0,0-5.88,2.12h0A12.6,12.6,0,0,0,20.42,18h0a24.59,24.59,0,0,0-1.66,8.84h0v0h0v0h0a18.17,18.17,0,0,0,1.29,7h0a9,9,0,0,0,3.68,4.4h0a9.08,9.08,0,0,0,4.11,1.17h.4a7.29,7.29,0,0,0,3-.68h0a6.72,6.72,0,0,0,3.36-3.71h0a17,17,0,0,0,1.09-6.4h0l-6,.08h0a3.27,3.27,0,0,1-3.27-3.24h0v0h0a3.27,3.27,0,0,1,3.23-3.27h0l9.19-.12h.05a3.28,3.28,0,0,1,3.26,3h0c.1,1.2.15,2.33.15,3.4h0a23.4,23.4,0,0,1-1.61,9.13h0a13.83,13.83,0,0,1-4.13,5.57h0a13.43,13.43,0,0,1-8.25,2.83h0a6.83,6.83,0,0,1-.83,0ZM30.18,4A16.29,16.29,0,0,0,20.76,7.3h0a18.6,18.6,0,0,0-6.11,8.43h0a30.82,30.82,0,0,0-2.09,11.16h0A22.17,22.17,0,0,0,15.87,39.2h0a14.37,14.37,0,0,0,4.73,4.5h0a15.33,15.33,0,0,0,6.79,2h0v.17l0-.17c.14,0,.41,0,.8,0h0a13.09,13.09,0,0,0,8-2.75h0a13.62,13.62,0,0,0,4-5.44h0a23.17,23.17,0,0,0,1.58-9h0c0-1.06-.05-2.18-.16-3.37h0a2.92,2.92,0,0,0-2.91-2.68h0l-9.19.11a2.93,2.93,0,0,0-2.9,2.93h0v0h0a2.93,2.93,0,0,0,2.93,2.89h0L36,28.39v.18a17.13,17.13,0,0,1-1.12,6.7h0a7,7,0,0,1-3.52,3.89h0a7.44,7.44,0,0,1-3.1.71h-.43a9.6,9.6,0,0,1-4.26-1.22h0a9.35,9.35,0,0,1-3.81-4.57h0a18.32,18.32,0,0,1-1.32-7.16h0s0,0,0,0h0a24.78,24.78,0,0,1,1.68-9h0a13,13,0,0,1,4-5.82h0A10.33,10.33,0,0,1,30.22,9.9h0a9.1,9.1,0,0,1,4.49,1.25h0A10.24,10.24,0,0,1,36,12h0l.23.19h0l.12.12a2.94,2.94,0,0,0,2.07.86h.1a3,3,0,0,0,2.12-1h0l2.87-3.33a2.89,2.89,0,0,0,.71-1.91h0a2.93,2.93,0,0,0-1-2.22h0A2.93,2.93,0,0,0,41.3,4h0a2.9,2.9,0,0,0-2.22,1h0l-.3.35h0L38,6.28l-.13-.08-.22-.13h0a14.88,14.88,0,0,0-7.42-2h-.05Z"/><path class="cls-8" d="M27.09,26.09s.35,2.31,3.46,2.1a54.2,54.2,0,0,1,5.77-.09l-.22,2.33L37,27.75s.3-.64-.52-.64-6.72.21-6.72.21S27.48,27.52,27.09,26.09Z"/><path class="cls-8" d="M40.28,12a2.74,2.74,0,0,1-3.7.08c-1.9-1.63-7.67-5.68-14.74,1.68,0,0-7.37,9.7-2.11,21.42,0,0,2.63,5.56,8.79,5a7.92,7.92,0,0,0,5.21-2.5S29.9,43,22.92,39.48s-7-16.94-2.72-24.31,11.94-7.06,15-4.65S39.42,12.55,40.28,12Z"/><path class="cls-8" d="M43.66,5.9a2.42,2.42,0,0,1-.29,2.29A32.4,32.4,0,0,1,41.07,11s-1.09.75.23-.86S43.6,8.13,43.66,5.9Z"/><path class="cls-9" d="M58.35,20.1s-5-1-5.52,5.6,4.14,9.05,6.72,7.93c2.76-1.19,3.41-4.34,3-7C62.24,24.18,61.24,20.65,58.35,20.1Z"/><path class="cls-10" d="M66.53,49.75c5.12-4.08,3.22-11.43,2-17.64s-3.39-15.86-3.39-15.86c-.35-2.41-1.7-2.13-1.7-2.13l0-.17c-2.41.35-3,.81-2.53,3.91,0,0-1.38-1.95-6-.92s-7.24,8.27-5.75,13.22S55.5,39.23,60,37.62,64.81,33,64.81,33s3,10.45.12,12.64-5.52,1.38-6.44-1.27a2.4,2.4,0,0,0-2.41-.11l-.12.07C53.61,47.7,61.92,53.43,66.53,49.75Zm-7-16.12c-2.58,1.12-7.24-1.38-6.72-7.93s5.52-5.6,5.52-5.6c2.89.55,3.89,4.08,4.23,6.53C63,29.29,62.31,32.44,59.55,33.63Z"/><path class="cls-11" d="M70.44,38.08c-1.32-8.58-4.6-22.29-4.6-22.29A1.89,1.89,0,0,0,63.43,14h0l0,.17s1.35-.28,1.7,2.13c0,0,2.18,9.65,3.39,15.86s3.1,13.56-2,17.64c-4.61,3.68-12.92-2-10.57-5.39-1.16.67-1.35,1.48-.57,3s4.48,5.17,9,4S71.67,46.1,70.44,38.08Z"/><path class="cls-9" d="M62.57,46.3l-1,.35a5.58,5.58,0,0,0-.68.18,3,3,0,0,0,.86.09A4.7,4.7,0,0,1,62.57,46.3Z"/><path class="cls-9" d="M58.35,20.1s-5-1-5.52,5.6,4.14,9.05,6.72,7.93c2.76-1.19,3.41-4.34,3-7C62.24,24.18,61.24,20.65,58.35,20.1Z"/><path class="cls-12" d="M55.23,47.47a3.76,3.76,0,0,1-.48-1.63h0A1.92,1.92,0,0,1,56,44.14h0a2.45,2.45,0,0,1,1.17-.3h0a2.7,2.7,0,0,1,1.43.42h0l.06.09a3.22,3.22,0,0,0,3.07,2.4h0a5.14,5.14,0,0,0,3.1-1.22h0c.85-.63,1.19-2.17,1.18-4h0a29.72,29.72,0,0,0-.68-5.65h0c-.19-.94-.38-1.72-.51-2.23h0c-.37,1-1.49,2.92-4.77,4.1h0a6.32,6.32,0,0,1-2.08.36h0c-3.94,0-7.65-3.69-8.94-7.94h0a10.63,10.63,0,0,1-.43-3.06h0c0-4.52,2.45-9.49,6.3-10.38h0a11.39,11.39,0,0,1,2.52-.3h0a5.14,5.14,0,0,1,3.26.92h0a8.08,8.08,0,0,1-.08-1.13h0a2.09,2.09,0,0,1,.68-1.82h0a4.58,4.58,0,0,1,2.14-.66h0a4.75,4.75,0,0,1,.51,0h0a1.92,1.92,0,0,1,1.84,1h0a2.61,2.61,0,0,1,.26,1h0c.13.55,3.29,13.86,4.59,22.29h0l-.17,0-.17,0c-.66-4.29-1.81-9.86-2.79-14.36h0c-1-4.49-1.8-7.91-1.8-7.92h0v0a1.56,1.56,0,0,0,0-.26h0a1.87,1.87,0,0,0-.19-.6h0a1.56,1.56,0,0,0-1.53-.84h0l-.46,0h0a4.5,4.5,0,0,0-2,.59h0a1.77,1.77,0,0,0-.55,1.55h0a11.82,11.82,0,0,0,.14,1.58h0A.16.16,0,0,1,61,18h0a.19.19,0,0,1-.21-.06h0a1,1,0,0,0-.15-.16h0a2.7,2.7,0,0,0-.55-.4h0a5.35,5.35,0,0,0-2.65-.59h0a11.42,11.42,0,0,0-2.44.3h0c-3.6.79-6,5.63-6,10h0a10.28,10.28,0,0,0,.41,3h0c1.25,4.14,4.9,7.71,8.61,7.69h0a5.68,5.68,0,0,0,2-.34h0c3.31-1.19,4.3-3.12,4.59-4h0a2.51,2.51,0,0,0,.12-.45h0a.16.16,0,0,1,.16-.15h0A.17.17,0,0,1,65,33h0a38.5,38.5,0,0,1,1.37,8.59h0C66.34,43.4,66,45,65,45.81h0a5.57,5.57,0,0,1-3.31,1.29h0a3.55,3.55,0,0,1-3.37-2.58h0a2,2,0,0,0-.3-.15h0a2.26,2.26,0,0,0-.89-.19h0a2.07,2.07,0,0,0-1,.26h0c-.75.42-1.07.81-1.07,1.4h0a3.48,3.48,0,0,0,.45,1.48h0a8.75,8.75,0,0,0,7.05,4.14h0a7,7,0,0,0,1.72-.21h0c3.69-1,6.24-4,6.25-9.64h0a22.48,22.48,0,0,0-.29-3.5h0l.17,0,.17,0a23,23,0,0,1,.29,3.55h0c0,5.79-2.66,9-6.51,10h0a7.17,7.17,0,0,1-1.8.23h0a9.08,9.08,0,0,1-7.36-4.34ZM52.62,26.69c0-.32,0-.66,0-1h0c.39-5.16,3.63-5.83,5-5.81h0a4.84,4.84,0,0,1,.69.05h0c3,.6,4,4.21,4.36,6.66h0a9.32,9.32,0,0,1,.1,1.4h0c0,2.32-.85,4.76-3.23,5.79h0a3.5,3.5,0,0,1-1.38.27h0c-2.53,0-5.62-2.42-5.62-7.37Zm.38-1c0,.33,0,.66,0,1h0c0,4.8,3,7,5.28,7h0a3,3,0,0,0,1.24-.25h0c2.21-.95,3-3.22,3-5.47h0a10,10,0,0,0-.1-1.35h0c-.34-2.44-1.34-5.88-4.1-6.38h-.16l-.45,0h0c-1.33,0-4.29.49-4.7,5.49Z"/><path class="cls-9" d="M60.5,20a5.27,5.27,0,0,0-7.15,1c-3.45,3.79-1.73,11.29,1.89,13.1s7.59.43,8.28-4.91S61.45,20.71,60.5,20Z"/><path class="cls-12" d="M57,47a3.89,3.89,0,0,0-.93,1.36,9.8,9.8,0,0,0,2.54,2.14,4.39,4.39,0,0,1,.35-2,4.76,4.76,0,0,1-.68-.35A5.15,5.15,0,0,1,57,47Z"/><path class="cls-12" d="M59.73,47.52a3.77,3.77,0,0,1,1.21-.69,3.1,3.1,0,0,1-1.43-.78,4.7,4.7,0,0,0-1.42.28A3.83,3.83,0,0,0,59.73,47.52Z"/><path class="cls-12" d="M60.63,49a4.06,4.06,0,0,0,.27,2.41,7,7,0,0,0,2.94.09,5.61,5.61,0,0,1-1-2.4A9.6,9.6,0,0,1,60.63,49Z"/><path class="cls-12" d="M62.94,47.7a3.94,3.94,0,0,1,.47-1.14,4.48,4.48,0,0,1-1.61.36,5.21,5.21,0,0,0-.7.89A7.53,7.53,0,0,0,62.94,47.7Z"/><path class="cls-13" d="M57.57,45.44s-.43-.6-1-.35c-.35.18-.3,1,.36,1.91a3.47,3.47,0,0,1,1.11-.67A3,3,0,0,1,57.57,45.44Z"/><path class="cls-13" d="M67.74,34.06C66.62,28.89,65.24,22,64.13,17c-.16-.72-.28-1.76-1.07-2.05,0,0-.39,0-.4,0-1,.26-1,1.09-.95,2a7.88,7.88,0,0,0,.43,2.33s.17,1.21-.78.26-2.32-2.5-6-1.64c-4.92,1.14-6.2,8.53-4.74,12.67A9.6,9.6,0,0,0,56,36.12,5.38,5.38,0,0,0,62.8,34a11.13,11.13,0,0,0,1.25-4.42c0-.27,0-1.34.41-1.4.61-.11,1.2,2.58,1.3,2.94,1.72,6.12,3.69,14.84-2,16.38-.3.08-.57.14-.84.19a3.83,3.83,0,0,0-.08,1.42,6.11,6.11,0,0,0,4.88-2.56C70,43.11,68.56,37.85,67.74,34.06Zm-4.22-4.82c-.69,5.34-4.66,6.72-8.28,4.91s-5.34-9.31-1.89-13.1a5.27,5.27,0,0,1,7.15-1C61.45,20.71,64.21,23.89,63.52,29.24Z"/><path class="cls-13" d="M59.73,47.52a3.06,3.06,0,0,0-.79,1,7.92,7.92,0,0,0,1.69.47,4,4,0,0,1,.47-1.21A4.79,4.79,0,0,1,59.73,47.52Z"/><path class="cls-14" d="M59.73,47.52a3.83,3.83,0,0,1-1.64-1.19A3.47,3.47,0,0,0,57,47a5.15,5.15,0,0,0,1.28,1.2,4.76,4.76,0,0,0,.68.35A3.06,3.06,0,0,1,59.73,47.52Z"/><path class="cls-14" d="M62.94,47.7a7.53,7.53,0,0,1-1.84.11A4,4,0,0,0,60.63,49a9.6,9.6,0,0,0,2.23.1A3.83,3.83,0,0,1,62.94,47.7Z"/><path class="cls-15" d="M52,21.53c-.41.81-1,1.33-1.33,1.16s-.26-1,.14-1.76,1-1.33,1.33-1.16S52.35,20.72,52,21.53Z"/></g></g></svg>