<svg xmlns="http://www.w3.org/2000/svg" viewBox="0 0 85.04 56.69"><defs><style>.cls-1{isolation:isolate;}.cls-2,.cls-6{opacity:0.4;}.cls-3,.cls-6{fill:#b5ce2f;}.cls-4{fill:#93af2a;}.cls-5{fill:#cdde55;}.cls-11,.cls-6{mix-blend-mode:multiply;}.cls-7{fill:#dee98d;}.cls-11,.cls-8{fill:#169146;}.cls-9{fill:#036635;}.cls-10{fill:#22964f;mix-blend-mode:overlay;}.cls-11{opacity:0.31;}</style></defs><g class="cls-1"><g id="Layer_1" data-name="Layer 1"><path class="cls-2" d="M38,44a148.09,148.09,0,0,0-17.61,2.19c-7.39,1.42-7,5.29,4.36,4s19.81-3.7,18.38-2.52-3.1,2.68,3.19,1.85.42-.26,6.47,0,8.73.25,10,.41a5.81,5.81,0,0,0,4.2-.67c1.34-.92,10.91-3.61,1.43-5.2S64,43,63.61,41.7s-15.78-1.09-17,.08,2.77,1.18-.67,1.68c-2,.3-4,.26-6.08.38Z"/><path class="cls-2" d="M18.79,47.49s-2.94,1.34,3.11,1.09,4.87-2.26,1.09-1.84S18.79,47.49,18.79,47.49Z"/><path class="cls-2" d="M35.24,45.48s-2.93,1.34,3.11,1.09,4.87-2.27,1.09-1.85S35.24,45.48,35.24,45.48Z"/><path class="cls-2" d="M48.18,45s-.66.32-.23.55-.57.65.35.88-1,.79,1.14.61,5.6-.65,4.8-1.62c0,0-.29,0,1.37-.14s2.63-.1,2.17.23-.46.88.63,1.16a25.85,25.85,0,0,0,3,.64A2.4,2.4,0,0,0,63,46.75c.17-.19,1-.15.87-.51s1.15-.69.18-.9a19.86,19.86,0,0,1-2.11-.62l-.8-.42s-1.48.14-2.4.14-5.16.26-5.86.26S48.18,45,48.18,45Z"/><path class="cls-3" d="M46.28,18.08s-.92-4.53,1.93-4.7,2.43,3.11,2.77,7,.33,8.14.33,8.14a6.11,6.11,0,0,1,6-4.61c5,.08,5.79,6.12,5.37,11.58S63.4,46,60.21,45.78c0,0-1.68,0-1.59-2s0-9.9,0-9.9.42-3.94-2.69-3.69-3.1,3-3.19,5.87l.09,7.3a2.38,2.38,0,0,1-2.52,2.44c-2.52-.08-2.1-3.44-2.1-3.44A241.25,241.25,0,0,0,46.28,18.08Z"/><path class="cls-4" d="M60.37,46h-.16a1.89,1.89,0,0,1-.88-.26h0a1.88,1.88,0,0,1-.88-1.78h0v-.15h0c0-.67,0-2,0-3.46h0c0-2.93,0-6.43,0-6.46h0a4.17,4.17,0,0,0,0-.44h0a4.56,4.56,0,0,0-.38-1.92h0a1.93,1.93,0,0,0-1.88-1.16h-.27a2.69,2.69,0,0,0-2.58,1.86h0A13.09,13.09,0,0,0,52.91,36h0l.08,7.3a3.3,3.3,0,0,1-.31,1.3h0A2.34,2.34,0,0,1,50.43,46H50.3a2.08,2.08,0,0,1-1.91-1.22h0A4.3,4.3,0,0,1,48,42.86h0a4.64,4.64,0,0,1,0-.53h0c0-.2-.09-3.49-.37-8h0c-.28-4.71-.76-10.76-1.56-16.17h0A9.92,9.92,0,0,1,46,16.52h0a4.79,4.79,0,0,1,.4-2.1h0a2.08,2.08,0,0,1,1.83-1.21h.21c1.4,0,2.05.91,2.31,2.21h0c.28,1.32.26,3.08.43,5h0c.24,2.81.3,5.74.32,7.2h0a6.06,6.06,0,0,1,5.76-3.83h.13a4.83,4.83,0,0,1,4.47,3h0A14.94,14.94,0,0,1,63,33.18h0q0,1.18-.09,2.37h0c-.32,4,.22,7.74-.81,9.47h0a1.88,1.88,0,0,1-1.7.93h0Zm0-.34a1.51,1.51,0,0,0,1.43-.76h0a5.17,5.17,0,0,0,.55-2.19h0c.16-1.87,0-4.44.21-7.13h0c.06-.78.1-1.57.1-2.35h0a14.78,14.78,0,0,0-1.13-6.28h0a4.49,4.49,0,0,0-4.18-2.78h-.12a5.78,5.78,0,0,0-5.52,3.79h0a5.18,5.18,0,0,0-.23.7h0a.18.18,0,0,1-.19.13h0a.16.16,0,0,1-.14-.17h0s0-4.19-.34-8.12h0a49,49,0,0,0-.42-5h0c-.28-1.26-.75-1.94-2-2h-.19a1.72,1.72,0,0,0-1.55,1h0a4.55,4.55,0,0,0-.37,1.95h0a8.59,8.59,0,0,0,.14,1.53h0l-.16,0,.16,0a239.77,239.77,0,0,1,1.94,24.27h0v0a3.72,3.72,0,0,0,0,.5h0a4,4,0,0,0,.34,1.72h0a1.73,1.73,0,0,0,1.62,1h.12a2,2,0,0,0,1.94-1.12h0a2.8,2.8,0,0,0,.29-1.14h0L52.57,36a13.22,13.22,0,0,1,.48-4h0A3,3,0,0,1,55.92,30h.29a2.27,2.27,0,0,1,2.18,1.34h0a5,5,0,0,1,.41,2.07h0a4.13,4.13,0,0,1,0,.46h0s0,3.5,0,6.44h0c0,1.47,0,2.79,0,3.47h0v.14h0a1.55,1.55,0,0,0,.72,1.49h0a1.53,1.53,0,0,0,.72.21h.15Z"/><path class="cls-5" d="M48.74,14.08s-2-.22-1.79,2.52S49,37.36,49.08,40.94s.67,4.36,2.18,3.75c0,0,.5-.45.05-.39,0,0-.72.05-.72-.62s-2-26.58-2-26.58S48.18,14,48.74,14.08Z"/><path class="cls-5" d="M52.38,28.68a6.05,6.05,0,0,1,1.6-2.3c2.39-2,5.67-1.1,6.33,2a33.08,33.08,0,0,1,.62,7.76c0,2.45-.48,5-.21,7.44.05.43.1,1.4.71,1.4a1.34,1.34,0,0,1-2-.37,4.58,4.58,0,0,1-.06-2.21c.2-3.27-.06-6.61-.14-9.88,0,0,.06-4-3-3.81s-3.86,3.08-4,3.92S51.43,31,52.38,28.68Z"/><path class="cls-6" d="M49.41,14.75s.67.39.79,2.52.72,12.14.72,12.14.11,5.09.9,4.31.22,3.19.39,6.32-.39,4.59-1,3.59S50,25.44,50,25.44,49.13,14.42,49.41,14.75Z"/><path class="cls-6" d="M60.44,25.83a11.06,11.06,0,0,1,1.84,6.66C62.17,36.63,62,43.57,62,43.57s-.78,1.9-.78.28S62.9,29.52,60.44,25.83Z"/><path class="cls-7" d="M57.21,25.27c.13.45-.45,1-1.29,1.26s-1.64.08-1.77-.36.45-1,1.29-1.26S57.08,24.82,57.21,25.27Z"/><path class="cls-8" d="M12.67,11.65a3.31,3.31,0,0,1,2.85-3.44c3-.5,4,1.85,4.28,4.2s1.26,10.66,1.26,10.66a1.81,1.81,0,0,0,2.18,1.76l8.14-.67s1.68-.17,1.43-2.35S31,10.56,31,10.56s-.75-3.69,2.61-4.11c0,0,2.51-.34,3,3s3.86,24.09,4.87,34.08c0,0,.5,2-2.94,2.35S35,44.13,34.91,43.71c0,0-.92-9.73-1-10.91s0-3.94-2.77-4.11l-6.88.92a2.1,2.1,0,0,0-2,2.52c.17,2.52,2.1,12.25,2.1,12.25A3,3,0,0,1,21.65,48c-3.28.42-3.7-1.17-4.12-3.69S14.34,20.55,12.67,11.65Z"/><path class="cls-9" d="M18.21,47.12a7.35,7.35,0,0,1-.84-2.79h0C17,41.8,14.18,20.57,12.5,11.68h0l.17,0H12.5v-.09h0a3.45,3.45,0,0,1,3-3.53h0A6.05,6.05,0,0,1,16.31,8h0c2.54,0,3.44,2.27,3.66,4.42h0c.25,2.34,1.25,10.64,1.26,10.68h0a2,2,0,0,0,0,.24h0a1.9,1.9,0,0,0,.2.56h0a1.57,1.57,0,0,0,1.53.8h.25L31.37,24h0l.19,0h0a1.6,1.6,0,0,0,.45-.23h0a1.67,1.67,0,0,0,.66-1.49h0a2.91,2.91,0,0,0,0-.4h0c-.25-2.17-1.84-11.23-1.84-11.24h0a4.78,4.78,0,0,1-.08-.89h0a3.13,3.13,0,0,1,2.82-3.42h.21c.63,0,2.58.29,3,3.17h0c.51,3.36,3.86,24.07,4.87,34.08h0a1.16,1.16,0,0,1,0,.29h0c0,.63-.4,2-3.12,2.25h0a6.13,6.13,0,0,1-.72,0h0a3,3,0,0,1-2.59-1h0a3,3,0,0,1-.48-1.34h0s-.92-9.73-1-10.92h0a8,8,0,0,0-.36-2.38h0a2.33,2.33,0,0,0-2.23-1.57h0l-6.88.92h0a2,2,0,0,0-.29,0h0a2.08,2.08,0,0,0-.64.23h0a1.9,1.9,0,0,0-.93,1.82h0a2.35,2.35,0,0,0,0,.26h0c.08,1.24.61,4.31,1.11,7.05h0c.5,2.75,1,5.18,1,5.18h0a4.14,4.14,0,0,1,0,.59h0a3,3,0,0,1-2.87,3.22h0a7,7,0,0,1-1,.07h0a2.7,2.7,0,0,1-2.45-1.11Zm-.51-2.85a7,7,0,0,0,.79,2.66h0a2.35,2.35,0,0,0,2.2,1h0a8,8,0,0,0,.93-.06h0a2.69,2.69,0,0,0,2.58-2.89h0a3.87,3.87,0,0,0,0-.52h0s-1.93-9.73-2.1-12.28h0a2.72,2.72,0,0,1,0-.28h0a2.21,2.21,0,0,1,1.09-2.11h0a2.59,2.59,0,0,1,1.09-.31h0l6.88-.92h0a2.67,2.67,0,0,1,2.54,1.79h0a8.14,8.14,0,0,1,.39,2.48h0c.08,1.17,1,10.9,1,10.89h0a2.59,2.59,0,0,0,.42,1.19h0a2.64,2.64,0,0,0,2.32.89h0l.69,0h0c2.61-.28,2.79-1.43,2.81-1.92h0a1,1,0,0,0,0-.22h0v0h0c-1-10-4.37-30.71-4.87-34.07h0C36,6.78,34.31,6.62,33.75,6.6h-.16A2.78,2.78,0,0,0,31.06,9.7h0a4.68,4.68,0,0,0,.07.83h0S32.72,19.59,33,21.79h0c0,.16,0,.3,0,.44h0A2,2,0,0,1,32.21,24h0a1.84,1.84,0,0,1-.81.32h0s-6,.51-8.15.68H23a1.94,1.94,0,0,1-1.83-1h0a2.19,2.19,0,0,1-.26-.94h0s-1-8.31-1.26-10.67h0c-.23-2.12-1-4.12-3.32-4.11h0a5.17,5.17,0,0,0-.76.06h0a3.12,3.12,0,0,0-2.72,3.2h0v.06h0c1.68,8.91,4.45,30.13,4.87,32.64Z"/><path class="cls-10" d="M15.52,9.05a2.26,2.26,0,0,0-1.76,2.85c.5,2.44,5,33.24,5,33.24a2.45,2.45,0,0,0,3.36,1.93s.76-.59.08-.5a1.67,1.67,0,0,1-1.67-1.43L18.79,30.53s-.75-2.68,3.86-3.35,13.88-2.55,6.07-2-8.33.61-8.33.61a2.21,2.21,0,0,1-2.44-2c-.33-2.27-1.84-11.17-1.84-11.17s-.93-2.85,1.26-3A2.42,2.42,0,0,0,15.52,9.05Z"/><path class="cls-10" d="M33.2,7.34s-1.62.39-1.06,2.69,1.68,11.64,1.68,11.64.28.84.28-.06S32.92,9.75,32.92,9.75A3.67,3.67,0,0,1,33.2,7.34Z"/><path class="cls-10" d="M34.49,30.51l1.17,12.76s.12,2.07,2.86,1.67c0,0,1.12-.22,0-.44s-1.45-.56-1.62-2-1.9-12-1.9-12S34.54,27.6,34.49,30.51Z"/><path class="cls-11" d="M40.08,44.1c1-.26.4-3.41.4-3.41L36.11,11c-.33-3-1.17-3-1.17-3s-.73-.44-1,.28,2.4,20.54,2.4,20.54l2.08,14S38.63,44.5,40.08,44.1Z"/><path class="cls-11" d="M18.09,10.31s.62.45.95,3,1.35,10.3,1.35,10.3.33,1.34.95,1.45-2.13.62-2.35-2.29S16.69,8.91,18.09,10.31Z"/><path class="cls-11" d="M31.47,28.21l-8.23,1.12a2.24,2.24,0,0,0-1.68,2.46c.28,2,1.91,11.76,1.91,11.76s.22,2.23-.4,2.4-1.17-.17-1.4-2.24L20.22,32.07a2.59,2.59,0,0,1,2.52-3.3C26,28.38,31.47,28.21,31.47,28.21Z"/></g></g></svg>