<svg id="Layer_1" data-name="Layer 1" xmlns="http://www.w3.org/2000/svg" viewBox="0 0 85.04 56.69"><defs><style>.cls-1{fill:#999;}.cls-2{fill:#7c7c7c;}.cls-3{fill:#642812;}.cls-4{fill:#f47927;}.cls-5{fill:#dd6427;}.cls-6{fill:#f6942e;}.cls-7{fill:#b03d19;}.cls-8{fill:#f8ab5c;}.cls-9{fill:#fabc60;}.cls-10{fill:#d91e36;}.cls-11{fill:#fbae3c;}.cls-12{fill:#a91e2e;}.cls-13{fill:#e86044;}.cls-14{fill:#fdb847;}.cls-15{fill:#e22e37;}.cls-16{fill:#e84042;}</style></defs><path class="cls-1" d="M58,43.75h0Zm-.19,0h0Zm2.45-.38c0,.38,0,.65,0,.78,4.1.48,6.87,1.6,1.81,2.69a29,29,0,0,1-6,.74,13.78,13.78,0,0,1-2.55-.21,10.57,10.57,0,0,0-1.22-.22c-.38,0-.45.27-.58,1.23-.18,1.43-5.74,2-10.77,2-5.31,0-10-.62-7.2-1.48,5.52-1.67-7.31-.38-12.45-1.92-4.27-1.28,2.29-2.12,4.62-2.37a3.64,3.64,0,0,1,0-.48v-.44l-.61,0-.24,0h-.23c-5.67.57-12.91,1.68-10.81,3.45,3.33,2.83,20,1.54,14.24,3.6-4.14,1.47,2.09,2.35,9.35,2.35a79.71,79.71,0,0,0,8.49-.43c9.25-1,10.92-1.54,9.25-3-.74-.62-.9-.8-.39-.8s2.37.29,5.39.29c5.39,0,22.59-4.75.13-5.91Zm-18.29-.54-2.46,0c0,.65,0,1.12,0,1.12v.13c4,.5,4.83,1.65,1.62,2.1-2.9.4-.35.95,2.8.95,2.85,0,6.2-.45,6.44-1.85.16-.9,2.23-1.31,4.76-1.39v-.78c-5.4-.22-9.72-.3-13.13-.3Z"/><path class="cls-2" d="M58,45h0Zm-.8,0h0l.53,0h0l-.53,0Zm2.45-.16h0Zm-4.55-.91c-2.53.08-4.6.49-4.76,1.39-.24,1.4-3.59,1.85-6.44,1.85-3.15,0-5.7-.55-2.8-.95,3.21-.45,2.33-1.6-1.62-2.1a3.4,3.4,0,0,1-.28,1.33,2,2,0,0,1-1.72,1.18c-1.93.12-8,.19-8.09.19h0a3.26,3.26,0,0,1-.39,0A4.16,4.16,0,0,1,27,46.39a2.34,2.34,0,0,1-1.26-1.79c-2.33.25-8.89,1.09-4.62,2.37,5.14,1.54,18,.25,12.45,1.92-2.83.86,1.89,1.48,7.2,1.48,5,0,10.59-.56,10.77-2,.13-1,.2-1.23.58-1.23a10.57,10.57,0,0,1,1.22.22,13.78,13.78,0,0,0,2.55.21,29,29,0,0,0,6-.74c5.06-1.09,2.29-2.21-1.81-2.69a.62.62,0,0,0,0,.09h0a2.06,2.06,0,0,1-.31,1,2.29,2.29,0,0,1-2.06,1h-.14a2.27,2.27,0,0,1-2.59-2.35v0Z"/><path class="cls-3" d="M36.8,30.05,36.74,30h0s0,0,.06.06Z"/><path class="cls-4" d="M26.56,4.05A76,76,0,0,1,39.44,4,1.55,1.55,0,0,1,41.1,5.54c0,1.65-.14,4.55-.14,4.55s.1,1.37-1.63,1.34l-2.23,0s-.84-.13-.87.53,0,24.82,0,24.82-.07,1.34,1.06,1.45,1.83-.14,1.92,1.06,0,4.71,0,4.71.12,2.29-1.8,2.42-8.1.19-8.1.19S26,47,26,44.12s-.11-4.73-.11-4.73-.1-1.22,1.33-1.22,1.89,0,1.89,0,.7,0,.72-.9.21-25,.21-25a.75.75,0,0,0-.83-.85H27.41a2.32,2.32,0,0,1-2.51-2.3c0-2.4,0-3.08,0-3.08s.21-1.75,1.62-1.93Z"/><path class="cls-5" d="M33.43,4h-.29c-.58,0-1.1.12-1.08.24s.29.07.73.07h1.39c2.14,0,5.14.13,5.14,1.43v3c0,.45.13,1-.23,1.35a1.53,1.53,0,0,1-1,.28l-.61,0c-.6,0-1.08-.08-1.45-.08-.93,0-1.23.34-1.23,2.38,0,2.86.16,24.45.16,24.45s-.1,2.22,1.86,2.22,1.48.69,1.53,2l.08,2.91s.32,1.76-1.27,1.76h-.21L29.66,46a5.79,5.79,0,0,1-.86.06,3.3,3.3,0,0,1-2.29-.72,1.89,1.89,0,0,0,.73.65,3.81,3.81,0,0,0,1.71.37h.38s6.18-.07,8.08-.2a1.49,1.49,0,0,0,1.36-.93A3,3,0,0,0,39,44.06V44s0-1.33,0-2.63c0-.81,0-1.61,0-2.06s-.18-.66-.42-.75a8.5,8.5,0,0,0-1.31-.11,1.26,1.26,0,0,1-1.08-.77,2.11,2.11,0,0,1-.17-.84v-.05h0c0-.13,0-10.78,0-18.09,0-3.68,0-6.5,0-6.74a.72.72,0,0,1,.37-.63,1.18,1.18,0,0,1,.54-.11h.19l2.21,0h.07c1.34,0,1.32-.88,1.35-1.09v-.05s.14-2.9.14-4.55a1.22,1.22,0,0,0-.63-1.18,1.79,1.79,0,0,0-.78-.19h0C37.21,4,35.18,4,33.43,4Z"/><path class="cls-6" d="M37.94,40.52a1.75,1.75,0,0,0-2.16-.8c-1-.18-2-1-1.88-3.59v-24a12.28,12.28,0,0,1,.16-1.55,1.2,1.2,0,0,1,1.1-.58,13.37,13.37,0,0,0,1.55,0c.62-.06,1.64-.34,1.58-1.15C38.2,7.65,38.23,6,37.06,5.42a4.08,4.08,0,0,0-1.56-.16c-1.27,0-2.54,0-3.81-.14a12.84,12.84,0,0,0-4.33.06c-1.32.38-1.43,1.47-1.67,2.69a2.09,2.09,0,0,0,1.22,2.44,9.45,9.45,0,0,0,1.92.15,15.7,15.7,0,0,1,2.21.42,1.71,1.71,0,0,1,.28,1.25c0,.17,0,1.14-.06,2.62,0-.26.11-.39.17-.39.28,0,.5,3.08.5,6.88s-.22,6.88-.5,6.88c-.11,0-.2-.45-.28-1.2,0,1.7,0,3.34,0,4.8,0-.7.17-1.22.32-1.22s.33.71.33,1.59-.15,1.59-.33,1.59-.3-.58-.32-1.32c0,2.88,0,4.9,0,4.9s.1,1.51-1.13,1.65a18.26,18.26,0,0,1-2.13.11h-.39c-.09,0-.52.06-.52,1.2s0,3.71,0,3.71a.91.91,0,0,0,.49.9c.69.62,2,.52,2.85.54,1.17,0,2.33.1,3.51.07a11.07,11.07,0,0,0,3.36-.33c.73-.32.92-1.11.89-2A6.62,6.62,0,0,0,37.94,40.52Z"/><path class="cls-7" d="M27,46.39a2.39,2.39,0,0,1-1.29-2.27c0-2.84-.11-4.72-.11-4.71v-.07a1.42,1.42,0,0,1,.23-.79A1.48,1.48,0,0,1,27.18,38c1.42,0,1.87,0,1.88,0h.07l.18-.08c.12-.08.25-.22.27-.61s.06-6.69.11-12.84.1-12.17.1-12.19v0c0-.18,0-.58-.57-.58H27.36a3.27,3.27,0,0,1-1.46-.35,2.25,2.25,0,0,1-1.21-2.16c0-2.4,0-3.09,0-3.11s.19-1.87,1.8-2.11l0,.21,0-.21a64.36,64.36,0,0,1,6.9-.32c1.76,0,3.79.06,6,.21h0a2.42,2.42,0,0,1,1,.25,1.64,1.64,0,0,1,.84,1.55c0,1.67-.14,4.57-.14,4.55v.05a1.55,1.55,0,0,1-.26.86,1.76,1.76,0,0,1-1.51.65h-.07l-2.25,0h-.15a.8.8,0,0,0-.34.07c-.09.05-.14.1-.15.27s0,3,0,6.72c0,7.35,0,18.07,0,18.11v0a1.68,1.68,0,0,0,.13.66.84.84,0,0,0,.74.53,7.74,7.74,0,0,1,1.39.13,1.08,1.08,0,0,1,.72,1.12c0,.48,0,1.28,0,2.09,0,1.3,0,2.63,0,2.63v.09a3.41,3.41,0,0,1-.28,1.37,2,2,0,0,1-1.72,1.18c-1.94.12-8.1.19-8.09.19a3.26,3.26,0,0,1-.39,0A4.16,4.16,0,0,1,27,46.39Zm3-9.15a1.08,1.08,0,0,1-.47,1,1,1,0,0,1-.45.15s-.47,0-1.9,0c-1.11,0-1.09.74-1.12,1v0s.09,1.89.11,4.74A2,2,0,0,0,27.24,46a3.85,3.85,0,0,0,1.72.37h.37s6.18-.07,8.08-.2a1.49,1.49,0,0,0,1.36-.93A3,3,0,0,0,39,44.06V44s0-1.33,0-2.63c0-.81,0-1.61,0-2.06s-.18-.66-.42-.75a8.5,8.5,0,0,0-1.31-.11,1.26,1.26,0,0,1-1.08-.77,2.11,2.11,0,0,1-.17-.84v-.05c0-.13,0-10.78,0-18.09,0-3.68,0-6.5,0-6.74a.72.72,0,0,1,.37-.63,1.18,1.18,0,0,1,.54-.11h.19l2.21,0h.07c1.34,0,1.32-.88,1.35-1.09v-.05s.14-2.9.14-4.55a1.22,1.22,0,0,0-.63-1.18,1.73,1.73,0,0,0-.79-.19h0C37.21,4,35.18,4,33.43,4a64.32,64.32,0,0,0-6.84.31h0a1.51,1.51,0,0,0-1.18.92,2.92,2.92,0,0,0-.26.81s0,.68,0,3.07a1.84,1.84,0,0,0,1,1.79,3,3,0,0,0,1.26.3h1.86a.93.93,0,0,1,.84.43,1.09,1.09,0,0,1,.15.58v.06S30,36.36,30,37.24Z"/><path class="cls-8" d="M31.26,14.75a45.21,45.21,0,0,0-.33,6.49c0,2.36.08,4.44.22,5.68,0-4.45.07-9.28.11-12.17Z"/><path class="cls-9" d="M31.43,14.36c-.06,0-.12.13-.17.39,0,2.89-.08,7.72-.11,12.17.08.75.17,1.2.28,1.2.28,0,.5-3.08.5-6.88s-.22-6.88-.5-6.88Z"/><path class="cls-8" d="M31.11,31.72c0,.12,0,.24,0,.37a2.44,2.44,0,0,0,0,.27v-.64Z"/><path class="cls-9" d="M31.43,30.5c-.15,0-.28.52-.32,1.22v.64c0,.74.16,1.32.32,1.32s.33-.72.33-1.59-.15-1.59-.33-1.59Z"/><path class="cls-10" d="M60,43.36c0-.24,0-.53,0-.86a7.53,7.53,0,0,1-2.27.27,11.29,11.29,0,0,1-2.52-.41v.79a6.7,6.7,0,0,0,2.47.6A5.69,5.69,0,0,0,60,43.36Z"/><path class="cls-10" d="M57.83,41.5a5.6,5.6,0,0,0,2.29-.37c.26-4.72.73-13.32.79-14.5.07-1.64-1.25-1.8-3.6-1.8s-2.15,1.9-2.15,1.9L55.25,41l.5.15a10,10,0,0,0,2.08.32Z"/><path class="cls-10" d="M57.69,45a7.26,7.26,0,0,1-2.34-.47c.18.72.77,1.57,2.43,1.53a2,2,0,0,0,2.08-1.33,6.91,6.91,0,0,1-2.17.27Z"/><path class="cls-11" d="M60,43.36a5.69,5.69,0,0,1-2.27.39,6.7,6.7,0,0,1-2.47-.6v.78a2.45,2.45,0,0,0,.08.62,7.26,7.26,0,0,0,2.34.47,6.91,6.91,0,0,0,2.17-.27,1.94,1.94,0,0,0,.09-.52s0-.33,0-.87Z"/><path class="cls-11" d="M60.05,42.5c0-.41,0-.86.07-1.37a5.6,5.6,0,0,1-2.29.37,10,10,0,0,1-2.08-.32l-.5-.15v1.33a11.29,11.29,0,0,0,2.52.41,7.53,7.53,0,0,0,2.27-.27Z"/><path class="cls-12" d="M55.51,45.4a2.52,2.52,0,0,1-.45-1.46L55,26.74s0-.07,0-.13a2.08,2.08,0,0,1,.37-1.17,2.3,2.3,0,0,1,2-.83,9,9,0,0,1,2.73.28,1.56,1.56,0,0,1,1.08,1.6v.15c-.08,1.64-1,17.6-1,17.6h0a2.06,2.06,0,0,1-.31,1,2.29,2.29,0,0,1-2.06,1h-.14a2.54,2.54,0,0,1-2.14-.89Zm0-1.47c0,.66.22,1.92,2.19,1.94h.11c2-.06,1.94-1.58,2-1.64v0s.87-16,.95-17.59a.62.62,0,0,0,0-.13,1.12,1.12,0,0,0-.81-1.2A8.32,8.32,0,0,0,57.31,25c-1.87,0-1.91,1.19-1.94,1.57v.1l-.21,0h.21l.11,17.2Z"/><path class="cls-10" d="M57.28,11.08a5.47,5.47,0,0,0-3.84,1.44,5.65,5.65,0,0,0-1.58,4.15,6.15,6.15,0,0,0,1,3.29,6,6,0,0,0,5.13,2.5,5.7,5.7,0,0,0,5-3.94,6.93,6.93,0,0,0,.3-2A4.94,4.94,0,0,0,60.55,12a7.08,7.08,0,0,0-3.27-.91Z"/><path class="cls-12" d="M52.64,20.08a6.29,6.29,0,0,1-1-3.4,2.18,2.18,0,0,1,0-.25,5.87,5.87,0,0,1,1.65-4.06,5.62,5.62,0,0,1,3.9-1.5h.1a7.3,7.3,0,0,1,3.36.93,5.16,5.16,0,0,1,2.77,4.65v0a7.1,7.1,0,0,1-.31,2.09A6.41,6.41,0,0,1,62.47,20,6,6,0,0,1,58,22.67l-.44,0a6.26,6.26,0,0,1-4.88-2.61Zm1-7.41a5.38,5.38,0,0,0-1.52,3.76v.23A6,6,0,0,0,53,19.84a5.85,5.85,0,0,0,4.54,2.42h.4a5.52,5.52,0,0,0,4.19-2.52,5.76,5.76,0,0,0,.6-1.28,6.41,6.41,0,0,0,.28-2v0a4.68,4.68,0,0,0-2.54-4.27,6.85,6.85,0,0,0-3.17-.89v0h-.1a5.2,5.2,0,0,0-3.59,1.38Z"/><path class="cls-13" d="M56,42.54c0,.35,0,.66,0,.9a6,6,0,0,0,1.52.3,7.14,7.14,0,0,0,0-1A11.42,11.42,0,0,1,56,42.54Z"/><path class="cls-13" d="M57.78,25.4c-.53,0-1.87.1-2,1.12,0,.39.12,12.47.16,14.71a9.81,9.81,0,0,0,1.62.26l.45-14.39s.05-1,1.43-1.06c1.07-.08-.45-.63-1.37-.63h-.33Z"/><path class="cls-13" d="M56.24,44.82a.6.6,0,0,0,.5.37.43.43,0,0,0,.19,0,.48.48,0,0,0,.23-.17,6.59,6.59,0,0,1-.92-.16Z"/><path class="cls-14" d="M56,43.44c0,.45,0,.71,0,.71a2.12,2.12,0,0,0,.2.67,6.59,6.59,0,0,0,.92.16,2.56,2.56,0,0,0,.38-1.24,6,6,0,0,1-1.52-.3Z"/><path class="cls-14" d="M56,41.23c0,.49,0,.93,0,1.31a11.42,11.42,0,0,0,1.57.22v-.15l0-1.12A9.81,9.81,0,0,1,56,41.23Z"/><path class="cls-15" d="M61.69,16.09a4.16,4.16,0,1,1-4.16-4.16A4.16,4.16,0,0,1,61.69,16.09Z"/><path class="cls-16" d="M60.55,15.42a2.89,2.89,0,1,1-2.88-2.89A2.88,2.88,0,0,1,60.55,15.42Z"/></svg>