<svg xmlns="http://www.w3.org/2000/svg" viewBox="0 0 85.04 56.69"><defs><style>.cls-1{isolation:isolate;}.cls-10,.cls-2,.cls-3{opacity:0.4;}.cls-4,.cls-6{fill:#ffd600;}.cls-5{fill:#f37421;}.cls-6{mix-blend-mode:multiply;opacity:0.69;}.cls-7{fill:none;}.cls-8{fill:#efa706;}.cls-10,.cls-13,.cls-14,.cls-9{fill:#fff9b7;}.cls-9{opacity:0.53;}.cls-11{fill:#ffcb05;}.cls-12{fill:#fff200;}.cls-13{opacity:0.88;}.cls-14{opacity:0.75;}.cls-15{fill:#ffb510;}</style></defs><g class="cls-1"><g id="Layer_1" data-name="Layer 1"><path class="cls-2" d="M25.56,48.19s-2.41.22-2.49.93c-.21,1.85,9.83,1,11.25.82,8.21-.83,4.49-2.37-2-2S25.56,48.19,25.56,48.19Z"/><g class="cls-3"><path d="M33.76,47.45c-9.68.39-10,.27-10,.27S20.11,48,20,49.2c-.4,3.15,14.58,1.94,16.69,1.74C48.89,49.78,43.43,47.06,33.76,47.45Z"/></g><path class="cls-4" d="M40.22,14.39l-2.37-.52-3.12.73,1.34,13.79,1.84-.18C37.32,22.48,36.55,15,36.55,15s.37,0,2.83-.39A4.19,4.19,0,0,0,40.22,14.39Z"/><path class="cls-4" d="M34.73,14.6l3.12-.73,2.37.52c1.52-.55,1.24-2,1-5.51a3.23,3.23,0,0,0-4.05-3.23L24.44,6.83c-3.24.32-2.64,3.77-2.32,6.11.13,1,0,2,.91,2.6a3.63,3.63,0,0,0,2.46.45l4.73-.41s.64,6.92,1.24,13.26l4.61-.45Z"/><path class="cls-5" d="M36.44,32.2l-4.62.44c0,.09,0,.19,0,.27,0,.51.08,1,.1,1.46l4.65-.46Z"/><path class="cls-5" d="M36.6,33.91l1.88-.18c0-.43-.11-1-.18-1.72l-1.86.19Z"/><path class="cls-5" d="M36.23,30.1l1.86-.18c-.06-.54-.12-1.12-.18-1.71l-1.84.18Z"/><path class="cls-5" d="M36.07,28.39l-4.61.45c.05.58.11,1.15.16,1.71l4.61-.45Z"/><path class="cls-4" d="M36.44,32.2,38.3,32c-.07-.62-.14-1.32-.21-2.09l-1.86.18Z"/><path class="cls-4" d="M36.23,30.1l-4.61.45c.07.72.14,1.42.2,2.09l4.62-.44Z"/><path class="cls-4" d="M36.68,34.66s2.21,12.24-5,14a11.94,11.94,0,0,1-6.34-.23,9.56,9.56,0,0,0,1.57.59A9.88,9.88,0,0,0,36,47c3-3,2.94-8.54,2.54-12.41,0,0,0-.31-.08-.86l-1.88.18Z"/><path class="cls-6" d="M40.22,14.39l-2.37-.52-3.12.73,1.34,13.79,1.84-.18C37.32,22.48,36.55,15,36.55,15s.37,0,2.83-.39A4.19,4.19,0,0,0,40.22,14.39Z"/><path class="cls-6" d="M36.44,32.2,38.3,32c-.07-.62-.14-1.32-.21-2.09l-1.86.18Z"/><path class="cls-6" d="M36.68,34.66s2.21,12.24-5,14a11.94,11.94,0,0,1-6.34-.23,9.56,9.56,0,0,0,1.57.59A9.88,9.88,0,0,0,36,47c3-3,2.94-8.54,2.54-12.41,0,0,0-.31-.08-.86l-1.88.18Z"/><path class="cls-4" d="M23.81,37.11c0,2.11.93,6.78,4.65,6S32.2,37.64,32,34.8c0,0,0-.08,0-.11.16,5.56-1.87,7.3-4,7.26-2.33,0-2.46-3.06-2.69-5.42-.14-1.42-1.35-1.78-2.55-1.77v0S23.82,35,23.81,37.11Z"/><path class="cls-6" d="M23.81,37.11c0,2.11.93,6.78,4.65,6S32.2,37.64,32,34.8c0,0,0-.08,0-.11.16,5.56-1.87,7.3-4,7.26-2.33,0-2.46-3.06-2.69-5.42-.14-1.42-1.35-1.78-2.55-1.77v0S23.82,35,23.81,37.11Z"/><path class="cls-4" d="M31.65,48.64c7.24-1.74,5-14,5-14l-.08-.75L32,34.37c0,.1,0,.21,0,.32s0,.07,0,.11c.22,2.84.2,7.61-3.52,8.35s-4.66-3.93-4.65-6-1.09-2.33-1.09-2.33v0a7.47,7.47,0,0,0-1.2.1c-1.89.3-2.61,1.68-2.53,3.55a14.47,14.47,0,0,0,1.26,4.91,10.44,10.44,0,0,0,5.06,5.09A11.94,11.94,0,0,0,31.65,48.64Z"/><path class="cls-7" d="M38.71,32l-.3-2.08-.32,0c.07.77.14,1.47.21,2.09Z"/><path class="cls-8" d="M26.82,49.21a10.7,10.7,0,0,1-6.77-5.8h0a15.56,15.56,0,0,1-1.24-4.5h0c0-.17,0-.33,0-.49h0c-.1-1.92.71-3.47,2.71-3.77h0l.56-.08h0a4.92,4.92,0,0,1,2.16.21h0a1.93,1.93,0,0,1,1.28,1.73h0l.09.89h0a10.49,10.49,0,0,0,.6,3h0A1.91,1.91,0,0,0,28,41.74h0a2.55,2.55,0,0,0,.39,0h0a3.16,3.16,0,0,0,2.61-2h0c.65-1.35,1-3.52.66-6.78h0C31,26.55,30.16,17.33,30,15.81h0l-4.51.39h0a3.79,3.79,0,0,1-2.61-.49h0A2.65,2.65,0,0,1,22,13.63h0l0-.3h0a3.6,3.6,0,0,0,0-.36h0c-.06-.49-.14-1-.19-1.57h0a6.9,6.9,0,0,1,.23-3.06h0a2.7,2.7,0,0,1,2.48-1.72h0l0,.21,0-.21L37.13,5.43l.37,0h0a3.94,3.94,0,0,1,2.19.37h0a3.41,3.41,0,0,1,1.72,2.94h0c0,.06,0,.12,0,.18h0a18.6,18.6,0,0,1,.11,4.31h0c-.18,1-.87,1.46-2.12,1.62h0l-2.63.36h0c.22,2.11,2,19.4,2,19.41h0c0,.08,0,.16,0,.25h0c.37,3.87.43,9.34-2.63,12.34h0a9.26,9.26,0,0,1-5.53,2.36h0a10.54,10.54,0,0,1-3.82-.31ZM22.09,35l-.54.07h0c-1.77.3-2.4,1.51-2.34,3.33h0a3.83,3.83,0,0,0,0,.47h0a14.71,14.71,0,0,0,1.21,4.36h0a10.23,10.23,0,0,0,6.48,5.56h0a9.74,9.74,0,0,0,3.67.3h0a8.83,8.83,0,0,0,5.27-2.24h0c2.88-2.78,2.88-8.15,2.5-12h0a2,2,0,0,0,0-.25h0s-2-19.6-2-19.62h0l0-.22.22,0s.36,0,2.82-.38h0c1.2-.19,1.58-.5,1.76-1.28h0A19,19,0,0,0,41,8.9h0c0-.06,0-.11,0-.16h0a2.91,2.91,0,0,0-3.44-2.93h0a2.47,2.47,0,0,0-.33.05h0L24.46,7.05A2.27,2.27,0,0,0,22.34,8.5h0a6.31,6.31,0,0,0-.2,2.85h0c.05.54.12,1.07.19,1.56h0c0,.13,0,.25,0,.37h0l0,.3h0a2.23,2.23,0,0,0,.76,1.79h0a3.46,3.46,0,0,0,2.31.4h0l4.73-.4h0l.21,0,0,.21s.95,10.36,1.63,17.33h0c.32,3.3,0,5.54-.7,7h0a3.6,3.6,0,0,1-3,2.25h0a3.17,3.17,0,0,1-.44,0h0a2.34,2.34,0,0,1-2.19-1.6h0a10.61,10.61,0,0,1-.63-3.13h0c0-.3-.06-.6-.08-.89h0a1.52,1.52,0,0,0-1-1.37h0A4.43,4.43,0,0,0,22.1,35h0Z"/><path class="cls-9" d="M21.76,38.31c.09.9-.22,1.67-.7,1.72s-.93-.65-1-1.56.22-1.67.69-1.72S21.67,37.4,21.76,38.31Z"/><path class="cls-10" d="M31.06,17s-.17-1.23.92-1.17.89,2.51.89,2.51l1,11.11s1,8.34-.82,9.44c-1.39.83.58.38-.35-7Z"/><path class="cls-2" d="M50.06,48.43s-2.15.2-2.22.83c-.19,1.66,8.78.86,10,.73,7.33-.74,4-2.11-1.8-1.8S50.06,48.43,50.06,48.43Z"/><g class="cls-3"><path d="M57.38,47.77c-8.64.35-9,.24-9,.24s-3.22.26-3.36,1.33c-.36,2.81,13,1.73,14.91,1.55C70.91,49.85,66,47.42,57.38,47.77Z"/></g><path class="cls-11" d="M51.8,41.65c0,1.56.3,3.15,2,3.29s2.38-1.79,2.71-4.89c-.07.32-.15.65-.24,1a5.88,5.88,0,0,1-1.35,2.68,1.56,1.56,0,0,1-1.41.32c-1.6-.5-.58-2.93-1.59-3.89a1.91,1.91,0,0,0-.85-.43v0S51.79,40.09,51.8,41.65Z"/><path class="cls-12" d="M54.8,47.32c5.54-1.48,6.36-15.24,6.15-18.27s-2-3-2-3v0c-.85.07-2.07.59-1.91,3A48.34,48.34,0,0,1,57,36.26a28.54,28.54,0,0,1-.52,3.79c-.33,3.1-1.11,5-2.71,4.89s-2-1.73-2-3.29-.75-1.93-.75-1.93v0a3.91,3.91,0,0,0-.83-.09c-1.76,0-2.38,1.49-2.39,3,0,.23,0,.47,0,.7C48.41,45.83,50.51,48.48,54.8,47.32Z"/><path class="cls-11" d="M59.76,26.11a2.79,2.79,0,0,0-.79,0v0s1.78-.07,2,3-.61,16.79-6.15,18.27c-4.29,1.16-6.39-1.49-6.94-4a6.24,6.24,0,0,0,1.79,4.12,5.27,5.27,0,0,0,5.6,1,8.91,8.91,0,0,0,4.21-4.31,18.83,18.83,0,0,0,1.3-3.2,26.18,26.18,0,0,0,.71-3.25C62.47,31.12,62.72,26.64,59.76,26.11Z"/><path class="cls-13" d="M58.71,26.84s-1-.38-1.11,1.14-.15,9.64-.57,11.85a1.51,1.51,0,0,0-.05.84c.42-.34.55-1.21.67-1.69.52-1.92.86-3.88,1.19-5.84a16.14,16.14,0,0,0,.44-5.44C59.24,27.46,59,26.87,58.71,26.84Z"/><path class="cls-14" d="M49.81,40c-1.16.18-1.57,1.8-1.5,2.77a4.35,4.35,0,0,0,2.35,3.87c.4.16.78.31.37-.2-1.19-1.47-.86-3.47-.61-5.2C50.5,40.74,50.58,39.89,49.81,40Z"/><path class="cls-15" d="M49.54,47.51a6.69,6.69,0,0,1-1.87-4.94h0a4.93,4.93,0,0,1,0-.55h0c.14-1.33.87-2.61,2.52-2.58h0l.46,0h0A2.31,2.31,0,0,1,52,40h0a3.36,3.36,0,0,1,.62,2.21h0c.08.8.21,1.42.9,1.64h0l.19,0h0a1.49,1.49,0,0,0,1.07-.33h0A5.83,5.83,0,0,0,56.1,41h0a20.83,20.83,0,0,0,.62-3.35h0c.05-.45.09-.91.13-1.37h0a48.07,48.07,0,0,0,0-7.2h0a6,6,0,0,1,0-1h0a2.32,2.32,0,0,1,1.18-1.95h0a2.71,2.71,0,0,1,1.47-.22h0l.23,0h0a2.93,2.93,0,0,1,2.31,2.58h0a18.78,18.78,0,0,1,0,5.64h0q-.18,1.63-.48,3.51h0a26.06,26.06,0,0,1-.7,3.27h0a19.33,19.33,0,0,1-1.31,3.23h0a9.08,9.08,0,0,1-4.29,4.38h0a5.24,5.24,0,0,1-2.66.38h0a5.27,5.27,0,0,1-3.12-1.43Zm.67-7.75c-1.44,0-2,1-2.19,2.29h0a4.53,4.53,0,0,0,0,.52h0a6.37,6.37,0,0,0,1.77,4.71h0a5.07,5.07,0,0,0,2.94,1.35h0a5,5,0,0,0,2.49-.36h0A8.79,8.79,0,0,0,59.32,44h0a19.08,19.08,0,0,0,1.29-3.18h0a26.89,26.89,0,0,0,.7-3.23h0c.19-1.24.35-2.41.47-3.5h0a18,18,0,0,0,0-5.53h0c-.31-1.35-.92-2.13-2.05-2.33h0l0-.16,0,.16-.2,0h0a1.92,1.92,0,0,0-2.29,1.89h0a5.29,5.29,0,0,0,0,.9h0a48.73,48.73,0,0,1,0,7.25h0c0,.47-.08.93-.14,1.39h0a19.73,19.73,0,0,1-.62,3.4h0A6.09,6.09,0,0,1,55,43.81h0a1.8,1.8,0,0,1-1.31.41h0l-.25,0h0c-.9-.29-1.06-1.13-1.13-1.92h0c-.06-.8-.08-1.61-.52-2h0a2,2,0,0,0-1.15-.46h0l-.43,0Z"/></g></g></svg>