<svg id="Layer_1" data-name="Layer 1" xmlns="http://www.w3.org/2000/svg" viewBox="0 0 85.04 56.69"><defs><style>.cls-1{opacity:0.4;}.cls-2{fill:#4acee2;}.cls-3{fill:none;stroke:#17c0da;}.cls-3,.cls-8{stroke-width:0.56px;}.cls-4{opacity:0.65;}.cls-5{fill:#a4dded;}.cls-11,.cls-6{fill:#bfe6ec;}.cls-6{opacity:0.51;}.cls-7{opacity:0.29;}.cls-8{fill:#00b5ef;stroke:#0077be;}.cls-9{fill:#29c1f2;}.cls-10{opacity:0.53;}</style></defs><path class="cls-1" d="M13.52,44.78c-.48,0-4.08.11-4.66,2.14-.77,2.71,4.38,3.1,5.75,3.22a21.61,21.61,0,0,0,7.69-.35c2.65-.74,6.61-3.74,8.94-1.14,2.13,2.37,5.25,2.3,8.07,1.7,1.2-.26,7.23-1.44,4.8-3.63C40.62,43.56,13.52,44.78,13.52,44.78Z"/><path class="cls-1" d="M16.34,46.23s-4.37-.2-4.66.58,1.84,1.94,7.67,1.94S24.59,46,16.34,46.23Z"/><path class="cls-1" d="M36.73,46.52s-4.46-.29-5,.58S32.56,48.56,35,49a16.31,16.31,0,0,0,4.13-.09c.75-.08,2.86-.59,2.14-1.58S37.76,46.59,36.73,46.52Z"/><path class="cls-2" d="M38.93,42.53l-12.52-15,10-12.2A3.49,3.49,0,1,0,31,10.9L22.39,21.41l.45-11.66a3.49,3.49,0,1,0-7-.27L14.5,44.7a3.49,3.49,0,0,0,3.36,3.63H18A3.49,3.49,0,0,0,21.48,45l.46-11.88L33.56,47a3.5,3.5,0,1,0,5.37-4.48Z"/><path class="cls-3" d="M38.93,42.53l-12.52-15,10-12.2A3.49,3.49,0,1,0,31,10.9L22.39,21.41l.45-11.66a3.49,3.49,0,1,0-7-.27L14.5,44.7a3.49,3.49,0,0,0,3.36,3.63H18A3.49,3.49,0,0,0,21.48,45l.46-11.88L33.56,47a3.5,3.5,0,1,0,5.37-4.48Z"/><g class="cls-4"><path class="cls-5" d="M37.89,43.4,24.65,27.54,35.37,14.47a2.12,2.12,0,0,0,.49-1.35A2.13,2.13,0,0,0,33.72,11a2.12,2.12,0,0,0-1.65.78L20.88,25.4l.6-15.7s0-.06,0-.08a2.15,2.15,0,0,0-2.06-2.14h-.08a2.14,2.14,0,0,0-2.14,2L15.86,44.75a.28.28,0,0,0,0,.09A2.14,2.14,0,0,0,17.91,47H18a2.14,2.14,0,0,0,2.14-2l.59-15.42L34.61,46.14a2.12,2.12,0,0,0,1.64.77h0a2.16,2.16,0,0,0,1.37-.5,2.15,2.15,0,0,0,.27-3Z"/></g><path class="cls-6" d="M18.17,25.73l0,.05s.06.11.11.19a3.46,3.46,0,0,0,.47.61,2.58,2.58,0,0,0,.68.53l.68-17.46a.78.78,0,0,0-1.56-.06L18,25.44A.78.78,0,0,1,18.17,25.73Z"/><path class="cls-6" d="M17.21,44.81a.77.77,0,0,0,.75.8h0a.78.78,0,0,0,.78-.74l.62-16.1a4.09,4.09,0,0,1-1.52-.9Z"/><path class="cls-6" d="M36.84,44.27,23.45,28.22a7.09,7.09,0,0,1-1.53.6L35.65,45.27a.79.79,0,0,0,.6.28.81.81,0,0,0,.5-.18A.79.79,0,0,0,36.84,44.27Z"/><path class="cls-6" d="M23.93,26.27,34.32,13.61a.78.78,0,1,0-1.2-1L21.27,27.06a.89.89,0,0,0-.16.34,5.85,5.85,0,0,0,2.38-1A.78.78,0,0,1,23.93,26.27Z"/><path class="cls-1" d="M54.27,43.87s-4.54.14-5.09,1.52S54,48,60.73,46.76,69.66,42.22,54.27,43.87Z"/><path class="cls-7" d="M55.82,44.06s-2.86.09-3.21.95,3,1.65,7.28.87S65.53,43,55.82,44.06Z"/><path class="cls-8" d="M72.35,35.53l-9.87-7.66L68.08,21a2.84,2.84,0,0,0-4.34-3.66h0l-5.29,6.47C57,14.31,55.54,8.23,55.53,8.18A2.84,2.84,0,0,0,52.77,6a3,3,0,0,0-.65.08,2.84,2.84,0,0,0-2.19,2.76,3,3,0,0,0,.08.65s.05.21.14.6A266.51,266.51,0,0,1,55,41.87a2.84,2.84,0,0,0,2.82,2.58h.26a2.84,2.84,0,0,0,2.58-2.83c0-.08,0-.17,0-.25-.27-3-.58-5.78-.91-8.46L68.87,40a2.84,2.84,0,1,0,3.48-4.48Z"/><path class="cls-9" d="M71.48,36.65l-11-8.56,6.52-8a1.41,1.41,0,0,0-2.19-1.79h0l-7.27,8.88C55.9,15.94,54.16,8.53,54.15,8.5a1.42,1.42,0,0,0-2.76.65s.2.86.54,2.45a274.35,274.35,0,0,1,4.45,30.14A1.41,1.41,0,0,0,57.79,43h.13a1.43,1.43,0,0,0,1.28-1.54c-.38-4.22-.84-8.19-1.33-11.82l11.87,9.22a1.41,1.41,0,0,0,2-.25A1.42,1.42,0,0,0,71.48,36.65Z"/><g class="cls-10"><path class="cls-11" d="M57.26,41.66a272.18,272.18,0,0,0-4.47-30.24h0C52.46,9.82,52.25,9,52.25,9h0a.53.53,0,0,1,.4-.64h0a.53.53,0,0,1,.64.4h0a263.2,263.2,0,0,1,5,32.85h0a.52.52,0,0,1-.48.58h-.05a.53.53,0,0,1-.53-.48Z"/><path class="cls-11" d="M70.28,38.19,58.11,28.74a.57.57,0,0,1-.2-.36h0A.55.55,0,0,1,58,28h0l7.44-9.1a.54.54,0,0,1,.75-.08h0a.54.54,0,0,1,.08.75h0l-7.1,8.68,11.74,9.11a.54.54,0,0,1,.09.75h0a.55.55,0,0,1-.42.2h0a.52.52,0,0,1-.33-.11Z"/></g><path class="cls-1" d="M76.26,43.68c0,.55-2,1-4.43,1s-4.43-.45-4.43-1,2-1,4.43-1S76.26,43.13,76.26,43.68Z"/><path class="cls-7" d="M74.39,43.53c0,.33-1.18.6-2.63.6s-2.64-.27-2.64-.6,1.18-.59,2.64-.59S74.39,43.2,74.39,43.53Z"/></svg>