<svg id="Layer_1" data-name="Layer 1" xmlns="http://www.w3.org/2000/svg" viewBox="0 0 85.04 56.69"><defs><style>.cls-1{opacity:0.4;}.cls-2,.cls-7{fill:#ee3880;}.cls-3{fill:#f05f98;}.cls-4{fill:#d3dd25;}.cls-5{fill:#f7acbf;opacity:0.51;}.cls-6{fill:#f3f097;}.cls-7{opacity:0.57;}.cls-8{fill:#c1d72e;}.cls-9{fill:#eb0988;}.cls-10{fill:#c1d836;}.cls-11{fill:#ef528a;opacity:0.83;}.cls-12{fill:#eae861;}.cls-13{fill:#f06fa5;opacity:0.81;}.cls-14{fill:#f3f3b8;}.cls-15{fill:#b41e5e;}</style></defs><path class="cls-1" d="M71.14,50c0,.87-4.19,1.57-9.37,1.57s-9.36-.7-9.36-1.57,4.19-1.57,9.36-1.57S71.14,49.18,71.14,50Z"/><path class="cls-1" d="M68.16,50c0,.63-2.65,1.13-5.93,1.13S56.3,50.61,56.3,50s2.66-1.13,5.93-1.13S68.16,49.35,68.16,50Z"/><path class="cls-2" d="M59.14,49.91a3.42,3.42,0,0,1-.67-2.32h0c0-2-.44-11.71-.89-21h0c-.44-9.1-.88-17.69-.9-18h0a7.06,7.06,0,0,1-.06-1h0A4.71,4.71,0,0,1,56.89,6h0a1.37,1.37,0,0,1,1.3-1h0a2.55,2.55,0,0,1,2,1.06h0a5.71,5.71,0,0,0,1.55,1.51h0a1.53,1.53,0,0,1,1,1.54h0c0,.48-.08,1.1-.08,2h0c0,.17,0,.36,0,.55h0c.09,2.73,1.23,25.47,2,31.2h0a38,38,0,0,1,.4,4.21h0c0,1.62-.57,1.92-1.53,2.49h0a5.8,5.8,0,0,1-2.82.93h0a2.06,2.06,0,0,1-1.6-.66Zm-.29-2.32c0,2.09.86,2.58,1.9,2.61h0a5.52,5.52,0,0,0,2.62-.88h0c1-.66,1.32-.63,1.35-2.17h0a35.66,35.66,0,0,0-.4-4.16h0c-.75-5.77-1.88-28.49-2-31.23h0c0-.2,0-.39,0-.57h0c0-.95.08-1.59.08-2h0c0-.61-.08-.79-.82-1.21h0a6,6,0,0,1-1.66-1.59h0a2.11,2.11,0,0,0-1.74-.93h0a1,1,0,0,0-.95.74h0A4.16,4.16,0,0,0,57,7.7h0a6.64,6.64,0,0,0,.06.91h0l-.19,0h.19s1.79,35,1.79,39Z"/><path class="cls-3" d="M64.44,42.36c-.76-6.59-1.82-28-1.91-30.61s.56-3.21-.85-4S60,5.24,58.19,5.24s-1.32,3.4-1.32,3.4S58,31.57,58.49,42.41A11.58,11.58,0,0,0,64.44,42.36Z"/><path class="cls-3" d="M64.8,45.37c0-.41-.09-.85-.16-1.36a16.3,16.3,0,0,1-6.08.06c0,.48,0,.92,0,1.32A16,16,0,0,0,64.8,45.37Z"/><path class="cls-3" d="M58.65,47c0,.24,0,.45,0,.6,0,4,3.3,2.83,4.81,1.89,1-.64,1.48-.76,1.44-2.53A20.76,20.76,0,0,1,58.65,47Z"/><path class="cls-4" d="M64.91,47c0-.42,0-.94-.11-1.58a16,16,0,0,1-6.19,0c0,.65,0,1.18,0,1.6A20.76,20.76,0,0,0,64.91,47Z"/><path class="cls-4" d="M64.64,44c0-.32-.08-.67-.13-1,0-.19-.05-.39-.07-.61a11.58,11.58,0,0,1-5.95,0c0,.59,0,1.15.07,1.66A16.3,16.3,0,0,0,64.64,44Z"/><path class="cls-4" d="M58.61,45.39c0,.65,0,1.18,0,1.6l.21,0c0-.49,0-1-.07-1.59Z"/><path class="cls-4" d="M58.49,42.41c0,.59,0,1.15.07,1.66l.18,0c0-.7-.05-1.3-.06-1.65Z"/><path class="cls-5" d="M59.32,8.35s-.06-1.32.88-.44,1.16.54.57-.06A10.79,10.79,0,0,1,59.2,6a1.31,1.31,0,0,0-2,.14,7.23,7.23,0,0,0-.13,2.14L58,25.85l.66,16.27s0,.12,0,.33a10.85,10.85,0,0,0,2,.3C60.26,31.42,59.32,8.35,59.32,8.35Z"/><path class="cls-5" d="M60.79,44.32a12.85,12.85,0,0,1-2-.22c0,.42,0,.87,0,1.32a15.39,15.39,0,0,0,2.05.24C60.82,45.24,60.81,44.8,60.79,44.32Z"/><path class="cls-5" d="M61,48.86c0-.12,0-.71-.07-1.66a15.79,15.79,0,0,1-2-.19c0,.92.07,1.62.09,1.71a1.69,1.69,0,0,0,1.8,1.48,3.24,3.24,0,0,0,1.87-.68S61,50,61,48.86Z"/><path class="cls-4" d="M60.84,45.66a15.39,15.39,0,0,1-2.05-.24c0,.55.05,1.1.07,1.59a15.79,15.79,0,0,0,2,.19C60.89,46.76,60.86,46.24,60.84,45.66Z"/><path class="cls-6" d="M60.84,45.66a15.39,15.39,0,0,1-2.05-.24c0,.55.05,1.1.07,1.59a15.79,15.79,0,0,0,2,.19C60.89,46.76,60.86,46.24,60.84,45.66Z"/><path class="cls-4" d="M60.72,42.75a10.85,10.85,0,0,1-2-.3c0,.35,0,.95.06,1.65a12.85,12.85,0,0,0,2,.22C60.77,43.83,60.75,43.31,60.72,42.75Z"/><path class="cls-6" d="M60.72,42.75a10.85,10.85,0,0,1-2-.3c0,.35,0,.95.06,1.65a12.85,12.85,0,0,0,2,.22C60.77,43.83,60.75,43.31,60.72,42.75Z"/><path class="cls-4" d="M60.84,45.66c0,.58,0,1.1.06,1.54.7,0,1.38,0,2.05,0,0-.41-.08-.93-.13-1.53A16.53,16.53,0,0,1,60.84,45.66Z"/><path class="cls-4" d="M64.54,47l.37,0c0-.42,0-.94-.11-1.58l-.43.07c0,.25,0,.39,0,.39A7.51,7.51,0,0,1,64.54,47Z"/><path class="cls-4" d="M60.72,42.75c0,.56.05,1.08.07,1.57a17.45,17.45,0,0,0,1.92,0c0-.5-.08-1-.12-1.57A11.93,11.93,0,0,1,60.72,42.75Z"/><path class="cls-4" d="M64.64,44c0-.32-.08-.67-.13-1,0-.19-.05-.39-.07-.61l-.4.09c.06.59.12,1.15.18,1.63Z"/><path class="cls-7" d="M63.47,36.84c-.25-3-1.19-19.93-1.19-19.93L62,9.8c-.88-1.13-1-.63-1,.13s.5,16.53.69,19.8c.12,2.05.58,8.31.94,13A11.61,11.61,0,0,0,64,42.45C63.83,40.59,63.6,38.34,63.47,36.84Z"/><path class="cls-7" d="M63,47.16c0,.48.07.81.08.93.13,1,.32.82,1.07.32A1.69,1.69,0,0,0,64.54,47C64,47.07,63.5,47.12,63,47.16Z"/><path class="cls-7" d="M64.22,44.08c-.49.08-1,.14-1.51.19,0,.49.08.94.11,1.36a14.55,14.55,0,0,0,1.55-.19C64.34,45.13,64.28,44.66,64.22,44.08Z"/><path class="cls-4" d="M64.42,45.83s0-.14,0-.39a14.55,14.55,0,0,1-1.55.19c0,.6.09,1.12.13,1.53.55,0,1.08-.09,1.59-.16A7.51,7.51,0,0,0,64.42,45.83Z"/><path class="cls-8" d="M64.42,45.83s0-.14,0-.39a14.55,14.55,0,0,1-1.55.19c0,.6.09,1.12.13,1.53.55,0,1.08-.09,1.59-.16A7.51,7.51,0,0,0,64.42,45.83Z"/><path class="cls-4" d="M64,42.45a11.61,11.61,0,0,1-1.45.25c0,.55.08,1.07.12,1.57.52-.05,1-.11,1.51-.19C64.16,43.6,64.1,43,64,42.45Z"/><path class="cls-8" d="M64,42.45a11.61,11.61,0,0,1-1.45.25c0,.55.08,1.07.12,1.57.52-.05,1-.11,1.51-.19C64.16,43.6,64.1,43,64,42.45Z"/><path class="cls-1" d="M47.53,49.86c0,1-7.53,1.78-16.81,1.78s-16.82-.8-16.82-1.78,7.53-1.78,16.82-1.78S47.53,48.87,47.53,49.86Z"/><path class="cls-1" d="M42.62,49.5c0,.63-4.82,1.14-10.77,1.14s-10.76-.51-10.76-1.14,4.82-1.14,10.76-1.14S42.62,48.87,42.62,49.5Z"/><path class="cls-9" d="M41.26,42c-1.92-.1-14.11-1.6-14.11-1.6s-2.78.11-2.46-2.35c.21-1.62,1.67-13.23,2.65-21A11.61,11.61,0,0,0,21,16.87c-.79,9.2-1.85,21.75-2.11,25.08,0,0-1,4.42,2.42,4.84s12.68,1,19.1,1.43c0,0,1.92.18,2.13-.89s.43-4.28.43-4.28S43.19,42.09,41.26,42Z"/><path class="cls-10" d="M27.78,13.53c.11-.85.2-1.58.27-2.15A29.63,29.63,0,0,0,21.5,11c-.06.67-.12,1.4-.19,2.18A26.58,26.58,0,0,1,27.78,13.53Z"/><path class="cls-9" d="M27.59,15c.07-.52.13-1,.19-1.47a26.58,26.58,0,0,0-6.47-.36c0,.47-.08,1-.12,1.45A16.45,16.45,0,0,1,27.59,15Z"/><path class="cls-9" d="M28.05,11.38c.11-.86.17-1.36.17-1.36s1-3.31-1-3.63-5.2-.75-5.38.21c0,0-.15,1.71-.38,4.39A29.63,29.63,0,0,1,28.05,11.38Z"/><path class="cls-10" d="M27.34,17c.09-.71.17-1.4.25-2a16.45,16.45,0,0,0-6.4-.38c-.06.72-.12,1.47-.19,2.25A11.61,11.61,0,0,1,27.34,17Z"/><path class="cls-10" d="M21.5,11c-.06.67-.12,1.4-.19,2.18l.89,0c.06-.81.12-1.53.17-2.17C22.07,11,21.78,11,21.5,11Z"/><path class="cls-10" d="M27.78,13.53c.11-.85.2-1.58.27-2.15q-.9-.15-1.74-.24c-.08.63-.17,1.35-.26,2.14C26.65,13.35,27.23,13.43,27.78,13.53Z"/><path class="cls-10" d="M21.19,14.62c-.06.72-.12,1.47-.19,2.25.31-.08.62-.14.92-.2.06-.74.12-1.46.17-2.14Z"/><path class="cls-10" d="M27.34,17c.09-.71.17-1.4.25-2a16.07,16.07,0,0,0-1.7-.35q-.12,1-.24,2A12.29,12.29,0,0,1,27.34,17Z"/><path class="cls-11" d="M24.18,14.49a14.91,14.91,0,0,1,1.71.16c.05-.47.11-.93.16-1.37-.56-.06-1.14-.11-1.74-.14C24.27,13.57,24.23,14,24.18,14.49Z"/><path class="cls-11" d="M23,13.11l-.82,0c0,.44-.07.91-.11,1.4.26,0,.53,0,.81,0Z"/><path class="cls-11" d="M23.21,11l.29-3.22c-.06-.53,1.17-.12,1.17-.12.33.07.13.47.13.47s-.11,1.1-.28,2.91c.57,0,1.17.08,1.79.15.18-1.53.31-2.52.34-2.69.22-1-.64-1.07-.64-1.07s-2-.14-2.78-.28-.64,1.07-.64,1.07-.08,1.05-.22,2.79Z"/><path class="cls-11" d="M40.12,43.52s-13.61-1.29-15.61-1.86-1.35-3.21-1.35-3.21,1.46-12.9,2.49-21.79A12.66,12.66,0,0,0,24,16.52C23.08,26,21.72,40.29,21.71,41c0,1.06-.66.72-.66.72-.85-.08-.21-4.12-.21-4.12l1.87-21-.79.11C21.14,26.49,20,41.5,19.81,43c-.21,2.28,2.35,2.21,2.35,2.21S37.56,46.87,39.34,47s1.78-.72,1.78-.72V44.51C41.12,43.59,40.12,43.52,40.12,43.52Z"/><path class="cls-10" d="M23.21,11h-.84c-.05.64-.11,1.36-.17,2.17l.82,0Z"/><path class="cls-12" d="M23.21,11h-.84c-.05.64-.11,1.36-.17,2.17l.82,0Z"/><path class="cls-10" d="M24.31,13.14c.6,0,1.18.08,1.74.14.09-.79.18-1.51.26-2.14-.62-.07-1.22-.12-1.79-.15C24.45,11.63,24.39,12.35,24.31,13.14Z"/><path class="cls-12" d="M24.31,13.14c.6,0,1.18.08,1.74.14.09-.79.18-1.51.26-2.14-.62-.07-1.22-.12-1.79-.15C24.45,11.63,24.39,12.35,24.31,13.14Z"/><path class="cls-10" d="M22.9,14.49c-.28,0-.55,0-.81,0-.05.68-.11,1.4-.17,2.14l.79-.11Z"/><path class="cls-12" d="M22.9,14.49c-.28,0-.55,0-.81,0-.05.68-.11,1.4-.17,2.14l.79-.11Z"/><path class="cls-10" d="M24,16.52a12.66,12.66,0,0,1,1.66.14q.12-1,.24-2a14.91,14.91,0,0,0-1.71-.16C24.12,15.13,24.05,15.81,24,16.52Z"/><path class="cls-12" d="M24,16.52a12.66,12.66,0,0,1,1.66.14q.12-1,.24-2a14.91,14.91,0,0,0-1.71-.16C24.12,15.13,24.05,15.81,24,16.52Z"/><path class="cls-11" d="M24.18,14.49c.05-.47.09-.92.13-1.35q-.63,0-1.29,0l-.12,1.38C23.31,14.47,23.73,14.47,24.18,14.49Z"/><path class="cls-13" d="M24.18,14.49c.05-.47.09-.92.13-1.35q-.63,0-1.29,0l-.12,1.38C23.31,14.47,23.73,14.47,24.18,14.49Z"/><path class="cls-11" d="M22.71,16.56l-1.87,21s-.64,4,.21,4.12c0,0,.65.34.66-.72,0-.71,1.37-15,2.28-24.48A11.08,11.08,0,0,0,22.71,16.56Z"/><path class="cls-13" d="M22.71,16.56l-1.87,21s-.64,4,.21,4.12c0,0,.65.34.66-.72,0-.71,1.37-15,2.28-24.48A11.08,11.08,0,0,0,22.71,16.56Z"/><path class="cls-11" d="M24.8,8.08s.2-.4-.13-.47c0,0-1.23-.41-1.17.12L23.21,11l1.31,0C24.69,9.18,24.8,8.08,24.8,8.08Z"/><path class="cls-13" d="M24.8,8.08s.2-.4-.13-.47c0,0-1.23-.41-1.17.12L23.21,11l1.31,0C24.69,9.18,24.8,8.08,24.8,8.08Z"/><path class="cls-10" d="M24.31,13.14c.08-.79.14-1.51.21-2.15l-1.31,0L23,13.11Q23.68,13.11,24.31,13.14Z"/><path class="cls-11" d="M24.31,13.14c.08-.79.14-1.51.21-2.15l-1.31,0L23,13.11Q23.68,13.11,24.31,13.14Z"/><path class="cls-14" d="M24.31,13.14c.08-.79.14-1.51.21-2.15l-1.31,0L23,13.11Q23.68,13.11,24.31,13.14Z"/><path class="cls-10" d="M22.9,14.49l-.19,2.07a11.08,11.08,0,0,1,1.28,0c.06-.71.13-1.39.19-2C23.73,14.47,23.31,14.47,22.9,14.49Z"/><path class="cls-11" d="M22.9,14.49l-.19,2.07a11.08,11.08,0,0,1,1.28,0c.06-.71.13-1.39.19-2C23.73,14.47,23.31,14.47,22.9,14.49Z"/><path class="cls-14" d="M22.9,14.49l-.19,2.07a11.08,11.08,0,0,1,1.28,0c.06-.71.13-1.39.19-2C23.73,14.47,23.31,14.47,22.9,14.49Z"/><path class="cls-15" d="M40.39,48.43C34,48,24.72,47.43,21.28,47h0c-2.31-.29-2.76-2.33-2.74-3.68h0a7.55,7.55,0,0,1,.13-1.41h0c.43-5.46,3-35.34,3-35.34h0l.22,0-.21,0a.89.89,0,0,1,.71-.63h0a4.82,4.82,0,0,1,1.28-.14h0a23.32,23.32,0,0,1,3.63.39h0c1.12.19,1.39,1.26,1.38,2.14h0a6.89,6.89,0,0,1-.24,1.74h0c-.08.67-3.21,25.57-3.53,28h0c0,.12,0,.24,0,.35h0a1.52,1.52,0,0,0,1,1.5h0a3.42,3.42,0,0,0,1.26.26h.08s12.19,1.49,14.09,1.6h0c1.63.06,1.94.85,1.92,1.2h0a.34.34,0,0,1,0,.11h0c0,.2-.21,3.22-.43,4.29h0c-.24,1-1.49,1.06-2,1.07h-.32ZM20.75,22.26c-.69,8.16-1.44,17-1.65,19.7h0v0h0A8,8,0,0,0,19,43.33h0c0,1.31.37,3,2.37,3.25h0C24.74,47,34,47.58,40.42,48h.29c.55,0,1.55-.15,1.62-.73h0c.21-1,.43-4.25.43-4.25h0v0h0a.06.06,0,0,0,0,0h0c0-.14,0-.66-1.52-.77h0c-2-.11-14.12-1.61-14.1-1.61h0a3.8,3.8,0,0,1-1.44-.29h0a2,2,0,0,1-1.21-1.89h0a2.93,2.93,0,0,1,0-.41h0c.16-1.23,1-8.23,1.88-14.92h0C27.21,16.38,28,10,28,10h0v0a7.5,7.5,0,0,0,.23-1.64h0c0-.85-.22-1.59-1-1.72h0a23,23,0,0,0-3.56-.38h0a4.53,4.53,0,0,0-1.16.12h0c-.28.09-.39.19-.41.29h0c0,.32-.66,7.64-1.34,15.63Z"/></svg>