<svg id="Layer_1" data-name="Layer 1" xmlns="http://www.w3.org/2000/svg" viewBox="0 0 85.04 56.69"><defs><style>.cls-1{opacity:0.4;}.cls-2{fill:none;}.cls-3{fill:#d92231;}.cls-4{fill:#c0202c;}.cls-5{fill:#0077be;}.cls-6{fill:#0455a5;}.cls-7{fill:#cb2128;}.cls-8{fill:#b52025;}.cls-9{fill:#ef4f4e;}.cls-10{fill:#ed8054;}.cls-11{fill:#ee3026;}.cls-12{fill:#dd1f26;}.cls-13{fill:#0e87c9;}.cls-14{fill:#49c7ed;}</style></defs><path class="cls-1" d="M41.63,48.12c0,1.41-7.37,2.47-16.42,2.37S8.83,49.17,8.84,47.76s7.37-2.47,16.42-2.37S41.64,46.71,41.63,48.12Z"/><path class="cls-1" d="M39.17,48.24c0,.81-6.35,1.38-14.15,1.27s-14.13-.86-14.12-1.67,6.35-1.39,14.16-1.27S39.18,47.43,39.17,48.24Z"/><path class="cls-2" d="M31.32,42.05l-.2.79a6.36,6.36,0,0,0,1.76,1.1v-.79A6,6,0,0,1,31.32,42.05Z"/><path class="cls-3" d="M34.37,43.64v.76a7.28,7.28,0,0,0,3.6-.26l0-.1c0-.23,0-.47.08-.73A7.77,7.77,0,0,1,34.37,43.64Z"/><path class="cls-3" d="M34.36,45.93c-.06.32-.32,2.31,1,1.81a4,4,0,0,0,1.94-2A7.72,7.72,0,0,1,34.36,45.93Z"/><path class="cls-3" d="M16.4,45.39c0-1.48-1.62-25.87-.44-27.73s.88-1.33,3.43,1.27,4.32,5.06,6.38,3.68,7.76-7.21,8.25-5.3c.36,1.4.38,15.92.36,23.7a7.29,7.29,0,0,0,3.86-.31c.39-9.23-.31-27.19-.31-29.44,0-2.75-.66-4.58-2.75-4.84A4.46,4.46,0,0,0,32.62,7c-3.16,2.41-6.21,7.15-7.48,8.87-2.21,3-2.95.49-3.88-1.28s-4-7.16-4-7.16l0-.18a2.87,2.87,0,0,0-2.37-.54,2.73,2.73,0,0,0-2.48,2.49c-1.7,7.59-.26,36.51.91,37.82a2.17,2.17,0,0,0,1.77.61l.28-.1A2.39,2.39,0,0,0,16.4,45.39Z"/><path class="cls-4" d="M34,17.31c-.49-1.91-6.18,3.93-8.25,5.3s-3.83-1.08-6.38-3.68S17.14,15.79,16,17.66s.39,26.25.44,27.73a2.39,2.39,0,0,1-1,2.11l-.28.1a5.82,5.82,0,0,0,1.9-.48,7.68,7.68,0,0,0,.52-2.35s-.78-21.34-.78-24.35.91-1.44.91-1.44,3.41,3.4,5,4.58,3.53-.26,3.53-.26,3.93-2.88,5.63-4.45,1,1.83,1,1.83.07,12,.06,20a12.59,12.59,0,0,0,1.5.34C34.4,33.23,34.38,18.71,34,17.31Z"/><path class="cls-4" d="M35.39,47.74c-1.35.5-1.09-1.49-1-1.81a5.33,5.33,0,0,1-1.49-.45c0,1.09,0,1.82,0,2-.12,1.41,3.62,2.81,4.89-1.88l-.38.1A4,4,0,0,1,35.39,47.74Z"/><path class="cls-4" d="M38,44.14h0s0-.07,0-.1Z"/><path class="cls-4" d="M32.88,43.15v.79a6.72,6.72,0,0,0,1.49.46v-.76A5.66,5.66,0,0,1,32.88,43.15Z"/><path class="cls-5" d="M34.37,44.4c0,.93,0,1.48,0,1.48v0a7.72,7.72,0,0,0,3-.2A10.94,10.94,0,0,0,38,44.14,7.28,7.28,0,0,1,34.37,44.4Z"/><path class="cls-5" d="M34.38,41c0,1,0,1.89,0,2.63a7.77,7.77,0,0,0,3.71-.33c.06-.76.12-1.63.16-2.61A7.29,7.29,0,0,1,34.38,41Z"/><path class="cls-6" d="M34.36,45.88s0-.55,0-1.48a6.72,6.72,0,0,1-1.49-.46c0,.57,0,1.08,0,1.54a5.33,5.33,0,0,0,1.49.45Z"/><path class="cls-5" d="M37.33,45.73l.38-.1.09-.34c.07-.31.13-.7.19-1.15h0A10.94,10.94,0,0,1,37.33,45.73Z"/><path class="cls-6" d="M34.37,43.64c0-.74,0-1.63,0-2.63a12.59,12.59,0,0,1-1.5-.34v2.48A5.66,5.66,0,0,0,34.37,43.64Z"/><path class="cls-7" d="M21.26,14.56c.93,1.77,1.67,4.27,3.88,1.28,1.27-1.72,4.32-6.46,7.48-8.87a7.15,7.15,0,0,0-1.5,1s-5.89,6.67-7.06,7.72-4.32-5.5-4.85-6.15a9.48,9.48,0,0,0-1.95-2.34l0,.18S20.33,12.8,21.26,14.56Z"/><path class="cls-8" d="M34.62,49.06a1.85,1.85,0,0,1-2-1.48h0a.22.22,0,0,1,0-.08h0c0-.45.06-3.61.06-7.58h0c0-8-.06-19.22-.06-19.24h0v0h0a7.88,7.88,0,0,0,.12-1.21h0a1.86,1.86,0,0,0-.08-.63h0c-.06-.15-.1-.17-.17-.18h0a1.12,1.12,0,0,0-.59.37h0c-1.72,1.58-5.64,4.45-5.65,4.46h0a4.17,4.17,0,0,1-2.24.76h0a2.49,2.49,0,0,1-1.52-.5h0c-1.6-1.2-5-4.6-5-4.6h0l0,0v0a.87.87,0,0,0-.13-.17h0a.34.34,0,0,0-.17-.14h0a1,1,0,0,0-.1.22h0a5.57,5.57,0,0,0-.13,1.42h0c0,1.5.2,7.59.39,13.3h0c.2,5.7.4,11,.4,11.06h0a7.88,7.88,0,0,1-.55,2.44h0l0,.05-.05,0a5.8,5.8,0,0,1-2.16.5h0a2.25,2.25,0,0,1-1.73-.68h0a2.38,2.38,0,0,1-.35-1h0c-.1-.48-.2-1.12-.3-1.89h0c-.2-1.55-.38-3.63-.55-6h0c-.32-4.8-.55-10.86-.55-16.34h0c0-5.38.21-10.19.78-12.74h0a3,3,0,0,1,2.64-2.65h0a3.09,3.09,0,0,1,.66-.07h0c2.25,0,3.4,2.47,3.86,3h0a54.87,54.87,0,0,0,3.34,5.37h0c.43.54.86.84,1.05.83h0a.21.21,0,0,0,.16-.07h0c.57-.5,2.35-2.44,4-4.23h0C29.5,9.53,31,7.86,31,7.84h0a6.47,6.47,0,0,1,3.77-1.65h0a3.15,3.15,0,0,1,.44,0h0c2.25.28,2.94,2.29,2.93,5h0c0,1.75.42,13.11.42,22.4h0c0,5.23-.13,9.79-.56,11.67h0c-.63,2.75-2.1,3.73-3.36,3.73h0Zm-1.54-9.14c0,4,0,7.1-.06,7.63h0v0h0a.93.93,0,0,0,.44.73h0a2,2,0,0,0,1.16.36h0c1,0,2.36-.77,3-3.42h0c.41-1.8.55-6.38.55-11.59h0c0-9.28-.43-20.63-.43-22.4h0c0-2.74-.63-4.4-2.57-4.65h0a2.75,2.75,0,0,0-.4,0h0a4.93,4.93,0,0,0-2.44.77h0a6.8,6.8,0,0,0-1.05.76h0s-5.88,6.67-7.09,7.74h0a.63.63,0,0,1-.42.16h0c-.47,0-.88-.42-1.35-1h0A16.63,16.63,0,0,1,21,13h0c-.91-1.49-1.73-3.08-1.94-3.34h0c-.5-.65-1.62-2.89-3.55-2.87h0a3.09,3.09,0,0,0-.58.06h0a2.84,2.84,0,0,0-2,1.34h0a2.15,2.15,0,0,0-.29.95h0v.05c-.56,2.46-.78,7.29-.78,12.67h0c0,9.56.7,21,1.4,24.19h0a2.51,2.51,0,0,0,.25.79h0a1.85,1.85,0,0,0,1.44.55h0A5.34,5.34,0,0,0,16.85,47h0a5,5,0,0,0,.35-1.3h0c.08-.49.11-.89.11-.9h0c0-.13-.78-21.34-.78-24.35h0a5.32,5.32,0,0,1,.15-1.53h0c.08-.3.24-.51.49-.51h0a.86.86,0,0,1,.61.46h0c.1.1,3.43,3.42,4.95,4.56h0a2.06,2.06,0,0,0,1.29.43h0a3.33,3.33,0,0,0,1.41-.35h0a3.71,3.71,0,0,0,.6-.34h0s3.93-2.88,5.61-4.43h0a1.43,1.43,0,0,1,.86-.47h0a.58.58,0,0,1,.54.44h0a2.29,2.29,0,0,1,.1.76h0A7.81,7.81,0,0,1,33,20.7h0c0,.52.06,11.46.06,19.22Z"/><path class="cls-9" d="M16.33,7.86s-2.22-1.31-3.27,1.57c0,0-1.44,24.34.79,35.86,0,0,.39,1.7,1.18.26S12.8,34.16,14.24,12C14.24,12,14.11,7.73,16.33,7.86Z"/><path class="cls-9" d="M27.15,13.73s5.3-7.31,8.24-6.48c0,0,2,.3,1.92,4.76s.19-4.82-3.49-3.58C30.34,9.61,27.15,13.73,27.15,13.73Z"/><path class="cls-1" d="M76.2,47.84c0,1.42-7.4,2.48-16.49,2.38s-16.44-1.33-16.43-2.74S50.68,45,59.77,45.1,76.21,46.43,76.2,47.84Z"/><path class="cls-1" d="M74,47.66c0,.8-6.55,1.38-14.62,1.29s-14.6-.81-14.59-1.62S51.38,46,59.45,46,74.05,46.86,74,47.66Z"/><path class="cls-10" d="M59.55,31.38s-1.06,12-.67,13.74,1.33,1.16,1.61.83c0,0-.67-.61-.72-4.05S60.27,29,59.55,31.38Z"/><path class="cls-11" d="M66.93,28.45s.33-3.7-2.79-3.32a1.93,1.93,0,0,0-2,1.41s-.25.29-.12,2.87.49,11.26.49,12.3,0,3.57-.91,3.91-.25-14.17,0-17.08,1.33-4.08,3.11-4.2,4.13.71,3.12,10a6,6,0,0,0,4.07-.08c0-6.87-1.15-15.27-6.89-14.95a5.38,5.38,0,0,0-5.16,3.16s-2.16-6.4-8.56-2.08a1.59,1.59,0,0,0-1.83-1.41c-1.66.16-2,1.08-2.16,5.23s.5,24.94,4.32,23.77,2.17-4.57,1.92-6.23-2.08-11.3-.75-15a2.87,2.87,0,0,1,5.65.75c.08,3-.67,14.63-.67,16.79s1.17,3.32,2.5,3.07,2.66-1.24,2.66-5.23-.5-14.22-.5-14.22-.17-2.66,2.33-2.41,1.83,3.41,1.83,5.82c0,.51,0,1.37,0,2.39l.33.19C66.9,31,66.93,28.45,66.93,28.45Z"/><path class="cls-11" d="M71.83,36.25c0-.23,0-.46,0-.7a6.71,6.71,0,0,1-4.23.28c0,.18,0,.38-.06.61A8,8,0,0,0,71.83,36.25Z"/><path class="cls-11" d="M66.81,35.52l-.35-.18c0,.19,0,.38,0,.57a2.12,2.12,0,0,0,.36.21C66.8,35.92,66.8,35.72,66.81,35.52Z"/><path class="cls-11" d="M67.46,37.61c-.26,3.12-.44,7.94.76,8.3,1.78.54-.58,1.08-1.17.16s-.62-1.49-.41-5.48c0-.92.09-2.06.12-3.27l-.36-.21c-.12,3.27-.26,6.6-.26,6.6s-.25,3.32,2,3.32,2.75-1.75,3.16-4.4c.11-.7.35-2.67.48-5.18A6.7,6.7,0,0,1,67.46,37.61Z"/><path class="cls-12" d="M67.62,35.83a5.73,5.73,0,0,1-.81-.31c0,.2,0,.4,0,.6a3.61,3.61,0,0,0,.76.32C67.58,36.21,67.6,36,67.62,35.83Z"/><path class="cls-12" d="M64.68,24.34c-1.78.12-2.9,1.29-3.11,4.2s-.83,17.41,0,17.08.91-2.87.91-3.91S62.15,32,62,29.41s.12-2.87.12-2.87a1.93,1.93,0,0,1,2-1.41c3.12-.38,2.79,3.32,2.79,3.32s0,2.52-.09,5.45a6.34,6.34,0,0,0,1,.4C68.81,25.05,66.43,24.22,64.68,24.34Z"/><path class="cls-12" d="M66.64,40.59c-.21,4-.17,4.57.41,5.48s3,.38,1.17-.16c-1.2-.36-1-5.18-.76-8.3a4.09,4.09,0,0,1-.7-.29C66.73,38.53,66.69,39.67,66.64,40.59Z"/><path class="cls-13" d="M66.84,33.9l-.33-.19c0,.51,0,1.06-.05,1.63l.35.18C66.82,35,66.83,34.43,66.84,33.9Z"/><path class="cls-13" d="M66.8,36.12a2.12,2.12,0,0,1-.36-.21c0,.39,0,.8,0,1.2l.36.21C66.77,36.93,66.78,36.53,66.8,36.12Z"/><path class="cls-14" d="M67.56,36.44c0,.35-.07.74-.1,1.17a6.7,6.7,0,0,0,4.31-.16q0-.59.06-1.2A8,8,0,0,1,67.56,36.44Z"/><path class="cls-14" d="M67.8,34.3c0,.22,0,.45-.08.68,0,0,0,.32-.1.85a6.71,6.71,0,0,0,4.23-.28c0-.43,0-.88,0-1.33A6,6,0,0,1,67.8,34.3Z"/><path class="cls-13" d="M67.72,35c0-.23,0-.46.08-.68a6.34,6.34,0,0,1-1-.4c0,.53,0,1.08,0,1.62a5.73,5.73,0,0,0,.81.31C67.68,35.3,67.72,35,67.72,35Z"/><path class="cls-13" d="M66.8,36.12c0,.41,0,.81,0,1.2a4.09,4.09,0,0,0,.7.29c0-.43.07-.82.1-1.17A3.61,3.61,0,0,1,66.8,36.12Z"/><path class="cls-8" d="M49.14,45.4a36.44,36.44,0,0,1-1.25-6.3h0a120.23,120.23,0,0,1-.81-13.45h0c0-.61,0-1.11,0-1.48h0A13.77,13.77,0,0,1,47.64,20h0a1.86,1.86,0,0,1,1.78-1.23h.25a1.69,1.69,0,0,1,1.7,1.32h0a7.35,7.35,0,0,1,4-1.4h0c2.76,0,4.09,2.4,4.5,3.33h0a5.52,5.52,0,0,1,5-2.91h.48c2.81,0,4.51,2.11,5.48,5h0a33.09,33.09,0,0,1,1.26,10h0a65.64,65.64,0,0,1-.57,8.6h0a9.53,9.53,0,0,1-.92,3.26h0a2.57,2.57,0,0,1-2.41,1.29h0a1.93,1.93,0,0,1-1.84-1.32h0A5.3,5.3,0,0,1,66,44h0c0-.19,0-.3,0-.3h0s.42-10,.42-12.38h0c0-.85.08-1.78.08-2.63h0a4.89,4.89,0,0,0-.33-2.07h0a1.61,1.61,0,0,0-1.43-.95h0l-.3,0h0a1.62,1.62,0,0,0-1.57.9h0a2.93,2.93,0,0,0-.28,1.26h0c0,.06,0,.09,0,.09h0s.49,10.23.49,14.23h0c0,4-1.38,5.15-2.79,5.4h0l-.38,0h0c-1.31,0-2.31-1.26-2.31-3.27h0c0-2.07.67-12.61.67-16.25h0c0-.2,0-.38,0-.54h0a2.84,2.84,0,0,0-2.78-2.77h0a2.75,2.75,0,0,0-2.55,2.08h0a12.09,12.09,0,0,0-.47,3.79h0a75.91,75.91,0,0,0,1.23,11.09h0a19,19,0,0,1,.57,3.21h0a3.14,3.14,0,0,1-2.6,3.2h0a1.12,1.12,0,0,1-.35.06h0c-1,0-1.61-1.13-2.15-2.76Zm.31-26.3a1.54,1.54,0,0,0-1.51,1h0a14.21,14.21,0,0,0-.5,4.06h0q0,.55,0,1.47h0c0,4.5.46,14.82,2,19.64h0c.52,1.62,1.19,2.56,1.84,2.53h0l.25,0h0c1.92-.6,2.36-1.69,2.37-2.89h0a19.25,19.25,0,0,0-.57-3.17h0A77,77,0,0,1,52.11,30.6h0a12.17,12.17,0,0,1,.49-3.91h0a3.08,3.08,0,0,1,2.86-2.29h0a3.18,3.18,0,0,1,3.12,3.09h0V28h0c0,3.66-.67,14.21-.67,16.25h0c0,1.92.92,2.94,2,2.94h0l.32,0h0c1.25-.25,2.5-1.11,2.52-5.07h0c0-4-.5-14.2-.5-14.21h0v-.11h0a3.31,3.31,0,0,1,.31-1.41h0a1.93,1.93,0,0,1,1.87-1.08h0l.33,0h0a2,2,0,0,1,1.7,1.14h0a5.27,5.27,0,0,1,.36,2.21h0c0,.87-.08,1.8-.08,2.63h0c0,2.42-.41,12.39-.42,12.4h0V44h0a4.81,4.81,0,0,0,.3,1.75h0a1.56,1.56,0,0,0,1.53,1.11h0a2.21,2.21,0,0,0,2.13-1.12h0a9.52,9.52,0,0,0,.87-3.14h0a64.61,64.61,0,0,0,.57-8.55h0a32.51,32.51,0,0,0-1.25-9.86h0c-1-2.83-2.55-4.76-5.16-4.76h-.48A5.14,5.14,0,0,0,60,22.49h0l-.17.41-.15-.42a6.38,6.38,0,0,0-1-1.74h0A4.22,4.22,0,0,0,55.33,19h0a7.23,7.23,0,0,0-4,1.47h0l-.23.15,0-.27s0-.08-.05-.2h0a1.62,1.62,0,0,0-.19-.45h0a1.29,1.29,0,0,0-1.19-.63h-.22Zm1.81,1.25.17,0-.17,0Z"/><path class="cls-10" d="M49.74,19.8s-.22-.56-1-.17-.89,2.71-.89,2.71-.44,19.45,3,24.55c0,0,.49.83,1.49.06s1.11-1.5.5-1-1.66-.83-2.33-3.82S48.41,23.34,49.74,19.8Z"/><path class="cls-12" d="M53.34,45.08a10.41,10.41,0,0,0-.42-2.79c-.45-1.7-3.49-15.46,1.13-17.78,0,0-1.46,0-2.54,2.24-.75,1.55-.23-1.59-.75-.17C50,28.74,51.3,47.45,53.34,45.08Z"/><path class="cls-10" d="M51.4,21.18s2.72-2.66,5.54-1.27a4.9,4.9,0,0,0-5.26,3.32s-.39,1.22-.5.78A4.32,4.32,0,0,1,51.4,21.18Z"/><path class="cls-10" d="M65.75,19.63a5.94,5.94,0,0,0-5.48,3.05l.33,1.44A6.5,6.5,0,0,1,65.75,19.63Z"/></svg>