<svg xmlns="http://www.w3.org/2000/svg" viewBox="0 0 85.04 56.69"><defs><style>.cls-1{isolation:isolate;}.cls-2{opacity:0.4;}.cls-3{opacity:0.29;}.cls-4,.cls-5{fill:#dda5cb;}.cls-5{mix-blend-mode:multiply;opacity:0.43;}.cls-6{fill:#d01972;}.cls-7{fill:#ee3880;}.cls-8{fill:#c163a5;}.cls-9{fill:#f9cfde;opacity:0.55;}.cls-10{fill:#bf3994;}.cls-11{fill:#cd549f;}.cls-12{fill:#e3a0c2;opacity:0.42;}.cls-13{fill:#aa2175;}.cls-14{fill:#d3168a;}.cls-15{fill:#db4799;}.cls-16{fill:#b91d85;}</style></defs><g class="cls-1"><g id="Layer_1" data-name="Layer 1"><path class="cls-2" d="M15.69,45c-.42,0-3.49.26-3.9,2.54-.53,3,3.9,3.27,5.08,3.36a14.36,14.36,0,0,0,6.56-.67c2.24-.91,5.49-4.37,7.6-1.58,1.94,2.55,4.61,2.36,7,1.59,1-.33,6.13-1.85,3.95-4.19C38.83,42.71,15.69,45,15.69,45Z"/><path class="cls-2" d="M35.49,45.6s-4.24.09-4.72,1S31.71,47.87,34,48a15,15,0,0,0,3.89-.43c.7-.13,2.65-.79,1.89-1.66S36.46,45.58,35.49,45.6Z"/><path class="cls-2" d="M20.05,46.78s-5-.32-5.6.65,1,1.61,3.66,2a17.56,17.56,0,0,0,4.58-.1c.83-.08,3.17-.65,2.38-1.75S21.19,46.85,20.05,46.78Z"/><path class="cls-2" d="M73.29,46.08c0,.93-5,1.69-11.05,1.69S51.19,47,51.19,46.08s4.94-1.68,11.05-1.68S73.29,45.15,73.29,46.08Z"/><path class="cls-3" d="M70.08,45.84c0,.55-3.56,1-7.95,1s-7.94-.45-7.94-1,3.56-1,7.94-1S70.08,45.29,70.08,45.84Z"/><path class="cls-4" d="M37.39,23.37c0,7.28-.34,14.56.8,21.84v0c.21-1.72.16-36.61.16-36.61a3.38,3.38,0,0,0-1.42-1.95C38,12.14,37,17.93,37.39,23.37Z"/><path class="cls-4" d="M32.33,25.1c1.17,1.89.76-.22.21-2.85,0,.37,0,.59,0,.59S26.3,12.66,22.42,8.67a7.06,7.06,0,0,0-4.89-2l-.75,0c.24.09.48.18.74.25C22.52,8.32,30.93,22.84,32.33,25.1Z"/><path class="cls-4" d="M33.73,45.13S28,27.9,26.73,24.34s-2.05-4.84-3.88-4.84-1.94,2.58-1.94,2.58,1.19,22.08,1.41,24.56a3.44,3.44,0,0,1-.2,1.56c1-.26,1.7-.75,1.76-1.62C24,44.91,22.58,23,22.58,23s0-.76.92-.76.92.54,1.24,1.51,5.11,13,7.05,21.22c0,0,.22,1.88,1.78,1.88s4.07,0,4.56-1.38a13.32,13.32,0,0,1-2.25.63C34,46.53,33.73,45.13,33.73,45.13Z"/><path class="cls-5" d="M32.33,25.1c1.17,1.89.76-.22.21-2.85,0,.37,0,.59,0,.59S26.3,12.66,22.42,8.67a7.06,7.06,0,0,0-4.89-2l-.75,0c.24.09.48.18.74.25C22.52,8.32,30.93,22.84,32.33,25.1Z"/><path class="cls-5" d="M33.73,45.13S28,27.9,26.73,24.34s-2.05-4.84-3.88-4.84-1.94,2.58-1.94,2.58,1.19,22.08,1.41,24.56a3.44,3.44,0,0,1-.2,1.56c1-.26,1.7-.75,1.76-1.62C24,44.91,22.58,23,22.58,23s0-.76.92-.76.92.54,1.24,1.51,5.11,13,7.05,21.22c0,0,.22,1.88,1.78,1.88s4.07,0,4.56-1.38a13.32,13.32,0,0,1-2.25.63C34,46.53,33.73,45.13,33.73,45.13Z"/><path class="cls-5" d="M37.39,23.37c0,7.28-.34,14.56.8,21.84v0c.15-1.2.17-18.4.17-28.79-.28-.15-.61-.32-1-.48A74.28,74.28,0,0,0,37.39,23.37Z"/><path class="cls-5" d="M38.36,10.37V8.57a3.38,3.38,0,0,0-1.42-1.95,25.05,25.05,0,0,1,.39,3A5.87,5.87,0,0,1,38.36,10.37Z"/><path class="cls-5" d="M37.45,12.84c0,.64,0,1.27,0,1.91.3.16.61.34.94.54v-2Z"/><path class="cls-4" d="M32.33,11.85c0,.77.07,1.61.09,2.46.94-.52,2.54-.83,5,.44,0-.64,0-1.27,0-1.91C35.89,12.1,33.75,11.33,32.33,11.85Z"/><path class="cls-4" d="M37.39,23.37a74.28,74.28,0,0,1,0-7.46c-1.52-.69-3.63-1.31-4.94-.33.06,2.78.08,5.51.08,6.67.55,2.63,1,4.74-.21,2.85-1.4-2.26-9.81-16.78-14.81-18.25-.26-.07-.5-.16-.74-.25h-.12c-1.31,0-3,.14-2.85,1.75.16,2.1,2,35.11,1.94,37.59s.8,2.47,3.17,2.53a12.37,12.37,0,0,0,3.2-.27,3.44,3.44,0,0,0,.2-1.56c-.22-2.48-1.41-24.56-1.41-24.56S21,19.5,22.85,19.5s2.59,1.29,3.88,4.84,7,20.79,7,20.79.22,1.4,2.15,1a13.32,13.32,0,0,0,2.25-.63,1.1,1.1,0,0,0,.06-.26C37.05,37.93,37.39,30.65,37.39,23.37Z"/><path class="cls-4" d="M37.33,9.6a25.05,25.05,0,0,0-.39-3,3.85,3.85,0,0,0-1.06-.48c-2-.57-4-.48-3.73,3.05A5.68,5.68,0,0,1,37.33,9.6Z"/><path class="cls-6" d="M37.4,15.91c.36.16.69.33,1,.48v-1.1c-.33-.2-.64-.38-.94-.54Z"/><path class="cls-6" d="M37.45,12.84l.92.46c0-1.16,0-2.16,0-2.93a5.87,5.87,0,0,0-1-.77C37.42,10.67,37.45,11.76,37.45,12.84Z"/><path class="cls-7" d="M32.33,11.85c1.42-.52,3.56.25,5.12,1,0-1.08,0-2.17-.12-3.24a5.68,5.68,0,0,0-5.18-.41c0,.11,0,.22,0,.35C32.23,10.18,32.28,11,32.33,11.85Z"/><path class="cls-7" d="M37.4,15.91l0-1.16c-2.47-1.27-4.07-1-5-.44,0,.42,0,.85,0,1.27C33.77,14.6,35.88,15.22,37.4,15.91Z"/><path class="cls-8" d="M18.92,48.68a5.91,5.91,0,0,1-2.56-.36h0c-.6-.35-.84-1-.83-2.17h0v-.22h0v-.12h0c0-3.28-1.78-35.39-1.94-37.44h0c0-.06,0-.13,0-.19h0a1.57,1.57,0,0,1,1-1.5h0a4.61,4.61,0,0,1,1.85-.3h.27l.88,0h0a7.34,7.34,0,0,1,5,2.1h0c3.32,3.42,8.31,11.26,9.75,13.56h0c0-2.32-.06-9.33-.38-12.52h0c0-.33,0-.63,0-.91h0a3.34,3.34,0,0,1,.67-2.33h0a2.15,2.15,0,0,1,1.69-.66h0a6,6,0,0,1,1.67.28h0a3.65,3.65,0,0,1,2.63,2.58h0v9.16h0c0,10.47,0,26.33-.17,27.53h0a2.06,2.06,0,0,1-1.81,1.62h0a11.43,11.43,0,0,1-2.74.24h-.29A1.85,1.85,0,0,1,31.9,46h0a3.1,3.1,0,0,1-.32-1h0c-1.93-8.22-6.72-20.21-7-21.2h0a7.31,7.31,0,0,0-.36-1.08h0c-.12-.19-.22-.27-.67-.28h0c-.74,0-.67.42-.7.52h0s1.3,20.32,1.3,23.33h0a2.44,2.44,0,0,1,0,.29h0a2,2,0,0,1-1.57,1.71h0a10,10,0,0,1-3.07.38h-.53ZM14.73,7.07A1.13,1.13,0,0,0,14,8.18h0a.76.76,0,0,1,0,.15h0C14.18,10.42,16,42.48,16,45.81h0v.13h0v.21h0c0,1.12.21,1.57.62,1.8h0a5.62,5.62,0,0,0,2.35.3h.52a9.51,9.51,0,0,0,2.93-.36h0c.78-.27,1.24-.67,1.28-1.33h0s0-.14,0-.26h0c0-1.48-.33-7.31-.65-12.77h0C22.69,28.09,22.37,23,22.37,23h0v0h0a.92.92,0,0,1,.17-.54h0a1.08,1.08,0,0,1,1-.41h0a1.08,1.08,0,0,1,1.05.5h0a8,8,0,0,1,.39,1.15h0c.32.95,5.12,13,7.07,21.26h0a2.72,2.72,0,0,0,.28.87h0a1.39,1.39,0,0,0,1.28.83h.29a11.92,11.92,0,0,0,2.64-.22h0c.83-.22,1.4-.58,1.49-1.27h0c.14-1.09.16-17,.16-27.47h0V8.59h0a2.06,2.06,0,0,0-.08-.24h0a3.44,3.44,0,0,0-.34-.65h0a3.28,3.28,0,0,0-1.9-1.35h0a6.2,6.2,0,0,0-1.56-.26h0c-1.14,0-1.9.49-1.93,2.56h0c0,.26,0,.55,0,.86h0c.38,3.9.38,13.32.38,13.33h0v.76l-.4-.65s-1.56-2.54-3.6-5.58h0a69.47,69.47,0,0,0-6.49-8.55h0a6.93,6.93,0,0,0-4.75-2h0l-.86,0h0v0h-.27a4.32,4.32,0,0,0-1.66.26Z"/><path class="cls-9" d="M16.82,46.53,14.88,8.94s-.32-1.29,1.62-1.29-.22-.64.11,5.06,1.83,32.74,1.83,32.74-.11,1.08,1.61,1.08S16.82,47.93,16.82,46.53Z"/><path class="cls-9" d="M34.27,7s-1.19-.65-1.19,1,.44,14.76.44,14.76.21,5.6.86,0S35.13,6.79,34.27,7Z"/><path class="cls-10" d="M58.34,43.84c.32,1.72-2.26,2.2-2.26,2.2l-.07.08.34,0c2.17-.2,3-.81,2.93-3-.3.12-.64.24-1,.36C58.3,43.6,58.32,43.74,58.34,43.84Z"/><path class="cls-10" d="M67.09,45.15a1.08,1.08,0,0,1-.19,0,2,2,0,0,1-2.15-1.83s-.27-15.51-.6-18.25S62.05,20,58.88,21s-2.37,5.44-2.37,5.44,1,10.71,1.56,15.42a9.14,9.14,0,0,0,1.08-.55c-.42-4.29-1.67-15.52-1.67-15.52s-.27-3.6,2.37-3.77,3.23,1.83,3.39,5.5.59,15.67.59,15.67-.43,2.37,2.37,2.58a2,2,0,0,0,2.49-1.9A2.74,2.74,0,0,1,67.09,45.15Z"/><path class="cls-11" d="M58.34,43.84c0-.1,0-.24-.06-.41a13,13,0,0,1-3,.56,1.33,1.33,0,0,0,.5.6c.85.52,1.65.71-.18.76-1.58,0-2.17-.31-2.36-1.42-.31,0-.62-.09-.94-.15.34,2.15,1.75,2.48,3.68,2.34l.07-.08S58.66,45.56,58.34,43.84Z"/><path class="cls-11" d="M51.6,28.33c-.93-7-1.39-9.44-.86-10s.89-.13.89-.13c.74.25,1.9,12,2.51,18,.3,3.06.51,5,.75,6.32a10,10,0,0,0,3.18-.69c-.54-4.71-1.56-15.42-1.56-15.42S55.7,21.87,58.88,21s4.95,1.4,5.27,4.15.6,18.25.6,18.25a2,2,0,0,0,2.15,1.83,1.08,1.08,0,0,0,.19,0c1.25-.44.94-2.45.94-2.45s-.48-14.43-.75-19A11,11,0,0,0,64.8,17v-.15a6.79,6.79,0,0,0-4.46-1.36,7.32,7.32,0,0,0-4.65,1.64,7.34,7.34,0,0,0-1.54,3.26c-.38,2-.92,2.58-1.13-.16s-1.24-3-1.24-3L51.72,17a2,2,0,0,0-.65,0c-2.26.38-1.4,4.15-1,7.86s2,13.86,2.14,17.5l.9.1C53,40.05,52.41,34.37,51.6,28.33Z"/><path class="cls-11" d="M54.89,42.5c-.24-1.28-.45-3.26-.75-6.32-.61-6.07-1.77-17.78-2.51-18,0,0-.36-.47-.89.13s-.07,3.08.86,10c.81,6,1.35,11.72,1.54,14.15A14.39,14.39,0,0,0,54.89,42.5Z"/><path class="cls-12" d="M54.89,42.5c-.24-1.28-.45-3.26-.75-6.32-.61-6.07-1.77-17.78-2.51-18,0,0-.36-.47-.89.13s-.07,3.08.86,10c.81,6,1.35,11.72,1.54,14.15A14.39,14.39,0,0,0,54.89,42.5Z"/><path class="cls-11" d="M53.27,43.93c.19,1.11.78,1.46,2.36,1.42,1.83-.05,1-.24.18-.76a1.33,1.33,0,0,1-.5-.6A10.83,10.83,0,0,1,53.27,43.93Z"/><path class="cls-12" d="M53.27,43.93c.19,1.11.78,1.46,2.36,1.42,1.83-.05,1-.24.18-.76a1.33,1.33,0,0,1-.5-.6A10.83,10.83,0,0,1,53.27,43.93Z"/><path class="cls-13" d="M58.28,43.43c.36-.12.7-.24,1-.36,0-.2,0-.41,0-.64s-.06-.68-.1-1.17a9.14,9.14,0,0,1-1.08.55C58.15,42.49,58.22,43.05,58.28,43.43Z"/><path class="cls-14" d="M53.21,43.37c0-.21,0-.51-.07-.89l-.9-.1c0,.16,0,.3,0,.43a8.84,8.84,0,0,0,.08,1c.32.06.63.12.94.15A4.58,4.58,0,0,1,53.21,43.37Z"/><path class="cls-14" d="M55.31,44a13,13,0,0,0,3-.56c-.06-.38-.13-.94-.21-1.62a10,10,0,0,1-3.18.69A6.13,6.13,0,0,0,55.31,44Z"/><path class="cls-15" d="M53.14,42.48c0,.38,0,.68.07.89a4.58,4.58,0,0,0,.06.56,10.83,10.83,0,0,0,2,.06,6.13,6.13,0,0,1-.42-1.49A14.39,14.39,0,0,1,53.14,42.48Z"/><path class="cls-10" d="M53,20.2c.21,2.74.75,2.15,1.13.16a7.34,7.34,0,0,1,1.54-3.26,8.08,8.08,0,0,0-2,2.45s-.31-2.32-2-2.54l.05.17S52.79,17.45,53,20.2Z"/><path class="cls-10" d="M68.69,43.82a12.72,12.72,0,0,0,.09-1.49c.06-1-.64-18.15-.64-18.15s-.18-4.91-3.35-7.36V17a11,11,0,0,1,2.48,6.78c.27,4.52.75,19,.75,19s.31,2-.94,2.45A2.74,2.74,0,0,0,68.69,43.82Z"/><path class="cls-16" d="M53,45.65A3.74,3.74,0,0,1,52,42.82h0c0-3.14-1.72-14.19-2.15-17.91h0a51,51,0,0,1-.53-5.12h0c0-1.51.36-2.76,1.67-3h0a2.15,2.15,0,0,1,.43,0h0a2.26,2.26,0,0,1,2,1.4h0a4.26,4.26,0,0,1,.31.79h0a7.6,7.6,0,0,1,6.38-3.72h.35a7,7,0,0,1,6.73,4.49h0a13.16,13.16,0,0,1,1.09,4.44h0S69,40,69,42.15h0v.19h0a7.45,7.45,0,0,1-.24,2.13h0A2.15,2.15,0,0,1,66.52,46h-.34a2.43,2.43,0,0,1-2.59-2.47h0c0-.17,0-.3,0-.35h0c0-.55-.43-12.07-.59-15.65h0a10.67,10.67,0,0,0-.69-4h0a2.18,2.18,0,0,0-2.19-1.31h-.28A2,2,0,0,0,58,23.54h0a5.23,5.23,0,0,0-.35,1.93h0a2.28,2.28,0,0,0,0,.25h0s1.56,13.94,1.78,16.7h0c0,.3,0,.57,0,.83h0a2.9,2.9,0,0,1-.75,2.29h0a4,4,0,0,1-2.39.77h0l-1,.06h0A3.37,3.37,0,0,1,53,45.65ZM51.1,17.23c-1,.16-1.3,1.06-1.31,2.56h0c0,1.41.31,3.24.52,5.07h0c.43,3.71,2.1,14.73,2.16,18h0c.09,2.62,1.09,3.08,2.85,3.12h0c.32,0,.65,0,1,0h0a3.6,3.6,0,0,0,2.13-.66h0a2.48,2.48,0,0,0,.61-2h0c0-.24,0-.51,0-.8h0c-.22-2.73-1.78-16.67-1.78-16.69h0s0-.12,0-.29h0a5.56,5.56,0,0,1,.39-2.1h0a2.45,2.45,0,0,1,2.19-1.61h.31a2.63,2.63,0,0,1,2.58,1.55h0a11.13,11.13,0,0,1,.73,4.16h0c.16,3.66.6,15.67.6,15.67h0v0a1.64,1.64,0,0,0,0,.29h0c0,.62.17,1.86,2.2,2h.3a1.72,1.72,0,0,0,1.83-1.19h0a7.16,7.16,0,0,0,.22-2h0v-.17h0c0-2.08-.65-17.94-.65-18h0a10.94,10.94,0,0,0-.16-1.33h0a12.13,12.13,0,0,0-.89-2.95h0a6.62,6.62,0,0,0-6.34-4.24h-.35a7.17,7.17,0,0,0-6.28,4h0l-.32.6-.09-.67a4.4,4.4,0,0,0-.38-1.22h0a1.84,1.84,0,0,0-1.65-1.16h0l-.36,0Zm2.61,2.32.21,0-.21,0Z"/><path class="cls-12" d="M63,19.61s2.1,1.23,2.16,4.73.37,17.18.37,17.18-.27,2.8.54,2.85.65-1.77.65-2.8-.49-17.23-.49-17.23S66.31,20,63,19.61Z"/><path class="cls-12" d="M60.23,16.52c.11.33-.59.88-1.57,1.22s-1.88.34-2,0,.59-.89,1.58-1.22S60.11,16.18,60.23,16.52Z"/></g></g></svg>