<svg id="Layer_1" data-name="Layer 1" xmlns="http://www.w3.org/2000/svg" viewBox="0 0 85.04 56.69"><defs><style>.cls-1{opacity:0.4;}.cls-2{fill:#cbd22e;}.cls-3{fill:#b1c335;}.cls-4{fill:#fff68d;}.cls-4,.cls-7{opacity:0.56;}.cls-5{fill:#51b848;}.cls-6{fill:#169146;}.cls-7{fill:#c1d836;}</style></defs><path class="cls-1" d="M73.46,46c-.08,1.77-5.09,3-11.19,2.72s-11-1.94-10.9-3.71,5.09-3,11.19-2.72S73.54,44.22,73.46,46Z"/><path class="cls-1" d="M70,45.56c0,1.24-3.54,2.08-7.78,1.89s-7.64-1.34-7.59-2.58,3.54-2.08,7.79-1.89S70,44.33,70,45.56Z"/><path class="cls-2" d="M63.42,21.93a9.64,9.64,0,0,0-10.27,8.92l-.29,4.51A9.7,9.7,0,0,0,72.22,36.5L72.5,32A9.56,9.56,0,0,0,63.42,21.93Zm4.71,10.69L68,35.36a5.38,5.38,0,1,1-10.72-.63L57.41,32a5.38,5.38,0,1,1,10.72.63Z"/><path class="cls-3" d="M61.93,45.79A10,10,0,0,1,52.45,36h0c0-.2,0-.4,0-.61h0l.28-4.51a10,10,0,0,1,10.08-9.3h0l.61,0h0a10,10,0,0,1,9.47,9.84h0c0,.21,0,.41,0,.62h0l-.28,4.51a10,10,0,0,1-10.07,9.29h0a5.62,5.62,0,0,1-.58,0ZM53.54,30.87l-.28,4.52a5.33,5.33,0,0,0,0,.56h0A9.18,9.18,0,0,0,62,45h0l.57,0h0a9.23,9.23,0,0,0,9.28-8.58h0L72.11,32c0-.19,0-.38,0-.57h0a9.19,9.19,0,0,0-8.74-9.08h0l0-.38,0,.38h-.56a9.24,9.24,0,0,0-9.29,8.57Zm8.67,10.32a5.91,5.91,0,0,1-5.38-6.07h0c0-.13,0-.27,0-.41h0L57,32a6,6,0,0,1,5.82-5.81h.32a5.91,5.91,0,0,1,5.38,6.07h0c0,.14,0,.28,0,.42h0l-.39,0,.39,0-.17,2.74a6,6,0,0,1-5.82,5.82h-.32ZM57.8,32l-.17,2.75c0,.12,0,.24,0,.36h0a5.14,5.14,0,0,0,4.64,5.31h.27a5.25,5.25,0,0,0,5-5.1h0l.18-2.75h0c0-.12,0-.25,0-.37h0a5.14,5.14,0,0,0-4.65-5.3h-.28a5.25,5.25,0,0,0-5,5.1Z"/><path class="cls-4" d="M62.11,43.74a8.3,8.3,0,0,1-7.73-8.34h0c0-.17,0-.35,0-.52h0l.22-3.69a8.32,8.32,0,0,1,8.23-7.88h0l.5,0h0a8.3,8.3,0,0,1,7.74,8.34h0c0,.17,0,.35,0,.52h0l-.22,3.69a8.32,8.32,0,0,1-8.23,7.88h0l-.5,0ZM55.85,31.26,55.63,35c0,.15,0,.3,0,.45h0a7.07,7.07,0,0,0,6.57,7.11h0l.42,0h0a7.08,7.08,0,0,0,7-6.72h0l.22-3.69c0-.15,0-.3,0-.45h0a7.07,7.07,0,0,0-6.57-7.11h0l0-.62,0,.62h-.42a7.07,7.07,0,0,0-7,6.71Z"/><path class="cls-1" d="M45.45,46.62c0,1.78-7.58,3.22-16.94,3.22S11.58,48.4,11.58,46.62s7.58-3.22,16.93-3.22S45.45,44.84,45.45,46.62Z"/><path class="cls-1" d="M40.08,46.34c0,1.24-5.27,2.24-11.78,2.24s-11.78-1-11.78-2.24S21.79,44.1,28.3,44.1,40.08,45.11,40.08,46.34Z"/><path class="cls-5" d="M30.76,7.51A15.59,15.59,0,0,0,14.34,22.23l-.45,7.45a15.5,15.5,0,1,0,31,1.88l.45-7.46A15.6,15.6,0,0,0,30.76,7.51ZM38.3,25.15,38,29.68c-.31,5.25-4.41,9.28-9.14,9s-8.32-4.78-8-10l.27-4.53c.32-5.26,4.42-9.29,9.15-9S38.62,19.89,38.3,25.15Z"/><path class="cls-6" d="M28.38,46.9A16.2,16.2,0,0,1,13.23,30.66h0q0-.51,0-1h0l.45-7.45A16.24,16.24,0,0,1,29.82,6.85h0c.33,0,.65,0,1,0h0l0,.63,0,.63q-.45,0-.9,0h0A15,15,0,0,0,15,22.27h0l-.45,7.45c0,.31,0,.63,0,.94h0a15,15,0,0,0,14,15h0l.91,0h0A15,15,0,0,0,44.21,31.52h0l.45-7.46q0-.46,0-.93h0a15,15,0,0,0-14-15h0l0-.63,0-.63A16.22,16.22,0,0,1,46,23.13h0c0,.33,0,.67,0,1h0l-.45,7.45A16.24,16.24,0,0,1,29.36,46.93h0c-.33,0-.65,0-1,0Zm.46-7.59c-4.92-.31-8.61-4.76-8.61-10h0c0-.23,0-.46,0-.69h0l.27-4.53c.33-5.37,4.39-9.6,9.31-9.61h0l.51,0h0c4.92.3,8.61,4.76,8.61,10h0c0,.22,0,.45,0,.68h0l-.63,0,.63,0-.28,4.53c-.32,5.38-4.39,9.6-9.3,9.61h-.51ZM21.78,24.15l-.27,4.53c0,.2,0,.41,0,.61h0c0,4.68,3.27,8.51,7.42,8.76h.44c4.15,0,7.75-3.63,8-8.42h0l.27-4.53h0c0-.21,0-.41,0-.61h0c0-4.69-3.27-8.52-7.43-8.76h0l-.43,0h0c-4.14,0-7.74,3.64-8,8.43Z"/><path class="cls-7" d="M28.68,43.52c-7-.45-12.37-6.54-12.37-13.78h0c0-.29,0-.57,0-.86h0l.36-6.09c.42-7.33,6.22-13,13.15-13h0c.27,0,.53,0,.8,0h0c7,.44,12.37,6.54,12.37,13.78h0c0,.28,0,.57,0,.85h0l-.36,6.1c-.42,7.32-6.22,13-13.16,13h0c-.26,0-.52,0-.79,0Zm-10-20.61L18.31,29c0,.24,0,.49,0,.73h0A11.53,11.53,0,0,0,28.8,41.48h0c.22,0,.45,0,.67,0h0A11.48,11.48,0,0,0,40.65,30.41h0L41,24.32c0-.24,0-.49,0-.73h0c0-6.2-4.59-11.38-10.51-11.75h0l.06-1-.06,1-.68,0h0A11.47,11.47,0,0,0,18.67,22.91Z"/></svg>