<svg xmlns="http://www.w3.org/2000/svg" viewBox="0 0 85.04 56.69"><defs><style>.cls-1{isolation:isolate;}.cls-2{opacity:0.4;}.cls-3,.cls-6{fill:#0b70b8;}.cls-4{fill:#a4dded;opacity:0.35;}.cls-5{fill:none;}.cls-10,.cls-6,.cls-7{mix-blend-mode:multiply;}.cls-6,.cls-7{opacity:0.38;}.cls-8{fill:#16498b;}.cls-10,.cls-9{fill:#54b9e9;}.cls-10{opacity:0.32;}.cls-11{fill:#0c9ad6;}.cls-12{fill:#bfe6ec;opacity:0.67;}</style></defs><g class="cls-1"><g id="Layer_1" data-name="Layer 1"><path class="cls-2" d="M46.62,43.92c0,1.66-7.06,3-15.77,3s-15.77-1.34-15.77-3,7.06-3,15.77-3S46.62,42.27,46.62,43.92Z"/><path class="cls-2" d="M41.63,43.66c0,1.15-4.92,2.09-11,2.09s-11-.94-11-2.09,4.92-2.08,11-2.08S41.63,42.51,41.63,43.66Z"/><path class="cls-2" d="M70,46.79C70,48.23,64.62,49.4,58,49.4S46.1,48.23,46.1,46.79,51.44,44.18,58,44.18,70,45.35,70,46.79Z"/><path class="cls-2" d="M66.18,46.56c0,1-3.72,1.82-8.3,1.82s-8.3-.81-8.3-1.82,3.72-1.81,8.3-1.81S66.18,45.56,66.18,46.56Z"/><path class="cls-3" d="M45.19,17.49c-.39-12-18.25-10-20.85-9.65s-1.83,2.09-1.83,2.09,1.83,29.19,1.83,31.41S24.08,44,27.73,44s2.86-2.09,2.86-2.09L28.25,26.09S45.58,29.48,45.19,17.49ZM28.7,24.2,26.88,13.77S37.5,10.32,39,17.42,28.7,24.2,28.7,24.2Z"/><path class="cls-4" d="M25.25,42.45,23,10.19s-.45-1.63,1.89-1.83,12.91-1.17,17.66,3.91a6.06,6.06,0,0,1,1.57,4.24c-.23,2,1.17-8.08-18.38-6.58,0,0-.91,0-1,.45S26,23.61,26,23.61l1.56,18.25s.13,1-.33,1C26.56,43,25.32,43.1,25.25,42.45Z"/><path class="cls-4" d="M29.22,25.11s12.71.2,10.76-8.27C40,16.84,45.84,25.05,29.22,25.11Z"/><path class="cls-5" d="M28.7,24.2s11.8.33,10.3-6.78-12.12-3.65-12.12-3.65Z"/><path class="cls-6" d="M40.7,24.33c-4.83,2.93-13.3,1-13.3,1l1.82,16.55c.2,1.82-.78,2-.78,2l-.23,0c3.09-.18,2.38-2.07,2.38-2.07L28.25,26.09s17.33,3.39,16.94-8.6a8.69,8.69,0,0,0-2.54-6.15C46.25,15.27,44.68,21.91,40.7,24.33Z"/><g class="cls-7"><path class="cls-3" d="M26,13.38l1.89,11.15s9,.76,11.4-3.78a5.7,5.7,0,0,0,.07-5C36.33,9.15,26,13.38,26,13.38ZM28.7,24.2,26.88,13.77S37.5,10.32,39,17.42,28.7,24.2,28.7,24.2Z"/></g><path class="cls-8" d="M24.73,43.77c-.55-.34-.6-.92-.59-1.68h0v-.75h0c0-1.09-.45-9-.91-16.53h0c-.44-7.29-.88-14.31-.91-14.84h0a1.57,1.57,0,0,1-.11-.6h0c0-.62.42-1.49,2.1-1.72h0a37.25,37.25,0,0,1,5.32-.36h0A24.78,24.78,0,0,1,39.7,9.11h0a9.08,9.08,0,0,1,5.69,8.37h0v.4h0a7.62,7.62,0,0,1-4.14,7.24h0a17.17,17.17,0,0,1-7.87,1.61h0a31.42,31.42,0,0,1-4.9-.4h0l2.3,15.49a1.27,1.27,0,0,1,.08.49h0a1.5,1.5,0,0,1-.59,1.2h0a4,4,0,0,1-2.54.63h0a6.71,6.71,0,0,1-3-.37ZM24.37,8c-1.58.26-1.76.9-1.77,1.34h0a1.61,1.61,0,0,0,0,.35h0l.05.13h0v.07s1.82,29.18,1.82,31.42h0v.75h0c0,.79,0,1.14.4,1.34h0a6.58,6.58,0,0,0,2.8.32h0c2.51,0,2.72-.93,2.74-1.44h0a1.12,1.12,0,0,0-.06-.38h0v0L28,25.84l.27.06s.57.11,1.49.21h0a30.51,30.51,0,0,0,3.61.22h0a16.76,16.76,0,0,0,7.69-1.55h0A7.24,7.24,0,0,0,45,17.88h0v-.39h0a8.68,8.68,0,0,0-5.46-8h0a24.36,24.36,0,0,0-9.91-1.79h0A38.4,38.4,0,0,0,24.37,8ZM28.7,24.39V24.2l.2,0-.2,0v.19h-.16L26.66,13.64l.16-.05a19.45,19.45,0,0,1,5.44-.85h0c2.9,0,6.15.91,6.93,4.64h0a6.2,6.2,0,0,1,.14,1.24h0c0,2.8-2.28,4.25-4.66,5h0a20.91,20.91,0,0,1-5.73.8H28.7Zm.24-.39a20.48,20.48,0,0,0,5.62-.77h0c2.33-.73,4.38-2.07,4.38-4.61h0a6.15,6.15,0,0,0-.13-1.16h0c-.74-3.48-3.7-4.32-6.55-4.33h0a19.51,19.51,0,0,0-5.16.78h0L28.87,24Z"/><path class="cls-9" d="M52.78,21.54l1,9.58s7.5,1.59,8.93-4.24S57.21,18.18,52.78,21.54ZM61.61,26c-.26,5.41-7.1,4.63-7.1,4.63l-1-8.86C55.62,20.14,61.87,20.59,61.61,26Z"/><path class="cls-10" d="M52.78,21.54l1,9.58s7.5,1.59,8.93-4.24S57.21,18.18,52.78,21.54ZM61.61,26c-.26,5.41-7.1,4.63-7.1,4.63l-1-8.86C55.62,20.14,61.87,20.59,61.61,26Z"/><path class="cls-5" d="M62.69,26.88c1.43-5.83-5.48-8.7-9.91-5.34l1,9.58S61.26,32.71,62.69,26.88Z"/><path class="cls-9" d="M52.88,18.18a1.44,1.44,0,0,0-1.58-1.47l0,0s.72,0,.78,2,6.32-4.27,11.93,2.6A9.72,9.72,0,0,1,65.26,28c-.65,3.88-6.45,6.75-11.3,4.76l1,11s.65,2.74-1.37,2.58a2.14,2.14,0,0,1-1.59-1c0,.45.08,1.52,1.85,1.32,2.22-.26,2-1.44,2-2S54.71,34,54.71,34s7,1.65,10.29-3.26C68,26.26,65.2,13.82,52.88,18.18Z"/><path class="cls-10" d="M52.88,18.18a1.44,1.44,0,0,0-1.58-1.47l0,0s.72,0,.78,2,6.32-4.27,11.93,2.6A9.72,9.72,0,0,1,65.26,28c-.65,3.88-6.45,6.75-11.3,4.76l1,11s.65,2.74-1.37,2.58a2.14,2.14,0,0,1-1.59-1c0,.45.08,1.52,1.85,1.32,2.22-.26,2-1.44,2-2S54.71,34,54.71,34s7,1.65,10.29-3.26C68,26.26,65.2,13.82,52.88,18.18Z"/><path class="cls-9" d="M53.6,46.37c2,.16,1.37-2.58,1.37-2.58l-1-11c4.85,2,10.65-.88,11.3-4.76A9.72,9.72,0,0,0,64,21.34c-5.61-6.87-11.87-.62-11.93-2.6s-.78-2-.78-2l0,0-.31,0c-1.89.32-.91,2.15-.91,3.45s2,25,2,25a1.08,1.08,0,0,0,0,.18A2.14,2.14,0,0,0,53.6,46.37Zm9.09-19.49c-1.43,5.83-8.93,4.24-8.93,4.24l-1-9.58C57.21,18.18,64.12,21.05,62.69,26.88Z"/><path class="cls-11" d="M52.1,46.42a1.44,1.44,0,0,1-.29-.9h0a1.53,1.53,0,0,1,0-.3h0c-.08-.88-2-23.71-2-25h0c0-.62-.25-1.41-.25-2.13h0A1.4,1.4,0,0,1,51,16.56h0a2,2,0,0,1,.47,0h0a1.52,1.52,0,0,1,1.45.85h0a1.76,1.76,0,0,1,.17.56h0a14.2,14.2,0,0,1,4.61-.85h0a8,8,0,0,1,6.6,3.1h0a10.5,10.5,0,0,1,2,6.32h0a8,8,0,0,1-1.14,4.38h0c-2,3-5.39,3.61-7.75,3.61h0a13.89,13.89,0,0,1-2.48-.22h0C55.1,35.86,56,44.14,56,44.71h0c0,.1,0,.23,0,.38h0c0,.66-.29,1.65-2.14,1.83h0l-.45,0h0a1.57,1.57,0,0,1-1.32-.53ZM51,16.94c-.85.17-1,.53-1,1.13h0c0,.63.25,1.42.25,2.13h0c0,.63.49,6.9,1,13h0c.49,6.09,1,12,1,12h0v.06s0,.1,0,.25h0c0,.4.09,1,1.23,1h0l.41,0h0c1.73-.24,1.76-.87,1.79-1.44h0c0-.13,0-.26,0-.38h0c0-.26-.28-3-.55-5.55h0c-.28-2.6-.56-5.12-.56-5.12h0l0-.28.27.07a12.87,12.87,0,0,0,2.66.26h0c2.31,0,5.53-.59,7.43-3.44h0a7.66,7.66,0,0,0,1.07-4.16h0c0-4.17-2.47-9-8.25-9h0a14.15,14.15,0,0,0-4.71.91h0l-.26.09v-.28s0-.07,0-.2h0a1.69,1.69,0,0,0-.15-.45h0a1.09,1.09,0,0,0-1.09-.63h0a2.1,2.1,0,0,0-.41,0Zm3.47,13.88-.16,0-1-9.12.08-.07a5.11,5.11,0,0,1,3.06-.87h0a6,6,0,0,1,3.6,1.12h0a4.6,4.6,0,0,1,1.75,3.82h0c0,.11,0,.22,0,.33h0a4.49,4.49,0,0,1-2.6,4.07h0a8.78,8.78,0,0,1-3.82.78h0a8.77,8.77,0,0,1-.9,0Zm.9-.35A8.62,8.62,0,0,0,59,29.73h0A4.09,4.09,0,0,0,61.42,26h0c0-.11,0-.21,0-.31h0c0-3.31-2.6-4.53-5-4.55h0a4.85,4.85,0,0,0-2.73.73h0l.95,8.59.7,0Z"/><path class="cls-12" d="M51.15,17.37s-.88-.23-.81.55.2,1.44.23,2.12,1.89,23.59,1.89,23.59-.1,2.41.68,2.28.46-1.11.39-2L51.68,21.05s.68-1.76,5.8-2.44A9.52,9.52,0,0,0,51.77,20s-.22.13-.26-.33S51.61,17.3,51.15,17.37Z"/><path class="cls-12" d="M62.79,23.17s1.56,3.71-1,6.42a7,7,0,0,1-6.15,1.92s4.29,1.46,6.87-2A5.8,5.8,0,0,0,62.79,23.17Z"/></g></g></svg>