<?xml version="1.0" encoding="utf-8"?>
<!-- Generator: Adobe Illustrator 26.0.3, SVG Export Plug-In . SVG Version: 6.00 Build 0)  -->
<svg version="1.1" id="Layer_1" xmlns="http://www.w3.org/2000/svg" xmlns:xlink="http://www.w3.org/1999/xlink" x="0px" y="0px"
	 viewBox="0 0 200 200" style="enable-background:new 0 0 200 200;" xml:space="preserve">
<style type="text/css">
	.st0{fill:#31A734;}
	.st1{fill:#FCB900;}
	.st2{fill:#E64117;}
	.st3{fill:#4A1D81;}
</style>
<path class="st3" d="M94.73,188.96c-1.58,0-3.3-0.16-5.1-0.49c-6.06-1.09-13.14-5.64-14.09-31.41l-0.04-0.98l-0.21-0.96
	c-0.9-4.17-1.6-8.32-2.19-11.88l-1.76-10.6l-10.66,1.34c-3.98,0.5-8.13,1.21-12.15,1.9c-7.6,1.3-15.46,2.65-22.5,2.65
	c-2.9,0-5.43-0.22-7.74-0.68c-5.62-1.11-9.34-3.43-11.34-7.08C4,125.39,4.43,116.52,8.1,107.05c6.01-15.49,26.84-21.97,46.43-26.26
	l8.71-1.91l0.08-8.91c0.2-23.29,2.99-46.15,21.82-55.64c4.33-2.18,8.6-3.29,12.67-3.29c14.07,0,24.75,13.32,24.86,30.97
	c0.01,3.42,0.06,6.95,0.12,10.49l0.2,13.92l12.03-1.11c5.72-0.53,13.25-1.13,20.7-1.13c13.95,0,24.5,2.18,32.26,6.67
	c4.09,2.37,6.27,5.34,6.86,9.34c1.4,9.51-5.69,22.83-13.43,31.09c-10.19,10.87-33.14,12.62-49.89,13.89l-9.23,0.7l-1.03,9.2
	c-0.77,6.87-1.68,12.87-2.77,18.35C113.37,178.99,106.71,188.96,94.73,188.96C94.73,188.96,94.73,188.96,94.73,188.96z"/>
</svg>
