<svg id="Layer_1" data-name="Layer 1" xmlns="http://www.w3.org/2000/svg" viewBox="0 0 85.04 56.69"><defs><style>.cls-1{opacity:0.4;}.cls-2{opacity:0.29;}.cls-3{fill:#8b109a;}.cls-4{fill:#5f2d81;}.cls-5{fill:#c342b1;opacity:0.48;}.cls-6,.cls-7{fill:#e694d3;}.cls-6{opacity:0.52;}.cls-7{opacity:0.37;}.cls-8{fill:#d338a4;}.cls-9{fill:#b20094;}.cls-10{fill:#fff;opacity:0.21;}.cls-11,.cls-12{fill:#f9f1d1;}.cls-11{opacity:0.34;}.cls-12{opacity:0.25;}</style></defs><path class="cls-1" d="M20.57,45.79c-.42,0-3.51.09-4,1.84C15.9,50,20.33,50.29,21.5,50.4a18.36,18.36,0,0,0,6.61-.31c2.28-.63,5.69-3.21,7.69-1,1.84,2,4.52,2,6.94,1.47,1-.23,6.22-1.24,4.13-3.12C43.87,44.74,20.57,45.79,20.57,45.79Z"/><path class="cls-1" d="M22.93,47.1s-3.76,0-4,.81,1.7,1.84,6.7,1.54S30,46.49,22.93,47.1Z"/><path class="cls-1" d="M41.12,46.81s-3.85-.25-4.35.51.76,1.25,2.84,1.58a13.61,13.61,0,0,0,3.55-.07c.64-.07,2.46-.51,1.84-1.36S42,46.87,41.12,46.81Z"/><path class="cls-1" d="M54.19,47.44s-3.9.12-4.37,1.3S54,51,59.75,49.92,67.43,46,54.19,47.44Z"/><path class="cls-2" d="M55.52,47.6s-2.46.07-2.75.82,2.61,1.42,6.26.75S63.87,46.71,55.52,47.6Z"/><path class="cls-3" d="M57.84,23.53S58.26,21,56,20.91c0,0-2-.32-2.41,1.36s0,23.57,0,23.57-.11,2.51,2.82,2.41,3.36-1.16,3.25-2.94S57.11,25.1,61.3,25.1s2.2,2.93,4.19,2.62,4.29-1,1.67-5.77S58.57,20.8,57.84,23.53Z"/><path class="cls-4" d="M53.73,47.27a2.81,2.81,0,0,1-.39-1.4h0v0h0s-.19-9.73-.19-16.72h0a62.7,62.7,0,0,1,.19-6.9h0a2.15,2.15,0,0,1,2.24-1.55h0a2.49,2.49,0,0,1,.39,0h0a2,2,0,0,1,2.08,1.86h0a7,7,0,0,1,5.46-3.12h0a4.29,4.29,0,0,1,3.84,2.41h0a7.94,7.94,0,0,1,1.2,3.53h0a2.14,2.14,0,0,1-1,1.91h0a5.43,5.43,0,0,1-2,.63h0l-.31,0h0a.93.93,0,0,1-.88-.53h0c-.15-.29-.21-.61-.35-.92h0c-.27-.59-.73-1.18-2.68-1.19h0c-.79,0-1.38.83-1.75,2.34h0a25.81,25.81,0,0,0-.5,5.75h0c0,5.13.72,10.92.78,11.9h0c0,.16,0,.31,0,.46h0a2.39,2.39,0,0,1-.69,1.93h0a4.42,4.42,0,0,1-2.77.77h-.2a2.66,2.66,0,0,1-2.45-1.19Zm0-25a65.83,65.83,0,0,0-.18,6.8h0c0,7,.19,16.7.19,16.73h0v0h0A2.14,2.14,0,0,0,56.2,48h.17a4,4,0,0,0,2.5-.67h0a2,2,0,0,0,.56-1.61h0c0-.14,0-.29,0-.43h0c0-.95-.78-6.77-.78-11.93h0a26.34,26.34,0,0,1,.51-5.85h0c.38-1.54,1-2.65,2.16-2.66h0A3.26,3.26,0,0,1,64,25.8h0a5.5,5.5,0,0,1,.66,1.43h0a.49.49,0,0,0,.51.3h0l.25,0h0a5.09,5.09,0,0,0,1.85-.58h0a1.7,1.7,0,0,0,.82-1.55h0A7.38,7.38,0,0,0,67,22.06h0a3.81,3.81,0,0,0-3.47-2.19h0c-2.42,0-5,2.08-5.47,3.71h0l-.41-.09a2.45,2.45,0,0,0,0-.41h0a1.74,1.74,0,0,0-1.74-2h0a2.47,2.47,0,0,0-.34,0h0a1.71,1.71,0,0,0-1.83,1.23Zm4.3,1.24-.21,0,.21,0Z"/><path class="cls-5" d="M57.26,24.21s.48-2.67-1.15-2.83-2,.57-2,2.25l.31,21.79a2.09,2.09,0,0,0,2.31,2c2.3,0,2.36-2.41,2.25-3.51s-2.83-19.9,2.57-20c0,0,2.36-.74,3.51,2.09,0,0,.36.94.89.74s1.83-.53,1.78-1.63A5.72,5.72,0,0,0,65,20.89c-2.45-1.38-5.78,1-6.75,3.26C57.74,25.25,57.42,25.41,57.26,24.21Z"/><path class="cls-6" d="M67,25.15s-1.54-6.26-7.11-2.59c0,0,2-2.42,4.62-1.41S68.2,25.68,67,25.15Z"/><path class="cls-7" d="M57.84,43.06c.18,3-.21,4.09-1.39,4.07-.94,0,.59.06.24-4.44S57,22,55.4,22.28c-1,.17,0-.64.49-.57,0,0,1.11-.36,1.11,1.86C57,23.57,57.63,39.63,57.84,43.06Z"/><path class="cls-8" d="M40.66,41.75c-.84-2.83-5.44-9.74-10.89-11.63,0,0,11.84,1.26,13.72-8.48s-5-17.81-19.06-13.41a2.65,2.65,0,0,0-3.67-2c-3,1-1.15,1.47-1.47,5.87s1.37,33.62,1.37,33.62-.32,2.62,1.67,2.62,4.82.94,4.61-2.09-1.05-12.78-1.05-12.78a9.15,9.15,0,0,1,8,6.28c2.31,6.18,2.2,8.17,7.76,7.65S41.5,44.58,40.66,41.75ZM25.26,25,24.74,14.1c2.2-1.36,12.05-1.47,11.84,5.55S25.26,25,25.26,25Z"/><path class="cls-9" d="M22.33,48.56a1.67,1.67,0,0,1-1.6-1h0a3.4,3.4,0,0,1-.3-1.49h0a2.64,2.64,0,0,1,0-.39h0c-.05-.78-1.41-24.53-1.41-32h0c0-.71,0-1.27,0-1.66h0c0-.36,0-.69,0-1h0c0-1.69-.32-2.62-.33-3.34h0c0-.79.49-1.25,1.9-1.72h0A3.88,3.88,0,0,1,22,5.81h0A2.81,2.81,0,0,1,24.57,8h0a24.53,24.53,0,0,1,7.16-1.18h0a12.39,12.39,0,0,1,9.13,3.41h0A11.65,11.65,0,0,1,44,18.55h0a17.07,17.07,0,0,1-.3,3.13h0c-1.55,7.91-9.48,8.71-12.63,8.71H31c5.05,2.41,9.1,8.6,9.91,11.31h0l-.2.06-.2.06c-.8-2.75-5.42-9.66-10.76-11.49h0a.21.21,0,0,1-.14-.24h0a.21.21,0,0,1,.23-.16h0s.48,0,1.28,0h0c3.12,0,10.76-.79,12.22-8.37h0a16.16,16.16,0,0,0,.3-3.05h0c0-6.38-4.11-11.33-11.86-11.34h0a24.35,24.35,0,0,0-7.24,1.22h0a.2.2,0,0,1-.17,0h0a.21.21,0,0,1-.1-.14h0A1.9,1.9,0,0,0,24.13,8h0a3.43,3.43,0,0,0-.36-.72h0a2.11,2.11,0,0,0-1.82-1h0a3.4,3.4,0,0,0-1.12.21h0c-1.42.51-1.61.75-1.62,1.32h0c0,.59.33,1.61.33,3.34h0c0,.31,0,.65,0,1h0c0,.37,0,.93,0,1.63h0c0,3.77.35,11.76.7,18.81h0c.35,7,.7,13.15.7,13.16h0v0s0,.13,0,.35h0a2.91,2.91,0,0,0,.25,1.3h0a1.26,1.26,0,0,0,1.23.73h0c.79,0,1.67.14,2.44.14h0c1.18,0,1.94-.23,2-1.72h0c0-.09,0-.19,0-.29h0c-.21-3-1-12.76-1.05-12.78h0a.27.27,0,0,1,.06-.16h0a.23.23,0,0,1,.16-.06h0a9.36,9.36,0,0,1,8.15,6.42h0c1,2.78,1.59,4.72,2.36,5.9h0c.77,1.18,1.69,1.68,3.68,1.69h0c.44,0,.94,0,1.5-.08h0a6,6,0,0,0,1.81-.37h0c.34-.16.4-.29.41-.44h0c0-.35-.63-1.07-1.41-1.85h0a7.37,7.37,0,0,1-1.94-2.73h0l.2-.06.2-.06a7.12,7.12,0,0,0,1.84,2.56h0c.76.8,1.49,1.44,1.53,2.14h0a.93.93,0,0,1-.66.82h0a6.5,6.5,0,0,1-2,.41h0c-.56.05-1.07.08-1.53.08h0c-2.05,0-3.21-.58-4-1.88h0c-.82-1.28-1.37-3.21-2.4-6h0a9.22,9.22,0,0,0-4.74-5.34h0a8.53,8.53,0,0,0-2.8-.79h0c.13,1.52.84,9.78,1,12.54h0c0,.11,0,.22,0,.32h0a2,2,0,0,1-.73,1.74h0a2.85,2.85,0,0,1-1.66.4h0c-.81,0-1.7-.14-2.44-.14Zm2.9-23.36,0-.21h0l0,.21a.2.2,0,0,1-.17-.2h0l-.53-10.89a.23.23,0,0,1,.1-.19h0a8.25,8.25,0,0,1,3.88-.76h0A11.07,11.07,0,0,1,34,14.48h0a5.47,5.47,0,0,1,2.8,4.95h0v.23h0a5.11,5.11,0,0,1-3.23,4.72h0a13.92,13.92,0,0,1-5.56,1h0a20.55,20.55,0,0,1-2.77-.18ZM28,25a13.58,13.58,0,0,0,5.39-1h0a4.68,4.68,0,0,0,3-4.35h0v-.22h0a5,5,0,0,0-2.6-4.59h0a10.57,10.57,0,0,0-5.26-1.26h0a8.24,8.24,0,0,0-3.55.64h0l.51,10.59A22.44,22.44,0,0,0,28,25Z"/><path class="cls-10" d="M40,41.61c-3.42-7.47-8.66-9.84-11.31-11.52s1.19-.84,1.19-.84c13.55.14,13-10.54,13-10.54C42.2,5.65,29.14,8,26.56,8.72s-2.45,1.82-2.73.07S22,6.07,20.48,7s.07,2.58-.28,4.6,1.19,30.17,1.19,33.17,1.54,2.38,1.54,2.38c3.21.42,2.44-1.82,2.44-1.82s-.77-11.45-.77-12.85,1.4-.83,1.4-.83c5.86.69,9.36,5.73,10.89,10.82,1.26,4.19,1.57,4.77,4.68,4.33C45,46.29,42.54,47.25,40,41.61ZM24.32,25.2l-.63-11s-.21-.91,1.19-1.4,12.29-2.51,13.83,5.94S25,27.65,24.32,25.2Z"/><path class="cls-11" d="M32.35,8.58S41,8.72,42,16.75c0,0-.07,1.47-.42.42A12.14,12.14,0,0,0,32.35,9S31.1,8.65,32.35,8.58Z"/><path class="cls-12" d="M23.62,30.93s1.12,14.17.63,14.73-.84-2.23-1.12-9.36S22,11.79,21.74,9.28s.21-2.44.56-1.4.35,3.36,1.46,2.59-1,1.11-1,3.28l.76,10.75s0,4.63,2.45,5.31S23.55,29,23.62,30.93Z"/><path class="cls-12" d="M33.47,33.86a18.74,18.74,0,0,1,5.87,8c1.6,4.15,3.35,4.54,1.88,4.61s-1.67-1-2.65-4.12A27.19,27.19,0,0,0,33.47,33.86Z"/></svg>