<svg id="Layer_1" data-name="Layer 1" xmlns="http://www.w3.org/2000/svg" viewBox="0 0 85.04 56.69"><defs><style>.cls-1{opacity:0.4;}.cls-2{fill:#00cbbb;}.cls-3{fill:#07a0a3;}.cls-3,.cls-8{opacity:0.43;}.cls-4{fill:#0ca0a3;}.cls-5,.cls-6{fill:#97dfc5;}.cls-6{opacity:0.84;}.cls-7{fill:#00a9bb;}.cls-8{fill:#00889a;}.cls-9{fill:#008393;}.cls-10{fill:#006877;}.cls-11{fill:#00889e;}.cls-12,.cls-13{fill:#c2dede;}.cls-12{opacity:0.39;}.cls-13{opacity:0.47;}</style></defs><path class="cls-1" d="M67.76,50.63c0,.81-4.08,1.46-9.12,1.46s-9.12-.65-9.12-1.46,4.08-1.45,9.12-1.45S67.76,49.83,67.76,50.63Z"/><path class="cls-1" d="M64.87,50.51c0,.56-2.84,1-6.34,1s-6.35-.45-6.35-1,2.84-1,6.35-1S64.87,50,64.87,50.51Z"/><path class="cls-2" d="M63.27,28.22s0-2-1.8-1.84-1.65,2-.86,3.06a20.24,20.24,0,0,0,3.22,3.19c3.93,3.39,5,10,1.64,14.21a10.45,10.45,0,0,1-3.18,2.7,10.56,10.56,0,0,1-10.72-.78c-7.33-5.34-1.21-13.93,3.09-10.38,0,0,.78.94.49,1.44-1.12,1.88.76,3,2.35,3.35a4.23,4.23,0,0,0,5-3.13c1.07-4.34-3.22-6.52-5.42-9.47A6.41,6.41,0,0,1,56,26.69s-.53-5.62,6.14-6.53c0,0,7.26-.31,8.25,6.37,0,0,.48,4.4-3.9,4.64A2.85,2.85,0,0,1,63.27,28.22Z"/><path class="cls-3" d="M61.47,26.38c1.76-.14,1.8,1.84,1.8,1.84a2.85,2.85,0,0,0,3.17,3A3.71,3.71,0,0,0,70,29a5.24,5.24,0,0,0,.39-2.43,7.07,7.07,0,0,0-1.55-3.62l.13.65a4.82,4.82,0,0,1,.54,2.83,3.44,3.44,0,0,1-1.29,2.12,2.46,2.46,0,0,1-3.67-.66c-.76-1.22-.57-2.15-2.08-2.86A2.74,2.74,0,0,0,59,28.93c1,1.9,2.88,3.06,4.33,4.56a10.23,10.23,0,0,1,2.8,5.14c.75,4-1,9.27-4.94,10.92a13.08,13.08,0,0,1-4.3,1l-.49,0a10.77,10.77,0,0,0,5.9-1,10.45,10.45,0,0,0,3.18-2.7c3.4-4.16,2.29-10.82-1.64-14.21a20.24,20.24,0,0,1-3.22-3.19C59.82,28.42,59.78,26.52,61.47,26.38Z"/><path class="cls-3" d="M53,40c-1.1,1.9,4.48,6.69,8.37,2.2a4.54,4.54,0,0,0,.78-1.27,4.2,4.2,0,0,1-4.65,2.26c-1.59-.38-3.47-1.47-2.35-3.35.29-.5-.49-1.44-.49-1.44a3.36,3.36,0,0,0-2-.82l0,.17S54.09,38.07,53,40Z"/><path class="cls-4" d="M51.44,48.94C48.56,46.85,47.68,44.22,48,42h0c.38-2.78,2.58-5,4.94-4.65h0a3.72,3.72,0,0,1,1.88.86h0l0,0a2.32,2.32,0,0,1,.59,1.43h0a.62.62,0,0,1-.09.26h0a2.07,2.07,0,0,0-.29.79h0c-.19,1.13,1.19,1.92,2.51,2.23h0a2,2,0,0,0,.35.07h0a4,4,0,0,0,4.35-3h0a4.62,4.62,0,0,0,.11-.61h0c.54-3.74-3.32-5.81-5.49-8.68h0a6.58,6.58,0,0,1-1.16-4h0a6.09,6.09,0,0,1,.05-1.17h0c.22-1.75,1.4-5,6.31-5.62h0a8.31,8.31,0,0,1,1.48.1h0c2.2.28,6.27,1.54,7,6.47h0a5.87,5.87,0,0,1,0,1.2h0a4,4,0,0,1-4.08,3.69h0a3.64,3.64,0,0,1-.82,0h0a2.78,2.78,0,0,1-2.29-1.71h0a4.05,4.05,0,0,1-.3-1.42h0a2.44,2.44,0,0,0-.17-.77h0a1.24,1.24,0,0,0-1-.84h0a1.57,1.57,0,0,0-.38,0h0a1.14,1.14,0,0,0-1.16,1.05h0a2.43,2.43,0,0,0,.46,1.65h0A20.66,20.66,0,0,0,64,32.46h0a11.31,11.31,0,0,1,3.65,9.88h0a9.35,9.35,0,0,1-2,4.65h0a11,11,0,0,1-3.26,2.75h0a11,11,0,0,1-6.34,1h0a10.08,10.08,0,0,1-4.61-1.82Zm-3-6.88c-.28,2.06.5,4.5,3.27,6.51h0a9.74,9.74,0,0,0,4.41,1.75h0a10.63,10.63,0,0,0,6.07-1h0A10.47,10.47,0,0,0,65.3,46.7h0a8.84,8.84,0,0,0,1.87-4.42h0a10.89,10.89,0,0,0-3.49-9.48h0a20.61,20.61,0,0,1-3.25-3.22h0a2.78,2.78,0,0,1-.56-2h0a1.61,1.61,0,0,1,1.58-1.44h0a1.82,1.82,0,0,1,.47,0h0a1.69,1.69,0,0,1,1.37,1.12h0a2.62,2.62,0,0,1,.2.93h0a3.17,3.17,0,0,0,0,.37h0a3.73,3.73,0,0,0,.24.87h0a2.29,2.29,0,0,0,1.93,1.44h0a4.31,4.31,0,0,0,.74,0h0a3.54,3.54,0,0,0,3.65-3.3h0a4.74,4.74,0,0,0,0-1.08h0c-.69-4.64-4.48-5.79-6.62-6.09h0a9.31,9.31,0,0,0-1.38-.09h0c-4.68.65-5.66,3.59-5.9,5.23h0a5.19,5.19,0,0,0,0,1.08h0a6.17,6.17,0,0,0,1.07,3.74h0c2,2.75,6.12,4.88,5.58,9h0c0,.22-.07.43-.12.65h0a4.49,4.49,0,0,1-4.85,3.38h0a2.83,2.83,0,0,1-.4-.08h0c-1.35-.32-3-1.15-2.85-2.74h0A2.64,2.64,0,0,1,55,39.7h0a.36.36,0,0,0,0-.09h0a1.31,1.31,0,0,0-.22-.68h0a3.19,3.19,0,0,0-.27-.39h0a3.19,3.19,0,0,0-1.63-.74h0c-2-.27-4.08,1.66-4.43,4.26Z"/><path class="cls-5" d="M66.72,22.16a6.85,6.85,0,0,0-2.9-1.11c-3.33-.46-6.87,1.42-7.11,5-.18,2.76,1.44,5.06,3.33,6.89s4.05,3.93,3.4,6.76a5.77,5.77,0,0,1-1.11,2.39c-2.48,2.81,5.21-2.83-.76-8.39-2-1.89-4.62-4.88-4-7.89A4.88,4.88,0,0,1,63.15,22,7.45,7.45,0,0,1,66,23.08s2.22,1.56,1.89,3.45S70.38,24.59,66.72,22.16Z"/><path class="cls-6" d="M52.46,38.39a3.21,3.21,0,0,0-2.29,2.17c-1.24,3.1,2.13,5.62,4.88,5.76a6.77,6.77,0,0,0,4.48-1.16c.32-.22,1.27-.76,1.4-1.14,0,0,.12-.36-.3-.07a7.43,7.43,0,0,1-3.25.77c-2,.17-4.58-.65-5.27-2.75a3.73,3.73,0,0,1,.07-2.29C52.24,39.54,53,38.31,52.46,38.39Z"/><path class="cls-1" d="M41.78,49.35c0,1.09-5.57,2-12.44,2s-12.44-.89-12.44-2,5.57-2,12.44-2S41.78,48.25,41.78,49.35Z"/><path class="cls-1" d="M37.83,49.18c0,.76-3.87,1.38-8.65,1.38s-8.65-.62-8.65-1.38,3.87-1.38,8.65-1.38S37.83,48.41,37.83,49.18Z"/><path class="cls-7" d="M36.18,45.75l-.14.11Z"/><path class="cls-7" d="M29.63,48.63a18.58,18.58,0,0,0,5.5-2.85c4.85-3.65,5.34-11.43,2.92-16.61a14.28,14.28,0,0,0-5.63-6c-2.5-1.55-5.47-2.46-7.49-4.7a3.85,3.85,0,0,1,3.29-6.57c2.3.43,2.38,1.76,3.84,3.17l.18.16c2.32,0,5-1.23,5.8-3a5.24,5.24,0,0,0,.28-.69c0-.06,0-.12,0-.18a6.7,6.7,0,0,0-1.72-3.66l-.4-.85a9.62,9.62,0,0,1,2.35,2.47h0C34.32,2.92,26.07,5.4,26.07,5.4,17.32,9,20,16.46,20,16.46a9,9,0,0,0,2.87,4.89c4,3.26,10.64,4.71,10.7,11a5.94,5.94,0,0,1-5.68,6c-2.31,0-5.25-.79-4.38-3.75.23-.77-1.17-1.78-1.17-1.78-7.11-3.34-12.43,10.52-.57,15.21a14.74,14.74,0,0,0,13.8-1.85A15.2,15.2,0,0,1,29,48.84Z"/><path class="cls-7" d="M36.38,45.59l-.14.11Z"/><path class="cls-7" d="M36.65,45.37l-.2.17Z"/><path class="cls-7" d="M35.78,46.06l-.18.13Z"/><path class="cls-7" d="M36,45.91l-.16.12Z"/><path class="cls-8" d="M35.82,46l0,0Z"/><path class="cls-8" d="M36,45.86l-.06,0Z"/><path class="cls-8" d="M36.24,45.7l-.06,0Z"/><path class="cls-8" d="M36.45,45.54l-.07.05Z"/><path class="cls-8" d="M35.6,46.19h0Z"/><path class="cls-7" d="M36.38,15.82c-3.29,1.65-5.55.74-5.55.74l-.13,0a3.86,3.86,0,0,0,5.16,2.35l.14,0,0,0,.07,0,.06,0,.07,0,.06,0,.07,0,.06,0,.06,0,.06,0,.06,0,.06,0,0,0,.06,0,.05,0,.06,0,.06,0,0,0,.05,0,.06,0,.05,0,.06,0,0,0,.06,0,0,0,.06,0,0,0,.06,0,0,0,.06,0h0l.16-.1h0l.06,0,0,0,0,0,0,0,.05,0,0,0,0,0,0,0,0,0,0,0s0,0,0,0l0,0,0,0,0,0,0,0,0,0,0,0,0,0,0,0,0,0,0,0,0,0,0,0,0,0,0,0,0,0,0,0,0,0,0,0,0-.06,0,0,0-.07s0,0,0,0l0-.05,0,0,0,0,0,0,0,0,0,0,0-.05,0,0,0,0,0,0,0-.05s0,0,0,0l0-.05,0,0a.17.17,0,0,1,0-.05l0,0,0-.06,0,0,0-.06v0l0-.06v0l0-.06v0l0-.07h0c0-.14.1-.27.14-.41h0a.24.24,0,0,0,0-.08h0a.24.24,0,0,1,0-.08h0l0-.07h0s0-.05,0-.07h0s0-.05,0-.07h0l0-.08h0a3.06,3.06,0,0,0,.05-.32h0a.17.17,0,0,0,0-.07v-.22a.07.07,0,0,1,0,0v-.18h0a7.65,7.65,0,0,0-.39-2.87A5.29,5.29,0,0,1,36.38,15.82Z"/><path class="cls-8" d="M36.38,15.82c-3.29,1.65-5.55.74-5.55.74l-.13,0a3.86,3.86,0,0,0,5.16,2.35l.14,0,0,0,.07,0,.06,0,.07,0,.06,0,.07,0,.06,0,.06,0,.06,0,.06,0,.06,0,0,0,.06,0,.05,0,.06,0,.06,0,0,0,.05,0,.06,0,.05,0,.06,0,0,0,.06,0,0,0,.06,0,0,0,.06,0,0,0,.06,0h0l.16-.1h0l.06,0,0,0,0,0,0,0,.05,0,0,0,0,0,0,0,0,0,0,0s0,0,0,0l0,0,0,0,0,0,0,0,0,0,0,0,0,0,0,0,0,0,0,0,0,0,0,0,0,0,0,0,0,0,0,0,0,0,0,0,0-.06,0,0,0-.07s0,0,0,0l0-.05,0,0,0,0,0,0,0,0,0,0,0-.05,0,0,0,0,0,0,0-.05s0,0,0,0l0-.05,0,0a.17.17,0,0,1,0-.05l0,0,0-.06,0,0,0-.06v0l0-.06v0l0-.06v0l0-.07h0c0-.14.1-.27.14-.41h0a.24.24,0,0,0,0-.08h0a.24.24,0,0,1,0-.08h0l0-.07h0s0-.05,0-.07h0s0-.05,0-.07h0l0-.08h0a3.06,3.06,0,0,0,.05-.32h0a.17.17,0,0,0,0-.07v-.22a.07.07,0,0,1,0,0v-.18h0a7.65,7.65,0,0,0-.39-2.87A5.29,5.29,0,0,1,36.38,15.82Z"/><path class="cls-7" d="M32.81,21.8a29.75,29.75,0,0,1-5.5-3.22c-1.43-1.13-2.16-3.7.1-4.48a2.06,2.06,0,0,1,2.4.61l.06-.07a4.73,4.73,0,0,0,2.37.57l-.18-.16c-1.46-1.41-1.54-2.74-3.84-3.17a3.85,3.85,0,0,0-3.29,6.57c2,2.24,5,3.15,7.49,4.7a14.28,14.28,0,0,1,5.63,6c2.42,5.18,1.93,13-2.92,16.61a18.58,18.58,0,0,1-5.5,2.85l-.66.21a15.2,15.2,0,0,0,6.6-2.64h0l.18-.13,0,0,.16-.12.06,0,.14-.11.06,0,.14-.11.07-.05.2-.17A15.13,15.13,0,0,0,40,40.58C43.2,33.72,39.36,25,32.81,21.8Z"/><path class="cls-8" d="M32.81,21.8a29.75,29.75,0,0,1-5.5-3.22c-1.43-1.13-2.16-3.7.1-4.48a2.06,2.06,0,0,1,2.4.61l.06-.07a4.73,4.73,0,0,0,2.37.57l-.18-.16c-1.46-1.41-1.54-2.74-3.84-3.17a3.85,3.85,0,0,0-3.29,6.57c2,2.24,5,3.15,7.49,4.7a14.28,14.28,0,0,1,5.63,6c2.42,5.18,1.93,13-2.92,16.61a18.58,18.58,0,0,1-5.5,2.85l-.66.21a15.2,15.2,0,0,0,6.6-2.64h0l.18-.13,0,0,.16-.12.06,0,.14-.11.06,0,.14-.11.07-.05.2-.17A15.13,15.13,0,0,0,40,40.58C43.2,33.72,39.36,25,32.81,21.8Z"/><path class="cls-7" d="M38.53,9.27A9.62,9.62,0,0,0,36.18,6.8l.4.85a6.7,6.7,0,0,1,1.72,3.66c0,.06,0,.12,0,.18A6.26,6.26,0,0,0,38.6,10C38.61,9.79,38.54,9.51,38.53,9.27Z"/><path class="cls-8" d="M38.53,9.27A9.62,9.62,0,0,0,36.18,6.8l.4.85a6.7,6.7,0,0,1,1.72,3.66c0,.06,0,.12,0,.18A6.26,6.26,0,0,0,38.6,10C38.61,9.79,38.54,9.51,38.53,9.27Z"/><path class="cls-9" d="M37.29,14.66a5,5,0,0,0,1-3.17,5.24,5.24,0,0,1-.28.69c-.84,1.8-3.48,3-5.8,3A3.45,3.45,0,0,0,37.29,14.66Z"/><path class="cls-10" d="M39.43,10.91s0-.07,0-.1l-.05-.11,0-.07c0-.05,0-.09-.07-.14s0,0,0,0l-.07-.15,0,0a10.74,10.74,0,0,0-.59-1c0,.24.08.52.07.75a6.26,6.26,0,0,1-.28,1.47,5,5,0,0,1-1,3.17,3.45,3.45,0,0,1-5,.55,4.73,4.73,0,0,1-2.37-.57l-.06.07a3.52,3.52,0,0,1,.7,1.27,3.25,3.25,0,0,0,.19.55l.13,0s2.26.91,5.55-.74a5.29,5.29,0,0,0,3.17-4.63,1.54,1.54,0,0,0-.08-.19Z"/><path class="cls-8" d="M20.64,35.6c-.83,3,8.45,7.54,12.17.07a6.27,6.27,0,0,0,.62-2,5.89,5.89,0,0,1-5.54,4.71c-2.31,0-5.25-.79-4.38-3.75.23-.77-1.17-1.78-1.17-1.78a4.84,4.84,0,0,0-3-.43l.12.23S21.46,32.62,20.64,35.6Z"/><path class="cls-11" d="M21.65,48.35c-4.65-1.84-6.77-5.12-7.13-8.25h0c-.46-3.92,1.78-7.65,5.1-8.06h0a5.16,5.16,0,0,1,2.86.51h0l0,0s1.16.77,1.31,1.74h0a.86.86,0,0,1,0,.39h0a3,3,0,0,0-.12,1.17h0c.14,1.61,2.3,2.21,4.2,2.17h0a4.07,4.07,0,0,0,.5,0h0a5.66,5.66,0,0,0,4.86-5.66h0a8,8,0,0,0,0-.86h0c-.58-5.28-6.57-6.75-10.53-9.9h0a9.29,9.29,0,0,1-3-5h0A8.06,8.06,0,0,1,19.36,15h0c-.31-2.45.17-7.24,6.62-9.86h0A13,13,0,0,1,28,4.71h0c3.1-.37,9.1-.09,11.82,6.37h0a7.82,7.82,0,0,1,.37,1.65h0A5.62,5.62,0,0,1,36,19.18h0a5.88,5.88,0,0,1-1.14.25h0a3.88,3.88,0,0,1-3.71-1.54h0a5.58,5.58,0,0,1-.91-1.82h0a3.76,3.76,0,0,0-.49-1h0a1.77,1.77,0,0,0-1.68-.8h0a2.32,2.32,0,0,0-.52.13h0a1.6,1.6,0,0,0-1.21,1.83h0a3.25,3.25,0,0,0,1.21,2.09h0A29.21,29.21,0,0,0,33,21.51h0a15.91,15.91,0,0,1,8.42,12.18h0a13.07,13.07,0,0,1-1.06,7h0a15.07,15.07,0,0,1-3.47,4.89h0a15.51,15.51,0,0,1-8.27,3.61h0a14.3,14.3,0,0,1-6.93-.87ZM15.15,40c.34,2.9,2.26,5.95,6.74,7.73h0a13.59,13.59,0,0,0,6.61.83h0a15,15,0,0,0,7.94-3.46h0a14.68,14.68,0,0,0,3.31-4.68h0a12.45,12.45,0,0,0,1-6.69h0a15.3,15.3,0,0,0-8.08-11.68h0a30.24,30.24,0,0,1-5.56-3.25h0a3.92,3.92,0,0,1-1.44-2.51h0A2.27,2.27,0,0,1,27.3,13.8h0a4.42,4.42,0,0,1,.66-.15h0a2.4,2.4,0,0,1,2.26,1h0a4.24,4.24,0,0,1,.6,1.2h0l-.31.08.31-.07a3.09,3.09,0,0,0,.17.5h0a5.09,5.09,0,0,0,.62,1.1h0a3.26,3.26,0,0,0,3.14,1.29h0a6.5,6.5,0,0,0,1-.22h0a5,5,0,0,0,3.82-5.78h0a7.39,7.39,0,0,0-.33-1.48h0c-2.57-6.09-8.13-6.32-11.15-6h0a13.18,13.18,0,0,0-1.92.36h0c-6.13,2.53-6.45,6.87-6.2,9.18h0a7.46,7.46,0,0,0,.32,1.5h0a8.7,8.7,0,0,0,2.76,4.72h0c3.72,3,10,4.51,10.76,10.33h0a9.09,9.09,0,0,1,.06.93h0a6.3,6.3,0,0,1-5.42,6.29h0a5.46,5.46,0,0,1-.57,0h0c-2,0-4.54-.52-4.85-2.74h0a3.56,3.56,0,0,1,.15-1.41h0a.37.37,0,0,0,0-.15h0a1.67,1.67,0,0,0-.53-.84h0a4.86,4.86,0,0,0-.5-.44h0a4.58,4.58,0,0,0-2.49-.44h0c-2.84.34-5,3.69-4.54,7.36Z"/><path class="cls-12" d="M33.08,6.51A9.63,9.63,0,0,0,28.75,6c-4.7.54-8.86,4.33-7.93,9.3.72,3.83,3.72,6.38,7,8.22s6.89,3.93,7,8a8.2,8.2,0,0,1-.68,3.64c-2.39,4.71,6.11-5.68-4-11.17-3.43-1.86-8-5-8.25-9.32A6.87,6.87,0,0,1,28.15,7.5,10.43,10.43,0,0,1,32.41,8s3.57,1.34,3.78,4S38.92,8.55,33.08,6.51Z"/><path class="cls-13" d="M19.34,33.61c-1.49.61-2.17,2.31-2.36,3.77-.6,4.65,4.87,6.91,8.67,6.14a9.44,9.44,0,0,0,5.69-3.15c.36-.42,1.47-1.49,1.51-2,0,0,0-.54-.43,0-1,1.08-2.86,1.74-4.16,2.19-2.67.94-6.46.72-8.13-1.9a5.34,5.34,0,0,1-.72-3.14C19.45,35.26,20.07,33.31,19.34,33.61Z"/></svg>