<svg xmlns="http://www.w3.org/2000/svg" viewBox="0 0 85.04 56.69"><defs><style>.cls-1{isolation:isolate;}.cls-2{opacity:0.4;}.cls-3{fill:#c90e2e;}.cls-4{fill:#dd263d;}.cls-5{fill:none;}.cls-6{fill:#e5a015;}.cls-7{fill:#e6b413;}.cls-8{fill:#b70624;}.cls-9{fill:#f9b698;opacity:0.45;}.cls-10,.cls-13{fill:#f05662;}.cls-11{fill:#ffd600;}.cls-12{fill:#ff9d00;}.cls-13{mix-blend-mode:multiply;opacity:0.5;}.cls-14{fill:#b70f0f;}</style></defs><g class="cls-1"><g id="Layer_1" data-name="Layer 1"><path class="cls-2" d="M73.87,46.78c0,1.41-5.35,2.56-12,2.56s-12-1.15-12-2.56,5.35-2.57,12-2.57S73.87,45.36,73.87,46.78Z"/><path class="cls-2" d="M70.08,46.55c0,1-3.72,1.78-8.31,1.78s-8.32-.79-8.32-1.78,3.73-1.78,8.32-1.78S70.08,45.57,70.08,46.55Z"/><path class="cls-2" d="M38.91,46C38.91,47.11,33.56,48,27,48S15,47.11,15,46s5.35-2.06,12-2.06S38.91,44.84,38.91,46Z"/><path class="cls-2" d="M35.12,45.8c0,.79-3.72,1.43-8.31,1.43s-8.32-.64-8.32-1.43,3.73-1.43,8.32-1.43S35.12,45,35.12,45.8Z"/><path class="cls-3" d="M60.09,42.62c1.74-.37,1.92-2.61,2-4s.55-1.55.55-1.55l0,0c-.78,0-1.34.22-1.34.87,0,1,.18,4.35-2.2,4.3-1,0-1.64-.71-1.94-2.57C57.23,42,58.71,42.91,60.09,42.62Z"/><path class="cls-4" d="M54,21l-4.11.14s-1.19.09-1.1,1.6S49.38,25,50.89,25h2.88l-.55,12.54s-.23,6.45,3,8.06,7,.09,8.29-1.74c.94-1.4,1.3-4.67,1.09-6.42a1.76,1.76,0,0,0-1.47-.4c-.54,0-1.07,0-1.53,0l0,0s-.46.18-.55,1.55-.27,3.62-2,4c-1.38.29-2.86-.66-3-3-.38-2.38-.28-6.67,0-13.9l0-.22c1.58,0,3,0,3.73-.06,1.87-.13,1.69-1.46,1.78-2.88s-.32-2.29-3-2.29l-1.82,0L59,10.81s.55-2.33-1.6-2.33a5.37,5.37,0,0,0-2.42.3l-.69,8.57Z"/><path class="cls-3" d="M65.73,37.6a.53.53,0,0,0-.11-.21c.21,1.75-.15,5-1.09,6.42-1.24,1.83-5,3.34-8.29,1.74s-3-8.06-3-8.06L53.77,25H50.89c-1.51,0-2.06-.73-2.15-2.24s1.1-1.6,1.1-1.6L54,21l.37-3.62L55,8.78c-.43.23-.65.66-.75,1.42,0,0-.38,4.58-.78,10.2-1.92.05-3.37.11-3.37.11-1.51,0-2,.87-1.83,2.84a2.22,2.22,0,0,0,2.61,2.24,19.66,19.66,0,0,1,2.25-.08c-.28,4.43-.5,8.85-.53,11.78-.06,8,3.36,10.31,7.87,9.52S66,42.78,65.73,37.6Z"/><path class="cls-5" d="M59.06,10.68c.08-.49.22-2.2-1.63-2.2-2.15,0-3,.06-3.17,1.72,0,0,0,.24,0,.66A8.38,8.38,0,0,1,59.06,10.68Z"/><path class="cls-5" d="M54.09,12.27c0,.19,0,.39,0,.6a6.73,6.73,0,0,1,4.75-.27l.08-.61A7.69,7.69,0,0,0,54.09,12.27Z"/><path class="cls-6" d="M54.05,12.87c0,.39-.07.81-.1,1.25a5.51,5.51,0,0,1,.78-.37c0-.4.09-.79.13-1.19A5.29,5.29,0,0,0,54.05,12.87Z"/><path class="cls-7" d="M54.86,12.56c0,.4-.09.79-.13,1.19a6.4,6.4,0,0,1,4-.19l.12-1A7.25,7.25,0,0,0,54.86,12.56Z"/><path class="cls-6" d="M54.21,10.86l-.12,1.41a5.11,5.11,0,0,1,.83-.29c0-.46.08-.91.1-1.38A7.08,7.08,0,0,0,54.21,10.86Z"/><path class="cls-7" d="M55,10.6c0,.47-.06.92-.1,1.38a8.26,8.26,0,0,1,4,0L59,10.81a.58.58,0,0,0,0-.13A9.69,9.69,0,0,0,55,10.6Z"/><path class="cls-8" d="M54.23,44.91c-1.15-1.55-1.8-3.95-1.8-7.41h0v-.21h0c0-2.89.24-7.23.52-11.6h0c-1,0-1.8,0-2,.08h0a1.87,1.87,0,0,1-.42,0h0a2.43,2.43,0,0,1-2.4-2.44h0a6.29,6.29,0,0,1,0-.73h0c0-1.5.66-2.3,2-2.31h0s1.37-.06,3.21-.11h0c.39-5.54.77-10,.77-10h0a1.8,1.8,0,0,1,1-1.63h0a6.47,6.47,0,0,1,2.39-.26h0A1.74,1.74,0,0,1,59,9h0a2.13,2.13,0,0,1,.33,1.22h0a4.35,4.35,0,0,1-.06.64h0L58,20.11h1.61a4.26,4.26,0,0,1,2.56.56h0a1.8,1.8,0,0,1,.65,1.58h0c0,.11,0,.23,0,.34h0a6.9,6.9,0,0,1-.23,2h0a1.75,1.75,0,0,1-1.72,1.08h0c-.64,0-1.84.05-3.21.05H57.3v0c-.14,3.81-.23,6.8-.23,9.13h0a22.41,22.41,0,0,0,.46,5.68h0c.34,1.1.79,1.44,1.55,1.47h.05a1.68,1.68,0,0,0,1.66-1.27h0a7.2,7.2,0,0,0,.31-2.33h0c0-.2,0-.38,0-.52h0c0-.62.49-.93,1-1h0a17.29,17.29,0,0,1,2-.1h.19c1.35,0,1.58.7,1.58.76h0l-.18,0h0l.18,0h0v0c0,.48,0,.94,0,1.39h0c0,4.4-1.24,7.29-5.43,8h0a9.24,9.24,0,0,1-1.63.15h0a5.5,5.5,0,0,1-4.65-2.23Zm-.91-19.39c-.27,4.43-.5,8.85-.52,11.77h0c0,.07,0,.14,0,.21h0c0,6.83,2.55,9.26,6.1,9.27h0a7.73,7.73,0,0,0,1.56-.14h0c4-.72,5.11-3.29,5.13-7.65h0q0-.66,0-1.35h0a.08.08,0,0,0,0,0h0a.53.53,0,0,0-.13-.16h0a1.68,1.68,0,0,0-1.07-.26h-.18a18.08,18.08,0,0,0-2,.09h0c-.51.11-.72.23-.73.64h0v.52h0a7.37,7.37,0,0,1-.33,2.45h0a2.06,2.06,0,0,1-2,1.52h-.05c-.92,0-1.57-.56-1.9-1.73h0a22.53,22.53,0,0,1-.48-5.79h0c0-2.34.09-5.33.23-9.16h0l0-.38h.69c1.36,0,2.57,0,3.18-.06h0c.9-.08,1.22-.38,1.41-.84h0a7.48,7.48,0,0,0,.21-1.87h0c0-.11,0-.22,0-.32h0A1.49,1.49,0,0,0,62,21h0a4,4,0,0,0-2.34-.49h0l-1.81,0H57.6l1.26-9.71a5,5,0,0,0,0-.58h0c0-.67-.17-1.52-1.48-1.53h0a6.17,6.17,0,0,0-2.23.22h0c-.43.2-.65.53-.76,1.33h0s-.38,4.59-.77,10.2h0l0,.16h-.16l-3.37.11h0c-1.25.07-1.66.53-1.69,1.95h0q0,.32,0,.69h0a2.07,2.07,0,0,0,2,2.12h0a1.87,1.87,0,0,0,.35,0h0a20.07,20.07,0,0,1,2.29-.09h.2l0,.2Z"/><path class="cls-9" d="M56.82,8.92s1.9-.25,1.65,1.65S57,20.51,57,20.51s-.49.43,1.16.37a13.72,13.72,0,0,1,2.38.06,1.49,1.49,0,0,1,1.58,1.34c.12,1.41-.18,1.77-.18,1.77s0-2.38-1.59-2.38-2.8.12-2.8.12-.8-.3-.8.67-.61,13.67-.61,13.67-.36,5.74,2.08,6.47c0,0-2.26.06-2.63-4.15s.49-16.72.49-16.72L56.88,10s.31-.74-1.34-.61C55.54,9.41,54.38,9.16,56.82,8.92Z"/><path class="cls-9" d="M64,37.6s1.22-.12,1.22.49a14.91,14.91,0,0,1-.55,4.33,4.92,4.92,0,0,1-3.72,3.11C58.84,45.77,64.94,46,64,37.6Z"/><path class="cls-10" d="M23.13,42.8c0,1.26.25,3,1.42,3.08,1.84.12,3.91.23,3.91.23s2.07.23,2.18-1.72l0-1.18A30.6,30.6,0,0,1,23.13,42.8Z"/><path class="cls-10" d="M23.39,38l-.14,2.3a35.06,35.06,0,0,0,7.49.26l.05-2A21.72,21.72,0,0,1,23.39,38Z"/><path class="cls-11" d="M24.89,40.47A9.82,9.82,0,0,0,25,43.08a32.52,32.52,0,0,0,5.71.13l.07-2.68A36.14,36.14,0,0,1,24.89,40.47Z"/><path class="cls-12" d="M24.89,40.47c-.58-.06-1.13-.12-1.64-.2l-.07,1.25a11.82,11.82,0,0,0-.05,1.28c.61.11,1.22.21,1.83.28A9.82,9.82,0,0,1,24.89,40.47Z"/><path class="cls-12" d="M23.52,35.8,23.39,38c.59.15,1.17.27,1.75.36.1-.71.2-1.43.26-2.13C24.75,36.09,24.11,36,23.52,35.8Z"/><path class="cls-11" d="M25.4,36.2c-.06.7-.16,1.42-.26,2.13a22.69,22.69,0,0,0,5.65.18l.05-2A22.36,22.36,0,0,1,25.4,36.2Z"/><path class="cls-10" d="M44.66,10.5S23.75,9.35,15.25,7.86c0,0-3.33-1.15-3.45,1.26s-.34,5.17-.34,5.17-.58,1.38,1.84,1.5,11.37.8,11.37.8L23.52,35.8a23.11,23.11,0,0,0,7.32.7l.49-19.56,12.75,1a1.71,1.71,0,0,0,2.3-1.72,25.73,25.73,0,0,0,.12-3.91S47.07,10.5,44.66,10.5Z"/><path class="cls-13" d="M24.55,45.88c1.84.12,3.91.23,3.91.23s2.07.23,2.18-1.72l0-.76a1.64,1.64,0,0,0-.06.42c.08,2.06-2.29,1.37-4.21,1.3-1.07,0-1.42-1.24-1.52-2.29-.58-.07-1.16-.15-1.74-.26C23.14,44.06,23.38,45.81,24.55,45.88Z"/><path class="cls-10" d="M26.39,45.35c1.92.07,4.29.76,4.21-1.3a1.64,1.64,0,0,1,.06-.42v-.42a31.74,31.74,0,0,1-5.8-.15C25,44.11,25.32,45.31,26.39,45.35Z"/><path class="cls-10" d="M30.74,40.53l.05-2A22.64,22.64,0,0,1,25,38.32c0,.87-.08,1.6-.11,2.15A35.76,35.76,0,0,0,30.74,40.53Z"/><path class="cls-13" d="M23.25,40.27c.52.08,1.08.14,1.67.2,0-.55.07-1.28.11-2.15-.54-.1-1.09-.21-1.64-.35Z"/><path class="cls-10" d="M44.66,10.5S27.25,9.55,17.74,8.24v0s-4.21-.38-4.29.31-.54,4.52-.54,4.52a1.3,1.3,0,0,0,1.31,1.6c1.6.08,11,.62,11,.62s1.22,0,1.07,1.61c-.11,1.1-.72,12.32-1.09,19.22a22.33,22.33,0,0,0,5.69.34l.49-19.56,12.75,1a1.71,1.71,0,0,0,2.3-1.72,25.73,25.73,0,0,0,.12-3.91S47.07,10.5,44.66,10.5Z"/><path class="cls-13" d="M25.17,15.33s-9.35-.54-11-.62a1.3,1.3,0,0,1-1.31-1.6s.46-3.83.54-4.52,4.29-.31,4.29-.31v0C16.83,8.12,16,8,15.25,7.86c0,0-3.33-1.15-3.45,1.26s-.34,5.17-.34,5.17-.58,1.38,1.84,1.5,11.37.8,11.37.8L23.52,35.8c.52.13,1.06.25,1.63.36.37-6.9,1-18.12,1.09-19.22C26.39,15.33,25.17,15.33,25.17,15.33Z"/><path class="cls-14" d="M28.66,46.35h-.21s-2.07-.11-3.91-.23h0a1.64,1.64,0,0,1-1.38-1.34h0a7.35,7.35,0,0,1-.27-2.14h0A9.58,9.58,0,0,1,23,41.51h0L24.43,16.8c-1.41-.11-9-.68-11.15-.78h0c-1.68-.06-2.14-.85-2.11-1.39h0a1.37,1.37,0,0,1,.06-.39h0c0-.3.24-2.86.34-5.13h0a1.8,1.8,0,0,1,2.06-1.75h0a5.58,5.58,0,0,1,1.67.28h0c4.23.74,11.58,1.4,17.86,1.87h0c6.29.48,11.5.76,11.51.76h0a2.29,2.29,0,0,1,1.71.56h0a1.44,1.44,0,0,1,.4,1.06h0a2.05,2.05,0,0,1-.05.47h0c0,.12,0,.47,0,1h0c0,.68,0,1.66-.14,2.88h0c-.13,1.63-1.2,2.05-1.9,2h0A2.67,2.67,0,0,1,44,18.2h0l-12.49-1-.68,27.23a2,2,0,0,1-2.15,1.94h-.06Zm0-.46a1.56,1.56,0,0,0,1.75-1.5h0l.7-27.7,13,1h0a1.84,1.84,0,0,0,.55.08h0c.57,0,1.28-.17,1.44-1.61h0a27.89,27.89,0,0,0,.14-2.83h0c0-.67,0-1,0-1h0v0l0,0a2.13,2.13,0,0,0,0-.38h0c0-.47-.13-1.12-1.67-1.16h0v0S23.74,9.58,15.21,8.09h0A3.7,3.7,0,0,0,14.69,8h0a4.65,4.65,0,0,0-1.06-.13h0c-.84,0-1.53.22-1.6,1.31h0c-.11,2.42-.34,5.18-.34,5.18h0v.07a.73.73,0,0,0,0,.25h0c0,.3.09.82,1.68.93h0c2.42.11,11.37.8,11.38.8h0l.22,0L23.4,41.54s0,.46,0,1.09h0a7.13,7.13,0,0,0,.25,2h0c.2.62.49,1,1,1h0l3.91.23h.18Z"/><path class="cls-9" d="M30.37,16.55l-.53,27.8a1.28,1.28,0,0,1-1.38.69c-1-.15-3.14-.38-1.38-.46s1.69-.76,1.69-2S29.61,13.11,30.37,16.55Z"/><path class="cls-9" d="M43.47,11a3.89,3.89,0,0,0-1.53-.16c-1.94,0-3.85-.4-5.8-.33L35,10.46c-1-.1-2.08-.11-3.11-.22a14.35,14.35,0,0,0-3.14-.09l0,0-13-1.46,13,2.53,0,0c1.75.29,3.6.44,5.37.62a4.43,4.43,0,0,0,.63,0l3.52.32h0l.43,0c1.47.1,3,.17,4.42.28a.31.31,0,0,1,0,.07,1.12,1.12,0,0,1,1.07.69l-.23,2.61c-.69,1.38-2.91,1.07-.77,1.3s2.15-.54,2.15-.54a37.85,37.85,0,0,0,.38-4.21C45.69,11,44,11,43.47,11Z"/></g></g></svg>