<?xml version="1.0" encoding="utf-8"?>
<!-- Generator: Adobe Illustrator 26.0.3, SVG Export Plug-In . SVG Version: 6.00 Build 0)  -->
<svg version="1.1" id="Layer_1" xmlns="http://www.w3.org/2000/svg" xmlns:xlink="http://www.w3.org/1999/xlink" x="0px" y="0px"
	 viewBox="0 0 261.73 782.36" style="enable-background:new 0 0 261.73 782.36;" xml:space="preserve">
<style type="text/css">
	.st0{fill:none;stroke:#000000;stroke-width:0.7658;stroke-miterlimit:10;}
	.st1{fill:none;stroke:#000000;stroke-width:0.7086;stroke-miterlimit:10;}
	.st2{opacity:0.5;fill:url(#SVGID_1_);}
	.st3{fill:none;stroke:#000000;stroke-width:0.6439;stroke-miterlimit:10;}
	.st4{fill:#F15A29;}
	.st5{font-family:'LeagueSpartan-SemiBold';}
	.st6{font-size:19px;}
	.st7{opacity:0.5;fill:url(#SVGID_00000072250301819607116310000006962928774642638229_);}
	.st8{opacity:0.5;fill:url(#SVGID_00000072244718614366110990000007138672765347836553_);}
	.st9{opacity:0.5;fill:url(#SVGID_00000091009889780704570910000018283944301621362570_);}
</style>
<linearGradient id="SVGID_1_" gradientUnits="userSpaceOnUse" x1="-8.4986" y1="42.793" x2="130.2168" y2="129.9855">
	<stop  offset="0" style="stop-color:#F7B2D0"/>
	<stop  offset="0.5" style="stop-color:#FFF8A3"/>
	<stop  offset="1" style="stop-color:#96CFF1"/>
</linearGradient>
<rect x="87.24" y="0" class="st2" width="87.24" height="260.79"/>
<line class="st3" x1="0" y1="0" x2="0" y2="260.79"/>
<line class="st3" x1="261.73" y1="0" x2="261.73" y2="260.79"/>
<line class="st3" x1="87.24" y1="0" x2="87.24" y2="260.79"/>
<line class="st3" x1="174.49" y1="0" x2="174.49" y2="260.79"/>
<text transform="matrix(1 0 0 1 16.4722 24.1884)"><tspan x="0" y="0" class="st4 st5 st6">1</tspan><tspan x="5.68" y="0" class="st5 st6"> x 1 = 1</tspan><tspan x="-4.58" y="28" class="st4 st5 st6">1</tspan><tspan x="1.1" y="28" class="st5 st6"> x 2 = 2</tspan><tspan x="-4.01" y="56" class="st4 st5 st6">1</tspan><tspan x="1.67" y="56" class="st5 st6"> x 3 = 3</tspan><tspan x="-3.7" y="84" class="st4 st5 st6">1</tspan><tspan x="1.99" y="84" class="st5 st6"> x 4 = 4</tspan><tspan x="-4.11" y="112" class="st4 st5 st6">1</tspan><tspan x="1.57" y="112" class="st5 st6"> x 5 = 5</tspan><tspan x="-4.54" y="140" class="st4 st5 st6">1</tspan><tspan x="1.14" y="140" class="st5 st6"> x 6 = 6</tspan><tspan x="-4.11" y="168" class="st4 st5 st6">1</tspan><tspan x="1.57" y="168" class="st5 st6"> x 7 = 7</tspan><tspan x="-4.5" y="196" class="st4 st5 st6">1</tspan><tspan x="1.18" y="196" class="st5 st6"> x 8 = 8</tspan><tspan x="-4.53" y="224" class="st4 st5 st6">1</tspan><tspan x="1.15" y="224" class="st5 st6"> x 9 = 9</tspan></text>
<text transform="matrix(1 0 0 1 99.5107 24.1884)"><tspan x="0" y="0" class="st4 st5 st6">2</tspan><tspan x="10.26" y="0" class="st5 st6"> x 1 = 2</tspan><tspan x="-1.85" y="28" class="st4 st5 st6">2</tspan><tspan x="8.41" y="28" class="st5 st6"> x 2 = 4</tspan><tspan x="-1.99" y="56" class="st4 st5 st6">2</tspan><tspan x="8.27" y="56" class="st5 st6"> x 3 = 6</tspan><tspan x="-1.81" y="84" class="st4 st5 st6">2</tspan><tspan x="8.45" y="84" class="st5 st6"> x 4 = 8</tspan><tspan x="-5.17" y="112" class="st4 st5 st6">2</tspan><tspan x="5.09" y="112" class="st5 st6"> x 5 = 10</tspan><tspan x="-5.11" y="140" class="st4 st5 st6">2</tspan><tspan x="5.15" y="140" class="st5 st6"> x 6 = 12</tspan><tspan x="-4.46" y="168" class="st4 st5 st6">2</tspan><tspan x="5.8" y="168" class="st5 st6"> x 7 = 14</tspan><tspan x="-5.07" y="196" class="st4 st5 st6">2</tspan><tspan x="5.19" y="196" class="st5 st6"> x 8 = 16</tspan><tspan x="-5.07" y="224" class="st4 st5 st6">2</tspan><tspan x="5.19" y="224" class="st5 st6"> x 9 = 18</tspan></text>
<text transform="matrix(1 0 0 1 186.9502 24.1884)"><tspan x="0" y="0" class="st4 st5 st6">3</tspan><tspan x="9.69" y="0" class="st5 st6"> x 1 = 3</tspan><tspan x="-2.56" y="28" class="st4 st5 st6">3</tspan><tspan x="7.13" y="28" class="st5 st6"> x 2 = 6</tspan><tspan x="-2.27" y="56" class="st4 st5 st6">3</tspan><tspan x="7.42" y="56" class="st5 st6"> x 3 = 9</tspan><tspan x="-4.97" y="84" class="st4 st5 st6">3</tspan><tspan x="4.72" y="84" class="st5 st6"> x 4 = 12</tspan><tspan x="-4.95" y="112" class="st4 st5 st6">3</tspan><tspan x="4.74" y="112" class="st5 st6"> x 5 = 15</tspan><tspan x="-5.36" y="140" class="st4 st5 st6">3</tspan><tspan x="4.33" y="140" class="st5 st6"> x 6 = 18</tspan><tspan x="-5.18" y="168" class="st4 st5 st6">3</tspan><tspan x="4.51" y="168" class="st5 st6"> x 7 = 21</tspan><tspan x="-7.22" y="196" class="st4 st5 st6">3</tspan><tspan x="2.47" y="196" class="st5 st6"> x 8 = 24</tspan><tspan x="-7.45" y="224" class="st4 st5 st6">3</tspan><tspan x="2.24" y="224" class="st5 st6"> x 9 = 27</tspan></text>
<linearGradient id="SVGID_00000011027072342592886110000007079206312025628599_" gradientUnits="userSpaceOnUse" x1="-33.7115" y1="490.4144" x2="78.2516" y2="346.745">
	<stop  offset="0" style="stop-color:#F7B2D0"/>
	<stop  offset="0.5" style="stop-color:#FFF8A3"/>
	<stop  offset="1" style="stop-color:#96CFF1"/>
</linearGradient>
<rect y="260.79" style="opacity:0.5;fill:url(#SVGID_00000011027072342592886110000007079206312025628599_);" width="87.24" height="260.79"/>
<linearGradient id="SVGID_00000169525998631233398300000013237531753437705602_" gradientUnits="userSpaceOnUse" x1="297.5201" y1="478.656" x2="170.6947" y2="338.9499">
	<stop  offset="0" style="stop-color:#F7B2D0"/>
	<stop  offset="0.5" style="stop-color:#FFF8A3"/>
	<stop  offset="1" style="stop-color:#96CFF1"/>
</linearGradient>
<rect x="174.49" y="260.79" style="opacity:0.5;fill:url(#SVGID_00000169525998631233398300000013237531753437705602_);" width="87.24" height="260.79"/>
<line class="st3" x1="87.24" y1="260.79" x2="87.24" y2="521.57"/>
<line class="st3" x1="174.49" y1="260.79" x2="174.49" y2="521.57"/>
<line class="st3" x1="261.73" y1="260.79" x2="261.73" y2="521.57"/>
<line class="st3" x1="0" y1="260.79" x2="0" y2="521.57"/>
<g>
	<text transform="matrix(1 0 0 1 12.777 284.9756)"><tspan x="0" y="0" class="st4 st5 st6">4</tspan><tspan x="9.38" y="0" class="st5 st6"> x 1 = 4</tspan><tspan x="-2.69" y="28" class="st4 st5 st6">4</tspan><tspan x="6.68" y="28" class="st5 st6"> x 2 = 8</tspan><tspan x="-5.29" y="56" class="st4 st5 st6">4</tspan><tspan x="4.09" y="56" class="st5 st6"> x 3 = 12</tspan><tspan x="-5.11" y="84" class="st4 st5 st6">4</tspan><tspan x="4.26" y="84" class="st5 st6"> x 4 = 16</tspan><tspan x="-7.9" y="112" class="st4 st5 st6">4</tspan><tspan x="1.48" y="112" class="st5 st6"> x 5 = 20</tspan><tspan x="-7.4" y="140" class="st4 st5 st6">4</tspan><tspan x="1.97" y="140" class="st5 st6"> x 6 = 24</tspan><tspan x="-7.59" y="168" class="st4 st5 st6">4</tspan><tspan x="1.79" y="168" class="st5 st6"> x 7 = 28</tspan><tspan x="-7.54" y="196" class="st4 st5 st6">4</tspan><tspan x="1.84" y="196" class="st5 st6"> x 8 = 32</tspan><tspan x="-7.8" y="224" class="st4 st5 st6">4</tspan><tspan x="1.58" y="224" class="st5 st6"> x 9 = 28</tspan></text>
</g>
<g>
	<text transform="matrix(1 0 0 1 99.9765 284.9756)"><tspan x="0" y="0" class="st4 st5 st6">5</tspan><tspan x="9.79" y="0" class="st5 st6"> x 1 = 5</tspan><tspan x="-5.63" y="28" class="st4 st5 st6">5</tspan><tspan x="4.16" y="28" class="st5 st6"> x 2 = 10</tspan><tspan x="-4.85" y="56" class="st4 st5 st6">5</tspan><tspan x="4.95" y="56" class="st5 st6"> x 3 = 15</tspan><tspan x="-7.48" y="84" class="st4 st5 st6">5</tspan><tspan x="2.31" y="84" class="st5 st6"> x 4 = 20</tspan><tspan x="-7.19" y="112" class="st4 st5 st6">5 </tspan><tspan x="7.15" y="112" class="st5 st6">x 5 = 25</tspan><tspan x="-7.62" y="140" class="st4 st5 st6">5</tspan><tspan x="2.17" y="140" class="st5 st6"> x 6 = 30</tspan><tspan x="-6.9" y="168" class="st4 st5 st6">5</tspan><tspan x="2.89" y="168" class="st5 st6"> x 7 = 35</tspan><tspan x="-7.44" y="196" class="st4 st5 st6">5 </tspan><tspan x="6.89" y="196" class="st5 st6">x 8 = 40</tspan><tspan x="-6.95" y="224" class="st4 st5 st6">5</tspan><tspan x="2.84" y="224" class="st5 st6"> x 9 = 45</tspan></text>
</g>
<g>
	<text transform="matrix(1 0 0 1 186.4186 284.9756)"><tspan x="0" y="0" class="st4 st5 st6">6</tspan><tspan x="10.22" y="0" class="st5 st6"> x 1 = 6</tspan><tspan x="-5.15" y="28" class="st4 st5 st6">6</tspan><tspan x="5.07" y="28" class="st5 st6"> x 2 = 12</tspan><tspan x="-4.83" y="56" class="st4 st5 st6">6</tspan><tspan x="5.4" y="56" class="st5 st6"> x 3 = 18</tspan><tspan x="-6.56" y="84" class="st4 st5 st6">6</tspan><tspan x="3.67" y="84" class="st5 st6"> x 4 = 24</tspan><tspan x="-7.19" y="112" class="st4 st5 st6">6 </tspan><tspan x="7.57" y="112" class="st5 st6">x 5 = 30</tspan><tspan x="-7.12" y="140" class="st4 st5 st6">6</tspan><tspan x="3.11" y="140" class="st5 st6"> x 6 = 36</tspan><tspan x="-6.76" y="168" class="st4 st5 st6">6</tspan><tspan x="3.46" y="168" class="st5 st6"> x 7 = 42</tspan><tspan x="-6.92" y="196" class="st4 st5 st6">6</tspan><tspan x="3.3" y="196" class="st5 st6"> x 8 = 48</tspan><tspan x="-6.74" y="224" class="st4 st5 st6">6</tspan><tspan x="3.48" y="224" class="st5 st6"> x 9 = 54</tspan></text>
</g>
<linearGradient id="SVGID_00000107567661261983694730000005586239478499182767_" gradientUnits="userSpaceOnUse" x1="79.7832" y1="502.7829" x2="166.9756" y2="757.4246">
	<stop  offset="0" style="stop-color:#F7B2D0"/>
	<stop  offset="0.5" style="stop-color:#FFF8A3"/>
	<stop  offset="1" style="stop-color:#96CFF1"/>
</linearGradient>
<rect x="87.24" y="521.57" style="opacity:0.5;fill:url(#SVGID_00000107567661261983694730000005586239478499182767_);" width="87.24" height="260.79"/>
<line class="st3" x1="87.24" y1="521.57" x2="87.24" y2="782.36"/>
<line class="st3" x1="174.49" y1="521.57" x2="174.49" y2="782.36"/>
<line class="st3" x1="261.73" y1="521.57" x2="261.73" y2="782.36"/>
<line class="st3" x1="0" y1="521.57" x2="0" y2="782.36"/>
<g>
	<text transform="matrix(1 0 0 1 12.3595 545.7634)"><tspan x="0" y="0" class="st4 st5 st6">7</tspan><tspan x="9.79" y="0" class="st5 st6"> x 1 = 7</tspan><tspan x="-4.92" y="28" class="st4 st5 st6">7</tspan><tspan x="4.87" y="28" class="st5 st6"> x 2 = 14</tspan><tspan x="-5.08" y="56" class="st4 st5 st6">7</tspan><tspan x="4.72" y="56" class="st5 st6"> x 3 = 21</tspan><tspan x="-7.17" y="84" class="st4 st5 st6">7</tspan><tspan x="2.62" y="84" class="st5 st6"> x 4 = 28</tspan><tspan x="-6.9" y="112" class="st4 st5 st6">7 </tspan><tspan x="7.43" y="112" class="st5 st6">x 5 = 35</tspan><tspan x="-7.19" y="140" class="st4 st5 st6">7</tspan><tspan x="2.6" y="140" class="st5 st6"> x 6 = 42</tspan><tspan x="-6.95" y="168" class="st4 st5 st6">7</tspan><tspan x="2.84" y="168" class="st5 st6"> x 7 = 49</tspan><tspan x="-7.36" y="196" class="st4 st5 st6">7</tspan><tspan x="2.43" y="196" class="st5 st6"> x 8 = 56</tspan><tspan x="-7.33" y="224" class="st4 st5 st6">7</tspan><tspan x="2.47" y="224" class="st5 st6"> x 9 = 63</tspan></text>
</g>
<g>
	<text transform="matrix(1 0 0 1 99.5868 545.7634)"><tspan x="0" y="0" class="st4 st5 st6">8</tspan><tspan x="10.18" y="0" class="st5 st6"> x 1 = 8</tspan><tspan x="-5.15" y="28" class="st4 st5 st6">8</tspan><tspan x="5.03" y="28" class="st5 st6"> x 2 = 16</tspan><tspan x="-6.73" y="56" class="st4 st5 st6">8</tspan><tspan x="3.45" y="56" class="st5 st6"> x 3 = 24</tspan><tspan x="-6.73" y="84" class="st4 st5 st6">8</tspan><tspan x="3.45" y="84" class="st5 st6"> x 4 = 32</tspan><tspan x="-7.05" y="112" class="st4 st5 st6">8 </tspan><tspan x="7.67" y="112" class="st5 st6">x 5 = 40</tspan><tspan x="-6.96" y="140" class="st4 st5 st6">8</tspan><tspan x="3.22" y="140" class="st5 st6"> x 6 = 48</tspan><tspan x="-6.97" y="168" class="st4 st5 st6">8</tspan><tspan x="3.21" y="168" class="st5 st6"> x 7 = 56</tspan><tspan x="-6.96" y="196" class="st4 st5 st6">8</tspan><tspan x="3.22" y="196" class="st5 st6"> x 8 = 64</tspan><tspan x="-7.2" y="224" class="st4 st5 st6">8</tspan><tspan x="2.98" y="224" class="st5 st6"> x 9 = 72</tspan></text>
</g>
<g>
	<text transform="matrix(1 0 0 1 186.4286 545.7634)"><tspan x="0" y="0" class="st4 st5 st6">9</tspan><tspan x="10.21" y="0" class="st5 st6"> x 1 = 9</tspan><tspan x="-5.12" y="28" class="st4 st5 st6">9</tspan><tspan x="5.1" y="28" class="st5 st6"> x 2 = 18</tspan><tspan x="-4.87" y="56" class="st4 st5 st6">9</tspan><tspan x="5.34" y="56" class="st5 st6"> x 3 = 21</tspan><tspan x="-6.96" y="84" class="st4 st5 st6">9</tspan><tspan x="3.25" y="84" class="st5 st6"> x 4 = 28</tspan><tspan x="-6.54" y="112" class="st4 st5 st6">9 </tspan><tspan x="8.22" y="112" class="st5 st6">x 5 = 45</tspan><tspan x="-6.75" y="140" class="st4 st5 st6">9</tspan><tspan x="3.46" y="140" class="st5 st6"> x 6 = 54</tspan><tspan x="-6.91" y="168" class="st4 st5 st6">9</tspan><tspan x="3.31" y="168" class="st5 st6"> x 7 = 63</tspan><tspan x="-7.17" y="196" class="st4 st5 st6">9</tspan><tspan x="3.04" y="196" class="st5 st6"> x 8 = 72</tspan><tspan x="-5.09" y="224" class="st4 st5 st6">9</tspan><tspan x="5.12" y="224" class="st5 st6"> x 9 = 81</tspan></text>
</g>
<line class="st3" x1="0" y1="0" x2="261.73" y2="0"/>
<line class="st3" x1="0" y1="782.36" x2="261.73" y2="782.36"/>
</svg>
