<?xml version="1.0" encoding="utf-8"?>
<!-- Generator: Adobe Illustrator 26.0.3, SVG Export Plug-In . SVG Version: 6.00 Build 0)  -->
<svg version="1.1" id="Layer_1" xmlns="http://www.w3.org/2000/svg" xmlns:xlink="http://www.w3.org/1999/xlink" x="0px" y="0px"
	 viewBox="0 0 200 200" style="enable-background:new 0 0 200 200;" xml:space="preserve">
<style type="text/css">
	.st0{fill:#31A734;}
	.st1{fill:#FCB900;}
	.st2{fill:#E64117;}
	.st3{fill:#4A1D81;}
</style>
<path class="st1" d="M15.33,188.27c-0.88,0-1.77-0.03-2.64-0.1c-6.12-0.45-7.53-1.97-7.54-1.98c-0.75-1.43,0.49-9.83,11.21-24.17
	c11.25-15.04,24.34-30.21,38.91-45.09l7.84-8l-8.02-7.82C46.77,93,39.18,84.78,32.52,76.67c-15.41-18.8-19.36-31.95-12.79-42.63
	c1.78-2.91,4.4-5.68,6.38-6.76l0.69-0.37l0.63-0.47c4.96-3.69,12.05-6.16,17.66-6.16c2.43,0,4.44,0.5,5.36,1.34
	C63.6,33.61,77.13,47.17,94.32,65.58l9.14,9.79l7.99-10.74c11.27-15.15,22.5-26.82,33.38-34.68c7.53-5.45,25.13-18.21,37.47-18.21
	c3.61,0,6.04,1.12,8.14,3.74c3.63,4.54,5.03,9.24,4.4,14.79c-2.59,22.75-37,49.95-48.31,58.89c-3.52,2.79-5,3.96-6.13,5.15
	l-7.59,7.94l7.81,7.72c26.48,26.16,42.64,50.49,42.17,63.49c-0.1,2.82-0.99,4.74-2.97,6.43c-2.91,2.49-6.35,3.65-10.8,3.65
	c0,0,0,0,0,0c-13.83,0-31.89-11.16-43.85-18.54l-1.97-1.21c-7.09-4.35-14.41-9.69-21.77-15.87l-7.02-5.9l-7.16,5.74l-2.17,1.75
	c-2.59,2.09-5.03,4.06-7.55,5.94c-2.21,1.64-4.51,3.4-6.87,5.19C53.64,173.59,34.35,188.27,15.33,188.27z"/>
</svg>
