<?xml version="1.0" encoding="utf-8"?>
<!-- Generator: Adobe Illustrator 26.0.3, SVG Export Plug-In . SVG Version: 6.00 Build 0)  -->
<svg version="1.1" id="Layer_1" xmlns="http://www.w3.org/2000/svg" xmlns:xlink="http://www.w3.org/1999/xlink" x="0px" y="0px"
	 viewBox="0 0 785.2 315.83" style="enable-background:new 0 0 785.2 315.83;" xml:space="preserve">
<style type="text/css">
	.st0{opacity:0.5;fill:#00A79D;}
	.st1{fill:none;stroke:#000000;stroke-width:0.7658;stroke-miterlimit:10;}
	.st2{fill:none;stroke:#000000;stroke-width:0.7086;stroke-miterlimit:10;}
	.st3{fill:#F15A29;}
	.st4{font-family:'LeagueSpartan-SemiBold';}
	.st5{font-size:19px;}
</style>
<rect x="87.24" class="st0" width="87.24" height="315.83"/>
<rect x="261.73" class="st0" width="87.24" height="315.83"/>
<rect x="436.22" class="st0" width="87.24" height="315.83"/>
<rect x="610.71" class="st0" width="87.24" height="315.83"/>
<rect class="st1" width="785.2" height="315.83"/>
<line class="st2" x1="87.24" y1="0" x2="87.24" y2="315.83"/>
<line class="st2" x1="174.49" y1="0" x2="174.49" y2="315.83"/>
<line class="st2" x1="261.73" y1="0" x2="261.73" y2="315.83"/>
<line class="st2" x1="348.98" y1="0" x2="348.98" y2="315.83"/>
<line class="st2" x1="436.22" y1="0" x2="436.22" y2="315.83"/>
<line class="st2" x1="523.46" y1="0" x2="523.46" y2="315.83"/>
<line class="st2" x1="610.71" y1="0" x2="610.71" y2="315.83"/>
<line class="st2" x1="697.95" y1="0" x2="697.95" y2="315.83"/>
<text transform="matrix(1 0 0 1 714.5194 33.7277)"><tspan x="0" y="0" class="st3 st4 st5">1</tspan><tspan x="5.68" y="0" class="st4 st5"> x 1 = 1</tspan><tspan x="-4.58" y="33" class="st3 st4 st5">1</tspan><tspan x="1.1" y="33" class="st4 st5"> x 2 = 2</tspan><tspan x="-4.01" y="66" class="st3 st4 st5">1</tspan><tspan x="1.67" y="66" class="st4 st5"> x 3 = 3</tspan><tspan x="-3.7" y="99" class="st3 st4 st5">1</tspan><tspan x="1.99" y="99" class="st4 st5"> x 4 = 4</tspan><tspan x="-4.11" y="132" class="st3 st4 st5">1</tspan><tspan x="1.57" y="132" class="st4 st5"> x 5 = 5</tspan><tspan x="-4.54" y="165" class="st3 st4 st5">1</tspan><tspan x="1.14" y="165" class="st4 st5"> x 6 = 6</tspan><tspan x="-4.11" y="198" class="st3 st4 st5">1</tspan><tspan x="1.57" y="198" class="st4 st5"> x 7 = 7</tspan><tspan x="-4.5" y="231" class="st3 st4 st5">1</tspan><tspan x="1.18" y="231" class="st4 st5"> x 8 = 8</tspan><tspan x="-4.53" y="264" class="st3 st4 st5">1</tspan><tspan x="1.15" y="264" class="st4 st5"> x 9 = 9</tspan></text>
<text transform="matrix(1 0 0 1 622.9753 33.7277)"><tspan x="0" y="0" class="st3 st4 st5">2</tspan><tspan x="10.26" y="0" class="st4 st5"> x 1 = 2</tspan><tspan x="-1.85" y="33" class="st3 st4 st5">2</tspan><tspan x="8.41" y="33" class="st4 st5"> x 2 = 4</tspan><tspan x="-1.99" y="66" class="st3 st4 st5">2</tspan><tspan x="8.27" y="66" class="st4 st5"> x 3 = 6</tspan><tspan x="-1.81" y="99" class="st3 st4 st5">2</tspan><tspan x="8.45" y="99" class="st4 st5"> x 4 = 8</tspan><tspan x="-5.17" y="132" class="st3 st4 st5">2</tspan><tspan x="5.09" y="132" class="st4 st5"> x 5 = 10</tspan><tspan x="-5.11" y="165" class="st3 st4 st5">2</tspan><tspan x="5.15" y="165" class="st4 st5"> x 6 = 12</tspan><tspan x="-4.46" y="198" class="st3 st4 st5">2</tspan><tspan x="5.8" y="198" class="st4 st5"> x 7 = 14</tspan><tspan x="-5.07" y="231" class="st3 st4 st5">2</tspan><tspan x="5.19" y="231" class="st4 st5"> x 8 = 16</tspan><tspan x="-5.07" y="264" class="st3 st4 st5">2</tspan><tspan x="5.19" y="264" class="st4 st5"> x 9 = 18</tspan></text>
<text transform="matrix(1 0 0 1 536.3005 33.7277)"><tspan x="0" y="0" class="st3 st4 st5">3</tspan><tspan x="9.69" y="0" class="st4 st5"> x 1 = 3</tspan><tspan x="-2.56" y="33" class="st3 st4 st5">3</tspan><tspan x="7.13" y="33" class="st4 st5"> x 2 = 6</tspan><tspan x="-2.27" y="66" class="st3 st4 st5">3</tspan><tspan x="7.42" y="66" class="st4 st5"> x 3 = 9</tspan><tspan x="-4.97" y="99" class="st3 st4 st5">3</tspan><tspan x="4.72" y="99" class="st4 st5"> x 4 = 12</tspan><tspan x="-4.95" y="132" class="st3 st4 st5">3</tspan><tspan x="4.74" y="132" class="st4 st5"> x 5 = 15</tspan><tspan x="-5.36" y="165" class="st3 st4 st5">3</tspan><tspan x="4.33" y="165" class="st4 st5"> x 6 = 18</tspan><tspan x="-5.18" y="198" class="st3 st4 st5">3</tspan><tspan x="4.51" y="198" class="st4 st5"> x 7 = 21</tspan><tspan x="-7.22" y="231" class="st3 st4 st5">3</tspan><tspan x="2.47" y="231" class="st4 st5"> x 8 = 24</tspan><tspan x="-7.45" y="264" class="st3 st4 st5">3</tspan><tspan x="2.24" y="264" class="st4 st5"> x 9 = 27</tspan></text>
<g>
	<text transform="matrix(1 0 0 1 449.3709 33.7277)"><tspan x="0" y="0" class="st3 st4 st5">4</tspan><tspan x="9.38" y="0" class="st4 st5"> x 1 = 4</tspan><tspan x="-2.69" y="33" class="st3 st4 st5">4</tspan><tspan x="6.68" y="33" class="st4 st5"> x 2 = 8</tspan><tspan x="-5.29" y="66" class="st3 st4 st5">4</tspan><tspan x="4.09" y="66" class="st4 st5"> x 3 = 12</tspan><tspan x="-5.11" y="99" class="st3 st4 st5">4</tspan><tspan x="4.26" y="99" class="st4 st5"> x 4 = 16</tspan><tspan x="-7.9" y="132" class="st3 st4 st5">4</tspan><tspan x="1.48" y="132" class="st4 st5"> x 5 = 20</tspan><tspan x="-7.4" y="165" class="st3 st4 st5">4</tspan><tspan x="1.97" y="165" class="st4 st5"> x 6 = 24</tspan><tspan x="-7.59" y="198" class="st3 st4 st5">4</tspan><tspan x="1.79" y="198" class="st4 st5"> x 7 = 28</tspan><tspan x="-7.54" y="231" class="st3 st4 st5">4</tspan><tspan x="1.84" y="231" class="st4 st5"> x 8 = 32</tspan><tspan x="-7.8" y="264" class="st3 st4 st5">4</tspan><tspan x="1.58" y="264" class="st4 st5"> x 9 = 28</tspan></text>
</g>
<g>
	<text transform="matrix(1 0 0 1 361.7088 33.7277)"><tspan x="0" y="0" class="st3 st4 st5">5</tspan><tspan x="9.79" y="0" class="st4 st5"> x 1 = 5</tspan><tspan x="-5.63" y="33" class="st3 st4 st5">5</tspan><tspan x="4.16" y="33" class="st4 st5"> x 2 = 10</tspan><tspan x="-4.85" y="66" class="st3 st4 st5">5</tspan><tspan x="4.95" y="66" class="st4 st5"> x 3 = 15</tspan><tspan x="-7.48" y="99" class="st3 st4 st5">5</tspan><tspan x="2.31" y="99" class="st4 st5"> x 4 = 20</tspan><tspan x="-7.19" y="132" class="st3 st4 st5">5 </tspan><tspan x="7.15" y="132" class="st4 st5">x 5 = 25</tspan><tspan x="-7.62" y="165" class="st3 st4 st5">5</tspan><tspan x="2.17" y="165" class="st4 st5"> x 6 = 30</tspan><tspan x="-6.9" y="198" class="st3 st4 st5">5</tspan><tspan x="2.89" y="198" class="st4 st5"> x 7 = 35</tspan><tspan x="-7.44" y="231" class="st3 st4 st5">5 </tspan><tspan x="6.89" y="231" class="st4 st5">x 8 = 40</tspan><tspan x="-6.95" y="264" class="st3 st4 st5">5</tspan><tspan x="2.84" y="264" class="st4 st5"> x 9 = 45</tspan></text>
</g>
<g>
	<text transform="matrix(1 0 0 1 274.037 33.7277)"><tspan x="0" y="0" class="st3 st4 st5">6</tspan><tspan x="10.22" y="0" class="st4 st5"> x 1 = 6</tspan><tspan x="-5.15" y="33" class="st3 st4 st5">6</tspan><tspan x="5.07" y="33" class="st4 st5"> x 2 = 12</tspan><tspan x="-4.83" y="66" class="st3 st4 st5">6</tspan><tspan x="5.4" y="66" class="st4 st5"> x 3 = 18</tspan><tspan x="-6.56" y="99" class="st3 st4 st5">6</tspan><tspan x="3.67" y="99" class="st4 st5"> x 4 = 24</tspan><tspan x="-7.19" y="132" class="st3 st4 st5">6 </tspan><tspan x="7.57" y="132" class="st4 st5">x 5 = 30</tspan><tspan x="-7.12" y="165" class="st3 st4 st5">6</tspan><tspan x="3.11" y="165" class="st4 st5"> x 6 = 36</tspan><tspan x="-6.76" y="198" class="st3 st4 st5">6</tspan><tspan x="3.46" y="198" class="st4 st5"> x 7 = 42</tspan><tspan x="-6.92" y="231" class="st3 st4 st5">6</tspan><tspan x="3.3" y="231" class="st4 st5"> x 8 = 48</tspan><tspan x="-6.74" y="264" class="st3 st4 st5">6</tspan><tspan x="3.48" y="264" class="st4 st5"> x 9 = 54</tspan></text>
</g>
<g>
	<text transform="matrix(1 0 0 1 187.2207 33.7277)"><tspan x="0" y="0" class="st3 st4 st5">7</tspan><tspan x="9.79" y="0" class="st4 st5"> x 1 = 7</tspan><tspan x="-4.92" y="33" class="st3 st4 st5">7</tspan><tspan x="4.87" y="33" class="st4 st5"> x 2 = 14</tspan><tspan x="-5.08" y="66" class="st3 st4 st5">7</tspan><tspan x="4.72" y="66" class="st4 st5"> x 3 = 21</tspan><tspan x="-7.17" y="99" class="st3 st4 st5">7</tspan><tspan x="2.62" y="99" class="st4 st5"> x 4 = 28</tspan><tspan x="-6.9" y="132" class="st3 st4 st5">7 </tspan><tspan x="7.43" y="132" class="st4 st5">x 5 = 35</tspan><tspan x="-7.19" y="165" class="st3 st4 st5">7</tspan><tspan x="2.6" y="165" class="st4 st5"> x 6 = 42</tspan><tspan x="-6.95" y="198" class="st3 st4 st5">7</tspan><tspan x="2.84" y="198" class="st4 st5"> x 7 = 49</tspan><tspan x="-7.36" y="231" class="st3 st4 st5">7</tspan><tspan x="2.43" y="231" class="st4 st5"> x 8 = 56</tspan><tspan x="-7.33" y="264" class="st3 st4 st5">7</tspan><tspan x="2.47" y="264" class="st4 st5"> x 9 = 63</tspan></text>
</g>
<g>
	<text transform="matrix(1 0 0 1 99.5869 33.7277)"><tspan x="0" y="0" class="st3 st4 st5">8</tspan><tspan x="10.18" y="0" class="st4 st5"> x 1 = 8</tspan><tspan x="-5.15" y="33" class="st3 st4 st5">8</tspan><tspan x="5.03" y="33" class="st4 st5"> x 2 = 16</tspan><tspan x="-6.73" y="66" class="st3 st4 st5">8</tspan><tspan x="3.45" y="66" class="st4 st5"> x 3 = 24</tspan><tspan x="-6.73" y="99" class="st3 st4 st5">8</tspan><tspan x="3.45" y="99" class="st4 st5"> x 4 = 32</tspan><tspan x="-7.05" y="132" class="st3 st4 st5">8 </tspan><tspan x="7.67" y="132" class="st4 st5">x 5 = 40</tspan><tspan x="-6.96" y="165" class="st3 st4 st5">8</tspan><tspan x="3.22" y="165" class="st4 st5"> x 6 = 48</tspan><tspan x="-6.97" y="198" class="st3 st4 st5">8</tspan><tspan x="3.21" y="198" class="st4 st5"> x 7 = 56</tspan><tspan x="-6.96" y="231" class="st3 st4 st5">8</tspan><tspan x="3.22" y="231" class="st4 st5"> x 8 = 64</tspan><tspan x="-7.2" y="264" class="st3 st4 st5">8</tspan><tspan x="2.98" y="264" class="st4 st5"> x 9 = 72</tspan></text>
</g>
<g>
	<text transform="matrix(1 0 0 1 12.3135 33.7277)"><tspan x="0" y="0" class="st3 st4 st5">9</tspan><tspan x="10.21" y="0" class="st4 st5"> x 1 = 9</tspan><tspan x="-5.12" y="33" class="st3 st4 st5">9</tspan><tspan x="5.1" y="33" class="st4 st5"> x 2 = 18</tspan><tspan x="-4.87" y="66" class="st3 st4 st5">9</tspan><tspan x="5.34" y="66" class="st4 st5"> x 3 = 21</tspan><tspan x="-6.96" y="99" class="st3 st4 st5">9</tspan><tspan x="3.25" y="99" class="st4 st5"> x 4 = 28</tspan><tspan x="-6.54" y="132" class="st3 st4 st5">9 </tspan><tspan x="8.22" y="132" class="st4 st5">x 5 = 45</tspan><tspan x="-6.75" y="165" class="st3 st4 st5">9</tspan><tspan x="3.46" y="165" class="st4 st5"> x 6 = 54</tspan><tspan x="-6.91" y="198" class="st3 st4 st5">9</tspan><tspan x="3.31" y="198" class="st4 st5"> x 7 = 63</tspan><tspan x="-7.17" y="231" class="st3 st4 st5">9</tspan><tspan x="3.04" y="231" class="st4 st5"> x 8 = 72</tspan><tspan x="-5.09" y="264" class="st3 st4 st5">9</tspan><tspan x="5.12" y="264" class="st4 st5"> x 9 = 81</tspan></text>
</g>
</svg>
