<svg xmlns="http://www.w3.org/2000/svg" viewBox="0 0 85.04 56.69"><defs><style>.cls-1{isolation:isolate;}.cls-2{opacity:0.4;}.cls-3,.cls-4{fill:#dddd38;}.cls-4{mix-blend-mode:multiply;opacity:0.65;}.cls-5{fill:#a7ae39;}.cls-6{fill:#efe65c;}.cls-7{fill:#fffbc9;opacity:0.57;}.cls-8{fill:#a9c612;}.cls-9{fill:#bbdd32;}.cls-10{fill:#fcc400;}.cls-11{fill:#f7de00;}.cls-12{fill:#f3e55d;}.cls-13{fill:#fdea6f;opacity:0.32;}.cls-14{fill:#88ac36;}</style></defs><g class="cls-1"><g id="Layer_1" data-name="Layer 1"><path class="cls-2" d="M43.35,47.56c0,1.11-7.76,2-17.34,2s-17.34-.9-17.34-2,7.77-2,17.34-2S43.35,46.46,43.35,47.56Z"/><path class="cls-2" d="M37.85,47.39c0,.77-5.4,1.39-12.06,1.39s-12.06-.62-12.06-1.39S19.13,46,25.79,46,37.85,46.62,37.85,47.39Z"/><path class="cls-2" d="M76.37,41.69c0-.54-3.74-1-8.34-1s-8.33.43-8.33,1c0,.26.95.51,2.48.68-5.82.06-10.36.63-10.36,1.32S57,45,63.28,45s11.46-.59,11.46-1.32c0-.44-1.85-.83-4.69-1.07C73.68,42.52,76.37,42.14,76.37,41.69Z"/><path class="cls-2" d="M70.1,43.45c0,.45-3.12.81-7,.81s-7-.36-7-.81,3.12-.8,7-.8S70.1,43,70.1,43.45Z"/><path class="cls-2" d="M73.72,41.6c0,.27-1.85.48-4.14.48s-4.15-.21-4.15-.48,1.86-.48,4.15-.48S73.72,41.34,73.72,41.6Z"/><path class="cls-3" d="M33.23,11.33v3.36c0,2.2,0,4.41,0,6.62,0,.84,0,1.68,0,2.51,0,1.13,0,2.22,0,3.27A23.57,23.57,0,0,1,32.5,34a9.87,9.87,0,0,1-2.78,4.61,6.23,6.23,0,0,1-4.28,1.6l-.65,0a7.15,7.15,0,0,1-5.55-3,12.15,12.15,0,0,1-2-7.1V30q0-3.21,0-6.37c0-3.63,0-7.25,0-10.86V11A3.69,3.69,0,0,0,15,7.66v.22s1.17.69,1.1,4.66,0,18,0,18,0,10.13,8.49,10.54,9.58-8.83,9.51-11.22V12.74S33.71,9,35.54,7.91A3.7,3.7,0,0,0,33.23,11.33Z"/><path class="cls-4" d="M33.23,11.33v3.36c0,2.2,0,4.41,0,6.62,0,.84,0,1.68,0,2.51,0,1.13,0,2.22,0,3.27A23.57,23.57,0,0,1,32.5,34a9.87,9.87,0,0,1-2.78,4.61,6.23,6.23,0,0,1-4.28,1.6l-.65,0a7.15,7.15,0,0,1-5.55-3,12.15,12.15,0,0,1-2-7.1V30q0-3.21,0-6.37c0-3.63,0-7.25,0-10.86V11A3.69,3.69,0,0,0,15,7.66v.22s1.17.69,1.1,4.66,0,18,0,18,0,10.13,8.49,10.54,9.58-8.83,9.51-11.22V12.74S33.71,9,35.54,7.91A3.7,3.7,0,0,0,33.23,11.33Z"/><path class="cls-3" d="M34.12,12.74V29.86c.07,2.39-1,11.63-9.51,11.22s-8.49-10.54-8.49-10.54-.07-14,0-18S15,7.88,15,7.88V7.66a3.62,3.62,0,0,0-1.51-.33A3.7,3.7,0,0,0,9.82,11v1.73c0,3.63,0,7.25,0,10.86,0,2.1,0,4.21,0,6.31v.13a19.5,19.5,0,0,0,3.44,11.43,14.67,14.67,0,0,0,11,6.09c.41,0,.82,0,1.23,0h.06a13.7,13.7,0,0,0,9.11-3.44,17.24,17.24,0,0,0,5-8,30.45,30.45,0,0,0,1.07-9.08c0-1.14,0-2.24,0-3.29V11.35a3.69,3.69,0,0,0-3.69-3.71,3.78,3.78,0,0,0-1.39.27C33.71,9,34.12,12.74,34.12,12.74Z"/><path class="cls-5" d="M25.5,47.83h-.06v0c-.41,0-.83,0-1.25,0h0a14.89,14.89,0,0,1-11.11-6.17h0A19.7,19.7,0,0,1,9.61,30.06h0v-.13h0c0-2.1,0-4.21,0-6.31h0v-.57h0c0-3.43,0-6.85,0-10.29h0V11h0a3.91,3.91,0,0,1,3.9-3.9h0A3.9,3.9,0,0,1,17.42,11h0v1.3h0v.48h0v.39h0c0,3.48,0,7,0,10.47h0q0,3.16,0,6.37h0v.08h0v0h0a12,12,0,0,0,2,6.94h0a7,7,0,0,0,5.41,3h0c.22,0,.42,0,.62,0h0a6,6,0,0,0,4.16-1.54h0A9.72,9.72,0,0,0,32.3,34h0a23.16,23.16,0,0,0,.75-6.72h0a.75.75,0,0,1,0-.15h0V27h0c0-1,0-2.1,0-3.2h0V21.31h0V15h0v-.35h0c0-.16,0-.32,0-.48h0a3.68,3.68,0,0,1,0-.47h0c0-.1,0-.21,0-.34h0V11.91h0c0-.2,0-.4,0-.58h0a3.9,3.9,0,0,1,3.9-3.89h0a3.91,3.91,0,0,1,3.88,3.87h0v.42h0v.18h0V13.4h0v.33h0v1h0c0,2.09,0,4.18,0,6.26h0v.36h0v.44h0c0,.68,0,1.36,0,2.05h0c0,1.05,0,2.15,0,3.29h0a31,31,0,0,1-1.08,9.14h0a17.46,17.46,0,0,1-5,8.1h0a14,14,0,0,1-8.65,3.49h-.6ZM10,11v1.73h0c0,3.43,0,6.86,0,10.29h0v.57h0c0,2.1,0,4.21,0,6.31h0v.13h0a19.28,19.28,0,0,0,3.39,11.31h0a14.48,14.48,0,0,0,10.82,6h0c.4,0,.81.05,1.21.05h.07a13.49,13.49,0,0,0,9-3.39h0a17.16,17.16,0,0,0,4.91-7.92h0a31,31,0,0,0,1.06-9h0c0-1.14,0-2.24,0-3.29h0c0-.68,0-1.37,0-2.05h0v-.44h0V21h0c0-2.08,0-4.17,0-6.26h0v-1h0V13.4h0V11.91h0v-.18h0v-.37h0v0h0a3.49,3.49,0,0,0-3.49-3.49h0a3.48,3.48,0,0,0-3.49,3.48h0v.58h0c0,.49,0,1,0,1.49h0c0,.12,0,.24,0,.34h0v.47h0v.48h0c0,.11,0,.23,0,.35h0c0,2.08,0,4.17,0,6.27h0v2.51h0c0,1.11,0,2.18,0,3.21h0s0,0,0,.07h0a.33.33,0,0,0,0,.14h0a23.8,23.8,0,0,1-.77,6.84h0a10.12,10.12,0,0,1-2.83,4.71h0a6.51,6.51,0,0,1-4.42,1.65h0q-.33,0-.66,0h0a7.41,7.41,0,0,1-5.71-3.13h0A12.4,12.4,0,0,1,17,30.09h0v0h0V30h0q0-3.21,0-6.37h0c0-3.5,0-7,0-10.47h0c0-.13,0-.26,0-.39h0c0-.16,0-.32,0-.48h0c0-.41,0-.82,0-1.23h0s0,0,0,0h0a3.5,3.5,0,0,0-3.49-3.48h0A3.5,3.5,0,0,0,10,11Z"/><path class="cls-6" d="M25.44,45.36c-.35,0-.7,0-1.05,0h0a12.37,12.37,0,0,1-9.31-5.15h0a17.23,17.23,0,0,1-3-10.11h0v-.12h0q0-3.15,0-6.32h0c0-3.62,0-7.24,0-10.86h0V11h0a1.43,1.43,0,0,1,1.44-1.44h0A1.44,1.44,0,0,1,15,11h0v1.73h0c0,3.62,0,7.24,0,10.86h0c0,2.11,0,4.22,0,6.35h0v.09h0a14.38,14.38,0,0,0,2.46,8.42h0a9.47,9.47,0,0,0,7.21,4h0l.82,0h0a8.55,8.55,0,0,0,5.78-2.16h0a12.21,12.21,0,0,0,3.44-5.65h0a26.17,26.17,0,0,0,.85-7.59h0c0-1.08,0-2.17,0-3.27h0c0-.84,0-1.67,0-2.51h0c0-2.21,0-4.42,0-6.62h0v-1h0V13.4h0V11.91h0v-.58h0A1.44,1.44,0,0,1,36.93,9.9h0a1.45,1.45,0,0,1,1.44,1.44h0c0,.19,0,.38,0,.57h0V13.4h0v.33h0c0,.31,0,.64,0,1h0q0,3.31,0,6.62h0v2.5h0c0,1.07,0,2.17,0,3.28h0a28.87,28.87,0,0,1-1,8.42h0a14.92,14.92,0,0,1-4.29,7h0a11.4,11.4,0,0,1-7.66,2.88h0Z"/><path class="cls-7" d="M12.9,8a3.24,3.24,0,0,0-2.4,3.28c-.06,2.81,0,3.36,0,3.36s.35,1,.69-.27V12.33s-.07-2.94,1.64-3.76C12.83,8.57,14.13,8,12.9,8Z"/><path class="cls-7" d="M11.12,17.23a.38.38,0,0,1-.38.37h0a.38.38,0,0,1-.37-.37V16.4a.38.38,0,0,1,.37-.37h0a.38.38,0,0,1,.38.37Z"/><path class="cls-8" d="M63.24,16.06C62.93,14.41,65.39,14,65.39,14l.06-.07-.31,0c-2.08.19-2.85.77-2.8,2.89a9.55,9.55,0,0,1,1-.34C63.28,16.28,63.25,16.15,63.24,16.06Z"/><path class="cls-8" d="M54.89,14.8l.18,0a1.88,1.88,0,0,1,2.06,1.75s.25,14.79.56,17.41,2,4.82,5,4S65,32.69,65,32.69,64,22.48,63.49,18a8.16,8.16,0,0,0-1,.52c.39,4.09,1.59,14.8,1.59,14.8s.26,3.44-2.26,3.59-3.08-1.74-3.23-5.23S58,16.73,58,16.73s.41-2.26-2.26-2.47a2,2,0,0,0-2.38,1.81A2.64,2.64,0,0,1,54.89,14.8Z"/><path class="cls-9" d="M71.09,34.13c-.39-3.4-1.87-13.22-2-16.69l-.86-.09a15.06,15.06,0,0,0-1.66,0,9.61,9.61,0,0,0-3,.66C64,22.48,65,32.69,65,32.69s.77,4.32-2.26,5.19-4.72-1.34-5-4-.56-17.41-.56-17.41a1.88,1.88,0,0,0-2.06-1.75l-.18,0c-1.19.43-.89,2.34-.89,2.34s.46,13.76.71,18.07a10.54,10.54,0,0,0,2.37,6.47v.14a6.52,6.52,0,0,0,4.25,1.3,7,7,0,0,0,4.43-1.57,7,7,0,0,0,1.47-3.11c.36-1.9.87-2.46,1.08.16s1.18,2.87,1.18,2.87l0,.17a2.61,2.61,0,0,0,.62,0C72.32,41.27,71.5,37.67,71.09,34.13ZM63.3,16.45a11.86,11.86,0,0,1,2.83-.54,9.82,9.82,0,0,1,1.94.06,7.19,7.19,0,0,1,.89.15c-.32-2.06-1.66-2.37-3.51-2.24l-.06.07s-2.46.46-2.15,2.11C63.25,16.15,63.28,16.28,63.3,16.45Z"/><path class="cls-10" d="M63.3,16.45a9.55,9.55,0,0,0-1,.34c0,.19,0,.39,0,.6s.06.66.11,1.12a8.16,8.16,0,0,1,1-.52C63.41,17.34,63.35,16.81,63.3,16.45Z"/><path class="cls-11" d="M68.13,16.51c0,.19,0,.48.06.84l.86.09c0-.14,0-.28,0-.41a6,6,0,0,0-.08-.91,7.19,7.19,0,0,0-.89-.15A4,4,0,0,1,68.13,16.51Z"/><path class="cls-11" d="M66.13,15.91a11.86,11.86,0,0,0-2.83.54c.05.36.11.89.19,1.54a9.61,9.61,0,0,1,3-.66A6.15,6.15,0,0,0,66.13,15.91Z"/><path class="cls-12" d="M68.19,17.35c0-.36,0-.65-.06-.84a4,4,0,0,0-.06-.54,9.82,9.82,0,0,0-1.94-.06,6.15,6.15,0,0,1,.4,1.42A15.06,15.06,0,0,1,68.19,17.35Z"/><path class="cls-13" d="M66.53,17.33c.23,1.22.42,3.11.71,6,.58,5.78,1.68,17,2.4,17.19,0,0,.34.45.84-.13s.07-2.93-.82-9.58c-.77-5.76-1.29-11.17-1.47-13.49A15.06,15.06,0,0,0,66.53,17.33Z"/><path class="cls-13" d="M68.07,16c-.18-1.06-.74-1.4-2.25-1.35-1.74,0-1,.23-.17.72a1.27,1.27,0,0,1,.48.57A9.82,9.82,0,0,1,68.07,16Z"/><path class="cls-8" d="M68.32,38.6c-.21-2.62-.72-2.06-1.08-.16a7,7,0,0,1-1.47,3.11,7.6,7.6,0,0,0,1.88-2.34s.29,2.21,1.9,2.43l0-.17S68.53,41.22,68.32,38.6Z"/><path class="cls-8" d="M53.36,16.07a13.71,13.71,0,0,0-.08,1.42c-.06,1,.61,17.31.61,17.31s.18,4.68,3.2,7v-.14a10.54,10.54,0,0,1-2.37-6.47C54.46,30.9,54,17.14,54,17.14s-.3-1.91.89-2.34A2.64,2.64,0,0,0,53.36,16.07Z"/><path class="cls-14" d="M68.35,14.33a3.63,3.63,0,0,1,.89,2.7h0c.05,3,1.65,13.53,2.06,17.08h0A48.41,48.41,0,0,1,71.8,39h0c0,1.43-.34,2.63-1.6,2.84h0a3,3,0,0,1-.4,0h0a2.16,2.16,0,0,1-1.94-1.34h0a3.8,3.8,0,0,1-.29-.75h0a7.25,7.25,0,0,1-6.09,3.55h-.33A6.71,6.71,0,0,1,54.73,39h0a12.32,12.32,0,0,1-1-4.23h0s-.62-15.14-.62-17.14h0v-.19h0a7.5,7.5,0,0,1,.23-2h0A2,2,0,0,1,55.44,14h0l.32,0h0a2.32,2.32,0,0,1,2.47,2.35h0c0,.16,0,.28,0,.33h0c0,.53.41,11.51.56,14.92h0a10.26,10.26,0,0,0,.66,3.8h0a2.09,2.09,0,0,0,2.09,1.25h.27a1.93,1.93,0,0,0,1.74-1.29h0a4.9,4.9,0,0,0,.33-1.84h0a1.44,1.44,0,0,1,0-.24h0S62.37,20,62.16,17.41h0c0-.29,0-.55,0-.79h0a2.8,2.8,0,0,1,.71-2.19h0a3.81,3.81,0,0,1,2.28-.73h0c.34,0,.68,0,1,0h0a3.15,3.15,0,0,1,2.24.68Zm1.78,27.1c1-.16,1.25-1,1.26-2.44h0c0-1.35-.3-3.09-.5-4.84h0c-.41-3.53-2-14-2.06-17.11h0c-.08-2.51-1-2.94-2.72-3h0c-.3,0-.62,0-1,0h0a3.42,3.42,0,0,0-2,.63h0a2.36,2.36,0,0,0-.58,1.88h0c0,.23,0,.48,0,.76h0c.21,2.6,1.69,15.89,1.69,15.91h0s0,.11,0,.28h0a5.42,5.42,0,0,1-.36,2h0a2.37,2.37,0,0,1-2.1,1.53h-.29a2.5,2.5,0,0,1-2.46-1.48h0a10.61,10.61,0,0,1-.7-4h0c-.15-3.5-.56-14.95-.56-14.95h0v0a1.73,1.73,0,0,0,0-.28h0c0-.59-.16-1.78-2.09-1.94h-.29a1.61,1.61,0,0,0-1.75,1.13h0a7.21,7.21,0,0,0-.21,1.92h0v.16h0c0,2,.62,17.1.62,17.12h0a11.13,11.13,0,0,0,.15,1.27h0a12.24,12.24,0,0,0,.85,2.81h0a6.3,6.3,0,0,0,6,4h.33a6.84,6.84,0,0,0,6-3.79h0l.31-.58.08.65a3.87,3.87,0,0,0,.36,1.15h0a1.77,1.77,0,0,0,1.58,1.12h0l.33,0Z"/><path class="cls-13" d="M59,37.59a4.83,4.83,0,0,1-2-4.24C56.9,30.22,56.6,18,56.6,18s.25-2.5-.52-2.55-.61,1.59-.61,2.5.46,15.41.46,15.41S55.88,37.2,59,37.59Z"/></g></g></svg>