<svg xmlns="http://www.w3.org/2000/svg" viewBox="0 0 85.04 56.69"><defs><style>.cls-1{isolation:isolate;}.cls-2{opacity:0.31;}.cls-3,.cls-4{fill:#00b3da;}.cls-13,.cls-3{mix-blend-mode:multiply;opacity:0.5;}.cls-5{fill:#7ac5dc;}.cls-6{fill:#0077a3;}.cls-7{fill:#e63e84;}.cls-8{fill:#e64c8c;}.cls-9{fill:#f083ac;}.cls-10{fill:#db005c;}.cls-11,.cls-13{fill:#0059d6;}.cls-12{fill:#0081d0;}.cls-14{fill:#044faa;}.cls-15{fill:#ff9800;}.cls-16{fill:#fccb35;}.cls-17{fill:#e77414;}.cls-18{fill:#044a8e;}.cls-19{fill:#4aa6de;}</style></defs><g class="cls-1"><g id="Layer_1" data-name="Layer 1"><path class="cls-2" d="M23.93,42.09c-.9.08-1.8.18-2.65.18a38.54,38.54,0,0,0-6.7.68c-1.26.24-5.78,1.42-2.6,2.81a22.32,22.32,0,0,0,6.57,1.43c3.12.31,6.91.71,9.94-.3,3.9-1.3-1.69,1.69,9,2s5.07-1.3,10.4-1.3,8.84-2.34-.26-2.6-2.08-1.69-6.5-3c-2.71-.79-5.54-.41-8.33,0C29.8,42.28,26.89,41.8,23.93,42.09Z"/><path class="cls-2" d="M22.2,43.7s-5.71-.4-5.83,1.15,9.91,1.31,14.45.36,3.58.95,6.57.59,3.82-2.74-2-2.62S28,43.27,22.2,43.7Z"/><path class="cls-2" d="M70.25,42.14s5.57-.55,6.55,1.4-8.09.14-7.53,1.67S65.09,48.14,61.88,47s-.55-2-5.85-2-10.87-2.37,1.53-3.76S67.88,41.73,70.25,42.14Z"/><path class="cls-2" d="M64.94,43.13s3.18-.25,3.74.62-4.62.06-4.3.75-2.39,1.3-4.22.8-.32-.87-3.34-.87-6.21-1,.88-1.67S63.59,42.94,64.94,43.13Z"/><path class="cls-3" d="M67,22.82c.75-2.31,2.08-1.88,2.08-1.88a2,2,0,0,0-2.58,1.36L62,36.86l0-.08.4,1Z"/><path class="cls-4" d="M58.5,34.39,58,33.23a3.94,3.94,0,0,1-1.2.2l.49,1.07A2,2,0,0,0,58.5,34.39Z"/><path class="cls-4" d="M59.15,32.47l.47,1a1.9,1.9,0,0,0,.29-.9l-.37-.84A1.69,1.69,0,0,1,59.15,32.47Z"/><path class="cls-4" d="M53.2,25.57l3,6.7a2.23,2.23,0,0,0,1.26-.08l-3.8-8.33h0a.79.79,0,0,1,.3-1,.66.66,0,0,1,.92.34l3.71,8.14a1.85,1.85,0,0,0,.33-.9l-3.05-6.94a1.92,1.92,0,0,0-1.72-1.2,1.68,1.68,0,0,0-.8.21,1.84,1.84,0,0,0-.6.51A3.42,3.42,0,0,0,53.2,25.57Z"/><path class="cls-4" d="M62.09,38.93l0,0,.08.15a2.23,2.23,0,0,0,.26.33l0,0a2.61,2.61,0,0,0,.24-.58l5.58-17a.66.66,0,0,1,.88-.44.8.8,0,0,1,.41,1L64,39.43a3.32,3.32,0,0,1-.54,1.1,1.22,1.22,0,0,1-.88.5h0a1.3,1.3,0,0,1-.82-.26,2.79,2.79,0,0,1-.48-.5,3.67,3.67,0,0,1-.4-.66L59,35.43a3.66,3.66,0,0,1-1.19.22l2.59,5.71s1.13,2.31,3.11,1.7a2.43,2.43,0,0,0,.61-.58,4.84,4.84,0,0,0,.75-1.55l5.38-17.15a2.37,2.37,0,0,0,.11-.69,2.15,2.15,0,0,0-1.27-2,1.79,1.79,0,0,0-2.39,1.26L62,37.28l-1.46-3.34a1.87,1.87,0,0,1-.37.71Z"/><path class="cls-5" d="M58.63,31.33l-3.71-8.14a.66.66,0,0,0-.92-.34.79.79,0,0,0-.3,1h0l3.8,8.33a2.53,2.53,0,0,0,.29-.14A2.27,2.27,0,0,0,58.63,31.33Z"/><path class="cls-5" d="M58.29,33.11a3,3,0,0,1-.32.12l.53,1.16.24-.12a2.27,2.27,0,0,0,.88-.77l-.47-1A2.82,2.82,0,0,1,58.29,33.11Z"/><path class="cls-5" d="M59.24,35.33l-.27.1,1.91,4.18a3.67,3.67,0,0,0,.4.66,2.79,2.79,0,0,0,.48.5,1.3,1.3,0,0,0,.82.26h0a1.22,1.22,0,0,0,.88-.5,3.32,3.32,0,0,0,.54-1.1l5.58-17a.8.8,0,0,0-.41-1,.66.66,0,0,0-.88.44l-5.58,17a2.61,2.61,0,0,1-.24.58l0,0a2.23,2.23,0,0,1-.26-.33L62.11,39l0,0-2-4.28A2.85,2.85,0,0,1,59.24,35.33Z"/><path class="cls-4" d="M60.37,41.36l-2.59-5.71a1.57,1.57,0,0,1-.78-.18l2.54,5.78v0a6.87,6.87,0,0,0,.53.89,3.88,3.88,0,0,0,.73.76,2.36,2.36,0,0,0,1.45.52h.11v0h0a2.21,2.21,0,0,0,1.07-.39C61.5,43.67,60.37,41.36,60.37,41.36Z"/><path class="cls-3" d="M60.37,41.36l-2.59-5.71a1.57,1.57,0,0,1-.78-.18l2.54,5.78v0a6.87,6.87,0,0,0,.53.89,3.88,3.88,0,0,0,.73.76,2.36,2.36,0,0,0,1.45.52h.11v0h0a2.21,2.21,0,0,0,1.07-.39C61.5,43.67,60.37,41.36,60.37,41.36Z"/><path class="cls-4" d="M56.77,33.43a1.51,1.51,0,0,1-.76-.2l.41.93a2.53,2.53,0,0,0,.84.34Z"/><path class="cls-3" d="M56.77,33.43a1.51,1.51,0,0,1-.76-.2l.41.93a2.53,2.53,0,0,0,.84.34Z"/><path class="cls-4" d="M53.2,25.57A3.42,3.42,0,0,1,52.79,23a2.24,2.24,0,0,0-.46,1.37,2.2,2.2,0,0,0,.2.93l2.9,6.6a2.49,2.49,0,0,0,.81.36Z"/><path class="cls-3" d="M53.2,25.57A3.42,3.42,0,0,1,52.79,23a2.24,2.24,0,0,0-.46,1.37,2.2,2.2,0,0,0,.2.93l2.9,6.6a2.49,2.49,0,0,0,.81.36Z"/><path class="cls-6" d="M55.74,33l-.06-.08-.11,0,.5,1.15.14-.05Z"/><path class="cls-6" d="M59.59,31.5l.34.78.12-.09-.43-1,0,.08A1.25,1.25,0,0,1,59.59,31.5Z"/><path class="cls-6" d="M52.39,25.37a2.07,2.07,0,0,1-.13-.4l0-.14a2.48,2.48,0,0,1,0-.27,1,1,0,0,1,0-.17,2.18,2.18,0,0,1,0-.25c0-.05,0-.11,0-.16s0-.16.05-.24,0-.1,0-.16l.09-.23a.83.83,0,0,0,.07-.13,1.14,1.14,0,0,1,.15-.23.61.61,0,0,1,.07-.1,1.79,1.79,0,0,1,.27-.28h0a2.71,2.71,0,0,1,.35-.24A2,2,0,0,1,56,23.43L59,30.08l.12-.1-2.91-6.61a2.18,2.18,0,0,0-2-1.37,2,2,0,0,0-.94.24A2.4,2.4,0,0,0,52,24.38a2.6,2.6,0,0,0,.22,1.05l2.84,6.45.14-.05Z"/><path class="cls-6" d="M69.16,20.81a1.92,1.92,0,0,0-.74-.15,2.16,2.16,0,0,0-2,1.6L61.93,36.45l-1.35-3.06,0,.11a1.15,1.15,0,0,1,0,.17L62,36.86,66.53,22.3a2,2,0,0,1,2.58-1.36,2.37,2.37,0,0,1,1.26,2.89L65,41a4.93,4.93,0,0,1-.77,1.6,2.87,2.87,0,0,1-.42.44l0,0-.15.11,0,0-.24.14-.11.06-.1,0-.14.06-.09,0-.16,0h-.08l-.26,0h0a2.43,2.43,0,0,1-1.66-.55,3.57,3.57,0,0,1-.75-.79,5.13,5.13,0,0,1-.55-.92v0l-2.66-6-.12-.15-.09,0,2.73,6.2,0,0a6.07,6.07,0,0,0,.56,1,4.09,4.09,0,0,0,.78.81,2.6,2.6,0,0,0,1.63.59h.16a2.67,2.67,0,0,0,1.9-1.08,5,5,0,0,0,.8-1.64L70.5,23.87a2.64,2.64,0,0,0,.12-.78A2.42,2.42,0,0,0,69.16,20.81Z"/><path class="cls-6" d="M63.77,43l-.15.11Z"/><path class="cls-6" d="M63.59,43.17l-.24.14Z"/><path class="cls-6" d="M63,43.47l-.09,0Z"/><path class="cls-6" d="M63.24,43.37l-.1,0Z"/><path class="cls-6" d="M62.75,43.55h0Z"/><path class="cls-6" d="M62,37.28l4.7-14.94a1.79,1.79,0,0,1,2.39-1.26,2.15,2.15,0,0,1,1.27,2,2.37,2.37,0,0,1-.11.69L64.84,40.93a4.84,4.84,0,0,1-.75,1.55,2.43,2.43,0,0,1-.61.58l.24-.08.21-.1-.14.13a2.87,2.87,0,0,0,.42-.44A4.93,4.93,0,0,0,65,41l5.39-17.14a2.37,2.37,0,0,0-1.26-2.89,2,2,0,0,0-2.58,1.36L62,36.86l-1.4-3.19c0,.08,0,.17,0,.27Z"/><path class="cls-6" d="M59.91,32.6a1.2,1.2,0,0,0,0-.3l0,0-.34-.78a1,1,0,0,1-.05.26Z"/><path class="cls-6" d="M53.39,22.5a1.68,1.68,0,0,1,.8-.21,1.92,1.92,0,0,1,1.72,1.2L59,30.43a1.63,1.63,0,0,0,0-.35h0L56,23.43a2,2,0,0,0-2.72-1.06,2.71,2.71,0,0,0-.35.24,1.39,1.39,0,0,0-.18.4A1.84,1.84,0,0,1,53.39,22.5Z"/><path class="cls-6" d="M62.67,43.56l-.26,0Z"/><path class="cls-6" d="M62.91,43.5l-.16,0Z"/><path class="cls-6" d="M63.62,43.14l0,0Z"/><path class="cls-6" d="M63.79,43l0,0Z"/><path class="cls-6" d="M63.14,43.41l-.14.06Z"/><path class="cls-6" d="M63.35,43.31l-.11.06Z"/><path class="cls-6" d="M63.72,43l-.24.08a2.21,2.21,0,0,1-1.07.39h0v0h-.11a2.36,2.36,0,0,1-1.45-.52,3.88,3.88,0,0,1-.73-.76,6.87,6.87,0,0,1-.53-.89v0L57,35.47a1.22,1.22,0,0,1-.25-.2l2.66,6v0a5.13,5.13,0,0,0,.55.92,3.57,3.57,0,0,0,.75.79,2.43,2.43,0,0,0,1.66.55h0l.26,0h.08l.16,0,.09,0,.14-.06.1,0,.11-.06.24-.14,0,0,.15-.11,0,0,.14-.13Z"/><path class="cls-6" d="M55.43,31.91l-2.9-6.6a2.2,2.2,0,0,1-.2-.93A2.24,2.24,0,0,1,52.79,23a1.39,1.39,0,0,1,.18-.4,1.79,1.79,0,0,0-.27.28.61.61,0,0,0-.07.1,1.14,1.14,0,0,0-.15.23.83.83,0,0,1-.07.13l-.09.23c0,.06,0,.11,0,.16s0,.16-.05.24,0,.11,0,.16a2.18,2.18,0,0,0,0,.25,1,1,0,0,0,0,.17,2.48,2.48,0,0,0,0,.27l0,.14a2.07,2.07,0,0,0,.13.4l2.85,6.46,0,0Z"/><path class="cls-6" d="M56.42,34.16,56,33.23a1.27,1.27,0,0,1-.27-.25L56.21,34h0Z"/><path class="cls-7" d="M57.26,34.5l.52,1.15A3.66,3.66,0,0,0,59,35.43l-.47-1A2,2,0,0,1,57.26,34.5Z"/><path class="cls-8" d="M60.14,34.65a1.87,1.87,0,0,0,.37-.71l-.6-1.34a1.9,1.9,0,0,1-.29.9Z"/><path class="cls-9" d="M58.74,34.27l-.24.12.47,1,.27-.1a2.85,2.85,0,0,0,.9-.68l-.52-1.15A2.27,2.27,0,0,1,58.74,34.27Z"/><path class="cls-10" d="M57.78,35.65l-.52-1.15a2.53,2.53,0,0,1-.84-.34L57,35.47A1.57,1.57,0,0,0,57.78,35.65Z"/><path class="cls-8" d="M59.15,32.47a1.69,1.69,0,0,0,.39-.71L59,30.43a1.85,1.85,0,0,1-.33.9Z"/><path class="cls-7" d="M58,33.23l-.47-1a2.23,2.23,0,0,1-1.26.08l.53,1.16A3.94,3.94,0,0,0,58,33.23Z"/><path class="cls-9" d="M57.79,32.05a2.53,2.53,0,0,1-.29.14l.47,1a3,3,0,0,0,.32-.12,2.82,2.82,0,0,0,.86-.64l-.52-1.14A2.27,2.27,0,0,1,57.79,32.05Z"/><path class="cls-10" d="M56.24,32.27a2.49,2.49,0,0,1-.81-.36L56,33.23a1.51,1.51,0,0,0,.76.2Z"/><path class="cls-6" d="M60.58,33.39l-.53-1.2-.12.09,0,0a1.2,1.2,0,0,1,0,.3l.6,1.34c0-.1,0-.19,0-.27a1.15,1.15,0,0,0,0-.17ZM56.24,34h0l-.14.05.47,1.07.09,0,.12.15a1.22,1.22,0,0,0,.25.2l-.58-1.31ZM59.08,30l-.12.1h0a1.63,1.63,0,0,1,0,.35l.58,1.33a1,1,0,0,0,.05-.26,1.25,1.25,0,0,0,0-.22l0-.08Zm-3.79,1.83,0,0-.14.05.47,1.06.11,0,.06.08a1.27,1.27,0,0,0,.27.25l-.58-1.32Z"/><path class="cls-11" d="M10.94,16.31l.43,1A4.22,4.22,0,0,1,13.1,16l-.48-1.12A4.08,4.08,0,0,0,10.94,16.31Z"/><path class="cls-11" d="M15.1,14.35l.49,1.13a2.77,2.77,0,0,1,1.8.82l-.47-1.13A3.09,3.09,0,0,0,15.1,14.35Z"/><path class="cls-11" d="M16.26,17,25,37.27l0,.07c0,.06.07.14.13.24a3.36,3.36,0,0,0,.43.58l.05,0a4.22,4.22,0,0,0,.51-.92l12-27.41a1.25,1.25,0,0,1,2.29,1l-12,27.4A5.53,5.53,0,0,1,27.33,40a2.43,2.43,0,0,1-1.65.74h0a2.43,2.43,0,0,1-1.46-.52,4.32,4.32,0,0,1-.82-.85,6,6,0,0,1-.67-1.12l-9-20.81A4.4,4.4,0,0,0,12,18.81l9.59,22.3S23.38,45,27,44.21a4.79,4.79,0,0,0,1.25-.93,7.76,7.76,0,0,0,1.53-2.48L41.42,13.13a3.52,3.52,0,0,0,.27-1.34,3.45,3.45,0,0,0-2.12-3.18,3.36,3.36,0,0,0-1.34-.28A3.49,3.49,0,0,0,35,10.45L24.94,34.52l-6.8-16.39A3.09,3.09,0,0,0,16.26,17Z"/><path class="cls-11" d="M10.15,14.48l.14.33A4.18,4.18,0,0,1,12,13.41l-.73-1.69h0a1.25,1.25,0,0,1,2.29-1l.89,2.07a2.73,2.73,0,0,1,1.75.6l-.86-2.07a3.46,3.46,0,0,0-4.51-1.87,3.48,3.48,0,0,0-1.13.77A5.13,5.13,0,0,0,10.15,14.48Z"/><path class="cls-12" d="M13.42,14.57a4.68,4.68,0,0,0-.8.31L13.1,16l.64-.25a4.75,4.75,0,0,1,1.85-.27l-.49-1.13A3.89,3.89,0,0,0,13.42,14.57Z"/><path class="cls-12" d="M14.37,17.24a5.55,5.55,0,0,0-.64.23l9,20.81a6,6,0,0,0,.67,1.12,4.32,4.32,0,0,0,.82.85,2.43,2.43,0,0,0,1.46.52h0A2.43,2.43,0,0,0,27.33,40a5.53,5.53,0,0,0,1.1-1.76l12-27.4a1.25,1.25,0,0,0-2.29-1l-12,27.41a4.22,4.22,0,0,1-.51.92l-.05,0a3.36,3.36,0,0,1-.43-.58c-.06-.1-.1-.18-.13-.24l0-.07L16.26,17A3.84,3.84,0,0,0,14.37,17.24Z"/><path class="cls-12" d="M14.43,12.8l-.89-2.07a1.25,1.25,0,0,0-2.29,1h0L12,13.41c.25-.11.5-.22.8-.33A5,5,0,0,1,14.43,12.8Z"/><path class="cls-11" d="M25.09,44.71a4.33,4.33,0,0,0,1.94-.5c-3.65.77-5.43-3.1-5.43-3.1L12,18.81a3.24,3.24,0,0,0-.55,1.25l8.61,20.76,0,0A9.19,9.19,0,0,0,21,42.39,6.63,6.63,0,0,0,22.2,43.7a4.58,4.58,0,0,0,2.83,1V45h0v-.26Z"/><path class="cls-13" d="M25.09,44.71a4.33,4.33,0,0,0,1.94-.5c-3.65.77-5.43-3.1-5.43-3.1L12,18.81a3.24,3.24,0,0,0-.55,1.25l8.61,20.76,0,0A9.19,9.19,0,0,0,21,42.39,6.63,6.63,0,0,0,22.2,43.7a4.58,4.58,0,0,0,2.83,1V45h0v-.26Z"/><path class="cls-11" d="M10.15,14.48a5.13,5.13,0,0,1-.47-4.25,3.46,3.46,0,0,0-1,2.43A3.41,3.41,0,0,0,8.94,14l.89,2.15a3.07,3.07,0,0,1,.46-1.32Z"/><path class="cls-13" d="M10.15,14.48a5.13,5.13,0,0,1-.47-4.25,3.46,3.46,0,0,0-1,2.43A3.41,3.41,0,0,0,8.94,14l.89,2.15a3.07,3.07,0,0,1,.46-1.32Z"/><path class="cls-11" d="M10.94,16.31a3.18,3.18,0,0,0-.47,1.37l.36.85a2.89,2.89,0,0,1,.54-1.21Z"/><path class="cls-13" d="M10.94,16.31a3.18,3.18,0,0,0-.47,1.37l.36.85a2.89,2.89,0,0,1,.54-1.21Z"/><path class="cls-14" d="M10.77,19.06l-.46-1.12-.23.12.61,1.47.12,0A2.07,2.07,0,0,1,10.77,19.06Z"/><polygon class="cls-14" points="18.11 17.39 18.36 17.32 17.74 15.83 17.49 15.88 18.11 17.39"/><path class="cls-14" d="M8.71,14.08a2.3,2.3,0,0,1-.12-.34.76.76,0,0,1,0-.11,1.89,1.89,0,0,1-.05-.23l0-.14a1.36,1.36,0,0,1,0-.2c0-.05,0-.1,0-.14v-.21a.33.33,0,0,1,0-.14,1.27,1.27,0,0,1,0-.2.66.66,0,0,1,0-.14l0-.22s0-.07,0-.11.05-.21.08-.32h0a2.83,2.83,0,0,1,.11-.31,1,1,0,0,1,0-.1,2,2,0,0,1,.1-.21l.06-.11A1.74,1.74,0,0,1,9,10.66l.07-.11.12-.17.09-.1a1.07,1.07,0,0,1,.14-.16L9.52,10l.17-.17.08-.07a2.83,2.83,0,0,1,.28-.2h0a3.48,3.48,0,0,1,.66-.36,3.7,3.7,0,0,1,4.85,2l1.11,2.67a3,3,0,0,1,.44.83l.16-.05-1.48-3.55a4,4,0,0,0-3.66-2.45A3.9,3.9,0,0,0,10.61,9a4,4,0,0,0-2.14,5.18l1.14,2.74.23-.1Z"/><path class="cls-14" d="M26.18,44.81l-.18,0Z"/><path class="cls-14" d="M25.7,44.91l-.15,0Z"/><path class="cls-14" d="M27.25,44.38l-.41.19Z"/><path class="cls-14" d="M10.81,9.46a3.46,3.46,0,0,1,4.51,1.87l.86,2.07a2.91,2.91,0,0,1,.49.51l-1.11-2.67a3.7,3.7,0,0,0-4.85-2,3.48,3.48,0,0,0-.66.36,2.6,2.6,0,0,0-.37.64A3.48,3.48,0,0,1,10.81,9.46Z"/><path class="cls-14" d="M26.62,44.67l-.18.06Z"/><path class="cls-14" d="M16.92,15.17l.47,1.13a3.06,3.06,0,0,1,.67,1.11l.05,0-.62-1.51h0A3.49,3.49,0,0,0,16.92,15.17Z"/><path class="cls-14" d="M25.55,44.94l-.46,0Z"/><path class="cls-14" d="M26.84,44.57l-.22.1Z"/><path class="cls-14" d="M27.34,44.33l-.09.05Z"/><path class="cls-14" d="M26,44.85a1.59,1.59,0,0,1-.3.06A1.59,1.59,0,0,0,26,44.85Z"/><path class="cls-14" d="M26.44,44.73l-.26.08Z"/><path class="cls-14" d="M10.47,17.68c0,.06,0,.13,0,.19l-.14.07.46,1.12a2.77,2.77,0,0,1,.06-.53Z"/><path class="cls-14" d="M9.83,16.13,8.94,14a3.41,3.41,0,0,1-.26-1.32,3.46,3.46,0,0,1,1-2.43,2.6,2.6,0,0,1,.37-.64,2.83,2.83,0,0,0-.28.2l-.08.07L9.52,10l-.09.09a1.07,1.07,0,0,0-.14.16l-.09.1-.12.17L9,10.66a1.74,1.74,0,0,0-.11.18L8.84,11a2,2,0,0,0-.1.21,1,1,0,0,0,0,.1,2.83,2.83,0,0,0-.11.31h0c0,.11-.06.21-.08.32s0,.07,0,.11l0,.22a.66.66,0,0,0,0,.14,1.27,1.27,0,0,0,0,.2.33.33,0,0,0,0,.14v.21s0,.09,0,.14a1.36,1.36,0,0,0,0,.2l0,.14a1.89,1.89,0,0,0,.05.23.76.76,0,0,0,0,.11,2.3,2.3,0,0,0,.12.34l1.13,2.74h0A2.23,2.23,0,0,1,9.83,16.13Z"/><path class="cls-14" d="M39.76,8.14a3.77,3.77,0,0,0-1.53-.31,4,4,0,0,0-3.66,2.43L24.94,33.2l-6.1-14.73-.26.05-.14,0a3,3,0,0,0-.3-.42l6.8,16.39L35,10.45a3.49,3.49,0,0,1,3.19-2.12,3.36,3.36,0,0,1,1.34.28,3.45,3.45,0,0,1,2.12,3.18,3.52,3.52,0,0,1-.27,1.34L29.81,40.8a7.76,7.76,0,0,1-1.53,2.48,4.79,4.79,0,0,1-1.25.93,4.33,4.33,0,0,1-1.94.5H25v0a4.58,4.58,0,0,1-2.83-1A6.63,6.63,0,0,1,21,42.39a9.19,9.19,0,0,1-.87-1.52l0,0L11.46,20.06a3.86,3.86,0,0,0-.06.49h0l-.23.11L19.6,41l0,.07a10.08,10.08,0,0,0,.92,1.61,7,7,0,0,0,1.34,1.41A5,5,0,0,0,25,45.22h.07a5.09,5.09,0,0,0,3.56-1.6A8.12,8.12,0,0,0,30.27,41L41.89,13.33a4.19,4.19,0,0,0,.31-1.54A4,4,0,0,0,39.76,8.14Z"/><path class="cls-15" d="M14.43,12.8l.67,1.55a3.09,3.09,0,0,1,1.82.82l-.74-1.77A2.73,2.73,0,0,0,14.43,12.8Z"/><path class="cls-15" d="M12.62,14.88,12,13.41a4.18,4.18,0,0,0-1.69,1.4l.65,1.5A4.08,4.08,0,0,1,12.62,14.88Z"/><path class="cls-16" d="M12.78,13.08c-.3.11-.55.22-.8.33l.64,1.47a4.68,4.68,0,0,1,.8-.31,3.89,3.89,0,0,1,1.68-.22l-.67-1.55A5,5,0,0,0,12.78,13.08Z"/><path class="cls-17" d="M10.29,14.81a3.07,3.07,0,0,0-.46,1.32l.64,1.55a3.18,3.18,0,0,1,.47-1.37Z"/><path class="cls-15" d="M13.73,17.47,13.1,16a4.22,4.22,0,0,0-1.73,1.32L12,18.81A4.4,4.4,0,0,1,13.73,17.47Z"/><path class="cls-15" d="M16.26,17a3.09,3.09,0,0,1,1.88,1.09l-.75-1.83a2.77,2.77,0,0,0-1.8-.82Z"/><path class="cls-16" d="M13.74,15.75,13.1,16l.63,1.47a5.55,5.55,0,0,1,.64-.23,3.84,3.84,0,0,1,1.89-.2l-.67-1.56A4.75,4.75,0,0,0,13.74,15.75Z"/><path class="cls-17" d="M10.83,18.53l.63,1.53A3.24,3.24,0,0,1,12,18.81l-.64-1.49A2.89,2.89,0,0,0,10.83,18.53Z"/><path class="cls-18" d="M17.49,15.88l.25-.05-.47-1.14-.16.05a3,3,0,0,0-.44-.83,2.91,2.91,0,0,0-.49-.51l.74,1.77a3.49,3.49,0,0,1,.57.71Zm-7.63.94h0l-.23.1.47,1.14.23-.12.14-.07c0-.06,0-.13,0-.19l-.64-1.55A2.23,2.23,0,0,0,9.86,16.82Zm8.5.49-.25.08-.05,0a3.06,3.06,0,0,0-.67-1.11l.75,1.83a3,3,0,0,1,.3.42l.14,0,.26-.05Zm-7.59,1.75a2.07,2.07,0,0,0,0,.43l-.12,0,.47,1.13.23-.11h0a3.86,3.86,0,0,1,.06-.49l-.63-1.53A2.77,2.77,0,0,0,10.77,19.06Z"/><path class="cls-13" d="M35.79,11.49c1.61-3.73,4-2.89,4-2.89a3.69,3.69,0,0,0-4.85,2L25,34.5l-.06-.15.62,1.71Z"/><path class="cls-19" d="M40.08,9.48a2.71,2.71,0,0,1,1,3.25A23.31,23.31,0,0,1,40,15.15s-.58.57-.48-.45l.65-1.48s1-2.1-.18-3.32C40,9.9,39.07,9,40.08,9.48Z"/><path class="cls-19" d="M38.65,16.78a.32.32,0,0,0,.19.41h0a.34.34,0,0,0,.44-.14l.26-.59a.34.34,0,0,0-.2-.41h0a.31.31,0,0,0-.43.13Z"/></g></g></svg>