<svg xmlns="http://www.w3.org/2000/svg" viewBox="0 0 85.04 56.69"><defs><style>.cls-1{isolation:isolate;}.cls-2{opacity:0.4;}.cls-3{opacity:0.29;}.cls-4{fill:#fee757;}.cls-5{fill:#fbad18;}.cls-6{fill:#ffc60b;}.cls-12,.cls-6{mix-blend-mode:multiply;}.cls-7{fill:#fbf1bf;}.cls-8{fill:#fff;}.cls-9{fill:#ede338;}.cls-10{fill:#9bcb4c;}.cls-11{fill:#fff8a3;}.cls-12{fill:#b5d55b;opacity:0.6;}</style></defs><g class="cls-1"><g id="Layer_1" data-name="Layer 1"><g class="cls-2"><path d="M38.25,42.73c-.56,0-1.09,0-1.61.08-.24-1.58-5.94-2.56-20.75-1,0,0-8.12.25-9.1,2.71S15.4,49.22,27.44,47a35.19,35.19,0,0,0,4.71-1.17,25,25,0,0,0,6.2.49c4.38-.13,7.9-1,7.87-2S42.62,42.6,38.25,42.73Z"/></g><path class="cls-3" d="M18.66,42.17s-5.12.16-5.74,1.71,5.43,2.95,13,1.55S36,40.31,18.66,42.17Z"/><path class="cls-3" d="M42.88,44.13c0,.59-2.08,1.13-4.68,1.21s-4.73-.34-4.75-.93,2.08-1.13,4.69-1.21S42.86,43.54,42.88,44.13Z"/><path class="cls-4" d="M45.24,11.63a3.37,3.37,0,0,1,1.52-2.2A3.28,3.28,0,0,1,49,9a3.15,3.15,0,0,1,2.52,3.73c-.21,1.34-.48,2.67-.81,4s-.69,2.64-1.08,3.94q-.78,2.52-1.76,4.93c-.65,1.62-1.25,3.26-1.81,4.94s-1.13,3.15-1.71,4.7-1.18,3.13-1.81,4.7L41.9,41.6A5.45,5.45,0,0,1,41,43.1a3.21,3.21,0,0,1-2.16,1.26,2.89,2.89,0,0,1-2.41-.68,4.17,4.17,0,0,1-1.21-1.82c-.25-.72-.51-1.41-.79-2.07C34.15,39,33.8,38,33.39,37s-.74-1.92-1-2.73c-.6-1.57-1.17-3.16-1.71-4.75S29.55,26.34,29,24.76c-.49,1.47-1,2.9-1.54,4.28s-1.07,2.8-1.56,4.23c-.38.95-.75,1.89-1.1,2.84S24,38,23.65,38.89c-.25.63-.45,1.12-.61,1.45s-.41.85-.76,1.55a4.28,4.28,0,0,1-1.1,1.5,4.15,4.15,0,0,1-1.55.89,2.74,2.74,0,0,1-1.65,0A2.71,2.71,0,0,1,16.5,43a8.83,8.83,0,0,1-1.23-3.2,30.76,30.76,0,0,0-.81-3.36c-.21-.63-.42-1.27-.61-1.9s-.39-1.24-.6-1.83-.43-1.26-.66-1.9L11.93,29c-.7-2-1.42-4-2.18-6s-1.51-4-2.28-6a7.25,7.25,0,0,0-.58-1.29c-.24-.44-.47-.89-.68-1.36a9.27,9.27,0,0,1-.5-1.42,4.18,4.18,0,0,1-.13-1.39A2.79,2.79,0,0,1,6.23,10a3.41,3.41,0,0,1,1.29-.92A3.47,3.47,0,0,1,9.1,8.87a2.71,2.71,0,0,1,1.52.66,7.28,7.28,0,0,1,2.13,3.2c.47,1.34.92,2.56,1.34,3.68s.94,2.46,1.36,3.7.88,2.48,1.37,3.71,1,2.64,1.42,3.94.89,2.61,1.31,3.94c.14-.32.26-.64.37-1s.23-.68.37-1c.7-1.75,1.35-3.48,2-5.2S23.44,21,24,19.25a12.94,12.94,0,0,0,.45-1.5q.18-.77.39-1.5a15,15,0,0,0,.48-2,4.15,4.15,0,0,1,.63-1.55,2.74,2.74,0,0,1,1.26-1.07,3.68,3.68,0,0,1,1.63-.32,3.24,3.24,0,0,1,1.55.45,2.62,2.62,0,0,1,1.07,1.26,10,10,0,0,1,.42,1c.18.44.35.91.53,1.42s.35,1,.52,1.42.3.76.37,1c.42,1.12.82,2.22,1.21,3.31s.77,2.19,1.16,3.31c.49,1.44,1,2.84,1.49,4.23s1,2.76,1.55,4.12c.32-.91.61-1.84.89-2.78s.6-1.88.95-2.79q1.43-3.78,2.71-7.56a52.63,52.63,0,0,0,2-7.72Z"/><path class="cls-5" d="M36.26,43.91A4.46,4.46,0,0,1,35,42h0c-.25-.71-.51-1.39-.79-2.05h0c-.31-.84-.67-1.77-1.07-2.78h0c-.41-1-.75-1.93-1-2.74h0q-.9-2.37-1.71-4.76h0c-.45-1.32-.92-2.63-1.4-3.94h0c-.41,1.19-.84,2.35-1.28,3.48h0c-.54,1.38-1.05,2.78-1.54,4.21h0v0c-.38.94-.75,1.89-1.1,2.83h0c-.35.94-.72,1.87-1.1,2.79h0c-.25.63-.45,1.12-.62,1.46h0c-.16.34-.41.85-.76,1.55h0a4.65,4.65,0,0,1-1.18,1.6h0a4.39,4.39,0,0,1-1.66,1h0a3.26,3.26,0,0,1-.87.12h0a3.32,3.32,0,0,1-1-.15h0a3.09,3.09,0,0,1-1.63-1.39h0A8.79,8.79,0,0,1,15,39.84h0a30.51,30.51,0,0,0-.81-3.32h0c-.21-.63-.41-1.26-.6-1.9h0c-.2-.62-.4-1.23-.61-1.83h0c-.21-.62-.42-1.25-.65-1.88h0c-.23-.63-.45-1.24-.66-1.84h0c-.7-2-1.42-4-2.18-6h0c-.75-2-1.51-4-2.28-6h0a7.84,7.84,0,0,0-.56-1.24h0a15,15,0,0,1-.69-1.39h0A9.46,9.46,0,0,1,5.41,13h0a4.69,4.69,0,0,1-.15-1.17h0c0-.11,0-.22,0-.33h0A3.09,3.09,0,0,1,6,9.8H6a3.55,3.55,0,0,1,1.41-1h0a3.53,3.53,0,0,1,1.33-.25h.39a3.06,3.06,0,0,1,1.69.73h0A7.74,7.74,0,0,1,13,12.63h0c.47,1.33.92,2.55,1.34,3.67h0c.49,1.23.94,2.47,1.37,3.72h0c.41,1.23.87,2.46,1.36,3.68h0c.49,1.33,1,2.65,1.42,3.95h0c.36,1,.71,2.06,1,3.11h0s0-.09,0-.14h0c.11-.34.24-.69.38-1h0c.7-1.75,1.35-3.48,2-5.19h0c.61-1.71,1.17-3.46,1.7-5.24h0v0a14.46,14.46,0,0,0,.44-1.46h0c.12-.51.26-1,.4-1.51h0A16.59,16.59,0,0,0,25,14.24h0a4.43,4.43,0,0,1,.68-1.67h0a3.08,3.08,0,0,1,1.4-1.2h0A4.18,4.18,0,0,1,28.68,11h.13a3.57,3.57,0,0,1,1.69.49h0a3,3,0,0,1,1.2,1.4h0a9.08,9.08,0,0,1,.43,1h0c.18.44.35.92.53,1.43h0c.17.5.35,1,.52,1.4h0c.18.44.3.77.37,1h0C34,18.85,34.38,20,34.76,21h0c.39,1.08.77,2.19,1.16,3.31h0c.49,1.43,1,2.84,1.49,4.22h0c.41,1.11.82,2.22,1.24,3.32h0c.22-.65.42-1.3.62-2h0c.28-.95.6-1.89.95-2.81h0q1.43-3.77,2.7-7.55h0a49.87,49.87,0,0,0,2-7.67h0l0-.32v0a3.68,3.68,0,0,1,1.67-2.39h0a3.67,3.67,0,0,1,1.84-.52h0a3.36,3.36,0,0,1,.63.06h0A3.45,3.45,0,0,1,51.2,10h0a3.23,3.23,0,0,1,.7,2.11h0a5.16,5.16,0,0,1,0,.67h0c-.21,1.34-.49,2.68-.82,4h0c-.34,1.34-.7,2.65-1.08,4h0q-.8,2.53-1.77,5h0q-1,2.4-1.81,4.93h0q-.84,2.35-1.71,4.7h0q-.87,2.34-1.81,4.71h0l-.66,1.65h0a5.94,5.94,0,0,1-.91,1.58h0a3.48,3.48,0,0,1-2.35,1.37h0a3.53,3.53,0,0,1-.56.05h0a3.23,3.23,0,0,1-2.11-.8Zm-.71-2.15a3.81,3.81,0,0,0,1.12,1.68h0a2.54,2.54,0,0,0,1.7.65h0a2.56,2.56,0,0,0,.47,0h0a2.85,2.85,0,0,0,1.95-1.14h0a5.08,5.08,0,0,0,.82-1.41h0c.22-.58.44-1.13.65-1.66h0c.63-1.57,1.24-3.14,1.81-4.69h0q.87-2.34,1.71-4.7h0q.84-2.52,1.81-5h0q1-2.4,1.75-4.91h0q.59-1.93,1.08-3.93h0q.49-2,.81-4h0c0-.21,0-.4,0-.59h0a2.6,2.6,0,0,0-.56-1.72h0A2.84,2.84,0,0,0,49,9.31h0a3.15,3.15,0,0,0-.52-.05h0a3,3,0,0,0-1.53.43h0a3.09,3.09,0,0,0-1.38,2h0l0,.3a52.06,52.06,0,0,1-2,7.77h0c-.86,2.52-1.76,5.05-2.71,7.57h0c-.35.91-.66,1.83-.94,2.76h0c-.28.95-.58,1.89-.9,2.8h0a.3.3,0,0,1-.28.21h0a.33.33,0,0,1-.3-.2h0c-.52-1.37-1-2.74-1.55-4.13h0q-.77-2.07-1.5-4.23h0c-.38-1.12-.77-2.22-1.15-3.31h0c-.39-1.08-.79-2.18-1.21-3.3h0q-.11-.3-.36-1h0c-.18-.44-.36-.92-.53-1.43h0c-.18-.5-.35-1-.52-1.4h0c-.18-.44-.32-.76-.41-1h0v0a2.35,2.35,0,0,0-.95-1.12h0a3,3,0,0,0-1.4-.4h-.11a3.53,3.53,0,0,0-1.39.29h0a2.49,2.49,0,0,0-1.12,1h0a3.68,3.68,0,0,0-.59,1.43h0a14.91,14.91,0,0,1-.48,2h0c-.14.49-.27,1-.39,1.48h0a14.85,14.85,0,0,1-.45,1.52h0c-.53,1.79-1.1,3.55-1.71,5.26h0q-.93,2.58-2,5.22h0c-.13.34-.25.67-.36,1h0a8.58,8.58,0,0,1-.38,1h0a.32.32,0,0,1-.3.19h0a.31.31,0,0,1-.27-.22h0c-.42-1.33-.86-2.64-1.31-3.93h0c-.46-1.29-.93-2.6-1.42-3.94h0c-.49-1.22-1-2.46-1.37-3.71h0c-.42-1.23-.87-2.46-1.36-3.69h0c-.42-1.12-.87-2.35-1.34-3.68h0a7,7,0,0,0-2-3.07h0a2.38,2.38,0,0,0-1.35-.59h0l-.33,0h0a3,3,0,0,0-1.11.21h0a3,3,0,0,0-1.16.84h0a2.34,2.34,0,0,0-.58,1.35h0a2.45,2.45,0,0,0,0,.27h0a4,4,0,0,0,.14,1H6a9.32,9.32,0,0,0,.48,1.37h0c.21.47.43.91.67,1.34h0a8.25,8.25,0,0,1,.6,1.34h0q1.15,3,2.28,5.95h0c.76,2,1.48,4,2.19,6h0c.21.6.42,1.21.65,1.84h0c.23.63.45,1.27.66,1.89h0c.21.6.41,1.22.61,1.85h0q.28.95.6,1.89h0a29.8,29.8,0,0,1,.82,3.4h0a8.47,8.47,0,0,0,1.2,3.1h0A2.48,2.48,0,0,0,18.07,44h0a2.69,2.69,0,0,0,.78.12h0a2.35,2.35,0,0,0,.69-.1h0A3.52,3.52,0,0,0,21,43.15h0a4.09,4.09,0,0,0,1-1.38h0v0c.35-.7.6-1.21.75-1.54h0c.16-.32.36-.8.6-1.43h0c.39-.9.75-1.83,1.1-2.77h0c.35-.94.72-1.89,1.11-2.84h0c.49-1.43,1-2.84,1.55-4.23h0c.54-1.38,1.05-2.8,1.54-4.26h0a.3.3,0,0,1,.29-.21h0a.28.28,0,0,1,.29.19h0Q30.14,27,31,29.42h0c.55,1.59,1.11,3.17,1.71,4.74h0c.28.8.62,1.71,1,2.72h0c.4,1,.76,1.94,1.08,2.79h0c.28.67.54,1.36.79,2.08Z"/><path class="cls-6" d="M19.38,34.71a1,1,0,0,1-.59-.21h0a1.32,1.32,0,0,1-.31-.33h0a1.76,1.76,0,0,1-.19-.39h0l-7.5-20.72a3.9,3.9,0,0,0-1.27-1.74h0A1.7,1.7,0,0,0,8.57,11h0l-.2,0H8.3a.61.61,0,0,1-.77-.39h0a.61.61,0,0,1,.38-.78h0a2.07,2.07,0,0,1,.66-.09h0a2.85,2.85,0,0,1,1.65.53h0a5.25,5.25,0,0,1,1.72,2.29h0v0l7.49,20.69,0,0h0a7.19,7.19,0,0,0,.75-1.71h0a.63.63,0,0,1,.79-.39h0a.63.63,0,0,1,.39.79h0a12,12,0,0,1-.69,1.65h0a2.63,2.63,0,0,1-.69.87h0a1.1,1.1,0,0,1-.63.23h0Z"/><path class="cls-6" d="M18.52,43.43a2,2,0,0,1-.62-.08h0a.62.62,0,0,1-.4-.77h0a.62.62,0,0,1,.77-.41h0l.21,0h0a1.8,1.8,0,0,0,1.05-.36h0a4.72,4.72,0,0,0,1.45-2h0L27.28,23.5v0s.07-.15.18-.34h0A2.27,2.27,0,0,1,28,22.5h0a1.15,1.15,0,0,1,.72-.27h0a1.09,1.09,0,0,1,.75.32h0a2.23,2.23,0,0,1,.46.72h0a.62.62,0,0,1-.32.81h0a.61.61,0,0,1-.81-.32h0a1.63,1.63,0,0,0-.11-.2h0l0,.05h0a3.37,3.37,0,0,0-.2.34h0L22.17,40.27v0a5.85,5.85,0,0,1-1.88,2.56h0a3.11,3.11,0,0,1-1.75.58h0Z"/><path class="cls-6" d="M38.6,35.9a1.17,1.17,0,0,1-.71-.26h0a1.74,1.74,0,0,1-.4-.42h0a4.06,4.06,0,0,1-.31-.54h0v0L30.45,15.89a5.38,5.38,0,0,0-1.23-2.05h0a1.63,1.63,0,0,0-.72-.46h0a.62.62,0,0,1-.57-.65h0a.62.62,0,0,1,.65-.58h0a2.26,2.26,0,0,1,1.2.52h0a6.09,6.09,0,0,1,1.86,2.8h0l6.71,18.74,0,0h0a1.47,1.47,0,0,0,.09.17h0l.15.2h0l0,0h0a3.76,3.76,0,0,0,.45-1h0a.61.61,0,0,1,.77-.41h0a.62.62,0,0,1,.41.77h0a5.16,5.16,0,0,1-.46,1.13h0a1.69,1.69,0,0,1-.61.68h0a1,1,0,0,1-.56.17h0Z"/><path class="cls-6" d="M38.05,43.81a1.07,1.07,0,0,1-.25,0h0a.61.61,0,0,1-.49-.72h0a.62.62,0,0,1,.7-.5h0a1.44,1.44,0,0,0,.81-.33h0A4.88,4.88,0,0,0,40.27,40h0s.42-1.07,1.07-2.79h0c.66-1.72,1.56-4.09,2.51-6.67h0c1.92-5.17,4.07-11.23,5-14.72h0a14.4,14.4,0,0,0,.49-2.23h0l0-.14h0V13.4h0a1.46,1.46,0,0,0,.06-.23h0a4.28,4.28,0,0,0,.08-.79h0a2.27,2.27,0,0,0-.2-1h0a1.52,1.52,0,0,0-.77-.75h0a.61.61,0,0,1-.3-.82h0a.62.62,0,0,1,.82-.3h0a2.86,2.86,0,0,1,1.37,1.33h0a3.58,3.58,0,0,1,.32,1.54h0a5.48,5.48,0,0,1-.2,1.42h0a18.28,18.28,0,0,1-.52,2.37h0c-.29,1-.66,2.24-1.1,3.59h0c-.88,2.7-2,5.89-3.13,9h0c-2.21,6.06-4.37,11.6-4.43,11.74h0a5.94,5.94,0,0,1-1.81,2.77h0a2.63,2.63,0,0,1-1.55.58h0Z"/><path class="cls-7" d="M37.68,41.59,28.45,18.31,20,40.16a1.21,1.21,0,0,1-1.16.79h0a1.23,1.23,0,0,1-1.15-.81h0L7.21,11.44A1.22,1.22,0,0,1,8,9.86H8a1.22,1.22,0,0,1,1.58.73h0L18.88,36.2l8.4-21.73a1.25,1.25,0,0,1,1.15-.79h0a1.25,1.25,0,0,1,1.16.78h0l9.12,23,8.65-26.72A1.23,1.23,0,0,1,48.91,10h0a1.24,1.24,0,0,1,.8,1.56h0L40,41.52a1.23,1.23,0,0,1-1.14.85h0a1.21,1.21,0,0,1-1.14-.78Z"/><path class="cls-8" d="M6.85,12.63a2,2,0,0,1-.18-.8h0a2.28,2.28,0,0,1,.54-1.41h0a2.54,2.54,0,0,1,.52-.51h0a.6.6,0,0,1,.86.13h0a.62.62,0,0,1-.13.86h0L8.38,11h0a2.36,2.36,0,0,0-.21.22h0a1,1,0,0,0-.26.64h0a.62.62,0,0,0,.07.3H8a.63.63,0,0,1-.32.82h0a.7.7,0,0,1-.25.05h0a.62.62,0,0,1-.56-.37Z"/><path class="cls-8" d="M16.65,39.89c-1.84-6.31-6.1-17.5-8.1-22.69h0c-.68-1.73-1.09-2.79-1.1-2.8h0a.62.62,0,0,1,.35-.8h0a.61.61,0,0,1,.8.35h0S15.35,31,17.84,39.54h0a.63.63,0,0,1-.42.77h0l-.18,0h0a.62.62,0,0,1-.59-.44Z"/><path class="cls-8" d="M21.12,32a.62.62,0,0,1-.38-.79h0L21.19,30h0c.27-.79.66-1.89,1.09-3.14h0c.87-2.52,1.94-5.68,2.72-8.22h0a37.54,37.54,0,0,0,1-3.85h0a.62.62,0,0,1,.71-.51h0a.61.61,0,0,1,.51.71h0a36,36,0,0,1-1.07,4h0c-.52,1.71-1.17,3.68-1.81,5.56h0c-1.26,3.75-2.46,7.09-2.46,7.1h0a.63.63,0,0,1-.59.41h0a.48.48,0,0,1-.2,0Z"/><path class="cls-8" d="M26.76,14a.61.61,0,0,1-.11-.86h0a2.44,2.44,0,0,1,.5-.48h0a2.41,2.41,0,0,1,1.36-.48h0a2.14,2.14,0,0,1,.93.22h0a.62.62,0,0,1,.3.82h0a.63.63,0,0,1-.83.3h0a.81.81,0,0,0-.4-.1h0a1.06,1.06,0,0,0-.59.21h0a1.37,1.37,0,0,0-.29.26h0a.62.62,0,0,1-.48.23h0a.58.58,0,0,1-.38-.13Z"/><path class="cls-8" d="M36.08,41.6,29.71,24.41a.63.63,0,0,1,.37-.8h0a.62.62,0,0,1,.79.37h0l6.37,17.19a.61.61,0,0,1-.36.79h0a.6.6,0,0,1-.22,0h0a.61.61,0,0,1-.58-.4Z"/><path class="cls-8" d="M39.6,34.79a.62.62,0,0,1-.36-.8h0l.9-2.46h0c.54-1.51,1.28-3.59,2-5.83h0a104.39,104.39,0,0,0,3.63-12.25h0a.62.62,0,0,1,.72-.5h0a.62.62,0,0,1,.5.71h0A105.44,105.44,0,0,1,43.36,26.1h0c-1.54,4.5-3,8.32-3,8.33h0a.6.6,0,0,1-.58.4h0a.52.52,0,0,1-.21,0Z"/><path class="cls-8" d="M46.51,12.67a.63.63,0,0,1-.43-.77h0a4.62,4.62,0,0,1,.24-.58h0a2.86,2.86,0,0,1,.8-1h0A1.79,1.79,0,0,1,48.18,10h0a1.84,1.84,0,0,1,.6.1h0a.61.61,0,0,1,.39.78h0a.61.61,0,0,1-.78.39h0a.68.68,0,0,0-.21,0h0a.58.58,0,0,0-.31.11h0a1.28,1.28,0,0,0-.3.34h0a2.32,2.32,0,0,0-.3.61h0a.62.62,0,0,1-.59.45h0l-.17,0Z"/><g class="cls-2"><path d="M71.29,44.94l-1,.05c-.15-1-3.67-1.58-12.83-.6,0,0-5,.15-5.62,1.67S57.16,49,64.61,47.58a21.25,21.25,0,0,0,2.91-.73,15.18,15.18,0,0,0,3.83.31c2.71-.08,4.89-.64,4.87-1.26S74,44.86,71.29,44.94Z"/></g><path class="cls-3" d="M59.18,44.6s-3.17.09-3.55,1,3.35,1.82,8,1S69.92,43.44,59.18,44.6Z"/><path class="cls-3" d="M74.15,45.8c0,.37-1.28.7-2.89.75s-2.93-.21-2.94-.57,1.29-.7,2.9-.75S74.14,45.44,74.15,45.8Z"/><path class="cls-9" d="M75.61,25.71a2.09,2.09,0,0,1,.94-1.36,2,2,0,0,1,1.4-.26,1.94,1.94,0,0,1,1.56,2.3c-.13.83-.3,1.65-.51,2.47s-.42,1.64-.66,2.44c-.33,1-.69,2.06-1.09,3.05s-.77,2-1.12,3-.7,2-1.06,2.91-.73,1.93-1.12,2.91c-.13.32-.26.66-.4,1a3.25,3.25,0,0,1-.54.93,2,2,0,0,1-1.33.78,1.8,1.8,0,0,1-1.49-.43,2.47,2.47,0,0,1-.75-1.12c-.15-.44-.32-.87-.49-1.28s-.41-1.09-.66-1.72-.46-1.19-.64-1.69q-.56-1.45-1.05-2.94c-.34-1-.69-2-1.06-2.94-.3.91-.62,1.79-1,2.65s-.65,1.73-.95,2.61c-.24.59-.47,1.17-.69,1.76s-.44,1.16-.68,1.72c-.15.39-.27.69-.37.89l-.47,1a2.79,2.79,0,0,1-.69.93,2.5,2.5,0,0,1-.95.55,1.73,1.73,0,0,1-1,0,1.75,1.75,0,0,1-.91-.78,5.46,5.46,0,0,1-.76-2,19.29,19.29,0,0,0-.5-2.08c-.13-.39-.26-.78-.38-1.17s-.24-.77-.37-1.13-.26-.78-.41-1.17L55,36.43q-.65-1.89-1.35-3.72L52.26,29a5.07,5.07,0,0,0-.36-.8q-.23-.4-.42-.84a6.62,6.62,0,0,1-.31-.88,2.54,2.54,0,0,1-.08-.86,1.71,1.71,0,0,1,.4-.94,2,2,0,0,1,1.77-.7,1.74,1.74,0,0,1,1,.4,4.56,4.56,0,0,1,1.31,2c.29.83.57,1.59.83,2.28s.58,1.52.84,2.29.55,1.53.85,2.29l.88,2.43c.28.8.55,1.62.81,2.44.08-.2.16-.4.22-.6s.15-.42.23-.64c.44-1.08.84-2.15,1.22-3.21s.73-2.14,1.06-3.25c.1-.3.2-.61.27-.92s.16-.63.25-.93a11.08,11.08,0,0,0,.29-1.22,2.49,2.49,0,0,1,.39-1,1.68,1.68,0,0,1,.78-.66,2.32,2.32,0,0,1,1-.2,2.1,2.1,0,0,1,1,.28,1.62,1.62,0,0,1,.67.78c.06.13.15.33.26.6s.21.56.32.88.22.6.33.87.18.48.22.6c.26.7.51,1.38.75,2.05s.48,1.35.72,2.05c.3.88.61,1.76.92,2.61s.64,1.71,1,2.55c.2-.56.38-1.14.55-1.72s.37-1.16.59-1.72q.87-2.34,1.67-4.68a31.48,31.48,0,0,0,1.22-4.77Z"/><path class="cls-10" d="M70,45.71a2.81,2.81,0,0,1-.82-1.23h0c-.15-.43-.31-.86-.48-1.26h0c-.2-.52-.42-1.09-.67-1.72h0c-.25-.63-.46-1.19-.63-1.7h0c-.37-1-.72-1.95-1.06-2.94h0q-.39-1.14-.81-2.28h0c-.23.68-.48,1.35-.73,2h0c-.34.85-.66,1.72-1,2.6h0v0c-.24.58-.47,1.16-.68,1.74h0c-.22.59-.45,1.17-.69,1.73h0c-.15.39-.28.69-.38.91h0c-.1.21-.25.53-.47,1h0a2.87,2.87,0,0,1-.74,1h0a2.83,2.83,0,0,1-1,.61h0a2.09,2.09,0,0,1-.55.08h0a2.17,2.17,0,0,1-.62-.1h0a1.91,1.91,0,0,1-1-.88h0a5.56,5.56,0,0,1-.8-2.07h0a18.13,18.13,0,0,0-.5-2.05h0c-.13-.39-.26-.78-.37-1.17h0c-.12-.39-.25-.77-.38-1.14h0c-.12-.38-.26-.77-.4-1.16h0l-.41-1.14h0c-.43-1.25-.88-2.49-1.34-3.71h0Q52.74,31,52,29.11h0a4.08,4.08,0,0,0-.34-.75h0c-.15-.28-.3-.56-.43-.86h0a6.7,6.7,0,0,1-.32-.92h0a2.62,2.62,0,0,1-.1-.73h0a1.48,1.48,0,0,1,0-.21h0a2,2,0,0,1,.47-1.08h0a2.3,2.3,0,0,1,.89-.63h0a2.22,2.22,0,0,1,.85-.16h.24a2,2,0,0,1,1.08.46h0a4.84,4.84,0,0,1,1.39,2.09h0c.29.82.56,1.58.82,2.27h0c.31.76.59,1.53.85,2.3h0c.26.76.54,1.52.84,2.27h0c.31.83.6,1.64.88,2.44h0l.6,1.76h0c.06-.19.12-.38.2-.57h0c.43-1.08.84-2.15,1.22-3.2h0q.55-1.59,1-3.24h0a7.69,7.69,0,0,0,.27-.9h0c.08-.32.16-.63.25-.94h0A9.26,9.26,0,0,0,63,27.32h0a2.82,2.82,0,0,1,.43-1.06h0a2,2,0,0,1,.89-.76h0a2.65,2.65,0,0,1,1-.22h.08a2.15,2.15,0,0,1,1.08.31h0a1.82,1.82,0,0,1,.76.88h0c.07.15.16.35.27.62h0c.11.27.22.57.33.89h0c.1.31.21.6.32.86h0c.11.27.18.47.23.61h0c.26.69.51,1.38.75,2.05h0l.71,2.05h0q.45,1.32.93,2.61h0c.23.63.46,1.26.7,1.89h0c.12-.34.23-.7.33-1.05h0c.18-.59.37-1.17.59-1.74h0c.59-1.56,1.14-3.11,1.67-4.67h0a31,31,0,0,0,1.21-4.73h0l0-.2v0a2.33,2.33,0,0,1,1.06-1.52h0a2.33,2.33,0,0,1,1.16-.32h0a2.6,2.6,0,0,1,.4,0h0a2.21,2.21,0,0,1,1.35.82h0A2.08,2.08,0,0,1,79.78,26h0a3.22,3.22,0,0,1,0,.43h0q-.19,1.25-.51,2.49h0c-.2.83-.42,1.65-.66,2.45h0c-.33,1.05-.7,2.07-1.1,3.07h0c-.4,1-.77,2-1.12,3.05h0q-.51,1.45-1,2.91h0c-.36,1-.73,1.93-1.13,2.91h0c-.12.33-.26.67-.4,1h0a3.67,3.67,0,0,1-.57,1h0a2.23,2.23,0,0,1-1.49.87h0l-.35,0h0A2.06,2.06,0,0,1,70,45.71Zm-.35-1.39a2.3,2.3,0,0,0,.68,1h0a1.49,1.49,0,0,0,1,.39h0l.27,0h0A1.72,1.72,0,0,0,72.81,45h0a3,3,0,0,0,.49-.86h0c.15-.36.28-.7.41-1h0c.39-1,.76-1.94,1.12-2.91h0c.36-1,.71-1.93,1-2.89h0c.35-1,.73-2.07,1.13-3.07h0q.6-1.48,1.08-3h0q.36-1.2.66-2.43h0c.21-.81.37-1.62.5-2.44h0a2.23,2.23,0,0,0,0-.36h0A1.58,1.58,0,0,0,79,25h0a1.77,1.77,0,0,0-1.06-.65h0a1.56,1.56,0,0,0-.31,0h0a1.9,1.9,0,0,0-.92.25h0a1.92,1.92,0,0,0-.82,1.21h0l0,.18a30.57,30.57,0,0,1-1.23,4.81h0c-.53,1.56-1.08,3.12-1.67,4.69h0c-.22.56-.41,1.12-.58,1.7h0c-.17.59-.36,1.17-.56,1.73h0a.24.24,0,0,1-.23.17h0a.24.24,0,0,1-.23-.16h0q-.5-1.28-1-2.55h0c-.32-.86-.63-1.73-.93-2.62h0c-.24-.69-.48-1.37-.71-2h0q-.36-1-.75-2h0c0-.12-.12-.31-.22-.58h0c-.11-.28-.22-.57-.33-.89h0c-.11-.31-.22-.6-.32-.87h0l-.25-.58h0a1.45,1.45,0,0,0-.56-.67h0a1.78,1.78,0,0,0-.85-.24h-.06a2,2,0,0,0-.83.18h0a1.42,1.42,0,0,0-.67.57h0a2.23,2.23,0,0,0-.36.86h0a9.38,9.38,0,0,1-.29,1.25h0c-.09.3-.17.6-.25.91h0a7.44,7.44,0,0,1-.28.95h0c-.32,1.11-.68,2.19-1.06,3.25h0c-.38,1.07-.78,2.14-1.22,3.23h0c-.08.21-.15.41-.22.61h0a5.85,5.85,0,0,1-.23.63h0a.28.28,0,0,1-.25.15h0a.26.26,0,0,1-.22-.18h0c-.26-.82-.53-1.63-.81-2.42h0q-.42-1.2-.87-2.43h0c-.31-.76-.59-1.53-.85-2.3h0q-.39-1.16-.84-2.28h0c-.26-.7-.54-1.46-.83-2.28h0a4.37,4.37,0,0,0-1.24-1.88h0a1.42,1.42,0,0,0-.81-.34h-.19a1.85,1.85,0,0,0-.67.12h0a1.85,1.85,0,0,0-.7.5h0a1.45,1.45,0,0,0-.34.8h0a1,1,0,0,0,0,.17h0a2.62,2.62,0,0,0,.08.61h0a4.9,4.9,0,0,0,.3.83h0a8,8,0,0,0,.41.83h0a5.43,5.43,0,0,1,.37.83h0c.48,1.23.95,2.46,1.41,3.68h0c.47,1.23.92,2.47,1.35,3.73h0l.41,1.13h0c.14.39.28.79.4,1.17h0c.14.37.26.76.38,1.15h0c.12.39.24.77.38,1.17h0c.19.64.36,1.34.51,2.11h0A5,5,0,0,0,58.05,45h0a1.42,1.42,0,0,0,.78.67h0a1.55,1.55,0,0,0,.47.08h0a1.51,1.51,0,0,0,.41-.06h0a2.32,2.32,0,0,0,.86-.5h0a2.48,2.48,0,0,0,.62-.84h0c.22-.43.38-.75.47-1h0c.1-.2.22-.5.37-.88h0c.24-.56.46-1.13.68-1.71h0c.22-.58.44-1.17.68-1.75h0c.31-.89.62-1.77,1-2.62h0q.5-1.28,1-2.64h0a.24.24,0,0,1,.23-.17h0a.25.25,0,0,1,.23.16h0c.37,1,.73,2,1.06,2.95h0c.34,1,.69,2,1.06,2.93h0q.26.73.63,1.68h0c.25.63.47,1.2.66,1.72h0c.18.42.34.85.49,1.29Z"/><path class="cls-11" d="M70.93,44.24l-5.7-14.4L60,43.35a.77.77,0,0,1-.72.49h0a.76.76,0,0,1-.71-.5h0L52.1,25.6a.76.76,0,0,1,.45-1h0a.75.75,0,0,1,1,.45h0L59.31,40.9l5.2-13.43a.76.76,0,0,1,.71-.49h0a.76.76,0,0,1,.71.48h0L71.57,41.7l5.35-16.52a.77.77,0,0,1,1-.5h0a.77.77,0,0,1,.49,1h0l-6,18.54a.76.76,0,0,1-.7.53h0a.77.77,0,0,1-.71-.48Z"/><path class="cls-12" d="M59.62,40a.61.61,0,0,1-.37-.13h0a1,1,0,0,1-.18-.2h0a1,1,0,0,1-.12-.24h0L54.31,26.6a2.46,2.46,0,0,0-.79-1.08h0a1,1,0,0,0-.58-.2h-.17a.38.38,0,0,1-.48-.24h0a.38.38,0,0,1,.24-.48h0a1.3,1.3,0,0,1,.41-.06h0a1.83,1.83,0,0,1,1,.33h0A3.22,3.22,0,0,1,55,26.31h0v0l4.63,12.79,0,0h0A4.6,4.6,0,0,0,60.14,38h0a.4.4,0,0,1,.49-.24h0a.39.39,0,0,1,.24.49h0a7.43,7.43,0,0,1-.42,1h0a1.65,1.65,0,0,1-.43.54h0a.69.69,0,0,1-.39.14h0Z"/><path class="cls-12" d="M59.09,45.38a1.71,1.71,0,0,1-.38-.05h0a.39.39,0,0,1-.25-.48h0a.38.38,0,0,1,.47-.25h.16a1.12,1.12,0,0,0,.65-.22h0a2.86,2.86,0,0,0,.9-1.26h0l3.87-10.08v0l.11-.21h0a1.5,1.5,0,0,1,.32-.38h0a.66.66,0,0,1,.44-.17h0a.67.67,0,0,1,.47.19h0a1.33,1.33,0,0,1,.28.45h0a.37.37,0,0,1-.2.5h0a.38.38,0,0,1-.5-.2h0l-.06-.12h0l0,0h0a1,1,0,0,0-.12.21h0L61.35,43.42h0A3.57,3.57,0,0,1,60.18,45h0a1.9,1.9,0,0,1-1.08.37h0Z"/><path class="cls-12" d="M71.51,40.72a.76.76,0,0,1-.45-.16h0a1.84,1.84,0,0,1-.24-.26h0a1.94,1.94,0,0,1-.19-.34h0v0l-4.15-11.6a3.43,3.43,0,0,0-.76-1.26h0a1.12,1.12,0,0,0-.45-.29h0a.38.38,0,0,1-.35-.4h0a.38.38,0,0,1,.4-.37h0a1.49,1.49,0,0,1,.74.33h0a3.61,3.61,0,0,1,1.15,1.73h0l4.15,11.58v0h0l.06.1h0a.62.62,0,0,0,.09.12h0v0h0a1.89,1.89,0,0,0,.28-.63h0a.38.38,0,0,1,.47-.26h0a.38.38,0,0,1,.26.48h0a3.75,3.75,0,0,1-.28.7h0a1.23,1.23,0,0,1-.38.43h0a.71.71,0,0,1-.35.1Z"/><path class="cls-12" d="M71.16,45.61H71a.38.38,0,0,1-.3-.45h0a.38.38,0,0,1,.43-.31h0a.81.81,0,0,0,.5-.2h0a3,3,0,0,0,.88-1.37h0s.26-.66.66-1.72h0c.41-1.06,1-2.53,1.55-4.13h0c1.19-3.19,2.52-6.94,3.11-9.1h0a10.3,10.3,0,0,0,.31-1.37h0s0-.06,0-.09h0a.08.08,0,0,1,0,0h0a1,1,0,0,0,0-.15h0a2.14,2.14,0,0,0,0-.48h0a1.4,1.4,0,0,0-.12-.62h0a.9.9,0,0,0-.48-.46h0a.39.39,0,0,1-.19-.51h0A.39.39,0,0,1,78,24.4h0a1.76,1.76,0,0,1,.85.83h0a2.26,2.26,0,0,1,.2.95h0a2.9,2.9,0,0,1-.13.87h0a10.33,10.33,0,0,1-.32,1.47h0c-.17.63-.41,1.39-.68,2.22h0c-.54,1.67-1.24,3.64-1.93,5.54h0c-1.37,3.74-2.7,7.17-2.74,7.26h0a3.7,3.7,0,0,1-1.12,1.71h0a1.61,1.61,0,0,1-1,.36h0Z"/><path class="cls-8" d="M51.87,26.33a1.29,1.29,0,0,1-.11-.5h0A1.44,1.44,0,0,1,52.1,25h0a1.48,1.48,0,0,1,.32-.31h0a.37.37,0,0,1,.53.08h0a.37.37,0,0,1-.08.53h0l0,0h0l-.13.14h0a.7.7,0,0,0-.16.39h0a.46.46,0,0,0,0,.19h0a.38.38,0,0,1-.19.51h0a.45.45,0,0,1-.16,0h0a.39.39,0,0,1-.35-.23Z"/><path class="cls-8" d="M57.93,43.18c-1.13-3.9-3.77-10.82-5-14h0c-.41-1.07-.67-1.72-.67-1.72h0a.39.39,0,0,1,.21-.5h0a.38.38,0,0,1,.5.22h0S57.13,37.69,58.67,43h0a.38.38,0,0,1-.26.47h0l-.11,0h0a.39.39,0,0,1-.37-.28Z"/><path class="cls-8" d="M60.7,38.31a.39.39,0,0,1-.24-.49h0s.11-.29.28-.77h0l.68-1.94h0C62,33.55,62.61,31.6,63.1,30h0c.32-1.05.56-1.93.64-2.39h0a.37.37,0,0,1,.43-.31h0a.39.39,0,0,1,.32.44h0a24.15,24.15,0,0,1-.66,2.48h0c-.33,1.06-.73,2.28-1.12,3.44h0c-.78,2.32-1.53,4.39-1.53,4.39h0a.37.37,0,0,1-.36.25h0a.25.25,0,0,1-.12,0Z"/><path class="cls-8" d="M64.18,27.17a.39.39,0,0,1-.06-.54h0a1.47,1.47,0,0,1,.31-.29h0a1.4,1.4,0,0,1,.84-.3h0a1.23,1.23,0,0,1,.57.14h0a.38.38,0,0,1,.19.5h0a.38.38,0,0,1-.51.19h0a.53.53,0,0,0-.25-.06h0a.64.64,0,0,0-.37.13h0a1.15,1.15,0,0,0-.18.16h0a.38.38,0,0,1-.3.15h0a.43.43,0,0,1-.24-.08Z"/><path class="cls-8" d="M70,44.24,66,33.61a.39.39,0,0,1,.22-.49h0a.4.4,0,0,1,.5.23h0L70.66,44a.38.38,0,0,1-.22.5h0l-.13,0h0a.39.39,0,0,1-.36-.25Z"/><path class="cls-8" d="M72.12,40a.37.37,0,0,1-.22-.49h0s.22-.59.56-1.53h0c.33-.93.79-2.21,1.26-3.6h0A63.77,63.77,0,0,0,76,26.84h0a.38.38,0,0,1,.44-.31h0a.37.37,0,0,1,.31.44h0a66.07,66.07,0,0,1-2.27,7.69h0c-1,2.78-1.83,5.14-1.84,5.15h0a.38.38,0,0,1-.35.25h0a.35.35,0,0,1-.14,0Z"/><path class="cls-8" d="M76.39,26.35a.38.38,0,0,1-.26-.47h0s.05-.16.15-.36h0a1.69,1.69,0,0,1,.49-.63h0a1.16,1.16,0,0,1,.66-.22h0a1.24,1.24,0,0,1,.37.06h0a.38.38,0,0,1,.24.49h0a.37.37,0,0,1-.48.24h0a.37.37,0,0,0-.13,0h0a.31.31,0,0,0-.19.06h0a.65.65,0,0,0-.19.21h0a1.5,1.5,0,0,0-.18.38h0a.38.38,0,0,1-.37.28h0l-.11,0Z"/></g></g></svg>