<svg xmlns="http://www.w3.org/2000/svg" viewBox="0 0 85.04 56.69"><defs><style>.cls-1{isolation:isolate;}.cls-2,.cls-3{opacity:0.4;}.cls-4{fill:#fd0;}.cls-5{fill:#f47d29;}.cls-6{fill:#ffc820;}.cls-11,.cls-6{mix-blend-mode:multiply;}.cls-7{fill:#fbf1bf;}.cls-12,.cls-7{opacity:0.6;}.cls-8{fill:#fff;}.cls-9{fill:#ed1b32;}.cls-10{fill:#c0263b;}.cls-11{fill:#dc4d2d;}.cls-12{fill:#f7b795;}</style></defs><g class="cls-1"><g id="Layer_1" data-name="Layer 1"><path class="cls-2" d="M53.44,40.18s-1.93.19-2,.81c-.16,1.62,7.86.84,9,.71C67,41,64,39.63,58.84,39.93S53.44,40.18,53.44,40.18Z"/><g class="cls-3"><path d="M74.19,40.37c-5.62.25-5.84.17-5.84.17s-.24,0-.56.08c-.7-.72-3.79-1.27-7.8-1.1-7.73.35-8,.24-8,.24s-2.88.25-3,1.3c-.32,2.76,11.65,1.7,13.34,1.52a25.24,25.24,0,0,0,4-.66c1,1.44,8.44.79,9.57.67C83,41.85,79.8,40.12,74.19,40.37Z"/></g><path class="cls-2" d="M69.43,40.84S68,41,68,41.43c-.12,1.18,5.71.61,6.53.52,4.77-.53,2.61-1.5-1.16-1.28S69.43,40.84,69.43,40.84Z"/><path class="cls-4" d="M71,18.34a2.05,2.05,0,0,1,1.37-.67,2.34,2.34,0,0,1,1.34.32,2.15,2.15,0,0,1,.9,1,1.94,1.94,0,0,1,0,1.53A5.86,5.86,0,0,1,74,21.69l-.73,1c-.77,1.18-1.58,2.31-2.41,3.39s-1.69,2.15-2.56,3.21c.21.24.5.58.86,1s.77,1,1.2,1.5.88,1.15,1.33,1.77.87,1.22,1.27,1.8.74,1.11,1,1.62a7.67,7.67,0,0,1,.61,1.25,2.1,2.1,0,0,1,0,1.5,2.32,2.32,0,0,1-.81,1.1,2,2,0,0,1-2.66-.2,4.11,4.11,0,0,1-1-1.37,12.15,12.15,0,0,0-.85-1.52c-.59-.89-1.2-1.76-1.83-2.59s-1.3-1.67-2-2.49c-.66.82-1.33,1.63-2,2.42l-2.06,2.34c-.19.21-.42.5-.69.85s-.56.71-.86,1.08-.61.69-.92,1a2.39,2.39,0,0,1-.85.6,2,2,0,0,1-1.3.12,2.2,2.2,0,0,1-1.06-.58,2.16,2.16,0,0,1-.58-1.06,2,2,0,0,1,.12-1.3A3.44,3.44,0,0,1,56.11,37c.36-.34.71-.7,1-1.08L60,32.58l2.83-3.34c-.83-1.06-1.67-2.1-2.53-3.12s-1.77-2-2.73-2.95l-.44-.37a7,7,0,0,1-.62-.53q-.31-.3-.6-.6a3.76,3.76,0,0,1-.46-.58,2.16,2.16,0,0,1-.24-1.38,2.35,2.35,0,0,1,.54-1.21,2,2,0,0,1,1.11-.65,2,2,0,0,1,1.41.28,7.21,7.21,0,0,1,1.1.86l1,1c.94.92,1.83,1.87,2.68,2.84s1.68,2,2.5,3c.33-.4.66-.8,1-1.18s.65-.79,1-1.19c.64-.84,1.25-1.68,1.84-2.52S70.45,19.23,71,18.34Z"/><path class="cls-5" d="M72.55,41.53A2.35,2.35,0,0,1,71,40.86h0a4.31,4.31,0,0,1-1-1.45h0a13.06,13.06,0,0,0-.83-1.49h0c-.59-.89-1.19-1.75-1.82-2.58h0c-.58-.75-1.17-1.5-1.77-2.24h0c-.6.74-1.22,1.47-1.84,2.18h0l-2.07,2.35h0c-.18.21-.41.48-.68.83h0c-.27.36-.56.72-.87,1.09h0q-.47.56-.93,1h0a2.77,2.77,0,0,1-.93.66h0a2.26,2.26,0,0,1-.94.19h0a1.81,1.81,0,0,1-.52-.06h0a2.41,2.41,0,0,1-1.18-.65h0a2.36,2.36,0,0,1-.65-1.18h0a2.25,2.25,0,0,1-.07-.52h0a2.44,2.44,0,0,1,.2-.94h0a3.7,3.7,0,0,1,.9-1.31h0q.53-.49,1-1h0l2.82-3.3h0c.9-1,1.79-2.1,2.69-3.17h0c-.78-1-1.58-2-2.39-3h0c-.86-1-1.76-2-2.72-2.93h0a3.27,3.27,0,0,0-.42-.34h0c-.2-.16-.42-.35-.63-.55h0c-.22-.2-.42-.41-.61-.61h0a3.68,3.68,0,0,1-.49-.62h0v0A2.37,2.37,0,0,1,54.9,20h0a2.17,2.17,0,0,1,0-.36h0a2.62,2.62,0,0,1,.61-1.35h0a2.19,2.19,0,0,1,1.25-.73h0a1.74,1.74,0,0,1,.39-.05h0a2.41,2.41,0,0,1,1.2.36h0a7.79,7.79,0,0,1,1.14.9h0c.33.32.66.64,1,1h0c1,.92,1.85,1.87,2.7,2.86h0c.78.9,1.55,1.82,2.32,2.77h0c.26-.31.52-.63.79-.94h0c.32-.38.64-.77.94-1.17h0c.63-.84,1.24-1.68,1.83-2.51h0c.58-.84,1.16-1.7,1.72-2.59h0l0,0a2.31,2.31,0,0,1,1.54-.75h.14a2.56,2.56,0,0,1,1.34.36h0a2.42,2.42,0,0,1,1,1.15h0a2.05,2.05,0,0,1,.16.81h0a2.55,2.55,0,0,1-.18.92h0a6.4,6.4,0,0,1-.64,1.18h0l-.73,1h0c-.77,1.18-1.58,2.31-2.42,3.4h0c-.79,1-1.6,2-2.43,3h0c.2.22.44.51.73.86h0c.37.45.77.95,1.2,1.51h0c.44.55.88,1.14,1.33,1.77h0c.45.62.88,1.22,1.28,1.8h0c.4.58.75,1.13,1,1.64h0a8.46,8.46,0,0,1,.64,1.3h0a2.84,2.84,0,0,1,.16.89h0a2.08,2.08,0,0,1-.15.78h0a2.62,2.62,0,0,1-.9,1.21h0a2.33,2.33,0,0,1-1.41.46h0Zm-6.84-9q1,1.23,2,2.49h0c.64.84,1.25,1.71,1.84,2.61h0a11.43,11.43,0,0,1,.87,1.55h0a3.9,3.9,0,0,0,.93,1.29h0a1.81,1.81,0,0,0,1.22.54h0a1.81,1.81,0,0,0,1.12-.36h0a2.14,2.14,0,0,0,.72-1h0a1.52,1.52,0,0,0,.11-.6h0a2.11,2.11,0,0,0-.13-.72h0a6.78,6.78,0,0,0-.59-1.21h0c-.29-.5-.64-1-1-1.61h0c-.4-.57-.82-1.17-1.27-1.79h0c-.45-.62-.88-1.21-1.32-1.76h0c-.43-.55-.83-1-1.19-1.49h0c-.37-.45-.65-.79-.86-1h0a.26.26,0,0,1,0-.33h0C69,28.09,69.82,27,70.66,26h0c.83-1.08,1.63-2.2,2.4-3.38h0l.72-1h0a5.84,5.84,0,0,0,.59-1.07h0a2.09,2.09,0,0,0,.14-.74h0a1.53,1.53,0,0,0-.12-.6h0a1.86,1.86,0,0,0-.8-.92h0a2.08,2.08,0,0,0-1.08-.29H72.4a1.77,1.77,0,0,0-1.18.58h0c-.57.89-1.14,1.75-1.72,2.58h0c-.59.84-1.21,1.68-1.84,2.53h0c-.31.4-.63.8-1,1.19h0l-1,1.18h0a.25.25,0,0,1-.2.09h0a.25.25,0,0,1-.2-.09h0c-.82-1-1.65-2-2.5-3h0c-.84-1-1.73-1.91-2.66-2.83h0q-.49-.5-1-1h0a6.19,6.19,0,0,0-1-.83h0a1.83,1.83,0,0,0-.94-.28h0l-.28,0h0a1.72,1.72,0,0,0-1,.57h0a2,2,0,0,0-.49,1.09h0a1.42,1.42,0,0,0,0,.29h0a1.93,1.93,0,0,0,.23.92h0a3.75,3.75,0,0,0,.43.54h0c.18.19.38.39.59.59h0c.2.19.4.36.59.51h0a4.82,4.82,0,0,1,.47.39h0c1,1,1.88,1.94,2.75,3h0c.86,1,1.7,2.07,2.53,3.13h0a.26.26,0,0,1,0,.32h0c-.94,1.13-1.88,2.25-2.82,3.34h0L57.34,36h0a13.76,13.76,0,0,1-1.06,1.1h0a3,3,0,0,0-.76,1.13h0a2.08,2.08,0,0,0-.17.74h0a2.73,2.73,0,0,0,0,.4h0a2,2,0,0,0,.52.94h0a2,2,0,0,0,.94.52h0a1.81,1.81,0,0,0,.4,0h0a1.83,1.83,0,0,0,.74-.16h0a2.22,2.22,0,0,0,.75-.54h0q.45-.45.9-1h0c.31-.36.59-.72.86-1.07h0c.27-.35.5-.64.7-.86h0L63.29,35h0c.69-.79,1.37-1.59,2-2.41h0a.26.26,0,0,1,.2-.1h0a.26.26,0,0,1,.2.1Z"/><path class="cls-6" d="M56.26,40.51s1.39.87,2.88-1S65.52,32,65.52,32l.84,1-.55-1.43s-.29-.61-1.16.45l-6.16,7.37A3.68,3.68,0,0,1,56.26,40.51Z"/><path class="cls-6" d="M73.7,18.48A1.89,1.89,0,0,1,74,20.61c-.61,1.2-6.35,8.75-6.35,8.75S72.54,35,74,38.14a2.1,2.1,0,0,1-.45,2.38,2.54,2.54,0,0,0-.16-2.35A50.82,50.82,0,0,0,67,29.62s-.37-.1.2-.94c.06-.1,4.19-5.29,6.13-8.07A3,3,0,0,0,73.7,18.48Z"/><path class="cls-6" d="M55.86,19.29s-.36,1.19.26,1.81l1.8,1.58s4.23,4.19,5.3,6.06c0,0,.41.46-.55,1.46l1.09-.81s.36-.35-.16-1.16A55.23,55.23,0,0,0,56.92,21,2.25,2.25,0,0,1,55.86,19.29Z"/><path class="cls-7" d="M62.51,31.23l1.38-1.61A1.49,1.49,0,0,0,63.67,28c-.65-.8-5.94-6.87-7.07-7.74A1,1,0,0,1,56.5,19c.55-.68,1.42.09,2,.67l6.17,6.94s.64,1.1,1.58-.06c0,0,5-6.65,5.32-7.42a1.06,1.06,0,0,1,1.13-.78.75.75,0,0,1,.58,1.13c-.35.68-6.61,9.07-6.61,9.07s-.55.48.22,1.45,4.94,5.81,6.3,8.42c0,0,.51,1.23.06,1.52s-1,.36-1.61-.71a80.74,80.74,0,0,0-5.81-7.55s-.45-.61-1.23,0L58,39.17s-.94.9-1.55.68-.13-1.26-.13-1.26Z"/><path class="cls-8" d="M55.67,20.64a2,2,0,0,1-.28-1h0a1.6,1.6,0,0,1,.25-.87h0a1.47,1.47,0,0,1,.26-.34h0a.51.51,0,0,1,.72,0h0a.51.51,0,0,1,0,.72h0v0h0s0,.05-.07.09h0a.69.69,0,0,0-.1.35h0a1,1,0,0,0,.15.49h0a.52.52,0,0,1-.19.7h0a.47.47,0,0,1-.25.07h0a.54.54,0,0,1-.45-.26Z"/><path class="cls-8" d="M62.76,28.39a70.06,70.06,0,0,0-5.68-6.29h0c-.44-.44-.7-.71-.71-.71h0a.32.32,0,0,1,0-.45h0a.33.33,0,0,1,.46,0h0A82.44,82.44,0,0,1,63.28,28h0a.31.31,0,0,1-.07.45h0a.26.26,0,0,1-.19.07h0a.35.35,0,0,1-.26-.13Z"/><path class="cls-8" d="M55.72,39.82a2.75,2.75,0,0,1-.18-.92h0a1.6,1.6,0,0,1,.32-1h0a.33.33,0,0,1,.46,0h0a.33.33,0,0,1,0,.46h0a.91.91,0,0,0-.19.59h0a1.92,1.92,0,0,0,.13.65h0a.32.32,0,0,1-.16.43h0A.31.31,0,0,1,56,40h0a.34.34,0,0,1-.3-.19Z"/><path class="cls-8" d="M56.45,37.67a.34.34,0,0,1,0-.46h0L62.85,30a.32.32,0,0,1,.45,0h0a.32.32,0,0,1,0,.45h0l-6.42,7.2a.36.36,0,0,1-.25.11h0a.34.34,0,0,1-.21-.08Z"/><path class="cls-8" d="M66.11,26.48a.32.32,0,0,1,0-.45h0l.6-.77h0c.37-.47.87-1.12,1.4-1.83h0a42.79,42.79,0,0,0,2.81-4.07h0a.33.33,0,0,1,.44-.13h0a.33.33,0,0,1,.13.44h0a43.55,43.55,0,0,1-2.86,4.15h0c-1.08,1.43-2,2.61-2,2.61h0a.34.34,0,0,1-.26.12h0a.31.31,0,0,1-.2-.07Z"/><path class="cls-8" d="M71.36,19a.32.32,0,0,1-.09-.45h0a1.48,1.48,0,0,1,.3-.3h0a1.37,1.37,0,0,1,.85-.3h0a1.56,1.56,0,0,1,.36.05h0a.33.33,0,0,1,.24.39h0a.33.33,0,0,1-.4.23h0a.71.71,0,0,0-.2,0h0a.71.71,0,0,0-.43.14h0a.71.71,0,0,0-.18.17h0a.32.32,0,0,1-.27.14h0a.29.29,0,0,1-.18,0Z"/><path class="cls-8" d="M71.05,39.07a20.4,20.4,0,0,0-2-3.21h0c-.85-1.19-1.77-2.38-2.36-3.13h0l-.66-.81h0a.33.33,0,0,1,0-.46h0a.32.32,0,0,1,.45.05h0s2.31,2.82,3.88,5.19h0a13.53,13.53,0,0,1,1.2,2.12h0a.32.32,0,0,1-.17.42h0l-.12,0h0a.33.33,0,0,1-.3-.2Z"/><path class="cls-8" d="M72.67,40.67a1.33,1.33,0,0,1-.89-.36h0a2.59,2.59,0,0,1-.32-.35h0a.33.33,0,0,1,.1-.45h0a.32.32,0,0,1,.44.09h0v0h0l0,0h0a1.06,1.06,0,0,0,.15.16h0a.71.71,0,0,0,.47.2h0c.16,0,.37-.06.66-.39h0a.33.33,0,0,1,.46,0h0a.32.32,0,0,1,0,.45h0a1.52,1.52,0,0,1-1.14.61Z"/><path class="cls-2" d="M11.75,44.12s-2.87.29-3,1.21c-.25,2.42,11.69,1.25,13.37,1.06,9.76-1.08,5.33-3.08-2.39-2.63S11.75,44.12,11.75,44.12Z"/><g class="cls-3"><path d="M42.59,44.41c-8.34.37-8.67.25-8.67.25s-.36,0-.83.12c-1-1.06-5.64-1.89-11.6-1.62-11.5.5-11.94.34-11.94.34s-4.28.38-4.46,1.94C4.61,49.53,22.41,48,24.92,47.7a37.84,37.84,0,0,0,5.93-1c1.52,2.15,12.56,1.18,14.24,1C55.66,46.61,50.94,44.05,42.59,44.41Z"/></g><path class="cls-2" d="M35.52,45.12s-2.08.2-2.15.87c-.18,1.76,8.49.91,9.71.77,7.09-.78,3.87-2.24-1.73-1.91S35.52,45.12,35.52,45.12Z"/><path class="cls-9" d="M37.66,9.8a3.25,3.25,0,0,1,2.17-1.06,3.73,3.73,0,0,1,2.12.5,3.4,3.4,0,0,1,1.42,1.65,3.08,3.08,0,0,1,0,2.42,9.39,9.39,0,0,1-1,1.79l-1.14,1.61q-1.84,2.79-3.83,5.36c-1.32,1.71-2.66,3.4-4,5.07.34.37.79.91,1.37,1.62s1.21,1.5,1.89,2.37,1.39,1.8,2.1,2.79,1.37,1.93,2,2.84,1.18,1.77,1.65,2.57a12.45,12.45,0,0,1,1,2,3.34,3.34,0,0,1,0,2.37,3.81,3.81,0,0,1-1.28,1.73,3.35,3.35,0,0,1-2,.64,3.28,3.28,0,0,1-2.2-.95,6.54,6.54,0,0,1-1.56-2.18A20.42,20.42,0,0,0,35,40.53c-.93-1.42-1.9-2.78-2.9-4.1S30,33.8,29,32.5q-1.56,1.95-3.21,3.82L22.49,40c-.3.34-.66.78-1.09,1.34s-.88,1.13-1.37,1.7a20.65,20.65,0,0,1-1.45,1.59,4,4,0,0,1-1.33,1,3.26,3.26,0,0,1-2.07.2,3.53,3.53,0,0,1-1.67-.93,3.47,3.47,0,0,1-.92-1.67,3.22,3.22,0,0,1,.19-2.06,5.32,5.32,0,0,1,1.32-1.92c.57-.54,1.12-1.11,1.64-1.71,1.49-1.74,3-3.48,4.46-5.21s3-3.49,4.46-5.27c-1.3-1.67-2.63-3.32-4-4.93a63.36,63.36,0,0,0-4.33-4.66c-.15-.15-.38-.34-.69-.59s-.64-.52-1-.83-.65-.63-.95-.95a5.53,5.53,0,0,1-.72-.92A3.5,3.5,0,0,1,12.62,12a3.75,3.75,0,0,1,.86-1.92,3.11,3.11,0,0,1,1.76-1,3.15,3.15,0,0,1,2.23.44,11.72,11.72,0,0,1,1.73,1.37l1.56,1.53Q23,14.54,25,16.85c1.34,1.55,2.65,3.14,4,4.77l1.56-1.87c.52-.61,1-1.23,1.5-1.87,1-1.33,2-2.66,2.9-4S36.76,11.21,37.66,9.8Z"/><path class="cls-10" d="M40.08,46.3a3.56,3.56,0,0,1-2.37-1h0A6.74,6.74,0,0,1,36.09,43h0a19.74,19.74,0,0,0-1.32-2.36h0q-1.4-2.12-2.89-4.09h0C30.94,35.35,30,34.12,29,32.9h0q-1.47,1.83-3,3.58h0l-3.26,3.71h0c-.29.33-.65.77-1.08,1.33h0c-.43.56-.89,1.13-1.37,1.71h0c-.49.58-1,1.11-1.47,1.6h0a4,4,0,0,1-1.42,1h0a3.71,3.71,0,0,1-1.43.3h0a3.06,3.06,0,0,1-.79-.1h0a3.7,3.7,0,0,1-1.79-1h0a3.83,3.83,0,0,1-1-1.8h0a3.49,3.49,0,0,1-.1-.79h0A3.72,3.72,0,0,1,12.55,41h0a5.58,5.58,0,0,1,1.37-2h0c.57-.53,1.11-1.09,1.63-1.68h0q2.22-2.62,4.46-5.22h0c1.44-1.67,2.88-3.38,4.33-5.11h0q-1.89-2.41-3.86-4.76h0a62.79,62.79,0,0,0-4.31-4.64h0a6.38,6.38,0,0,0-.67-.56h0c-.32-.25-.65-.54-1-.86h0q-.51-.48-1-1h0a5.8,5.8,0,0,1-.76-1h0a3.84,3.84,0,0,1-.46-1.78h0a4.91,4.91,0,0,1,0-.55h0a4,4,0,0,1,.93-2.06h0a3.36,3.36,0,0,1,1.9-1.11h0a2.86,2.86,0,0,1,.58-.06h0a3.71,3.71,0,0,1,1.83.53h0a11.52,11.52,0,0,1,1.76,1.4h0c.53.5,1.05,1,1.57,1.53h0q2.23,2.19,4.25,4.51h0q1.9,2.19,3.77,4.53h0c.45-.55.91-1.1,1.36-1.63h0q.78-.91,1.5-1.86h0c1-1.33,2-2.66,2.89-4h0c.93-1.31,1.84-2.68,2.73-4.09h0l0,0a3.54,3.54,0,0,1,2.34-1.14H40a4,4,0,0,1,2,.54h0a3.75,3.75,0,0,1,1.53,1.77h0A3.12,3.12,0,0,1,43.86,12h0a4,4,0,0,1-.28,1.4h0a9.54,9.54,0,0,1-1,1.83h0c-.39.56-.78,1.1-1.15,1.62h0q-1.84,2.79-3.82,5.36h0c-1.28,1.66-2.58,3.29-3.91,4.92h0c.32.36.73.85,1.23,1.46h0c.57.71,1.21,1.5,1.89,2.37h0c.69.88,1.39,1.81,2.1,2.8h0q1.06,1.47,2,2.85h0c.64.91,1.19,1.77,1.66,2.58h0a12.56,12.56,0,0,1,1,2h0a4,4,0,0,1,.25,1.36h0a3.22,3.22,0,0,1-.22,1.19h0a4,4,0,0,1-1.37,1.84h0a3.54,3.54,0,0,1-2.15.69h0Zm-10.93-14c1.08,1.31,2.13,2.62,3.13,3.94h0q1.52,2,2.91,4.11h0a20.49,20.49,0,0,1,1.36,2.43h0a6.34,6.34,0,0,0,1.5,2.1h0a3,3,0,0,0,2,.88h0a3.06,3.06,0,0,0,1.86-.59h0a3.55,3.55,0,0,0,1.19-1.61h0a2.7,2.7,0,0,0,.19-1h0a3.5,3.5,0,0,0-.22-1.19h0a11.87,11.87,0,0,0-1-1.93h0c-.46-.8-1-1.65-1.64-2.55h0c-.63-.91-1.3-1.86-2-2.84h0c-.71-1-1.4-1.91-2.09-2.78h0c-.68-.88-1.31-1.66-1.89-2.37h0c-.57-.7-1-1.24-1.36-1.61h0a.26.26,0,0,1,0-.33h0c1.38-1.67,2.72-3.36,4-5.07h0q2-2.55,3.81-5.34h0c.37-.51.75-1,1.14-1.61h0a9.38,9.38,0,0,0,1-1.73h0A3.56,3.56,0,0,0,43.35,12h0a2.47,2.47,0,0,0-.21-1h0a3.26,3.26,0,0,0-1.32-1.53h0A3.48,3.48,0,0,0,40,9h-.2a3,3,0,0,0-2,1h0Q36.53,12.08,35.13,14h0q-1.4,2-2.9,4h0c-.49.64-1,1.26-1.52,1.88h0q-.78.91-1.56,1.86h0a.26.26,0,0,1-.2.1h0a.26.26,0,0,1-.19-.1h0q-1.95-2.45-4-4.76h0q-2-2.31-4.22-4.48h0L19,11h0a12.29,12.29,0,0,0-1.68-1.33h0a3.25,3.25,0,0,0-1.57-.46h0a2,2,0,0,0-.48,0h0a2.87,2.87,0,0,0-1.62,1h0a3.5,3.5,0,0,0-.8,1.79h0a3.88,3.88,0,0,0,0,.48h0a3.21,3.21,0,0,0,.4,1.53h0a5,5,0,0,0,.69.87h0c.29.32.6.63.94.94h0a9.71,9.71,0,0,0,1,.82h0a8.37,8.37,0,0,1,.72.61h0a63.64,63.64,0,0,1,4.34,4.67h0q2,2.43,4,4.94h0a.24.24,0,0,1,0,.32h0q-2.23,2.68-4.47,5.28h0l-4.46,5.21h0a22.47,22.47,0,0,1-1.66,1.72h0A5.1,5.1,0,0,0,13,41.24h0a3.11,3.11,0,0,0-.27,1.23h0a2.52,2.52,0,0,0,.09.67h0a3.18,3.18,0,0,0,.85,1.55h0a3.2,3.2,0,0,0,1.55.86h0a3.07,3.07,0,0,0,.67.08h0a3.36,3.36,0,0,0,1.24-.26h0a3.63,3.63,0,0,0,1.24-.89h0c.48-.47,1-1,1.44-1.57h0c.48-.57.93-1.14,1.36-1.69h0c.43-.56.79-1,1.1-1.35h0q1.61-1.84,3.26-3.71h0q1.64-1.86,3.2-3.81h0a.26.26,0,0,1,.19-.1h0a.25.25,0,0,1,.19.09Z"/><path class="cls-11" d="M14.34,44.84s2.18,1.38,4.54-1.57S29,31.37,29,31.37l1.32,1.53-.86-2.24s-.46-1-1.84.71L17.86,43S16.17,44.84,14.34,44.84Z"/><path class="cls-11" d="M41.9,10a3,3,0,0,1,.46,3.36c-1,1.89-10,13.83-10,13.83s7.76,9,10,13.87a3.35,3.35,0,0,1-.71,3.77,4,4,0,0,0-.26-3.72s-5-8.57-10-13.52c0,0-.58-.14.31-1.48.1-.15,6.63-8.36,9.69-12.75A4.76,4.76,0,0,0,41.9,10Z"/><path class="cls-11" d="M13.7,11.3s-.56,1.89.4,2.86L17,16.66s6.68,6.63,8.37,9.59c0,0,.66.71-.87,2.29l1.73-1.27s.56-.56-.25-1.84c0,0-6.17-7.91-10.56-11.37A3.57,3.57,0,0,1,13.7,11.3Z"/><path class="cls-12" d="M24.2,30.17l2.2-2.55a2.33,2.33,0,0,0-.36-2.5c-1-1.27-9.39-10.86-11.17-12.24a1.57,1.57,0,0,1-.15-2.09c.86-1.07,2.24.15,3.16,1.07l9.74,11s1,1.73,2.5-.1c0,0,7.91-10.51,8.42-11.73a1.66,1.66,0,0,1,1.78-1.23,1.19,1.19,0,0,1,.92,1.79c-.56,1.07-10.46,14.33-10.46,14.33s-.86.76.36,2.29,7.8,9.19,10,13.32c0,0,.81,1.94.1,2.39s-1.53.57-2.55-1.12-7.75-10.71-9.18-11.93c0,0-.72-1-1.94,0L17.11,42.72s-1.48,1.43-2.44,1.07-.21-2-.21-2Z"/><path class="cls-8" d="M13.66,13.29a2.78,2.78,0,0,1-.4-1.43h0a2.44,2.44,0,0,1,.34-1.24h0a1.88,1.88,0,0,1,.37-.46h0a.52.52,0,0,1,.72,0h0a.52.52,0,0,1,0,.72h0l0,0h0a.84.84,0,0,0-.14.19h0a1.39,1.39,0,0,0-.19.71h0a1.83,1.83,0,0,0,.27.92h0a.52.52,0,0,1-.19.7h0a.59.59,0,0,1-.26.07h0a.52.52,0,0,1-.44-.26Z"/><path class="cls-8" d="M24.61,25.68a111.82,111.82,0,0,0-9-9.94h0c-.69-.7-1.12-1.11-1.12-1.11h0a.53.53,0,0,1,0-.73h0a.53.53,0,0,1,.73,0h0a132.53,132.53,0,0,1,10.2,11.18h0a.51.51,0,0,1-.11.72h0a.47.47,0,0,1-.3.1h0a.49.49,0,0,1-.41-.21Z"/><path class="cls-8" d="M13.49,43.75a3.66,3.66,0,0,1-.3-1.45h0a2.45,2.45,0,0,1,.52-1.58h0a.5.5,0,0,1,.71-.08h0a.51.51,0,0,1,.08.72h0a1.44,1.44,0,0,0-.29.94h0a2.65,2.65,0,0,0,.21,1h0a.51.51,0,0,1-.26.67h0a.54.54,0,0,1-.21,0h0a.5.5,0,0,1-.46-.3Z"/><path class="cls-8" d="M14.63,40.35a.51.51,0,0,1,0-.72h0L24.74,28.25a.52.52,0,0,1,.72,0h0a.51.51,0,0,1,0,.72h0L15.35,40.31a.52.52,0,0,1-.38.17h0a.55.55,0,0,1-.34-.13Z"/><path class="cls-8" d="M29.9,22.67a.52.52,0,0,1-.08-.72h0s.37-.46.95-1.21h0C31.35,20,32.14,19,33,17.84h0a68.09,68.09,0,0,0,4.44-6.43h0a.52.52,0,0,1,.69-.2h0a.5.5,0,0,1,.2.69h0a69.35,69.35,0,0,1-4.51,6.56h0c-1.71,2.26-3.19,4.12-3.19,4.13h0a.53.53,0,0,1-.4.19h0a.56.56,0,0,1-.32-.11Z"/><path class="cls-8" d="M38.2,10.86a.51.51,0,0,1-.14-.71h0a2.46,2.46,0,0,1,.47-.48h0a2.18,2.18,0,0,1,1.34-.47h0a2.45,2.45,0,0,1,.58.08h0a.51.51,0,0,1,.37.62h0a.51.51,0,0,1-.63.36h0a1.27,1.27,0,0,0-.32,0h0a1.18,1.18,0,0,0-.68.23h0a2.12,2.12,0,0,0-.29.27h0a.49.49,0,0,1-.42.21h0a.48.48,0,0,1-.28-.08Z"/><path class="cls-8" d="M37.71,42.56A32.39,32.39,0,0,0,34.6,37.5h0c-1.35-1.9-2.8-3.76-3.74-5h0c-.63-.8-1-1.29-1-1.29h0a.51.51,0,0,1,.07-.72h0a.52.52,0,0,1,.72.08h0s3.65,4.45,6.12,8.19h0a22.41,22.41,0,0,1,1.91,3.36h0a.5.5,0,0,1-.27.66h0a.51.51,0,0,1-.2,0h0a.5.5,0,0,1-.47-.31Z"/><path class="cls-8" d="M40.27,45.09a2.13,2.13,0,0,1-1.41-.57h0a2.41,2.41,0,0,1-.49-.55h0a.51.51,0,0,1,.14-.71h0a.52.52,0,0,1,.71.15h0v0h0l.06.08h0l.24.24h0a1.13,1.13,0,0,0,.74.32h0c.25,0,.58-.1,1-.62h0a.51.51,0,0,1,.72,0h0a.51.51,0,0,1,0,.72h0a2.46,2.46,0,0,1-1.8,1h0Z"/></g></g></svg>