<svg id="Layer_1" data-name="Layer 1" xmlns="http://www.w3.org/2000/svg" viewBox="0 0 85.04 56.69"><defs><style>.cls-1,.cls-2{opacity:0.4;}.cls-3{fill:#a6ce40;}.cls-4{fill:#00845b;}.cls-5{fill:#81af45;}.cls-6{fill:#e0e55e;}.cls-7{fill:#fff;}.cls-8{fill:#00a58c;}.cls-9{fill:#006563;}.cls-10{fill:#008b72;}.cls-11{fill:#83c994;}</style></defs><path class="cls-1" d="M24.43,49s-2.23.23-2.3.94c-.19,1.88,9.08,1,10.4.83,7.58-.84,4.14-2.4-1.86-2.05S24.43,49,24.43,49Z"/><g class="cls-2"><path d="M32,48.29c-8.94.4-9.28.27-9.28.27s-3.33.3-3.47,1.51c-.37,3.18,13.46,2,15.42,1.76C46,50.65,40.94,47.9,32,48.29Z"/></g><path class="cls-3" d="M33.76,46.07a4.7,4.7,0,0,1-1.27,2.81,4.59,4.59,0,0,1-2.4,1.37,3.89,3.89,0,0,1-2.57-.34,3.73,3.73,0,0,1-1.78-2.4A12.12,12.12,0,0,1,25.3,45c-.07-.92-.09-1.82-.07-2.71s.06-1.74.1-2.57.07-1.51.07-2.05c0-1.33,0-2.63,0-3.91s0-2.58,0-3.9A61.39,61.39,0,0,1,19.2,23a54.25,54.25,0,0,1-5-7.71,26.14,26.14,0,0,1-1.31-2.7,8.43,8.43,0,0,1-.68-2.91,3,3,0,0,1,.27-2.36A4.3,4.3,0,0,1,14.2,5.69a4.51,4.51,0,0,1,2.33-.55A3.77,3.77,0,0,1,18.82,6a5.16,5.16,0,0,1,1.24,1.44,11.11,11.11,0,0,1,.82,1.74c.23.62.44,1.25.65,1.89a9.25,9.25,0,0,0,.79,1.78,36.66,36.66,0,0,0,3.18,4.83c1.17,1.48,2.41,3,3.74,4.42a41.39,41.39,0,0,1,3.83-4.49,36.88,36.88,0,0,0,3.77-4.49c.23-.36.57-.92,1-1.68s.93-1.54,1.44-2.36a24.85,24.85,0,0,1,1.57-2.29,5.43,5.43,0,0,1,1.44-1.41,3.72,3.72,0,0,1,2.23-.61,4,4,0,0,1,2.05.68,4.4,4.4,0,0,1,1.48,1.68,4,4,0,0,1,.41,2.29,8.53,8.53,0,0,1-1.2,3.15,38.49,38.49,0,0,1-2.47,3.77C43.88,17.62,42.94,18.83,42,20S40.27,22,39.72,22.71l-1.34,1.61c-.43.53-.88,1-1.33,1.54-.6.69-1.17,1.38-1.72,2.06s-1.09,1.37-1.64,2v7.81q0,3.91.07,7.81Z"/><path class="cls-4" d="M27.39,50.17a4,4,0,0,1-1.93-2.58h0A12.71,12.71,0,0,1,25,45h0c-.05-.69-.08-1.38-.08-2.06h0c0-.22,0-.45,0-.68h0c0-.89,0-1.75.1-2.57h0c.05-.82.07-1.5.07-2h0q0-2,0-3.9h0c0-1.24,0-2.51,0-3.79h0A61.26,61.26,0,0,1,19,23.2h0a55.31,55.31,0,0,1-5-7.74h0c-.46-.84-.9-1.75-1.32-2.74h0a9,9,0,0,1-.7-3h0a3.87,3.87,0,0,1-.13-.94h0a3.17,3.17,0,0,1,.44-1.61h0a4.73,4.73,0,0,1,1.79-1.76h0a4.88,4.88,0,0,1,2.33-.58h.15A4.14,4.14,0,0,1,19,5.77h0a5.56,5.56,0,0,1,1.3,1.52h0a10.86,10.86,0,0,1,.84,1.79h0c.23.62.45,1.26.66,1.9h0a9,9,0,0,0,.76,1.73h0a37.1,37.1,0,0,0,3.16,4.79h0q1.64,2.09,3.49,4.14h0a42.29,42.29,0,0,1,3.65-4.23h0A37.09,37.09,0,0,0,36.6,13h0c.22-.36.57-.92,1-1.67h0c.46-.75.93-1.54,1.44-2.36h0a27.71,27.71,0,0,1,1.59-2.32h0a5.73,5.73,0,0,1,1.52-1.48h0a4.13,4.13,0,0,1,2.17-.66h.23a4.34,4.34,0,0,1,2.19.74h0A4.63,4.63,0,0,1,48.33,7h0a4,4,0,0,1,.47,1.94h0c0,.17,0,.34,0,.51h0a8.66,8.66,0,0,1-1.24,3.27h0a40.1,40.1,0,0,1-2.48,3.79h0c-.94,1.29-1.89,2.5-2.86,3.65h0c-1,1.14-1.71,2.05-2.26,2.74h0l-1.33,1.61h0c-.44.53-.89,1-1.34,1.55h0q-.89,1-1.71,2h0l-1.58,2h0v7.7h0q0,3.91.07,7.81h0v.52a4.94,4.94,0,0,1-1.35,3h0a4.91,4.91,0,0,1-2.55,1.46h0a4.28,4.28,0,0,1-.87.09h0a4.25,4.25,0,0,1-1.89-.46ZM14.34,6a4,4,0,0,0-1.57,1.53h0a2.56,2.56,0,0,0-.35,1.32h0a3,3,0,0,0,.11.82h0v.06a8.19,8.19,0,0,0,.66,2.82h0a29.16,29.16,0,0,0,1.29,2.68h0a55.08,55.08,0,0,0,4.94,7.66h0a61.83,61.83,0,0,0,6.1,6.79h0a.27.27,0,0,1,.09.21h0c0,1.32,0,2.62,0,3.9h0c0,1.28,0,2.58,0,3.91h0c0,.55,0,1.24-.07,2.07h0c0,.82-.08,1.67-.1,2.56h0c0,.22,0,.44,0,.66h0c0,.67,0,1.34.08,2h0A12.22,12.22,0,0,0,26,47.43h0a3.4,3.4,0,0,0,1.64,2.22h0a3.64,3.64,0,0,0,1.62.39h0A3.81,3.81,0,0,0,30,50h0a4.32,4.32,0,0,0,2.25-1.29h0a4.43,4.43,0,0,0,1.19-2.62h0V45.6c0-2.61-.07-5.21-.07-7.82h0V30h0a.3.3,0,0,1,.06-.18h0l1.65-2.05h0c.55-.69,1.12-1.38,1.72-2.07h0c.45-.5.89-1,1.33-1.53h0l1.33-1.61h0c.55-.69,1.31-1.6,2.27-2.74h0c1-1.14,1.89-2.34,2.83-3.62h0A40.21,40.21,0,0,0,47,12.43h0a8.24,8.24,0,0,0,1.17-3h0c0-.15,0-.3,0-.45h0a3.62,3.62,0,0,0-.4-1.68h0a4.22,4.22,0,0,0-1.38-1.57h0a3.74,3.74,0,0,0-1.91-.63h-.19a3.46,3.46,0,0,0-1.86.58h0A5.05,5.05,0,0,0,41.11,7h0a23,23,0,0,0-1.55,2.26h0q-.77,1.23-1.44,2.37h0l-1,1.68h0a37.41,37.41,0,0,1-3.8,4.52h0a43,43,0,0,0-3.81,4.46h0a.3.3,0,0,1-.22.12h0a.29.29,0,0,1-.23-.1h0q-2-2.19-3.75-4.43h0A36.77,36.77,0,0,1,22.07,13h0a9.28,9.28,0,0,1-.82-1.84h0c-.2-.64-.42-1.26-.64-1.87h0a11.65,11.65,0,0,0-.8-1.71h0a5,5,0,0,0-1.17-1.35h0a3.44,3.44,0,0,0-2.12-.8h-.13A4.11,4.11,0,0,0,14.34,6Z"/><path class="cls-5" d="M15.59,6.12s2.39-.65,3.9,2.44,1.23,3.91,2.34,5.72A85.74,85.74,0,0,0,29,23.14c.52.29.93-.24,1.57-1.17,0,0-.52,2.16-1.22,2.16S27.66,23.54,26,21.5s-4.89-6.41-4.89-6.41a23.44,23.44,0,0,1-1.63-4.43C19,8.74,18.1,6.41,15.59,6.12Z"/><path class="cls-5" d="M46.31,6.23s2.39,2.16-.06,6.18c0,0-4.84,6.94-6.53,8.57s-6.64,7.75-6.64,7.75-.59.35-.47,2.62l.06,13.35a4,4,0,0,1-3.38,4.55s2.33-1.11,2.33-3L31.5,31s-.41-1.92,2-4.6c0,0,10.67-11.95,11.6-14.16A6.8,6.8,0,0,0,46.31,6.23Z"/><path class="cls-6" d="M15,12.29s-1.58-2.5-1.17-4.19,2-2,3.15-.59.76,2.92,2.16,5.72S26,24.83,28.53,25.29c0,0,1.34.93,2.8-1.51a27,27,0,0,1,4.08-5.54c1.4-1.4,4.83-5.77,5.42-7.46s1.63-3.85,3.32-4.49S45.72,7.51,45.61,8A14.19,14.19,0,0,1,41.7,15.5C38.26,19.23,32.49,25.87,32,26.4a7.37,7.37,0,0,0-1.75,5l.23,14.34s.12,2.51-2,2.8a2.6,2.6,0,0,1-1.34-2.74c.12-2.16.17-15.45.17-15.45s.24-1.22-1.75-2.27S15,12.29,15,12.29Z"/><path class="cls-7" d="M13.11,9.5A2.74,2.74,0,0,1,13,8.72h0A2.53,2.53,0,0,1,13.7,7h0a2.65,2.65,0,0,1,.71-.56h0a.58.58,0,0,1,.78.24h0a.59.59,0,0,1-.24.79h0l-.09,0h0a2.91,2.91,0,0,0-.29.26h0a1.36,1.36,0,0,0-.39,1h0a1.61,1.61,0,0,0,.07.46h0a.58.58,0,0,1-.4.72h0a.47.47,0,0,1-.16,0h0a.57.57,0,0,1-.56-.42Z"/><path class="cls-7" d="M25.2,28.5c-6.33-6.54-11.5-17-11.51-17h0a.57.57,0,0,1,.26-.78h0a.58.58,0,0,1,.78.27h0l.23.45h0c.15.29.38.73.67,1.26h0c.58,1.08,1.41,2.58,2.44,4.27h0a63.16,63.16,0,0,0,8,10.75h0a.59.59,0,0,1,0,.83h0a.57.57,0,0,1-.41.16h0a.58.58,0,0,1-.41-.17Z"/><path class="cls-7" d="M26.82,48.19a1.11,1.11,0,0,1-.2-.39h0a2,2,0,0,1-.11-.41h0c-.06-.3-.11-.66-.16-1.09h0c-.09-.87-.15-2-.2-3.24h0c-.09-2.51-.12-5.55-.12-8h0c0-2.72,0-4.78,0-4.78h0a.6.6,0,0,1,.59-.58h0a.6.6,0,0,1,.58.59h0s0,2.06,0,4.77h0c0,2.1,0,4.6.08,6.82h0A44.58,44.58,0,0,0,27.62,47h0a2.7,2.7,0,0,0,.11.47h0a.58.58,0,0,1-.09.8h0a.58.58,0,0,1-.37.13h0a.61.61,0,0,1-.45-.2Z"/><path class="cls-7" d="M30.29,23.22a.61.61,0,0,1,0-.83h0s.29-.31.77-.85h0c.48-.53,1.15-1.28,1.9-2.14h0c1.51-1.71,3.38-3.86,4.79-5.6h0a25.4,25.4,0,0,0,1.95-2.64h0a.58.58,0,0,1,.79-.23h0a.59.59,0,0,1,.23.79h0a24.25,24.25,0,0,1-2.07,2.81h0c-1,1.18-2.1,2.53-3.21,3.81h0c-2.22,2.56-4.28,4.83-4.28,4.84h0a.63.63,0,0,1-.43.19h0a.62.62,0,0,1-.4-.15Z"/><path class="cls-7" d="M40.81,9.3a.58.58,0,0,1-.22-.79h0a7.82,7.82,0,0,1,2.17-2.4h0a2.76,2.76,0,0,1,1.53-.5h0a2.19,2.19,0,0,1,.83.16h0a.59.59,0,0,1,.33.76h0a.58.58,0,0,1-.76.32h0a1.19,1.19,0,0,0-.4-.08h0a1.7,1.7,0,0,0-.84.28h0a4.39,4.39,0,0,0-.86.72h0a8.38,8.38,0,0,0-1,1.29h0v0h0a.61.61,0,0,1-.51.29h0a.6.6,0,0,1-.29-.08Z"/><path class="cls-1" d="M54,48s-2.23.22-2.3.93c-.19,1.88,9.09,1,10.4.83,7.59-.84,4.14-2.4-1.86-2S54,48,54,48Z"/><g class="cls-2"><path d="M61.54,47.24c-8.94.4-9.29.27-9.29.27s-3.33.3-3.47,1.51c-.37,3.18,13.47,2,15.42,1.76C75.53,49.6,70.48,46.85,61.54,47.24Z"/></g><path class="cls-8" d="M68.09,20.72a2.68,2.68,0,0,1,1.27-1.17,2.44,2.44,0,0,1,1.52-.15,2.7,2.7,0,0,1,1.32.76,2.78,2.78,0,0,1,.7,1.58,5.72,5.72,0,0,1-.28,2c-.24.88-.54,1.79-.89,2.73s-.72,1.83-1.09,2.68-.67,1.52-.89,2q-1.45,3.19-3.15,6.27c-1.14,2-2.3,4.07-3.5,6.08-.17.32-.37.7-.59,1.15s-.46.93-.71,1.41-.49.94-.74,1.36a4,4,0,0,1-.73.94,3,3,0,0,1-1.57.85A2.28,2.28,0,0,1,57.29,49,2.49,2.49,0,0,1,56.23,48a3,3,0,0,1-.32-1.74,3,3,0,0,1,.34-1c.2-.42.42-.84.68-1.28s.51-.86.76-1.26.46-.72.6-1c.57-.93,1.12-1.87,1.64-2.81l1.6-2.81a28.23,28.23,0,0,1-4.88-5.21,22.64,22.64,0,0,1-3.17-6.33c-.14-.4-.29-.79-.43-1.19a2.73,2.73,0,0,1-.13-1.24,3.67,3.67,0,0,1,.41-1.3,2.76,2.76,0,0,1,.83-.93,2.26,2.26,0,0,1,1.17-.41,2.54,2.54,0,0,1,1.34.3,2.34,2.34,0,0,1,.88.83,6.34,6.34,0,0,1,.53,1.15A13,13,0,0,1,58.44,23a7.8,7.8,0,0,0,.36,1.15A18.58,18.58,0,0,0,64,31.37q1.23-2.57,2.21-5.14T67.92,21Z"/><path class="cls-9" d="M57.16,49.3A2.88,2.88,0,0,1,56,48.12h0a3.13,3.13,0,0,1-.37-1.54h0a2.48,2.48,0,0,1,0-.38h0A3.49,3.49,0,0,1,56,45.1h0c.21-.42.44-.85.7-1.3h0c.25-.44.51-.86.77-1.26h0c.25-.4.45-.72.59-1h0c.57-.93,1.11-1.87,1.64-2.8h0c.48-.87,1-1.73,1.47-2.6h0a28.5,28.5,0,0,1-4.73-5.11h0a23,23,0,0,1-3.22-6.41h0l-.42-1.18h0a3,3,0,0,1-.17-1h0a2.6,2.6,0,0,1,0-.4h0a3.81,3.81,0,0,1,.43-1.41h0a3.15,3.15,0,0,1,.92-1h0a2.56,2.56,0,0,1,1.32-.46h.17a2.93,2.93,0,0,1,1.32.33h0a2.63,2.63,0,0,1,1,.94h0a7,7,0,0,1,.55,1.21h0A11.05,11.05,0,0,1,58.72,23h0a8.57,8.57,0,0,0,.35,1.11h0a18.3,18.3,0,0,0,4.79,6.83h0q1.13-2.37,2-4.76h0q1-2.56,1.74-5.24h0s0-.05,0-.08h0l.17-.25a3,3,0,0,1,1.41-1.28h0a2.93,2.93,0,0,1,1.1-.23h0a2.88,2.88,0,0,1,.59.06h0a3,3,0,0,1,1.47.85h0a3,3,0,0,1,.78,1.75h0a3.25,3.25,0,0,1,0,.33h0a7.19,7.19,0,0,1-.31,1.82h0a28.34,28.34,0,0,1-.9,2.75h0c-.36.94-.72,1.84-1.09,2.7h0c-.37.85-.67,1.52-.9,2h0q-1.45,3.21-3.16,6.29h0q-1.71,3.06-3.49,6.09h0c-.17.31-.37.69-.59,1.14h0c-.23.45-.46.92-.71,1.4h0q-.36.74-.75,1.38h0a4.14,4.14,0,0,1-.78,1h0a3.33,3.33,0,0,1-1.73.93h0a2.56,2.56,0,0,1-.47,0h0a2.59,2.59,0,0,1-1.17-.28Zm1.39-7.44c-.15.26-.35.59-.61,1h0c-.25.39-.51.81-.76,1.25h0c-.25.43-.48.85-.67,1.25h0a3.16,3.16,0,0,0-.31.9h0c0,.11,0,.22,0,.33h0a2.46,2.46,0,0,0,.3,1.25h0a2.32,2.32,0,0,0,.94,1h0a2,2,0,0,0,.91.21h0l.38,0h0a2.68,2.68,0,0,0,1.42-.77h0a4,4,0,0,0,.67-.87h0c.25-.42.49-.86.73-1.34h0l.71-1.4h0q.33-.69.6-1.17h0c1.19-2,2.36-4,3.49-6.09h0q1.69-3,3.14-6.24h0c.23-.48.52-1.14.89-2h0c.37-.85.73-1.74,1.09-2.67h0c.35-.93.64-1.83.88-2.7h0A6.75,6.75,0,0,0,72.62,22h0a2,2,0,0,0,0-.26h0A2.39,2.39,0,0,0,72,20.37h0a2.36,2.36,0,0,0-1.18-.69h0a2.31,2.31,0,0,0-.46-.05h0a2.17,2.17,0,0,0-.87.19h0a2.33,2.33,0,0,0-1.14,1.05h0l-.15.22q-.77,2.67-1.74,5.24h0c-.65,1.72-1.4,3.44-2.22,5.15h0a.31.31,0,0,1-.21.16h0a.3.3,0,0,1-.25-.07h0a18.83,18.83,0,0,1-5.23-7.3h0a7.37,7.37,0,0,1-.37-1.2h0c-.1-.41-.22-.82-.36-1.22h0a5.51,5.51,0,0,0-.5-1.1h0a2,2,0,0,0-.76-.72h0a2.41,2.41,0,0,0-1.06-.27h-.13a2,2,0,0,0-1,.36h0a2.44,2.44,0,0,0-.75.84h0a3.33,3.33,0,0,0-.37,1.19h0c0,.11,0,.22,0,.33h0a2.28,2.28,0,0,0,.14.77h0l.42,1.19h0a22,22,0,0,0,3.13,6.24h0a28,28,0,0,0,4.82,5.17h0a.29.29,0,0,1,.07.37h0c-.54.93-1.07,1.87-1.6,2.81h0c-.52.93-1.07,1.87-1.63,2.81Z"/><path class="cls-10" d="M55.19,20.36s1.36-.31,2,1.78,3.07,8.05,6.65,10.11c0,0,.69.23,1.2-1.13,0,0,0,1.86-1.44,1.75s-3.92-3.85-4.85-5.4a29.32,29.32,0,0,1-2.34-5.71C56,20.4,55.54,20.43,55.19,20.36Z"/><path class="cls-10" d="M71.16,20.16a2.54,2.54,0,0,1,.93,2.92S67.9,35.24,63.7,40.84a31.38,31.38,0,0,0-2.88,5.59c-.7,2.22-2.87,2.57-3.61,1.75a1.82,1.82,0,0,0,2.41-.82c.89-1.55.85-2.91,2.37-5.13S64.17,38.5,65.33,37s6.06-13.14,6.1-14.11A4.5,4.5,0,0,0,71.16,20.16Z"/><path class="cls-11" d="M54.26,23a1.9,1.9,0,0,1,0-1.94c.66-.82,1.36.27,1.51.77s2.6,9.72,7.69,11.78a1.3,1.3,0,0,0,1.52-1c.43-1.28,3.69-8.82,4.12-11,0,0,.23-1.32,1.28-1.28s.66,1.75.66,1.75-3.49,10.1-5.79,13.87-3.81,5.56-4.16,6.37-1.55,3.3-1.94,4.43-1.67,1.13-1.75.93-.74-.58,0-1.75,5.17-9.36,5.17-9.36.7-.82-.58-1.67S55.23,26.69,54.26,23Z"/><path class="cls-7" d="M61.87,35.22A11,11,0,0,1,59,32.54h0A32.53,32.53,0,0,1,56.55,29h0a50.52,50.52,0,0,1-2.4-4.53h0a.59.59,0,0,1,.29-.77h0a.59.59,0,0,1,.77.29h0a2.28,2.28,0,0,1,.1.21h0l.27.57h0c.24.49.59,1.17,1,2h0a35.79,35.79,0,0,0,3.31,5.13h0a10,10,0,0,0,2.55,2.4h0a.59.59,0,0,1,.21.8h0a.6.6,0,0,1-.51.29h0a.6.6,0,0,1-.29-.08Z"/><path class="cls-7" d="M63.55,33.75h0a.57.57,0,0,1-.46-.68h0a.57.57,0,0,1,.68-.46h.07a.86.86,0,0,0,.38-.09h0a.94.94,0,0,0,.42-.47h0l3.77-9.23a.57.57,0,0,1,.75-.32h0a.57.57,0,0,1,.32.76h0l-3.76,9.25,0,0a2.1,2.1,0,0,1-1,1h0a2,2,0,0,1-.91.22h0a1.09,1.09,0,0,1-.29,0Z"/><path class="cls-7" d="M56.9,46.78a.58.58,0,0,1-.21-.8h0l5.42-9.44a.57.57,0,0,1,.79-.21h0a.58.58,0,0,1,.22.79h0L57.7,46.57a.61.61,0,0,1-.51.29h0a.6.6,0,0,1-.29-.08Z"/></svg>