<svg xmlns="http://www.w3.org/2000/svg" viewBox="0 0 85.04 56.69"><defs><style>.cls-1{isolation:isolate;}.cls-2{opacity:0.4;}.cls-3{fill:#ef5ba1;stroke:#c2188d;}.cls-3,.cls-7{stroke-linecap:round;stroke-linejoin:round;stroke-width:2.48px;}.cls-4{fill:#bf1a89;}.cls-4,.cls-8{mix-blend-mode:multiply;}.cls-4,.cls-5,.cls-8{opacity:0.6;}.cls-5{fill:#f6a8ca;mix-blend-mode:overlay;}.cls-6{fill:#fff;opacity:0.85;}.cls-7{fill:#c2188d;stroke:#822a88;}.cls-8{fill:#8d55a2;}.cls-9{fill:#80391d;}</style></defs><g class="cls-1"><g id="Layer_1" data-name="Layer 1"><path class="cls-2" d="M54.16,33.75s-4.78.43-5,2.17c-.54,4.58,19.36,2.82,22.17,2.53,16.29-1.69,9-5.65-3.83-5.09S54.16,33.75,54.16,33.75Z"/><path class="cls-2" d="M56.63,34.45s-3.21.31-3.31,1.34C53,38.5,66.39,37.2,68.27,37c10.91-1.22,6-3.45-2.67-3S56.63,34.45,56.63,34.45Z"/><path class="cls-3" d="M55.05,35.87a2.41,2.41,0,0,1-1.2-.33,2.92,2.92,0,0,1-.94-.83,2.42,2.42,0,0,1-.41-1.13,1.61,1.61,0,0,1,.37-1.17,3.94,3.94,0,0,1,.47-1c.23-.38.48-.75.74-1.13s.52-.73.78-1.05a6.46,6.46,0,0,0,.54-.76,74.07,74.07,0,0,1,4.69-5.93c1.65-1.89,3.34-3.76,5.08-5.63L63,17l-2.21,0q-1.56,0-3.27.12a9,9,0,0,1-3.23-.35,2.06,2.06,0,0,1-1.23-.9,2.14,2.14,0,0,1-.31-1.32,2.65,2.65,0,0,1,.5-1.32,2.45,2.45,0,0,1,1.23-.9,4.4,4.4,0,0,1,1.13-.14h1.61l1.56.06c.48,0,.81,0,1,0,1.17,0,2.34,0,3.52,0l3.57-.08c.38,0,.77,0,1.16,0h2.51a5,5,0,0,1,1.36.17,2.86,2.86,0,0,1,1.13.6,1.84,1.84,0,0,1,.57,1.25,2.18,2.18,0,0,1-.08,1A2.52,2.52,0,0,1,73,16a4.75,4.75,0,0,1-.68.66q-.39.32-.78.66c-.59.52-1.18,1.05-1.75,1.58s-1.11,1.08-1.63,1.65q-2.27,2.46-4.44,5t-4.16,5.31l2.74.1,2.74.1c.83,0,1.68,0,2.53,0a14.19,14.19,0,0,0,2.53-.26,15.18,15.18,0,0,0,1.58-.31,2.22,2.22,0,0,1,1.57.2,2.33,2.33,0,0,1,1.29,1.75,2.58,2.58,0,0,1-.08,1.07,2,2,0,0,1-.62.95,3.25,3.25,0,0,1-1.5.76l-1.61.33a19.14,19.14,0,0,1-3.92.31q-2,0-3.93-.15c-1.31-.08-2.62-.13-3.93-.16A20.56,20.56,0,0,0,55.05,35.87Z"/><path class="cls-4" d="M53.23,14.69s.26,1.71,2.89,1.71l10,0-1.6,1.9L67,16.43s.82-1-1.15-1H56A4.07,4.07,0,0,1,53.23,14.69Z"/><path class="cls-4" d="M72.42,13.28A2,2,0,0,1,71.79,16c-1.52,1.15-11.1,11.28-12.88,14.66,0,0-.56,1,.78,1,0,0-1.56.52-1.64,0s-.14-.74.67-2.15,9.8-11.73,12.81-14.11A2.25,2.25,0,0,0,72.42,13.28Z"/><path class="cls-4" d="M53.16,33.73a2,2,0,0,0,2,1.41,42.34,42.34,0,0,1,9.43-.07c5.86.52,8.31-.52,8.91-1.23a1.64,1.64,0,0,0,.26-2s.48,1.56-1.49,2a19.28,19.28,0,0,1-7,.41,44.69,44.69,0,0,0-9.21,0C53.82,34.62,53.41,34,53.16,33.73Z"/><path class="cls-5" d="M66.07,14.58H54.6s-1-.11-1-.52S53.82,13,55.08,13l14.74.11s1.38,0,1.6.41,0,.82-1.34,2-13.66,13.74-13.44,16c0,0-.85,1.08,3.53,1s10,.49,11.77-.66a.89.89,0,0,1,.93-.15c.51.22.33,1,0,1.18a16.34,16.34,0,0,1-8.06.75s-5.53-.52-8.5.07-3.23-.26-2.56-1.3,9.17-12.36,14.7-16.85c0,0,1.74-1.11-.08-1Z"/><path class="cls-6" d="M53.42,14.91a.38.38,0,0,1-.34-.4h0a2.26,2.26,0,0,1,.3-.84h0A2.29,2.29,0,0,1,55,12.61h0a.38.38,0,0,1,.43.31h0a.37.37,0,0,1-.3.43h0A1.59,1.59,0,0,0,54,14h0a1.47,1.47,0,0,0-.22.57h0a.37.37,0,0,1-.37.34h0Z"/><path class="cls-6" d="M56.22,13.27h0a.36.36,0,0,1-.31-.42h0a.37.37,0,0,1,.42-.31h.08l.29,0h0c.26,0,.66.07,1.24.1h0c1.14.08,3,.15,5.62.15h0c1.72,0,3.78,0,6.25-.11h0a.37.37,0,0,1,.38.36h0a.36.36,0,0,1-.36.38h0c-2.47.08-4.55.11-6.27.11h0a55.55,55.55,0,0,1-7.34-.3Z"/><path class="cls-6" d="M64.37,19.15a.38.38,0,0,1,0-.53h0l1-1.05a.38.38,0,0,1,.53,0h0a.38.38,0,0,1,0,.53h0l-1,1.05a.36.36,0,0,1-.27.12h0a.35.35,0,0,1-.25-.1Z"/><path class="cls-6" d="M53.23,33.39a.62.62,0,0,1,0-.13h0a1.49,1.49,0,0,1,.14-.57h0a5.55,5.55,0,0,1,.35-.68h0c.29-.5.69-1.11,1.17-1.79h0c1-1.35,2.25-3,3.53-4.58h0c2.55-3.16,5.11-6.12,5.11-6.12h0a.38.38,0,0,1,.52,0h0a.37.37,0,0,1,0,.53h0l-.83,1h0c-.52.61-1.25,1.46-2.06,2.45h0c-1.64,2-3.65,4.43-5.14,6.44h0a19,19,0,0,0-2,3.1h0a.93.93,0,0,0-.09.28h0a.37.37,0,0,1-.3.43h-.07a.36.36,0,0,1-.36-.3Z"/><path class="cls-6" d="M59.41,32.18a.36.36,0,0,1-.34-.4h0a.38.38,0,0,1,.4-.34h0l.59,0h0l1.54.1h0c1.26.07,2.9.15,4.43.15h0c.82,0,1.61,0,2.29-.08h0a7.78,7.78,0,0,0,1.6-.25h0a.37.37,0,0,1,.46.24h0a.37.37,0,0,1-.24.47h0a8.21,8.21,0,0,1-1.76.28h0c-.71.06-1.51.08-2.35.08h0c-3.11,0-6.62-.3-6.62-.3Z"/><path class="cls-6" d="M73,32.22a1,1,0,0,0-.53-.4h0a1.74,1.74,0,0,0-.63-.11h0a2.59,2.59,0,0,0-.56.06h0a.39.39,0,0,1-.46-.26h0a.37.37,0,0,1,.26-.46h0a2.84,2.84,0,0,1,.76-.09h0a2.57,2.57,0,0,1,.9.15h0a1.91,1.91,0,0,1,.87.68h0a.37.37,0,0,1-.09.52h0a.39.39,0,0,1-.21.06h0a.37.37,0,0,1-.31-.16Z"/><path class="cls-2" d="M12.16,40.22S4.6,41,4.31,43.72C3.53,51,34.94,47.91,39.38,47.41c25.7-2.89,14.17-9-6.13-8S12.16,40.22,12.16,40.22Z"/><path class="cls-2" d="M16.06,41.29s-5.06.54-5.21,2.17c-.4,4.28,20.66,2,23.64,1.69,17.22-2.06,9.37-5.53-4.26-4.62S16.06,41.29,16.06,41.29Z"/><path class="cls-7" d="M15.09,43.63a3.69,3.69,0,0,1-1.8-.49,4.21,4.21,0,0,1-1.39-1.25,3.53,3.53,0,0,1-.61-1.69,2.41,2.41,0,0,1,.55-1.74,6,6,0,0,1,.7-1.48c.35-.56.71-1.12,1.1-1.68s.78-1.08,1.16-1.57a8.63,8.63,0,0,0,.81-1.13c2.21-3.09,4.54-6.05,7-8.85s5-5.6,7.57-8.39l-3.31.09q-1.62,0-3.3,0c-1.55,0-3.18.06-4.88.17a13,13,0,0,1-4.82-.52,3,3,0,0,1-1.82-1.34,3.2,3.2,0,0,1-.47-2,3.89,3.89,0,0,1,.76-2,3.71,3.71,0,0,1,1.82-1.34,6.7,6.7,0,0,1,1.69-.2c.77,0,1.57,0,2.41,0s1.6,0,2.32.09,1.21,0,1.48,0c1.74,0,3.49,0,5.25,0l5.31-.12,1.74,0q.87,0,1.8,0H38.1a7.92,7.92,0,0,1,2,.26,4.27,4.27,0,0,1,1.68.9,2.75,2.75,0,0,1,.84,1.86,3.2,3.2,0,0,1-.11,1.51,4,4,0,0,1-.67,1.16,6.86,6.86,0,0,1-1,1c-.39.31-.77.64-1.16,1-.89.78-1.76,1.56-2.61,2.35s-1.66,1.62-2.44,2.47Q31.29,24.36,28,28.22t-6.22,7.92l4.1.15,4.09.14c1.24,0,2.49,0,3.77,0a22.41,22.41,0,0,0,3.77-.38c.78-.11,1.56-.27,2.35-.46a3.31,3.31,0,0,1,2.36.29,3.47,3.47,0,0,1,1.91,2.61,3.62,3.62,0,0,1-.12,1.6,3.14,3.14,0,0,1-.92,1.42,4.82,4.82,0,0,1-2.24,1.13c-.83.18-1.63.34-2.41.49a29.29,29.29,0,0,1-5.83.47q-2.94-.06-5.86-.24c-2-.11-3.91-.19-5.87-.23A29.35,29.35,0,0,0,15.09,43.63Z"/><path class="cls-8" d="M12.37,12s.39,2.55,4.32,2.55l15,.05-2.38,2.83,3.6-2.83s1.21-1.44-1.72-1.44H16.52A6,6,0,0,1,12.37,12Z"/><path class="cls-8" d="M41,9.93a3,3,0,0,1-.94,4C37.78,15.63,23.5,30.74,20.84,35.78c0,0-.83,1.44,1.16,1.44,0,0-2.32.78-2.43,0s-.22-1.11,1-3.22,14.61-17.49,19.1-21A3.36,3.36,0,0,0,41,9.93Z"/><path class="cls-8" d="M12.26,40.43a3,3,0,0,0,3,2.11,62.29,62.29,0,0,1,14.06-.11c8.75.77,12.4-.78,13.29-1.83a2.44,2.44,0,0,0,.39-3s.72,2.32-2.22,3a28.47,28.47,0,0,1-10.51.61,66.58,66.58,0,0,0-13.74.06C13.26,41.76,12.65,40.76,12.26,40.43Z"/><path class="cls-5" d="M31.53,11.86H14.42s-1.55-.16-1.55-.77.39-1.61,2.27-1.61,22,.17,22,.17,2.05-.06,2.38.61-.06,1.22-2,3-20.38,20.48-20,23.86c0,0-1.28,1.61,5.25,1.55s14.84.72,17.55-1a1.37,1.37,0,0,1,1.39-.22c.77.33.5,1.5,0,1.77s-5.26,2-12,1.11c0,0-8.25-.77-12.68.11s-4.82-.38-3.82-1.94S26.82,20.06,35.07,13.36c0,0,2.6-1.66-.11-1.5Z"/><path class="cls-6" d="M12.66,12.36a.56.56,0,0,1-.51-.59h0a3.08,3.08,0,0,1,.44-1.26h0A3.44,3.44,0,0,1,15,8.94h0a.56.56,0,0,1,.65.45h0a.56.56,0,0,1-.45.64h0a2.31,2.31,0,0,0-1.65,1h0a1.91,1.91,0,0,0-.33.84h0a.56.56,0,0,1-.56.51h0Z"/><path class="cls-6" d="M16.83,9.92h0a.57.57,0,0,1-.47-.63h0A.56.56,0,0,1,17,8.83h.12l.43.05h0c.38,0,1,.1,1.84.15h0c1.71.11,4.41.22,8.39.22h0c2.56,0,5.64,0,9.32-.16h0a.54.54,0,0,1,.57.53h0a.55.55,0,0,1-.53.57h0c-3.69.12-6.79.17-9.36.17h0a83.76,83.76,0,0,1-11-.45Z"/><path class="cls-6" d="M29,18.68a.55.55,0,0,1,0-.78h0l1.46-1.57a.55.55,0,0,1,.78,0h0a.54.54,0,0,1,0,.78h0l-1.45,1.57a.55.55,0,0,1-.41.18h0a.53.53,0,0,1-.37-.15Z"/><path class="cls-6" d="M12.37,39.92a1.28,1.28,0,0,1,0-.19h0a2.31,2.31,0,0,1,.21-.86h0c.13-.3.3-.63.51-1h0c.44-.75,1-1.65,1.76-2.66h0c1.44-2,3.35-4.47,5.25-6.83h0c3.82-4.72,7.63-9.13,7.63-9.13h0a.55.55,0,0,1,.78-.06h0a.55.55,0,0,1,.06.78h0l-1.25,1.45h0l-3.07,3.65h0c-2.44,2.93-5.43,6.61-7.66,9.62h0a29.25,29.25,0,0,0-3,4.62h0a1.9,1.9,0,0,0-.13.42h0a.54.54,0,0,1-.44.64h-.1a.56.56,0,0,1-.55-.45Z"/><path class="cls-6" d="M21.59,38.12a.55.55,0,0,1-.51-.59h0a.56.56,0,0,1,.6-.51h0l.88.07h0l2.3.15h0c1.87.11,4.32.22,6.61.22h0c1.22,0,2.4,0,3.41-.11h0A11.68,11.68,0,0,0,37.27,37h0a.55.55,0,0,1,.69.36h0a.57.57,0,0,1-.36.7h0a12.57,12.57,0,0,1-2.64.42h0c-1.05.08-2.25.11-3.49.11h0c-4.64,0-9.87-.44-9.88-.44Z"/><path class="cls-6" d="M41.93,38.18a1.6,1.6,0,0,0-.8-.6h0a2.58,2.58,0,0,0-.94-.16h0a4.17,4.17,0,0,0-.83.09h0a.55.55,0,0,1-.68-.38h0a.55.55,0,0,1,.39-.68h0a4.3,4.3,0,0,1,1.13-.14h0a3.78,3.78,0,0,1,1.34.23h0a2.76,2.76,0,0,1,1.3,1h0a.55.55,0,0,1-.13.77h0a.55.55,0,0,1-.32.1h0a.53.53,0,0,1-.45-.24Z"/><path class="cls-9" d="M24.77,30.36s0,0-.06.06h0a.17.17,0,0,0,.06-.06Z"/></g></g></svg>